<svg width="604" height="559" viewBox="0 0 604 559" fill="none" xmlns="http://www.w3.org/2000/svg">
<g clip-path="url(#clip0_44_12286)">
<path d="M-2 402L602.5 402" stroke="#231F20" stroke-width="3" stroke-miterlimit="10"/>
<path d="M117.043 529.222L117.337 529.516C117.211 532.33 117.127 535.648 117.127 542.872C117.127 550.936 117.211 554.38 117.463 558.706L117.211 559C115.363 559.042 114.775 559.042 112.549 559.126L112.297 558.832C112.381 556.27 112.465 554.044 112.465 548.626C112.465 542.284 112.465 535.984 112.171 529.684L112.381 529.348C114.229 529.348 114.901 529.348 117.043 529.222ZM142.452 555.262L142.704 555.556C142.578 556.984 142.578 557.278 142.494 558.706L142.2 559C134.01 559 132.708 559.042 124.728 559.126L124.518 558.832C124.644 555.514 124.77 553.246 124.77 545.56C124.77 538.504 124.77 534.472 124.476 529.642L124.728 529.348C133.002 529.306 134.64 529.306 142.368 529.222L142.62 529.516C142.494 530.776 142.41 531.28 142.326 532.792L142.074 533.086C136.656 532.918 134.85 532.918 129.516 532.876C129.39 536.74 129.39 537.958 129.39 541.822C134.556 541.864 136.152 541.822 141.276 541.738L141.486 542.032C141.318 543.502 141.318 543.922 141.276 545.266L141.024 545.56C136.152 545.434 135.102 545.434 129.39 545.434C129.306 550.306 129.348 551.482 129.39 555.472C135.732 555.472 137.034 555.472 142.452 555.262ZM165.216 555.262L165.468 555.556C165.342 556.984 165.342 557.278 165.258 558.706L164.964 559C156.774 559 155.472 559.042 147.492 559.126L147.282 558.832C147.408 555.514 147.534 553.246 147.534 545.56C147.534 538.504 147.534 534.472 147.24 529.642L147.492 529.348C155.766 529.306 157.404 529.306 165.132 529.222L165.384 529.516C165.258 530.776 165.174 531.28 165.09 532.792L164.838 533.086C159.42 532.918 157.614 532.918 152.28 532.876C152.154 536.74 152.154 537.958 152.154 541.822C157.32 541.864 158.916 541.822 164.04 541.738L164.25 542.032C164.082 543.502 164.082 543.922 164.04 545.266L163.788 545.56C158.916 545.434 157.866 545.434 152.154 545.434C152.07 550.306 152.112 551.482 152.154 555.472C158.496 555.472 159.798 555.472 165.216 555.262ZM187.98 555.262L188.232 555.556C188.106 556.984 188.106 557.278 188.022 558.706L187.728 559C179.538 559 178.236 559.042 170.256 559.126L170.046 558.832C170.172 555.514 170.298 553.246 170.298 545.56C170.298 538.504 170.298 534.472 170.004 529.642L170.256 529.348C178.53 529.306 180.168 529.306 187.896 529.222L188.147 529.516C188.022 530.776 187.938 531.28 187.854 532.792L187.602 533.086C182.184 532.918 180.378 532.918 175.044 532.876C174.918 536.74 174.918 537.958 174.918 541.822C180.084 541.864 181.68 541.822 186.804 541.738L187.014 542.032C186.846 543.502 186.846 543.922 186.804 545.266L186.552 545.56C181.68 545.434 180.63 545.434 174.918 545.434C174.834 550.306 174.876 551.482 174.918 555.472C181.26 555.472 182.562 555.472 187.98 555.262ZM213.809 541.276L215.909 542.2C218.975 543.544 223.049 545.308 223.049 550.684C223.049 555.388 219.563 559.63 212.255 559.63C207.803 559.63 204.947 558.286 203.939 557.782L203.771 557.488C203.939 556.018 203.981 555.22 204.107 553.624L204.527 553.456C205.577 554.17 208.013 555.934 211.919 555.934C216.245 555.934 218.051 553.708 218.051 551.188C218.051 548.248 215.615 547.114 212.885 546.064L210.785 545.14C207.803 543.754 203.813 541.948 203.813 536.824C203.813 535.27 204.233 533.674 205.115 532.414C207.047 529.642 210.533 528.718 213.935 528.718C217.253 528.718 219.269 529.348 221.495 530.062L221.705 530.398C221.537 531.994 221.495 532.582 221.369 534.094L221.033 534.262C219.227 533.338 217.253 532.33 214.103 532.33C210.617 532.33 208.433 533.968 208.433 536.446C208.433 538.336 209.693 539.218 210.575 539.764C211.121 540.1 211.289 540.184 213.809 541.276ZM236.993 555.43L237.287 555.682C237.161 557.068 237.161 557.362 237.119 558.58L236.909 558.832C236.027 559.042 235.313 559.21 233.759 559.21C232.751 559.21 230.105 559.21 228.803 557.026C228.047 555.808 228.047 554.8 228.047 549.844L228.131 540.604C226.661 540.604 226.619 540.646 225.107 540.688L224.939 540.436C225.023 539.092 225.023 538.756 225.023 537.412L225.275 537.16C226.199 537.16 226.745 537.202 228.131 537.16C228.089 536.278 228.089 535.354 228.089 534.472C228.047 533.674 228.005 532.876 227.963 532.078L228.173 531.784C230.063 531.322 230.525 531.196 232.457 530.608L232.751 530.818C232.625 533.59 232.583 534.136 232.583 537.202C234.347 537.16 234.851 537.16 237.245 537.076L237.455 537.328C237.371 538.42 237.329 538.882 237.329 540.31L237.119 540.562C235.019 540.52 234.767 540.478 232.541 540.478L232.457 548.29C232.499 548.794 232.499 551.188 232.499 551.776C232.499 554.842 232.877 555.808 234.977 555.808C235.859 555.808 236.531 555.598 236.993 555.43ZM259.147 536.992L259.399 537.286C259.315 540.478 259.273 543.46 259.273 546.862C259.273 552.028 259.399 555.136 259.483 556.942C259.483 557.53 259.525 558.118 259.567 558.706L259.399 558.958C257.383 559 257.047 559.042 255.115 559.126L254.863 558.874L254.905 557.11C253.981 557.782 251.755 559.504 248.311 559.504C246.673 559.504 244.867 559.126 243.523 558.076C240.835 555.892 240.835 552.322 240.793 549.046V546.442C240.709 540.436 240.709 539.764 240.583 537.496L240.793 537.202C242.767 537.16 243.145 537.16 245.119 536.992L245.371 537.286L245.203 546.484C245.203 547.618 245.161 548.458 245.203 550.474C245.245 552.238 245.329 556.018 249.571 556.018C252.049 556.018 253.813 554.632 254.821 553.834C254.863 551.566 254.863 549.634 254.863 547.198C254.863 541.36 254.821 540.184 254.569 537.454L254.821 537.16C256.753 537.118 257.215 537.118 259.147 536.992ZM279.181 526.618L279.391 526.366C281.533 525.988 281.953 525.904 283.843 525.484L284.137 525.736C283.843 531.574 283.801 541.99 283.801 546.19C283.801 552.7 283.969 555.808 284.137 558.706L283.927 559C282.079 559 281.575 559.042 279.643 559.126L279.349 558.874L279.433 557.32C278.425 558.076 276.703 559.42 273.637 559.42C268.051 559.42 264.187 555.01 264.187 548.626C264.187 544.048 266.119 541.15 267.883 539.596C270.949 536.824 274.939 536.698 277.123 536.698C278.005 536.698 278.425 536.698 279.559 536.782C279.601 531.574 279.391 529.054 279.181 526.618ZM279.391 553.834C279.475 548.332 279.475 547.072 279.433 540.184C278.719 540.142 278.215 540.058 277.333 540.058C276.031 540.058 273.259 540.142 271.243 542.032C270.319 542.914 268.807 544.888 268.807 548.626C268.807 551.02 269.479 552.742 270.361 553.792C271.117 554.674 272.503 555.682 274.687 555.682C277.249 555.682 278.803 554.338 279.391 553.834ZM306.901 553.666L307.237 553.876C307.027 555.556 306.985 555.976 306.901 557.614L306.649 557.908C305.935 558.286 303.667 559.504 299.929 559.504C293.041 559.504 288.715 555.556 288.715 548.248C288.715 540.436 293.419 536.614 298.921 536.614C302.239 536.614 304.549 538 305.809 539.512C308.203 542.368 308.119 546.526 308.077 548.374L307.783 548.626C301.231 548.584 300.097 548.584 293.209 548.626C293.251 550.096 293.377 552.154 294.805 553.876C296.527 555.934 298.921 556.144 300.223 556.144C301.441 556.144 302.701 555.934 303.877 555.514C305.431 554.884 306.355 554.128 306.901 553.666ZM303.751 545.392C303.709 544.804 303.667 543.88 303.331 542.914C302.491 540.604 300.643 539.638 298.753 539.638C296.401 539.638 293.629 541.234 293.209 545.434C298.291 545.476 299.887 545.434 303.751 545.392ZM331.429 558.706L331.177 558.958C329.161 559 328.909 559 326.977 559.126L326.683 558.832C326.683 558.37 326.725 557.908 326.725 557.446C326.767 555.388 326.767 553.33 326.767 551.272C326.767 544.804 326.725 544.384 326.515 543.502C325.717 540.31 323.323 540.31 322.735 540.31C320.215 540.31 318.283 541.78 317.149 542.662C317.107 549.97 317.191 553.792 317.485 558.706L317.233 558.958C315.175 559 314.839 559 312.823 559.126L312.613 558.832C312.655 556.48 312.739 554.212 312.739 551.104C312.739 544.384 312.445 540.814 312.235 538L312.487 537.706C314.587 537.328 314.965 537.244 316.939 536.866L317.233 537.16L317.191 539.344C318.283 538.588 320.887 536.74 324.583 536.74C325.633 536.74 326.935 536.908 328.069 537.538C329.161 538.168 330.043 539.134 330.505 540.268C331.051 541.528 331.093 542.788 331.135 545.392V550.306C331.261 555.22 331.303 557.11 331.429 558.706ZM346.381 555.43L346.675 555.682C346.549 557.068 346.549 557.362 346.507 558.58L346.297 558.832C345.415 559.042 344.701 559.21 343.147 559.21C342.139 559.21 339.493 559.21 338.191 557.026C337.435 555.808 337.435 554.8 337.435 549.844L337.519 540.604C336.049 540.604 336.007 540.646 334.495 540.688L334.327 540.436C334.411 539.092 334.411 538.756 334.411 537.412L334.663 537.16C335.587 537.16 336.133 537.202 337.519 537.16C337.477 536.278 337.477 535.354 337.477 534.472C337.435 533.674 337.393 532.876 337.351 532.078L337.561 531.784C339.451 531.322 339.913 531.196 341.845 530.608L342.139 530.818C342.013 533.59 341.971 534.136 341.971 537.202C343.735 537.16 344.239 537.16 346.633 537.076L346.843 537.328C346.759 538.42 346.717 538.882 346.717 540.31L346.507 540.562C344.407 540.52 344.155 540.478 341.929 540.478L341.845 548.29C341.887 548.794 341.887 551.188 341.887 551.776C341.887 554.842 342.265 555.808 344.365 555.808C345.247 555.808 345.919 555.598 346.381 555.43ZM370.383 559.084L362.991 559.126L362.781 558.832C362.865 556.816 362.907 554.884 362.907 551.062C362.907 549.256 362.949 540.478 362.949 538.504C362.949 534.094 362.823 531.826 362.655 529.642L362.865 529.348L368.493 529.264C369.333 529.222 370.635 529.222 371.769 529.222C374.247 529.222 376.893 529.306 378.993 530.524C380.547 531.406 382.311 533.17 382.311 536.278C382.311 537.748 381.891 541.948 376.053 543.376C377.019 543.418 378.405 543.46 379.917 544.132C383.529 545.728 383.907 548.92 383.907 550.474C383.907 554.338 381.513 557.068 378.153 558.286C375.927 559.084 373.701 559.084 370.383 559.084ZM368.535 545.518L367.527 545.56C367.527 550.348 367.527 551.062 367.695 555.64H368.493C371.643 555.64 374.205 555.682 375.843 555.01C377.859 554.254 378.993 552.49 378.993 550.39C378.993 545.476 373.575 545.434 371.559 545.434C371.181 545.434 370.803 545.434 368.535 545.518ZM367.527 532.708V542.032C371.307 542.074 374.205 542.032 375.969 540.646C377.019 539.764 377.691 538.378 377.691 536.992C377.691 535.858 377.229 534.766 376.515 534.01C375.045 532.582 372.441 532.582 371.475 532.582C370.131 532.582 368.829 532.624 367.527 532.708ZM398.817 541.318L398.523 541.528C398.103 541.36 397.557 541.15 396.843 541.15C396.045 541.15 395.457 541.444 395.079 541.696C393.357 542.914 393.357 544.762 393.357 549.13C393.357 553.876 393.483 556.354 393.651 558.706L393.441 559C391.467 559 391.005 559.042 388.989 559.126L388.779 558.874C388.821 555.682 388.863 552.784 388.863 548.878C388.863 542.158 388.737 540.436 388.485 538L388.737 537.706C390.333 537.412 391.341 537.202 393.105 536.866L393.357 537.118L393.147 540.688C393.651 539.344 394.701 536.656 398.271 536.656C398.817 536.656 399.111 536.698 399.447 536.782L399.615 537.034C399.195 539.05 399.111 539.47 398.817 541.318ZM418.767 546.19V550.348C418.767 555.556 418.809 556.018 419.019 558.748L418.809 558.958C416.835 559 416.499 559.042 414.567 559.126L414.399 558.874L414.441 557.362C413.643 557.992 411.753 559.504 408.561 559.504C404.361 559.504 401.421 556.648 401.421 552.49C401.421 546.862 406.125 545.056 413.685 544.174L414.399 544.09C414.399 542.956 414.399 542.158 414.021 541.486C413.601 540.73 412.635 539.932 410.535 539.932C407.805 539.932 405.915 540.772 404.151 541.528L403.815 541.318C403.899 539.386 403.899 539.134 403.941 538.252L404.193 538C406.545 537.16 408.981 536.614 411.459 536.614C414.567 536.614 417.591 537.664 418.473 540.94C418.767 542.116 418.767 544.426 418.767 546.19ZM414.441 547.198L414.063 547.282C409.821 547.912 405.873 548.5 405.873 552.238C405.873 552.448 405.873 556.06 409.863 556.06C412.467 556.06 413.979 554.632 414.441 554.212V547.198ZM443.484 558.706L443.232 558.958C441.216 559 440.964 559 439.032 559.126L438.738 558.832C438.738 558.37 438.78 557.908 438.78 557.446C438.822 555.388 438.822 553.33 438.822 551.272C438.822 544.804 438.78 544.384 438.57 543.502C437.772 540.31 435.378 540.31 434.79 540.31C432.27 540.31 430.338 541.78 429.204 542.662C429.162 549.97 429.246 553.792 429.54 558.706L429.288 558.958C427.23 559 426.894 559 424.878 559.126L424.668 558.832C424.71 556.48 424.794 554.212 424.794 551.104C424.794 544.384 424.5 540.814 424.29 538L424.542 537.706C426.642 537.328 427.02 537.244 428.994 536.866L429.288 537.16L429.246 539.344C430.338 538.588 432.942 536.74 436.638 536.74C437.688 536.74 438.99 536.908 440.124 537.538C441.216 538.168 442.098 539.134 442.56 540.268C443.106 541.528 443.148 542.788 443.19 545.392V550.306C443.316 555.22 443.358 557.11 443.484 558.706ZM464.568 553.834L464.904 554.002C464.736 555.808 464.694 556.018 464.568 557.74L464.274 558.034C463.056 558.622 461.418 559.462 458.478 559.462C452.136 559.462 448.02 554.884 448.02 548.332C448.02 541.654 452.052 536.614 458.562 536.614C461.292 536.614 463.224 537.496 464.316 537.958L464.484 538.252C464.316 539.764 464.274 540.31 464.19 541.57L463.854 541.738C462.468 540.73 460.872 540.1 459.192 540.1C455.706 540.1 452.64 542.788 452.64 548.164C452.64 553.876 455.874 555.934 459.15 555.934C462.006 555.934 463.77 554.464 464.568 553.834ZM487.206 558.706L486.954 558.958C484.938 559 484.686 559 482.754 559.126L482.46 558.832L482.502 557.446C482.544 555.262 482.544 553.036 482.544 550.852L482.502 546.358C482.502 545.392 482.502 544.426 482.292 543.502C481.83 541.57 480.654 540.31 478.512 540.31C476.118 540.31 474.27 541.654 472.884 542.662C472.842 549.97 472.926 553.792 473.178 558.706L472.968 558.958C471.036 559 470.532 559 468.474 559.126L468.264 558.832C468.348 555.85 468.474 552.07 468.474 544.006C468.474 540.478 468.432 536.95 468.39 533.422C468.306 529.726 468.18 528.508 468.054 526.618L468.264 526.366C470.28 526.03 470.952 525.904 472.842 525.484L473.094 525.778C472.842 530.272 472.842 534.808 472.842 539.344C474.186 538.462 476.832 536.74 480.36 536.74C481.326 536.74 482.292 536.866 483.174 537.244C485.064 538 486.198 539.512 486.618 541.234C486.828 542.074 486.828 542.578 486.912 545.392V550.306L486.954 552.28C487.038 555.808 487.038 556.396 487.206 558.706Z" fill="#231F20"/>
<path d="M208.56 482.968L208.8 483.256L208.656 497.512V502.408C208.56 508.504 208.368 511.288 205.824 513.976C202.272 517.72 196.992 517.72 195.264 517.72C188.832 517.72 185.136 515.32 183.312 512.728C181.632 510.424 181.344 507.832 181.2 502.648V499.096C181.152 491.608 181.152 490.264 180.96 483.4L181.248 483.112C184.512 483.16 185.616 483.16 189.696 482.968L189.936 483.256C189.84 488.008 189.792 491.704 189.792 495.592C189.792 498.136 189.792 500.68 189.888 503.224C189.984 506.248 190.272 507.928 190.992 509.176C192.048 510.856 193.92 511.72 195.888 511.72C197.472 511.72 199.056 511.192 200.112 509.992C201.408 508.456 201.552 506.152 201.552 501.112C201.552 495.208 201.312 489.304 201.072 483.4L201.36 483.112C204.096 483.16 205.056 483.16 208.56 482.968ZM221.71 483.016L225.934 482.92C229.534 482.92 233.614 482.92 236.494 484.6C240.478 486.856 240.958 491.416 240.958 493.48C240.958 496.84 239.806 499.576 238.462 501.208C235.006 505.432 229.246 505.432 223.87 505.384C223.87 510.28 223.87 511.48 224.062 516.712L223.822 517C219.982 516.952 219.214 517 215.662 517.144L215.374 516.856C215.518 511 215.662 505.192 215.662 499.336C215.662 493.816 215.518 489.64 215.326 483.4L215.614 483.112L221.71 483.016ZM223.87 488.824V499.48C226.75 499.48 228.526 499.384 229.822 498.664C232.366 497.272 232.366 494.488 232.366 493.816C232.366 491.032 231.214 488.872 226.99 488.776C225.934 488.776 224.926 488.776 223.87 488.824ZM254.158 482.968L254.398 483.256C254.254 489.88 254.158 496.504 254.158 503.128C254.158 510.088 254.254 512.296 254.494 516.712L254.206 517C250.222 517 249.262 517 245.662 517.144L245.422 516.856C245.614 511.864 245.71 508.936 245.71 503.272C245.71 491.032 245.566 488.584 245.278 483.4L245.47 483.112C248.926 483.16 250.03 483.16 254.158 482.968ZM270.237 482.968L270.477 483.256C270.333 489.88 270.237 496.504 270.237 503.128C270.237 510.088 270.333 512.296 270.573 516.712L270.285 517C266.301 517 265.341 517 261.741 517.144L261.501 516.856C261.693 511.864 261.789 508.936 261.789 503.272C261.789 491.032 261.645 488.584 261.357 483.4L261.549 483.112C265.005 483.16 266.109 483.16 270.237 482.968ZM297.715 489.448L290.275 489.256C290.179 492.328 290.131 493.816 290.131 496.456C290.131 503.224 290.227 509.944 290.467 516.664L290.179 516.952C286.195 516.952 285.235 517 281.683 517.144L281.395 516.856C281.779 504.952 281.779 501.928 281.731 489.352L273.907 489.544L273.667 489.256L274.003 483.352L274.339 483.064H298.099L298.339 483.208L298.003 489.208L297.715 489.448ZM316.889 482.968L317.225 483.256C319.961 493.816 320.633 496.072 326.441 516.616L326.201 517C322.313 516.952 321.353 517 317.849 517.144L317.513 516.856L315.449 507.976H305.081L302.729 516.712L302.393 517H294.905L294.713 516.664C301.769 496.408 303.305 491.56 305.849 483.4L306.185 483.112C311.321 483.112 312.281 483.112 316.889 482.968ZM306.761 502.168H314.057L312.281 494.68L310.841 488.44L309.161 494.056L306.761 502.168ZM342.761 500.344L343.001 500.584L342.665 506.152L342.377 506.44C340.025 506.44 337.673 506.392 335.321 506.392C332.777 506.392 331.193 506.44 328.505 506.488L328.265 506.2L328.553 500.68L328.889 500.392C331.145 500.392 333.449 500.44 335.753 500.44C338.585 500.44 340.457 500.392 342.761 500.344ZM356.393 482.968L356.633 483.256C356.489 489.88 356.393 496.504 356.393 503.128C356.393 510.088 356.489 512.296 356.729 516.712L356.441 517C352.457 517 351.497 517 347.897 517.144L347.657 516.856C347.849 511.864 347.945 508.936 347.945 503.272C347.945 491.032 347.801 488.584 347.513 483.4L347.705 483.112C351.161 483.16 352.265 483.16 356.393 482.968ZM370.023 483.016L374.247 482.92C377.847 482.92 381.927 482.92 384.807 484.6C388.791 486.856 389.271 491.416 389.271 493.48C389.271 496.84 388.119 499.576 386.775 501.208C383.319 505.432 377.559 505.432 372.183 505.384C372.183 510.28 372.183 511.48 372.375 516.712L372.135 517C368.295 516.952 367.527 517 363.975 517.144L363.687 516.856C363.831 511 363.975 505.192 363.975 499.336C363.975 493.816 363.831 489.64 363.639 483.4L363.927 483.112L370.023 483.016ZM372.183 488.824V499.48C375.063 499.48 376.839 499.384 378.135 498.664C380.679 497.272 380.679 494.488 380.679 493.816C380.679 491.032 379.527 488.872 375.303 488.776C374.247 488.776 373.239 488.776 372.183 488.824ZM422.439 482.968L422.727 483.256C422.679 488.632 422.631 493.96 422.631 499.336C422.631 505.096 422.679 509.8 422.727 516.76L422.487 517C419.943 517 419.079 517 416.151 517.144L415.815 516.904L411.543 510.664L406.743 503.608C403.479 498.856 402.711 497.608 400.455 493.864L400.743 500.296L400.887 506.2L401.367 516.712L401.127 517C398.343 517 397.335 517 394.119 517.144L393.879 516.856C393.927 512.2 394.023 507.496 394.023 502.792C394.023 496.36 393.879 490.84 393.639 483.4L393.879 483.112C397.383 483.16 398.007 483.16 401.799 482.968L402.135 483.208C403.335 485.128 404.055 486.184 407.655 491.656L412.023 498.04C414.471 501.688 414.711 502.072 416.103 504.424L415.911 496.504L415.719 489.88L415.383 483.4L415.623 483.112C418.599 483.16 419.415 483.112 422.439 482.968Z" fill="#231F20"/>
<path d="M273.151 142.485C272.222 139.261 271.184 136.147 270.091 133.032C269.927 132.923 269.763 132.814 269.599 132.705C270.965 135.874 272.113 139.152 273.205 142.485H273.151Z" fill="#231F20"/>
<path d="M269.326 248.759C269.326 248.759 269.708 248.54 269.872 248.431C271.129 244.934 272.331 241.383 273.369 237.722C272.167 241.492 270.856 245.153 269.326 248.759Z" fill="#231F20"/>
<path d="M269.271 226.138L269.38 225.756C264.681 226.794 259.927 227.778 255.174 228.706C259.764 228.105 264.244 227.34 268.615 226.302L269.325 226.138H269.271Z" fill="#231F20"/>
<path d="M269.271 226.138L269.38 225.756C264.681 226.794 259.927 227.778 255.174 228.706C259.764 228.105 264.244 227.34 268.615 226.302L269.325 226.138H269.271Z" fill="#231F20"/>
<path d="M286.538 228.324V229.198H284.024C281.292 230.127 278.506 231.001 275.664 231.766L275.009 231.93C280.855 230.673 286.647 229.252 292.329 227.723C295.389 224.116 298.121 220.565 300.361 217.614C298.34 218.215 296.263 218.816 294.187 219.417C292.766 222.095 291.237 224.663 289.434 227.176C288.45 227.559 287.466 227.941 286.483 228.324H286.538Z" fill="#231F20"/>
<path d="M286.537 228.324C285.717 228.652 284.898 228.925 284.023 229.198H286.537V228.324Z" fill="#231F20"/>
<path d="M286.537 228.324C285.717 228.652 284.898 228.925 284.023 229.198H286.537V228.324Z" fill="#231F20"/>
<path d="M269.872 248.376C268.232 252.857 266.429 257.173 264.408 261.38C280.417 254.168 293.203 241.382 300.797 225.373C298.011 226.193 295.17 226.958 292.383 227.723C285.936 235.317 277.958 243.459 269.872 248.376Z" fill="#231F20"/>
<path d="M275.064 232.039C275.064 232.039 274.954 232.039 274.9 232.039C274.408 233.951 273.915 235.809 273.369 237.667C273.915 235.973 274.408 234.279 274.9 232.585L275.064 231.984V232.039Z" fill="#231F20"/>
<path d="M269.326 248.759C270.856 245.207 272.222 241.492 273.369 237.722C273.916 235.864 274.408 233.951 274.899 232.094C270.856 233.023 266.813 233.842 262.769 234.662C263.589 234.498 264.354 234.389 265.174 234.225L267.195 233.842L266.54 235.755C264.463 241.929 261.786 247.939 258.453 253.95C251.732 256.463 244.575 257.993 237.144 258.375V238.869C234.794 239.197 232.39 239.47 230.041 239.743V258.321C222.5 257.938 215.288 256.299 208.622 253.676C206.491 249.852 204.688 246.027 203.104 242.147C200.536 242.311 198.022 242.421 195.454 242.53C196.11 244.388 196.82 246.245 197.585 248.048C195.017 246.464 192.558 244.661 190.263 242.748C185.783 242.912 181.248 242.967 176.713 242.967C190.864 258.266 211.136 267.883 233.647 267.883C244.793 267.883 255.229 265.533 264.518 261.326C266.54 257.119 268.343 252.802 269.982 248.322C269.818 248.431 269.599 248.54 269.435 248.65L269.326 248.759Z" fill="#231F20"/>
<path d="M269.326 248.759C270.856 245.207 272.222 241.492 273.369 237.722C273.916 235.864 274.408 233.951 274.899 232.094C270.856 233.023 266.813 233.842 262.769 234.662C263.589 234.498 264.354 234.389 265.174 234.225L267.195 233.842L266.54 235.755C264.463 241.929 261.786 247.939 258.453 253.95C251.732 256.463 244.575 257.993 237.144 258.375V238.869C234.794 239.197 232.39 239.47 230.041 239.743V258.321C222.5 257.938 215.288 256.299 208.622 253.676C206.491 249.852 204.688 246.027 203.104 242.147C200.536 242.311 198.022 242.421 195.454 242.53C196.11 244.388 196.82 246.245 197.585 248.048C195.017 246.464 192.558 244.661 190.263 242.748C185.783 242.912 181.248 242.967 176.713 242.967C190.864 258.266 211.136 267.883 233.647 267.883C244.793 267.883 255.229 265.533 264.518 261.326C266.54 257.119 268.343 252.802 269.982 248.322C269.818 248.431 269.599 248.54 269.435 248.65L269.326 248.759Z" fill="#231F20"/>
<path d="M186.985 195.158C187.203 203.955 188.132 213.079 189.826 222.04L186.985 195.158Z" fill="#231F20"/>
<path d="M186.985 195.158C187.203 203.955 188.132 213.079 189.826 222.04L186.985 195.158Z" fill="#231F20"/>
<path d="M175.838 226.466C180.811 228.597 186.056 230.345 191.356 231.766L192.012 231.93L192.176 232.586C192.503 233.733 192.831 234.88 193.159 236.028C195.618 235.919 198.077 235.755 200.535 235.591L199.934 233.788L201.956 234.17C203.814 234.498 205.617 234.826 207.474 235.099C223.648 233.788 239.602 231.657 255.174 228.706C249.765 229.362 244.192 229.799 238.346 229.908H237.143V194.01H273.096V195.212C272.823 205.976 271.73 215.921 269.49 225.428V225.756C271.074 225.373 272.768 224.991 274.462 224.608V148.058H274.79C274.298 146.201 273.806 144.343 273.26 142.485C272.222 139.152 271.02 135.874 269.654 132.705C269.818 132.814 269.982 132.923 270.145 133.033C268.397 128.279 266.485 123.689 264.354 119.209C254.901 115.111 244.52 112.871 233.592 112.871C190.755 112.871 156.059 147.567 156.059 190.404C156.059 207.725 161.742 223.679 171.303 236.574C175.401 236.574 179.445 236.52 183.488 236.41C180.647 233.351 178.079 230.018 175.893 226.466H175.838ZM237.089 122.487C244.629 122.87 251.787 124.509 258.507 127.131C261.786 133.033 264.408 138.988 266.539 145.108L267.195 147.02L265.173 146.638C256.158 144.944 247.088 144.015 238.291 143.797H237.143V122.433L237.089 122.487ZM237.089 150.954H238.291C249 151.227 258.999 152.32 268.506 154.56L269.217 154.724L269.381 155.435C271.621 164.942 272.714 174.941 272.932 185.65V186.852H237.034V150.9L237.089 150.954ZM229.986 229.963H228.784C218.02 229.69 208.075 228.597 198.568 226.357L197.858 226.193L197.694 225.482C195.454 215.921 194.361 205.976 194.143 195.267V194.065H230.04V230.018L229.986 229.963ZM200.59 145.108C202.666 138.988 205.289 132.978 208.567 127.131C215.233 124.509 222.446 122.87 229.931 122.487V143.797H228.784C219.987 144.07 210.917 144.944 201.901 146.638L199.88 147.02L200.535 145.108H200.59ZM197.803 154.724L198.514 154.56C208.075 152.32 218.074 151.227 228.729 150.954H229.931V186.852H193.979V185.65C194.252 174.941 195.345 164.942 197.585 155.435L197.749 154.724H197.803ZM197.53 132.759C195.399 137.732 193.651 142.977 192.23 148.277L192.066 148.933L191.411 149.097C186.056 150.517 180.865 152.266 175.893 154.397C181.357 145.654 188.788 138.223 197.53 132.705V132.759ZM170.265 165.488C176.166 162.21 182.122 159.587 188.242 157.511L190.154 156.855L189.771 158.877C188.078 167.838 187.203 176.963 186.93 185.76V186.907H165.566C165.949 179.367 167.588 172.209 170.211 165.543L170.265 165.488ZM170.265 215.429C167.643 208.763 166.003 201.55 165.621 194.01H186.93V195.158L189.771 222.04L190.154 224.062L188.242 223.406C182.122 221.33 176.166 218.707 170.265 215.429Z" fill="#231F20"/>
<path d="M274.408 224.608C275.173 224.445 275.938 224.281 276.703 224.062C278.833 213.298 279.981 202.042 279.981 190.459C279.981 175.652 278.123 161.391 274.736 148.059H274.408V224.608Z" fill="#231F20"/>
<path d="M274.408 224.608C275.173 224.445 275.938 224.281 276.703 224.062C278.833 213.298 279.981 202.042 279.981 190.459C279.981 175.652 278.123 161.391 274.736 148.059H274.408V224.608Z" fill="#231F20"/>
<path d="M289.541 227.176C291.29 224.718 292.874 222.149 294.295 219.417C291.727 220.128 289.159 220.838 286.591 221.548V228.324C287.574 227.941 288.558 227.559 289.541 227.176Z" fill="#231F20"/>
<path d="M289.541 227.176C291.29 224.718 292.874 222.149 294.295 219.417C291.727 220.128 289.159 220.838 286.591 221.548V228.324C287.574 227.941 288.558 227.559 289.541 227.176Z" fill="#231F20"/>
<path d="M275.062 231.93L275.718 231.766C278.559 231.001 281.291 230.127 284.078 229.198H275.609C275.39 230.182 275.172 231.111 274.953 232.039C274.953 232.039 275.062 232.039 275.117 232.039L275.062 231.93Z" fill="#231F20"/>
<path d="M275.062 231.93L275.718 231.766C278.559 231.001 281.291 230.127 284.078 229.198H275.609C275.39 230.182 275.172 231.111 274.953 232.039C274.953 232.039 275.062 232.039 275.117 232.039L275.062 231.93Z" fill="#231F20"/>
<path d="M276.921 224.062C276.921 224.062 276.757 224.062 276.702 224.062C276.374 225.81 275.992 227.504 275.609 229.198H284.078C284.898 228.925 285.772 228.597 286.592 228.324V221.548C283.423 222.368 280.308 223.188 277.139 223.952H276.975L276.921 224.062Z" fill="#231F20"/>
<path d="M276.921 224.062C276.921 224.062 276.757 224.062 276.702 224.062C276.374 225.81 275.992 227.504 275.609 229.198H284.078C284.898 228.925 285.772 228.597 286.592 228.324V221.548C283.423 222.368 280.308 223.188 277.139 223.952H276.975L276.921 224.062Z" fill="#231F20"/>
<path d="M276.921 224.062C276.921 224.062 276.757 224.062 276.702 224.062C276.374 225.81 275.992 227.504 275.609 229.198H284.078C284.898 228.925 285.772 228.597 286.592 228.324V221.548C283.423 222.368 280.308 223.188 277.139 223.952H276.975L276.921 224.062Z" fill="#231F20"/>
<path d="M274.407 229.198V224.608C272.713 224.991 271.074 225.373 269.38 225.756L269.271 226.138L268.561 226.302C264.189 227.34 259.709 228.105 255.119 228.706C239.547 231.657 223.593 233.788 207.419 235.099C214.577 236.192 221.79 236.793 228.783 237.012H229.931V239.744C232.335 239.47 234.684 239.142 237.034 238.869V237.066H238.181C246.159 236.848 254.464 236.083 262.66 234.607C266.757 233.842 270.801 232.968 274.789 232.039C275.008 231.11 275.227 230.127 275.445 229.198H274.243H274.407Z" fill="#231F20"/>
<path d="M274.407 229.198V224.608C272.713 224.991 271.074 225.373 269.38 225.756L269.271 226.138L268.561 226.302C264.189 227.34 259.709 228.105 255.119 228.706C239.547 231.657 223.593 233.788 207.419 235.099C214.577 236.192 221.79 236.793 228.783 237.012H229.931V239.744C232.335 239.47 234.684 239.142 237.034 238.869V237.066H238.181C246.159 236.848 254.464 236.083 262.66 234.607C266.757 233.842 270.801 232.968 274.789 232.039C275.008 231.11 275.227 230.127 275.445 229.198H274.243H274.407Z" fill="#231F20"/>
<path d="M274.407 229.198V224.608C272.713 224.991 271.074 225.373 269.38 225.756L269.271 226.138L268.561 226.302C264.189 227.34 259.709 228.105 255.119 228.706C239.547 231.657 223.593 233.788 207.419 235.099C214.577 236.192 221.79 236.793 228.783 237.012H229.931V239.744C232.335 239.47 234.684 239.142 237.034 238.869V237.066H238.181C246.159 236.848 254.464 236.083 262.66 234.607C266.757 233.842 270.801 232.968 274.789 232.039C275.008 231.11 275.227 230.127 275.445 229.198H274.243H274.407Z" fill="#231F20"/>
<path d="M275.555 229.198C275.937 227.504 276.32 225.81 276.647 224.062C275.882 224.226 275.117 224.39 274.353 224.608V229.198H275.555Z" fill="#231F20"/>
<path d="M275.555 229.198C275.937 227.504 276.32 225.81 276.647 224.062C275.882 224.226 275.117 224.39 274.353 224.608V229.198H275.555Z" fill="#231F20"/>
<path d="M275.555 229.198C275.937 227.504 276.32 225.81 276.647 224.062C275.882 224.226 275.117 224.39 274.353 224.608V229.198H275.555Z" fill="#231F20"/>
<path d="M275.555 229.198C275.937 227.504 276.32 225.81 276.647 224.062C275.882 224.226 275.117 224.39 274.353 224.608V229.198H275.555Z" fill="#231F20"/>
<path d="M305.333 216.139C303.694 216.631 302.054 217.177 300.415 217.669C298.175 220.62 295.443 224.117 292.383 227.777C295.225 227.012 298.011 226.247 300.798 225.428C300.962 225.045 301.18 224.608 301.399 224.226C302.437 222.149 303.858 218.98 305.333 216.139Z" fill="#231F20"/>
<path d="M305.333 216.139C303.694 216.631 302.054 217.177 300.415 217.669C298.175 220.62 295.443 224.117 292.383 227.777C295.225 227.012 298.011 226.247 300.798 225.428C300.962 225.045 301.18 224.608 301.399 224.226C302.437 222.149 303.858 218.98 305.333 216.139Z" fill="#231F20"/>
<path d="M200.535 235.646C198.077 235.809 195.618 235.919 193.159 236.083C193.815 238.323 194.525 240.508 195.345 242.639C197.913 242.53 200.426 242.421 202.994 242.257C202.12 240.126 201.3 237.94 200.59 235.755V235.646H200.535Z" fill="#231F20"/>
<path d="M200.535 235.646C198.077 235.809 195.618 235.919 193.159 236.083C193.815 238.323 194.525 240.508 195.345 242.639C197.913 242.53 200.426 242.421 202.994 242.257C202.12 240.126 201.3 237.94 200.59 235.755V235.646H200.535Z" fill="#231F20"/>
<path d="M200.535 235.646C198.077 235.809 195.618 235.919 193.159 236.083C193.815 238.323 194.525 240.508 195.345 242.639C197.913 242.53 200.426 242.421 202.994 242.257C202.12 240.126 201.3 237.94 200.59 235.755V235.646H200.535Z" fill="#231F20"/>
<path d="M183.434 236.41C179.39 236.519 175.347 236.574 171.249 236.574C172.888 238.814 174.691 240.945 176.604 243.022C181.139 243.022 185.674 242.912 190.154 242.803C187.75 240.836 185.51 238.705 183.434 236.41Z" fill="#231F20"/>
<path d="M183.434 236.41C179.39 236.519 175.347 236.574 171.249 236.574C172.888 238.814 174.691 240.945 176.604 243.022C181.139 243.022 185.674 242.912 190.154 242.803C187.75 240.836 185.51 238.705 183.434 236.41Z" fill="#231F20"/>
<path d="M183.434 236.41C179.39 236.519 175.347 236.574 171.249 236.574C172.888 238.814 174.691 240.945 176.604 243.022C181.139 243.022 185.674 242.912 190.154 242.803C187.75 240.836 185.51 238.705 183.434 236.41Z" fill="#231F20"/>
<path d="M175.347 54.1875C120.271 98.3908 100.71 170.351 120.544 233.897C121.473 234.006 122.456 234.115 123.385 234.17C106.119 171.881 126.063 102.543 179.664 59.5421C250.585 2.60784 353.853 13.0986 411.934 82.5453C411.224 81.6165 410.568 80.6876 409.858 79.8134C352.159 7.96251 247.143 -3.51178 175.347 54.1875Z" fill="#231F20"/>
<path d="M149.666 288.7C150.376 289.575 151.141 290.449 151.906 291.323C139.776 275.532 130.87 258.266 125.133 240.29C124.259 240.18 123.384 240.071 122.51 239.962C128.63 257.173 137.591 273.62 149.666 288.646V288.7Z" fill="#231F20"/>
<path d="M122.511 240.016C123.385 240.125 124.259 240.235 125.134 240.344C124.478 238.322 123.877 236.301 123.33 234.224C122.402 234.115 121.418 234.06 120.489 233.951C121.145 235.973 121.801 237.994 122.511 240.016Z" fill="#231F20"/>
<path d="M229.603 7.36164C131.69 35.7741 75.3025 138.223 103.715 236.137C104.097 237.339 104.48 238.541 104.862 239.798C78.9087 142.977 135.023 42.768 231.734 14.6833C328.445 -13.4013 429.528 41.2381 459.415 136.966C459.087 135.71 458.814 134.508 458.432 133.251C430.019 35.2824 327.571 -21.0509 229.603 7.36164Z" fill="#231F20"/>
<path d="M63.5 289.902H73.5536C74.1 289.902 74.5917 289.902 75.1381 289.902C81.8041 290.285 85.0278 292.908 85.6288 297.88C86.0113 300.612 85.2464 303.07 83.6618 305.092C81.9134 307.223 79.4 308.425 76.2855 308.534H68.0897V322.304H63.5546V289.902H63.5ZM73.0072 305.365C73.3897 305.365 73.7175 305.365 74.0453 305.365C77.7608 305.201 79.4 304.218 80.5474 301.814C80.9845 300.94 81.2031 299.847 81.0391 298.426C80.7113 295.038 78.8536 293.29 74.2639 292.962H68.035V305.365H73.0072Z" fill="#231F20"/>
<path d="M98.5782 299.3C103.878 300.229 107.43 304.6 107.43 310.938C107.43 317.276 103.878 321.648 98.5782 322.577C90.7648 323.997 84.9185 318.97 84.9185 310.938C84.9185 302.906 90.7648 297.88 98.5782 299.3ZM89.3442 312.14C89.9453 318.26 93.3329 320.992 97.9772 319.899C100.818 319.189 102.567 316.839 102.949 312.14C103.059 311.375 103.059 310.61 102.949 309.846C102.567 305.092 100.764 302.797 97.9772 302.087C93.3329 300.939 89.8906 303.671 89.3442 309.846C89.3442 310.228 89.3442 310.61 89.3442 310.993C89.3442 311.375 89.3442 311.758 89.3442 312.14Z" fill="#231F20"/>
<path d="M112.948 299.683L118.631 317.714L124.204 299.683H129.395L135.023 317.714L140.76 299.683H144.475L137.317 322.303H132.564L126.608 303.343L120.762 322.303H115.844L108.687 299.683H112.894H112.948Z" fill="#231F20"/>
<path d="M149.829 311.539C149.829 311.976 149.829 312.468 149.829 312.96C150.211 317.987 152.561 320.282 156.112 320.282C158.954 320.391 160.811 318.97 161.576 315.965C161.686 315.801 161.74 315.583 161.74 315.309H165.565C165.565 315.746 165.456 316.238 165.346 316.73C164.418 320.445 161.249 322.74 156.112 322.85C149.938 322.959 146.441 319.626 145.731 312.741C144.966 304.764 148.572 300.065 154.091 299.3C161.576 298.262 165.729 301.868 166.057 310.119C166.057 310.556 166.057 310.993 166.057 311.539H149.829ZM161.904 309.244C161.904 309.244 161.904 308.753 161.904 308.534C161.795 303.89 159.445 301.649 155.839 301.759C152.779 301.868 150.594 303.835 149.938 308.042C149.829 308.425 149.829 308.807 149.829 309.19H161.85L161.904 309.244Z" fill="#231F20"/>
<path d="M170.428 299.683H174.471V302.852C174.471 302.852 174.744 302.415 174.853 302.196C176.219 300.284 177.859 299.3 180.372 299.246C181.028 299.246 181.793 299.246 182.448 299.41V302.961H182.066L181.519 302.852C176.493 302.579 174.471 304.546 174.471 309.245V322.194H170.428V299.573V299.683Z" fill="#231F20"/>
<path d="M203.704 302.906L203.212 302.251C202.065 300.666 201.354 299.464 201.027 298.371C199.497 293.618 202.447 289.356 207.638 289.465C208.184 289.465 208.731 289.465 209.277 289.629C213.484 290.558 215.561 295.639 212.938 299.737C212.118 300.994 210.807 302.196 209.059 303.179C208.621 303.398 208.13 303.617 207.638 303.835L216.271 313.998C217.036 311.922 217.418 309.791 217.473 307.551H219.932C219.822 308.862 219.659 310.228 219.331 311.485C218.948 312.96 218.402 314.435 217.692 315.747L223.265 322.194H220.096L216.38 317.659C216.107 318.041 215.888 318.315 215.615 318.642C213.976 320.609 211.681 321.975 209.222 322.522C203.977 323.669 199.114 321.374 197.038 317.386C196.382 315.965 196 314.49 196.054 312.96C196.164 309.463 198.131 306.239 202.229 303.89C202.775 303.562 203.321 303.343 203.868 303.125L203.595 302.742L203.704 302.906ZM202.229 306.84C201.737 307.277 201.245 307.769 200.808 308.261C197.257 312.468 198.95 318.479 204.086 320.172C207.638 321.32 211.353 320.336 214.14 317.276C214.468 316.894 214.741 316.566 215.014 316.184L205.452 304.873C204.36 305.31 203.321 305.966 202.283 306.786L202.229 306.84ZM207.583 301.595C210.151 300.12 211.19 298.644 211.463 296.787C211.845 293.727 209.55 291.541 206.709 292.033C203.321 292.579 202.01 295.803 204.305 299.628C204.578 300.01 204.797 300.338 205.07 300.721C205.507 301.376 205.89 301.868 206.272 302.251C206.709 302.087 207.146 301.868 207.529 301.595H207.583Z" fill="#231F20"/>
<path d="M238.728 289.902H258.725V293.126H243.263V303.945H257.851V307.223H243.263V319.08H259.217V322.304H238.728V289.902Z" fill="#231F20"/>
<path d="M263.424 299.683H267.467V303.835C267.467 303.835 267.74 303.289 267.85 303.016C269.27 300.557 271.128 299.3 273.914 299.082C279.269 298.59 282.329 301.267 282.547 306.075V307.059V307.715V322.303H278.504V306.95C278.34 305.037 277.958 304.218 277.138 303.344C275.991 302.087 274.078 301.54 272.057 302.087C269.106 302.797 267.358 305.311 267.358 310.72V322.303H263.314V299.683H263.424Z" fill="#231F20"/>
<path d="M291.236 311.539C291.236 311.976 291.236 312.468 291.236 312.96C291.618 317.987 293.968 320.282 297.519 320.282C300.36 320.391 302.218 318.97 302.983 315.965C303.092 315.801 303.147 315.583 303.147 315.309H306.972C306.972 315.746 306.862 316.238 306.753 316.73C305.824 320.445 302.655 322.74 297.519 322.85C291.345 322.959 287.848 319.626 287.138 312.741C286.373 304.764 289.979 300.065 295.498 299.3C302.983 298.262 307.136 301.868 307.464 310.119C307.464 310.556 307.464 310.993 307.464 311.539H291.236ZM303.311 309.244C303.311 309.244 303.311 308.753 303.311 308.534C303.202 303.89 300.852 301.649 297.246 301.759C294.186 301.868 292.001 303.835 291.345 308.042C291.236 308.425 291.236 308.807 291.236 309.19H303.256L303.311 309.244Z" fill="#231F20"/>
<path d="M311.779 299.683H315.823V302.852C315.823 302.852 316.096 302.415 316.205 302.196C317.571 300.284 319.21 299.3 321.724 299.246C322.379 299.246 323.144 299.246 323.8 299.41V302.961H323.417L322.871 302.852C317.844 302.579 315.823 304.546 315.823 309.245V322.194H311.779V299.573V299.683Z" fill="#231F20"/>
<path d="M340.684 299.683H344.782V322.139C344.782 328.423 340.575 332.357 333.144 331.974C327.789 331.647 325.003 329.297 324.62 325.8C324.62 325.472 324.62 325.199 324.62 324.926H328.718C328.718 324.926 328.718 325.254 328.718 325.363C328.937 327.494 330.412 328.86 333.526 329.079C337.788 329.406 340.302 327.166 340.575 323.068C340.575 322.795 340.575 322.522 340.575 322.303V317.331L340.356 317.714L339.919 318.369C337.624 321.866 333.69 323.177 329.483 321.484C326.259 320.118 324.238 317.331 323.637 312.687C323.527 311.321 323.527 309.955 323.746 308.534C324.62 303.234 327.899 299.901 331.505 299.355C335.985 298.644 339.209 300.174 340.629 302.852V299.628L340.684 299.683ZM336.149 319.189C337.788 318.697 339.1 317.276 340.138 314.708C340.466 313.834 340.629 312.96 340.793 311.922C341.504 304.6 337.788 301.212 333.199 302.251C330.576 302.906 328.609 305.256 328.172 309.354C328.062 309.736 328.062 310.228 328.062 310.665C327.899 317.55 331.833 320.609 336.204 319.243L336.149 319.189Z" fill="#231F20"/>
<path d="M351.229 299.683L357.895 317.714L364.506 299.683H368.222L356.693 331.046H352.704L355.764 322.686L346.913 299.737H351.229V299.683Z" fill="#231F20"/>
<path d="M385.434 313.288C385.052 317.113 388.275 320.227 393.794 319.735C394.668 319.735 395.488 319.462 396.198 319.134C398.821 317.987 399.913 316.238 399.859 313.944C399.749 311.539 398.821 310.337 395.979 309.19L393.63 308.425L390.789 307.387C390.351 307.223 389.914 307.059 389.423 306.895C382.483 304.218 380.407 300.994 382.101 295.475C383.194 291.815 386.855 289.301 392.701 289.301C399.804 289.192 403.847 292.907 404.066 297.716H399.476C399.476 294.82 397.017 292.58 392.701 292.58C389.204 292.58 387.237 293.891 386.417 296.404C385.379 299.628 386.964 302.032 392.482 303.945L395.597 304.983L397.181 305.529L398.383 305.966C403.41 307.824 405.377 311.376 404.175 316.129C403.192 320.063 400.023 322.413 394.176 322.795C393.029 322.904 391.827 322.795 390.679 322.795C384.669 322.249 381.773 319.899 381.008 315.31C380.899 314.654 380.899 313.944 380.899 313.288H385.434Z" fill="#231F20"/>
<path d="M420.784 299.3C426.084 300.229 429.636 304.6 429.636 310.938C429.636 317.276 426.084 321.648 420.784 322.577C412.971 323.997 407.125 318.97 407.125 310.938C407.125 302.906 412.971 297.88 420.784 299.3ZM411.55 312.14C412.151 318.26 415.539 320.992 420.183 319.899C423.024 319.189 424.773 316.839 425.21 312.14C425.319 311.375 425.319 310.61 425.21 309.846C424.828 305.092 423.024 302.797 420.183 302.087C415.539 300.939 412.097 303.671 411.55 309.846C411.55 310.228 411.55 310.61 411.55 310.993C411.55 311.375 411.55 311.758 411.55 312.14Z" fill="#231F20"/>
<path d="M448.651 307.059C448.651 307.059 448.541 306.458 448.541 306.13C448.432 305.747 448.323 305.31 448.159 304.982C446.848 301.923 442.531 300.884 439.362 303.562C437.941 304.764 436.958 306.731 436.739 309.9C436.63 310.883 436.739 311.922 436.849 312.905C437.45 317.604 439.307 319.626 442.75 319.844C446.083 320.063 448.104 318.478 448.596 315.364C448.596 315.145 448.596 314.927 448.705 314.708H452.53C452.53 315.2 452.53 315.692 452.366 316.129C451.492 320.5 448.05 323.177 442.586 322.904C436.248 322.686 432.587 318.697 432.478 311.321C432.368 304.217 435.92 299.792 441.165 299.136C447.667 298.262 451.547 301.048 452.475 305.911C452.475 306.294 452.585 306.676 452.639 307.059H448.705H448.651Z" fill="#231F20"/>
<path d="M456.301 289.902H460.344V294.711H456.301V289.902ZM456.301 299.683H460.344V322.304H456.301V299.683Z" fill="#231F20"/>
<path d="M468.922 311.539C468.922 311.976 468.922 312.468 468.922 312.96C469.305 317.987 471.654 320.282 475.206 320.282C478.047 320.391 479.905 318.97 480.67 315.965C480.779 315.801 480.834 315.583 480.834 315.309H484.658C484.658 315.746 484.549 316.238 484.44 316.73C483.511 320.445 480.342 322.74 475.206 322.85C469.031 322.959 465.535 319.626 464.824 312.741C464.059 304.764 467.666 300.065 473.184 299.3C480.67 298.262 484.822 301.868 485.15 310.119C485.15 310.556 485.15 310.993 485.15 311.539H468.922ZM480.997 309.244C480.997 309.244 480.997 308.753 480.997 308.534C480.888 303.89 478.539 301.649 474.933 301.759C471.873 301.868 469.687 303.835 469.032 308.042C468.922 308.425 468.922 308.807 468.922 309.19H480.943L480.997 309.244Z" fill="#231F20"/>
<path d="M485.751 299.683H489.849V295.093L493.892 293.454V299.683H498.974V302.414H493.892V316.293C494.165 319.025 494.766 319.571 497.772 319.517C498.209 319.517 498.646 319.517 499.192 319.353V322.358C498.263 322.576 497.444 322.686 496.569 322.74C491.543 322.85 489.794 321.21 489.794 316.02V302.414H485.696V299.683H485.751Z" fill="#231F20"/>
<path d="M501.869 299.683L508.535 317.714L515.146 299.683H518.861L507.333 331.046H503.344L506.404 322.686L497.552 299.737H501.869V299.683Z" fill="#231F20"/>
<path d="M198.132 285.422C198.787 285.695 199.498 285.914 200.153 286.132C148.355 264.877 122.839 206.085 143.11 153.632C163.381 101.178 221.845 74.7869 274.462 93.8561C273.807 93.5829 273.151 93.3097 272.495 93.0365C219.386 72.492 159.666 98.9375 139.176 152.047C118.632 205.157 145.077 264.877 198.186 285.367L198.132 285.422Z" fill="#231F20"/>
<path d="M284.515 154.67H321.396L325.713 154.888C343.142 155.544 351.065 162.593 352.267 177.618C353.742 194.12 343.579 205.922 326.805 206.687L324.456 206.796H309.649V236.083H284.515V154.67ZM315.768 191.224H318.008L319.593 191.114C323.527 191.005 326.259 189.202 328.062 185.487C328.827 183.902 329.319 181.88 329.1 179.039C328.554 172.482 325.166 169.313 317.571 168.985H309.321V191.278H315.768V191.224Z" fill="#231F20"/>
<path d="M357.951 154.67H416.524V170.843H382.702V186.306H414.939V203.026H382.702V219.855H417.234V236.028H357.951V154.615V154.67Z" fill="#231F20"/>
<path d="M445.591 208.817C445.372 209.855 445.372 210.839 445.481 211.877C445.918 219.363 450.89 223.515 458.813 222.75C460.179 222.641 461.327 222.259 462.31 221.822C466.135 219.909 467.938 217.068 467.829 213.134C467.61 208.817 465.206 205.758 460.343 204.173L459.523 203.954L455.207 202.698L448.541 200.895C447.776 200.676 446.956 200.403 446.192 200.075C425.92 193.518 420.074 186.033 423.571 171.444C426.412 159.478 437.121 152.102 457.393 152.32C459.196 152.32 461.108 152.429 462.911 152.539C477.172 153.795 484.548 157.948 488.701 165.543C490.722 169.258 491.651 173.466 491.433 177.728H467.774V176.034C467.665 174.668 467.228 173.302 466.627 172.1C464.441 168.166 460.726 166.308 455.098 166.909C453.841 167.018 452.748 167.346 451.71 167.783C447.612 169.969 445.918 173.575 446.847 177.837C447.776 181.552 450.344 183.738 457.83 185.869L465.315 188L474.276 190.513C488.537 194.556 494.984 204.665 491.815 218.325C489.083 230.072 480.396 236.192 461.709 237.23C457.994 237.339 454.606 237.339 451.164 237.011C435.919 235.755 427.887 230.673 423.68 221.767C421.768 217.724 421.058 213.298 421.549 208.763H445.536L445.591 208.817Z" fill="#231F20"/>
<path d="M284.843 107.406H292.438V146.856H284.843V107.406Z" fill="#231F20"/>
<path d="M297.629 107.406H324.184V113.362H306.59V123.58H323.309V129.699H306.59V140.9H324.621V146.856H297.629V107.406Z" fill="#231F20"/>
<path d="M329.046 107.406H355.6V113.362H338.007V123.58H354.726V129.699H338.007V140.9H356.038V146.856H329.046V107.406Z" fill="#231F20"/>
<path d="M360.409 107.406H386.964V113.362H369.37V123.58H386.09V129.699H369.37V140.9H387.401V146.856H360.409V107.406Z" fill="#231F20"/>
<path d="M188.296 266.134C148.3 241.765 135.296 189.912 158.736 149.588C158.408 150.08 158.08 150.571 157.753 151.063C133.056 191.606 145.896 244.442 186.438 269.194C226.98 293.891 279.871 281.05 304.568 240.508C304.896 240.016 305.169 239.47 305.442 238.978C280.363 278.318 228.346 290.558 188.296 266.134Z" fill="#231F20"/>
<path d="M540.5 298.644C540.5 303.07 536.948 306.567 532.468 306.567C527.988 306.567 524.381 303.07 524.381 298.644C524.381 294.219 527.988 290.776 532.523 290.776C537.058 290.776 540.5 294.219 540.5 298.644ZM526.348 298.644C526.348 302.141 528.971 304.928 532.468 304.928C535.856 304.928 538.478 302.141 538.478 298.699C538.478 295.257 535.91 292.361 532.413 292.361C528.916 292.361 526.403 295.202 526.403 298.644H526.348ZM531.157 302.688H529.353V294.82C530.064 294.71 531.102 294.601 532.359 294.601C533.834 294.601 534.544 294.82 535.036 295.202C535.528 295.53 535.856 296.131 535.856 296.896C535.856 297.879 535.145 298.481 534.216 298.754V298.863C534.981 299.082 535.364 299.737 535.582 300.775C535.801 301.977 536.019 302.415 536.183 302.688H534.271C534.052 302.415 533.889 301.704 533.67 300.775C533.506 299.956 533.069 299.573 532.031 299.573H531.157V302.688ZM531.211 298.317H532.085C533.069 298.317 533.889 297.989 533.889 297.169C533.889 296.459 533.342 295.967 532.195 295.967C531.703 295.967 531.375 295.967 531.211 296.076V298.317Z" fill="#231F20"/>
</g>
<defs>
<clipPath id="clip0_44_12286">
<rect width="604" height="559" fill="white"/>
</clipPath>
</defs>
</svg>
