<svg width="854" height="854" viewBox="0 0 854 854" fill="none" xmlns="http://www.w3.org/2000/svg">
<path d="M125 533H729.5" stroke="#231F20" stroke-width="3" stroke-miterlimit="10"/>
<path d="M243.043 660.222L243.337 660.516C243.211 663.33 243.127 666.648 243.127 673.872C243.127 681.936 243.211 685.38 243.463 689.706L243.211 690C241.363 690.042 240.775 690.042 238.549 690.126L238.297 689.832C238.381 687.27 238.465 685.044 238.465 679.626C238.465 673.284 238.465 666.984 238.171 660.684L238.381 660.348C240.229 660.348 240.901 660.348 243.043 660.222ZM268.452 686.262L268.704 686.556C268.578 687.984 268.578 688.278 268.494 689.706L268.2 690C260.01 690 258.708 690.042 250.728 690.126L250.518 689.832C250.644 686.514 250.77 684.246 250.77 676.56C250.77 669.504 250.77 665.472 250.476 660.642L250.728 660.348C259.002 660.306 260.64 660.306 268.368 660.222L268.62 660.516C268.494 661.776 268.41 662.28 268.326 663.792L268.074 664.086C262.656 663.918 260.85 663.918 255.516 663.876C255.39 667.74 255.39 668.958 255.39 672.822C260.556 672.864 262.152 672.822 267.276 672.738L267.486 673.032C267.318 674.502 267.318 674.922 267.276 676.266L267.024 676.56C262.152 676.434 261.102 676.434 255.39 676.434C255.306 681.306 255.348 682.482 255.39 686.472C261.732 686.472 263.034 686.472 268.452 686.262ZM291.216 686.262L291.468 686.556C291.342 687.984 291.342 688.278 291.258 689.706L290.964 690C282.774 690 281.472 690.042 273.492 690.126L273.282 689.832C273.408 686.514 273.534 684.246 273.534 676.56C273.534 669.504 273.534 665.472 273.24 660.642L273.492 660.348C281.766 660.306 283.404 660.306 291.132 660.222L291.384 660.516C291.258 661.776 291.174 662.28 291.09 663.792L290.838 664.086C285.42 663.918 283.614 663.918 278.28 663.876C278.154 667.74 278.154 668.958 278.154 672.822C283.32 672.864 284.916 672.822 290.04 672.738L290.25 673.032C290.082 674.502 290.082 674.922 290.04 676.266L289.788 676.56C284.916 676.434 283.866 676.434 278.154 676.434C278.07 681.306 278.112 682.482 278.154 686.472C284.496 686.472 285.798 686.472 291.216 686.262ZM313.98 686.262L314.232 686.556C314.106 687.984 314.106 688.278 314.022 689.706L313.728 690C305.538 690 304.236 690.042 296.256 690.126L296.046 689.832C296.172 686.514 296.298 684.246 296.298 676.56C296.298 669.504 296.298 665.472 296.004 660.642L296.256 660.348C304.53 660.306 306.168 660.306 313.896 660.222L314.147 660.516C314.022 661.776 313.938 662.28 313.854 663.792L313.602 664.086C308.184 663.918 306.378 663.918 301.044 663.876C300.918 667.74 300.918 668.958 300.918 672.822C306.084 672.864 307.68 672.822 312.804 672.738L313.014 673.032C312.846 674.502 312.846 674.922 312.804 676.266L312.552 676.56C307.68 676.434 306.63 676.434 300.918 676.434C300.834 681.306 300.876 682.482 300.918 686.472C307.26 686.472 308.562 686.472 313.98 686.262ZM339.809 672.276L341.909 673.2C344.975 674.544 349.049 676.308 349.049 681.684C349.049 686.388 345.563 690.63 338.255 690.63C333.803 690.63 330.947 689.286 329.939 688.782L329.771 688.488C329.939 687.018 329.981 686.22 330.107 684.624L330.527 684.456C331.577 685.17 334.013 686.934 337.919 686.934C342.245 686.934 344.051 684.708 344.051 682.188C344.051 679.248 341.615 678.114 338.885 677.064L336.785 676.14C333.803 674.754 329.813 672.948 329.813 667.824C329.813 666.27 330.233 664.674 331.115 663.414C333.047 660.642 336.533 659.718 339.935 659.718C343.253 659.718 345.269 660.348 347.495 661.062L347.705 661.398C347.537 662.994 347.495 663.582 347.369 665.094L347.033 665.262C345.227 664.338 343.253 663.33 340.103 663.33C336.617 663.33 334.433 664.968 334.433 667.446C334.433 669.336 335.693 670.218 336.575 670.764C337.121 671.1 337.289 671.184 339.809 672.276ZM362.993 686.43L363.287 686.682C363.161 688.068 363.161 688.362 363.119 689.58L362.909 689.832C362.027 690.042 361.313 690.21 359.759 690.21C358.751 690.21 356.105 690.21 354.803 688.026C354.047 686.808 354.047 685.8 354.047 680.844L354.131 671.604C352.661 671.604 352.619 671.646 351.107 671.688L350.939 671.436C351.023 670.092 351.023 669.756 351.023 668.412L351.275 668.16C352.199 668.16 352.745 668.202 354.131 668.16C354.089 667.278 354.089 666.354 354.089 665.472C354.047 664.674 354.005 663.876 353.963 663.078L354.173 662.784C356.063 662.322 356.525 662.196 358.457 661.608L358.751 661.818C358.625 664.59 358.583 665.136 358.583 668.202C360.347 668.16 360.851 668.16 363.245 668.076L363.455 668.328C363.371 669.42 363.329 669.882 363.329 671.31L363.119 671.562C361.019 671.52 360.767 671.478 358.541 671.478L358.457 679.29C358.499 679.794 358.499 682.188 358.499 682.776C358.499 685.842 358.877 686.808 360.977 686.808C361.859 686.808 362.531 686.598 362.993 686.43ZM385.147 667.992L385.399 668.286C385.315 671.478 385.273 674.46 385.273 677.862C385.273 683.028 385.399 686.136 385.483 687.942C385.483 688.53 385.525 689.118 385.567 689.706L385.399 689.958C383.383 690 383.047 690.042 381.115 690.126L380.863 689.874L380.905 688.11C379.981 688.782 377.755 690.504 374.311 690.504C372.673 690.504 370.867 690.126 369.523 689.076C366.835 686.892 366.835 683.322 366.793 680.046V677.442C366.709 671.436 366.709 670.764 366.583 668.496L366.793 668.202C368.767 668.16 369.145 668.16 371.119 667.992L371.371 668.286L371.203 677.484C371.203 678.618 371.161 679.458 371.203 681.474C371.245 683.238 371.329 687.018 375.571 687.018C378.049 687.018 379.813 685.632 380.821 684.834C380.863 682.566 380.863 680.634 380.863 678.198C380.863 672.36 380.821 671.184 380.569 668.454L380.821 668.16C382.753 668.118 383.215 668.118 385.147 667.992ZM405.181 657.618L405.391 657.366C407.533 656.988 407.953 656.904 409.843 656.484L410.137 656.736C409.843 662.574 409.801 672.99 409.801 677.19C409.801 683.7 409.969 686.808 410.137 689.706L409.927 690C408.079 690 407.575 690.042 405.643 690.126L405.349 689.874L405.433 688.32C404.425 689.076 402.703 690.42 399.637 690.42C394.051 690.42 390.187 686.01 390.187 679.626C390.187 675.048 392.119 672.15 393.883 670.596C396.949 667.824 400.939 667.698 403.123 667.698C404.005 667.698 404.425 667.698 405.559 667.782C405.601 662.574 405.391 660.054 405.181 657.618ZM405.391 684.834C405.475 679.332 405.475 678.072 405.433 671.184C404.719 671.142 404.215 671.058 403.333 671.058C402.031 671.058 399.259 671.142 397.243 673.032C396.319 673.914 394.807 675.888 394.807 679.626C394.807 682.02 395.479 683.742 396.361 684.792C397.117 685.674 398.503 686.682 400.687 686.682C403.249 686.682 404.803 685.338 405.391 684.834ZM432.901 684.666L433.237 684.876C433.027 686.556 432.985 686.976 432.901 688.614L432.649 688.908C431.935 689.286 429.667 690.504 425.929 690.504C419.041 690.504 414.715 686.556 414.715 679.248C414.715 671.436 419.419 667.614 424.921 667.614C428.239 667.614 430.549 669 431.809 670.512C434.203 673.368 434.119 677.526 434.077 679.374L433.783 679.626C427.231 679.584 426.097 679.584 419.209 679.626C419.251 681.096 419.377 683.154 420.805 684.876C422.527 686.934 424.921 687.144 426.223 687.144C427.441 687.144 428.701 686.934 429.877 686.514C431.431 685.884 432.355 685.128 432.901 684.666ZM429.751 676.392C429.709 675.804 429.667 674.88 429.331 673.914C428.491 671.604 426.643 670.638 424.753 670.638C422.401 670.638 419.629 672.234 419.209 676.434C424.291 676.476 425.887 676.434 429.751 676.392ZM457.429 689.706L457.177 689.958C455.161 690 454.909 690 452.977 690.126L452.683 689.832C452.683 689.37 452.725 688.908 452.725 688.446C452.767 686.388 452.767 684.33 452.767 682.272C452.767 675.804 452.725 675.384 452.515 674.502C451.717 671.31 449.323 671.31 448.735 671.31C446.215 671.31 444.283 672.78 443.149 673.662C443.107 680.97 443.191 684.792 443.485 689.706L443.233 689.958C441.175 690 440.839 690 438.823 690.126L438.613 689.832C438.655 687.48 438.739 685.212 438.739 682.104C438.739 675.384 438.445 671.814 438.235 669L438.487 668.706C440.587 668.328 440.965 668.244 442.939 667.866L443.233 668.16L443.191 670.344C444.283 669.588 446.887 667.74 450.583 667.74C451.633 667.74 452.935 667.908 454.069 668.538C455.161 669.168 456.043 670.134 456.505 671.268C457.051 672.528 457.093 673.788 457.135 676.392V681.306C457.261 686.22 457.303 688.11 457.429 689.706ZM472.381 686.43L472.675 686.682C472.549 688.068 472.549 688.362 472.507 689.58L472.297 689.832C471.415 690.042 470.701 690.21 469.147 690.21C468.139 690.21 465.493 690.21 464.191 688.026C463.435 686.808 463.435 685.8 463.435 680.844L463.519 671.604C462.049 671.604 462.007 671.646 460.495 671.688L460.327 671.436C460.411 670.092 460.411 669.756 460.411 668.412L460.663 668.16C461.587 668.16 462.133 668.202 463.519 668.16C463.477 667.278 463.477 666.354 463.477 665.472C463.435 664.674 463.393 663.876 463.351 663.078L463.561 662.784C465.451 662.322 465.913 662.196 467.845 661.608L468.139 661.818C468.013 664.59 467.971 665.136 467.971 668.202C469.735 668.16 470.239 668.16 472.633 668.076L472.843 668.328C472.759 669.42 472.717 669.882 472.717 671.31L472.507 671.562C470.407 671.52 470.155 671.478 467.929 671.478L467.845 679.29C467.887 679.794 467.887 682.188 467.887 682.776C467.887 685.842 468.265 686.808 470.365 686.808C471.247 686.808 471.919 686.598 472.381 686.43ZM496.383 690.084L488.991 690.126L488.781 689.832C488.865 687.816 488.907 685.884 488.907 682.062C488.907 680.256 488.949 671.478 488.949 669.504C488.949 665.094 488.823 662.826 488.655 660.642L488.865 660.348L494.493 660.264C495.333 660.222 496.635 660.222 497.769 660.222C500.247 660.222 502.893 660.306 504.993 661.524C506.547 662.406 508.311 664.17 508.311 667.278C508.311 668.748 507.891 672.948 502.053 674.376C503.019 674.418 504.405 674.46 505.917 675.132C509.529 676.728 509.907 679.92 509.907 681.474C509.907 685.338 507.513 688.068 504.153 689.286C501.927 690.084 499.701 690.084 496.383 690.084ZM494.535 676.518L493.527 676.56C493.527 681.348 493.527 682.062 493.695 686.64H494.493C497.643 686.64 500.205 686.682 501.843 686.01C503.859 685.254 504.993 683.49 504.993 681.39C504.993 676.476 499.575 676.434 497.559 676.434C497.181 676.434 496.803 676.434 494.535 676.518ZM493.527 663.708V673.032C497.307 673.074 500.205 673.032 501.969 671.646C503.019 670.764 503.691 669.378 503.691 667.992C503.691 666.858 503.229 665.766 502.515 665.01C501.045 663.582 498.441 663.582 497.475 663.582C496.131 663.582 494.829 663.624 493.527 663.708ZM524.817 672.318L524.523 672.528C524.103 672.36 523.557 672.15 522.843 672.15C522.045 672.15 521.457 672.444 521.079 672.696C519.357 673.914 519.357 675.762 519.357 680.13C519.357 684.876 519.483 687.354 519.651 689.706L519.441 690C517.467 690 517.005 690.042 514.989 690.126L514.779 689.874C514.821 686.682 514.863 683.784 514.863 679.878C514.863 673.158 514.737 671.436 514.485 669L514.737 668.706C516.333 668.412 517.341 668.202 519.105 667.866L519.357 668.118L519.147 671.688C519.651 670.344 520.701 667.656 524.271 667.656C524.817 667.656 525.111 667.698 525.447 667.782L525.615 668.034C525.195 670.05 525.111 670.47 524.817 672.318ZM544.767 677.19V681.348C544.767 686.556 544.809 687.018 545.019 689.748L544.809 689.958C542.835 690 542.499 690.042 540.567 690.126L540.399 689.874L540.441 688.362C539.643 688.992 537.753 690.504 534.561 690.504C530.361 690.504 527.421 687.648 527.421 683.49C527.421 677.862 532.125 676.056 539.685 675.174L540.399 675.09C540.399 673.956 540.399 673.158 540.021 672.486C539.601 671.73 538.635 670.932 536.535 670.932C533.805 670.932 531.915 671.772 530.151 672.528L529.815 672.318C529.899 670.386 529.899 670.134 529.941 669.252L530.193 669C532.545 668.16 534.981 667.614 537.459 667.614C540.567 667.614 543.591 668.664 544.473 671.94C544.767 673.116 544.767 675.426 544.767 677.19ZM540.441 678.198L540.063 678.282C535.821 678.912 531.873 679.5 531.873 683.238C531.873 683.448 531.873 687.06 535.863 687.06C538.467 687.06 539.979 685.632 540.441 685.212V678.198ZM569.484 689.706L569.232 689.958C567.216 690 566.964 690 565.032 690.126L564.738 689.832C564.738 689.37 564.78 688.908 564.78 688.446C564.822 686.388 564.822 684.33 564.822 682.272C564.822 675.804 564.78 675.384 564.57 674.502C563.772 671.31 561.378 671.31 560.79 671.31C558.27 671.31 556.338 672.78 555.204 673.662C555.162 680.97 555.246 684.792 555.54 689.706L555.288 689.958C553.23 690 552.894 690 550.878 690.126L550.668 689.832C550.71 687.48 550.794 685.212 550.794 682.104C550.794 675.384 550.5 671.814 550.29 669L550.542 668.706C552.642 668.328 553.02 668.244 554.994 667.866L555.288 668.16L555.246 670.344C556.338 669.588 558.942 667.74 562.638 667.74C563.688 667.74 564.99 667.908 566.124 668.538C567.216 669.168 568.098 670.134 568.56 671.268C569.106 672.528 569.148 673.788 569.19 676.392V681.306C569.316 686.22 569.358 688.11 569.484 689.706ZM590.568 684.834L590.904 685.002C590.736 686.808 590.694 687.018 590.568 688.74L590.274 689.034C589.056 689.622 587.418 690.462 584.478 690.462C578.136 690.462 574.02 685.884 574.02 679.332C574.02 672.654 578.052 667.614 584.562 667.614C587.292 667.614 589.224 668.496 590.316 668.958L590.484 669.252C590.316 670.764 590.274 671.31 590.19 672.57L589.854 672.738C588.468 671.73 586.872 671.1 585.192 671.1C581.706 671.1 578.64 673.788 578.64 679.164C578.64 684.876 581.874 686.934 585.15 686.934C588.006 686.934 589.77 685.464 590.568 684.834ZM613.206 689.706L612.954 689.958C610.938 690 610.686 690 608.754 690.126L608.46 689.832L608.502 688.446C608.544 686.262 608.544 684.036 608.544 681.852L608.502 677.358C608.502 676.392 608.502 675.426 608.292 674.502C607.83 672.57 606.654 671.31 604.512 671.31C602.118 671.31 600.27 672.654 598.884 673.662C598.842 680.97 598.926 684.792 599.178 689.706L598.968 689.958C597.036 690 596.532 690 594.474 690.126L594.264 689.832C594.348 686.85 594.474 683.07 594.474 675.006C594.474 671.478 594.432 667.95 594.39 664.422C594.306 660.726 594.18 659.508 594.054 657.618L594.264 657.366C596.28 657.03 596.952 656.904 598.842 656.484L599.094 656.778C598.842 661.272 598.842 665.808 598.842 670.344C600.186 669.462 602.832 667.74 606.36 667.74C607.326 667.74 608.292 667.866 609.174 668.244C611.064 669 612.198 670.512 612.618 672.234C612.828 673.074 612.828 673.578 612.912 676.392V681.306L612.954 683.28C613.038 686.808 613.038 687.396 613.206 689.706Z" fill="#231F20"/>
<path d="M333.56 613.968L333.8 614.256L333.656 628.512V633.408C333.56 639.504 333.368 642.288 330.824 644.976C327.272 648.72 321.992 648.72 320.264 648.72C313.832 648.72 310.136 646.32 308.312 643.728C306.632 641.424 306.344 638.832 306.2 633.648V630.096C306.152 622.608 306.152 621.264 305.96 614.4L306.248 614.112C309.512 614.16 310.616 614.16 314.696 613.968L314.936 614.256C314.84 619.008 314.792 622.704 314.792 626.592C314.792 629.136 314.792 631.68 314.888 634.224C314.984 637.248 315.272 638.928 315.992 640.176C317.048 641.856 318.92 642.72 320.888 642.72C322.472 642.72 324.056 642.192 325.112 640.992C326.408 639.456 326.552 637.152 326.552 632.112C326.552 626.208 326.312 620.304 326.072 614.4L326.36 614.112C329.096 614.16 330.056 614.16 333.56 613.968ZM346.71 614.016L350.934 613.92C354.534 613.92 358.614 613.92 361.494 615.6C365.478 617.856 365.958 622.416 365.958 624.48C365.958 627.84 364.806 630.576 363.462 632.208C360.006 636.432 354.246 636.432 348.87 636.384C348.87 641.28 348.87 642.48 349.062 647.712L348.822 648C344.982 647.952 344.214 648 340.662 648.144L340.374 647.856C340.518 642 340.662 636.192 340.662 630.336C340.662 624.816 340.518 620.64 340.326 614.4L340.614 614.112L346.71 614.016ZM348.87 619.824V630.48C351.75 630.48 353.526 630.384 354.822 629.664C357.366 628.272 357.366 625.488 357.366 624.816C357.366 622.032 356.214 619.872 351.99 619.776C350.934 619.776 349.926 619.776 348.87 619.824ZM379.158 613.968L379.398 614.256C379.254 620.88 379.158 627.504 379.158 634.128C379.158 641.088 379.254 643.296 379.494 647.712L379.206 648C375.222 648 374.262 648 370.662 648.144L370.422 647.856C370.614 642.864 370.71 639.936 370.71 634.272C370.71 622.032 370.566 619.584 370.278 614.4L370.47 614.112C373.926 614.16 375.03 614.16 379.158 613.968ZM395.237 613.968L395.477 614.256C395.333 620.88 395.237 627.504 395.237 634.128C395.237 641.088 395.333 643.296 395.573 647.712L395.285 648C391.301 648 390.341 648 386.741 648.144L386.501 647.856C386.693 642.864 386.789 639.936 386.789 634.272C386.789 622.032 386.645 619.584 386.357 614.4L386.549 614.112C390.005 614.16 391.109 614.16 395.237 613.968ZM422.715 620.448L415.275 620.256C415.179 623.328 415.131 624.816 415.131 627.456C415.131 634.224 415.227 640.944 415.467 647.664L415.179 647.952C411.195 647.952 410.235 648 406.683 648.144L406.395 647.856C406.779 635.952 406.779 632.928 406.731 620.352L398.907 620.544L398.667 620.256L399.003 614.352L399.339 614.064H423.099L423.339 614.208L423.003 620.208L422.715 620.448ZM441.889 613.968L442.225 614.256C444.961 624.816 445.633 627.072 451.441 647.616L451.201 648C447.313 647.952 446.353 648 442.849 648.144L442.513 647.856L440.449 638.976H430.081L427.729 647.712L427.393 648H419.905L419.713 647.664C426.769 627.408 428.305 622.56 430.849 614.4L431.185 614.112C436.321 614.112 437.281 614.112 441.889 613.968ZM431.761 633.168H439.057L437.281 625.68L435.841 619.44L434.161 625.056L431.761 633.168ZM467.761 631.344L468.001 631.584L467.665 637.152L467.377 637.44C465.025 637.44 462.673 637.392 460.321 637.392C457.777 637.392 456.193 637.44 453.505 637.488L453.265 637.2L453.553 631.68L453.889 631.392C456.145 631.392 458.449 631.44 460.753 631.44C463.585 631.44 465.457 631.392 467.761 631.344ZM481.393 613.968L481.633 614.256C481.489 620.88 481.393 627.504 481.393 634.128C481.393 641.088 481.489 643.296 481.729 647.712L481.441 648C477.457 648 476.497 648 472.897 648.144L472.657 647.856C472.849 642.864 472.945 639.936 472.945 634.272C472.945 622.032 472.801 619.584 472.513 614.4L472.705 614.112C476.161 614.16 477.265 614.16 481.393 613.968ZM495.023 614.016L499.247 613.92C502.847 613.92 506.927 613.92 509.807 615.6C513.791 617.856 514.271 622.416 514.271 624.48C514.271 627.84 513.119 630.576 511.775 632.208C508.319 636.432 502.559 636.432 497.183 636.384C497.183 641.28 497.183 642.48 497.375 647.712L497.135 648C493.295 647.952 492.527 648 488.975 648.144L488.687 647.856C488.831 642 488.975 636.192 488.975 630.336C488.975 624.816 488.831 620.64 488.639 614.4L488.927 614.112L495.023 614.016ZM497.183 619.824V630.48C500.063 630.48 501.839 630.384 503.135 629.664C505.679 628.272 505.679 625.488 505.679 624.816C505.679 622.032 504.527 619.872 500.303 619.776C499.247 619.776 498.239 619.776 497.183 619.824ZM547.439 613.968L547.727 614.256C547.679 619.632 547.631 624.96 547.631 630.336C547.631 636.096 547.679 640.8 547.727 647.76L547.487 648C544.943 648 544.079 648 541.151 648.144L540.815 647.904L536.543 641.664L531.743 634.608C528.479 629.856 527.711 628.608 525.455 624.864L525.743 631.296L525.887 637.2L526.367 647.712L526.127 648C523.343 648 522.335 648 519.119 648.144L518.879 647.856C518.927 643.2 519.023 638.496 519.023 633.792C519.023 627.36 518.879 621.84 518.639 614.4L518.879 614.112C522.383 614.16 523.007 614.16 526.799 613.968L527.135 614.208C528.335 616.128 529.055 617.184 532.655 622.656L537.023 629.04C539.471 632.688 539.711 633.072 541.103 635.424L540.911 627.504L540.719 620.88L540.383 614.4L540.623 614.112C543.599 614.16 544.415 614.112 547.439 613.968Z" fill="#231F20"/>
<path d="M391.679 230.975C390.542 227.028 389.271 223.215 387.933 219.402C387.732 219.268 387.532 219.134 387.331 219C389.003 222.88 390.408 226.894 391.746 230.975H391.679Z" fill="#231F20"/>
<path d="M386.997 361.087C386.997 361.087 387.465 360.819 387.666 360.685C389.204 356.404 390.676 352.056 391.947 347.574C390.475 352.19 388.87 356.672 386.997 361.087Z" fill="#231F20"/>
<path d="M386.928 333.392L387.062 332.924C381.309 334.195 375.489 335.399 369.669 336.536C375.289 335.8 380.774 334.864 386.126 333.593L386.995 333.392H386.928Z" fill="#231F20"/>
<path d="M386.928 333.392L387.062 332.924C381.309 334.195 375.489 335.399 369.669 336.536C375.289 335.8 380.774 334.864 386.126 333.593L386.995 333.392H386.928Z" fill="#231F20"/>
<path d="M408.069 336.068V337.138H404.992C401.647 338.276 398.235 339.346 394.757 340.283L393.954 340.483C401.112 338.945 408.203 337.205 415.16 335.332C418.906 330.917 422.251 326.569 424.994 322.957C422.519 323.692 419.976 324.428 417.434 325.164C415.695 328.442 413.822 331.586 411.615 334.663C410.41 335.132 409.206 335.6 408.002 336.068H408.069Z" fill="#231F20"/>
<path d="M408.068 336.068C407.065 336.469 406.062 336.804 404.991 337.138H408.068V336.068Z" fill="#231F20"/>
<path d="M408.068 336.068C407.065 336.469 406.062 336.804 404.991 337.138H408.068V336.068Z" fill="#231F20"/>
<path d="M387.665 360.619C385.658 366.104 383.45 371.389 380.975 376.54C400.576 367.71 416.229 352.056 425.528 332.456C422.116 333.459 418.637 334.396 415.226 335.332C407.332 344.631 397.565 354.598 387.665 360.619Z" fill="#231F20"/>
<path d="M394.021 340.617C394.021 340.617 393.887 340.617 393.82 340.617C393.218 342.958 392.615 345.232 391.946 347.507C392.615 345.433 393.218 343.359 393.82 341.286L394.021 340.55V340.617Z" fill="#231F20"/>
<path d="M386.997 361.087C388.87 356.739 390.542 352.19 391.947 347.574C392.616 345.299 393.218 342.958 393.82 340.684C388.87 341.821 383.919 342.824 378.969 343.828C379.972 343.627 380.909 343.493 381.912 343.293L384.388 342.824L383.585 345.166C381.043 352.725 377.765 360.083 373.684 367.442C365.456 370.519 356.693 372.392 347.595 372.86V348.979C344.718 349.38 341.775 349.715 338.899 350.049V372.794C329.667 372.325 320.837 370.318 312.675 367.107C310.067 362.425 307.859 357.742 305.919 352.992C302.775 353.193 299.698 353.327 296.554 353.461C297.356 355.735 298.226 358.01 299.163 360.217C296.018 358.277 293.008 356.07 290.199 353.728C284.713 353.929 279.161 353.996 273.608 353.996C290.934 372.727 315.753 384.5 343.314 384.5C356.96 384.5 369.737 381.624 381.11 376.473C383.585 371.322 385.792 366.037 387.799 360.552C387.599 360.685 387.331 360.819 387.13 360.953L386.997 361.087Z" fill="#231F20"/>
<path d="M386.997 361.087C388.87 356.739 390.542 352.19 391.947 347.574C392.616 345.299 393.218 342.958 393.82 340.684C388.87 341.821 383.919 342.824 378.969 343.828C379.972 343.627 380.909 343.493 381.912 343.293L384.388 342.824L383.585 345.166C381.043 352.725 377.765 360.083 373.684 367.442C365.456 370.519 356.693 372.392 347.595 372.86V348.979C344.718 349.38 341.775 349.715 338.899 350.049V372.794C329.667 372.325 320.837 370.318 312.675 367.107C310.067 362.425 307.859 357.742 305.919 352.992C302.775 353.193 299.698 353.327 296.554 353.461C297.356 355.735 298.226 358.01 299.163 360.217C296.018 358.277 293.008 356.07 290.199 353.728C284.713 353.929 279.161 353.996 273.608 353.996C290.934 372.727 315.753 384.5 343.314 384.5C356.96 384.5 369.737 381.624 381.11 376.473C383.585 371.322 385.792 366.037 387.799 360.552C387.599 360.685 387.331 360.819 387.13 360.953L386.997 361.087Z" fill="#231F20"/>
<path d="M286.185 295.462C286.452 306.232 287.589 317.404 289.663 328.375L286.185 295.462Z" fill="#231F20"/>
<path d="M286.185 295.462C286.452 306.232 287.589 317.404 289.663 328.375L286.185 295.462Z" fill="#231F20"/>
<path d="M272.538 333.793C278.626 336.402 285.047 338.543 291.536 340.282L292.339 340.483L292.54 341.286C292.941 342.69 293.343 344.095 293.744 345.5C296.754 345.366 299.765 345.166 302.775 344.965L302.039 342.757L304.514 343.226C306.789 343.627 308.996 344.028 311.271 344.363C331.072 342.757 350.605 340.148 369.67 336.536C363.048 337.339 356.224 337.874 349.067 338.008H347.595V294.057H391.612V295.529C391.278 308.707 389.94 320.882 387.197 332.522V332.924C389.137 332.455 391.211 331.987 393.285 331.519V237.798H393.686C393.084 235.524 392.482 233.249 391.813 230.975C390.542 226.894 389.07 222.88 387.398 219C387.598 219.134 387.799 219.268 388 219.402C385.859 213.582 383.518 207.963 380.909 202.477C369.336 197.46 356.626 194.717 343.247 194.717C290.801 194.717 248.322 237.196 248.322 289.642C248.322 310.848 255.279 330.382 266.986 346.169C272.003 346.169 276.953 346.102 281.903 345.968C278.425 342.222 275.281 338.142 272.605 333.793H272.538ZM347.528 206.491C356.76 206.959 365.523 208.966 373.751 212.177C377.765 219.402 380.976 226.693 383.585 234.186L384.388 236.527L381.912 236.059C370.875 233.985 359.77 232.848 349 232.58H347.595V206.424L347.528 206.491ZM347.528 241.344H349C362.111 241.678 374.353 243.016 385.993 245.759L386.863 245.959L387.063 246.829C389.806 258.469 391.144 270.711 391.412 283.822V285.294H347.461V241.277L347.528 241.344ZM338.832 338.075H337.36C324.181 337.74 312.006 336.402 300.367 333.66L299.497 333.459L299.296 332.589C296.554 320.882 295.216 308.707 294.948 295.596V294.124H338.898V338.142L338.832 338.075ZM302.842 234.186C305.384 226.693 308.595 219.335 312.608 212.177C320.77 208.966 329.6 206.959 338.765 206.491V232.58H337.36C326.59 232.915 315.485 233.985 304.447 236.059L301.972 236.527L302.775 234.186H302.842ZM299.43 245.959L300.3 245.759C312.006 243.016 324.248 241.678 337.293 241.344H338.765V285.294H294.747V283.822C295.082 270.711 296.42 258.469 299.162 246.829L299.363 245.959H299.43ZM299.096 219.067C296.487 225.155 294.346 231.577 292.607 238.066L292.406 238.868L291.603 239.069C285.047 240.808 278.692 242.949 272.605 245.558C279.294 234.855 288.392 225.757 299.096 219V219.067ZM265.715 259.138C272.939 255.124 280.231 251.913 287.723 249.371L290.065 248.568L289.596 251.043C287.523 262.014 286.452 273.186 286.118 283.956V285.361H259.962C260.43 276.129 262.437 267.366 265.648 259.205L265.715 259.138ZM265.715 320.28C262.504 312.119 260.497 303.289 260.029 294.057H286.118V295.462L289.596 328.375L290.065 330.85L287.723 330.047C280.231 327.505 272.939 324.294 265.715 320.28Z" fill="#231F20"/>
<path d="M393.218 331.519C394.155 331.318 395.091 331.118 396.028 330.85C398.637 317.672 400.042 303.891 400.042 289.709C400.042 271.581 397.767 254.121 393.62 237.798H393.218V331.519Z" fill="#231F20"/>
<path d="M393.218 331.519C394.155 331.318 395.091 331.118 396.028 330.85C398.637 317.672 400.042 303.891 400.042 289.709C400.042 271.581 397.767 254.121 393.62 237.798H393.218V331.519Z" fill="#231F20"/>
<path d="M411.747 334.663C413.888 331.652 415.828 328.508 417.567 325.164C414.423 326.033 411.279 326.903 408.135 327.773V336.068C409.339 335.599 410.543 335.131 411.747 334.663Z" fill="#231F20"/>
<path d="M411.747 334.663C413.888 331.652 415.828 328.508 417.567 325.164C414.423 326.033 411.279 326.903 408.135 327.773V336.068C409.339 335.599 410.543 335.131 411.747 334.663Z" fill="#231F20"/>
<path d="M394.02 340.483L394.823 340.282C398.301 339.346 401.646 338.275 405.058 337.138H394.689C394.421 338.342 394.154 339.48 393.886 340.617C393.886 340.617 394.02 340.617 394.087 340.617L394.02 340.483Z" fill="#231F20"/>
<path d="M394.02 340.483L394.823 340.282C398.301 339.346 401.646 338.275 405.058 337.138H394.689C394.421 338.342 394.154 339.48 393.886 340.617C393.886 340.617 394.02 340.617 394.087 340.617L394.02 340.483Z" fill="#231F20"/>
<path d="M396.295 330.85C396.295 330.85 396.095 330.85 396.028 330.85C395.626 332.991 395.158 335.065 394.69 337.138H405.059C406.062 336.804 407.133 336.402 408.136 336.068V327.773C404.256 328.776 400.443 329.78 396.563 330.716H396.362L396.295 330.85Z" fill="#231F20"/>
<path d="M396.295 330.85C396.295 330.85 396.095 330.85 396.028 330.85C395.626 332.991 395.158 335.065 394.69 337.138H405.059C406.062 336.804 407.133 336.402 408.136 336.068V327.773C404.256 328.776 400.443 329.78 396.563 330.716H396.362L396.295 330.85Z" fill="#231F20"/>
<path d="M396.295 330.85C396.295 330.85 396.095 330.85 396.028 330.85C395.626 332.991 395.158 335.065 394.69 337.138H405.059C406.062 336.804 407.133 336.402 408.136 336.068V327.773C404.256 328.776 400.443 329.78 396.563 330.716H396.362L396.295 330.85Z" fill="#231F20"/>
<path d="M393.218 337.138V331.519C391.144 331.987 389.137 332.456 387.063 332.924L386.929 333.392L386.06 333.593C380.708 334.864 375.223 335.8 369.603 336.536C350.538 340.149 331.005 342.758 311.204 344.363C319.967 345.701 328.797 346.437 337.36 346.704H338.765V350.049C341.708 349.715 344.585 349.313 347.461 348.979V346.771H348.866C358.633 346.504 368.801 345.567 378.835 343.761C383.852 342.824 388.803 341.754 393.686 340.617C393.954 339.48 394.221 338.276 394.489 337.138H393.017H393.218Z" fill="#231F20"/>
<path d="M393.218 337.138V331.519C391.144 331.987 389.137 332.456 387.063 332.924L386.929 333.392L386.06 333.593C380.708 334.864 375.223 335.8 369.603 336.536C350.538 340.149 331.005 342.758 311.204 344.363C319.967 345.701 328.797 346.437 337.36 346.704H338.765V350.049C341.708 349.715 344.585 349.313 347.461 348.979V346.771H348.866C358.633 346.504 368.801 345.567 378.835 343.761C383.852 342.824 388.803 341.754 393.686 340.617C393.954 339.48 394.221 338.276 394.489 337.138H393.017H393.218Z" fill="#231F20"/>
<path d="M393.218 337.138V331.519C391.144 331.987 389.137 332.456 387.063 332.924L386.929 333.392L386.06 333.593C380.708 334.864 375.223 335.8 369.603 336.536C350.538 340.149 331.005 342.758 311.204 344.363C319.967 345.701 328.797 346.437 337.36 346.704H338.765V350.049C341.708 349.715 344.585 349.313 347.461 348.979V346.771H348.866C358.633 346.504 368.801 345.567 378.835 343.761C383.852 342.824 388.803 341.754 393.686 340.617C393.954 339.48 394.221 338.276 394.489 337.138H393.017H393.218Z" fill="#231F20"/>
<path d="M394.622 337.138C395.09 335.065 395.559 332.991 395.96 330.85C395.023 331.051 394.087 331.251 393.15 331.519V337.138H394.622Z" fill="#231F20"/>
<path d="M394.622 337.138C395.09 335.065 395.559 332.991 395.96 330.85C395.023 331.051 394.087 331.251 393.15 331.519V337.138H394.622Z" fill="#231F20"/>
<path d="M394.622 337.138C395.09 335.065 395.559 332.991 395.96 330.85C395.023 331.051 394.087 331.251 393.15 331.519V337.138H394.622Z" fill="#231F20"/>
<path d="M394.622 337.138C395.09 335.065 395.559 332.991 395.96 330.85C395.023 331.051 394.087 331.251 393.15 331.519V337.138H394.622Z" fill="#231F20"/>
<path d="M431.08 321.15C429.073 321.752 427.067 322.421 425.06 323.023C422.317 326.635 418.972 330.917 415.226 335.399C418.705 334.462 422.116 333.526 425.528 332.522C425.729 332.054 425.996 331.519 426.264 331.05C427.535 328.508 429.274 324.628 431.08 321.15Z" fill="#231F20"/>
<path d="M431.08 321.15C429.073 321.752 427.067 322.421 425.06 323.023C422.317 326.635 418.972 330.917 415.226 335.399C418.705 334.462 422.116 333.526 425.528 332.522C425.729 332.054 425.996 331.519 426.264 331.05C427.535 328.508 429.274 324.628 431.08 321.15Z" fill="#231F20"/>
<path d="M302.775 345.032C299.765 345.232 296.754 345.366 293.744 345.567C294.547 348.31 295.417 350.985 296.42 353.594C299.564 353.461 302.641 353.327 305.785 353.126C304.715 350.517 303.712 347.841 302.842 345.166V345.032H302.775Z" fill="#231F20"/>
<path d="M302.775 345.032C299.765 345.232 296.754 345.366 293.744 345.567C294.547 348.31 295.417 350.985 296.42 353.594C299.564 353.461 302.641 353.327 305.785 353.126C304.715 350.517 303.712 347.841 302.842 345.166V345.032H302.775Z" fill="#231F20"/>
<path d="M302.775 345.032C299.765 345.232 296.754 345.366 293.744 345.567C294.547 348.31 295.417 350.985 296.42 353.594C299.564 353.461 302.641 353.327 305.785 353.126C304.715 350.517 303.712 347.841 302.842 345.166V345.032H302.775Z" fill="#231F20"/>
<path d="M281.837 345.968C276.886 346.102 271.936 346.169 266.919 346.169C268.926 348.912 271.133 351.521 273.475 354.063C279.027 354.063 284.579 353.929 290.065 353.795C287.121 351.387 284.379 348.778 281.837 345.968Z" fill="#231F20"/>
<path d="M281.837 345.968C276.886 346.102 271.936 346.169 266.919 346.169C268.926 348.912 271.133 351.521 273.475 354.063C279.027 354.063 284.579 353.929 290.065 353.795C287.121 351.387 284.379 348.778 281.837 345.968Z" fill="#231F20"/>
<path d="M281.837 345.968C276.886 346.102 271.936 346.169 266.919 346.169C268.926 348.912 271.133 351.521 273.475 354.063C279.027 354.063 284.579 353.929 290.065 353.795C287.121 351.387 284.379 348.778 281.837 345.968Z" fill="#231F20"/>
<path d="M271.937 122.871C204.506 176.99 180.557 265.092 204.84 342.891C205.978 343.025 207.182 343.159 208.319 343.226C187.18 266.965 211.597 182.074 277.221 129.427C364.052 59.7219 490.485 72.5659 561.595 157.59C560.725 156.453 559.922 155.316 559.053 154.245C488.411 66.2777 359.837 52.2296 271.937 122.871Z" fill="#231F20"/>
<path d="M240.494 409.987C241.364 411.058 242.3 412.128 243.237 413.198C228.386 393.865 217.482 372.726 210.458 350.718C209.388 350.584 208.317 350.45 207.247 350.316C214.739 371.389 225.71 391.524 240.494 409.92V409.987Z" fill="#231F20"/>
<path d="M207.248 350.383C208.318 350.517 209.389 350.651 210.459 350.785C209.656 348.31 208.92 345.835 208.252 343.293C207.114 343.159 205.91 343.092 204.773 342.958C205.576 345.433 206.378 347.908 207.248 350.383Z" fill="#231F20"/>
<path d="M338.363 65.5417C218.486 100.327 149.45 225.757 184.236 345.634C184.704 347.105 185.172 348.577 185.641 350.116C153.865 231.577 222.567 108.89 340.972 74.5058C459.378 40.1214 583.135 107.017 619.727 224.218C619.325 222.68 618.991 221.208 618.522 219.669C583.737 99.7254 458.307 30.756 338.363 65.5417Z" fill="#231F20"/>
<path d="M135 411.46H147.309C147.978 411.46 148.58 411.46 149.249 411.46C157.41 411.928 161.357 415.139 162.093 421.227C162.561 424.572 161.624 427.582 159.684 430.057C157.544 432.666 154.467 434.138 150.654 434.271H140.619V451.129H135.067V411.46H135ZM146.64 430.391C147.108 430.391 147.509 430.391 147.911 430.391C152.46 430.191 154.467 428.987 155.871 426.043C156.407 424.973 156.674 423.635 156.474 421.896C156.072 417.748 153.798 415.608 148.178 415.206H140.552V430.391H146.64Z" fill="#231F20"/>
<path d="M177.947 422.965C184.436 424.102 188.784 429.454 188.784 437.214C188.784 444.974 184.436 450.326 177.947 451.463C168.381 453.202 161.223 447.048 161.223 437.214C161.223 427.38 168.381 421.226 177.947 422.965ZM166.642 438.686C167.378 446.178 171.525 449.523 177.211 448.185C180.69 447.315 182.83 444.439 183.299 438.686C183.432 437.749 183.432 436.813 183.299 435.876C182.83 430.056 180.623 427.247 177.211 426.377C171.525 424.972 167.311 428.317 166.642 435.876C166.642 436.344 166.642 436.813 166.642 437.281C166.642 437.749 166.642 438.217 166.642 438.686Z" fill="#231F20"/>
<path d="M195.541 423.434L202.498 445.509L209.321 423.434H215.676L222.566 445.509L229.59 423.434H234.139L225.376 451.128H219.556L212.265 427.916L205.107 451.128H199.086L190.323 423.434H195.474H195.541Z" fill="#231F20"/>
<path d="M240.694 437.951C240.694 438.486 240.694 439.088 240.694 439.69C241.163 445.844 244.039 448.654 248.387 448.654C251.866 448.788 254.14 447.048 255.077 443.369C255.211 443.168 255.278 442.901 255.278 442.566H259.96C259.96 443.102 259.827 443.704 259.693 444.306C258.556 448.855 254.676 451.664 248.387 451.798C240.828 451.932 236.547 447.851 235.677 439.422C234.741 429.656 239.156 423.903 245.912 422.966C255.077 421.695 260.161 426.11 260.562 436.211C260.562 436.747 260.562 437.282 260.562 437.951H240.694ZM255.478 435.141C255.478 435.141 255.478 434.539 255.478 434.271C255.345 428.585 252.468 425.843 248.053 425.976C244.307 426.11 241.631 428.518 240.828 433.669C240.694 434.138 240.694 434.606 240.694 435.074H255.411L255.478 435.141Z" fill="#231F20"/>
<path d="M265.914 423.434H270.864V427.314C270.864 427.314 271.199 426.778 271.333 426.511C273.005 424.169 275.012 422.965 278.089 422.898C278.892 422.898 279.828 422.898 280.631 423.099V427.447H280.163L279.494 427.314C273.339 426.979 270.864 429.387 270.864 435.14V450.995H265.914V423.3V423.434Z" fill="#231F20"/>
<path d="M306.654 427.381L306.052 426.578C304.648 424.638 303.778 423.166 303.377 421.828C301.503 416.008 305.116 410.791 311.471 410.924C312.14 410.924 312.809 410.924 313.478 411.125C318.629 412.262 321.171 418.484 317.96 423.501C316.956 425.039 315.351 426.511 313.21 427.715C312.675 427.983 312.073 428.25 311.471 428.518L322.04 440.961C322.977 438.419 323.445 435.81 323.512 433.067H326.522C326.389 434.672 326.188 436.345 325.787 437.883C325.318 439.69 324.649 441.496 323.78 443.101L330.603 450.995H326.723L322.174 445.443C321.84 445.911 321.572 446.245 321.238 446.647C319.231 449.055 316.421 450.727 313.411 451.396C306.989 452.801 301.035 449.991 298.493 445.108C297.69 443.369 297.222 441.563 297.289 439.69C297.423 435.408 299.831 431.461 304.848 428.585C305.517 428.183 306.186 427.916 306.855 427.648L306.521 427.18L306.654 427.381ZM304.848 432.197C304.246 432.732 303.644 433.334 303.109 433.937C298.761 439.087 300.835 446.446 307.123 448.52C311.471 449.925 316.02 448.72 319.431 444.974C319.833 444.506 320.167 444.105 320.502 443.636L308.795 429.789C307.457 430.324 306.186 431.127 304.915 432.13L304.848 432.197ZM311.404 425.775C314.548 423.969 315.819 422.163 316.154 419.888C316.622 416.142 313.812 413.466 310.334 414.068C306.186 414.737 304.581 418.684 307.39 423.367C307.725 423.835 307.992 424.237 308.327 424.705C308.862 425.508 309.33 426.11 309.799 426.578C310.334 426.377 310.869 426.11 311.337 425.775H311.404Z" fill="#231F20"/>
<path d="M349.534 411.46H374.018V415.407H355.087V428.652H372.948V432.666H355.087V447.182H374.62V451.129H349.534V411.46Z" fill="#231F20"/>
<path d="M379.771 423.433H384.721V428.518C384.721 428.518 385.055 427.849 385.189 427.514C386.928 424.504 389.203 422.965 392.614 422.698C399.17 422.096 402.916 425.373 403.184 431.26V432.464V433.267V451.128H398.234V432.331C398.033 429.989 397.565 428.986 396.561 427.915C395.157 426.377 392.815 425.708 390.34 426.377C386.728 427.247 384.587 430.324 384.587 436.946V451.128H379.637V423.433H379.771Z" fill="#231F20"/>
<path d="M413.821 437.951C413.821 438.486 413.821 439.088 413.821 439.69C414.289 445.844 417.166 448.654 421.514 448.654C424.992 448.788 427.267 447.048 428.203 443.369C428.337 443.168 428.404 442.901 428.404 442.566H433.087C433.087 443.102 432.953 443.704 432.819 444.306C431.682 448.855 427.802 451.664 421.514 451.798C413.955 451.932 409.673 447.851 408.804 439.422C407.867 429.656 412.282 423.903 419.039 422.966C428.203 421.695 433.288 426.11 433.689 436.211C433.689 436.747 433.689 437.282 433.689 437.951H413.821ZM428.605 435.141C428.605 435.141 428.605 434.539 428.605 434.271C428.471 428.585 425.595 425.843 421.179 425.976C417.433 426.11 414.757 428.518 413.955 433.669C413.821 434.138 413.821 434.606 413.821 435.074H428.538L428.605 435.141Z" fill="#231F20"/>
<path d="M438.973 423.434H443.923V427.314C443.923 427.314 444.257 426.778 444.391 426.511C446.064 424.169 448.07 422.965 451.148 422.898C451.95 422.898 452.887 422.898 453.69 423.099V427.447H453.221L452.552 427.314C446.398 426.979 443.923 429.387 443.923 435.14V450.995H438.973V423.3V423.434Z" fill="#231F20"/>
<path d="M474.362 423.433H479.379V450.927C479.379 458.62 474.228 463.437 465.13 462.969C458.574 462.567 455.163 459.691 454.694 455.409C454.694 455.008 454.694 454.673 454.694 454.339H459.712C459.712 454.339 459.712 454.74 459.712 454.874C459.979 457.483 461.785 459.155 465.598 459.423C470.816 459.824 473.893 457.082 474.228 452.065C474.228 451.73 474.228 451.396 474.228 451.128V445.04L473.96 445.509L473.425 446.311C470.616 450.593 465.799 452.198 460.648 450.125C456.701 448.452 454.226 445.04 453.49 439.354C453.356 437.682 453.356 436.01 453.624 434.27C454.694 427.781 458.708 423.701 463.123 423.032C468.609 422.162 472.555 424.035 474.295 427.313V423.366L474.362 423.433ZM468.809 447.315C470.816 446.713 472.422 444.974 473.693 441.829C474.094 440.759 474.295 439.689 474.495 438.418C475.365 429.454 470.816 425.306 465.197 426.577C461.986 427.38 459.578 430.257 459.043 435.274C458.909 435.742 458.909 436.344 458.909 436.879C458.708 445.308 463.525 449.054 468.876 447.382L468.809 447.315Z" fill="#231F20"/>
<path d="M487.273 423.434L495.434 445.509L503.528 423.434H508.077L493.962 461.832H489.079L492.825 451.597L481.988 423.5H487.273V423.434Z" fill="#231F20"/>
<path d="M529.15 440.091C528.681 444.773 532.628 448.587 539.385 447.984C540.455 447.984 541.458 447.65 542.328 447.249C545.539 445.844 546.877 443.703 546.81 440.894C546.676 437.95 545.539 436.478 542.06 435.074L539.184 434.137L535.705 432.866C535.17 432.665 534.635 432.465 534.033 432.264C525.537 428.986 522.995 425.039 525.069 418.283C526.407 413.801 530.889 410.724 538.047 410.724C546.743 410.59 551.693 415.139 551.961 421.026H546.342C546.342 417.48 543.331 414.737 538.047 414.737C533.765 414.737 531.357 416.343 530.354 419.42C529.083 423.367 531.023 426.31 537.779 428.652L541.592 429.923L543.532 430.592L545.004 431.127C551.158 433.401 553.566 437.749 552.095 443.569C550.891 448.386 547.011 451.262 539.853 451.731C538.448 451.864 536.976 451.731 535.571 451.731C528.213 451.062 524.668 448.185 523.731 442.566C523.597 441.763 523.597 440.894 523.597 440.091H529.15Z" fill="#231F20"/>
<path d="M572.43 422.965C578.919 424.102 583.267 429.454 583.267 437.214C583.267 444.974 578.919 450.326 572.43 451.463C562.864 453.202 555.706 447.048 555.706 437.214C555.706 427.38 562.864 421.226 572.43 422.965ZM561.125 438.686C561.86 446.178 566.008 449.523 571.694 448.185C575.173 447.315 577.313 444.439 577.848 438.686C577.982 437.749 577.982 436.813 577.848 435.876C577.38 430.056 575.173 427.247 571.694 426.377C566.008 424.972 561.794 428.317 561.125 435.876C561.125 436.344 561.125 436.813 561.125 437.281C561.125 437.749 561.125 438.217 561.125 438.686Z" fill="#231F20"/>
<path d="M606.547 432.464C606.547 432.464 606.413 431.729 606.413 431.327C606.28 430.859 606.146 430.324 605.945 429.922C604.34 426.176 599.055 424.905 595.175 428.183C593.436 429.655 592.232 432.063 591.964 435.943C591.83 437.147 591.964 438.418 592.098 439.622C592.834 445.375 595.108 447.85 599.323 448.118C603.403 448.386 605.878 446.446 606.48 442.632C606.48 442.365 606.48 442.097 606.614 441.83H611.297C611.297 442.432 611.297 443.034 611.096 443.569C610.026 448.921 605.811 452.199 599.122 451.864C591.362 451.597 586.88 446.713 586.746 437.682C586.612 428.986 590.961 423.567 597.383 422.764C605.343 421.694 610.093 425.106 611.23 431.06C611.23 431.528 611.364 431.996 611.431 432.464H606.614H606.547Z" fill="#231F20"/>
<path d="M615.914 411.46H620.864V417.347H615.914V411.46ZM615.914 423.434H620.864V451.129H615.914V423.434Z" fill="#231F20"/>
<path d="M631.366 437.951C631.366 438.486 631.366 439.088 631.366 439.69C631.835 445.844 634.711 448.654 639.059 448.654C642.538 448.788 644.812 447.048 645.749 443.369C645.883 443.168 645.95 442.901 645.95 442.566H650.632C650.632 443.102 650.498 443.704 650.365 444.306C649.227 448.855 645.348 451.664 639.059 451.798C631.5 451.932 627.219 447.851 626.349 439.422C625.413 429.656 629.828 423.903 636.584 422.966C645.749 421.695 650.833 426.11 651.234 436.211C651.234 436.747 651.234 437.282 651.234 437.951H631.366ZM646.15 435.141C646.15 435.141 646.15 434.539 646.15 434.271C646.016 428.585 643.14 425.843 638.725 425.976C634.979 426.11 632.303 428.518 631.5 433.669C631.366 434.138 631.366 434.606 631.366 435.074H646.083L646.15 435.141Z" fill="#231F20"/>
<path d="M651.97 423.434H656.987V417.814L661.938 415.808V423.434H668.159V426.778H661.938V443.77C662.272 447.115 663.008 447.784 666.687 447.717C667.222 447.717 667.758 447.717 668.427 447.516V451.195C667.289 451.463 666.286 451.597 665.216 451.664C659.061 451.797 656.92 449.791 656.92 443.435V426.778H651.903V423.434H651.97Z" fill="#231F20"/>
<path d="M671.703 423.434L679.864 445.509L687.959 423.434H692.508L678.393 461.832H673.509L677.256 451.597L666.418 423.5H671.703V423.434Z" fill="#231F20"/>
<path d="M299.832 405.974C300.634 406.308 301.504 406.576 302.307 406.844C238.89 380.821 207.649 308.841 232.468 244.622C257.286 180.402 328.864 148.091 393.285 171.438C392.482 171.103 391.679 170.769 390.877 170.434C325.854 145.282 252.737 177.659 227.651 242.682C202.498 307.704 234.876 380.821 299.898 405.907L299.832 405.974Z" fill="#231F20"/>
<path d="M405.593 245.893H450.747L456.032 246.16C477.372 246.963 487.072 255.592 488.543 273.989C490.35 294.191 477.907 308.641 457.37 309.577L454.493 309.711H436.365V345.567H405.593V245.893ZM443.857 290.646H446.6L448.54 290.512C453.356 290.378 456.701 288.171 458.909 283.622C459.845 281.682 460.447 279.207 460.18 275.728C459.511 267.701 455.363 263.821 446.065 263.419H435.963V290.713H443.857V290.646Z" fill="#231F20"/>
<path d="M495.501 245.893H567.213V265.694H525.805V284.625H565.273V305.095H525.805V325.699H568.083V345.5H495.501V245.826V245.893Z" fill="#231F20"/>
<path d="M602.8 312.186C602.532 313.457 602.532 314.661 602.666 315.932C603.201 325.097 609.289 330.181 618.989 329.245C620.661 329.111 622.066 328.642 623.27 328.107C627.953 325.766 630.16 322.287 630.026 317.471C629.759 312.186 626.815 308.44 620.862 306.5L619.858 306.232L614.574 304.694L606.412 302.486C605.476 302.219 604.472 301.884 603.536 301.483C578.718 293.455 571.56 284.291 575.841 266.43C579.32 251.779 592.431 242.748 617.249 243.016C619.457 243.016 621.798 243.15 624.006 243.284C641.466 244.822 650.497 249.906 655.581 259.205C658.056 263.754 659.193 268.905 658.925 274.123H629.96V272.049C629.826 270.376 629.291 268.704 628.555 267.232C625.879 262.416 621.33 260.141 614.44 260.877C612.901 261.011 611.563 261.412 610.292 261.948C605.275 264.623 603.201 269.038 604.339 274.256C605.476 278.805 608.62 281.481 617.785 284.09L626.949 286.699L637.92 289.776C655.38 294.726 663.274 307.102 659.394 323.826C656.049 338.209 645.412 345.701 622.534 346.972C617.985 347.106 613.838 347.106 609.623 346.704C590.959 345.166 581.126 338.944 575.975 328.04C573.633 323.09 572.764 317.672 573.366 312.119H602.733L602.8 312.186Z" fill="#231F20"/>
<path d="M405.995 188.028H415.293V236.326H405.995V188.028Z" fill="#231F20"/>
<path d="M421.648 188.028H454.159V195.319H432.619V207.829H453.089V215.321H432.619V229.035H454.694V236.326H421.648V188.028Z" fill="#231F20"/>
<path d="M460.113 188.028H492.624V195.319H471.084V207.829H491.554V215.321H471.084V229.035H493.159V236.326H460.113V188.028Z" fill="#231F20"/>
<path d="M498.512 188.028H531.023V195.319H509.483V207.829H529.953V215.321H509.483V229.035H531.558V236.326H498.512V188.028Z" fill="#231F20"/>
<path d="M287.79 382.359C238.822 352.524 222.901 289.04 251.599 239.671C251.198 240.273 250.796 240.875 250.395 241.477C220.158 291.114 235.879 355.802 285.515 386.105C335.152 416.342 399.907 400.622 430.144 350.985C430.545 350.383 430.879 349.714 431.214 349.112C400.509 397.277 336.824 412.262 287.79 382.359Z" fill="#231F20"/>
<path d="M719 422.162C719 427.581 714.652 431.862 709.166 431.862C703.681 431.862 699.266 427.581 699.266 422.162C699.266 416.744 703.681 412.529 709.233 412.529C714.785 412.529 719 416.744 719 422.162ZM701.674 422.162C701.674 426.444 704.885 429.855 709.166 429.855C713.314 429.855 716.525 426.444 716.525 422.229C716.525 418.015 713.381 414.469 709.099 414.469C704.818 414.469 701.741 417.948 701.741 422.162H701.674ZM707.561 427.113H705.353V417.48C706.223 417.346 707.494 417.212 709.032 417.212C710.839 417.212 711.708 417.48 712.31 417.948C712.912 418.349 713.314 419.085 713.314 420.022C713.314 421.226 712.444 421.962 711.307 422.296V422.43C712.243 422.697 712.712 423.5 712.979 424.771C713.247 426.243 713.514 426.778 713.715 427.113H711.374C711.106 426.778 710.905 425.908 710.638 424.771C710.437 423.768 709.902 423.299 708.631 423.299H707.561V427.113ZM707.628 421.761H708.698C709.902 421.761 710.905 421.36 710.905 420.356C710.905 419.486 710.237 418.884 708.832 418.884C708.23 418.884 707.828 418.884 707.628 419.018V421.761Z" fill="#231F20"/>
</svg>
