<svg width="441" height="351" viewBox="0 0 441 351" fill="none" xmlns="http://www.w3.org/2000/svg">
<g clip-path="url(#clip0_44_11467)">
<path d="M28.3434 301.867C29.7496 301.867 30.9098 302.043 31.8239 302.395C32.7457 302.738 33.4332 303.266 33.8864 303.977C34.3395 304.688 34.5661 305.594 34.5661 306.695C34.5661 307.602 34.402 308.359 34.0739 308.969C33.7457 309.57 33.3161 310.059 32.7848 310.434C32.2536 310.809 31.6871 311.098 31.0856 311.301L35.7848 319H33.4645L29.2692 311.852H25.7067V319H23.7145V301.867H28.3434ZM28.2262 303.59H25.7067V310.164H28.4254C29.8239 310.164 30.8512 309.879 31.5075 309.309C32.1715 308.738 32.5036 307.898 32.5036 306.789C32.5036 305.625 32.152 304.801 31.4489 304.316C30.7536 303.832 29.6793 303.59 28.2262 303.59ZM49.2731 319L47.1637 313.562H40.2965L38.1989 319H36.1832L42.8864 301.797H44.6793L51.3356 319H49.2731ZM46.5661 311.793L44.5621 306.391C44.5153 306.25 44.4371 306.02 44.3278 305.699C44.2262 305.379 44.1207 305.047 44.0114 304.703C43.902 304.359 43.8121 304.082 43.7418 303.871C43.6637 304.191 43.5778 304.512 43.484 304.832C43.3981 305.145 43.3121 305.438 43.2262 305.711C43.1403 305.977 43.0661 306.203 43.0036 306.391L40.9645 311.793H46.5661ZM61.2496 319L55.4957 303.836H55.402C55.4332 304.156 55.4606 304.547 55.484 305.008C55.5075 305.469 55.527 305.973 55.5426 306.52C55.5582 307.059 55.5661 307.609 55.5661 308.172V319H53.7145V301.867H56.6676L62.0934 316.117H62.1754L67.6832 301.867H70.6129V319H68.6442V308.031C68.6442 307.523 68.652 307.016 68.6676 306.508C68.6832 305.992 68.7028 305.508 68.7262 305.055C68.7496 304.594 68.7731 304.195 68.7965 303.859H68.7028L62.8786 319H61.2496ZM86.0465 319L83.9371 313.562H77.07L74.9723 319H72.9567L79.6598 301.797H81.4528L88.109 319H86.0465ZM83.3395 311.793L81.3356 306.391C81.2887 306.25 81.2106 306.02 81.1012 305.699C80.9996 305.379 80.8942 305.047 80.7848 304.703C80.6754 304.359 80.5856 304.082 80.5153 303.871C80.4371 304.191 80.3512 304.512 80.2575 304.832C80.1715 305.145 80.0856 305.438 79.9996 305.711C79.9137 305.977 79.8395 306.203 79.777 306.391L77.7379 311.793H83.3395ZM106.261 319H96.7223V301.867H106.261V303.625H98.7145V309.168H105.828V310.902H98.7145V317.242H106.261V319ZM119.726 314.441C119.726 315.457 119.472 316.324 118.964 317.043C118.464 317.754 117.761 318.297 116.855 318.672C115.949 319.047 114.882 319.234 113.656 319.234C113.007 319.234 112.394 319.203 111.816 319.141C111.238 319.078 110.707 318.988 110.222 318.871C109.738 318.754 109.312 318.609 108.945 318.438V316.527C109.531 316.77 110.246 316.996 111.089 317.207C111.933 317.41 112.816 317.512 113.738 317.512C114.597 317.512 115.324 317.398 115.918 317.172C116.511 316.938 116.961 316.605 117.265 316.176C117.578 315.738 117.734 315.215 117.734 314.605C117.734 314.02 117.605 313.531 117.347 313.141C117.089 312.742 116.66 312.383 116.058 312.062C115.464 311.734 114.652 311.387 113.621 311.02C112.894 310.762 112.254 310.48 111.699 310.176C111.144 309.863 110.679 309.512 110.304 309.121C109.929 308.73 109.644 308.277 109.449 307.762C109.261 307.246 109.168 306.656 109.168 305.992C109.168 305.078 109.398 304.297 109.859 303.648C110.328 302.992 110.972 302.492 111.793 302.148C112.621 301.797 113.57 301.621 114.64 301.621C115.554 301.621 116.398 301.707 117.172 301.879C117.953 302.051 118.668 302.281 119.316 302.57L118.695 304.281C118.078 304.023 117.422 303.809 116.726 303.637C116.039 303.465 115.328 303.379 114.593 303.379C113.859 303.379 113.238 303.488 112.73 303.707C112.23 303.918 111.847 304.219 111.582 304.609C111.316 305 111.183 305.465 111.183 306.004C111.183 306.605 111.308 307.105 111.558 307.504C111.816 307.902 112.222 308.258 112.777 308.57C113.339 308.875 114.082 309.195 115.004 309.531C116.011 309.898 116.867 310.289 117.57 310.703C118.273 311.109 118.808 311.609 119.175 312.203C119.543 312.789 119.726 313.535 119.726 314.441ZM128.492 319H126.488V303.625H121.097V301.867H133.859V303.625H128.492V319ZM149.41 301.867V312.953C149.41 314.164 149.164 315.242 148.672 316.188C148.187 317.133 147.453 317.879 146.468 318.426C145.484 318.965 144.25 319.234 142.765 319.234C140.648 319.234 139.035 318.66 137.925 317.512C136.824 316.363 136.273 314.828 136.273 312.906V301.867H138.277V312.965C138.277 314.418 138.66 315.539 139.425 316.328C140.199 317.117 141.351 317.512 142.882 317.512C143.929 317.512 144.785 317.324 145.449 316.949C146.121 316.566 146.617 316.035 146.937 315.355C147.265 314.668 147.429 313.875 147.429 312.977V301.867H149.41ZM167.562 310.27C167.562 312.199 167.211 313.812 166.507 315.109C165.804 316.398 164.785 317.371 163.449 318.027C162.121 318.676 160.507 319 158.609 319H153.957V301.867H159.125C160.867 301.867 162.367 302.188 163.625 302.828C164.882 303.461 165.851 304.402 166.531 305.652C167.218 306.895 167.562 308.434 167.562 310.27ZM165.464 310.34C165.464 308.801 165.207 307.531 164.691 306.531C164.183 305.531 163.433 304.789 162.441 304.305C161.457 303.812 160.25 303.566 158.82 303.566H155.949V317.289H158.375C160.734 317.289 162.504 316.707 163.683 315.543C164.871 314.379 165.464 312.645 165.464 310.34ZM171.371 319V301.867H173.363V319H171.371ZM188.82 319L186.711 313.562H179.843L177.746 319H175.73L182.433 301.797H184.226L190.882 319H188.82ZM186.113 311.793L184.109 306.391C184.062 306.25 183.984 306.02 183.875 305.699C183.773 305.379 183.668 305.047 183.558 304.703C183.449 304.359 183.359 304.082 183.289 303.871C183.211 304.191 183.125 304.512 183.031 304.832C182.945 305.145 182.859 305.438 182.773 305.711C182.687 305.977 182.613 306.203 182.55 306.391L180.511 311.793H186.113ZM206.656 319H204.359L195.019 304.609H194.925C194.949 304.992 194.976 305.43 195.007 305.922C195.039 306.406 195.062 306.926 195.078 307.48C195.101 308.027 195.113 308.586 195.113 309.156V319H193.261V301.867H195.547L204.851 316.211H204.933C204.918 315.938 204.898 315.551 204.875 315.051C204.851 314.543 204.828 314 204.804 313.422C204.789 312.836 204.781 312.293 204.781 311.793V301.867H206.656V319ZM216.593 319H214.589V303.625H209.199V301.867H221.961V303.625H216.593V319ZM224.55 319V301.867H226.543V319H224.55ZM231.254 319V301.867H233.246V317.219H240.851V319H231.254ZM250.027 319V301.867H252.019V319H250.027ZM266.269 319H256.73V301.867H266.269V303.625H258.722V309.168H265.836V310.902H258.722V317.242H266.269V319ZM279.605 319H270.066V301.867H279.605V303.625H272.058V309.168H279.172V310.902H272.058V317.242H279.605V319ZM292.941 319H283.402V301.867H292.941V303.625H285.394V309.168H292.507V310.902H285.394V317.242H292.941V319ZM315.933 301.867V312.953C315.933 314.164 315.687 315.242 315.195 316.188C314.711 317.133 313.976 317.879 312.992 318.426C312.007 318.965 310.773 319.234 309.289 319.234C307.172 319.234 305.558 318.66 304.449 317.512C303.347 316.363 302.797 314.828 302.797 312.906V301.867H304.8V312.965C304.8 314.418 305.183 315.539 305.949 316.328C306.722 317.117 307.875 317.512 309.406 317.512C310.453 317.512 311.308 317.324 311.972 316.949C312.644 316.566 313.14 316.035 313.461 315.355C313.789 314.668 313.953 313.875 313.953 312.977V301.867H315.933ZM324.957 301.867C327.168 301.867 328.781 302.301 329.797 303.168C330.82 304.027 331.332 305.262 331.332 306.871C331.332 307.598 331.211 308.289 330.968 308.945C330.734 309.594 330.351 310.168 329.82 310.668C329.289 311.16 328.589 311.551 327.722 311.84C326.863 312.121 325.808 312.262 324.558 312.262H322.472V319H320.48V301.867H324.957ZM324.769 303.566H322.472V310.551H324.336C325.429 310.551 326.339 310.434 327.066 310.199C327.8 309.965 328.351 309.586 328.718 309.062C329.086 308.531 329.269 307.828 329.269 306.953C329.269 305.812 328.906 304.965 328.179 304.41C327.453 303.848 326.316 303.566 324.769 303.566ZM334.918 319V301.867H336.91V319H334.918ZM341.621 319V301.867H343.613V319H341.621ZM353.586 319H351.582V303.625H346.191V301.867H358.953V303.625H353.586V319ZM372.289 319L370.179 313.562H363.312L361.214 319H359.199L365.902 301.797H367.695L374.351 319H372.289ZM369.582 311.793L367.578 306.391C367.531 306.25 367.453 306.02 367.343 305.699C367.242 305.379 367.136 305.047 367.027 304.703C366.918 304.359 366.828 304.082 366.757 303.871C366.679 304.191 366.593 304.512 366.5 304.832C366.414 305.145 366.328 305.438 366.242 305.711C366.156 305.977 366.082 306.203 366.019 306.391L363.98 311.793H369.582ZM375.347 313.422V311.688H381.16V313.422H375.347ZM384.464 319V301.867H386.457V319H384.464ZM395.644 301.867C397.855 301.867 399.468 302.301 400.484 303.168C401.507 304.027 402.019 305.262 402.019 306.871C402.019 307.598 401.898 308.289 401.656 308.945C401.422 309.594 401.039 310.168 400.507 310.668C399.976 311.16 399.277 311.551 398.41 311.84C397.55 312.121 396.496 312.262 395.246 312.262H393.16V319H391.168V301.867H395.644ZM395.457 303.566H393.16V310.551H395.023C396.117 310.551 397.027 310.434 397.754 310.199C398.488 309.965 399.039 309.586 399.406 309.062C399.773 308.531 399.957 307.828 399.957 306.953C399.957 305.812 399.593 304.965 398.867 304.41C398.14 303.848 397.004 303.566 395.457 303.566ZM419 319H416.703L407.363 304.609H407.269C407.293 304.992 407.32 305.43 407.351 305.922C407.382 306.406 407.406 306.926 407.422 307.48C407.445 308.027 407.457 308.586 407.457 309.156V319H405.605V301.867H407.89L417.195 316.211H417.277C417.261 315.938 417.242 315.551 417.218 315.051C417.195 314.543 417.172 314 417.148 313.422C417.132 312.836 417.125 312.293 417.125 311.793V301.867H419V319Z" fill="#231F20"/>
<path d="M38.688 286L43.106 265.298H44.522L40.1182 286H38.688ZM45.8955 286L50.2852 265.298H60.707L60.438 266.615H51.4746L49.7896 274.459H58.229L57.96 275.776H49.5205L47.623 284.683H56.6006L56.3315 286H45.8955ZM61.1885 286L65.5781 265.298H76L75.731 266.615H66.7676L65.0825 274.459H73.522L73.2529 275.776H64.8135L62.916 284.683H71.8936L71.6245 286H61.1885ZM76.4814 286L80.8711 265.298H91.293L91.0239 266.615H82.0605L80.3755 274.459H88.8149L88.5459 275.776H80.1064L78.209 284.683H87.1865L86.9175 286H76.4814ZM107.421 286.283C105.911 286.283 104.622 285.958 103.556 285.306C102.498 284.645 101.687 283.715 101.12 282.517C100.554 281.318 100.271 279.906 100.271 278.283C100.271 276.819 100.44 275.427 100.78 274.105C101.12 272.784 101.611 271.571 102.253 270.466C102.904 269.352 103.688 268.389 104.604 267.578C105.529 266.756 106.567 266.124 107.719 265.68C108.88 265.227 110.135 265 111.485 265C112.42 265 113.279 265.095 114.062 265.284C114.855 265.463 115.601 265.737 116.3 266.105L115.705 267.365C115.082 267.007 114.421 266.742 113.723 266.572C113.024 266.402 112.278 266.317 111.485 266.317C110.315 266.317 109.229 266.52 108.229 266.926C107.228 267.323 106.326 267.884 105.524 268.611C104.731 269.329 104.056 270.188 103.499 271.188C102.942 272.18 102.513 273.27 102.21 274.459C101.918 275.649 101.771 276.904 101.771 278.226C101.771 280.312 102.286 281.96 103.315 283.168C104.353 284.376 105.784 284.98 107.605 284.98C108.521 284.98 109.38 284.9 110.183 284.74C110.994 284.579 111.754 284.376 112.462 284.131V285.405C111.773 285.66 111.018 285.868 110.197 286.028C109.385 286.198 108.46 286.283 107.421 286.283ZM122.105 286.255C120.916 286.255 119.915 286.009 119.104 285.519C118.292 285.028 117.678 284.339 117.263 283.451C116.857 282.564 116.654 281.535 116.654 280.364C116.654 279.241 116.772 278.179 117.008 277.178C117.253 276.178 117.603 275.262 118.056 274.431C118.518 273.591 119.07 272.869 119.712 272.265C120.364 271.651 121.095 271.179 121.907 270.849C122.729 270.509 123.611 270.339 124.555 270.339C125.726 270.339 126.712 270.589 127.515 271.089C128.317 271.59 128.926 272.284 129.341 273.171C129.766 274.049 129.979 275.068 129.979 276.229C129.979 277.268 129.865 278.278 129.639 279.26C129.422 280.242 129.096 281.157 128.662 282.007C128.227 282.856 127.689 283.597 127.047 284.23C126.415 284.862 125.683 285.358 124.853 285.717C124.031 286.076 123.116 286.255 122.105 286.255ZM122.233 285.023C122.988 285.023 123.687 284.881 124.329 284.598C124.98 284.306 125.561 283.895 126.07 283.366C126.59 282.838 127.028 282.205 127.387 281.469C127.755 280.732 128.034 279.911 128.223 279.005C128.411 278.099 128.506 277.131 128.506 276.102C128.506 275.271 128.364 274.516 128.081 273.836C127.798 273.147 127.364 272.6 126.778 272.194C126.202 271.788 125.457 271.585 124.541 271.585C123.786 271.585 123.083 271.722 122.431 271.996C121.78 272.269 121.185 272.666 120.647 273.185C120.118 273.704 119.665 274.327 119.288 275.054C118.91 275.781 118.617 276.598 118.41 277.504C118.211 278.401 118.112 279.368 118.112 280.407C118.112 281.832 118.457 282.96 119.146 283.791C119.845 284.612 120.874 285.023 122.233 285.023ZM132.386 286L135.643 270.608H136.832L136.195 274.19H136.28C136.601 273.624 137.011 273.043 137.512 272.449C138.021 271.854 138.626 271.349 139.324 270.934C140.032 270.518 140.839 270.311 141.746 270.311C142.973 270.311 143.855 270.674 144.394 271.401C144.941 272.128 145.215 273.095 145.215 274.304H145.271C145.611 273.69 146.046 273.076 146.574 272.463C147.112 271.849 147.745 271.34 148.472 270.934C149.199 270.518 150.015 270.311 150.921 270.311C152.083 270.311 152.979 270.632 153.612 271.273C154.254 271.915 154.575 272.855 154.575 274.091C154.575 274.441 154.551 274.795 154.504 275.153C154.457 275.512 154.391 275.88 154.306 276.258L152.252 286H150.808L152.918 276.088C153.003 275.729 153.06 275.399 153.088 275.097C153.126 274.795 153.145 274.516 153.145 274.261C153.145 273.364 152.918 272.694 152.465 272.25C152.012 271.797 151.37 271.571 150.539 271.571C149.907 271.571 149.279 271.741 148.656 272.081C148.042 272.42 147.466 272.897 146.928 273.511C146.39 274.124 145.923 274.847 145.526 275.677C145.13 276.499 144.828 277.4 144.62 278.382L143.006 286H141.576L143.629 276.357C143.723 275.942 143.789 275.55 143.827 275.182C143.865 274.813 143.884 274.502 143.884 274.247C143.884 273.407 143.667 272.751 143.232 272.279C142.808 271.807 142.18 271.571 141.349 271.571C140.717 271.571 140.089 271.741 139.466 272.081C138.852 272.411 138.276 272.888 137.738 273.511C137.2 274.134 136.728 274.87 136.322 275.72C135.916 276.56 135.605 277.494 135.388 278.523L133.816 286H132.386ZM157.166 286L160.423 270.608H161.612L160.975 274.19H161.06C161.381 273.624 161.792 273.043 162.292 272.449C162.802 271.854 163.406 271.349 164.104 270.934C164.812 270.518 165.62 270.311 166.526 270.311C167.753 270.311 168.636 270.674 169.174 271.401C169.721 272.128 169.995 273.095 169.995 274.304H170.052C170.392 273.69 170.826 273.076 171.354 272.463C171.893 271.849 172.525 271.34 173.252 270.934C173.979 270.518 174.795 270.311 175.702 270.311C176.863 270.311 177.76 270.632 178.392 271.273C179.034 271.915 179.355 272.855 179.355 274.091C179.355 274.441 179.331 274.795 179.284 275.153C179.237 275.512 179.171 275.88 179.086 276.258L177.033 286H175.588L177.698 276.088C177.783 275.729 177.84 275.399 177.868 275.097C177.906 274.795 177.925 274.516 177.925 274.261C177.925 273.364 177.698 272.694 177.245 272.25C176.792 271.797 176.15 271.571 175.319 271.571C174.687 271.571 174.059 271.741 173.436 272.081C172.822 272.42 172.247 272.897 171.708 273.511C171.17 274.124 170.703 274.847 170.307 275.677C169.91 276.499 169.608 277.4 169.4 278.382L167.786 286H166.356L168.409 276.357C168.504 275.942 168.57 275.55 168.607 275.182C168.645 274.813 168.664 274.502 168.664 274.247C168.664 273.407 168.447 272.751 168.013 272.279C167.588 271.807 166.96 271.571 166.129 271.571C165.497 271.571 164.869 271.741 164.246 272.081C163.632 272.411 163.057 272.888 162.519 273.511C161.98 274.134 161.508 274.87 161.103 275.72C160.697 276.56 160.385 277.494 160.168 278.523L158.596 286H157.166ZM186.548 286.283C185.736 286.283 185.038 286.142 184.453 285.858C183.867 285.566 183.419 285.136 183.107 284.57C182.805 284.003 182.654 283.31 182.654 282.488C182.654 282.158 182.678 281.813 182.725 281.455C182.782 281.096 182.843 280.728 182.909 280.35L184.977 270.608H186.421L184.311 280.52C184.236 280.879 184.179 281.209 184.141 281.511C184.103 281.804 184.084 282.073 184.084 282.318C184.084 283.234 184.325 283.918 184.807 284.372C185.288 284.815 185.987 285.037 186.902 285.037C187.818 285.037 188.715 284.749 189.593 284.173C190.48 283.588 191.259 282.776 191.929 281.738C192.609 280.69 193.095 279.467 193.388 278.07L194.974 270.608H196.39L193.119 286H191.929L192.566 282.403H192.481C192.142 282.96 191.688 283.541 191.122 284.145C190.565 284.74 189.904 285.245 189.14 285.66C188.384 286.076 187.521 286.283 186.548 286.283ZM198.245 286L201.516 270.58H202.762L202.139 274.162H202.181C202.521 273.596 202.969 273.015 203.526 272.42C204.083 271.826 204.744 271.321 205.509 270.905C206.283 270.49 207.147 270.282 208.1 270.282C208.94 270.282 209.653 270.429 210.238 270.721C210.833 271.014 211.281 271.443 211.583 272.01C211.895 272.576 212.051 273.27 212.051 274.091C212.051 274.441 212.022 274.804 211.966 275.182C211.919 275.559 211.857 275.923 211.782 276.272L209.714 286H208.213L210.323 276.074C210.399 275.715 210.455 275.389 210.493 275.097C210.531 274.795 210.55 274.521 210.55 274.275C210.55 273.369 210.309 272.699 209.828 272.265C209.346 271.821 208.662 271.599 207.774 271.599C206.859 271.599 205.962 271.887 205.084 272.463C204.215 273.039 203.446 273.846 202.776 274.884C202.106 275.923 201.624 277.136 201.332 278.523L199.731 286H198.245ZM214.628 286L217.885 270.608H219.315L216.058 286H214.628ZM219.485 267.252C219.202 267.252 218.97 267.176 218.791 267.025C218.621 266.865 218.536 266.638 218.536 266.346C218.536 266.11 218.579 265.883 218.664 265.666C218.758 265.449 218.895 265.274 219.074 265.142C219.254 265 219.471 264.93 219.726 264.93C220.037 264.93 220.264 265.015 220.405 265.185C220.547 265.345 220.618 265.553 220.618 265.808C220.618 266.195 220.509 266.535 220.292 266.827C220.075 267.11 219.806 267.252 219.485 267.252ZM227.471 286.283C226.291 286.283 225.281 286.042 224.441 285.561C223.601 285.07 222.954 284.386 222.501 283.508C222.057 282.63 221.835 281.601 221.835 280.421C221.835 279.345 221.949 278.306 222.175 277.306C222.411 276.305 222.756 275.38 223.209 274.53C223.662 273.681 224.214 272.944 224.866 272.321C225.527 271.689 226.282 271.198 227.131 270.849C227.99 270.49 228.93 270.311 229.949 270.311C230.61 270.311 231.261 270.372 231.903 270.495C232.555 270.617 233.126 270.792 233.617 271.019L233.206 272.279C232.762 272.062 232.248 271.892 231.663 271.769C231.087 271.637 230.516 271.571 229.949 271.571C228.939 271.571 228.023 271.802 227.202 272.265C226.381 272.718 225.678 273.35 225.092 274.162C224.516 274.974 224.073 275.913 223.761 276.98C223.45 278.037 223.294 279.17 223.294 280.378C223.294 281.275 223.454 282.078 223.775 282.786C224.106 283.484 224.592 284.036 225.234 284.442C225.876 284.839 226.659 285.037 227.584 285.037C228.274 285.037 228.916 284.957 229.51 284.796C230.105 284.626 230.7 284.405 231.294 284.131V285.419C230.804 285.665 230.242 285.868 229.609 286.028C228.977 286.198 228.264 286.283 227.471 286.283ZM239.111 286.283C238.223 286.283 237.464 286.066 236.831 285.632C236.199 285.198 235.717 284.579 235.387 283.777C235.056 282.965 234.891 282.002 234.891 280.888C234.891 279.859 235 278.84 235.217 277.83C235.443 276.819 235.769 275.866 236.194 274.969C236.628 274.063 237.157 273.261 237.78 272.562C238.403 271.863 239.12 271.316 239.932 270.919C240.744 270.514 241.636 270.311 242.608 270.311C243.43 270.311 244.114 270.485 244.662 270.834C245.209 271.174 245.639 271.604 245.95 272.123C246.262 272.642 246.488 273.166 246.63 273.695H246.729L247.55 270.608H248.683L245.426 286H244.265L244.902 282.403H244.832C244.463 282.979 243.991 283.569 243.416 284.173C242.849 284.768 242.198 285.268 241.461 285.674C240.735 286.08 239.951 286.283 239.111 286.283ZM239.493 285.037C240.305 285.037 241.126 284.744 241.957 284.159C242.797 283.564 243.548 282.762 244.208 281.752C244.869 280.732 245.341 279.585 245.625 278.311C245.757 277.735 245.846 277.225 245.894 276.782C245.95 276.338 245.979 275.927 245.979 275.55C245.979 274.304 245.686 273.331 245.101 272.633C244.515 271.925 243.713 271.571 242.693 271.571C241.9 271.571 241.174 271.745 240.513 272.095C239.852 272.444 239.267 272.925 238.757 273.539C238.247 274.153 237.813 274.856 237.454 275.649C237.105 276.442 236.836 277.287 236.647 278.184C236.458 279.08 236.364 279.987 236.364 280.902C236.364 282.205 236.628 283.22 237.157 283.947C237.685 284.674 238.464 285.037 239.493 285.037ZM254.191 286.283C253.21 286.283 252.445 286.042 251.897 285.561C251.35 285.08 251.076 284.343 251.076 283.352C251.076 283.088 251.095 282.8 251.133 282.488C251.171 282.177 251.227 281.856 251.303 281.525L253.356 271.783H251.062L251.246 270.948L253.625 270.48L254.899 266.898H255.848L255.055 270.608H259.473L259.218 271.783H254.8L252.747 281.483C252.681 281.785 252.624 282.082 252.577 282.375C252.539 282.668 252.521 282.941 252.521 283.196C252.521 283.763 252.662 284.216 252.945 284.556C253.229 284.886 253.701 285.051 254.361 285.051C254.786 285.051 255.168 285.018 255.508 284.952C255.858 284.886 256.197 284.796 256.528 284.683V285.858C256.245 285.962 255.9 286.057 255.494 286.142C255.098 286.236 254.663 286.283 254.191 286.283ZM259.657 286L262.914 270.608H264.344L261.087 286H259.657ZM264.514 267.252C264.231 267.252 264 267.176 263.82 267.025C263.65 266.865 263.565 266.638 263.565 266.346C263.565 266.11 263.608 265.883 263.693 265.666C263.787 265.449 263.924 265.274 264.104 265.142C264.283 265 264.5 264.93 264.755 264.93C265.066 264.93 265.293 265.015 265.435 265.185C265.576 265.345 265.647 265.553 265.647 265.808C265.647 266.195 265.538 266.535 265.321 266.827C265.104 267.11 264.835 267.252 264.514 267.252ZM272.316 286.255C271.127 286.255 270.126 286.009 269.314 285.519C268.503 285.028 267.889 284.339 267.474 283.451C267.068 282.564 266.865 281.535 266.865 280.364C266.865 279.241 266.983 278.179 267.219 277.178C267.464 276.178 267.813 275.262 268.267 274.431C268.729 273.591 269.281 272.869 269.923 272.265C270.575 271.651 271.306 271.179 272.118 270.849C272.939 270.509 273.822 270.339 274.766 270.339C275.937 270.339 276.923 270.589 277.726 271.089C278.528 271.59 279.137 272.284 279.552 273.171C279.977 274.049 280.189 275.068 280.189 276.229C280.189 277.268 280.076 278.278 279.85 279.26C279.632 280.242 279.307 281.157 278.873 282.007C278.438 282.856 277.9 283.597 277.258 284.23C276.626 284.862 275.894 285.358 275.063 285.717C274.242 286.076 273.326 286.255 272.316 286.255ZM272.444 285.023C273.199 285.023 273.898 284.881 274.54 284.598C275.191 284.306 275.771 283.895 276.281 283.366C276.8 282.838 277.239 282.205 277.598 281.469C277.966 280.732 278.245 279.911 278.434 279.005C278.622 278.099 278.717 277.131 278.717 276.102C278.717 275.271 278.575 274.516 278.292 273.836C278.009 273.147 277.575 272.6 276.989 272.194C276.413 271.788 275.668 271.585 274.752 271.585C273.997 271.585 273.293 271.722 272.642 271.996C271.991 272.269 271.396 272.666 270.858 273.185C270.329 273.704 269.876 274.327 269.499 275.054C269.121 275.781 268.828 276.598 268.621 277.504C268.422 278.401 268.323 279.368 268.323 280.407C268.323 281.832 268.668 282.96 269.357 283.791C270.056 284.612 271.084 285.023 272.444 285.023ZM282.554 286L285.825 270.58H287.071L286.448 274.162H286.491C286.831 273.596 287.279 273.015 287.836 272.42C288.393 271.826 289.054 271.321 289.818 270.905C290.592 270.49 291.456 270.282 292.41 270.282C293.25 270.282 293.963 270.429 294.548 270.721C295.143 271.014 295.591 271.443 295.893 272.01C296.205 272.576 296.36 273.27 296.36 274.091C296.36 274.441 296.332 274.804 296.275 275.182C296.228 275.559 296.167 275.923 296.091 276.272L294.024 286H292.523L294.633 276.074C294.708 275.715 294.765 275.389 294.803 275.097C294.84 274.795 294.859 274.521 294.859 274.275C294.859 273.369 294.619 272.699 294.137 272.265C293.656 271.821 292.971 271.599 292.084 271.599C291.168 271.599 290.271 271.887 289.394 272.463C288.525 273.039 287.756 273.846 287.085 274.884C286.415 275.923 285.934 277.136 285.641 278.523L284.041 286H282.554ZM302.704 286.283C301.722 286.283 300.863 286.175 300.127 285.958C299.4 285.74 298.801 285.504 298.329 285.25V283.819C298.867 284.14 299.518 284.428 300.283 284.683C301.047 284.929 301.85 285.051 302.69 285.051C303.643 285.051 304.417 284.919 305.012 284.655C305.607 284.39 306.046 284.027 306.329 283.564C306.622 283.092 306.768 282.55 306.768 281.936C306.768 281.389 306.641 280.931 306.386 280.562C306.131 280.194 305.772 279.864 305.31 279.571C304.856 279.269 304.333 278.953 303.738 278.623C303.068 278.245 302.468 277.872 301.939 277.504C301.411 277.136 300.995 276.716 300.693 276.244C300.391 275.762 300.24 275.177 300.24 274.488C300.24 273.563 300.462 272.793 300.906 272.18C301.359 271.566 301.972 271.104 302.747 270.792C303.521 270.471 304.394 270.311 305.366 270.311C306.282 270.311 307.108 270.405 307.844 270.594C308.581 270.783 309.218 271.004 309.756 271.259L309.289 272.477C308.798 272.232 308.212 272.019 307.533 271.84C306.862 271.66 306.136 271.571 305.352 271.571C304.285 271.571 303.403 271.802 302.704 272.265C302.015 272.727 301.67 273.44 301.67 274.403C301.67 274.884 301.788 275.3 302.024 275.649C302.27 275.989 302.614 276.3 303.058 276.583C303.511 276.867 304.04 277.174 304.644 277.504C305.277 277.863 305.867 278.226 306.414 278.594C306.962 278.962 307.401 279.401 307.731 279.911C308.071 280.411 308.241 281.053 308.241 281.837C308.241 282.715 308.033 283.489 307.618 284.159C307.212 284.829 306.593 285.353 305.763 285.731C304.941 286.099 303.922 286.283 302.704 286.283ZM323.562 286.283C322.401 286.283 321.429 286.194 320.645 286.014C319.861 285.844 319.149 285.618 318.507 285.334V283.848C319.149 284.169 319.885 284.442 320.716 284.669C321.547 284.886 322.5 284.995 323.576 284.995C324.218 284.995 324.865 284.914 325.516 284.754C326.177 284.584 326.781 284.32 327.329 283.961C327.886 283.602 328.329 283.14 328.66 282.573C329 281.997 329.169 281.304 329.169 280.492C329.169 279.746 329.009 279.109 328.688 278.58C328.367 278.051 327.9 277.575 327.286 277.15C326.673 276.725 325.936 276.291 325.077 275.847C324.407 275.479 323.774 275.073 323.18 274.629C322.594 274.176 322.122 273.638 321.764 273.015C321.405 272.392 321.226 271.642 321.226 270.764C321.226 269.763 321.41 268.899 321.778 268.172C322.155 267.445 322.66 266.851 323.293 266.388C323.935 265.916 324.652 265.567 325.445 265.34C326.238 265.114 327.055 265 327.895 265C328.952 265 329.859 265.104 330.614 265.312C331.369 265.51 332.105 265.784 332.823 266.133L332.256 267.408C331.577 267.068 330.888 266.804 330.189 266.615C329.5 266.417 328.726 266.317 327.867 266.317C327.291 266.317 326.701 266.398 326.097 266.558C325.502 266.709 324.95 266.955 324.44 267.294C323.93 267.634 323.52 268.083 323.208 268.64C322.896 269.187 322.741 269.862 322.741 270.665C322.741 271.391 322.892 271.996 323.194 272.477C323.496 272.958 323.902 273.379 324.412 273.737C324.921 274.087 325.488 274.431 326.111 274.771C326.979 275.243 327.758 275.724 328.447 276.215C329.136 276.697 329.679 277.268 330.076 277.929C330.482 278.58 330.685 279.406 330.685 280.407C330.685 281.445 330.482 282.337 330.076 283.083C329.679 283.829 329.141 284.438 328.461 284.91C327.782 285.382 327.017 285.731 326.167 285.958C325.327 286.175 324.459 286.283 323.562 286.283ZM339.464 286.255C338.274 286.255 337.274 286.009 336.462 285.519C335.65 285.028 335.036 284.339 334.621 283.451C334.215 282.564 334.012 281.535 334.012 280.364C334.012 279.241 334.13 278.179 334.366 277.178C334.612 276.178 334.961 275.262 335.414 274.431C335.877 273.591 336.429 272.869 337.071 272.265C337.722 271.651 338.454 271.179 339.266 270.849C340.087 270.509 340.97 270.339 341.914 270.339C343.084 270.339 344.071 270.589 344.873 271.089C345.675 271.59 346.284 272.284 346.7 273.171C347.125 274.049 347.337 275.068 347.337 276.229C347.337 277.268 347.224 278.278 346.997 279.26C346.78 280.242 346.454 281.157 346.02 282.007C345.586 282.856 345.048 283.597 344.406 284.23C343.773 284.862 343.042 285.358 342.211 285.717C341.39 286.076 340.474 286.255 339.464 286.255ZM339.591 285.023C340.347 285.023 341.045 284.881 341.687 284.598C342.338 284.306 342.919 283.895 343.429 283.366C343.948 282.838 344.387 282.205 344.746 281.469C345.114 280.732 345.392 279.911 345.581 279.005C345.77 278.099 345.864 277.131 345.864 276.102C345.864 275.271 345.723 274.516 345.439 273.836C345.156 273.147 344.722 272.6 344.137 272.194C343.561 271.788 342.815 271.585 341.899 271.585C341.144 271.585 340.441 271.722 339.79 271.996C339.138 272.269 338.543 272.666 338.005 273.185C337.477 273.704 337.024 274.327 336.646 275.054C336.268 275.781 335.976 276.598 335.768 277.504C335.57 278.401 335.471 279.368 335.471 280.407C335.471 281.832 335.815 282.96 336.504 283.791C337.203 284.612 338.232 285.023 339.591 285.023ZM356.017 286.283C354.837 286.283 353.827 286.042 352.987 285.561C352.147 285.07 351.5 284.386 351.047 283.508C350.603 282.63 350.381 281.601 350.381 280.421C350.381 279.345 350.495 278.306 350.721 277.306C350.957 276.305 351.302 275.38 351.755 274.53C352.208 273.681 352.76 272.944 353.412 272.321C354.072 271.689 354.828 271.198 355.677 270.849C356.536 270.49 357.476 270.311 358.495 270.311C359.156 270.311 359.807 270.372 360.449 270.495C361.101 270.617 361.672 270.792 362.163 271.019L361.752 272.279C361.308 272.062 360.794 271.892 360.208 271.769C359.633 271.637 359.062 271.571 358.495 271.571C357.485 271.571 356.569 271.802 355.748 272.265C354.927 272.718 354.223 273.35 353.638 274.162C353.062 274.974 352.619 275.913 352.307 276.98C351.996 278.037 351.84 279.17 351.84 280.378C351.84 281.275 352 282.078 352.321 282.786C352.652 283.484 353.138 284.036 353.78 284.442C354.422 284.839 355.205 285.037 356.13 285.037C356.819 285.037 357.461 284.957 358.056 284.796C358.651 284.626 359.246 284.405 359.84 284.131V285.419C359.349 285.665 358.788 285.868 358.155 286.028C357.523 286.198 356.81 286.283 356.017 286.283ZM362.885 286L366.142 270.608H367.572L364.315 286H362.885ZM367.742 267.252C367.458 267.252 367.227 267.176 367.048 267.025C366.878 266.865 366.793 266.638 366.793 266.346C366.793 266.11 366.835 265.883 366.92 265.666C367.015 265.449 367.152 265.274 367.331 265.142C367.51 265 367.728 264.93 367.982 264.93C368.294 264.93 368.521 265.015 368.662 265.185C368.804 265.345 368.875 265.553 368.875 265.808C368.875 266.195 368.766 266.535 368.549 266.827C368.332 267.11 368.063 267.252 367.742 267.252ZM375.657 286.283C374.647 286.283 373.727 286.071 372.896 285.646C372.075 285.221 371.419 284.575 370.928 283.706C370.446 282.838 370.206 281.738 370.206 280.407C370.206 279.057 370.399 277.778 370.786 276.569C371.173 275.361 371.716 274.29 372.415 273.355C373.113 272.411 373.939 271.67 374.893 271.132C375.846 270.584 376.894 270.311 378.036 270.311C379.263 270.311 380.222 270.622 380.911 271.245C381.609 271.868 381.958 272.699 381.958 273.737C381.958 274.615 381.737 275.375 381.293 276.017C380.859 276.659 380.226 277.188 379.396 277.603C378.565 278.018 377.574 278.33 376.422 278.538C375.27 278.745 373.982 278.849 372.556 278.849H371.763C371.735 279.038 371.711 279.274 371.692 279.557C371.674 279.831 371.664 280.1 371.664 280.364C371.664 281.865 372.037 283.022 372.783 283.833C373.528 284.636 374.572 285.037 375.912 285.037C376.705 285.037 377.432 284.933 378.093 284.726C378.763 284.508 379.381 284.268 379.948 284.003V285.292C379.41 285.566 378.777 285.802 378.05 286C377.323 286.189 376.526 286.283 375.657 286.283ZM371.976 277.617H372.924C374.369 277.617 375.662 277.49 376.804 277.235C377.956 276.971 378.867 276.56 379.537 276.003C380.207 275.446 380.542 274.724 380.542 273.836C380.542 273.176 380.321 272.633 379.877 272.208C379.443 271.774 378.787 271.557 377.909 271.557C377.097 271.557 376.29 271.793 375.487 272.265C374.685 272.737 373.972 273.426 373.349 274.332C372.726 275.238 372.268 276.333 371.976 277.617ZM387.552 286.283C386.57 286.283 385.805 286.042 385.258 285.561C384.71 285.08 384.437 284.343 384.437 283.352C384.437 283.088 384.455 282.8 384.493 282.488C384.531 282.177 384.588 281.856 384.663 281.525L386.716 271.783H384.422L384.606 270.948L386.985 270.48L388.26 266.898H389.208L388.416 270.608H392.833L392.579 271.783H388.161L386.107 281.483C386.041 281.785 385.985 282.082 385.938 282.375C385.9 282.668 385.881 282.941 385.881 283.196C385.881 283.763 386.022 284.216 386.306 284.556C386.589 284.886 387.061 285.051 387.722 285.051C388.146 285.051 388.529 285.018 388.869 284.952C389.218 284.886 389.558 284.796 389.888 284.683V285.858C389.605 285.962 389.26 286.057 388.854 286.142C388.458 286.236 388.024 286.283 387.552 286.283ZM390.823 293.023C390.417 293.023 390.082 292.995 389.817 292.938C389.544 292.891 389.284 292.82 389.039 292.726V291.48C389.275 291.565 389.534 291.636 389.817 291.692C390.101 291.749 390.426 291.777 390.794 291.777C391.531 291.777 392.177 291.518 392.734 290.999C393.301 290.479 393.891 289.686 394.504 288.62L396.034 285.958L393.542 270.608H394.986L396.43 279.939C396.525 280.544 396.605 281.138 396.671 281.724C396.746 282.299 396.803 282.833 396.841 283.324C396.888 283.805 396.916 284.211 396.926 284.542H397.011C397.143 284.249 397.322 283.871 397.549 283.409C397.775 282.946 398.026 282.446 398.299 281.908C398.573 281.36 398.856 280.832 399.149 280.322L404.501 270.608H406.045L395.765 289.073C395.293 289.913 394.811 290.626 394.32 291.211C393.839 291.806 393.315 292.254 392.749 292.556C392.192 292.868 391.55 293.023 390.823 293.023Z" fill="#231F20"/>
<path d="M201.585 116.705C200.96 114.54 200.262 112.448 199.526 110.356C199.416 110.283 199.306 110.209 199.195 110.136C200.115 112.264 200.887 114.466 201.622 116.705H201.585Z" fill="#231F20"/>
<path d="M199.012 188.088C199.012 188.088 199.269 187.941 199.379 187.868C200.225 185.519 201.034 183.133 201.733 180.674C200.924 183.207 200.041 185.666 199.012 188.088Z" fill="#231F20"/>
<path d="M198.975 172.894L199.048 172.637C195.886 173.334 192.687 173.995 189.488 174.619C192.577 174.215 195.592 173.701 198.534 173.004L199.012 172.894H198.975Z" fill="#231F20"/>
<path d="M198.975 172.894L199.048 172.637C195.886 173.334 192.687 173.995 189.488 174.619C192.577 174.215 195.592 173.701 198.534 173.004L199.012 172.894H198.975Z" fill="#231F20"/>
<path d="M210.594 174.362V174.949H208.903C207.064 175.573 205.189 176.16 203.277 176.674L202.836 176.784C206.77 175.94 210.668 174.986 214.492 173.958C216.551 171.536 218.39 169.15 219.897 167.168C218.537 167.572 217.139 167.976 215.742 168.38C214.786 170.178 213.757 171.903 212.543 173.591C211.881 173.848 211.219 174.105 210.558 174.362H210.594Z" fill="#231F20"/>
<path d="M210.594 174.362C210.042 174.582 209.491 174.766 208.902 174.949H210.594V174.362Z" fill="#231F20"/>
<path d="M210.594 174.362C210.042 174.582 209.491 174.766 208.902 174.949H210.594V174.362Z" fill="#231F20"/>
<path d="M199.379 187.831C198.276 190.84 197.063 193.74 195.702 196.566C206.476 191.721 215.08 183.133 220.191 172.38C218.316 172.93 216.403 173.444 214.528 173.958C210.189 179.059 204.821 184.528 199.379 187.831Z" fill="#231F20"/>
<path d="M202.873 176.857C202.873 176.857 202.799 176.857 202.763 176.857C202.432 178.142 202.1 179.39 201.732 180.638C202.1 179.5 202.432 178.362 202.763 177.224L202.873 176.821V176.857Z" fill="#231F20"/>
<path d="M199.012 188.088C200.042 185.702 200.961 183.207 201.733 180.674C202.101 179.426 202.432 178.142 202.763 176.894C200.042 177.518 197.321 178.068 194.6 178.619C195.151 178.509 195.666 178.435 196.218 178.325L197.578 178.068L197.137 179.353C195.74 183.5 193.938 187.537 191.695 191.574C187.172 193.263 182.355 194.29 177.355 194.547V181.445C175.774 181.665 174.156 181.849 172.575 182.032V194.51C167.501 194.253 162.647 193.152 158.161 191.391C156.727 188.822 155.514 186.253 154.447 183.647C152.719 183.757 151.028 183.83 149.3 183.904C149.741 185.152 150.219 186.4 150.734 187.611C149.005 186.546 147.351 185.335 145.806 184.051C142.791 184.161 139.739 184.197 136.688 184.197C146.211 194.474 159.852 200.933 175.002 200.933C182.503 200.933 189.526 199.355 195.776 196.529C197.137 193.703 198.35 190.804 199.453 187.794C199.343 187.868 199.196 187.941 199.086 188.014L199.012 188.088Z" fill="#231F20"/>
<path d="M199.012 188.088C200.042 185.702 200.961 183.207 201.733 180.674C202.101 179.426 202.432 178.142 202.763 176.894C200.042 177.518 197.321 178.068 194.6 178.619C195.151 178.509 195.666 178.435 196.218 178.325L197.578 178.068L197.137 179.353C195.74 183.5 193.938 187.537 191.695 191.574C187.172 193.263 182.355 194.29 177.355 194.547V181.445C175.774 181.665 174.156 181.849 172.575 182.032V194.51C167.501 194.253 162.647 193.152 158.161 191.391C156.727 188.822 155.514 186.253 154.447 183.647C152.719 183.757 151.028 183.83 149.3 183.904C149.741 185.152 150.219 186.4 150.734 187.611C149.005 186.546 147.351 185.335 145.806 184.051C142.791 184.161 139.739 184.197 136.688 184.197C146.211 194.474 159.852 200.933 175.002 200.933C182.503 200.933 189.526 199.355 195.776 196.529C197.137 193.703 198.35 190.804 199.453 187.794C199.343 187.868 199.196 187.941 199.086 188.014L199.012 188.088Z" fill="#231F20"/>
<path d="M143.6 152.084C143.747 157.993 144.372 164.122 145.512 170.141L143.6 152.084Z" fill="#231F20"/>
<path d="M143.6 152.084C143.747 157.993 144.372 164.122 145.512 170.141L143.6 152.084Z" fill="#231F20"/>
<path d="M136.099 173.114C139.445 174.545 142.975 175.72 146.541 176.674L146.983 176.784L147.093 177.224C147.313 177.995 147.534 178.766 147.755 179.537C149.409 179.463 151.064 179.353 152.719 179.243L152.314 178.032L153.675 178.289C154.925 178.509 156.138 178.729 157.388 178.913C168.272 178.032 179.009 176.601 189.488 174.619C185.848 175.059 182.098 175.353 178.163 175.426H177.354V151.314H201.549V152.121C201.365 159.351 200.63 166.031 199.122 172.417V172.637C200.188 172.38 201.328 172.123 202.468 171.866V120.449H202.689C202.358 119.201 202.027 117.953 201.659 116.705C200.96 114.466 200.152 112.264 199.232 110.136C199.343 110.209 199.453 110.283 199.563 110.356C198.387 107.163 197.1 104.08 195.666 101.071C189.304 98.3182 182.318 96.8135 174.964 96.8135C146.137 96.8135 122.788 120.118 122.788 148.892C122.788 160.526 126.612 171.242 133.047 179.904C135.805 179.904 138.526 179.867 141.246 179.793C139.334 177.738 137.606 175.5 136.135 173.114H136.099ZM177.318 103.273C182.392 103.53 187.209 104.631 191.731 106.392C193.937 110.356 195.702 114.356 197.136 118.467L197.578 119.751L196.217 119.494C190.15 118.357 184.046 117.733 178.126 117.586H177.354V103.236L177.318 103.273ZM177.318 122.394H178.126C185.333 122.577 192.062 123.311 198.46 124.816L198.938 124.926L199.048 125.403C200.556 131.789 201.291 138.505 201.438 145.699V146.506H177.281V122.357L177.318 122.394ZM172.537 175.463H171.729C164.485 175.279 157.793 174.545 151.395 173.041L150.917 172.93L150.807 172.453C149.299 166.031 148.564 159.351 148.417 152.158V151.351H172.574V175.5L172.537 175.463ZM152.755 118.467C154.153 114.356 155.918 110.319 158.124 106.392C162.61 104.631 167.463 103.53 172.501 103.273V117.586H171.729C165.809 117.77 159.705 118.357 153.638 119.494L152.277 119.751L152.719 118.467H152.755ZM150.88 124.926L151.358 124.816C157.793 123.311 164.522 122.577 171.692 122.394H172.501V146.506H148.306V145.699C148.49 138.505 149.226 131.789 150.733 125.403L150.843 124.926H150.88ZM150.696 110.172C149.262 113.512 148.086 117.035 147.13 120.595L147.019 121.036L146.578 121.146C142.975 122.1 139.482 123.275 136.135 124.706C139.812 118.834 144.813 113.843 150.696 110.136V110.172ZM132.348 132.156C136.319 129.954 140.327 128.192 144.445 126.798L145.732 126.357L145.475 127.715C144.335 133.734 143.747 139.863 143.563 145.772V146.543H129.186C129.443 141.478 130.546 136.67 132.311 132.193L132.348 132.156ZM132.348 165.7C130.583 161.223 129.48 156.379 129.223 151.314H143.563V152.085L145.475 170.141L145.732 171.499L144.445 171.059C140.327 169.664 136.319 167.902 132.348 165.7Z" fill="#231F20"/>
<path d="M202.432 171.866C202.946 171.756 203.461 171.646 203.976 171.499C205.41 164.269 206.182 156.709 206.182 148.928C206.182 138.983 204.932 129.404 202.652 120.449H202.432V171.866Z" fill="#231F20"/>
<path d="M202.432 171.866C202.946 171.756 203.461 171.646 203.976 171.499C205.41 164.269 206.182 156.709 206.182 148.928C206.182 138.983 204.932 129.404 202.652 120.449H202.432V171.866Z" fill="#231F20"/>
<path d="M212.616 173.591C213.793 171.939 214.859 170.214 215.815 168.379C214.087 168.857 212.359 169.334 210.631 169.811V174.362C211.293 174.105 211.955 173.848 212.616 173.591Z" fill="#231F20"/>
<path d="M212.616 173.591C213.793 171.939 214.859 170.214 215.815 168.379C214.087 168.857 212.359 169.334 210.631 169.811V174.362C211.293 174.105 211.955 173.848 212.616 173.591Z" fill="#231F20"/>
<path d="M202.872 176.784L203.314 176.674C205.226 176.16 207.064 175.573 208.939 174.949H203.24C203.093 175.61 202.946 176.234 202.799 176.858C202.799 176.858 202.872 176.858 202.909 176.858L202.872 176.784Z" fill="#231F20"/>
<path d="M202.872 176.784L203.314 176.674C205.226 176.16 207.064 175.573 208.939 174.949H203.24C203.093 175.61 202.946 176.234 202.799 176.858C202.799 176.858 202.872 176.858 202.909 176.858L202.872 176.784Z" fill="#231F20"/>
<path d="M204.123 171.499C204.123 171.499 204.012 171.499 203.976 171.499C203.755 172.674 203.498 173.811 203.24 174.949H208.94C209.491 174.766 210.079 174.545 210.631 174.362V169.811C208.498 170.362 206.402 170.912 204.27 171.426H204.159L204.123 171.499Z" fill="#231F20"/>
<path d="M204.123 171.499C204.123 171.499 204.012 171.499 203.976 171.499C203.755 172.674 203.498 173.811 203.24 174.949H208.94C209.491 174.766 210.079 174.545 210.631 174.362V169.811C208.498 170.362 206.402 170.912 204.27 171.426H204.159L204.123 171.499Z" fill="#231F20"/>
<path d="M204.123 171.499C204.123 171.499 204.012 171.499 203.976 171.499C203.755 172.674 203.498 173.811 203.24 174.949H208.94C209.491 174.766 210.079 174.545 210.631 174.362V169.811C208.498 170.362 206.402 170.912 204.27 171.426H204.159L204.123 171.499Z" fill="#231F20"/>
<path d="M202.431 174.949V171.866C201.291 172.123 200.188 172.38 199.048 172.637L198.975 172.894L198.497 173.004C195.555 173.701 192.54 174.215 189.451 174.619C178.972 176.601 168.235 178.032 157.352 178.913C162.168 179.647 167.022 180.05 171.729 180.197H172.501V182.032C174.119 181.849 175.7 181.629 177.281 181.445V180.234H178.053C183.421 180.087 189.01 179.573 194.526 178.582C197.283 178.069 200.004 177.481 202.689 176.857C202.836 176.234 202.983 175.573 203.13 174.949H202.321H202.431Z" fill="#231F20"/>
<path d="M202.431 174.949V171.866C201.291 172.123 200.188 172.38 199.048 172.637L198.975 172.894L198.497 173.004C195.555 173.701 192.54 174.215 189.451 174.619C178.972 176.601 168.235 178.032 157.352 178.913C162.168 179.647 167.022 180.05 171.729 180.197H172.501V182.032C174.119 181.849 175.7 181.629 177.281 181.445V180.234H178.053C183.421 180.087 189.01 179.573 194.526 178.582C197.283 178.069 200.004 177.481 202.689 176.857C202.836 176.234 202.983 175.573 203.13 174.949H202.321H202.431Z" fill="#231F20"/>
<path d="M202.431 174.949V171.866C201.291 172.123 200.188 172.38 199.048 172.637L198.975 172.894L198.497 173.004C195.555 173.701 192.54 174.215 189.451 174.619C178.972 176.601 168.235 178.032 157.352 178.913C162.168 179.647 167.022 180.05 171.729 180.197H172.501V182.032C174.119 181.849 175.7 181.629 177.281 181.445V180.234H178.053C183.421 180.087 189.01 179.573 194.526 178.582C197.283 178.069 200.004 177.481 202.689 176.857C202.836 176.234 202.983 175.573 203.13 174.949H202.321H202.431Z" fill="#231F20"/>
<path d="M203.203 174.949C203.461 173.811 203.718 172.673 203.939 171.499C203.424 171.609 202.909 171.719 202.395 171.866V174.949H203.203Z" fill="#231F20"/>
<path d="M203.203 174.949C203.461 173.811 203.718 172.673 203.939 171.499C203.424 171.609 202.909 171.719 202.395 171.866V174.949H203.203Z" fill="#231F20"/>
<path d="M203.203 174.949C203.461 173.811 203.718 172.673 203.939 171.499C203.424 171.609 202.909 171.719 202.395 171.866V174.949H203.203Z" fill="#231F20"/>
<path d="M203.203 174.949C203.461 173.811 203.718 172.673 203.939 171.499C203.424 171.609 202.909 171.719 202.395 171.866V174.949H203.203Z" fill="#231F20"/>
<path d="M223.243 166.178C222.14 166.508 221.037 166.875 219.933 167.205C218.426 169.187 216.587 171.536 214.528 173.995C216.44 173.481 218.316 172.967 220.191 172.417C220.301 172.16 220.448 171.866 220.595 171.609C221.294 170.215 222.25 168.086 223.243 166.178Z" fill="#231F20"/>
<path d="M223.243 166.178C222.14 166.508 221.037 166.875 219.933 167.205C218.426 169.187 216.587 171.536 214.528 173.995C216.44 173.481 218.316 172.967 220.191 172.417C220.301 172.16 220.448 171.866 220.595 171.609C221.294 170.215 222.25 168.086 223.243 166.178Z" fill="#231F20"/>
<path d="M152.719 179.28C151.064 179.39 149.41 179.463 147.755 179.573C148.196 181.078 148.674 182.546 149.226 183.977C150.954 183.904 152.645 183.831 154.373 183.721C153.785 182.289 153.234 180.821 152.756 179.353V179.28H152.719Z" fill="#231F20"/>
<path d="M152.719 179.28C151.064 179.39 149.41 179.463 147.755 179.573C148.196 181.078 148.674 182.546 149.226 183.977C150.954 183.904 152.645 183.831 154.373 183.721C153.785 182.289 153.234 180.821 152.756 179.353V179.28H152.719Z" fill="#231F20"/>
<path d="M152.719 179.28C151.064 179.39 149.41 179.463 147.755 179.573C148.196 181.078 148.674 182.546 149.226 183.977C150.954 183.904 152.645 183.831 154.373 183.721C153.785 182.289 153.234 180.821 152.756 179.353V179.28H152.719Z" fill="#231F20"/>
<path d="M141.21 179.793C138.489 179.867 135.768 179.904 133.011 179.904C134.114 181.408 135.327 182.84 136.614 184.234C139.666 184.234 142.718 184.161 145.733 184.087C144.115 182.766 142.608 181.335 141.21 179.793Z" fill="#231F20"/>
<path d="M141.21 179.793C138.489 179.867 135.768 179.904 133.011 179.904C134.114 181.408 135.327 182.84 136.614 184.234C139.666 184.234 142.718 184.161 145.733 184.087C144.115 182.766 142.608 181.335 141.21 179.793Z" fill="#231F20"/>
<path d="M141.21 179.793C138.489 179.867 135.768 179.904 133.011 179.904C134.114 181.408 135.327 182.84 136.614 184.234C139.666 184.234 142.718 184.161 145.733 184.087C144.115 182.766 142.608 181.335 141.21 179.793Z" fill="#231F20"/>
<path d="M135.768 57.3971C98.7042 87.0879 85.5407 135.423 98.8881 178.105C99.5132 178.179 100.175 178.252 100.8 178.289C89.1809 136.45 102.602 89.8771 138.673 60.9937C186.4 22.7517 255.895 29.7982 294.981 76.4447C294.503 75.8208 294.062 75.1969 293.584 74.6097C254.755 26.3484 184.083 18.6413 135.768 57.3971Z" fill="#231F20"/>
<path d="M118.485 214.916C118.963 215.503 119.478 216.091 119.993 216.678C111.83 206.071 105.837 194.474 101.976 182.399C101.388 182.326 100.799 182.253 100.211 182.179C104.329 193.74 110.359 204.787 118.485 214.879V214.916Z" fill="#231F20"/>
<path d="M100.212 182.216C100.8 182.289 101.389 182.363 101.977 182.436C101.536 181.078 101.131 179.72 100.764 178.326C100.139 178.252 99.4766 178.215 98.8516 178.142C99.2928 179.5 99.734 180.858 100.212 182.216Z" fill="#231F20"/>
<path d="M172.28 25.9447C106.389 45.029 68.4423 113.843 87.5626 179.61C87.8199 180.417 88.0773 181.225 88.3347 182.069C70.8691 117.036 108.632 49.7267 173.714 30.8626C238.796 11.9985 306.82 48.6991 326.933 112.998C326.713 112.154 326.529 111.347 326.271 110.503C307.151 44.6987 238.208 6.86042 172.28 25.9447Z" fill="#231F20"/>
<path d="M60.5 215.723H67.2656C67.6333 215.723 67.9642 215.723 68.3319 215.723C72.8178 215.98 74.9873 217.742 75.3917 221.081C75.6491 222.916 75.1343 224.568 74.068 225.926C72.8914 227.357 71.2 228.165 69.1041 228.238H63.5887V237.487H60.5368V215.723H60.5ZM66.8979 226.109C67.1553 226.109 67.3759 226.109 67.5965 226.109C70.0969 225.999 71.2 225.339 71.9721 223.724C72.2663 223.137 72.4134 222.403 72.3031 221.448C72.0825 219.173 70.8323 217.999 67.7436 217.778H63.5519V226.109H66.8979Z" fill="#231F20"/>
<path d="M84.1065 222.035C87.6731 222.659 90.0632 225.595 90.0632 229.853C90.0632 234.11 87.6731 237.046 84.1065 237.67C78.8484 238.624 74.9141 235.248 74.9141 229.853C74.9141 224.458 78.8484 221.081 84.1065 222.035ZM77.8924 230.66C78.2969 234.771 80.5766 236.606 83.702 235.872C85.614 235.394 86.7907 233.816 87.0481 230.66C87.1216 230.146 87.1216 229.632 87.0481 229.119C86.7907 225.926 85.5773 224.384 83.702 223.907C80.5766 223.136 78.2601 224.971 77.8924 229.119C77.8924 229.376 77.8924 229.632 77.8924 229.889C77.8924 230.146 77.8924 230.403 77.8924 230.66Z" fill="#231F20"/>
<path d="M93.7762 222.292L97.6003 234.404L101.351 222.292H104.844L108.631 234.404L112.492 222.292H114.992L110.176 237.487H106.977L102.969 224.751L99.0343 237.487H95.725L90.9082 222.292H93.7395H93.7762Z" fill="#231F20"/>
<path d="M118.596 230.257C118.596 230.55 118.596 230.881 118.596 231.211C118.853 234.587 120.434 236.129 122.824 236.129C124.737 236.202 125.987 235.248 126.501 233.23C126.575 233.119 126.612 232.973 126.612 232.789H129.186C129.186 233.083 129.112 233.413 129.039 233.743C128.413 236.239 126.281 237.78 122.824 237.854C118.67 237.927 116.316 235.688 115.838 231.064C115.323 225.706 117.75 222.55 121.464 222.036C126.501 221.339 129.296 223.761 129.517 229.303C129.517 229.596 129.517 229.89 129.517 230.257H118.596ZM126.722 228.715C126.722 228.715 126.722 228.385 126.722 228.238C126.649 225.119 125.067 223.614 122.641 223.687C120.582 223.761 119.111 225.082 118.67 227.908C118.596 228.165 118.596 228.422 118.596 228.679H126.685L126.722 228.715Z" fill="#231F20"/>
<path d="M132.458 222.293H135.179V224.421C135.179 224.421 135.363 224.128 135.436 223.981C136.356 222.696 137.459 222.036 139.15 221.999C139.591 221.999 140.106 221.999 140.547 222.109V224.495H140.29L139.922 224.421C136.539 224.238 135.179 225.559 135.179 228.715V237.413H132.458V222.219V222.293Z" fill="#231F20"/>
<path d="M154.851 224.458L154.52 224.018C153.748 222.953 153.27 222.146 153.05 221.412C152.02 218.219 154.006 215.356 157.499 215.43C157.867 215.43 158.234 215.43 158.602 215.54C161.433 216.164 162.83 219.577 161.066 222.329C160.514 223.173 159.631 223.981 158.455 224.641C158.161 224.788 157.83 224.935 157.499 225.082L163.308 231.908C163.823 230.514 164.081 229.082 164.117 227.578H165.772C165.698 228.458 165.588 229.376 165.368 230.22C165.11 231.211 164.742 232.202 164.264 233.083L168.015 237.413H165.882L163.382 234.367C163.198 234.624 163.051 234.808 162.867 235.028C161.764 236.349 160.22 237.266 158.565 237.633C155.035 238.404 151.763 236.863 150.366 234.184C149.924 233.229 149.667 232.238 149.704 231.211C149.777 228.862 151.101 226.697 153.859 225.119C154.226 224.898 154.594 224.752 154.962 224.605L154.778 224.348L154.851 224.458ZM153.859 227.1C153.528 227.394 153.197 227.724 152.903 228.055C150.513 230.881 151.652 234.918 155.109 236.055C157.499 236.826 159.999 236.165 161.874 234.11C162.095 233.853 162.279 233.633 162.463 233.376L156.028 225.779C155.293 226.073 154.594 226.513 153.895 227.064L153.859 227.1ZM157.462 223.577C159.19 222.586 159.889 221.595 160.073 220.347C160.33 218.292 158.786 216.824 156.874 217.155C154.594 217.522 153.712 219.687 155.256 222.256C155.44 222.513 155.587 222.733 155.771 222.99C156.065 223.43 156.322 223.761 156.58 224.018C156.874 223.907 157.168 223.761 157.425 223.577H157.462Z" fill="#231F20"/>
<path d="M178.421 215.723H191.879V217.888H181.473V225.155H191.29V227.357H181.473V235.321H192.21V237.487H178.421V215.723Z" fill="#231F20"/>
<path d="M195.04 222.293H197.761V225.082C197.761 225.082 197.945 224.715 198.019 224.531C198.975 222.88 200.225 222.036 202.1 221.889C205.704 221.559 207.763 223.357 207.91 226.587V227.247V227.688V237.487H205.189V227.174C205.078 225.889 204.821 225.339 204.27 224.752C203.497 223.907 202.21 223.54 200.85 223.907C198.864 224.385 197.688 226.073 197.688 229.706V237.487H194.967V222.293H195.04Z" fill="#231F20"/>
<path d="M213.756 230.257C213.756 230.55 213.756 230.881 213.756 231.211C214.014 234.587 215.595 236.129 217.985 236.129C219.897 236.202 221.147 235.248 221.662 233.23C221.735 233.119 221.772 232.973 221.772 232.789H224.346C224.346 233.083 224.272 233.413 224.199 233.743C223.574 236.239 221.441 237.78 217.985 237.854C213.83 237.927 211.476 235.688 210.998 231.064C210.484 225.706 212.91 222.55 216.624 222.036C221.662 221.339 224.456 223.761 224.677 229.303C224.677 229.596 224.677 229.89 224.677 230.257H213.756ZM221.882 228.715C221.882 228.715 221.882 228.385 221.882 228.238C221.809 225.119 220.228 223.614 217.801 223.687C215.742 223.761 214.271 225.082 213.83 227.908C213.756 228.165 213.756 228.422 213.756 228.679H221.845L221.882 228.715Z" fill="#231F20"/>
<path d="M227.581 222.293H230.302V224.421C230.302 224.421 230.486 224.128 230.559 223.981C231.479 222.696 232.582 222.036 234.273 221.999C234.714 221.999 235.229 221.999 235.67 222.109V224.495H235.413L235.045 224.421C231.662 224.238 230.302 225.559 230.302 228.715V237.413H227.581V222.219V222.293Z" fill="#231F20"/>
<path d="M247.033 222.292H249.791V237.376C249.791 241.597 246.96 244.239 241.959 243.982C238.356 243.762 236.48 242.184 236.223 239.835C236.223 239.615 236.223 239.432 236.223 239.248H238.981C238.981 239.248 238.981 239.468 238.981 239.542C239.128 240.973 240.12 241.89 242.216 242.037C245.084 242.257 246.776 240.753 246.96 238C246.96 237.817 246.96 237.633 246.96 237.486V234.147L246.813 234.404L246.518 234.844C244.974 237.193 242.327 238.074 239.495 236.936C237.326 236.018 235.965 234.147 235.561 231.027C235.487 230.11 235.487 229.192 235.635 228.238C236.223 224.678 238.429 222.439 240.856 222.072C243.871 221.595 246.04 222.623 246.996 224.421V222.256L247.033 222.292ZM243.981 235.394C245.084 235.064 245.967 234.11 246.665 232.385C246.886 231.798 246.996 231.211 247.107 230.513C247.585 225.595 245.084 223.32 241.996 224.017C240.231 224.458 238.907 226.036 238.613 228.788C238.539 229.045 238.539 229.376 238.539 229.669C238.429 234.293 241.076 236.349 244.018 235.431L243.981 235.394Z" fill="#231F20"/>
<path d="M254.129 222.292L258.615 234.404L263.064 222.292H265.565L257.806 243.359H255.122L257.181 237.743L251.225 222.329H254.129V222.292Z" fill="#231F20"/>
<path d="M277.148 231.431C276.89 234 279.06 236.092 282.773 235.762C283.362 235.762 283.913 235.578 284.391 235.358C286.156 234.587 286.892 233.413 286.855 231.871C286.781 230.257 286.156 229.449 284.244 228.678L282.663 228.165L280.751 227.467C280.457 227.357 280.163 227.247 279.832 227.137C275.162 225.339 273.765 223.173 274.905 219.467C275.64 217.008 278.104 215.319 282.038 215.319C286.818 215.246 289.539 217.742 289.686 220.971H286.597C286.597 219.026 284.943 217.521 282.038 217.521C279.685 217.521 278.361 218.402 277.809 220.091C277.111 222.256 278.177 223.871 281.891 225.155L283.987 225.853L285.053 226.22L285.862 226.513C289.245 227.761 290.569 230.146 289.76 233.339C289.098 235.982 286.965 237.56 283.031 237.817C282.259 237.89 281.45 237.817 280.677 237.817C276.633 237.45 274.684 235.872 274.169 232.789C274.096 232.349 274.096 231.871 274.096 231.431H277.148Z" fill="#231F20"/>
<path d="M300.937 222.035C304.503 222.659 306.893 225.595 306.893 229.853C306.893 234.11 304.503 237.046 300.937 237.67C295.678 238.624 291.744 235.248 291.744 229.853C291.744 224.458 295.678 221.081 300.937 222.035ZM294.722 230.66C295.127 234.771 297.407 236.606 300.532 235.872C302.444 235.394 303.621 233.816 303.915 230.66C303.988 230.146 303.988 229.632 303.915 229.119C303.658 225.926 302.444 224.384 300.532 223.907C297.407 223.136 295.09 224.971 294.722 229.119C294.722 229.376 294.722 229.632 294.722 229.889C294.722 230.146 294.722 230.403 294.722 230.66Z" fill="#231F20"/>
<path d="M319.689 227.247C319.689 227.247 319.616 226.843 319.616 226.623C319.542 226.366 319.469 226.073 319.358 225.852C318.476 223.797 315.571 223.1 313.438 224.898C312.482 225.706 311.82 227.027 311.673 229.155C311.6 229.816 311.673 230.513 311.747 231.174C312.151 234.33 313.402 235.688 315.718 235.835C317.961 235.982 319.321 234.917 319.652 232.825C319.652 232.679 319.652 232.532 319.726 232.385H322.3C322.3 232.715 322.3 233.046 322.19 233.339C321.601 236.275 319.285 238.074 315.608 237.89C311.342 237.743 308.879 235.064 308.805 230.11C308.732 225.339 311.122 222.366 314.652 221.925C319.027 221.338 321.638 223.21 322.263 226.476C322.263 226.733 322.337 226.99 322.373 227.247H319.726H319.689Z" fill="#231F20"/>
<path d="M324.838 215.723H327.559V218.953H324.838V215.723ZM324.838 222.293H327.559V237.487H324.838V222.293Z" fill="#231F20"/>
<path d="M333.331 230.257C333.331 230.55 333.331 230.881 333.331 231.211C333.589 234.587 335.17 236.129 337.56 236.129C339.472 236.202 340.722 235.248 341.237 233.23C341.31 233.119 341.347 232.973 341.347 232.789H343.921C343.921 233.083 343.847 233.413 343.774 233.743C343.149 236.239 341.016 237.78 337.56 237.854C333.405 237.927 331.052 235.688 330.574 231.064C330.059 225.706 332.486 222.55 336.199 222.036C341.237 221.339 344.031 223.761 344.252 229.303C344.252 229.596 344.252 229.89 344.252 230.257H333.331ZM341.457 228.715C341.457 228.715 341.457 228.385 341.457 228.238C341.384 225.119 339.803 223.614 337.376 223.687C335.317 223.761 333.846 225.082 333.405 227.908C333.331 228.165 333.331 228.422 333.331 228.679H341.421L341.457 228.715Z" fill="#231F20"/>
<path d="M344.657 222.293H347.415V219.21L350.136 218.109V222.293H353.555V224.128H350.136V233.45C350.319 235.285 350.724 235.652 352.746 235.615C353.04 235.615 353.335 235.615 353.702 235.505V237.523C353.077 237.67 352.526 237.744 351.937 237.78C348.554 237.854 347.378 236.753 347.378 233.266V224.128H344.62V222.293H344.657Z" fill="#231F20"/>
<path d="M355.502 222.292L359.988 234.404L364.438 222.292H366.938L359.179 243.359H356.495L358.554 237.743L352.598 222.329H355.502V222.292Z" fill="#231F20"/>
<path d="M151.101 212.714C151.543 212.897 152.021 213.044 152.462 213.191C117.604 198.915 100.433 159.425 114.074 124.192C127.716 88.9596 167.059 71.2332 202.469 84.0417C202.027 83.8582 201.586 83.6747 201.145 83.4912C165.405 69.6918 125.215 87.4549 111.427 123.128C97.6014 158.801 115.398 198.915 151.138 212.677L151.101 212.714Z" fill="#231F20"/>
<path d="M209.233 124.89H234.053L236.958 125.036C248.687 125.477 254.019 130.211 254.828 140.304C255.821 151.387 248.981 159.315 237.693 159.829L236.112 159.902H226.147V179.574H209.233V124.89ZM230.266 149.442H231.773L232.84 149.369C235.487 149.296 237.325 148.084 238.539 145.589C239.054 144.524 239.385 143.167 239.237 141.258C238.87 136.854 236.59 134.725 231.479 134.505H225.927V149.479H230.266V149.442Z" fill="#231F20"/>
<path d="M258.652 124.889H298.069V135.753H275.309V146.139H297.003V157.369H275.309V168.673H298.547V179.536H258.652V124.853V124.889Z" fill="#231F20"/>
<path d="M317.63 161.26C317.483 161.957 317.483 162.618 317.556 163.315C317.85 168.343 321.196 171.132 326.528 170.618C327.447 170.545 328.219 170.288 328.881 169.994C331.455 168.71 332.669 166.801 332.595 164.159C332.448 161.26 330.83 159.204 327.558 158.14L327.006 157.993L324.101 157.149L319.615 155.938C319.101 155.791 318.549 155.608 318.034 155.388C304.393 150.984 300.458 145.956 302.812 136.156C304.724 128.119 311.93 123.164 325.572 123.311C326.785 123.311 328.072 123.385 329.286 123.458C338.883 124.302 343.847 127.091 346.641 132.193C348.002 134.688 348.627 137.514 348.48 140.377H332.558V139.239C332.485 138.322 332.191 137.404 331.786 136.597C330.315 133.954 327.815 132.707 324.028 133.11C323.182 133.184 322.447 133.404 321.748 133.698C318.99 135.166 317.85 137.588 318.476 140.45C319.101 142.946 320.829 144.414 325.866 145.845L330.904 147.277L336.934 148.965C346.531 151.681 350.87 158.47 348.737 167.646C346.898 175.536 341.052 179.647 328.477 180.344C325.977 180.417 323.697 180.417 321.38 180.197C311.122 179.353 305.716 175.94 302.885 169.958C301.598 167.242 301.12 164.269 301.451 161.223H317.593L317.63 161.26Z" fill="#231F20"/>
<path d="M209.454 93.1436H214.565V119.641H209.454V93.1436Z" fill="#231F20"/>
<path d="M218.059 93.1436H235.929V97.1439H224.089V104.007H235.34V108.117H224.089V115.641H236.223V119.641H218.059V93.1436Z" fill="#231F20"/>
<path d="M239.2 93.1436H257.07V97.1439H245.23V104.007H256.482V108.117H245.23V115.641H257.364V119.641H239.2V93.1436Z" fill="#231F20"/>
<path d="M260.307 93.1436H278.177V97.1439H266.337V104.007H277.588V108.117H266.337V115.641H278.471V119.641H260.307V93.1436Z" fill="#231F20"/>
<path d="M144.482 199.759C117.567 183.39 108.816 148.562 124.59 121.477C124.369 121.807 124.149 122.137 123.928 122.467C107.308 149.699 115.949 185.189 143.232 201.814C170.515 218.403 206.108 209.778 222.728 182.546C222.949 182.216 223.133 181.849 223.317 181.519C206.439 207.943 171.434 216.164 144.482 199.759Z" fill="#231F20"/>
<path d="M381.5 221.595C381.5 224.568 379.11 226.917 376.095 226.917C373.08 226.917 370.653 224.568 370.653 221.595C370.653 218.623 373.08 216.311 376.132 216.311C379.184 216.311 381.5 218.623 381.5 221.595ZM371.977 221.595C371.977 223.944 373.742 225.816 376.095 225.816C378.375 225.816 380.14 223.944 380.14 221.632C380.14 219.32 378.412 217.375 376.058 217.375C373.705 217.375 372.014 219.283 372.014 221.595H371.977ZM375.213 224.311H373.999V219.026C374.477 218.953 375.176 218.88 376.022 218.88C377.014 218.88 377.492 219.026 377.823 219.283C378.154 219.504 378.375 219.907 378.375 220.421C378.375 221.082 377.897 221.485 377.272 221.669V221.742C377.787 221.889 378.044 222.329 378.191 223.027C378.338 223.834 378.485 224.128 378.596 224.311H377.309C377.162 224.128 377.051 223.651 376.904 223.027C376.794 222.476 376.5 222.219 375.801 222.219H375.213V224.311ZM375.25 221.375H375.838C376.5 221.375 377.051 221.155 377.051 220.605C377.051 220.127 376.684 219.797 375.911 219.797C375.58 219.797 375.36 219.797 375.25 219.871V221.375Z" fill="#231F20"/>
</g>
<defs>
<clipPath id="clip0_44_11467">
<rect width="441" height="351" fill="white"/>
</clipPath>
</defs>
</svg>
