<svg width="1470" height="245" viewBox="0 0 1470 245" fill="none" xmlns="http://www.w3.org/2000/svg">
<path d="M190.933 166.14V79.1719H214.948V166.14H190.933Z" fill="#231F20"/>
<path d="M227.553 166.14V79.1719H293.597V96.0284H251.568V113.973H290.233V130.843H251.568V149.27H293.597V166.14H227.553Z" fill="#231F20"/>
<path d="M307.054 166.14V79.1719H373.084V96.0284H331.069V113.973H369.72V130.843H331.069V149.27H373.084V166.14H307.054Z" fill="#231F20"/>
<path d="M386.54 166.14V79.1719H452.585V96.0284H410.568V113.973H449.221V130.843H410.568V149.27H452.585V166.14H386.54Z" fill="#231F20"/>
<path d="M113.904 80.1504C117.734 77.1619 122.554 79.6408 125.767 82.3952C129.144 84.9843 132.66 87.9176 135.735 90.9061L136.298 91.2228C144.839 99.1691 152.775 107.997 159.283 117.348C160.341 118.973 161.274 120.818 160.684 122.967C158.515 128.42 154.093 132.758 150.235 137.509C141.887 146.53 133.072 155.247 123.213 162.216C121.222 163.634 118.531 164.943 116.142 163.813C108.878 159.999 102.754 153.76 96.4106 148.072C89.0373 141.214 81.6364 133.24 76.0618 124.895C75.2379 123.724 75.0044 122.278 75.0182 120.736C75.7322 117.857 77.7094 115.475 79.563 113.051C86.1675 104.609 94.2549 96.6076 102.411 89.3085C102.603 89.1158 102.946 88.7164 103.248 88.5374C106.75 85.4939 110.237 82.8084 113.917 80.1642L113.904 80.1504ZM125.121 71.3779L120.783 65.2219C120.247 64.8914 119.588 64.3543 118.998 64.2028C117.721 63.6519 116.334 64.313 115.29 65.1118L107.45 75.3579C94.8727 90.9888 79.975 105.587 63.7178 116.769C62.4271 117.775 60.5186 118.752 60.1204 120.419C59.6947 121.906 60.4636 123.146 61.3973 124.068C74.414 133.061 86.8541 143.734 97.9348 155.908C99.8982 157.974 101.491 160.04 103.413 161.982C106.654 166.306 110.457 170.658 113.437 175.299C114.37 176.277 114.535 177.888 115.991 178.37C117.13 178.769 118.544 179.031 119.629 178.37L120.714 177.282C134.184 158.153 151.265 140.966 170.337 127.098C172.245 125.39 175.898 124.743 175.953 121.576C175.815 120.116 174.964 118.67 173.714 117.871L173.399 117.816C163.581 111.123 154.437 103.535 145.814 94.9412L136.285 84.9568C132.426 80.66 128.678 75.9088 125.108 71.3779H125.121ZM115.304 82.5054C119.217 79.8337 122.732 83.5657 125.767 85.7004C137.493 95.1752 148.56 106 156.99 118.243C158.061 119.827 158.528 122.278 157.581 124.068C155.398 127.731 152.445 131.064 149.644 134.452V134.631C142.669 142.082 135.31 149.725 127.346 156.032C123.46 158.401 119.904 163.579 114.892 160.37C103.509 152.025 92.6071 141.641 83.3664 130.513C81.8012 128.062 79.357 126.065 78.2586 123.283C76.7346 119.524 80.0848 116.824 82.007 114.001C91.4263 102.35 103.125 90.9198 115.277 82.4915L115.304 82.5054ZM117.776 90.19L116.718 93.6053L111.391 108.892C112.723 109.03 114.37 108.892 115.689 109.03V109.154L114.906 126.451L115.043 126.63C116.746 126.795 118.874 126.878 120.604 126.588V126.313L119.904 109.539L120.014 108.974L124.696 108.892C122.362 102.708 120.096 96.456 117.913 90.19H117.776ZM99.6648 114.139C96.6852 115.64 92.2913 117.912 92.7719 122.016C93.4173 124.261 95.8339 125.707 97.7424 126.63C108.329 131.312 122.375 131.464 133.552 127.979C136.312 126.919 140.019 125.363 140.527 121.975C140.5 119.179 137.548 117.417 135.42 116.342V116.205C136.161 115.915 137.012 115.654 137.781 115.571V115.502C134.033 114.828 130.421 113.85 126.797 112.886C127.497 114.483 128.005 116.163 128.582 117.816C129.666 117.472 130.792 117.196 131.959 117.045C133.868 117.788 136.614 118.863 136.875 121.259C137.081 123.504 134.637 124.592 133.099 125.5C124.902 128.489 115.675 128.778 107.134 126.506C104.773 125.762 101.367 124.798 101.065 121.782C102.74 117.816 107.079 116.99 110.69 116.026C108.837 114.828 106.942 113.753 105.13 112.417C103.18 112.528 101.409 113.382 99.651 114.153L99.6648 114.139ZM114.796 131.381C114.48 137.523 114.398 143.211 113.945 149.367C116.361 149.587 119.107 149.794 121.689 149.422L120.92 132.262L120.783 131.45C118.819 131.532 116.952 131.601 114.796 131.395V131.381Z" fill="#231F20"/>
<path fill-rule="evenodd" clip-rule="evenodd" d="M137.41 166.499C135.268 166.499 133.36 167.986 133.36 170.534C133.36 173.082 135.268 174.583 137.41 174.583C139.552 174.583 141.447 173.096 141.447 170.534C141.447 167.973 139.539 166.499 137.41 166.499ZM137.41 173.647C135.818 173.647 134.527 172.407 134.527 170.534C134.527 168.661 135.818 167.435 137.41 167.435C139.003 167.435 140.294 168.675 140.294 170.534C140.294 172.393 138.962 173.647 137.41 173.647ZM139.209 169.666C139.209 168.675 138.55 168.358 137.424 168.358H135.804V172.71H136.738V170.878H137.177L138.179 172.71H139.292L138.166 170.796C138.756 170.754 139.209 170.465 139.209 169.666ZM137.561 170.135H136.738V169.088H137.397C137.754 169.088 138.234 169.129 138.234 169.57C138.234 170.052 137.987 170.135 137.575 170.135H137.561Z" fill="#231F20"/>
<path d="M522 38V207" stroke="#231F20" stroke-width="3" stroke-miterlimit="10"/>
<path d="M1043 38V207" stroke="#231F20" stroke-width="3" stroke-miterlimit="10"/>
<path d="M688.06 89.968L688.3 90.256L688.156 104.512V109.408C688.06 115.504 687.868 118.288 685.324 120.976C681.772 124.72 676.492 124.72 674.764 124.72C668.332 124.72 664.636 122.32 662.812 119.728C661.132 117.424 660.844 114.832 660.7 109.648V106.096C660.652 98.608 660.652 97.264 660.46 90.4L660.748 90.112C664.012 90.16 665.116 90.16 669.196 89.968L669.436 90.256C669.34 95.008 669.292 98.704 669.292 102.592C669.292 105.136 669.292 107.68 669.388 110.224C669.484 113.248 669.772 114.928 670.492 116.176C671.548 117.856 673.42 118.72 675.388 118.72C676.972 118.72 678.556 118.192 679.612 116.992C680.908 115.456 681.052 113.152 681.052 108.112C681.052 102.208 680.812 96.304 680.572 90.4L680.86 90.112C683.596 90.16 684.556 90.16 688.06 89.968ZM701.21 90.016L705.434 89.92C709.034 89.92 713.114 89.92 715.994 91.6C719.978 93.856 720.458 98.416 720.458 100.48C720.458 103.84 719.306 106.576 717.962 108.208C714.506 112.432 708.746 112.432 703.37 112.384C703.37 117.28 703.37 118.48 703.562 123.712L703.322 124C699.482 123.952 698.714 124 695.162 124.144L694.874 123.856C695.018 118 695.162 112.192 695.162 106.336C695.162 100.816 695.018 96.64 694.826 90.4L695.114 90.112L701.21 90.016ZM703.37 95.824V106.48C706.25 106.48 708.026 106.384 709.322 105.664C711.866 104.272 711.866 101.488 711.866 100.816C711.866 98.032 710.714 95.872 706.49 95.776C705.434 95.776 704.426 95.776 703.37 95.824ZM733.658 89.968L733.898 90.256C733.754 96.88 733.658 103.504 733.658 110.128C733.658 117.088 733.754 119.296 733.994 123.712L733.706 124C729.722 124 728.762 124 725.162 124.144L724.922 123.856C725.114 118.864 725.21 115.936 725.21 110.272C725.21 98.032 725.066 95.584 724.778 90.4L724.97 90.112C728.426 90.16 729.53 90.16 733.658 89.968ZM749.737 89.968L749.977 90.256C749.833 96.88 749.737 103.504 749.737 110.128C749.737 117.088 749.833 119.296 750.073 123.712L749.785 124C745.801 124 744.841 124 741.241 124.144L741.001 123.856C741.193 118.864 741.289 115.936 741.289 110.272C741.289 98.032 741.145 95.584 740.857 90.4L741.049 90.112C744.505 90.16 745.609 90.16 749.737 89.968ZM777.215 96.448L769.775 96.256C769.679 99.328 769.631 100.816 769.631 103.456C769.631 110.224 769.727 116.944 769.967 123.664L769.679 123.952C765.695 123.952 764.735 124 761.183 124.144L760.895 123.856C761.279 111.952 761.279 108.928 761.231 96.352L753.407 96.544L753.167 96.256L753.503 90.352L753.839 90.064H777.599L777.839 90.208L777.503 96.208L777.215 96.448ZM796.389 89.968L796.725 90.256C799.461 100.816 800.133 103.072 805.941 123.616L805.701 124C801.813 123.952 800.853 124 797.349 124.144L797.013 123.856L794.949 114.976H784.581L782.229 123.712L781.893 124H774.405L774.213 123.664C781.269 103.408 782.805 98.56 785.349 90.4L785.685 90.112C790.821 90.112 791.781 90.112 796.389 89.968ZM786.261 109.168H793.557L791.781 101.68L790.341 95.44L788.661 101.056L786.261 109.168ZM822.261 107.344L822.501 107.584L822.165 113.152L821.877 113.44C819.525 113.44 817.173 113.392 814.821 113.392C812.277 113.392 810.693 113.44 808.005 113.488L807.765 113.2L808.053 107.68L808.389 107.392C810.645 107.392 812.949 107.44 815.253 107.44C818.085 107.44 819.957 107.392 822.261 107.344ZM835.893 89.968L836.133 90.256C835.989 96.88 835.893 103.504 835.893 110.128C835.893 117.088 835.989 119.296 836.229 123.712L835.941 124C831.957 124 830.997 124 827.397 124.144L827.157 123.856C827.349 118.864 827.445 115.936 827.445 110.272C827.445 98.032 827.301 95.584 827.013 90.4L827.205 90.112C830.661 90.16 831.765 90.16 835.893 89.968ZM849.523 90.016L853.747 89.92C857.347 89.92 861.427 89.92 864.307 91.6C868.291 93.856 868.771 98.416 868.771 100.48C868.771 103.84 867.619 106.576 866.275 108.208C862.819 112.432 857.059 112.432 851.683 112.384C851.683 117.28 851.683 118.48 851.875 123.712L851.635 124C847.795 123.952 847.027 124 843.475 124.144L843.187 123.856C843.331 118 843.475 112.192 843.475 106.336C843.475 100.816 843.331 96.64 843.139 90.4L843.427 90.112L849.523 90.016ZM851.683 95.824V106.48C854.563 106.48 856.339 106.384 857.635 105.664C860.179 104.272 860.179 101.488 860.179 100.816C860.179 98.032 859.027 95.872 854.803 95.776C853.747 95.776 852.739 95.776 851.683 95.824ZM901.939 89.968L902.227 90.256C902.179 95.632 902.131 100.96 902.131 106.336C902.131 112.096 902.179 116.8 902.227 123.76L901.987 124C899.443 124 898.579 124 895.651 124.144L895.315 123.904L891.043 117.664L886.243 110.608C882.979 105.856 882.211 104.608 879.955 100.864L880.243 107.296L880.387 113.2L880.867 123.712L880.627 124C877.843 124 876.835 124 873.619 124.144L873.379 123.856C873.427 119.2 873.523 114.496 873.523 109.792C873.523 103.36 873.379 97.84 873.139 90.4L873.379 90.112C876.883 90.16 877.507 90.16 881.299 89.968L881.635 90.208C882.835 92.128 883.555 93.184 887.155 98.656L891.523 105.04C893.971 108.688 894.211 109.072 895.603 111.424L895.411 103.504L895.219 96.88L894.883 90.4L895.123 90.112C898.099 90.16 898.915 90.112 901.939 89.968Z" fill="#231F20"/>
<path d="M599.043 136.222L599.337 136.516C599.309 137.216 599.281 137.972 599.253 138.784C599.225 139.568 599.197 140.492 599.169 141.556C599.169 142.592 599.155 143.796 599.127 145.168C599.127 146.512 599.127 148.08 599.127 149.872C599.127 151.888 599.127 153.652 599.127 155.164C599.155 156.648 599.183 157.992 599.211 159.196C599.239 160.4 599.267 161.52 599.295 162.556C599.351 163.564 599.407 164.614 599.463 165.706L599.211 166C598.735 166 598.329 166 597.993 166C597.685 166.028 597.363 166.042 597.027 166.042C596.691 166.042 596.327 166.042 595.935 166.042C595.571 166.07 595.109 166.098 594.549 166.126L594.297 165.832C594.325 165.188 594.339 164.558 594.339 163.942C594.367 163.298 594.381 162.584 594.381 161.8C594.409 161.016 594.423 160.134 594.423 159.154C594.451 158.146 594.465 156.97 594.465 155.626C594.465 152.434 594.451 149.27 594.423 146.134C594.395 142.998 594.311 139.848 594.171 136.684L594.381 136.348C594.829 136.348 595.221 136.348 595.557 136.348C595.921 136.348 596.271 136.348 596.607 136.348C596.943 136.32 597.293 136.306 597.657 136.306C598.049 136.278 598.511 136.25 599.043 136.222ZM624.452 162.262L624.704 162.556C624.676 162.92 624.648 163.228 624.62 163.48C624.62 163.704 624.606 163.928 624.578 164.152C624.578 164.348 624.564 164.572 624.536 164.824C624.536 165.048 624.522 165.342 624.494 165.706L624.2 166C622.828 166 621.624 166 620.588 166C619.58 166 618.642 166 617.774 166C616.934 166.028 616.136 166.042 615.38 166.042C614.624 166.042 613.826 166.042 612.986 166.042C612.146 166.07 611.222 166.084 610.214 166.084C609.206 166.112 608.044 166.126 606.728 166.126L606.518 165.832C606.546 164.992 606.574 164.194 606.602 163.438C606.63 162.682 606.658 161.814 606.686 160.834C606.714 159.854 606.728 158.72 606.728 157.432C606.756 156.116 606.77 154.492 606.77 152.56C606.77 150.796 606.77 149.2 606.77 147.772C606.77 146.344 606.756 145.014 606.728 143.782C606.7 142.522 606.672 141.318 606.644 140.17C606.616 139.022 606.56 137.846 606.476 136.642L606.728 136.348C608.8 136.348 610.522 136.348 611.894 136.348C613.266 136.32 614.554 136.306 615.758 136.306C616.962 136.306 618.208 136.306 619.496 136.306C620.812 136.278 622.436 136.25 624.368 136.222L624.62 136.516C624.592 136.824 624.564 137.104 624.536 137.356C624.508 137.58 624.48 137.818 624.452 138.07C624.424 138.294 624.396 138.546 624.368 138.826C624.368 139.106 624.354 139.428 624.326 139.792L624.074 140.086C622.73 140.058 621.568 140.03 620.588 140.002C619.608 139.974 618.67 139.96 617.774 139.96C616.878 139.932 615.94 139.918 614.96 139.918C614.008 139.89 612.86 139.876 611.516 139.876C611.488 140.856 611.46 141.696 611.432 142.396C611.432 143.068 611.418 143.726 611.39 144.37C611.39 144.986 611.39 145.644 611.39 146.344C611.39 147.044 611.39 147.87 611.39 148.822C612.678 148.822 613.784 148.822 614.708 148.822C615.632 148.822 616.514 148.822 617.354 148.822C618.194 148.822 619.062 148.822 619.958 148.822C620.882 148.794 621.988 148.766 623.276 148.738L623.486 149.032C623.43 149.396 623.388 149.704 623.36 149.956C623.36 150.208 623.346 150.46 623.318 150.712C623.318 150.936 623.304 151.174 623.276 151.426C623.276 151.65 623.276 151.93 623.276 152.266L623.024 152.56C621.792 152.532 620.756 152.518 619.916 152.518C619.104 152.49 618.306 152.476 617.522 152.476C616.738 152.448 615.87 152.434 614.918 152.434C613.994 152.434 612.818 152.434 611.39 152.434C611.362 153.666 611.348 154.688 611.348 155.5C611.348 156.312 611.348 157.068 611.348 157.768C611.348 158.468 611.348 159.182 611.348 159.91C611.376 160.61 611.39 161.464 611.39 162.472C612.986 162.472 614.302 162.472 615.338 162.472C616.402 162.472 617.382 162.472 618.278 162.472C619.174 162.444 620.084 162.416 621.008 162.388C621.96 162.36 623.108 162.318 624.452 162.262ZM647.216 162.262L647.468 162.556C647.44 162.92 647.412 163.228 647.384 163.48C647.384 163.704 647.37 163.928 647.342 164.152C647.342 164.348 647.328 164.572 647.3 164.824C647.3 165.048 647.286 165.342 647.258 165.706L646.964 166C645.592 166 644.388 166 643.352 166C642.344 166 641.406 166 640.538 166C639.698 166.028 638.9 166.042 638.144 166.042C637.388 166.042 636.59 166.042 635.75 166.042C634.91 166.07 633.986 166.084 632.978 166.084C631.97 166.112 630.808 166.126 629.492 166.126L629.282 165.832C629.31 164.992 629.338 164.194 629.366 163.438C629.394 162.682 629.422 161.814 629.45 160.834C629.478 159.854 629.492 158.72 629.492 157.432C629.52 156.116 629.534 154.492 629.534 152.56C629.534 150.796 629.534 149.2 629.534 147.772C629.534 146.344 629.52 145.014 629.492 143.782C629.464 142.522 629.436 141.318 629.408 140.17C629.38 139.022 629.324 137.846 629.24 136.642L629.492 136.348C631.564 136.348 633.286 136.348 634.658 136.348C636.03 136.32 637.318 136.306 638.522 136.306C639.726 136.306 640.972 136.306 642.26 136.306C643.576 136.278 645.2 136.25 647.132 136.222L647.384 136.516C647.356 136.824 647.328 137.104 647.3 137.356C647.272 137.58 647.244 137.818 647.216 138.07C647.188 138.294 647.16 138.546 647.132 138.826C647.132 139.106 647.118 139.428 647.09 139.792L646.838 140.086C645.494 140.058 644.332 140.03 643.352 140.002C642.372 139.974 641.434 139.96 640.538 139.96C639.642 139.932 638.704 139.918 637.724 139.918C636.772 139.89 635.624 139.876 634.28 139.876C634.252 140.856 634.224 141.696 634.196 142.396C634.196 143.068 634.182 143.726 634.154 144.37C634.154 144.986 634.154 145.644 634.154 146.344C634.154 147.044 634.154 147.87 634.154 148.822C635.442 148.822 636.548 148.822 637.472 148.822C638.396 148.822 639.278 148.822 640.118 148.822C640.958 148.822 641.826 148.822 642.722 148.822C643.646 148.794 644.752 148.766 646.04 148.738L646.25 149.032C646.194 149.396 646.152 149.704 646.124 149.956C646.124 150.208 646.11 150.46 646.082 150.712C646.082 150.936 646.068 151.174 646.04 151.426C646.04 151.65 646.04 151.93 646.04 152.266L645.788 152.56C644.556 152.532 643.52 152.518 642.68 152.518C641.868 152.49 641.07 152.476 640.286 152.476C639.502 152.448 638.634 152.434 637.682 152.434C636.758 152.434 635.582 152.434 634.154 152.434C634.126 153.666 634.112 154.688 634.112 155.5C634.112 156.312 634.112 157.068 634.112 157.768C634.112 158.468 634.112 159.182 634.112 159.91C634.14 160.61 634.154 161.464 634.154 162.472C635.75 162.472 637.066 162.472 638.102 162.472C639.166 162.472 640.146 162.472 641.042 162.472C641.938 162.444 642.848 162.416 643.772 162.388C644.724 162.36 645.872 162.318 647.216 162.262ZM669.98 162.262L670.232 162.556C670.204 162.92 670.176 163.228 670.147 163.48C670.147 163.704 670.133 163.928 670.106 164.152C670.106 164.348 670.092 164.572 670.064 164.824C670.064 165.048 670.05 165.342 670.022 165.706L669.728 166C668.356 166 667.152 166 666.116 166C665.108 166 664.17 166 663.302 166C662.462 166.028 661.664 166.042 660.908 166.042C660.152 166.042 659.354 166.042 658.514 166.042C657.674 166.07 656.75 166.084 655.742 166.084C654.734 166.112 653.572 166.126 652.256 166.126L652.046 165.832C652.074 164.992 652.102 164.194 652.13 163.438C652.158 162.682 652.186 161.814 652.214 160.834C652.242 159.854 652.256 158.72 652.256 157.432C652.284 156.116 652.298 154.492 652.298 152.56C652.298 150.796 652.298 149.2 652.298 147.772C652.298 146.344 652.284 145.014 652.256 143.782C652.228 142.522 652.2 141.318 652.172 140.17C652.144 139.022 652.088 137.846 652.004 136.642L652.256 136.348C654.328 136.348 656.05 136.348 657.422 136.348C658.794 136.32 660.082 136.306 661.285 136.306C662.49 136.306 663.736 136.306 665.024 136.306C666.34 136.278 667.964 136.25 669.896 136.222L670.147 136.516C670.12 136.824 670.092 137.104 670.064 137.356C670.036 137.58 670.008 137.818 669.98 138.07C669.952 138.294 669.924 138.546 669.896 138.826C669.896 139.106 669.882 139.428 669.854 139.792L669.602 140.086C668.258 140.058 667.096 140.03 666.116 140.002C665.136 139.974 664.198 139.96 663.302 139.96C662.406 139.932 661.468 139.918 660.488 139.918C659.536 139.89 658.388 139.876 657.044 139.876C657.016 140.856 656.988 141.696 656.96 142.396C656.96 143.068 656.946 143.726 656.918 144.37C656.918 144.986 656.918 145.644 656.918 146.344C656.918 147.044 656.918 147.87 656.918 148.822C658.206 148.822 659.312 148.822 660.236 148.822C661.16 148.822 662.042 148.822 662.882 148.822C663.722 148.822 664.59 148.822 665.486 148.822C666.41 148.794 667.516 148.766 668.804 148.738L669.014 149.032C668.958 149.396 668.916 149.704 668.888 149.956C668.888 150.208 668.874 150.46 668.846 150.712C668.846 150.936 668.832 151.174 668.804 151.426C668.804 151.65 668.804 151.93 668.804 152.266L668.552 152.56C667.32 152.532 666.284 152.518 665.444 152.518C664.632 152.49 663.834 152.476 663.05 152.476C662.266 152.448 661.398 152.434 660.446 152.434C659.522 152.434 658.346 152.434 656.918 152.434C656.89 153.666 656.876 154.688 656.876 155.5C656.876 156.312 656.876 157.068 656.876 157.768C656.876 158.468 656.876 159.182 656.876 159.91C656.904 160.61 656.918 161.464 656.918 162.472C658.514 162.472 659.83 162.472 660.866 162.472C661.93 162.472 662.91 162.472 663.806 162.472C664.702 162.444 665.612 162.416 666.536 162.388C667.488 162.36 668.636 162.318 669.98 162.262ZM695.809 148.276L697.909 149.2C698.665 149.536 699.463 149.914 700.303 150.334C701.143 150.754 701.913 151.286 702.613 151.93C703.313 152.574 703.887 153.358 704.335 154.282C704.811 155.206 705.049 156.34 705.049 157.684C705.049 158.86 704.825 159.994 704.377 161.086C703.957 162.15 703.299 163.102 702.403 163.942C701.507 164.754 700.373 165.412 699.001 165.916C697.657 166.392 696.075 166.63 694.255 166.63C693.135 166.63 692.113 166.56 691.189 166.42C690.293 166.28 689.495 166.112 688.795 165.916C688.095 165.692 687.507 165.482 687.031 165.286C686.555 165.09 686.191 164.922 685.939 164.782L685.771 164.488C685.799 164.124 685.827 163.802 685.855 163.522C685.911 163.214 685.939 162.92 685.939 162.64C685.967 162.332 685.995 162.024 686.023 161.716C686.051 161.38 686.079 161.016 686.107 160.624L686.527 160.456C686.779 160.624 687.129 160.848 687.577 161.128C688.025 161.408 688.543 161.688 689.131 161.968C689.747 162.22 690.447 162.444 691.231 162.64C692.043 162.836 692.939 162.934 693.919 162.934C695.011 162.934 695.935 162.808 696.691 162.556C697.475 162.304 698.105 161.954 698.581 161.506C699.085 161.058 699.449 160.554 699.673 159.994C699.925 159.434 700.051 158.832 700.051 158.188C700.051 157.46 699.911 156.83 699.631 156.298C699.351 155.766 698.973 155.304 698.497 154.912C698.021 154.52 697.461 154.184 696.817 153.904C696.201 153.596 695.557 153.316 694.885 153.064L692.785 152.14C692.029 151.804 691.245 151.426 690.433 151.006C689.621 150.558 688.865 150.026 688.165 149.41C687.493 148.766 686.933 147.996 686.485 147.1C686.037 146.204 685.813 145.112 685.813 143.824C685.813 143.04 685.911 142.27 686.107 141.514C686.331 140.758 686.667 140.058 687.115 139.414C688.095 138.014 689.383 137.048 690.979 136.516C692.575 135.984 694.227 135.718 695.935 135.718C697.587 135.718 698.973 135.858 700.093 136.138C701.241 136.39 702.375 136.698 703.495 137.062L703.705 137.398C703.649 137.79 703.607 138.14 703.579 138.448C703.551 138.728 703.523 139.008 703.495 139.288C703.495 139.54 703.481 139.82 703.453 140.128C703.425 140.408 703.397 140.73 703.369 141.094L703.033 141.262C702.137 140.814 701.143 140.38 700.051 139.96C698.987 139.54 697.671 139.33 696.103 139.33C694.339 139.33 692.953 139.708 691.945 140.464C690.937 141.192 690.433 142.186 690.433 143.446C690.433 143.922 690.503 144.342 690.643 144.706C690.783 145.042 690.951 145.35 691.147 145.63C691.371 145.882 691.609 146.106 691.861 146.302C692.113 146.47 692.351 146.624 692.575 146.764C692.715 146.848 692.841 146.932 692.953 147.016C693.065 147.072 693.219 147.156 693.415 147.268C693.639 147.352 693.933 147.478 694.297 147.646C694.661 147.786 695.165 147.996 695.809 148.276ZM718.993 162.43L719.287 162.682C719.259 163.018 719.231 163.312 719.203 163.564C719.203 163.788 719.189 163.998 719.161 164.194C719.161 164.39 719.147 164.6 719.119 164.824C719.119 165.02 719.119 165.272 719.119 165.58L718.909 165.832C718.461 165.944 718.013 166.028 717.565 166.084C717.145 166.168 716.543 166.21 715.759 166.21C715.507 166.21 715.171 166.196 714.751 166.168C714.331 166.14 713.883 166.07 713.407 165.958C712.931 165.818 712.455 165.608 711.979 165.328C711.531 165.02 711.139 164.586 710.803 164.026C710.607 163.718 710.453 163.41 710.341 163.102C710.257 162.766 710.187 162.346 710.131 161.842C710.103 161.338 710.075 160.694 710.047 159.91C710.047 159.098 710.047 158.076 710.047 156.844L710.131 147.604C709.767 147.604 709.473 147.604 709.249 147.604C709.025 147.604 708.815 147.618 708.619 147.646C708.451 147.646 708.241 147.66 707.989 147.688C707.765 147.688 707.471 147.688 707.107 147.688L706.939 147.436C706.967 147.1 706.981 146.82 706.981 146.596C707.009 146.372 707.023 146.162 707.023 145.966C707.023 145.742 707.023 145.518 707.023 145.294C707.023 145.042 707.023 144.748 707.023 144.412L707.275 144.16C707.751 144.16 708.171 144.174 708.535 144.202C708.899 144.202 709.431 144.188 710.131 144.16C710.103 143.712 710.089 143.264 710.089 142.816C710.089 142.368 710.089 141.92 710.089 141.472L709.963 139.078L710.173 138.784C710.649 138.672 711.041 138.574 711.349 138.49C711.685 138.406 711.993 138.322 712.273 138.238C712.581 138.154 712.903 138.07 713.239 137.986C713.575 137.874 713.981 137.748 714.457 137.608L714.751 137.818C714.723 138.518 714.695 139.106 714.667 139.582C714.639 140.03 714.611 140.478 714.583 140.926C714.583 141.346 714.583 141.808 714.583 142.312C714.583 142.816 714.583 143.446 714.583 144.202C715.031 144.202 715.409 144.202 715.717 144.202C716.025 144.174 716.333 144.16 716.641 144.16C716.977 144.16 717.341 144.16 717.733 144.16C718.153 144.132 718.657 144.104 719.245 144.076L719.455 144.328C719.427 144.608 719.399 144.86 719.371 145.084C719.371 145.28 719.357 145.49 719.329 145.714C719.329 145.91 719.329 146.134 719.329 146.386C719.329 146.638 719.329 146.946 719.329 147.31L719.119 147.562C718.587 147.562 718.153 147.562 717.817 147.562C717.481 147.534 717.159 147.52 716.851 147.52C716.571 147.492 716.249 147.478 715.885 147.478C715.549 147.478 715.101 147.478 714.541 147.478L714.457 155.29C714.457 155.43 714.457 155.668 714.457 156.004C714.485 156.312 714.499 156.648 714.499 157.012C714.499 157.376 714.499 157.726 714.499 158.062C714.499 158.398 714.499 158.636 714.499 158.776C714.499 159.532 714.527 160.176 714.583 160.708C714.639 161.212 714.751 161.632 714.919 161.968C715.115 162.276 715.367 162.5 715.675 162.64C716.011 162.752 716.445 162.808 716.977 162.808C717.425 162.808 717.817 162.766 718.153 162.682C718.489 162.598 718.769 162.514 718.993 162.43ZM741.147 143.992L741.399 144.286C741.343 145.882 741.301 147.45 741.273 148.99C741.273 150.53 741.273 152.154 741.273 153.862C741.273 156.466 741.287 158.58 741.315 160.204C741.371 161.8 741.427 163.046 741.483 163.942C741.483 164.25 741.483 164.544 741.483 164.824C741.511 165.104 741.539 165.398 741.567 165.706L741.399 165.958C740.895 165.958 740.475 165.972 740.139 166C739.831 166 739.523 166 739.215 166C738.935 166.028 738.627 166.042 738.291 166.042C737.983 166.07 737.591 166.098 737.115 166.126L736.863 165.874L736.905 164.11C736.681 164.278 736.373 164.502 735.981 164.782C735.589 165.034 735.113 165.3 734.553 165.58C733.993 165.832 733.363 166.042 732.663 166.21C731.963 166.406 731.179 166.504 730.311 166.504C729.499 166.504 728.659 166.392 727.791 166.168C726.951 165.972 726.195 165.608 725.523 165.076C724.851 164.544 724.333 163.928 723.969 163.228C723.605 162.5 723.339 161.744 723.171 160.96C723.003 160.176 722.891 159.364 722.835 158.524C722.807 157.684 722.793 156.858 722.793 156.046V153.442C722.765 151.93 722.737 150.726 722.709 149.83C722.709 148.934 722.695 148.192 722.667 147.604C722.667 146.988 722.653 146.456 722.625 146.008C722.625 145.56 722.611 145.056 722.583 144.496L722.793 144.202C723.297 144.202 723.703 144.202 724.011 144.202C724.347 144.174 724.655 144.16 724.935 144.16C725.243 144.132 725.551 144.118 725.859 144.118C726.195 144.09 726.615 144.048 727.119 143.992L727.371 144.286L727.203 153.484C727.203 154.044 727.189 154.604 727.161 155.164C727.161 155.696 727.175 156.466 727.203 157.474C727.203 157.922 727.231 158.468 727.287 159.112C727.371 159.728 727.539 160.33 727.791 160.918C728.071 161.506 728.505 162.01 729.093 162.43C729.681 162.822 730.507 163.018 731.571 163.018C732.187 163.018 732.761 162.948 733.293 162.808C733.825 162.64 734.301 162.444 734.721 162.22C735.169 161.996 735.561 161.758 735.897 161.506C736.261 161.254 736.569 161.03 736.821 160.834C736.849 159.686 736.863 158.608 736.863 157.6C736.863 156.564 736.863 155.43 736.863 154.198C736.863 152.742 736.849 151.552 736.821 150.628C736.821 149.676 736.807 148.864 736.779 148.192C736.779 147.492 736.751 146.862 736.695 146.302C736.667 145.742 736.625 145.126 736.569 144.454L736.821 144.16C737.297 144.16 737.703 144.16 738.039 144.16C738.375 144.132 738.683 144.118 738.963 144.118C739.271 144.09 739.593 144.076 739.929 144.076C740.265 144.048 740.671 144.02 741.147 143.992ZM761.181 133.618L761.391 133.366C761.923 133.282 762.357 133.212 762.693 133.156C763.057 133.072 763.393 133.002 763.701 132.946C764.009 132.89 764.317 132.834 764.625 132.778C764.961 132.694 765.367 132.596 765.843 132.484L766.137 132.736C766.053 134.192 765.983 135.886 765.927 137.818C765.899 139.722 765.871 141.64 765.843 143.572C765.843 145.504 765.829 147.338 765.801 149.074C765.801 150.782 765.801 152.154 765.801 153.19C765.801 154.814 765.801 156.242 765.801 157.474C765.829 158.706 765.857 159.812 765.885 160.792C765.941 161.772 765.983 162.654 766.011 163.438C766.039 164.222 766.081 164.978 766.137 165.706L765.927 166C765.451 166 765.045 166 764.709 166C764.401 166 764.093 166 763.785 166C763.505 166.028 763.197 166.042 762.861 166.042C762.525 166.07 762.119 166.098 761.643 166.126L761.349 165.874L761.433 164.32C761.181 164.516 760.873 164.74 760.509 164.992C760.173 165.216 759.767 165.44 759.291 165.664C758.843 165.86 758.311 166.028 757.695 166.168C757.079 166.336 756.393 166.42 755.637 166.42C754.237 166.42 752.949 166.154 751.773 165.622C750.625 165.09 749.631 164.362 748.791 163.438C747.979 162.486 747.335 161.352 746.859 160.036C746.411 158.692 746.187 157.222 746.187 155.626C746.187 154.478 746.299 153.442 746.523 152.518C746.747 151.566 747.027 150.726 747.363 149.998C747.727 149.242 748.119 148.584 748.539 148.024C748.987 147.464 749.435 146.988 749.883 146.596C750.639 145.896 751.437 145.364 752.277 145C753.145 144.608 753.985 144.314 754.797 144.118C755.637 143.922 756.421 143.81 757.149 143.782C757.905 143.726 758.563 143.698 759.123 143.698C759.571 143.698 759.949 143.698 760.257 143.698C760.565 143.698 760.999 143.726 761.559 143.782C761.559 142.494 761.545 141.36 761.517 140.38C761.517 139.372 761.489 138.476 761.433 137.692C761.405 136.88 761.363 136.152 761.307 135.508C761.279 134.864 761.237 134.234 761.181 133.618ZM761.391 160.834C761.419 159.462 761.433 158.3 761.433 157.348C761.461 156.396 761.475 155.458 761.475 154.534C761.475 153.61 761.461 152.588 761.433 151.468C761.433 150.348 761.433 148.92 761.433 147.184C761.069 147.156 760.733 147.128 760.425 147.1C760.145 147.072 759.781 147.058 759.333 147.058C758.997 147.058 758.591 147.072 758.115 147.1C757.639 147.128 757.121 147.212 756.561 147.352C756.001 147.464 755.427 147.66 754.839 147.94C754.279 148.192 753.747 148.556 753.243 149.032C753.019 149.256 752.767 149.55 752.487 149.914C752.207 150.278 751.941 150.726 751.689 151.258C751.437 151.79 751.227 152.42 751.059 153.148C750.891 153.876 750.807 154.702 750.807 155.626C750.807 156.83 750.947 157.866 751.227 158.734C751.535 159.574 751.913 160.26 752.361 160.792C752.753 161.24 753.299 161.674 753.999 162.094C754.699 162.486 755.595 162.682 756.687 162.682C757.331 162.682 757.905 162.612 758.409 162.472C758.941 162.332 759.403 162.164 759.795 161.968C760.187 161.744 760.509 161.534 760.761 161.338C761.041 161.142 761.251 160.974 761.391 160.834ZM788.901 160.666L789.237 160.876C789.181 161.296 789.139 161.66 789.111 161.968C789.083 162.248 789.055 162.514 789.027 162.766C788.999 163.018 788.971 163.284 788.943 163.564C788.943 163.844 788.929 164.194 788.901 164.614L788.649 164.908C788.481 164.992 788.201 165.132 787.809 165.328C787.445 165.496 786.983 165.678 786.423 165.874C785.863 166.042 785.205 166.182 784.449 166.294C783.693 166.434 782.853 166.504 781.929 166.504C780.193 166.504 778.639 166.266 777.267 165.79C775.895 165.286 774.719 164.558 773.739 163.606C772.759 162.654 772.003 161.478 771.471 160.078C770.967 158.678 770.715 157.068 770.715 155.248C770.715 153.288 770.981 151.58 771.513 150.124C772.073 148.668 772.815 147.464 773.739 146.512C774.691 145.532 775.783 144.804 777.015 144.328C778.247 143.852 779.549 143.614 780.921 143.614C782.601 143.614 784.001 143.908 785.121 144.496C786.269 145.084 787.165 145.756 787.809 146.512C788.397 147.24 788.845 148.024 789.153 148.864C789.489 149.676 789.727 150.502 789.867 151.342C790.007 152.154 790.077 152.924 790.077 153.652C790.077 154.352 790.077 154.926 790.077 155.374L789.783 155.626C788.691 155.626 787.725 155.626 786.885 155.626C786.073 155.598 785.317 155.584 784.617 155.584C783.917 155.584 783.245 155.584 782.601 155.584C781.985 155.584 781.313 155.584 780.585 155.584C779.885 155.584 779.101 155.598 778.233 155.626C777.365 155.626 776.357 155.626 775.209 155.626C775.237 156.354 775.321 157.194 775.461 158.146C775.629 159.098 776.077 160.008 776.805 160.876C777.225 161.38 777.687 161.786 778.191 162.094C778.695 162.402 779.185 162.64 779.661 162.808C780.165 162.948 780.627 163.046 781.047 163.102C781.495 163.13 781.887 163.144 782.223 163.144C783.483 163.144 784.701 162.934 785.877 162.514C786.661 162.206 787.291 161.884 787.767 161.548C788.243 161.184 788.621 160.89 788.901 160.666ZM785.751 152.392C785.723 152.084 785.681 151.72 785.625 151.3C785.597 150.852 785.499 150.39 785.331 149.914C784.911 148.738 784.281 147.898 783.441 147.394C782.601 146.89 781.705 146.638 780.753 146.638C780.165 146.638 779.563 146.75 778.947 146.974C778.331 147.17 777.757 147.506 777.225 147.982C776.721 148.43 776.287 149.032 775.923 149.788C775.559 150.516 775.321 151.398 775.209 152.434C776.469 152.434 777.547 152.434 778.443 152.434C779.339 152.434 780.165 152.434 780.921 152.434C781.677 152.434 782.419 152.434 783.147 152.434C783.903 152.406 784.771 152.392 785.751 152.392ZM813.429 165.706L813.177 165.958C812.673 165.958 812.253 165.972 811.917 166C811.609 166 811.315 166 811.035 166C810.755 166.028 810.461 166.042 810.153 166.042C809.845 166.07 809.453 166.098 808.977 166.126L808.683 165.832C808.683 165.608 808.683 165.384 808.683 165.16C808.711 164.908 808.725 164.67 808.725 164.446C808.753 163.41 808.767 162.388 808.767 161.38C808.767 160.344 808.767 159.308 808.767 158.272C808.767 156.648 808.767 155.374 808.767 154.45C808.767 153.526 808.753 152.812 808.725 152.308C808.697 151.776 808.669 151.398 808.641 151.174C808.613 150.95 808.571 150.726 808.515 150.502C808.319 149.718 808.039 149.116 807.675 148.696C807.311 148.248 806.933 147.926 806.541 147.73C806.149 147.506 805.785 147.38 805.449 147.352C805.113 147.324 804.875 147.31 804.735 147.31C804.091 147.31 803.489 147.394 802.929 147.562C802.397 147.73 801.893 147.94 801.417 148.192C800.941 148.416 800.507 148.668 800.115 148.948C799.751 149.2 799.429 149.438 799.149 149.662C799.149 151.482 799.149 153.12 799.149 154.576C799.149 156.004 799.163 157.348 799.191 158.608C799.219 159.84 799.247 161.03 799.275 162.178C799.331 163.298 799.401 164.474 799.485 165.706L799.233 165.958C798.729 165.958 798.309 165.972 797.973 166C797.637 166 797.315 166 797.007 166C796.727 166.028 796.419 166.042 796.083 166.042C795.747 166.07 795.327 166.098 794.823 166.126L794.613 165.832C794.641 164.656 794.669 163.466 794.697 162.262C794.725 161.058 794.739 159.672 794.739 158.104C794.739 156.424 794.725 154.926 794.697 153.61C794.669 152.294 794.627 151.118 794.571 150.082C794.515 149.046 794.459 148.122 794.403 147.31C794.347 146.47 794.291 145.7 794.235 145L794.487 144.706C795.019 144.622 795.453 144.552 795.789 144.496C796.125 144.412 796.447 144.342 796.755 144.286C797.063 144.23 797.371 144.174 797.679 144.118C798.015 144.034 798.435 143.95 798.939 143.866L799.233 144.16L799.191 146.344C799.471 146.148 799.835 145.91 800.283 145.63C800.731 145.322 801.263 145.028 801.879 144.748C802.523 144.468 803.237 144.23 804.021 144.034C804.805 143.838 805.659 143.74 806.583 143.74C807.115 143.74 807.689 143.796 808.305 143.908C808.921 144.02 809.509 144.23 810.069 144.538C811.217 145.21 812.029 146.12 812.505 147.268C812.785 147.912 812.953 148.598 813.009 149.326C813.065 150.054 813.107 151.076 813.135 152.392V157.306C813.163 158.538 813.191 159.602 813.219 160.498C813.247 161.366 813.261 162.122 813.261 162.766C813.289 163.41 813.317 163.97 813.345 164.446C813.373 164.894 813.401 165.314 813.429 165.706ZM828.381 162.43L828.675 162.682C828.647 163.018 828.619 163.312 828.591 163.564C828.591 163.788 828.577 163.998 828.549 164.194C828.549 164.39 828.535 164.6 828.507 164.824C828.507 165.02 828.507 165.272 828.507 165.58L828.297 165.832C827.849 165.944 827.401 166.028 826.953 166.084C826.533 166.168 825.931 166.21 825.147 166.21C824.895 166.21 824.559 166.196 824.139 166.168C823.719 166.14 823.271 166.07 822.795 165.958C822.319 165.818 821.843 165.608 821.367 165.328C820.919 165.02 820.527 164.586 820.191 164.026C819.995 163.718 819.841 163.41 819.729 163.102C819.645 162.766 819.575 162.346 819.519 161.842C819.491 161.338 819.463 160.694 819.435 159.91C819.435 159.098 819.435 158.076 819.435 156.844L819.519 147.604C819.155 147.604 818.861 147.604 818.637 147.604C818.413 147.604 818.203 147.618 818.007 147.646C817.839 147.646 817.629 147.66 817.377 147.688C817.153 147.688 816.859 147.688 816.495 147.688L816.327 147.436C816.355 147.1 816.369 146.82 816.369 146.596C816.397 146.372 816.411 146.162 816.411 145.966C816.411 145.742 816.411 145.518 816.411 145.294C816.411 145.042 816.411 144.748 816.411 144.412L816.663 144.16C817.139 144.16 817.559 144.174 817.923 144.202C818.287 144.202 818.819 144.188 819.519 144.16C819.491 143.712 819.477 143.264 819.477 142.816C819.477 142.368 819.477 141.92 819.477 141.472L819.351 139.078L819.561 138.784C820.037 138.672 820.429 138.574 820.737 138.49C821.073 138.406 821.381 138.322 821.661 138.238C821.969 138.154 822.291 138.07 822.627 137.986C822.963 137.874 823.369 137.748 823.845 137.608L824.139 137.818C824.111 138.518 824.083 139.106 824.055 139.582C824.027 140.03 823.999 140.478 823.971 140.926C823.971 141.346 823.971 141.808 823.971 142.312C823.971 142.816 823.971 143.446 823.971 144.202C824.419 144.202 824.797 144.202 825.105 144.202C825.413 144.174 825.721 144.16 826.029 144.16C826.365 144.16 826.729 144.16 827.121 144.16C827.541 144.132 828.045 144.104 828.633 144.076L828.843 144.328C828.815 144.608 828.787 144.86 828.759 145.084C828.759 145.28 828.745 145.49 828.717 145.714C828.717 145.91 828.717 146.134 828.717 146.386C828.717 146.638 828.717 146.946 828.717 147.31L828.507 147.562C827.975 147.562 827.541 147.562 827.205 147.562C826.869 147.534 826.547 147.52 826.239 147.52C825.959 147.492 825.637 147.478 825.273 147.478C824.937 147.478 824.489 147.478 823.929 147.478L823.845 155.29C823.845 155.43 823.845 155.668 823.845 156.004C823.873 156.312 823.887 156.648 823.887 157.012C823.887 157.376 823.887 157.726 823.887 158.062C823.887 158.398 823.887 158.636 823.887 158.776C823.887 159.532 823.915 160.176 823.971 160.708C824.027 161.212 824.139 161.632 824.307 161.968C824.503 162.276 824.755 162.5 825.063 162.64C825.399 162.752 825.833 162.808 826.365 162.808C826.813 162.808 827.205 162.766 827.541 162.682C827.877 162.598 828.157 162.514 828.381 162.43ZM852.383 166.084L844.991 166.126L844.781 165.832C844.809 165.328 844.823 164.824 844.823 164.32C844.851 163.788 844.865 163.228 844.865 162.64C844.893 162.024 844.907 161.352 844.907 160.624C844.907 159.868 844.907 159.014 844.907 158.062C844.907 157.754 844.907 157.278 844.907 156.634C844.907 155.99 844.907 155.262 844.907 154.45C844.907 153.638 844.907 152.77 844.907 151.846C844.935 150.922 844.949 150.054 844.949 149.242C844.949 148.402 844.949 147.66 844.949 147.016C844.949 146.344 844.949 145.84 844.949 145.504C844.949 144.412 844.935 143.432 844.907 142.564C844.907 141.696 844.893 140.926 844.865 140.254C844.837 139.554 844.795 138.924 844.739 138.364C844.711 137.776 844.683 137.202 844.655 136.642L844.865 136.348L850.493 136.264C850.913 136.236 851.417 136.222 852.005 136.222C852.621 136.222 853.209 136.222 853.769 136.222C855.029 136.222 856.275 136.292 857.507 136.432C858.767 136.544 859.929 136.908 860.993 137.524C861.385 137.748 861.777 138.028 862.169 138.364C862.561 138.7 862.911 139.106 863.219 139.582C863.555 140.03 863.821 140.562 864.017 141.178C864.213 141.794 864.311 142.494 864.311 143.278C864.311 143.642 864.255 144.16 864.143 144.832C864.059 145.476 863.807 146.148 863.387 146.848C862.967 147.548 862.337 148.22 861.497 148.864C860.657 149.508 859.509 150.012 858.053 150.376C858.529 150.404 859.103 150.46 859.775 150.544C860.447 150.6 861.161 150.796 861.917 151.132C862.813 151.524 863.527 152.014 864.059 152.602C864.591 153.162 864.983 153.736 865.235 154.324C865.515 154.912 865.697 155.486 865.781 156.046C865.865 156.606 865.907 157.082 865.907 157.474C865.907 159.406 865.361 161.044 864.269 162.388C863.205 163.704 861.833 164.67 860.153 165.286C859.033 165.678 857.871 165.916 856.667 166C855.463 166.056 854.035 166.084 852.383 166.084ZM850.535 152.518L849.527 152.56C849.527 153.764 849.527 154.758 849.527 155.542C849.527 156.298 849.527 157.012 849.527 157.684C849.555 158.356 849.569 159.07 849.569 159.826C849.597 160.554 849.639 161.492 849.695 162.64H850.493C852.089 162.64 853.503 162.626 854.735 162.598C855.995 162.542 857.031 162.346 857.843 162.01C858.851 161.618 859.621 161.016 860.153 160.204C860.713 159.392 860.993 158.454 860.993 157.39C860.993 156.158 860.699 155.206 860.111 154.534C859.523 153.862 858.823 153.372 858.011 153.064C857.227 152.756 856.415 152.574 855.575 152.518C854.735 152.462 854.063 152.434 853.559 152.434C853.475 152.434 853.363 152.434 853.223 152.434C853.111 152.434 852.943 152.434 852.719 152.434C852.523 152.434 852.243 152.448 851.879 152.476C851.543 152.476 851.095 152.49 850.535 152.518ZM849.527 139.708V149.032C851.431 149.06 853.083 149.018 854.483 148.906C855.911 148.766 857.073 148.346 857.969 147.646C858.501 147.198 858.921 146.652 859.229 146.008C859.537 145.364 859.691 144.692 859.691 143.992C859.691 143.432 859.579 142.9 859.355 142.396C859.159 141.864 858.879 141.402 858.515 141.01C858.151 140.646 857.731 140.366 857.255 140.17C856.779 139.974 856.289 139.834 855.785 139.75C855.309 139.666 854.861 139.624 854.441 139.624C854.049 139.596 853.727 139.582 853.475 139.582C852.131 139.582 850.815 139.624 849.527 139.708ZM880.817 148.318L880.523 148.528C880.299 148.444 880.047 148.36 879.767 148.276C879.515 148.192 879.207 148.15 878.843 148.15C878.451 148.15 878.101 148.206 877.793 148.318C877.513 148.43 877.275 148.556 877.079 148.696C876.659 149.004 876.323 149.368 876.071 149.788C875.847 150.18 875.679 150.67 875.567 151.258C875.455 151.818 875.385 152.504 875.357 153.316C875.357 154.1 875.357 155.038 875.357 156.13C875.357 157.306 875.357 158.356 875.357 159.28C875.385 160.204 875.413 161.044 875.441 161.8C875.469 162.556 875.497 163.256 875.525 163.9C875.553 164.516 875.595 165.118 875.651 165.706L875.441 166C874.937 166 874.517 166 874.181 166C873.845 166 873.523 166 873.215 166C872.907 166.028 872.585 166.042 872.249 166.042C871.913 166.07 871.493 166.098 870.989 166.126L870.779 165.874C870.807 164.278 870.821 162.71 870.821 161.17C870.849 159.602 870.863 157.838 870.863 155.878C870.863 154.198 870.849 152.798 870.821 151.678C870.821 150.558 870.807 149.606 870.779 148.822C870.751 148.038 870.709 147.366 870.653 146.806C870.597 146.218 870.541 145.616 870.485 145L870.737 144.706C871.549 144.566 872.249 144.44 872.837 144.328C873.453 144.188 874.209 144.034 875.105 143.866L875.357 144.118L875.147 147.688C875.259 147.352 875.427 146.96 875.651 146.512C875.875 146.036 876.169 145.588 876.533 145.168C876.925 144.748 877.415 144.398 878.003 144.118C878.619 143.81 879.375 143.656 880.271 143.656C880.551 143.656 880.775 143.67 880.943 143.698C881.111 143.698 881.279 143.726 881.447 143.782L881.615 144.034C881.503 144.538 881.405 144.958 881.321 145.294C881.265 145.63 881.209 145.952 881.153 146.26C881.097 146.54 881.041 146.848 880.985 147.184C880.957 147.492 880.901 147.87 880.817 148.318ZM900.767 153.19V157.348C900.767 158.664 900.767 159.714 900.767 160.498C900.767 161.254 900.781 161.912 900.809 162.472C900.837 163.032 900.865 163.55 900.893 164.026C900.921 164.502 900.963 165.076 901.019 165.748L900.809 165.958C900.305 165.958 899.885 165.972 899.549 166C899.241 166 898.947 166 898.667 166C898.387 166.028 898.079 166.042 897.743 166.042C897.435 166.07 897.043 166.098 896.567 166.126L896.399 165.874L896.441 164.362C896.245 164.53 895.979 164.74 895.643 164.992C895.307 165.216 894.887 165.44 894.383 165.664C893.907 165.888 893.347 166.084 892.703 166.252C892.059 166.42 891.345 166.504 890.561 166.504C889.497 166.504 888.531 166.336 887.663 166C886.795 165.664 886.039 165.188 885.395 164.572C884.779 163.956 884.289 163.214 883.925 162.346C883.589 161.478 883.421 160.526 883.421 159.49C883.421 158.09 883.701 156.914 884.261 155.962C884.849 154.982 885.661 154.184 886.697 153.568C887.761 152.924 889.049 152.42 890.561 152.056C892.073 151.692 893.781 151.398 895.685 151.174L896.399 151.09C896.399 150.53 896.385 150.04 896.357 149.62C896.329 149.2 896.217 148.822 896.021 148.486C895.797 148.094 895.419 147.744 894.887 147.436C894.383 147.1 893.599 146.932 892.535 146.932C891.163 146.932 889.973 147.1 888.965 147.436C887.985 147.772 887.047 148.136 886.151 148.528L885.815 148.318C885.843 147.842 885.857 147.464 885.857 147.184C885.885 146.876 885.899 146.624 885.899 146.428C885.899 146.204 885.899 146.008 885.899 145.84C885.927 145.672 885.941 145.476 885.941 145.252L886.193 145C887.369 144.58 888.559 144.244 889.763 143.992C890.967 143.74 892.199 143.614 893.459 143.614C894.243 143.614 894.999 143.684 895.727 143.824C896.483 143.964 897.169 144.202 897.785 144.538C898.429 144.874 898.975 145.322 899.423 145.882C899.899 146.442 900.249 147.128 900.473 147.94C900.613 148.528 900.697 149.326 900.725 150.334C900.753 151.342 900.767 152.294 900.767 153.19ZM896.441 154.198L896.063 154.282C894.999 154.45 893.977 154.632 892.997 154.828C892.017 154.996 891.149 155.262 890.393 155.626C889.637 155.962 889.021 156.424 888.545 157.012C888.097 157.572 887.873 158.314 887.873 159.238C887.873 159.294 887.887 159.532 887.915 159.952C887.971 160.344 888.125 160.778 888.377 161.254C888.629 161.702 889.021 162.122 889.553 162.514C890.085 162.878 890.855 163.06 891.863 163.06C892.507 163.06 893.081 162.99 893.585 162.85C894.117 162.682 894.565 162.5 894.929 162.304C895.321 162.08 895.643 161.87 895.895 161.674C896.147 161.478 896.329 161.324 896.441 161.212V154.198ZM925.484 165.706L925.232 165.958C924.728 165.958 924.308 165.972 923.972 166C923.664 166 923.37 166 923.09 166C922.81 166.028 922.516 166.042 922.208 166.042C921.9 166.07 921.508 166.098 921.032 166.126L920.738 165.832C920.738 165.608 920.738 165.384 920.738 165.16C920.766 164.908 920.78 164.67 920.78 164.446C920.808 163.41 920.822 162.388 920.822 161.38C920.822 160.344 920.822 159.308 920.822 158.272C920.822 156.648 920.822 155.374 920.822 154.45C920.822 153.526 920.808 152.812 920.78 152.308C920.752 151.776 920.724 151.398 920.696 151.174C920.668 150.95 920.626 150.726 920.57 150.502C920.374 149.718 920.094 149.116 919.73 148.696C919.366 148.248 918.988 147.926 918.596 147.73C918.204 147.506 917.84 147.38 917.504 147.352C917.168 147.324 916.93 147.31 916.79 147.31C916.146 147.31 915.544 147.394 914.984 147.562C914.452 147.73 913.948 147.94 913.472 148.192C912.996 148.416 912.562 148.668 912.17 148.948C911.806 149.2 911.484 149.438 911.204 149.662C911.204 151.482 911.204 153.12 911.204 154.576C911.204 156.004 911.218 157.348 911.246 158.608C911.274 159.84 911.302 161.03 911.33 162.178C911.386 163.298 911.456 164.474 911.54 165.706L911.288 165.958C910.784 165.958 910.364 165.972 910.028 166C909.692 166 909.37 166 909.062 166C908.782 166.028 908.474 166.042 908.138 166.042C907.802 166.07 907.382 166.098 906.878 166.126L906.668 165.832C906.696 164.656 906.724 163.466 906.752 162.262C906.78 161.058 906.794 159.672 906.794 158.104C906.794 156.424 906.78 154.926 906.752 153.61C906.724 152.294 906.682 151.118 906.626 150.082C906.57 149.046 906.514 148.122 906.458 147.31C906.402 146.47 906.346 145.7 906.29 145L906.542 144.706C907.074 144.622 907.508 144.552 907.844 144.496C908.18 144.412 908.502 144.342 908.81 144.286C909.118 144.23 909.426 144.174 909.734 144.118C910.07 144.034 910.49 143.95 910.994 143.866L911.288 144.16L911.246 146.344C911.526 146.148 911.89 145.91 912.338 145.63C912.786 145.322 913.318 145.028 913.934 144.748C914.578 144.468 915.292 144.23 916.076 144.034C916.86 143.838 917.714 143.74 918.638 143.74C919.17 143.74 919.744 143.796 920.36 143.908C920.976 144.02 921.564 144.23 922.124 144.538C923.272 145.21 924.084 146.12 924.56 147.268C924.84 147.912 925.008 148.598 925.064 149.326C925.12 150.054 925.162 151.076 925.19 152.392V157.306C925.218 158.538 925.246 159.602 925.274 160.498C925.302 161.366 925.316 162.122 925.316 162.766C925.344 163.41 925.372 163.97 925.4 164.446C925.428 164.894 925.456 165.314 925.484 165.706ZM946.568 160.834L946.904 161.002C946.848 161.45 946.806 161.814 946.778 162.094C946.75 162.374 946.722 162.64 946.694 162.892C946.694 163.144 946.68 163.41 946.652 163.69C946.624 163.97 946.596 164.32 946.568 164.74L946.274 165.034C945.658 165.342 944.902 165.664 944.006 166C943.138 166.308 941.962 166.462 940.478 166.462C938.882 166.462 937.44 166.196 936.152 165.664C934.864 165.104 933.758 164.334 932.834 163.354C931.938 162.374 931.238 161.212 930.734 159.868C930.258 158.496 930.02 156.984 930.02 155.332C930.02 153.652 930.258 152.098 930.734 150.67C931.238 149.242 931.938 148.01 932.834 146.974C933.758 145.91 934.864 145.084 936.152 144.496C937.468 143.908 938.938 143.614 940.562 143.614C941.934 143.614 943.096 143.782 944.048 144.118C945 144.454 945.756 144.734 946.316 144.958L946.484 145.252C946.4 146.008 946.33 146.596 946.274 147.016C946.246 147.436 946.218 147.954 946.19 148.57L945.854 148.738C945.154 148.234 944.412 147.842 943.628 147.562C942.844 147.254 942.032 147.1 941.192 147.1C940.324 147.1 939.484 147.268 938.672 147.604C937.888 147.94 937.188 148.444 936.572 149.116C935.984 149.788 935.508 150.628 935.144 151.636C934.808 152.644 934.64 153.82 934.64 155.164C934.64 156.592 934.822 157.81 935.186 158.818C935.55 159.798 936.04 160.596 936.656 161.212C937.272 161.8 937.972 162.234 938.756 162.514C939.54 162.794 940.338 162.934 941.15 162.934C941.85 162.934 942.494 162.864 943.082 162.724C943.67 162.556 944.188 162.36 944.636 162.136C945.084 161.912 945.462 161.688 945.77 161.464C946.106 161.212 946.372 161.002 946.568 160.834ZM969.206 165.706L968.954 165.958C968.45 165.958 968.03 165.972 967.694 166C967.386 166 967.092 166 966.812 166C966.532 166.028 966.238 166.042 965.93 166.042C965.622 166.07 965.23 166.098 964.754 166.126L964.46 165.832L964.502 164.446C964.53 163.354 964.544 162.262 964.544 161.17C964.544 160.05 964.544 158.944 964.544 157.852L964.502 153.358C964.502 152.882 964.488 152.406 964.46 151.93C964.46 151.454 964.404 150.978 964.292 150.502C964.068 149.522 963.648 148.752 963.032 148.192C962.416 147.604 961.576 147.31 960.512 147.31C959.308 147.31 958.244 147.576 957.32 148.108C956.396 148.64 955.584 149.158 954.884 149.662C954.884 151.482 954.884 153.12 954.884 154.576C954.884 156.004 954.898 157.348 954.926 158.608C954.954 159.84 954.982 161.03 955.01 162.178C955.066 163.298 955.122 164.474 955.178 165.706L954.968 165.958C954.492 165.958 954.086 165.972 953.75 166C953.414 166 953.078 166 952.742 166C952.434 166.028 952.098 166.042 951.734 166.042C951.398 166.07 950.978 166.098 950.474 166.126L950.264 165.832C950.292 165.076 950.306 164.264 950.306 163.396C950.334 162.5 950.362 161.478 950.39 160.33C950.418 159.154 950.432 157.81 950.432 156.298C950.46 154.786 950.474 153.022 950.474 151.006C950.474 149.242 950.46 147.478 950.432 145.714C950.432 143.95 950.418 142.186 950.39 140.422C950.362 139.498 950.334 138.714 950.306 138.07C950.278 137.426 950.25 136.852 950.222 136.348C950.194 135.844 950.166 135.382 950.138 134.962C950.11 134.542 950.082 134.094 950.054 133.618L950.264 133.366C950.768 133.282 951.202 133.212 951.566 133.156C951.93 133.1 952.266 133.044 952.574 132.988C952.91 132.904 953.246 132.834 953.582 132.778C953.946 132.694 954.366 132.596 954.842 132.484L955.094 132.778C954.954 135.046 954.87 137.314 954.842 139.582C954.842 141.822 954.842 144.076 954.842 146.344C955.178 146.12 955.584 145.868 956.06 145.588C956.564 145.28 957.138 144.986 957.782 144.706C958.426 144.426 959.126 144.202 959.882 144.034C960.638 143.838 961.464 143.74 962.36 143.74C962.836 143.74 963.312 143.782 963.788 143.866C964.264 143.922 964.726 144.048 965.174 144.244C966.126 144.636 966.882 145.182 967.442 145.882C968.002 146.582 968.394 147.366 968.618 148.234C968.674 148.458 968.716 148.668 968.744 148.864C968.772 149.032 968.786 149.27 968.786 149.578C968.814 149.858 968.828 150.222 968.828 150.67C968.856 151.118 968.884 151.692 968.912 152.392V157.306L968.954 159.28C968.982 160.176 968.996 160.904 968.996 161.464C969.024 162.024 969.038 162.528 969.038 162.976C969.066 163.396 969.08 163.816 969.08 164.236C969.108 164.628 969.15 165.118 969.206 165.706Z" fill="#231F20"/>
<path d="M1206.62 111.518C1206.2 110.081 1205.74 108.692 1205.25 107.304C1205.18 107.255 1205.11 107.206 1205.03 107.158C1205.64 108.57 1206.15 110.032 1206.64 111.518H1206.62Z" fill="#231F20"/>
<path d="M1204.91 158.893C1204.91 158.893 1205.08 158.795 1205.15 158.747C1205.72 157.188 1206.25 155.605 1206.72 153.973C1206.18 155.653 1205.59 157.285 1204.91 158.893Z" fill="#231F20"/>
<path d="M1204.89 148.809L1204.93 148.638C1202.84 149.101 1200.71 149.539 1198.59 149.953C1200.64 149.686 1202.64 149.345 1204.59 148.882L1204.91 148.809H1204.89Z" fill="#231F20"/>
<path d="M1204.89 148.809L1204.93 148.638C1202.84 149.101 1200.71 149.539 1198.59 149.953C1200.64 149.686 1202.64 149.345 1204.59 148.882L1204.91 148.809H1204.89Z" fill="#231F20"/>
<path d="M1212.6 149.783V150.173H1211.47C1210.25 150.587 1209.01 150.976 1207.74 151.317L1207.45 151.39C1210.06 150.83 1212.64 150.197 1215.18 149.515C1216.55 147.907 1217.77 146.324 1218.77 145.009C1217.87 145.277 1216.94 145.545 1216.01 145.813C1215.38 147.006 1214.69 148.151 1213.89 149.271C1213.45 149.442 1213.01 149.612 1212.57 149.783H1212.6Z" fill="#231F20"/>
<path d="M1212.59 149.783C1212.23 149.929 1211.86 150.051 1211.47 150.173H1212.59V149.783Z" fill="#231F20"/>
<path d="M1212.59 149.783C1212.23 149.929 1211.86 150.051 1211.47 150.173H1212.59V149.783Z" fill="#231F20"/>
<path d="M1205.15 158.722C1204.42 160.72 1203.62 162.644 1202.71 164.519C1209.86 161.304 1215.57 155.604 1218.96 148.468C1217.72 148.833 1216.45 149.174 1215.21 149.515C1212.33 152.901 1208.76 156.53 1205.15 158.722Z" fill="#231F20"/>
<path d="M1207.47 151.439C1207.47 151.439 1207.42 151.439 1207.4 151.439C1207.18 152.292 1206.96 153.12 1206.71 153.948C1206.96 153.193 1207.18 152.438 1207.4 151.683L1207.47 151.415V151.439Z" fill="#231F20"/>
<path d="M1204.91 158.893C1205.59 157.31 1206.2 155.653 1206.72 153.973C1206.96 153.145 1207.18 152.292 1207.4 151.464C1205.59 151.878 1203.79 152.243 1201.98 152.609C1202.35 152.536 1202.69 152.487 1203.06 152.414L1203.96 152.243L1203.67 153.096C1202.74 155.848 1201.54 158.527 1200.05 161.207C1197.05 162.327 1193.86 163.009 1190.54 163.18V154.484C1189.49 154.63 1188.42 154.752 1187.37 154.874V163.155C1184 162.985 1180.78 162.254 1177.8 161.085C1176.85 159.38 1176.05 157.675 1175.34 155.946C1174.19 156.019 1173.07 156.067 1171.92 156.116C1172.22 156.944 1172.53 157.772 1172.87 158.576C1171.73 157.87 1170.63 157.066 1169.61 156.214C1167.6 156.287 1165.58 156.311 1163.55 156.311C1169.87 163.131 1178.93 167.418 1188.98 167.418C1193.95 167.418 1198.61 166.371 1202.76 164.495C1203.67 162.62 1204.47 160.695 1205.2 158.698C1205.13 158.747 1205.03 158.795 1204.96 158.844L1204.91 158.893Z" fill="#231F20"/>
<path d="M1204.91 158.893C1205.59 157.31 1206.2 155.653 1206.72 153.973C1206.96 153.145 1207.18 152.292 1207.4 151.464C1205.59 151.878 1203.79 152.243 1201.98 152.609C1202.35 152.536 1202.69 152.487 1203.06 152.414L1203.96 152.243L1203.67 153.096C1202.74 155.848 1201.54 158.527 1200.05 161.207C1197.05 162.327 1193.86 163.009 1190.54 163.18V154.484C1189.49 154.63 1188.42 154.752 1187.37 154.874V163.155C1184 162.985 1180.78 162.254 1177.8 161.085C1176.85 159.38 1176.05 157.675 1175.34 155.946C1174.19 156.019 1173.07 156.067 1171.92 156.116C1172.22 156.944 1172.53 157.772 1172.87 158.576C1171.73 157.87 1170.63 157.066 1169.61 156.214C1167.6 156.287 1165.58 156.311 1163.55 156.311C1169.87 163.131 1178.93 167.418 1188.98 167.418C1193.95 167.418 1198.61 166.371 1202.76 164.495C1203.67 162.62 1204.47 160.695 1205.2 158.698C1205.13 158.747 1205.03 158.795 1204.96 158.844L1204.91 158.893Z" fill="#231F20"/>
<path d="M1168.14 134.998C1168.24 138.92 1168.65 142.987 1169.41 146.982L1168.14 134.998Z" fill="#231F20"/>
<path d="M1168.14 134.998C1168.24 138.92 1168.65 142.987 1169.41 146.982L1168.14 134.998Z" fill="#231F20"/>
<path d="M1163.16 148.955C1165.38 149.905 1167.73 150.684 1170.09 151.317L1170.39 151.391L1170.46 151.683C1170.61 152.194 1170.75 152.706 1170.9 153.217C1172 153.169 1173.09 153.096 1174.19 153.023L1173.92 152.219L1174.83 152.389C1175.66 152.535 1176.46 152.681 1177.29 152.803C1184.51 152.219 1191.64 151.269 1198.59 149.953C1196.18 150.246 1193.69 150.441 1191.08 150.489H1190.54V134.487H1206.59V135.022C1206.47 139.821 1205.98 144.254 1204.98 148.492V148.638C1205.69 148.468 1206.45 148.297 1207.2 148.127V114.002H1207.35C1207.13 113.174 1206.91 112.346 1206.67 111.518C1206.2 110.032 1205.67 108.57 1205.06 107.158C1205.13 107.206 1205.2 107.255 1205.28 107.304C1204.5 105.185 1203.64 103.139 1202.69 101.141C1198.47 99.3146 1193.83 98.3159 1188.95 98.3159C1169.82 98.3159 1154.33 113.783 1154.33 132.879C1154.33 140.6 1156.87 147.713 1161.14 153.461C1162.97 153.461 1164.77 153.437 1166.58 153.388C1165.31 152.024 1164.16 150.538 1163.19 148.955H1163.16ZM1190.51 102.603C1193.88 102.773 1197.08 103.504 1200.08 104.673C1201.54 107.304 1202.71 109.959 1203.67 112.687L1203.96 113.539L1203.06 113.369C1199.03 112.614 1194.98 112.2 1191.05 112.102H1190.54V102.578L1190.51 102.603ZM1190.51 115.293H1191.05C1195.83 115.415 1200.3 115.902 1204.54 116.901L1204.86 116.974L1204.93 117.29C1205.93 121.528 1206.42 125.986 1206.52 130.76V131.296H1190.49V115.269L1190.51 115.293ZM1187.34 150.514H1186.81C1182 150.392 1177.56 149.905 1173.31 148.906L1173 148.833L1172.92 148.516C1171.92 144.254 1171.43 139.821 1171.34 135.047V134.511H1187.37V150.538L1187.34 150.514ZM1174.22 112.687C1175.14 109.959 1176.31 107.279 1177.78 104.673C1180.76 103.504 1183.98 102.773 1187.32 102.603V112.102H1186.81C1182.88 112.224 1178.83 112.614 1174.8 113.369L1173.9 113.539L1174.19 112.687H1174.22ZM1172.97 116.974L1173.29 116.901C1177.56 115.902 1182.02 115.415 1186.78 115.293H1187.32V131.296H1171.26V130.76C1171.39 125.986 1171.87 121.528 1172.87 117.29L1172.95 116.974H1172.97ZM1172.85 107.182C1171.9 109.399 1171.12 111.737 1170.48 114.099L1170.41 114.392L1170.12 114.465C1167.73 115.098 1165.41 115.878 1163.19 116.827C1165.63 112.93 1168.95 109.618 1172.85 107.158V107.182ZM1160.68 121.772C1163.31 120.311 1165.97 119.141 1168.7 118.216L1169.56 117.924L1169.39 118.825C1168.63 122.819 1168.24 126.887 1168.12 130.809V131.32H1158.58C1158.75 127.959 1159.48 124.768 1160.65 121.796L1160.68 121.772ZM1160.68 144.035C1159.5 141.063 1158.77 137.848 1158.6 134.487H1168.12V134.998L1169.39 146.982L1169.56 147.883L1168.7 147.591C1165.97 146.665 1163.31 145.496 1160.68 144.035Z" fill="#231F20"/>
<path d="M1207.18 148.127C1207.52 148.054 1207.86 147.98 1208.2 147.883C1209.16 143.085 1209.67 138.067 1209.67 132.903C1209.67 126.302 1208.84 119.945 1207.33 114.002H1207.18V148.127Z" fill="#231F20"/>
<path d="M1207.18 148.127C1207.52 148.054 1207.86 147.98 1208.2 147.883C1209.16 143.085 1209.67 138.067 1209.67 132.903C1209.67 126.302 1208.84 119.945 1207.33 114.002H1207.18V148.127Z" fill="#231F20"/>
<path d="M1213.94 149.271C1214.72 148.175 1215.42 147.03 1216.06 145.812C1214.91 146.129 1213.77 146.446 1212.62 146.762V149.783C1213.06 149.612 1213.5 149.442 1213.94 149.271Z" fill="#231F20"/>
<path d="M1213.94 149.271C1214.72 148.175 1215.42 147.03 1216.06 145.812C1214.91 146.129 1213.77 146.446 1212.62 146.762V149.783C1213.06 149.612 1213.5 149.442 1213.94 149.271Z" fill="#231F20"/>
<path d="M1207.47 151.391L1207.76 151.318C1209.03 150.977 1210.25 150.587 1211.5 150.173H1207.72C1207.62 150.611 1207.52 151.025 1207.42 151.439C1207.42 151.439 1207.47 151.439 1207.5 151.439L1207.47 151.391Z" fill="#231F20"/>
<path d="M1207.47 151.391L1207.76 151.318C1209.03 150.977 1210.25 150.587 1211.5 150.173H1207.72C1207.62 150.611 1207.52 151.025 1207.42 151.439C1207.42 151.439 1207.47 151.439 1207.5 151.439L1207.47 151.391Z" fill="#231F20"/>
<path d="M1208.3 147.883C1208.3 147.883 1208.23 147.883 1208.2 147.883C1208.06 148.663 1207.89 149.418 1207.72 150.173H1211.5C1211.86 150.051 1212.25 149.905 1212.62 149.783V146.763C1211.2 147.128 1209.81 147.493 1208.4 147.834H1208.33L1208.3 147.883Z" fill="#231F20"/>
<path d="M1208.3 147.883C1208.3 147.883 1208.23 147.883 1208.2 147.883C1208.06 148.663 1207.89 149.418 1207.72 150.173H1211.5C1211.86 150.051 1212.25 149.905 1212.62 149.783V146.763C1211.2 147.128 1209.81 147.493 1208.4 147.834H1208.33L1208.3 147.883Z" fill="#231F20"/>
<path d="M1208.3 147.883C1208.3 147.883 1208.23 147.883 1208.2 147.883C1208.06 148.663 1207.89 149.418 1207.72 150.173H1211.5C1211.86 150.051 1212.25 149.905 1212.62 149.783V146.763C1211.2 147.128 1209.81 147.493 1208.4 147.834H1208.33L1208.3 147.883Z" fill="#231F20"/>
<path d="M1207.18 150.173V148.127C1206.42 148.297 1205.69 148.468 1204.93 148.638L1204.89 148.809L1204.57 148.882C1202.62 149.345 1200.62 149.686 1198.57 149.954C1191.61 151.269 1184.49 152.219 1177.27 152.804C1180.46 153.291 1183.68 153.559 1186.81 153.656H1187.32V154.874C1188.39 154.752 1189.44 154.606 1190.49 154.484V153.68H1191C1194.57 153.583 1198.27 153.242 1201.93 152.584C1203.76 152.243 1205.57 151.854 1207.35 151.44C1207.45 151.025 1207.55 150.587 1207.64 150.173H1207.11H1207.18Z" fill="#231F20"/>
<path d="M1207.18 150.173V148.127C1206.42 148.297 1205.69 148.468 1204.93 148.638L1204.89 148.809L1204.57 148.882C1202.62 149.345 1200.62 149.686 1198.57 149.954C1191.61 151.269 1184.49 152.219 1177.27 152.804C1180.46 153.291 1183.68 153.559 1186.81 153.656H1187.32V154.874C1188.39 154.752 1189.44 154.606 1190.49 154.484V153.68H1191C1194.57 153.583 1198.27 153.242 1201.93 152.584C1203.76 152.243 1205.57 151.854 1207.35 151.44C1207.45 151.025 1207.55 150.587 1207.64 150.173H1207.11H1207.18Z" fill="#231F20"/>
<path d="M1207.18 150.173V148.127C1206.42 148.297 1205.69 148.468 1204.93 148.638L1204.89 148.809L1204.57 148.882C1202.62 149.345 1200.62 149.686 1198.57 149.954C1191.61 151.269 1184.49 152.219 1177.27 152.804C1180.46 153.291 1183.68 153.559 1186.81 153.656H1187.32V154.874C1188.39 154.752 1189.44 154.606 1190.49 154.484V153.68H1191C1194.57 153.583 1198.27 153.242 1201.93 152.584C1203.76 152.243 1205.57 151.854 1207.35 151.44C1207.45 151.025 1207.55 150.587 1207.64 150.173H1207.11H1207.18Z" fill="#231F20"/>
<path d="M1207.69 150.173C1207.86 149.418 1208.03 148.663 1208.18 147.883C1207.84 147.956 1207.5 148.029 1207.15 148.127V150.173H1207.69Z" fill="#231F20"/>
<path d="M1207.69 150.173C1207.86 149.418 1208.03 148.663 1208.18 147.883C1207.84 147.956 1207.5 148.029 1207.15 148.127V150.173H1207.69Z" fill="#231F20"/>
<path d="M1207.69 150.173C1207.86 149.418 1208.03 148.663 1208.18 147.883C1207.84 147.956 1207.5 148.029 1207.15 148.127V150.173H1207.69Z" fill="#231F20"/>
<path d="M1207.69 150.173C1207.86 149.418 1208.03 148.663 1208.18 147.883C1207.84 147.956 1207.5 148.029 1207.15 148.127V150.173H1207.69Z" fill="#231F20"/>
<path d="M1220.99 144.351C1220.26 144.57 1219.52 144.814 1218.79 145.033C1217.79 146.348 1216.57 147.907 1215.21 149.539C1216.47 149.198 1217.72 148.857 1218.96 148.492C1219.04 148.321 1219.13 148.126 1219.23 147.956C1219.7 147.03 1220.33 145.618 1220.99 144.351Z" fill="#231F20"/>
<path d="M1220.99 144.351C1220.26 144.57 1219.52 144.814 1218.79 145.033C1217.79 146.348 1216.57 147.907 1215.21 149.539C1216.47 149.198 1217.72 148.857 1218.96 148.492C1219.04 148.321 1219.13 148.126 1219.23 147.956C1219.7 147.03 1220.33 145.618 1220.99 144.351Z" fill="#231F20"/>
<path d="M1174.19 153.047C1173.09 153.12 1172 153.169 1170.9 153.242C1171.19 154.24 1171.51 155.215 1171.87 156.165C1173.02 156.116 1174.14 156.067 1175.29 155.994C1174.9 155.044 1174.53 154.07 1174.22 153.096V153.047H1174.19Z" fill="#231F20"/>
<path d="M1174.19 153.047C1173.09 153.12 1172 153.169 1170.9 153.242C1171.19 154.24 1171.51 155.215 1171.87 156.165C1173.02 156.116 1174.14 156.067 1175.29 155.994C1174.9 155.044 1174.53 154.07 1174.22 153.096V153.047H1174.19Z" fill="#231F20"/>
<path d="M1174.19 153.047C1173.09 153.12 1172 153.169 1170.9 153.242C1171.19 154.24 1171.51 155.215 1171.87 156.165C1173.02 156.116 1174.14 156.067 1175.29 155.994C1174.9 155.044 1174.53 154.07 1174.22 153.096V153.047H1174.19Z" fill="#231F20"/>
<path d="M1166.56 153.388C1164.75 153.436 1162.94 153.461 1161.11 153.461C1161.85 154.459 1162.65 155.409 1163.51 156.335C1165.53 156.335 1167.56 156.286 1169.56 156.238C1168.48 155.361 1167.48 154.411 1166.56 153.388Z" fill="#231F20"/>
<path d="M1166.56 153.388C1164.75 153.436 1162.94 153.461 1161.11 153.461C1161.85 154.459 1162.65 155.409 1163.51 156.335C1165.53 156.335 1167.56 156.286 1169.56 156.238C1168.48 155.361 1167.48 154.411 1166.56 153.388Z" fill="#231F20"/>
<path d="M1166.56 153.388C1164.75 153.436 1162.94 153.461 1161.11 153.461C1161.85 154.459 1162.65 155.409 1163.51 156.335C1165.53 156.335 1167.56 156.286 1169.56 156.238C1168.48 155.361 1167.48 154.411 1166.56 153.388Z" fill="#231F20"/>
<path d="M1162.94 72.1561C1138.35 91.8612 1129.62 123.94 1138.47 152.267C1138.89 152.316 1139.33 152.365 1139.74 152.389C1132.03 124.622 1140.94 93.7123 1164.87 74.5431C1196.54 49.1627 1242.65 53.8394 1268.59 84.7975C1268.27 84.3835 1267.98 83.9694 1267.66 83.5797C1241.9 51.5498 1195 46.4347 1162.94 72.1561Z" fill="#231F20"/>
<path d="M1151.48 176.697C1151.79 177.087 1152.14 177.477 1152.48 177.867C1147.06 170.827 1143.08 163.13 1140.52 155.117C1140.13 155.068 1139.74 155.019 1139.35 154.971C1142.08 162.643 1146.08 169.975 1151.48 176.673V176.697Z" fill="#231F20"/>
<path d="M1139.35 154.995C1139.74 155.044 1140.13 155.093 1140.52 155.141C1140.23 154.24 1139.96 153.339 1139.72 152.413C1139.3 152.365 1138.86 152.34 1138.45 152.292C1138.74 153.193 1139.03 154.094 1139.35 154.995Z" fill="#231F20"/>
<path d="M1187.17 51.2817C1143.45 63.9475 1118.27 109.618 1130.96 153.266C1131.13 153.802 1131.3 154.338 1131.47 154.898C1119.88 111.737 1144.94 67.0653 1188.12 54.5456C1231.31 42.0259 1276.45 66.3832 1289.79 109.057C1289.65 108.497 1289.52 107.961 1289.35 107.401C1276.67 63.7283 1230.92 38.6159 1187.17 51.2817Z" fill="#231F20"/>
<path d="M1113 177.233H1117.49C1117.73 177.233 1117.95 177.233 1118.2 177.233C1121.17 177.404 1122.61 178.573 1122.88 180.79C1123.05 182.007 1122.71 183.104 1122 184.005C1121.22 184.955 1120.1 185.491 1118.71 185.539H1115.05V191.677H1113.02V177.233H1113ZM1117.25 184.127C1117.42 184.127 1117.56 184.127 1117.71 184.127C1119.37 184.053 1120.1 183.615 1120.61 182.543C1120.81 182.154 1120.91 181.666 1120.83 181.033C1120.69 179.523 1119.86 178.744 1117.81 178.597H1115.03V184.127H1117.25Z" fill="#231F20"/>
<path d="M1128.66 181.423C1131.03 181.837 1132.62 183.785 1132.62 186.611C1132.62 189.436 1131.03 191.385 1128.66 191.799C1125.18 192.432 1122.56 190.191 1122.56 186.611C1122.56 183.03 1125.18 180.789 1128.66 181.423ZM1124.54 187.147C1124.81 189.875 1126.32 191.093 1128.4 190.605C1129.66 190.289 1130.45 189.241 1130.62 187.147C1130.66 186.806 1130.66 186.465 1130.62 186.124C1130.45 184.005 1129.64 182.982 1128.4 182.665C1126.32 182.153 1124.78 183.371 1124.54 186.124C1124.54 186.294 1124.54 186.465 1124.54 186.635C1124.54 186.806 1124.54 186.976 1124.54 187.147Z" fill="#231F20"/>
<path d="M1135.08 181.593L1137.62 189.631L1140.11 181.593H1142.42L1144.94 189.631L1147.5 181.593H1149.16L1145.96 191.677H1143.84L1141.18 183.225L1138.57 191.677H1136.37L1133.18 181.593H1135.06H1135.08Z" fill="#231F20"/>
<path d="M1151.55 186.879C1151.55 187.074 1151.55 187.293 1151.55 187.512C1151.72 189.753 1152.77 190.776 1154.36 190.776C1155.62 190.825 1156.45 190.191 1156.8 188.852C1156.84 188.779 1156.87 188.681 1156.87 188.56H1158.58C1158.58 188.754 1158.53 188.974 1158.48 189.193C1158.06 190.849 1156.65 191.872 1154.36 191.921C1151.6 191.97 1150.04 190.484 1149.72 187.415C1149.38 183.859 1150.99 181.764 1153.45 181.423C1156.8 180.96 1158.65 182.568 1158.8 186.246C1158.8 186.44 1158.8 186.635 1158.8 186.879H1151.55ZM1156.94 185.856C1156.94 185.856 1156.94 185.637 1156.94 185.539C1156.89 183.469 1155.84 182.47 1154.23 182.519C1152.87 182.568 1151.89 183.444 1151.6 185.32C1151.55 185.49 1151.55 185.661 1151.55 185.831H1156.92L1156.94 185.856Z" fill="#231F20"/>
<path d="M1160.75 181.593H1162.55V183.006C1162.55 183.006 1162.68 182.811 1162.72 182.714C1163.33 181.861 1164.07 181.423 1165.19 181.398C1165.48 181.398 1165.82 181.398 1166.12 181.472V183.055H1165.94L1165.7 183.006C1163.46 182.884 1162.55 183.761 1162.55 185.856V191.629H1160.75V181.545V181.593Z" fill="#231F20"/>
<path d="M1175.61 183.03L1175.39 182.738C1174.87 182.032 1174.56 181.496 1174.41 181.009C1173.73 178.89 1175.05 176.99 1177.36 177.039C1177.61 177.039 1177.85 177.039 1178.1 177.112C1179.97 177.526 1180.9 179.791 1179.73 181.618C1179.36 182.178 1178.78 182.714 1178 183.152C1177.8 183.25 1177.58 183.347 1177.36 183.444L1181.22 187.975C1181.56 187.049 1181.73 186.099 1181.76 185.101H1182.85C1182.8 185.685 1182.73 186.294 1182.58 186.855C1182.41 187.512 1182.17 188.17 1181.85 188.754L1184.34 191.629H1182.93L1181.27 189.607C1181.15 189.777 1181.05 189.899 1180.93 190.045C1180.19 190.922 1179.17 191.531 1178.07 191.775C1175.73 192.286 1173.56 191.263 1172.63 189.485C1172.34 188.852 1172.17 188.194 1172.19 187.512C1172.24 185.953 1173.12 184.516 1174.95 183.469C1175.19 183.323 1175.44 183.225 1175.68 183.128L1175.56 182.957L1175.61 183.03ZM1174.95 184.784C1174.73 184.979 1174.51 185.198 1174.31 185.417C1172.73 187.293 1173.48 189.972 1175.78 190.727C1177.36 191.239 1179.02 190.8 1180.27 189.436C1180.41 189.266 1180.54 189.12 1180.66 188.949L1176.39 183.907C1175.9 184.102 1175.44 184.394 1174.97 184.76L1174.95 184.784ZM1177.34 182.446C1178.49 181.788 1178.95 181.131 1179.07 180.302C1179.24 178.938 1178.22 177.964 1176.95 178.183C1175.44 178.427 1174.85 179.864 1175.87 181.569C1176 181.739 1176.09 181.886 1176.22 182.056C1176.41 182.348 1176.58 182.568 1176.75 182.738C1176.95 182.665 1177.14 182.568 1177.31 182.446H1177.34Z" fill="#231F20"/>
<path d="M1191.25 177.233H1200.18V178.67H1193.27V183.493H1199.79V184.955H1193.27V190.24H1200.4V191.677H1191.25V177.233Z" fill="#231F20"/>
<path d="M1202.27 181.593H1204.08V183.445C1204.08 183.445 1204.2 183.201 1204.25 183.079C1204.89 181.983 1205.71 181.423 1206.96 181.326C1209.35 181.106 1210.72 182.3 1210.81 184.443V184.882V185.174V191.677H1209.01V184.833C1208.94 183.98 1208.76 183.615 1208.4 183.225C1207.89 182.665 1207.03 182.422 1206.13 182.665C1204.81 182.982 1204.03 184.102 1204.03 186.514V191.677H1202.23V181.593H1202.27Z" fill="#231F20"/>
<path d="M1214.69 186.879C1214.69 187.074 1214.69 187.293 1214.69 187.512C1214.86 189.753 1215.91 190.776 1217.5 190.776C1218.77 190.825 1219.6 190.191 1219.94 188.852C1219.99 188.779 1220.01 188.681 1220.01 188.56H1221.72C1221.72 188.754 1221.67 188.974 1221.62 189.193C1221.21 190.849 1219.79 191.872 1217.5 191.921C1214.74 191.97 1213.18 190.484 1212.86 187.415C1212.52 183.859 1214.13 181.764 1216.6 181.423C1219.94 180.96 1221.79 182.568 1221.94 186.246C1221.94 186.44 1221.94 186.635 1221.94 186.879H1214.69ZM1220.08 185.856C1220.08 185.856 1220.08 185.637 1220.08 185.539C1220.04 183.469 1218.99 182.47 1217.38 182.519C1216.01 182.568 1215.03 183.444 1214.74 185.32C1214.69 185.49 1214.69 185.661 1214.69 185.831H1220.06L1220.08 185.856Z" fill="#231F20"/>
<path d="M1223.87 181.593H1225.67V183.006C1225.67 183.006 1225.79 182.811 1225.84 182.714C1226.45 181.861 1227.19 181.423 1228.31 181.398C1228.6 181.398 1228.94 181.398 1229.23 181.472V183.055H1229.06L1228.82 183.006C1226.58 182.884 1225.67 183.761 1225.67 185.856V191.629H1223.87V181.545V181.593Z" fill="#231F20"/>
<path d="M1236.77 181.593H1238.6V191.604C1238.6 194.405 1236.73 196.159 1233.41 195.988C1231.02 195.842 1229.77 194.795 1229.6 193.236C1229.6 193.09 1229.6 192.968 1229.6 192.846H1231.43C1231.43 192.846 1231.43 192.992 1231.43 193.041C1231.53 193.991 1232.19 194.6 1233.58 194.697C1235.48 194.844 1236.6 193.845 1236.73 192.018C1236.73 191.896 1236.73 191.775 1236.73 191.677V189.461L1236.63 189.631L1236.43 189.923C1235.41 191.482 1233.65 192.067 1231.77 191.312C1230.33 190.703 1229.43 189.461 1229.16 187.39C1229.11 186.781 1229.11 186.172 1229.21 185.539C1229.6 183.176 1231.07 181.691 1232.68 181.447C1234.68 181.13 1236.12 181.812 1236.75 183.006V181.569L1236.77 181.593ZM1234.75 190.289C1235.48 190.069 1236.07 189.436 1236.53 188.291C1236.68 187.902 1236.75 187.512 1236.82 187.049C1237.14 183.785 1235.48 182.275 1233.43 182.738C1232.26 183.03 1231.38 184.078 1231.19 185.904C1231.14 186.075 1231.14 186.294 1231.14 186.489C1231.07 189.558 1232.82 190.922 1234.77 190.313L1234.75 190.289Z" fill="#231F20"/>
<path d="M1241.48 181.593L1244.46 189.631L1247.41 181.593H1249.07L1243.92 195.574H1242.14L1243.51 191.848L1239.56 181.618H1241.48V181.593Z" fill="#231F20"/>
<path d="M1256.76 187.658C1256.59 189.363 1258.03 190.752 1260.49 190.532C1260.88 190.532 1261.25 190.411 1261.56 190.265C1262.73 189.753 1263.22 188.974 1263.2 187.951C1263.15 186.879 1262.73 186.343 1261.47 185.831L1260.42 185.49L1259.15 185.028C1258.95 184.955 1258.76 184.882 1258.54 184.808C1255.44 183.615 1254.51 182.178 1255.27 179.718C1255.76 178.086 1257.39 176.965 1260 176.965C1263.17 176.917 1264.98 178.573 1265.08 180.716H1263.03C1263.03 179.425 1261.93 178.427 1260 178.427C1258.44 178.427 1257.56 179.011 1257.2 180.132C1256.73 181.569 1257.44 182.641 1259.9 183.493L1261.29 183.956L1262 184.2L1262.54 184.394C1264.78 185.223 1265.66 186.806 1265.13 188.925C1264.69 190.679 1263.27 191.726 1260.66 191.896C1260.15 191.945 1259.61 191.896 1259.1 191.896C1256.41 191.653 1255.12 190.606 1254.78 188.56C1254.73 188.267 1254.73 187.951 1254.73 187.658H1256.76Z" fill="#231F20"/>
<path d="M1272.54 181.423C1274.91 181.837 1276.49 183.785 1276.49 186.611C1276.49 189.436 1274.91 191.385 1272.54 191.799C1269.05 192.432 1266.44 190.191 1266.44 186.611C1266.44 183.03 1269.05 180.789 1272.54 181.423ZM1268.42 187.147C1268.69 189.875 1270.2 191.093 1272.27 190.605C1273.54 190.289 1274.32 189.241 1274.52 187.147C1274.57 186.806 1274.57 186.465 1274.52 186.124C1274.35 184.005 1273.54 182.982 1272.27 182.665C1270.2 182.153 1268.66 183.371 1268.42 186.124C1268.42 186.294 1268.42 186.465 1268.42 186.635C1268.42 186.806 1268.42 186.976 1268.42 187.147Z" fill="#231F20"/>
<path d="M1284.99 184.882C1284.99 184.882 1284.94 184.614 1284.94 184.468C1284.89 184.297 1284.84 184.102 1284.77 183.956C1284.18 182.592 1282.25 182.129 1280.84 183.323C1280.2 183.859 1279.76 184.736 1279.67 186.148C1279.62 186.587 1279.67 187.049 1279.72 187.488C1279.98 189.583 1280.81 190.484 1282.35 190.581C1283.84 190.679 1284.74 189.972 1284.96 188.584C1284.96 188.487 1284.96 188.389 1285.01 188.292H1286.72C1286.72 188.511 1286.72 188.73 1286.64 188.925C1286.25 190.874 1284.72 192.067 1282.28 191.945C1279.45 191.848 1277.81 190.07 1277.76 186.782C1277.71 183.615 1279.3 181.642 1281.64 181.35C1284.55 180.96 1286.28 182.202 1286.69 184.37C1286.69 184.541 1286.74 184.711 1286.77 184.882H1285.01H1284.99Z" fill="#231F20"/>
<path d="M1288.4 177.233H1290.21V179.377H1288.4V177.233ZM1288.4 181.593H1290.21V191.677H1288.4V181.593Z" fill="#231F20"/>
<path d="M1294.04 186.879C1294.04 187.074 1294.04 187.293 1294.04 187.512C1294.21 189.753 1295.26 190.776 1296.84 190.776C1298.11 190.825 1298.94 190.191 1299.28 188.852C1299.33 188.779 1299.36 188.681 1299.36 188.56H1301.06C1301.06 188.754 1301.02 188.974 1300.97 189.193C1300.55 190.849 1299.14 191.872 1296.84 191.921C1294.09 191.97 1292.52 190.484 1292.21 187.415C1291.87 183.859 1293.48 181.764 1295.94 181.423C1299.28 180.96 1301.14 182.568 1301.28 186.246C1301.28 186.44 1301.28 186.635 1301.28 186.879H1294.04ZM1299.43 185.856C1299.43 185.856 1299.43 185.637 1299.43 185.539C1299.38 183.469 1298.33 182.47 1296.72 182.519C1295.36 182.568 1294.38 183.444 1294.09 185.32C1294.04 185.49 1294.04 185.661 1294.04 185.831H1299.41L1299.43 185.856Z" fill="#231F20"/>
<path d="M1301.55 181.593H1303.38V179.547L1305.19 178.816V181.593H1307.46V182.811H1305.19V188.998C1305.31 190.216 1305.58 190.459 1306.92 190.435C1307.12 190.435 1307.31 190.435 1307.55 190.362V191.701C1307.14 191.799 1306.77 191.848 1306.38 191.872C1304.14 191.921 1303.36 191.19 1303.36 188.876V182.811H1301.53V181.593H1301.55Z" fill="#231F20"/>
<path d="M1308.75 181.593L1311.73 189.631L1314.68 181.593H1316.34L1311.19 195.574H1309.41L1310.77 191.848L1306.82 181.618H1308.75V181.593Z" fill="#231F20"/>
<path d="M1173.12 175.236C1173.41 175.358 1173.73 175.455 1174.02 175.553C1150.89 166.078 1139.5 139.869 1148.55 116.486C1157.6 93.1031 1183.71 81.3385 1207.2 89.8392C1206.91 89.7174 1206.62 89.5956 1206.33 89.4738C1182.61 80.3155 1155.94 92.1044 1146.79 115.78C1137.62 139.455 1149.43 166.078 1173.14 175.212L1173.12 175.236Z" fill="#231F20"/>
<path d="M1211.69 116.949H1228.16L1230.09 117.046C1237.87 117.338 1241.41 120.481 1241.95 127.179C1242.61 134.535 1238.07 139.796 1230.58 140.137L1229.53 140.186H1222.92V153.241H1211.69V116.949ZM1225.65 133.244H1226.65L1227.36 133.195C1229.11 133.146 1230.33 132.343 1231.14 130.686C1231.48 129.98 1231.7 129.079 1231.6 127.812C1231.36 124.889 1229.84 123.476 1226.45 123.33H1222.77V133.268H1225.65V133.244Z" fill="#231F20"/>
<path d="M1244.48 116.949H1270.64V124.158H1255.54V131.052H1269.93V138.505H1255.54V146.007H1270.96V153.217H1244.48V116.924V116.949Z" fill="#231F20"/>
<path d="M1283.62 141.087C1283.52 141.55 1283.52 141.988 1283.57 142.451C1283.77 145.788 1285.99 147.639 1289.52 147.298C1290.13 147.249 1290.65 147.079 1291.09 146.884C1292.79 146.032 1293.6 144.765 1293.55 143.011C1293.45 141.087 1292.38 139.723 1290.21 139.017L1289.84 138.919L1287.91 138.359L1284.94 137.555C1284.6 137.458 1284.23 137.336 1283.89 137.19C1274.84 134.267 1272.23 130.93 1273.79 124.427C1275.06 119.092 1279.84 115.804 1288.89 115.902C1289.69 115.902 1290.55 115.95 1291.35 115.999C1297.72 116.559 1301.02 118.41 1302.87 121.796C1303.77 123.452 1304.19 125.328 1304.09 127.228H1293.52V126.473C1293.48 125.864 1293.28 125.255 1293.01 124.719C1292.04 122.965 1290.38 122.137 1287.86 122.405C1287.3 122.454 1286.82 122.6 1286.35 122.795C1284.52 123.769 1283.77 125.377 1284.18 127.276C1284.6 128.933 1285.74 129.907 1289.08 130.857L1292.43 131.807L1296.43 132.927C1302.8 134.73 1305.68 139.236 1304.26 145.325C1303.04 150.562 1299.16 153.29 1290.82 153.753C1289.16 153.802 1287.64 153.802 1286.11 153.655C1279.3 153.095 1275.71 150.83 1273.84 146.86C1272.98 145.057 1272.66 143.084 1272.88 141.063H1283.59L1283.62 141.087Z" fill="#231F20"/>
<path d="M1211.84 95.8799H1215.23V113.466H1211.84V95.8799Z" fill="#231F20"/>
<path d="M1217.55 95.8799H1229.41V98.5348H1221.55V103.09H1229.02V105.818H1221.55V110.811H1229.6V113.466H1217.55V95.8799Z" fill="#231F20"/>
<path d="M1231.58 95.8799H1243.43V98.5348H1235.58V103.09H1243.04V105.818H1235.58V110.811H1243.63V113.466H1231.58V95.8799Z" fill="#231F20"/>
<path d="M1245.58 95.8799H1257.44V98.5348H1249.58V103.09H1257.05V105.818H1249.58V110.811H1257.63V113.466H1245.58V95.8799Z" fill="#231F20"/>
<path d="M1168.73 166.638C1150.87 155.775 1145.06 132.66 1155.53 114.684C1155.38 114.903 1155.23 115.123 1155.09 115.342C1144.06 133.415 1149.79 156.968 1167.9 168.002C1186 179.012 1209.62 173.288 1220.65 155.215C1220.79 154.995 1220.92 154.752 1221.04 154.533C1209.84 172.07 1186.61 177.526 1168.73 166.638Z" fill="#231F20"/>
<path d="M1326 181.131C1326 183.103 1324.41 184.662 1322.41 184.662C1320.41 184.662 1318.8 183.103 1318.8 181.131C1318.8 179.158 1320.41 177.623 1322.44 177.623C1324.46 177.623 1326 179.158 1326 181.131ZM1319.68 181.131C1319.68 182.689 1320.85 183.932 1322.41 183.932C1323.93 183.932 1325.1 182.689 1325.1 181.155C1325.1 179.62 1323.95 178.329 1322.39 178.329C1320.83 178.329 1319.71 179.596 1319.71 181.131H1319.68ZM1321.83 182.933H1321.02V179.425C1321.34 179.377 1321.8 179.328 1322.36 179.328C1323.02 179.328 1323.34 179.425 1323.56 179.596C1323.78 179.742 1323.93 180.01 1323.93 180.351C1323.93 180.789 1323.61 181.057 1323.19 181.179V181.228C1323.54 181.325 1323.71 181.618 1323.8 182.08C1323.9 182.616 1324 182.811 1324.07 182.933H1323.22C1323.12 182.811 1323.05 182.495 1322.95 182.08C1322.88 181.715 1322.68 181.545 1322.22 181.545H1321.83V182.933ZM1321.85 180.984H1322.24C1322.68 180.984 1323.05 180.838 1323.05 180.473C1323.05 180.156 1322.8 179.937 1322.29 179.937C1322.07 179.937 1321.93 179.937 1321.85 179.986V180.984Z" fill="#231F20"/>
</svg>
