<svg width="441" height="351" viewBox="0 0 441 351" fill="none" xmlns="http://www.w3.org/2000/svg">
<g clip-path="url(#clip0_44_11451)">
<path d="M27.8528 304.867C29.259 304.867 30.4192 305.043 31.3332 305.395C32.2551 305.738 32.9426 306.266 33.3957 306.977C33.8488 307.688 34.0754 308.594 34.0754 309.695C34.0754 310.602 33.9113 311.359 33.5832 311.969C33.2551 312.57 32.8254 313.059 32.2942 313.434C31.7629 313.809 31.1965 314.098 30.5949 314.301L35.2942 322H32.9738L28.7785 314.852H25.216V322H23.2238V304.867H27.8528ZM27.7356 306.59H25.216V313.164H27.9348C29.3332 313.164 30.3606 312.879 31.0168 312.309C31.6809 311.738 32.0129 310.898 32.0129 309.789C32.0129 308.625 31.6613 307.801 30.9582 307.316C30.2629 306.832 29.1887 306.59 27.7356 306.59ZM48.7824 322L46.6731 316.562H39.8059L37.7082 322H35.6926L42.3957 304.797H44.1887L50.8449 322H48.7824ZM46.0754 314.793L44.0715 309.391C44.0246 309.25 43.9465 309.02 43.8371 308.699C43.7356 308.379 43.6301 308.047 43.5207 307.703C43.4113 307.359 43.3215 307.082 43.2512 306.871C43.1731 307.191 43.0871 307.512 42.9934 307.832C42.9074 308.145 42.8215 308.438 42.7356 308.711C42.6496 308.977 42.5754 309.203 42.5129 309.391L40.4738 314.793H46.0754ZM60.759 322L55.0051 306.836H54.9113C54.9426 307.156 54.9699 307.547 54.9934 308.008C55.0168 308.469 55.0363 308.973 55.052 309.52C55.0676 310.059 55.0754 310.609 55.0754 311.172V322H53.2238V304.867H56.177L61.6028 319.117H61.6848L67.1926 304.867H70.1223V322H68.1535V311.031C68.1535 310.523 68.1613 310.016 68.177 309.508C68.1926 308.992 68.2121 308.508 68.2356 308.055C68.259 307.594 68.2824 307.195 68.3059 306.859H68.2121L62.3879 322H60.759ZM85.5559 322L83.4465 316.562H76.5793L74.4817 322H72.466L79.1692 304.797H80.9621L87.6184 322H85.5559ZM82.8488 314.793L80.8449 309.391C80.7981 309.25 80.7199 309.02 80.6106 308.699C80.509 308.379 80.4035 308.047 80.2942 307.703C80.1848 307.359 80.0949 307.082 80.0246 306.871C79.9465 307.191 79.8606 307.512 79.7668 307.832C79.6809 308.145 79.5949 308.438 79.509 308.711C79.4231 308.977 79.3488 309.203 79.2863 309.391L77.2473 314.793H82.8488ZM105.771 322H96.2317V304.867H105.771V306.625H98.2238V312.168H105.337V313.902H98.2238V320.242H105.771V322ZM119.236 317.441C119.236 318.457 118.982 319.324 118.474 320.043C117.974 320.754 117.271 321.297 116.364 321.672C115.458 322.047 114.392 322.234 113.165 322.234C112.517 322.234 111.904 322.203 111.325 322.141C110.747 322.078 110.216 321.988 109.732 321.871C109.247 321.754 108.822 321.609 108.454 321.438V319.527C109.04 319.77 109.755 319.996 110.599 320.207C111.443 320.41 112.325 320.512 113.247 320.512C114.107 320.512 114.833 320.398 115.427 320.172C116.021 319.938 116.47 319.605 116.775 319.176C117.087 318.738 117.243 318.215 117.243 317.605C117.243 317.02 117.114 316.531 116.857 316.141C116.599 315.742 116.169 315.383 115.568 315.062C114.974 314.734 114.161 314.387 113.13 314.02C112.404 313.762 111.763 313.48 111.208 313.176C110.654 312.863 110.189 312.512 109.814 312.121C109.439 311.73 109.154 311.277 108.958 310.762C108.771 310.246 108.677 309.656 108.677 308.992C108.677 308.078 108.907 307.297 109.368 306.648C109.837 305.992 110.482 305.492 111.302 305.148C112.13 304.797 113.079 304.621 114.15 304.621C115.064 304.621 115.907 304.707 116.681 304.879C117.462 305.051 118.177 305.281 118.825 305.57L118.204 307.281C117.587 307.023 116.931 306.809 116.236 306.637C115.548 306.465 114.837 306.379 114.103 306.379C113.368 306.379 112.747 306.488 112.239 306.707C111.739 306.918 111.357 307.219 111.091 307.609C110.825 308 110.693 308.465 110.693 309.004C110.693 309.605 110.818 310.105 111.068 310.504C111.325 310.902 111.732 311.258 112.286 311.57C112.849 311.875 113.591 312.195 114.513 312.531C115.521 312.898 116.376 313.289 117.079 313.703C117.782 314.109 118.318 314.609 118.685 315.203C119.052 315.789 119.236 316.535 119.236 317.441ZM128.001 322H125.997V306.625H120.607V304.867H133.368V306.625H128.001V322ZM148.919 304.867V315.953C148.919 317.164 148.673 318.242 148.181 319.188C147.697 320.133 146.962 320.879 145.978 321.426C144.993 321.965 143.759 322.234 142.275 322.234C140.157 322.234 138.544 321.66 137.435 320.512C136.333 319.363 135.782 317.828 135.782 315.906V304.867H137.786V315.965C137.786 317.418 138.169 318.539 138.935 319.328C139.708 320.117 140.861 320.512 142.392 320.512C143.439 320.512 144.294 320.324 144.958 319.949C145.63 319.566 146.126 319.035 146.447 318.355C146.775 317.668 146.939 316.875 146.939 315.977V304.867H148.919ZM167.072 313.27C167.072 315.199 166.72 316.812 166.017 318.109C165.314 319.398 164.294 320.371 162.958 321.027C161.63 321.676 160.017 322 158.118 322H153.466V304.867H158.634C160.376 304.867 161.876 305.188 163.134 305.828C164.392 306.461 165.361 307.402 166.04 308.652C166.728 309.895 167.072 311.434 167.072 313.27ZM164.974 313.34C164.974 311.801 164.716 310.531 164.2 309.531C163.693 308.531 162.943 307.789 161.95 307.305C160.966 306.812 159.759 306.566 158.329 306.566H155.458V320.289H157.884C160.243 320.289 162.013 319.707 163.193 318.543C164.38 317.379 164.974 315.645 164.974 313.34ZM170.88 322V304.867H172.872V322H170.88ZM188.329 322L186.22 316.562H179.353L177.255 322H175.239L181.943 304.797H183.736L190.392 322H188.329ZM185.622 314.793L183.618 309.391C183.572 309.25 183.493 309.02 183.384 308.699C183.282 308.379 183.177 308.047 183.068 307.703C182.958 307.359 182.868 307.082 182.798 306.871C182.72 307.191 182.634 307.512 182.54 307.832C182.454 308.145 182.368 308.438 182.282 308.711C182.197 308.977 182.122 309.203 182.06 309.391L180.021 314.793H185.622ZM206.165 322H203.868L194.529 307.609H194.435C194.458 307.992 194.486 308.43 194.517 308.922C194.548 309.406 194.572 309.926 194.587 310.48C194.611 311.027 194.622 311.586 194.622 312.156V322H192.771V304.867H195.056L204.361 319.211H204.443C204.427 318.938 204.407 318.551 204.384 318.051C204.361 317.543 204.337 317 204.314 316.422C204.298 315.836 204.29 315.293 204.29 314.793V304.867H206.165V322ZM216.103 322H214.099V306.625H208.708V304.867H221.47V306.625H216.103V322ZM224.06 322V304.867H226.052V322H224.06ZM230.763 322V304.867H232.755V320.219H240.361V322H230.763ZM249.536 322V304.867H251.529V322H249.536ZM265.779 322H256.239V304.867H265.779V306.625H258.232V312.168H265.345V313.902H258.232V320.242H265.779V322ZM279.114 322H269.575V304.867H279.114V306.625H271.568V312.168H278.681V313.902H271.568V320.242H279.114V322ZM292.45 322H282.911V304.867H292.45V306.625H284.904V312.168H292.017V313.902H284.904V320.242H292.45V322ZM315.443 304.867V315.953C315.443 317.164 315.197 318.242 314.704 319.188C314.22 320.133 313.486 320.879 312.501 321.426C311.517 321.965 310.282 322.234 308.798 322.234C306.681 322.234 305.068 321.66 303.958 320.512C302.857 319.363 302.306 317.828 302.306 315.906V304.867H304.31V315.965C304.31 317.418 304.693 318.539 305.458 319.328C306.232 320.117 307.384 320.512 308.915 320.512C309.962 320.512 310.818 320.324 311.482 319.949C312.154 319.566 312.65 319.035 312.97 318.355C313.298 317.668 313.462 316.875 313.462 315.977V304.867H315.443ZM324.466 304.867C326.677 304.867 328.29 305.301 329.306 306.168C330.329 307.027 330.841 308.262 330.841 309.871C330.841 310.598 330.72 311.289 330.478 311.945C330.243 312.594 329.861 313.168 329.329 313.668C328.798 314.16 328.099 314.551 327.232 314.84C326.372 315.121 325.318 315.262 324.068 315.262H321.982V322H319.989V304.867H324.466ZM324.279 306.566H321.982V313.551H323.845C324.939 313.551 325.849 313.434 326.575 313.199C327.31 312.965 327.861 312.586 328.228 312.062C328.595 311.531 328.779 310.828 328.779 309.953C328.779 308.812 328.415 307.965 327.689 307.41C326.962 306.848 325.825 306.566 324.279 306.566ZM334.427 322V304.867H336.419V322H334.427ZM341.13 322V304.867H343.122V322H341.13ZM353.095 322H351.091V306.625H345.7V304.867H358.462V306.625H353.095V322ZM371.798 322L369.689 316.562H362.822L360.724 322H358.708L365.411 304.797H367.204L373.861 322H371.798ZM369.091 314.793L367.087 309.391C367.04 309.25 366.962 309.02 366.853 308.699C366.751 308.379 366.646 308.047 366.536 307.703C366.427 307.359 366.337 307.082 366.267 306.871C366.189 307.191 366.103 307.512 366.009 307.832C365.923 308.145 365.837 308.438 365.751 308.711C365.665 308.977 365.591 309.203 365.529 309.391L363.489 314.793H369.091ZM374.857 316.422V314.688H380.669V316.422H374.857ZM383.974 322V304.867H385.966V322H383.974ZM395.154 304.867C397.364 304.867 398.978 305.301 399.993 306.168C401.017 307.027 401.529 308.262 401.529 309.871C401.529 310.598 401.407 311.289 401.165 311.945C400.931 312.594 400.548 313.168 400.017 313.668C399.486 314.16 398.786 314.551 397.919 314.84C397.06 315.121 396.005 315.262 394.755 315.262H392.669V322H390.677V304.867H395.154ZM394.966 306.566H392.669V313.551H394.532C395.626 313.551 396.536 313.434 397.263 313.199C397.997 312.965 398.548 312.586 398.915 312.062C399.282 311.531 399.466 310.828 399.466 309.953C399.466 308.812 399.103 307.965 398.376 307.41C397.65 306.848 396.513 306.566 394.966 306.566ZM418.509 322H416.212L406.872 307.609H406.779C406.802 307.992 406.829 308.43 406.861 308.922C406.892 309.406 406.915 309.926 406.931 310.48C406.954 311.027 406.966 311.586 406.966 312.156V322H405.114V304.867H407.4L416.704 319.211H416.786C416.771 318.938 416.751 318.551 416.728 318.051C416.704 317.543 416.681 317 416.657 316.422C416.642 315.836 416.634 315.293 416.634 314.793V304.867H418.509V322Z" fill="#00629B"/>
<path d="M31.3203 289L35.7383 268.298H37.1543L32.7505 289H31.3203ZM38.5278 289L42.9175 268.298H53.3394L53.0703 269.615H44.1069L42.4219 277.459H50.8613L50.5923 278.776H42.1528L40.2554 287.683H49.2329L48.9639 289H38.5278ZM53.8208 289L58.2104 268.298H68.6323L68.3633 269.615H59.3999L57.7148 277.459H66.1543L65.8853 278.776H57.4458L55.5483 287.683H64.5259L64.2568 289H53.8208ZM69.1138 289L73.5034 268.298H83.9253L83.6562 269.615H74.6929L73.0078 277.459H81.4473L81.1782 278.776H72.7388L70.8413 287.683H79.8188L79.5498 289H69.1138ZM91.9399 289L96.3296 268.298H100.889C102.239 268.298 103.358 268.501 104.245 268.907C105.132 269.313 105.793 269.907 106.228 270.691C106.662 271.465 106.879 272.404 106.879 273.509C106.879 274.566 106.704 275.52 106.355 276.369C106.015 277.219 105.496 277.946 104.797 278.55C104.099 279.154 103.221 279.621 102.164 279.952C101.116 280.273 99.8838 280.433 98.4678 280.433H95.2109L93.3984 289H91.9399ZM95.4941 279.159H98.6802C100.191 279.159 101.441 278.937 102.433 278.493C103.424 278.04 104.165 277.398 104.656 276.567C105.147 275.727 105.392 274.722 105.392 273.551C105.392 272.164 104.986 271.158 104.174 270.535C103.372 269.903 102.201 269.586 100.663 269.586H97.519L95.4941 279.159ZM113.86 289.255C112.67 289.255 111.67 289.009 110.858 288.519C110.046 288.028 109.432 287.339 109.017 286.451C108.611 285.564 108.408 284.535 108.408 283.364C108.408 282.241 108.526 281.179 108.762 280.178C109.008 279.178 109.357 278.262 109.81 277.431C110.273 276.591 110.825 275.869 111.467 275.265C112.118 274.651 112.85 274.179 113.662 273.849C114.483 273.509 115.366 273.339 116.31 273.339C117.48 273.339 118.467 273.589 119.269 274.089C120.071 274.59 120.68 275.284 121.096 276.171C121.521 277.049 121.733 278.068 121.733 279.229C121.733 280.268 121.62 281.278 121.393 282.26C121.176 283.242 120.85 284.157 120.416 285.007C119.982 285.856 119.444 286.597 118.802 287.23C118.169 287.862 117.438 288.358 116.607 288.717C115.786 289.076 114.87 289.255 113.86 289.255ZM113.987 288.023C114.743 288.023 115.441 287.881 116.083 287.598C116.734 287.306 117.315 286.895 117.825 286.366C118.344 285.838 118.783 285.205 119.142 284.469C119.51 283.732 119.788 282.911 119.977 282.005C120.166 281.099 120.26 280.131 120.26 279.102C120.26 278.271 120.119 277.516 119.835 276.836C119.552 276.147 119.118 275.6 118.533 275.194C117.957 274.788 117.211 274.585 116.295 274.585C115.54 274.585 114.837 274.722 114.186 274.996C113.534 275.269 112.939 275.666 112.401 276.185C111.873 276.704 111.42 277.327 111.042 278.054C110.664 278.781 110.372 279.598 110.164 280.504C109.966 281.401 109.867 282.368 109.867 283.407C109.867 284.832 110.211 285.96 110.9 286.791C111.599 287.612 112.628 288.023 113.987 288.023ZM125.684 289L124.848 273.608H126.25L126.731 283.463C126.779 284.322 126.798 285.068 126.788 285.701C126.788 286.333 126.783 286.9 126.774 287.4H126.845C126.986 287.06 127.137 286.697 127.298 286.31C127.468 285.923 127.657 285.512 127.864 285.078C128.072 284.634 128.308 284.157 128.572 283.647L133.599 273.608H135.001L135.893 283.463C135.94 284.19 135.978 284.889 136.006 285.559C136.044 286.22 136.063 286.833 136.063 287.4H136.134C136.266 287.022 136.412 286.626 136.573 286.21C136.743 285.795 136.936 285.342 137.153 284.851C137.37 284.351 137.611 283.803 137.875 283.208L142.364 273.608H143.865L136.629 289H135.058L134.166 278.791C134.128 278.394 134.099 278.021 134.081 277.672C134.062 277.313 134.048 276.95 134.038 276.582C134.029 276.204 134.019 275.789 134.01 275.335H133.939C133.778 275.732 133.618 276.105 133.458 276.454C133.306 276.803 133.146 277.157 132.976 277.516C132.816 277.865 132.627 278.257 132.41 278.691L127.227 289H125.684ZM150.025 289.283C149.015 289.283 148.094 289.071 147.264 288.646C146.442 288.221 145.786 287.575 145.295 286.706C144.814 285.838 144.573 284.738 144.573 283.407C144.573 282.057 144.767 280.778 145.154 279.569C145.541 278.361 146.084 277.29 146.782 276.355C147.481 275.411 148.307 274.67 149.26 274.132C150.214 273.584 151.262 273.311 152.404 273.311C153.631 273.311 154.589 273.622 155.278 274.245C155.977 274.868 156.326 275.699 156.326 276.737C156.326 277.615 156.104 278.375 155.661 279.017C155.226 279.659 154.594 280.188 153.763 280.603C152.932 281.018 151.941 281.33 150.79 281.538C149.638 281.745 148.349 281.849 146.924 281.849H146.131C146.103 282.038 146.079 282.274 146.06 282.557C146.041 282.831 146.032 283.1 146.032 283.364C146.032 284.865 146.405 286.022 147.15 286.833C147.896 287.636 148.939 288.037 150.28 288.037C151.073 288.037 151.8 287.933 152.46 287.726C153.131 287.508 153.749 287.268 154.315 287.003V288.292C153.777 288.566 153.145 288.802 152.418 289C151.691 289.189 150.893 289.283 150.025 289.283ZM146.343 280.617H147.292C148.736 280.617 150.03 280.49 151.172 280.235C152.324 279.971 153.235 279.56 153.905 279.003C154.575 278.446 154.91 277.724 154.91 276.836C154.91 276.176 154.688 275.633 154.245 275.208C153.81 274.774 153.154 274.557 152.276 274.557C151.465 274.557 150.657 274.793 149.855 275.265C149.053 275.737 148.34 276.426 147.717 277.332C147.094 278.238 146.636 279.333 146.343 280.617ZM158.153 289L161.41 273.608H162.599L161.976 277.19H162.061C162.401 276.643 162.826 276.072 163.335 275.477C163.845 274.882 164.435 274.377 165.105 273.962C165.785 273.547 166.545 273.339 167.385 273.339C167.687 273.339 167.985 273.362 168.277 273.41C168.57 273.447 168.839 273.504 169.084 273.58L168.773 274.868C168.556 274.812 168.32 274.764 168.065 274.727C167.819 274.689 167.55 274.67 167.258 274.67C166.569 274.67 165.898 274.854 165.247 275.222C164.596 275.59 163.996 276.095 163.449 276.737C162.901 277.379 162.429 278.111 162.033 278.932C161.646 279.744 161.353 280.603 161.155 281.509L159.583 289H158.153ZM181.503 289.283C180.616 289.283 179.856 289.066 179.223 288.632C178.591 288.198 178.109 287.579 177.779 286.777C177.448 285.965 177.283 285.002 177.283 283.888C177.283 282.859 177.392 281.84 177.609 280.83C177.835 279.819 178.161 278.866 178.586 277.969C179.02 277.063 179.549 276.261 180.172 275.562C180.795 274.863 181.512 274.316 182.324 273.919C183.136 273.514 184.028 273.311 185 273.311C185.822 273.311 186.506 273.485 187.054 273.834C187.601 274.174 188.031 274.604 188.342 275.123C188.654 275.642 188.88 276.166 189.022 276.695H189.121L189.942 273.608H191.075L187.818 289H186.657L187.294 285.403H187.224C186.855 285.979 186.383 286.569 185.808 287.173C185.241 287.768 184.59 288.268 183.854 288.674C183.127 289.08 182.343 289.283 181.503 289.283ZM181.885 288.037C182.697 288.037 183.518 287.744 184.349 287.159C185.189 286.564 185.94 285.762 186.601 284.752C187.261 283.732 187.733 282.585 188.017 281.311C188.149 280.735 188.238 280.225 188.286 279.782C188.342 279.338 188.371 278.927 188.371 278.55C188.371 277.304 188.078 276.331 187.493 275.633C186.907 274.925 186.105 274.571 185.085 274.571C184.292 274.571 183.566 274.745 182.905 275.095C182.244 275.444 181.659 275.925 181.149 276.539C180.639 277.153 180.205 277.856 179.846 278.649C179.497 279.442 179.228 280.287 179.039 281.184C178.85 282.08 178.756 282.987 178.756 283.902C178.756 285.205 179.02 286.22 179.549 286.947C180.077 287.674 180.856 288.037 181.885 288.037ZM192.774 289L196.045 273.58H197.292L196.668 277.162H196.711C197.051 276.596 197.499 276.015 198.056 275.42C198.613 274.826 199.274 274.321 200.039 273.905C200.813 273.49 201.676 273.282 202.63 273.282C203.47 273.282 204.183 273.429 204.768 273.721C205.363 274.014 205.811 274.443 206.113 275.01C206.425 275.576 206.581 276.27 206.581 277.091C206.581 277.441 206.552 277.804 206.496 278.182C206.448 278.559 206.387 278.923 206.312 279.272L204.244 289H202.743L204.853 279.074C204.929 278.715 204.985 278.389 205.023 278.097C205.061 277.795 205.08 277.521 205.08 277.275C205.08 276.369 204.839 275.699 204.357 275.265C203.876 274.821 203.192 274.599 202.304 274.599C201.389 274.599 200.492 274.887 199.614 275.463C198.745 276.039 197.976 276.846 197.306 277.884C196.635 278.923 196.154 280.136 195.861 281.523L194.261 289H192.774ZM214.015 289.283C213.08 289.283 212.292 289.071 211.65 288.646C211.008 288.212 210.522 287.593 210.191 286.791C209.87 285.989 209.71 285.021 209.71 283.888C209.71 282.878 209.819 281.868 210.036 280.858C210.253 279.848 210.569 278.89 210.984 277.983C211.409 277.077 211.933 276.275 212.556 275.576C213.189 274.878 213.916 274.33 214.737 273.934C215.568 273.528 216.497 273.325 217.526 273.325C218.395 273.325 219.122 273.495 219.707 273.834C220.292 274.165 220.755 274.59 221.095 275.109C221.444 275.619 221.685 276.147 221.817 276.695H221.902C221.968 276.261 222.034 275.826 222.1 275.392C222.176 274.948 222.256 274.514 222.341 274.089C222.435 273.655 222.525 273.226 222.61 272.801L223.856 266.967H225.272L220.599 289H219.41L220.047 285.361H219.962C219.537 286.003 219.032 286.626 218.447 287.23C217.861 287.825 217.196 288.316 216.45 288.703C215.714 289.09 214.902 289.283 214.015 289.283ZM214.383 288.037C214.921 288.037 215.464 287.924 216.011 287.697C216.559 287.461 217.083 287.136 217.583 286.72C218.093 286.295 218.565 285.79 218.999 285.205C219.433 284.62 219.816 283.973 220.146 283.265C220.476 282.557 220.731 281.807 220.911 281.014C221.099 280.221 221.194 279.399 221.194 278.55C221.194 277.257 220.868 276.27 220.217 275.59C219.575 274.911 218.692 274.571 217.569 274.571C216.738 274.571 215.988 274.75 215.317 275.109C214.647 275.458 214.052 275.944 213.533 276.567C213.023 277.19 212.594 277.898 212.245 278.691C211.895 279.484 211.631 280.329 211.452 281.226C211.272 282.123 211.183 283.015 211.183 283.902C211.183 285.224 211.447 286.243 211.976 286.961C212.514 287.678 213.316 288.037 214.383 288.037ZM233.74 289L238.129 268.298H248.551L248.282 269.615H239.319L237.634 277.459H246.073L245.804 278.776H237.365L235.467 287.683H244.445L244.176 289H233.74ZM248.537 289L251.808 273.58H253.054L252.431 277.162H252.474C252.813 276.596 253.262 276.015 253.819 275.42C254.376 274.826 255.037 274.321 255.801 273.905C256.575 273.49 257.439 273.282 258.393 273.282C259.233 273.282 259.945 273.429 260.531 273.721C261.125 274.014 261.574 274.443 261.876 275.01C262.188 275.576 262.343 276.27 262.343 277.091C262.343 277.441 262.315 277.804 262.258 278.182C262.211 278.559 262.15 278.923 262.074 279.272L260.007 289H258.506L260.616 279.074C260.691 278.715 260.748 278.389 260.786 278.097C260.823 277.795 260.842 277.521 260.842 277.275C260.842 276.369 260.602 275.699 260.12 275.265C259.639 274.821 258.954 274.599 258.067 274.599C257.151 274.599 256.254 274.887 255.376 275.463C254.508 276.039 253.739 276.846 253.068 277.884C252.398 278.923 251.917 280.136 251.624 281.523L250.024 289H248.537ZM271.123 289.283C270.112 289.283 269.192 289.071 268.361 288.646C267.54 288.221 266.884 287.575 266.393 286.706C265.912 285.838 265.671 284.738 265.671 283.407C265.671 282.057 265.864 280.778 266.251 279.569C266.639 278.361 267.181 277.29 267.88 276.355C268.578 275.411 269.404 274.67 270.358 274.132C271.311 273.584 272.359 273.311 273.501 273.311C274.729 273.311 275.687 273.622 276.376 274.245C277.075 274.868 277.424 275.699 277.424 276.737C277.424 277.615 277.202 278.375 276.758 279.017C276.324 279.659 275.692 280.188 274.861 280.603C274.03 281.018 273.039 281.33 271.887 281.538C270.736 281.745 269.447 281.849 268.021 281.849H267.229C267.2 282.038 267.177 282.274 267.158 282.557C267.139 282.831 267.129 283.1 267.129 283.364C267.129 284.865 267.502 286.022 268.248 286.833C268.994 287.636 270.037 288.037 271.377 288.037C272.17 288.037 272.897 287.933 273.558 287.726C274.228 287.508 274.847 287.268 275.413 287.003V288.292C274.875 288.566 274.243 288.802 273.516 289C272.789 289.189 271.991 289.283 271.123 289.283ZM267.441 280.617H268.39C269.834 280.617 271.127 280.49 272.27 280.235C273.421 279.971 274.332 279.56 275.002 279.003C275.673 278.446 276.008 277.724 276.008 276.836C276.008 276.176 275.786 275.633 275.342 275.208C274.908 274.774 274.252 274.557 273.374 274.557C272.562 274.557 271.755 274.793 270.953 275.265C270.15 275.737 269.438 276.426 268.814 277.332C268.191 278.238 267.734 279.333 267.441 280.617ZM279.25 289L282.507 273.608H283.697L283.074 277.19H283.159C283.499 276.643 283.923 276.072 284.433 275.477C284.943 274.882 285.533 274.377 286.203 273.962C286.883 273.547 287.643 273.339 288.483 273.339C288.785 273.339 289.082 273.362 289.375 273.41C289.668 273.447 289.937 273.504 290.182 273.58L289.871 274.868C289.653 274.812 289.417 274.764 289.163 274.727C288.917 274.689 288.648 274.67 288.355 274.67C287.666 274.67 286.996 274.854 286.345 275.222C285.693 275.59 285.094 276.095 284.546 276.737C283.999 277.379 283.527 278.111 283.13 278.932C282.743 279.744 282.451 280.603 282.252 281.509L280.681 289H279.25ZM293.892 295.967C292.146 295.967 290.772 295.627 289.771 294.947C288.78 294.268 288.285 293.309 288.285 292.073C288.285 290.959 288.648 290.005 289.375 289.212C290.092 288.429 291.164 287.806 292.589 287.343C292.25 287.154 291.995 286.909 291.825 286.607C291.655 286.295 291.57 285.956 291.57 285.587C291.57 285.012 291.782 284.492 292.207 284.03C292.632 283.567 293.26 283.157 294.09 282.798C293.439 282.439 292.943 281.92 292.604 281.24C292.264 280.561 292.103 279.824 292.122 279.031C292.141 278.116 292.316 277.294 292.646 276.567C292.976 275.831 293.434 275.208 294.02 274.698C294.529 274.264 295.119 273.929 295.79 273.693C296.46 273.447 297.196 273.325 297.999 273.325C298.329 273.325 298.65 273.353 298.961 273.41C299.282 273.457 299.584 273.528 299.868 273.622H305.064L304.824 274.698L301.354 274.84C301.657 275.189 301.883 275.609 302.034 276.1C302.195 276.582 302.265 277.115 302.247 277.7C302.228 278.559 302.077 279.343 301.793 280.051C301.51 280.759 301.104 281.363 300.576 281.863C300.075 282.326 299.471 282.689 298.763 282.954C298.055 283.208 297.248 283.336 296.342 283.336C296.115 283.336 295.903 283.326 295.705 283.308C295.506 283.279 295.322 283.246 295.152 283.208C294.331 283.463 293.746 283.799 293.396 284.214C293.047 284.62 292.873 285.007 292.873 285.375C292.873 285.734 292.995 286.026 293.241 286.253C293.411 286.395 293.632 286.513 293.906 286.607C294.189 286.701 294.534 286.763 294.94 286.791L296.667 286.947C297.753 287.051 298.655 287.258 299.372 287.57C300.099 287.872 300.642 288.283 301 288.802C301.369 289.321 301.553 289.944 301.553 290.671C301.553 291.653 301.312 292.493 300.831 293.191C300.359 293.89 299.721 294.456 298.919 294.891C298.23 295.249 297.451 295.518 296.583 295.698C295.723 295.877 294.827 295.967 293.892 295.967ZM294.034 294.834C294.921 294.834 295.719 294.749 296.427 294.579C297.144 294.419 297.763 294.187 298.282 293.885C298.905 293.536 299.377 293.102 299.698 292.583C300.028 292.063 300.193 291.483 300.193 290.841C300.193 290.492 300.141 290.185 300.038 289.92C299.934 289.656 299.778 289.425 299.57 289.227C299.24 288.896 298.782 288.641 298.197 288.462C297.621 288.283 296.922 288.16 296.101 288.094L293.736 287.881C292.802 288.117 292.032 288.434 291.428 288.83C290.824 289.227 290.376 289.684 290.083 290.204C289.79 290.732 289.644 291.313 289.644 291.945C289.644 292.918 290.036 293.64 290.819 294.112C291.603 294.593 292.674 294.834 294.034 294.834ZM296.512 282.26C297.418 282.26 298.192 282.062 298.834 281.665C299.485 281.269 299.99 280.721 300.349 280.022C300.708 279.324 300.892 278.536 300.901 277.658C300.92 277.148 300.859 276.695 300.717 276.298C300.585 275.892 300.382 275.553 300.108 275.279C299.854 275.005 299.533 274.797 299.146 274.656C298.768 274.505 298.338 274.429 297.857 274.429C297.187 274.429 296.583 274.547 296.044 274.783C295.506 275.01 295.049 275.331 294.671 275.746C294.293 276.152 294.001 276.633 293.793 277.19C293.585 277.747 293.477 278.356 293.467 279.017C293.467 279.461 293.514 279.862 293.609 280.221C293.703 280.579 293.845 280.891 294.034 281.155C294.553 281.892 295.379 282.26 296.512 282.26ZM302.969 296.023C302.563 296.023 302.228 295.995 301.963 295.938C301.69 295.891 301.43 295.82 301.185 295.726V294.48C301.421 294.565 301.68 294.636 301.963 294.692C302.247 294.749 302.572 294.777 302.94 294.777C303.677 294.777 304.323 294.518 304.88 293.999C305.447 293.479 306.037 292.686 306.65 291.62L308.18 288.958L305.688 273.608H307.132L308.576 282.939C308.671 283.544 308.751 284.138 308.817 284.724C308.892 285.299 308.949 285.833 308.987 286.324C309.034 286.805 309.062 287.211 309.072 287.542H309.157C309.289 287.249 309.468 286.871 309.695 286.409C309.921 285.946 310.172 285.446 310.445 284.908C310.719 284.36 311.002 283.832 311.295 283.322L316.647 273.608H318.191L307.911 292.073C307.439 292.913 306.957 293.626 306.466 294.211C305.985 294.806 305.461 295.254 304.895 295.556C304.338 295.868 303.696 296.023 302.969 296.023ZM329.93 289.283C328.769 289.283 327.796 289.194 327.013 289.014C326.229 288.844 325.516 288.618 324.875 288.334V286.848C325.516 287.169 326.253 287.442 327.083 287.669C327.914 287.886 328.868 287.995 329.944 287.995C330.586 287.995 331.232 287.914 331.884 287.754C332.545 287.584 333.149 287.32 333.696 286.961C334.253 286.602 334.697 286.14 335.027 285.573C335.367 284.997 335.537 284.304 335.537 283.492C335.537 282.746 335.377 282.109 335.056 281.58C334.735 281.051 334.267 280.575 333.654 280.15C333.04 279.725 332.304 279.291 331.445 278.847C330.775 278.479 330.142 278.073 329.547 277.629C328.962 277.176 328.49 276.638 328.131 276.015C327.773 275.392 327.593 274.642 327.593 273.764C327.593 272.763 327.777 271.899 328.146 271.172C328.523 270.445 329.028 269.851 329.661 269.388C330.303 268.916 331.02 268.567 331.813 268.34C332.606 268.114 333.423 268 334.263 268C335.32 268 336.226 268.104 336.981 268.312C337.737 268.51 338.473 268.784 339.19 269.133L338.624 270.408C337.944 270.068 337.255 269.804 336.557 269.615C335.868 269.417 335.093 269.317 334.234 269.317C333.659 269.317 333.069 269.398 332.464 269.558C331.87 269.709 331.317 269.955 330.808 270.294C330.298 270.634 329.887 271.083 329.576 271.64C329.264 272.187 329.108 272.862 329.108 273.665C329.108 274.391 329.259 274.996 329.562 275.477C329.864 275.958 330.27 276.379 330.779 276.737C331.289 277.087 331.855 277.431 332.479 277.771C333.347 278.243 334.126 278.724 334.815 279.215C335.504 279.697 336.047 280.268 336.443 280.929C336.849 281.58 337.052 282.406 337.052 283.407C337.052 284.445 336.849 285.337 336.443 286.083C336.047 286.829 335.509 287.438 334.829 287.91C334.149 288.382 333.385 288.731 332.535 288.958C331.695 289.175 330.826 289.283 329.93 289.283ZM345.832 289.255C344.642 289.255 343.641 289.009 342.83 288.519C342.018 288.028 341.404 287.339 340.989 286.451C340.583 285.564 340.38 284.535 340.38 283.364C340.38 282.241 340.498 281.179 340.734 280.178C340.979 279.178 341.329 278.262 341.782 277.431C342.244 276.591 342.797 275.869 343.438 275.265C344.09 274.651 344.821 274.179 345.633 273.849C346.455 273.509 347.337 273.339 348.281 273.339C349.452 273.339 350.438 273.589 351.241 274.089C352.043 274.59 352.652 275.284 353.067 276.171C353.492 277.049 353.705 278.068 353.705 279.229C353.705 280.268 353.591 281.278 353.365 282.26C353.148 283.242 352.822 284.157 352.388 285.007C351.953 285.856 351.415 286.597 350.773 287.23C350.141 287.862 349.409 288.358 348.579 288.717C347.757 289.076 346.842 289.255 345.832 289.255ZM345.959 288.023C346.714 288.023 347.413 287.881 348.055 287.598C348.706 287.306 349.287 286.895 349.796 286.366C350.316 285.838 350.755 285.205 351.113 284.469C351.481 283.732 351.76 282.911 351.949 282.005C352.138 281.099 352.232 280.131 352.232 279.102C352.232 278.271 352.09 277.516 351.807 276.836C351.524 276.147 351.09 275.6 350.504 275.194C349.929 274.788 349.183 274.585 348.267 274.585C347.512 274.585 346.809 274.722 346.157 274.996C345.506 275.269 344.911 275.666 344.373 276.185C343.844 276.704 343.391 277.327 343.014 278.054C342.636 278.781 342.343 279.598 342.136 280.504C341.938 281.401 341.838 282.368 341.838 283.407C341.838 284.832 342.183 285.96 342.872 286.791C343.571 287.612 344.6 288.023 345.959 288.023ZM362.385 289.283C361.205 289.283 360.195 289.042 359.354 288.561C358.514 288.07 357.868 287.386 357.415 286.508C356.971 285.63 356.749 284.601 356.749 283.421C356.749 282.345 356.862 281.306 357.089 280.306C357.325 279.305 357.669 278.38 358.123 277.53C358.576 276.681 359.128 275.944 359.779 275.321C360.44 274.689 361.195 274.198 362.045 273.849C362.904 273.49 363.843 273.311 364.863 273.311C365.524 273.311 366.175 273.372 366.817 273.495C367.468 273.617 368.039 273.792 368.53 274.019L368.12 275.279C367.676 275.062 367.161 274.892 366.576 274.769C366 274.637 365.429 274.571 364.863 274.571C363.853 274.571 362.937 274.802 362.116 275.265C361.294 275.718 360.591 276.35 360.006 277.162C359.43 277.974 358.986 278.913 358.675 279.98C358.363 281.037 358.208 282.17 358.208 283.378C358.208 284.275 358.368 285.078 358.689 285.786C359.019 286.484 359.506 287.036 360.147 287.442C360.789 287.839 361.573 288.037 362.498 288.037C363.187 288.037 363.829 287.957 364.424 287.796C365.019 287.626 365.613 287.405 366.208 287.131V288.419C365.717 288.665 365.155 288.868 364.523 289.028C363.89 289.198 363.178 289.283 362.385 289.283ZM369.252 289L372.509 273.608H373.939L370.683 289H369.252ZM374.109 270.252C373.826 270.252 373.595 270.176 373.416 270.025C373.246 269.865 373.161 269.638 373.161 269.346C373.161 269.11 373.203 268.883 373.288 268.666C373.382 268.449 373.519 268.274 373.699 268.142C373.878 268 374.095 267.93 374.35 267.93C374.662 267.93 374.888 268.015 375.03 268.185C375.171 268.345 375.242 268.553 375.242 268.808C375.242 269.195 375.134 269.535 374.917 269.827C374.699 270.11 374.43 270.252 374.109 270.252ZM382.025 289.283C381.015 289.283 380.094 289.071 379.264 288.646C378.442 288.221 377.786 287.575 377.295 286.706C376.814 285.838 376.573 284.738 376.573 283.407C376.573 282.057 376.767 280.778 377.154 279.569C377.541 278.361 378.084 277.29 378.782 276.355C379.481 275.411 380.307 274.67 381.26 274.132C382.214 273.584 383.262 273.311 384.404 273.311C385.631 273.311 386.589 273.622 387.278 274.245C387.977 274.868 388.326 275.699 388.326 276.737C388.326 277.615 388.104 278.375 387.661 279.017C387.226 279.659 386.594 280.188 385.763 280.603C384.932 281.018 383.941 281.33 382.79 281.538C381.638 281.745 380.349 281.849 378.924 281.849H378.131C378.103 282.038 378.079 282.274 378.06 282.557C378.041 282.831 378.032 283.1 378.032 283.364C378.032 284.865 378.405 286.022 379.15 286.833C379.896 287.636 380.939 288.037 382.28 288.037C383.073 288.037 383.8 287.933 384.46 287.726C385.131 287.508 385.749 287.268 386.315 287.003V288.292C385.777 288.566 385.145 288.802 384.418 289C383.691 289.189 382.893 289.283 382.025 289.283ZM378.343 280.617H379.292C380.736 280.617 382.03 280.49 383.172 280.235C384.324 279.971 385.235 279.56 385.905 279.003C386.575 278.446 386.91 277.724 386.91 276.836C386.91 276.176 386.688 275.633 386.245 275.208C385.81 274.774 385.154 274.557 384.276 274.557C383.465 274.557 382.657 274.793 381.855 275.265C381.053 275.737 380.34 276.426 379.717 277.332C379.094 278.238 378.636 279.333 378.343 280.617ZM393.919 289.283C392.938 289.283 392.173 289.042 391.625 288.561C391.078 288.08 390.804 287.343 390.804 286.352C390.804 286.088 390.823 285.8 390.861 285.488C390.899 285.177 390.955 284.856 391.031 284.525L393.084 274.783H390.79L390.974 273.948L393.353 273.48L394.627 269.898H395.576L394.783 273.608H399.201L398.946 274.783H394.528L392.475 284.483C392.409 284.785 392.352 285.082 392.305 285.375C392.267 285.668 392.249 285.941 392.249 286.196C392.249 286.763 392.39 287.216 392.673 287.556C392.957 287.886 393.429 288.051 394.089 288.051C394.514 288.051 394.896 288.018 395.236 287.952C395.586 287.886 395.925 287.796 396.256 287.683V288.858C395.973 288.962 395.628 289.057 395.222 289.142C394.826 289.236 394.391 289.283 393.919 289.283ZM397.19 296.023C396.785 296.023 396.449 295.995 396.185 295.938C395.911 295.891 395.652 295.82 395.406 295.726V294.48C395.642 294.565 395.902 294.636 396.185 294.692C396.468 294.749 396.794 294.777 397.162 294.777C397.898 294.777 398.545 294.518 399.102 293.999C399.668 293.479 400.258 292.686 400.872 291.62L402.401 288.958L399.909 273.608H401.354L402.798 282.939C402.892 283.544 402.972 284.138 403.039 284.724C403.114 285.299 403.171 285.833 403.208 286.324C403.256 286.805 403.284 287.211 403.293 287.542H403.378C403.511 287.249 403.69 286.871 403.917 286.409C404.143 285.946 404.393 285.446 404.667 284.908C404.941 284.36 405.224 283.832 405.517 283.322L410.869 273.608H412.413L402.132 292.073C401.66 292.913 401.179 293.626 400.688 294.211C400.207 294.806 399.683 295.254 399.116 295.556C398.559 295.868 397.917 296.023 397.19 296.023Z" fill="#00629B"/>
<path d="M200.622 116.284C199.98 114.077 199.261 111.896 198.491 109.766C198.389 109.689 198.26 109.612 198.158 109.535C199.082 111.716 199.903 113.974 200.622 116.258V116.284Z" fill="url(#paint0_linear_44_11451)"/>
<path d="M197.978 189.549C198.106 189.472 198.235 189.395 198.363 189.318C199.236 186.906 200.057 184.468 200.776 181.953C199.954 184.545 199.03 187.086 197.978 189.549Z" fill="url(#paint1_linear_44_11451)"/>
<path d="M197.927 173.972L198.004 173.715C194.744 174.434 191.485 175.101 188.2 175.743C191.357 175.358 194.436 174.819 197.465 174.1L197.952 173.998L197.927 173.972Z" fill="url(#paint2_linear_44_11451)"/>
<path d="M197.927 173.972L198.004 173.715C194.744 174.434 191.485 175.101 188.2 175.743C191.357 175.358 194.436 174.819 197.465 174.1L197.952 173.998L197.927 173.972Z" fill="url(#paint3_linear_44_11451)"/>
<path d="M203.317 172.483C203.317 172.483 203.24 172.483 203.214 172.509L203.317 172.483Z" fill="url(#paint4_linear_44_11451)"/>
<path d="M203.317 172.483C203.317 172.483 203.24 172.483 203.214 172.509L203.317 172.483Z" fill="url(#paint5_linear_44_11451)"/>
<path d="M209.861 175.486V176.102H208.141C206.242 176.744 204.343 177.36 202.392 177.873L201.93 178.001V178.052C205.934 177.154 209.938 176.154 213.864 175.101C215.995 172.586 217.868 170.174 219.408 168.147C217.996 168.558 216.585 168.968 215.173 169.379C214.198 171.226 213.12 173.023 211.914 174.716C211.247 174.999 210.554 175.255 209.861 175.512V175.486Z" fill="url(#paint6_linear_44_11451)"/>
<path d="M209.861 175.486C209.296 175.691 208.706 175.896 208.141 176.102H209.861V175.486Z" fill="url(#paint7_linear_44_11451)"/>
<path d="M209.861 175.486C209.296 175.691 208.706 175.896 208.141 176.102H209.861V175.486Z" fill="url(#paint8_linear_44_11451)"/>
<path d="M198.363 189.318C197.234 192.397 195.976 195.4 194.59 198.299C205.652 193.295 214.455 184.493 219.691 173.484C217.766 174.049 215.815 174.588 213.865 175.101C209.425 180.362 203.907 185.982 198.363 189.318Z" fill="url(#paint9_linear_44_11451)"/>
<path d="M201.905 178.027C201.905 178.027 201.828 178.027 201.802 178.027C201.469 179.335 201.135 180.644 200.75 181.927C201.109 180.772 201.469 179.592 201.777 178.412L201.879 178.001L201.905 178.027Z" fill="url(#paint10_linear_44_11451)"/>
<path d="M197.978 189.549C199.031 187.085 199.955 184.545 200.776 181.953C201.135 180.67 201.495 179.361 201.828 178.052C199.056 178.668 196.259 179.258 193.436 179.823C193.975 179.72 194.539 179.643 195.104 179.515L196.49 179.258L196.028 180.593C194.591 184.853 192.743 189.01 190.459 193.141C185.813 194.886 180.86 195.939 175.753 196.221V182.774C174.11 183.005 172.467 183.21 170.851 183.39V196.221C165.641 195.939 160.687 194.835 156.067 193.013C154.605 190.396 153.347 187.752 152.243 185.084C150.498 185.186 148.727 185.289 146.956 185.366C147.418 186.649 147.906 187.932 148.445 189.19C146.674 188.086 144.98 186.854 143.389 185.52C140.283 185.623 137.178 185.674 134.047 185.674C143.825 196.247 157.787 202.867 173.314 202.867C181.014 202.867 188.174 201.251 194.616 198.351C196.002 195.477 197.26 192.474 198.389 189.369C198.261 189.446 198.132 189.523 198.004 189.6L197.978 189.549Z" fill="url(#paint11_linear_44_11451)"/>
<path d="M197.978 189.549C199.031 187.085 199.955 184.545 200.776 181.953C201.135 180.67 201.495 179.361 201.828 178.052C199.056 178.668 196.259 179.258 193.436 179.823C193.975 179.72 194.539 179.643 195.104 179.515L196.49 179.258L196.028 180.593C194.591 184.853 192.743 189.01 190.459 193.141C185.813 194.886 180.86 195.939 175.753 196.221V182.774C174.11 183.005 172.467 183.21 170.851 183.39V196.221C165.641 195.939 160.687 194.835 156.067 193.013C154.605 190.396 153.347 187.752 152.243 185.084C150.498 185.186 148.727 185.289 146.956 185.366C147.418 186.649 147.906 187.932 148.445 189.19C146.674 188.086 144.98 186.854 143.389 185.52C140.283 185.623 137.178 185.674 134.047 185.674C143.825 196.247 157.787 202.867 173.314 202.867C181.014 202.867 188.174 201.251 194.616 198.351C196.002 195.477 197.26 192.474 198.389 189.369C198.261 189.446 198.132 189.523 198.004 189.6L197.978 189.549Z" fill="url(#paint12_linear_44_11451)"/>
<path d="M141.155 152.596C141.309 158.678 141.925 164.939 143.106 171.149L141.155 152.596Z" fill="url(#paint13_linear_44_11451)"/>
<path d="M141.155 152.596C141.309 158.678 141.925 164.939 143.106 171.149L141.155 152.596Z" fill="url(#paint14_linear_44_11451)"/>
<path d="M133.482 174.203C136.921 175.666 140.514 176.872 144.184 177.873L144.646 178.001L144.775 178.463C144.98 179.258 145.211 180.054 145.467 180.824C147.161 180.747 148.855 180.644 150.549 180.541L150.113 179.284L151.499 179.541C152.756 179.772 154.04 180.002 155.297 180.182C166.461 179.284 177.446 177.796 188.2 175.768C184.453 176.23 180.603 176.512 176.599 176.589H175.752V151.826H200.545V152.672C200.365 160.089 199.595 166.941 198.055 173.51L198.004 173.741C199.159 173.484 200.314 173.202 201.469 172.945V120.159H201.674C201.34 118.876 201.007 117.593 200.622 116.309C199.877 114.026 199.082 111.767 198.158 109.586C198.26 109.663 198.389 109.74 198.491 109.817C197.311 106.532 195.976 103.35 194.513 100.296C188.02 97.4736 180.834 95.9082 173.288 95.9082C143.748 95.9082 119.828 119.851 119.828 149.362C119.828 161.295 123.755 172.33 130.351 181.209C133.174 181.209 135.971 181.157 138.743 181.08C136.793 178.95 135.022 176.666 133.482 174.203ZM175.752 102.503C180.937 102.76 185.916 103.889 190.51 105.711C192.768 109.766 194.59 113.897 196.028 118.106L196.49 119.44L195.104 119.184C188.893 118.003 182.605 117.387 176.548 117.233H175.752V102.503ZM175.752 122.109H176.599C183.991 122.289 190.869 123.033 197.465 124.598L197.952 124.727L198.055 125.214C199.595 131.784 200.339 138.661 200.519 146.077V146.924H175.752V122.135V122.109ZM170.825 176.589H169.978C162.56 176.41 155.682 175.64 149.138 174.1L148.65 173.998L148.547 173.51C147.007 166.941 146.237 160.063 146.083 152.647V151.8H170.85V176.589H170.825ZM150.575 118.106C152.012 113.872 153.834 109.766 156.093 105.685C160.687 103.863 165.666 102.76 170.85 102.503V117.208H170.055C163.998 117.387 157.71 118.003 151.524 119.184L150.139 119.44L150.6 118.106H150.575ZM148.65 124.701L149.138 124.573C155.733 123.033 162.612 122.263 169.978 122.109H170.825V146.873H146.032V146.026C146.212 138.661 146.982 131.758 148.522 125.189L148.65 124.701ZM148.419 109.535C146.956 112.973 145.75 116.566 144.775 120.236L144.646 120.698L144.184 120.826C140.514 121.827 136.921 123.033 133.482 124.47C137.255 118.439 142.388 113.307 148.419 109.535ZM129.632 132.143C133.687 129.885 137.819 128.063 142.054 126.626L143.389 126.164L143.132 127.549C141.951 133.76 141.335 140.047 141.181 146.077V146.873H126.45C126.706 141.689 127.836 136.736 129.658 132.117L129.632 132.143ZM129.632 166.556C127.81 161.962 126.706 156.984 126.424 151.8H141.13V152.595L143.106 171.149L143.363 172.535L142.028 172.099C137.794 170.662 133.687 168.84 129.632 166.581V166.556Z" fill="url(#paint15_linear_44_11451)"/>
<path d="M201.469 172.919C202.008 172.791 202.521 172.689 203.06 172.56C204.523 165.144 205.293 157.368 205.293 149.362C205.293 139.148 204.01 129.32 201.674 120.133H201.469V172.919Z" fill="url(#paint16_linear_44_11451)"/>
<path d="M201.469 172.919C202.008 172.791 202.521 172.689 203.06 172.56C204.523 165.144 205.293 157.368 205.293 149.362C205.293 139.148 204.01 129.32 201.674 120.133H201.469V172.919Z" fill="url(#paint17_linear_44_11451)"/>
<path d="M211.914 174.691C213.12 172.997 214.224 171.201 215.173 169.353C213.403 169.866 211.632 170.328 209.861 170.816V175.486C210.554 175.23 211.221 174.973 211.914 174.691Z" fill="url(#paint18_linear_44_11451)"/>
<path d="M211.914 174.691C213.12 172.997 214.224 171.201 215.173 169.353C213.403 169.866 211.632 170.328 209.861 170.816V175.486C210.554 175.23 211.221 174.973 211.914 174.691Z" fill="url(#paint19_linear_44_11451)"/>
<path d="M201.93 177.975L202.392 177.847C204.343 177.334 206.242 176.718 208.141 176.076H202.29C202.136 176.743 201.982 177.385 201.828 178.052C201.853 178.052 201.905 178.052 201.93 178.052V178.001V177.975Z" fill="url(#paint20_linear_44_11451)"/>
<path d="M201.93 177.975L202.392 177.847C204.343 177.334 206.242 176.718 208.141 176.076H202.29C202.136 176.743 201.982 177.385 201.828 178.052C201.853 178.052 201.905 178.052 201.93 178.052V178.001V177.975Z" fill="url(#paint21_linear_44_11451)"/>
<path d="M203.213 172.509C203.213 172.509 203.111 172.509 203.059 172.535C202.829 173.716 202.572 174.896 202.29 176.076H208.141C208.706 175.871 209.296 175.691 209.861 175.461V170.79C207.705 171.355 205.523 171.919 203.342 172.458L203.239 172.509H203.213Z" fill="url(#paint22_linear_44_11451)"/>
<path d="M203.213 172.509C203.213 172.509 203.111 172.509 203.059 172.535C202.829 173.716 202.572 174.896 202.29 176.076H208.141C208.706 175.871 209.296 175.691 209.861 175.461V170.79C207.705 171.355 205.523 171.919 203.342 172.458L203.239 172.509H203.213Z" fill="url(#paint23_linear_44_11451)"/>
<path d="M203.213 172.509C203.213 172.509 203.111 172.509 203.059 172.535C202.829 173.716 202.572 174.896 202.29 176.076H208.141C208.706 175.871 209.296 175.691 209.861 175.461V170.79C207.705 171.355 205.523 171.919 203.342 172.458L203.239 172.509H203.213Z" fill="url(#paint24_linear_44_11451)"/>
<path d="M201.469 176.076V172.919C200.314 173.202 199.159 173.458 198.004 173.715L197.927 173.972L197.439 174.074C194.436 174.793 191.357 175.332 188.174 175.717C177.42 177.744 166.436 179.232 155.271 180.13C160.225 180.875 165.204 181.311 170.029 181.439H170.824V183.338C172.467 183.133 174.11 182.928 175.727 182.722V181.465H176.522C182.04 181.311 187.738 180.772 193.41 179.797C196.233 179.258 199.005 178.668 201.802 178.026C201.956 177.385 202.11 176.717 202.264 176.05H201.443L201.469 176.076Z" fill="url(#paint25_linear_44_11451)"/>
<path d="M201.469 176.076V172.919C200.314 173.202 199.159 173.458 198.004 173.715L197.927 173.972L197.439 174.074C194.436 174.793 191.357 175.332 188.174 175.717C177.42 177.744 166.436 179.232 155.271 180.13C160.225 180.875 165.204 181.311 170.029 181.439H170.824V183.338C172.467 183.133 174.11 182.928 175.727 182.722V181.465H176.522C182.04 181.311 187.738 180.772 193.41 179.797C196.233 179.258 199.005 178.668 201.802 178.026C201.956 177.385 202.11 176.717 202.264 176.05H201.443L201.469 176.076Z" fill="url(#paint26_linear_44_11451)"/>
<path d="M201.469 176.076V172.919C200.314 173.202 199.159 173.458 198.004 173.715L197.927 173.972L197.439 174.074C194.436 174.793 191.357 175.332 188.174 175.717C177.42 177.744 166.436 179.232 155.271 180.13C160.225 180.875 165.204 181.311 170.029 181.439H170.824V183.338C172.467 183.133 174.11 182.928 175.727 182.722V181.465H176.522C182.04 181.311 187.738 180.772 193.41 179.797C196.233 179.258 199.005 178.668 201.802 178.026C201.956 177.385 202.11 176.717 202.264 176.05H201.443L201.469 176.076Z" fill="url(#paint27_linear_44_11451)"/>
<path d="M202.29 176.076C202.572 174.896 202.829 173.741 203.06 172.535C202.521 172.663 202.008 172.766 201.469 172.894V176.051H202.29V176.076Z" fill="url(#paint28_linear_44_11451)"/>
<path d="M202.29 176.076C202.572 174.896 202.829 173.741 203.06 172.535C202.521 172.663 202.008 172.766 201.469 172.894V176.051H202.29V176.076Z" fill="url(#paint29_linear_44_11451)"/>
<path d="M202.29 176.076C202.572 174.896 202.829 173.741 203.06 172.535C202.521 172.663 202.008 172.766 201.469 172.894V176.051H202.29V176.076Z" fill="url(#paint30_linear_44_11451)"/>
<path d="M202.29 176.076C202.572 174.896 202.829 173.741 203.06 172.535C202.521 172.663 202.008 172.766 201.469 172.894V176.051H202.29V176.076Z" fill="url(#paint31_linear_44_11451)"/>
<path d="M222.822 167.069C221.693 167.428 220.564 167.762 219.409 168.121C217.869 170.174 215.995 172.586 213.865 175.075C215.816 174.562 217.766 174.023 219.691 173.459C219.82 173.176 219.948 172.92 220.076 172.637C220.795 171.2 221.77 168.993 222.797 167.069H222.822Z" fill="url(#paint32_linear_44_11451)"/>
<path d="M222.822 167.069C221.693 167.428 220.564 167.762 219.409 168.121C217.869 170.174 215.995 172.586 213.865 175.075C215.816 174.562 217.766 174.023 219.691 173.459C219.82 173.176 219.948 172.92 220.076 172.637C220.795 171.2 221.77 168.993 222.797 167.069H222.822Z" fill="url(#paint33_linear_44_11451)"/>
<path d="M150.524 180.516C148.83 180.619 147.136 180.721 145.442 180.798C145.904 182.338 146.392 183.826 146.93 185.315C148.701 185.238 150.447 185.161 152.217 185.032C151.602 183.544 151.037 182.056 150.549 180.567V180.49L150.524 180.516Z" fill="url(#paint34_linear_44_11451)"/>
<path d="M150.524 180.516C148.83 180.619 147.136 180.721 145.442 180.798C145.904 182.338 146.392 183.826 146.93 185.315C148.701 185.238 150.447 185.161 152.217 185.032C151.602 183.544 151.037 182.056 150.549 180.567V180.49L150.524 180.516Z" fill="url(#paint35_linear_44_11451)"/>
<path d="M150.524 180.516C148.83 180.619 147.136 180.721 145.442 180.798C145.904 182.338 146.392 183.826 146.93 185.315C148.701 185.238 150.447 185.161 152.217 185.032C151.602 183.544 151.037 182.056 150.549 180.567V180.49L150.524 180.516Z" fill="url(#paint36_linear_44_11451)"/>
<path d="M138.743 181.055C135.946 181.132 133.148 181.183 130.351 181.183C131.506 182.723 132.737 184.211 134.046 185.623C137.177 185.623 140.283 185.571 143.388 185.469C141.746 184.108 140.206 182.646 138.769 181.08L138.743 181.055Z" fill="url(#paint37_linear_44_11451)"/>
<path d="M138.743 181.055C135.946 181.132 133.148 181.183 130.351 181.183C131.506 182.723 132.737 184.211 134.046 185.623C137.177 185.623 140.283 185.571 143.388 185.469C141.746 184.108 140.206 182.646 138.769 181.08L138.743 181.055Z" fill="url(#paint38_linear_44_11451)"/>
<path d="M138.743 181.055C135.946 181.132 133.148 181.183 130.351 181.183C131.506 182.723 132.737 184.211 134.046 185.623C137.177 185.623 140.283 185.571 143.388 185.469C141.746 184.108 140.206 182.646 138.769 181.08L138.743 181.055Z" fill="url(#paint39_linear_44_11451)"/>
<path d="M133.124 55.3879C95.1395 85.8743 81.6653 135.505 95.3191 179.335C95.9608 179.412 96.6281 179.464 97.2697 179.54C85.3611 136.582 99.1176 88.7741 136.101 59.0832C185.044 19.7948 256.239 27.0571 296.328 74.9423C295.84 74.3008 295.378 73.6849 294.89 73.0433C255.11 23.4901 182.683 15.5862 133.124 55.3623V55.3879Z" fill="url(#paint40_linear_44_11451)"/>
<path d="M115.44 217.11C115.928 217.726 116.467 218.316 116.98 218.932C108.613 208.051 102.479 196.144 98.527 183.749C97.9111 183.672 97.3208 183.595 96.7305 183.544C100.94 195.4 107.15 206.768 115.466 217.135L115.44 217.11Z" fill="url(#paint41_linear_44_11451)"/>
<path d="M96.7048 183.518C97.2951 183.595 97.911 183.672 98.5013 183.723C98.065 182.338 97.6544 180.926 97.2694 179.515C96.6278 179.438 95.9605 179.387 95.3188 179.31C95.7552 180.721 96.2171 182.107 96.7048 183.518Z" fill="url(#paint42_linear_44_11451)"/>
<path d="M96.7048 183.518C97.2951 183.595 97.911 183.672 98.5013 183.723C98.065 182.338 97.6544 180.926 97.2694 179.515C96.6278 179.438 95.9605 179.387 95.3188 179.31C95.7552 180.721 96.2171 182.107 96.7048 183.518Z" fill="url(#paint43_linear_44_11451)"/>
<path d="M170.594 23.0795C103.018 42.6853 64.1356 113.333 83.7437 180.875C84.0004 181.722 84.2827 182.543 84.5393 183.39C66.6251 116.617 105.328 47.4841 172.057 28.1349C238.786 8.78582 308.467 46.4576 329.101 112.46C328.87 111.613 328.691 110.766 328.434 109.92C308.8 42.3517 238.145 3.4738 170.594 23.0795Z" fill="url(#paint44_linear_44_11451)"/>
<path d="M56 217.931H62.9296C63.3145 217.931 63.6482 217.931 64.0075 217.956C68.6015 218.213 70.8344 220.035 71.245 223.448C71.5017 225.347 70.9884 227.041 69.8848 228.426C68.6785 229.889 66.9333 230.71 64.8031 230.787H59.1568V240.282H56.0257V217.931H56ZM62.5702 228.606C62.8269 228.606 63.0579 228.58 63.2889 228.58C65.8297 228.478 66.9846 227.811 67.7546 226.117C68.0626 225.527 68.1909 224.757 68.0882 223.782C67.8829 221.446 66.574 220.24 63.3915 220.035H59.1055V228.606H62.5446H62.5702Z" fill="#231F20"/>
<path d="M80.1769 224.423C83.847 225.065 86.2852 228.093 86.2852 232.455C86.2852 236.818 83.8213 239.846 80.1769 240.488C74.8129 241.437 70.7578 237.998 70.7578 232.455C70.7578 226.912 74.7872 223.448 80.1769 224.423ZM73.812 233.277C74.2226 237.511 76.5838 239.384 79.7662 238.614C81.7168 238.127 82.923 236.51 83.2054 233.277C83.2567 232.738 83.2567 232.224 83.2054 231.686C82.923 228.426 81.7168 226.835 79.7662 226.348C76.5581 225.552 74.1969 227.426 73.812 231.686C73.7863 231.942 73.7863 232.224 73.7863 232.455C73.7863 232.738 73.7863 232.994 73.812 233.251V233.277Z" fill="#231F20"/>
<path d="M90.1086 224.705L94.0097 237.151L97.8595 224.705H101.427L105.302 237.151L109.28 224.705H111.847L106.919 240.282H103.66L99.5534 227.22L95.524 240.282H92.1362L87.2085 224.705H90.083H90.1086Z" fill="#231F20"/>
<path d="M115.543 232.866C115.517 233.174 115.517 233.507 115.543 233.867C115.8 237.305 117.442 238.896 119.855 238.922C121.805 238.973 123.089 238.024 123.653 235.945C123.705 235.817 123.756 235.663 123.756 235.509H126.399C126.399 235.817 126.348 236.15 126.245 236.484C125.604 239.025 123.422 240.641 119.88 240.718C115.62 240.821 113.208 238.486 112.746 233.764C112.207 228.272 114.696 225.013 118.52 224.474C123.679 223.756 126.528 226.245 126.784 231.916C126.784 232.224 126.784 232.532 126.759 232.866H115.569H115.543ZM123.858 231.275C123.884 231.121 123.884 230.941 123.884 230.787C123.782 227.579 122.19 226.04 119.701 226.117C117.596 226.168 116.056 227.554 115.646 230.454C115.594 230.71 115.594 230.967 115.594 231.249H123.884L123.858 231.275Z" fill="#231F20"/>
<path d="M129.735 224.705H132.533V226.912C132.636 226.758 132.712 226.604 132.815 226.476C133.739 225.142 134.894 224.5 136.614 224.423C137.076 224.397 137.563 224.449 138.051 224.551V227.015H137.769L137.384 226.964C133.893 226.784 132.533 228.144 132.533 231.377V240.333H129.735V224.757V224.705Z" fill="#231F20"/>
<path d="M152.706 226.912L152.372 226.476C151.576 225.398 151.089 224.551 150.858 223.807C149.805 220.548 151.859 217.597 155.426 217.648C155.811 217.648 156.17 217.674 156.555 217.776C159.481 218.418 160.867 221.934 159.071 224.731C158.506 225.603 157.608 226.424 156.401 227.117C156.093 227.271 155.76 227.425 155.452 227.579L161.406 234.611C161.945 233.174 162.202 231.685 162.253 230.171H163.973C163.921 231.069 163.793 231.993 163.562 232.891C163.28 233.918 162.92 234.919 162.433 235.842L166.282 240.282H164.101L161.56 237.151C161.38 237.408 161.226 237.613 161.021 237.844C159.866 239.204 158.326 240.154 156.607 240.513C152.962 241.308 149.626 239.743 148.214 236.972C147.752 236.022 147.496 234.996 147.521 233.918C147.573 231.506 148.959 229.299 151.782 227.682C152.167 227.477 152.526 227.323 152.911 227.143L152.731 226.886L152.706 226.912ZM151.705 229.607C151.371 229.915 151.012 230.248 150.704 230.607C148.24 233.507 149.42 237.664 152.962 238.794C155.426 239.589 157.967 238.896 159.892 236.818C160.097 236.561 160.302 236.33 160.482 236.073L153.861 228.272C153.116 228.58 152.398 229.016 151.679 229.607H151.705ZM155.375 226.014C157.146 224.987 157.864 223.987 158.044 222.704C158.326 220.599 156.735 219.06 154.784 219.419C152.449 219.804 151.551 222.036 153.142 224.654C153.322 224.91 153.476 225.141 153.681 225.398C153.989 225.834 154.246 226.168 154.528 226.45C154.836 226.322 155.118 226.194 155.4 226.014H155.375Z" fill="#231F20"/>
<path d="M176.857 217.931H190.639V220.164H179.988V227.605H190.049V229.864H179.988V238.024H190.973V240.257H176.857V217.905V217.931Z" fill="#231F20"/>
<path d="M193.898 224.705H196.696V227.554C196.798 227.374 196.875 227.169 196.978 226.989C197.979 225.27 199.237 224.449 201.161 224.269C204.857 223.935 206.962 225.783 207.116 229.068V229.761L207.141 230.223V240.282H204.344V229.684C204.216 228.375 203.985 227.785 203.42 227.195C202.599 226.322 201.315 225.963 199.904 226.322C197.851 226.81 196.67 228.555 196.67 232.276V240.256H193.873V224.68L193.898 224.705Z" fill="#231F20"/>
<path d="M213.07 232.866C213.045 233.174 213.045 233.507 213.07 233.867C213.327 237.305 214.97 238.896 217.382 238.922C219.333 238.973 220.616 238.024 221.181 235.945C221.232 235.817 221.283 235.663 221.283 235.509H223.927C223.927 235.817 223.875 236.15 223.773 236.484C223.131 239.025 220.95 240.641 217.408 240.718C213.147 240.821 210.735 238.486 210.273 233.764C209.734 228.272 212.223 225.013 216.048 224.474C221.206 223.756 224.055 226.245 224.312 231.916C224.312 232.224 224.312 232.532 224.286 232.866H213.096H213.07ZM221.386 231.275C221.412 231.121 221.411 230.941 221.411 230.787C221.309 227.579 219.718 226.04 217.228 226.117C215.124 226.168 213.584 227.554 213.173 230.454C213.122 230.71 213.122 230.967 213.122 231.249H221.411L221.386 231.275Z" fill="#231F20"/>
<path d="M227.263 224.705H230.06V226.912C230.163 226.758 230.24 226.604 230.342 226.476C231.266 225.142 232.421 224.5 234.141 224.423C234.603 224.397 235.091 224.449 235.578 224.551V227.015H235.296L234.911 226.964C231.42 226.784 230.06 228.144 230.06 231.377V240.333H227.263V224.757V224.705Z" fill="#231F20"/>
<path d="M247.179 224.706H250.002V240.205C250.002 244.517 247.076 247.262 241.969 246.98C238.273 246.775 236.348 245.158 236.092 242.72C236.092 242.489 236.066 242.31 236.092 242.104H238.915C238.915 242.104 238.915 242.31 238.94 242.412C239.094 243.875 240.121 244.825 242.251 244.979C245.203 245.184 246.948 243.644 247.128 240.847C247.153 240.667 247.153 240.488 247.153 240.308V236.895L246.999 237.177L246.691 237.614C245.1 240.026 242.405 240.924 239.479 239.743C237.247 238.82 235.886 236.895 235.45 233.687C235.347 232.763 235.347 231.788 235.501 230.839C236.092 227.169 238.35 224.885 240.84 224.5C243.945 224.013 246.152 225.065 247.153 226.913V224.68L247.179 224.706ZM244.048 238.152C245.177 237.819 246.101 236.844 246.82 235.047C247.025 234.457 247.153 233.841 247.256 233.123C247.744 228.067 245.177 225.732 242.02 226.451C240.224 226.887 238.863 228.529 238.53 231.352C238.478 231.634 238.478 231.942 238.427 232.25C238.299 236.998 241.045 239.102 244.048 238.152Z" fill="#231F20"/>
<path d="M254.494 224.705L259.088 237.151L263.656 224.705H266.197L258.241 246.312H255.494L257.599 240.539L251.491 224.705H254.468H254.494Z" fill="#231F20"/>
<path d="M278.053 234.072C277.771 236.715 280.004 238.845 283.828 238.512C284.444 238.486 284.983 238.332 285.471 238.101C287.267 237.331 288.012 236.099 287.986 234.534C287.935 232.866 287.267 232.045 285.317 231.249L283.7 230.71L281.749 229.992C281.441 229.889 281.133 229.786 280.825 229.658C276.052 227.785 274.614 225.578 275.769 221.806C276.514 219.291 279.029 217.546 283.109 217.546C288.012 217.494 290.809 220.035 290.937 223.345H287.781C287.755 221.369 286.061 219.804 283.084 219.804C280.671 219.804 279.337 220.702 278.746 222.447C278.028 224.68 279.131 226.322 282.93 227.631L285.06 228.349L286.138 228.734L286.985 229.042C290.475 230.325 291.784 232.763 290.989 236.048C290.296 238.768 288.14 240.385 284.085 240.641C283.263 240.693 282.468 240.667 281.672 240.616C277.515 240.231 275.513 238.614 274.999 235.458C274.948 234.996 274.897 234.534 274.948 234.072H278.079H278.053Z" fill="#231F20"/>
<path d="M302.436 224.423C306.106 225.065 308.544 228.093 308.544 232.455C308.544 236.818 306.08 239.846 302.436 240.488C297.072 241.437 293.017 237.998 293.017 232.455C293.017 226.912 297.046 223.448 302.436 224.423ZM296.071 233.277C296.481 237.511 298.843 239.384 302.025 238.614C303.976 238.127 305.182 236.51 305.464 233.277C305.515 232.738 305.515 232.224 305.464 231.686C305.182 228.426 303.976 226.835 302.025 226.348C298.817 225.552 296.456 227.426 296.071 231.686C296.045 231.942 296.045 232.224 296.045 232.455C296.045 232.738 296.045 232.994 296.071 233.251V233.277Z" fill="#231F20"/>
<path d="M321.658 229.761C321.633 229.581 321.607 229.35 321.556 229.119C321.504 228.837 321.402 228.555 321.299 228.324C320.401 226.219 317.424 225.501 315.242 227.323C314.241 228.17 313.599 229.504 313.445 231.711C313.394 232.404 313.42 233.097 313.497 233.79C313.907 237.023 315.216 238.409 317.578 238.563C319.862 238.717 321.273 237.639 321.607 235.458C321.633 235.304 321.633 235.15 321.658 235.021H324.302C324.302 235.355 324.276 235.714 324.173 236.022C323.583 239.025 321.196 240.872 317.424 240.718C313.035 240.564 310.52 237.844 310.443 232.737C310.391 227.836 312.83 224.782 316.423 224.346C320.888 223.756 323.609 225.655 324.225 229.016C324.25 229.273 324.276 229.555 324.327 229.786H321.633L321.658 229.761Z" fill="#231F20"/>
<path d="M326.946 217.931H329.743V221.241H326.946V217.931ZM326.946 224.705H329.743V240.282H326.946V224.705Z" fill="#231F20"/>
<path d="M335.646 232.866C335.62 233.174 335.62 233.507 335.646 233.867C335.903 237.305 337.545 238.896 339.958 238.922C341.908 238.973 343.192 238.024 343.756 235.945C343.808 235.817 343.859 235.663 343.859 235.509H346.502C346.502 235.817 346.451 236.15 346.348 236.484C345.707 239.025 343.525 240.641 339.983 240.718C335.723 240.821 333.311 238.486 332.849 233.764C332.31 228.272 334.799 225.013 338.623 224.474C343.782 223.756 346.631 226.245 346.887 231.916C346.887 232.224 346.887 232.532 346.862 232.866H335.672H335.646ZM343.962 231.275C343.987 231.121 343.987 230.941 343.987 230.787C343.885 227.579 342.293 226.04 339.804 226.117C337.699 226.168 336.159 227.554 335.749 230.454C335.697 230.71 335.697 230.967 335.697 231.249H343.987L343.962 231.275Z" fill="#231F20"/>
<path d="M347.247 224.705H350.07V221.549L352.867 220.42V224.705H356.383V226.604H352.867V236.176C353.047 238.075 353.458 238.435 355.536 238.409C355.844 238.409 356.152 238.383 356.537 238.281V240.359C355.896 240.513 355.331 240.565 354.741 240.616C351.276 240.719 350.095 239.564 350.095 235.997V226.63H347.272V224.731L347.247 224.705Z" fill="#231F20"/>
<path d="M358.386 224.705L362.98 237.151L367.548 224.705H370.089L362.133 246.312H359.387L361.491 240.539L355.383 224.705H358.36H358.386Z" fill="#231F20"/>
<path d="M148.882 214.851C149.344 215.031 149.806 215.185 150.268 215.339C114.542 200.686 96.9356 160.114 110.897 123.956C124.885 87.773 165.205 69.5786 201.469 82.7432C201.007 82.5636 200.571 82.3583 200.109 82.1787C163.459 68.0389 122.293 86.2589 108.151 122.904C94.0098 159.524 112.232 200.711 148.856 214.851H148.882Z" fill="#231F20"/>
<path d="M208.45 124.675H233.884L236.861 124.829C248.873 125.291 254.339 130.141 255.186 140.508C256.187 151.902 249.181 160.011 237.631 160.55L235.989 160.627H225.774V180.823H208.45V124.675ZM229.983 149.875H231.549L232.652 149.798C235.373 149.721 237.246 148.463 238.504 145.897C239.043 144.819 239.377 143.408 239.223 141.458C238.838 136.941 236.502 134.734 231.266 134.529H225.569V149.901H230.009L229.983 149.875Z" fill="#231F20"/>
<path d="M259.088 124.675H299.484V135.838H276.155V146.513H298.381V158.061H276.155V169.686H299.946V180.849H259.062V124.7L259.088 124.675Z" fill="#231F20"/>
<path d="M319.554 162.039C319.4 162.731 319.4 163.45 319.477 164.143C319.785 169.301 323.224 172.175 328.691 171.636C329.64 171.559 330.41 171.328 331.129 171.02C333.772 169.686 335.03 167.735 334.953 165.015C334.799 162.039 333.156 159.934 329.794 158.856L329.255 158.702L326.304 157.856L321.71 156.624C321.171 156.47 320.632 156.316 320.067 156.085C306.105 151.568 302.05 146.41 304.463 136.351C306.413 128.088 313.831 123.007 327.792 123.161C329.05 123.161 330.359 123.238 331.616 123.315C341.446 124.161 346.528 127.061 349.402 132.296C350.814 134.862 351.43 137.762 351.276 140.713H334.979V139.533C334.902 138.583 334.594 137.66 334.209 136.813C332.72 134.093 330.154 132.835 326.252 133.22C325.406 133.297 324.61 133.528 323.917 133.836C321.094 135.324 319.939 137.814 320.555 140.79C321.196 143.357 322.993 144.845 328.126 146.333L333.285 147.822L339.444 149.541C349.274 152.338 353.714 159.293 351.533 168.736C349.659 176.845 343.653 181.054 330.795 181.747C328.229 181.824 325.867 181.824 323.532 181.593C313.009 180.72 307.466 177.23 304.566 171.072C303.231 168.274 302.769 165.221 303.077 162.09H319.605L319.554 162.039Z" fill="#231F20"/>
<path d="M208.681 92.0845H213.916V119.286H208.681V92.0845Z" fill="#231F20"/>
<path d="M217.484 92.0845H235.809V96.216H223.669V103.247H235.193V107.482H223.669V115.18H236.091V119.286H217.458V92.0845H217.484Z" fill="#231F20"/>
<path d="M239.145 92.0845H257.47V96.216H245.331V103.247H256.854V107.482H245.331V115.18H257.752V119.286H239.12V92.0845H239.145Z" fill="#231F20"/>
<path d="M260.806 92.0845H279.131V96.216H266.991V103.247H278.515V107.482H266.991V115.18H279.439V119.286H260.806V92.0845Z" fill="#231F20"/>
<path d="M142.08 201.558C114.49 184.75 105.507 148.977 121.702 121.159C121.497 121.493 121.266 121.826 121.035 122.186C103.993 150.132 112.848 186.597 140.797 203.637C168.746 220.676 205.242 211.823 222.258 183.877C222.463 183.518 222.668 183.158 222.874 182.799C205.575 209.924 169.67 218.367 142.08 201.532V201.558Z" fill="#231F20"/>
<path d="M385 223.962C385 226.99 382.562 229.402 379.456 229.402C376.351 229.402 373.861 226.99 373.861 223.962C373.861 220.933 376.351 218.547 379.482 218.547C382.613 218.547 385 220.933 385 223.962ZM375.247 223.962C375.247 226.374 377.069 228.298 379.482 228.298C381.817 228.324 383.614 226.374 383.614 224.013C383.614 221.652 381.817 219.65 379.405 219.65C376.992 219.65 375.247 221.601 375.247 223.987V223.962ZM378.584 226.759H377.326V221.344C377.814 221.267 378.507 221.19 379.405 221.19C380.432 221.19 380.894 221.344 381.253 221.626C381.587 221.857 381.818 222.268 381.818 222.781C381.818 223.448 381.33 223.859 380.688 224.064V224.141C381.227 224.295 381.484 224.731 381.638 225.45C381.792 226.271 381.946 226.579 382.023 226.784H380.714C380.56 226.579 380.457 226.117 380.278 225.45C380.175 224.885 379.841 224.629 379.148 224.629H378.558V226.784L378.584 226.759ZM378.609 223.731H379.2C379.893 223.731 380.457 223.5 380.457 222.935C380.457 222.447 380.098 222.114 379.302 222.114C378.969 222.114 378.738 222.14 378.609 222.191V223.731Z" fill="#231F20"/>
</g>
<defs>
<linearGradient id="paint0_linear_44_11451" x1="262.064" y1="112.922" x2="101.221" y2="112.922" gradientUnits="userSpaceOnUse">
<stop stop-color="#C2D72E"/>
<stop offset="0.16" stop-color="#97C93C"/>
<stop offset="1" stop-color="#23582C"/>
</linearGradient>
<linearGradient id="paint1_linear_44_11451" x1="262.064" y1="185.751" x2="101.221" y2="185.751" gradientUnits="userSpaceOnUse">
<stop stop-color="#C2D72E"/>
<stop offset="0.16" stop-color="#97C93C"/>
<stop offset="1" stop-color="#23582C"/>
</linearGradient>
<linearGradient id="paint2_linear_44_11451" x1="262.064" y1="174.716" x2="101.221" y2="174.716" gradientUnits="userSpaceOnUse">
<stop stop-color="#C2D72E"/>
<stop offset="0.16" stop-color="#97C93C"/>
<stop offset="1" stop-color="#23582C"/>
</linearGradient>
<linearGradient id="paint3_linear_44_11451" x1="262.064" y1="174.716" x2="101.221" y2="174.716" gradientUnits="userSpaceOnUse">
<stop stop-color="#C2D72E"/>
<stop offset="0.16" stop-color="#97C93C"/>
<stop offset="1" stop-color="#23582C"/>
</linearGradient>
<linearGradient id="paint4_linear_44_11451" x1="262.116" y1="172.509" x2="101.138" y2="172.509" gradientUnits="userSpaceOnUse">
<stop stop-color="#C2D72E"/>
<stop offset="0.16" stop-color="#97C93C"/>
<stop offset="1" stop-color="#23582C"/>
</linearGradient>
<linearGradient id="paint5_linear_44_11451" x1="262.116" y1="172.509" x2="101.138" y2="172.509" gradientUnits="userSpaceOnUse">
<stop stop-color="#C2D72E"/>
<stop offset="0.16" stop-color="#97C93C"/>
<stop offset="1" stop-color="#23582C"/>
</linearGradient>
<linearGradient id="paint6_linear_44_11451" x1="262.063" y1="173.074" x2="101.221" y2="173.074" gradientUnits="userSpaceOnUse">
<stop stop-color="#C2D72E"/>
<stop offset="0.16" stop-color="#97C93C"/>
<stop offset="1" stop-color="#23582C"/>
</linearGradient>
<linearGradient id="paint7_linear_44_11451" x1="262.063" y1="175.768" x2="101.221" y2="175.768" gradientUnits="userSpaceOnUse">
<stop stop-color="#C2D72E"/>
<stop offset="0.16" stop-color="#97C93C"/>
<stop offset="1" stop-color="#23582C"/>
</linearGradient>
<linearGradient id="paint8_linear_44_11451" x1="262.063" y1="175.768" x2="101.221" y2="175.768" gradientUnits="userSpaceOnUse">
<stop stop-color="#C2D72E"/>
<stop offset="0.16" stop-color="#97C93C"/>
<stop offset="1" stop-color="#23582C"/>
</linearGradient>
<linearGradient id="paint9_linear_44_11451" x1="262.064" y1="185.879" x2="101.221" y2="185.879" gradientUnits="userSpaceOnUse">
<stop stop-color="#C2D72E"/>
<stop offset="0.16" stop-color="#97C93C"/>
<stop offset="1" stop-color="#23582C"/>
</linearGradient>
<linearGradient id="paint10_linear_44_11451" x1="262.063" y1="179.977" x2="101.222" y2="179.977" gradientUnits="userSpaceOnUse">
<stop stop-color="#C2D72E"/>
<stop offset="0.16" stop-color="#97C93C"/>
<stop offset="1" stop-color="#23582C"/>
</linearGradient>
<linearGradient id="paint11_linear_44_11451" x1="262.064" y1="190.421" x2="101.221" y2="190.421" gradientUnits="userSpaceOnUse">
<stop stop-color="#C2D72E"/>
<stop offset="0.16" stop-color="#97C93C"/>
<stop offset="1" stop-color="#23582C"/>
</linearGradient>
<linearGradient id="paint12_linear_44_11451" x1="262.064" y1="190.421" x2="101.221" y2="190.421" gradientUnits="userSpaceOnUse">
<stop stop-color="#C2D72E"/>
<stop offset="0.16" stop-color="#97C93C"/>
<stop offset="1" stop-color="#23582C"/>
</linearGradient>
<linearGradient id="paint13_linear_44_11451" x1="262.063" y1="161.86" x2="101.221" y2="161.86" gradientUnits="userSpaceOnUse">
<stop stop-color="#C2D72E"/>
<stop offset="0.16" stop-color="#97C93C"/>
<stop offset="1" stop-color="#23582C"/>
</linearGradient>
<linearGradient id="paint14_linear_44_11451" x1="262.063" y1="161.86" x2="101.221" y2="161.86" gradientUnits="userSpaceOnUse">
<stop stop-color="#C2D72E"/>
<stop offset="0.16" stop-color="#97C93C"/>
<stop offset="1" stop-color="#23582C"/>
</linearGradient>
<linearGradient id="paint15_linear_44_11451" x1="262.064" y1="138.533" x2="101.221" y2="138.533" gradientUnits="userSpaceOnUse">
<stop stop-color="#C2D72E"/>
<stop offset="0.16" stop-color="#97C93C"/>
<stop offset="1" stop-color="#23582C"/>
</linearGradient>
<linearGradient id="paint16_linear_44_11451" x1="262.064" y1="146.513" x2="101.221" y2="146.513" gradientUnits="userSpaceOnUse">
<stop stop-color="#C2D72E"/>
<stop offset="0.16" stop-color="#97C93C"/>
<stop offset="1" stop-color="#23582C"/>
</linearGradient>
<linearGradient id="paint17_linear_44_11451" x1="262.064" y1="146.513" x2="101.221" y2="146.513" gradientUnits="userSpaceOnUse">
<stop stop-color="#C2D72E"/>
<stop offset="0.16" stop-color="#97C93C"/>
<stop offset="1" stop-color="#23582C"/>
</linearGradient>
<linearGradient id="paint18_linear_44_11451" x1="262.038" y1="172.407" x2="101.246" y2="172.407" gradientUnits="userSpaceOnUse">
<stop stop-color="#C2D72E"/>
<stop offset="0.16" stop-color="#97C93C"/>
<stop offset="1" stop-color="#23582C"/>
</linearGradient>
<linearGradient id="paint19_linear_44_11451" x1="262.038" y1="172.407" x2="101.246" y2="172.407" gradientUnits="userSpaceOnUse">
<stop stop-color="#C2D72E"/>
<stop offset="0.16" stop-color="#97C93C"/>
<stop offset="1" stop-color="#23582C"/>
</linearGradient>
<linearGradient id="paint20_linear_44_11451" x1="262.063" y1="177.077" x2="101.221" y2="177.077" gradientUnits="userSpaceOnUse">
<stop stop-color="#C2D72E"/>
<stop offset="0.16" stop-color="#97C93C"/>
<stop offset="1" stop-color="#23582C"/>
</linearGradient>
<linearGradient id="paint21_linear_44_11451" x1="262.063" y1="177.077" x2="101.221" y2="177.077" gradientUnits="userSpaceOnUse">
<stop stop-color="#C2D72E"/>
<stop offset="0.16" stop-color="#97C93C"/>
<stop offset="1" stop-color="#23582C"/>
</linearGradient>
<linearGradient id="paint22_linear_44_11451" x1="262.063" y1="173.459" x2="101.221" y2="173.459" gradientUnits="userSpaceOnUse">
<stop stop-color="#C2D72E"/>
<stop offset="0.16" stop-color="#97C93C"/>
<stop offset="1" stop-color="#23582C"/>
</linearGradient>
<linearGradient id="paint23_linear_44_11451" x1="262.063" y1="173.459" x2="101.221" y2="173.459" gradientUnits="userSpaceOnUse">
<stop stop-color="#C2D72E"/>
<stop offset="0.16" stop-color="#97C93C"/>
<stop offset="1" stop-color="#23582C"/>
</linearGradient>
<linearGradient id="paint24_linear_44_11451" x1="262.063" y1="173.459" x2="101.221" y2="173.459" gradientUnits="userSpaceOnUse">
<stop stop-color="#C2D72E"/>
<stop offset="0.16" stop-color="#97C93C"/>
<stop offset="1" stop-color="#23582C"/>
</linearGradient>
<linearGradient id="paint25_linear_44_11451" x1="262.064" y1="178.154" x2="101.221" y2="178.154" gradientUnits="userSpaceOnUse">
<stop stop-color="#C2D72E"/>
<stop offset="0.16" stop-color="#97C93C"/>
<stop offset="1" stop-color="#23582C"/>
</linearGradient>
<linearGradient id="paint26_linear_44_11451" x1="262.064" y1="178.154" x2="101.221" y2="178.154" gradientUnits="userSpaceOnUse">
<stop stop-color="#C2D72E"/>
<stop offset="0.16" stop-color="#97C93C"/>
<stop offset="1" stop-color="#23582C"/>
</linearGradient>
<linearGradient id="paint27_linear_44_11451" x1="262.064" y1="178.154" x2="101.221" y2="178.154" gradientUnits="userSpaceOnUse">
<stop stop-color="#C2D72E"/>
<stop offset="0.16" stop-color="#97C93C"/>
<stop offset="1" stop-color="#23582C"/>
</linearGradient>
<linearGradient id="paint28_linear_44_11451" x1="262.064" y1="174.306" x2="101.221" y2="174.306" gradientUnits="userSpaceOnUse">
<stop stop-color="#C2D72E"/>
<stop offset="0.16" stop-color="#97C93C"/>
<stop offset="1" stop-color="#23582C"/>
</linearGradient>
<linearGradient id="paint29_linear_44_11451" x1="262.064" y1="174.306" x2="101.221" y2="174.306" gradientUnits="userSpaceOnUse">
<stop stop-color="#C2D72E"/>
<stop offset="0.16" stop-color="#97C93C"/>
<stop offset="1" stop-color="#23582C"/>
</linearGradient>
<linearGradient id="paint30_linear_44_11451" x1="262.064" y1="174.306" x2="101.221" y2="174.306" gradientUnits="userSpaceOnUse">
<stop stop-color="#C2D72E"/>
<stop offset="0.16" stop-color="#97C93C"/>
<stop offset="1" stop-color="#23582C"/>
</linearGradient>
<linearGradient id="paint31_linear_44_11451" x1="262.064" y1="174.306" x2="101.221" y2="174.306" gradientUnits="userSpaceOnUse">
<stop stop-color="#C2D72E"/>
<stop offset="0.16" stop-color="#97C93C"/>
<stop offset="1" stop-color="#23582C"/>
</linearGradient>
<linearGradient id="paint32_linear_44_11451" x1="262.038" y1="171.072" x2="101.247" y2="171.072" gradientUnits="userSpaceOnUse">
<stop stop-color="#C2D72E"/>
<stop offset="0.16" stop-color="#97C93C"/>
<stop offset="1" stop-color="#23582C"/>
</linearGradient>
<linearGradient id="paint33_linear_44_11451" x1="262.038" y1="171.072" x2="101.247" y2="171.072" gradientUnits="userSpaceOnUse">
<stop stop-color="#C2D72E"/>
<stop offset="0.16" stop-color="#97C93C"/>
<stop offset="1" stop-color="#23582C"/>
</linearGradient>
<linearGradient id="paint34_linear_44_11451" x1="262.064" y1="182.928" x2="101.221" y2="182.928" gradientUnits="userSpaceOnUse">
<stop stop-color="#C2D72E"/>
<stop offset="0.16" stop-color="#97C93C"/>
<stop offset="1" stop-color="#23582C"/>
</linearGradient>
<linearGradient id="paint35_linear_44_11451" x1="262.064" y1="182.928" x2="101.221" y2="182.928" gradientUnits="userSpaceOnUse">
<stop stop-color="#C2D72E"/>
<stop offset="0.16" stop-color="#97C93C"/>
<stop offset="1" stop-color="#23582C"/>
</linearGradient>
<linearGradient id="paint36_linear_44_11451" x1="262.064" y1="182.928" x2="101.221" y2="182.928" gradientUnits="userSpaceOnUse">
<stop stop-color="#C2D72E"/>
<stop offset="0.16" stop-color="#97C93C"/>
<stop offset="1" stop-color="#23582C"/>
</linearGradient>
<linearGradient id="paint37_linear_44_11451" x1="262.063" y1="183.339" x2="101.221" y2="183.339" gradientUnits="userSpaceOnUse">
<stop stop-color="#C2D72E"/>
<stop offset="0.16" stop-color="#97C93C"/>
<stop offset="1" stop-color="#23582C"/>
</linearGradient>
<linearGradient id="paint38_linear_44_11451" x1="262.063" y1="183.339" x2="101.221" y2="183.339" gradientUnits="userSpaceOnUse">
<stop stop-color="#C2D72E"/>
<stop offset="0.16" stop-color="#97C93C"/>
<stop offset="1" stop-color="#23582C"/>
</linearGradient>
<linearGradient id="paint39_linear_44_11451" x1="262.063" y1="183.339" x2="101.221" y2="183.339" gradientUnits="userSpaceOnUse">
<stop stop-color="#C2D72E"/>
<stop offset="0.16" stop-color="#97C93C"/>
<stop offset="1" stop-color="#23582C"/>
</linearGradient>
<linearGradient id="paint40_linear_44_11451" x1="262.065" y1="104.787" x2="101.222" y2="104.787" gradientUnits="userSpaceOnUse">
<stop stop-color="#C2D72E"/>
<stop offset="0.16" stop-color="#97C93C"/>
<stop offset="1" stop-color="#23582C"/>
</linearGradient>
<linearGradient id="paint41_linear_44_11451" x1="262.065" y1="201.225" x2="101.222" y2="201.225" gradientUnits="userSpaceOnUse">
<stop stop-color="#C2D72E"/>
<stop offset="0.16" stop-color="#97C93C"/>
<stop offset="1" stop-color="#23582C"/>
</linearGradient>
<linearGradient id="paint42_linear_44_11451" x1="262.065" y1="181.542" x2="101.222" y2="181.542" gradientUnits="userSpaceOnUse">
<stop stop-color="#00A1DF"/>
<stop offset="1" stop-color="#808184"/>
</linearGradient>
<linearGradient id="paint43_linear_44_11451" x1="262.065" y1="181.542" x2="101.222" y2="181.542" gradientUnits="userSpaceOnUse">
<stop stop-color="#C2D72E"/>
<stop offset="0.16" stop-color="#97C93C"/>
<stop offset="1" stop-color="#23582C"/>
</linearGradient>
<linearGradient id="paint44_linear_44_11451" x1="262.064" y1="100.681" x2="101.222" y2="100.681" gradientUnits="userSpaceOnUse">
<stop stop-color="#C2D72E"/>
<stop offset="0.16" stop-color="#97C93C"/>
<stop offset="1" stop-color="#23582C"/>
</linearGradient>
<clipPath id="clip0_44_11451">
<rect width="441" height="351" fill="white"/>
</clipPath>
</defs>
</svg>
