<svg width="854" height="854" viewBox="0 0 854 854" fill="none" xmlns="http://www.w3.org/2000/svg">
<path d="M125 533H729.5" stroke="#8E9093" stroke-width="3" stroke-miterlimit="10"/>
<path d="M243.043 664.222L243.337 664.516C243.309 665.216 243.281 665.972 243.253 666.784C243.225 667.568 243.197 668.492 243.169 669.556C243.169 670.592 243.155 671.796 243.127 673.168C243.127 674.512 243.127 676.08 243.127 677.872C243.127 679.888 243.127 681.652 243.127 683.164C243.155 684.648 243.183 685.992 243.211 687.196C243.239 688.4 243.267 689.52 243.295 690.556C243.351 691.564 243.407 692.614 243.463 693.706L243.211 694C242.735 694 242.329 694 241.993 694C241.685 694.028 241.363 694.042 241.027 694.042C240.691 694.042 240.327 694.042 239.935 694.042C239.571 694.07 239.109 694.098 238.549 694.126L238.297 693.832C238.325 693.188 238.339 692.558 238.339 691.942C238.367 691.298 238.381 690.584 238.381 689.8C238.409 689.016 238.423 688.134 238.423 687.154C238.451 686.146 238.465 684.97 238.465 683.626C238.465 680.434 238.451 677.27 238.423 674.134C238.395 670.998 238.311 667.848 238.171 664.684L238.381 664.348C238.829 664.348 239.221 664.348 239.557 664.348C239.921 664.348 240.271 664.348 240.607 664.348C240.943 664.32 241.293 664.306 241.657 664.306C242.049 664.278 242.511 664.25 243.043 664.222ZM268.452 690.262L268.704 690.556C268.676 690.92 268.648 691.228 268.62 691.48C268.62 691.704 268.606 691.928 268.578 692.152C268.578 692.348 268.564 692.572 268.536 692.824C268.536 693.048 268.522 693.342 268.494 693.706L268.2 694C266.828 694 265.624 694 264.588 694C263.58 694 262.642 694 261.774 694C260.934 694.028 260.136 694.042 259.38 694.042C258.624 694.042 257.826 694.042 256.986 694.042C256.146 694.07 255.222 694.084 254.214 694.084C253.206 694.112 252.044 694.126 250.728 694.126L250.518 693.832C250.546 692.992 250.574 692.194 250.602 691.438C250.63 690.682 250.658 689.814 250.686 688.834C250.714 687.854 250.728 686.72 250.728 685.432C250.756 684.116 250.77 682.492 250.77 680.56C250.77 678.796 250.77 677.2 250.77 675.772C250.77 674.344 250.756 673.014 250.728 671.782C250.7 670.522 250.672 669.318 250.644 668.17C250.616 667.022 250.56 665.846 250.476 664.642L250.728 664.348C252.8 664.348 254.522 664.348 255.894 664.348C257.266 664.32 258.554 664.306 259.758 664.306C260.962 664.306 262.208 664.306 263.496 664.306C264.812 664.278 266.436 664.25 268.368 664.222L268.62 664.516C268.592 664.824 268.564 665.104 268.536 665.356C268.508 665.58 268.48 665.818 268.452 666.07C268.424 666.294 268.396 666.546 268.368 666.826C268.368 667.106 268.354 667.428 268.326 667.792L268.074 668.086C266.73 668.058 265.568 668.03 264.588 668.002C263.608 667.974 262.67 667.96 261.774 667.96C260.878 667.932 259.94 667.918 258.96 667.918C258.008 667.89 256.86 667.876 255.516 667.876C255.488 668.856 255.46 669.696 255.432 670.396C255.432 671.068 255.418 671.726 255.39 672.37C255.39 672.986 255.39 673.644 255.39 674.344C255.39 675.044 255.39 675.87 255.39 676.822C256.678 676.822 257.784 676.822 258.708 676.822C259.632 676.822 260.514 676.822 261.354 676.822C262.194 676.822 263.062 676.822 263.958 676.822C264.882 676.794 265.988 676.766 267.276 676.738L267.486 677.032C267.43 677.396 267.388 677.704 267.36 677.956C267.36 678.208 267.346 678.46 267.318 678.712C267.318 678.936 267.304 679.174 267.276 679.426C267.276 679.65 267.276 679.93 267.276 680.266L267.024 680.56C265.792 680.532 264.756 680.518 263.916 680.518C263.104 680.49 262.306 680.476 261.522 680.476C260.738 680.448 259.87 680.434 258.918 680.434C257.994 680.434 256.818 680.434 255.39 680.434C255.362 681.666 255.348 682.688 255.348 683.5C255.348 684.312 255.348 685.068 255.348 685.768C255.348 686.468 255.348 687.182 255.348 687.91C255.376 688.61 255.39 689.464 255.39 690.472C256.986 690.472 258.302 690.472 259.338 690.472C260.402 690.472 261.382 690.472 262.278 690.472C263.174 690.444 264.084 690.416 265.008 690.388C265.96 690.36 267.108 690.318 268.452 690.262ZM291.216 690.262L291.468 690.556C291.44 690.92 291.412 691.228 291.384 691.48C291.384 691.704 291.37 691.928 291.342 692.152C291.342 692.348 291.328 692.572 291.3 692.824C291.3 693.048 291.286 693.342 291.258 693.706L290.964 694C289.592 694 288.388 694 287.352 694C286.344 694 285.406 694 284.538 694C283.698 694.028 282.9 694.042 282.144 694.042C281.388 694.042 280.59 694.042 279.75 694.042C278.91 694.07 277.986 694.084 276.978 694.084C275.97 694.112 274.808 694.126 273.492 694.126L273.282 693.832C273.31 692.992 273.338 692.194 273.366 691.438C273.394 690.682 273.422 689.814 273.45 688.834C273.478 687.854 273.492 686.72 273.492 685.432C273.52 684.116 273.534 682.492 273.534 680.56C273.534 678.796 273.534 677.2 273.534 675.772C273.534 674.344 273.52 673.014 273.492 671.782C273.464 670.522 273.436 669.318 273.408 668.17C273.38 667.022 273.324 665.846 273.24 664.642L273.492 664.348C275.564 664.348 277.286 664.348 278.658 664.348C280.03 664.32 281.318 664.306 282.522 664.306C283.726 664.306 284.972 664.306 286.26 664.306C287.576 664.278 289.2 664.25 291.132 664.222L291.384 664.516C291.356 664.824 291.328 665.104 291.3 665.356C291.272 665.58 291.244 665.818 291.216 666.07C291.188 666.294 291.16 666.546 291.132 666.826C291.132 667.106 291.118 667.428 291.09 667.792L290.838 668.086C289.494 668.058 288.332 668.03 287.352 668.002C286.372 667.974 285.434 667.96 284.538 667.96C283.642 667.932 282.704 667.918 281.724 667.918C280.772 667.89 279.624 667.876 278.28 667.876C278.252 668.856 278.224 669.696 278.196 670.396C278.196 671.068 278.182 671.726 278.154 672.37C278.154 672.986 278.154 673.644 278.154 674.344C278.154 675.044 278.154 675.87 278.154 676.822C279.442 676.822 280.548 676.822 281.472 676.822C282.396 676.822 283.278 676.822 284.118 676.822C284.958 676.822 285.826 676.822 286.722 676.822C287.646 676.794 288.752 676.766 290.04 676.738L290.25 677.032C290.194 677.396 290.152 677.704 290.124 677.956C290.124 678.208 290.11 678.46 290.082 678.712C290.082 678.936 290.068 679.174 290.04 679.426C290.04 679.65 290.04 679.93 290.04 680.266L289.788 680.56C288.556 680.532 287.52 680.518 286.68 680.518C285.868 680.49 285.07 680.476 284.286 680.476C283.502 680.448 282.634 680.434 281.682 680.434C280.758 680.434 279.582 680.434 278.154 680.434C278.126 681.666 278.112 682.688 278.112 683.5C278.112 684.312 278.112 685.068 278.112 685.768C278.112 686.468 278.112 687.182 278.112 687.91C278.14 688.61 278.154 689.464 278.154 690.472C279.75 690.472 281.066 690.472 282.102 690.472C283.166 690.472 284.146 690.472 285.042 690.472C285.938 690.444 286.848 690.416 287.772 690.388C288.724 690.36 289.872 690.318 291.216 690.262ZM313.98 690.262L314.232 690.556C314.204 690.92 314.176 691.228 314.147 691.48C314.147 691.704 314.133 691.928 314.106 692.152C314.106 692.348 314.092 692.572 314.064 692.824C314.064 693.048 314.05 693.342 314.022 693.706L313.728 694C312.356 694 311.152 694 310.116 694C309.108 694 308.17 694 307.302 694C306.462 694.028 305.664 694.042 304.908 694.042C304.152 694.042 303.354 694.042 302.514 694.042C301.674 694.07 300.75 694.084 299.742 694.084C298.734 694.112 297.572 694.126 296.256 694.126L296.046 693.832C296.074 692.992 296.102 692.194 296.13 691.438C296.158 690.682 296.186 689.814 296.214 688.834C296.242 687.854 296.256 686.72 296.256 685.432C296.284 684.116 296.298 682.492 296.298 680.56C296.298 678.796 296.298 677.2 296.298 675.772C296.298 674.344 296.284 673.014 296.256 671.782C296.228 670.522 296.2 669.318 296.172 668.17C296.144 667.022 296.088 665.846 296.004 664.642L296.256 664.348C298.328 664.348 300.05 664.348 301.422 664.348C302.794 664.32 304.082 664.306 305.285 664.306C306.49 664.306 307.736 664.306 309.024 664.306C310.34 664.278 311.964 664.25 313.896 664.222L314.147 664.516C314.12 664.824 314.092 665.104 314.064 665.356C314.036 665.58 314.008 665.818 313.98 666.07C313.952 666.294 313.924 666.546 313.896 666.826C313.896 667.106 313.882 667.428 313.854 667.792L313.602 668.086C312.258 668.058 311.096 668.03 310.116 668.002C309.136 667.974 308.198 667.96 307.302 667.96C306.406 667.932 305.468 667.918 304.488 667.918C303.536 667.89 302.388 667.876 301.044 667.876C301.016 668.856 300.988 669.696 300.96 670.396C300.96 671.068 300.946 671.726 300.918 672.37C300.918 672.986 300.918 673.644 300.918 674.344C300.918 675.044 300.918 675.87 300.918 676.822C302.206 676.822 303.312 676.822 304.236 676.822C305.16 676.822 306.042 676.822 306.882 676.822C307.722 676.822 308.59 676.822 309.486 676.822C310.41 676.794 311.516 676.766 312.804 676.738L313.014 677.032C312.958 677.396 312.916 677.704 312.888 677.956C312.888 678.208 312.874 678.46 312.846 678.712C312.846 678.936 312.832 679.174 312.804 679.426C312.804 679.65 312.804 679.93 312.804 680.266L312.552 680.56C311.32 680.532 310.284 680.518 309.444 680.518C308.632 680.49 307.834 680.476 307.05 680.476C306.266 680.448 305.398 680.434 304.446 680.434C303.522 680.434 302.346 680.434 300.918 680.434C300.89 681.666 300.876 682.688 300.876 683.5C300.876 684.312 300.876 685.068 300.876 685.768C300.876 686.468 300.876 687.182 300.876 687.91C300.904 688.61 300.918 689.464 300.918 690.472C302.514 690.472 303.83 690.472 304.866 690.472C305.93 690.472 306.91 690.472 307.806 690.472C308.702 690.444 309.612 690.416 310.536 690.388C311.488 690.36 312.636 690.318 313.98 690.262ZM339.809 676.276L341.909 677.2C342.665 677.536 343.463 677.914 344.303 678.334C345.143 678.754 345.913 679.286 346.613 679.93C347.313 680.574 347.887 681.358 348.335 682.282C348.811 683.206 349.049 684.34 349.049 685.684C349.049 686.86 348.825 687.994 348.377 689.086C347.957 690.15 347.299 691.102 346.403 691.942C345.507 692.754 344.373 693.412 343.001 693.916C341.657 694.392 340.075 694.63 338.255 694.63C337.135 694.63 336.113 694.56 335.189 694.42C334.293 694.28 333.495 694.112 332.795 693.916C332.095 693.692 331.507 693.482 331.031 693.286C330.555 693.09 330.191 692.922 329.939 692.782L329.771 692.488C329.799 692.124 329.827 691.802 329.855 691.522C329.911 691.214 329.939 690.92 329.939 690.64C329.967 690.332 329.995 690.024 330.023 689.716C330.051 689.38 330.079 689.016 330.107 688.624L330.527 688.456C330.779 688.624 331.129 688.848 331.577 689.128C332.025 689.408 332.543 689.688 333.131 689.968C333.747 690.22 334.447 690.444 335.231 690.64C336.043 690.836 336.939 690.934 337.919 690.934C339.011 690.934 339.935 690.808 340.691 690.556C341.475 690.304 342.105 689.954 342.581 689.506C343.085 689.058 343.449 688.554 343.673 687.994C343.925 687.434 344.051 686.832 344.051 686.188C344.051 685.46 343.911 684.83 343.631 684.298C343.351 683.766 342.973 683.304 342.497 682.912C342.021 682.52 341.461 682.184 340.817 681.904C340.201 681.596 339.557 681.316 338.885 681.064L336.785 680.14C336.029 679.804 335.245 679.426 334.433 679.006C333.621 678.558 332.865 678.026 332.165 677.41C331.493 676.766 330.933 675.996 330.485 675.1C330.037 674.204 329.813 673.112 329.813 671.824C329.813 671.04 329.911 670.27 330.107 669.514C330.331 668.758 330.667 668.058 331.115 667.414C332.095 666.014 333.383 665.048 334.979 664.516C336.575 663.984 338.227 663.718 339.935 663.718C341.587 663.718 342.973 663.858 344.093 664.138C345.241 664.39 346.375 664.698 347.495 665.062L347.705 665.398C347.649 665.79 347.607 666.14 347.579 666.448C347.551 666.728 347.523 667.008 347.495 667.288C347.495 667.54 347.481 667.82 347.453 668.128C347.425 668.408 347.397 668.73 347.369 669.094L347.033 669.262C346.137 668.814 345.143 668.38 344.051 667.96C342.987 667.54 341.671 667.33 340.103 667.33C338.339 667.33 336.953 667.708 335.945 668.464C334.937 669.192 334.433 670.186 334.433 671.446C334.433 671.922 334.503 672.342 334.643 672.706C334.783 673.042 334.951 673.35 335.147 673.63C335.371 673.882 335.609 674.106 335.861 674.302C336.113 674.47 336.351 674.624 336.575 674.764C336.715 674.848 336.841 674.932 336.953 675.016C337.065 675.072 337.219 675.156 337.415 675.268C337.639 675.352 337.933 675.478 338.297 675.646C338.661 675.786 339.165 675.996 339.809 676.276ZM362.993 690.43L363.287 690.682C363.259 691.018 363.231 691.312 363.203 691.564C363.203 691.788 363.189 691.998 363.161 692.194C363.161 692.39 363.147 692.6 363.119 692.824C363.119 693.02 363.119 693.272 363.119 693.58L362.909 693.832C362.461 693.944 362.013 694.028 361.565 694.084C361.145 694.168 360.543 694.21 359.759 694.21C359.507 694.21 359.171 694.196 358.751 694.168C358.331 694.14 357.883 694.07 357.407 693.958C356.931 693.818 356.455 693.608 355.979 693.328C355.531 693.02 355.139 692.586 354.803 692.026C354.607 691.718 354.453 691.41 354.341 691.102C354.257 690.766 354.187 690.346 354.131 689.842C354.103 689.338 354.075 688.694 354.047 687.91C354.047 687.098 354.047 686.076 354.047 684.844L354.131 675.604C353.767 675.604 353.473 675.604 353.249 675.604C353.025 675.604 352.815 675.618 352.619 675.646C352.451 675.646 352.241 675.66 351.989 675.688C351.765 675.688 351.471 675.688 351.107 675.688L350.939 675.436C350.967 675.1 350.981 674.82 350.981 674.596C351.009 674.372 351.023 674.162 351.023 673.966C351.023 673.742 351.023 673.518 351.023 673.294C351.023 673.042 351.023 672.748 351.023 672.412L351.275 672.16C351.751 672.16 352.171 672.174 352.535 672.202C352.899 672.202 353.431 672.188 354.131 672.16C354.103 671.712 354.089 671.264 354.089 670.816C354.089 670.368 354.089 669.92 354.089 669.472L353.963 667.078L354.173 666.784C354.649 666.672 355.041 666.574 355.349 666.49C355.685 666.406 355.993 666.322 356.273 666.238C356.581 666.154 356.903 666.07 357.239 665.986C357.575 665.874 357.981 665.748 358.457 665.608L358.751 665.818C358.723 666.518 358.695 667.106 358.667 667.582C358.639 668.03 358.611 668.478 358.583 668.926C358.583 669.346 358.583 669.808 358.583 670.312C358.583 670.816 358.583 671.446 358.583 672.202C359.031 672.202 359.409 672.202 359.717 672.202C360.025 672.174 360.333 672.16 360.641 672.16C360.977 672.16 361.341 672.16 361.733 672.16C362.153 672.132 362.657 672.104 363.245 672.076L363.455 672.328C363.427 672.608 363.399 672.86 363.371 673.084C363.371 673.28 363.357 673.49 363.329 673.714C363.329 673.91 363.329 674.134 363.329 674.386C363.329 674.638 363.329 674.946 363.329 675.31L363.119 675.562C362.587 675.562 362.153 675.562 361.817 675.562C361.481 675.534 361.159 675.52 360.851 675.52C360.571 675.492 360.249 675.478 359.885 675.478C359.549 675.478 359.101 675.478 358.541 675.478L358.457 683.29C358.457 683.43 358.457 683.668 358.457 684.004C358.485 684.312 358.499 684.648 358.499 685.012C358.499 685.376 358.499 685.726 358.499 686.062C358.499 686.398 358.499 686.636 358.499 686.776C358.499 687.532 358.527 688.176 358.583 688.708C358.639 689.212 358.751 689.632 358.919 689.968C359.115 690.276 359.367 690.5 359.675 690.64C360.011 690.752 360.445 690.808 360.977 690.808C361.425 690.808 361.817 690.766 362.153 690.682C362.489 690.598 362.769 690.514 362.993 690.43ZM385.147 671.992L385.399 672.286C385.343 673.882 385.301 675.45 385.273 676.99C385.273 678.53 385.273 680.154 385.273 681.862C385.273 684.466 385.287 686.58 385.315 688.204C385.371 689.8 385.427 691.046 385.483 691.942C385.483 692.25 385.483 692.544 385.483 692.824C385.511 693.104 385.539 693.398 385.567 693.706L385.399 693.958C384.895 693.958 384.475 693.972 384.139 694C383.831 694 383.523 694 383.215 694C382.935 694.028 382.627 694.042 382.291 694.042C381.983 694.07 381.591 694.098 381.115 694.126L380.863 693.874L380.905 692.11C380.681 692.278 380.373 692.502 379.981 692.782C379.589 693.034 379.113 693.3 378.553 693.58C377.993 693.832 377.363 694.042 376.663 694.21C375.963 694.406 375.179 694.504 374.311 694.504C373.499 694.504 372.659 694.392 371.791 694.168C370.951 693.972 370.195 693.608 369.523 693.076C368.851 692.544 368.333 691.928 367.969 691.228C367.605 690.5 367.339 689.744 367.171 688.96C367.003 688.176 366.891 687.364 366.835 686.524C366.807 685.684 366.793 684.858 366.793 684.046V681.442C366.765 679.93 366.737 678.726 366.709 677.83C366.709 676.934 366.695 676.192 366.667 675.604C366.667 674.988 366.653 674.456 366.625 674.008C366.625 673.56 366.611 673.056 366.583 672.496L366.793 672.202C367.297 672.202 367.703 672.202 368.011 672.202C368.347 672.174 368.655 672.16 368.935 672.16C369.243 672.132 369.551 672.118 369.859 672.118C370.195 672.09 370.615 672.048 371.119 671.992L371.371 672.286L371.203 681.484C371.203 682.044 371.189 682.604 371.161 683.164C371.161 683.696 371.175 684.466 371.203 685.474C371.203 685.922 371.231 686.468 371.287 687.112C371.371 687.728 371.539 688.33 371.791 688.918C372.071 689.506 372.505 690.01 373.093 690.43C373.681 690.822 374.507 691.018 375.571 691.018C376.187 691.018 376.761 690.948 377.293 690.808C377.825 690.64 378.301 690.444 378.721 690.22C379.169 689.996 379.561 689.758 379.897 689.506C380.261 689.254 380.569 689.03 380.821 688.834C380.849 687.686 380.863 686.608 380.863 685.6C380.863 684.564 380.863 683.43 380.863 682.198C380.863 680.742 380.849 679.552 380.821 678.628C380.821 677.676 380.807 676.864 380.779 676.192C380.779 675.492 380.751 674.862 380.695 674.302C380.667 673.742 380.625 673.126 380.569 672.454L380.821 672.16C381.297 672.16 381.703 672.16 382.039 672.16C382.375 672.132 382.683 672.118 382.963 672.118C383.271 672.09 383.593 672.076 383.929 672.076C384.265 672.048 384.671 672.02 385.147 671.992ZM405.181 661.618L405.391 661.366C405.923 661.282 406.357 661.212 406.693 661.156C407.057 661.072 407.393 661.002 407.701 660.946C408.009 660.89 408.317 660.834 408.625 660.778C408.961 660.694 409.367 660.596 409.843 660.484L410.137 660.736C410.053 662.192 409.983 663.886 409.927 665.818C409.899 667.722 409.871 669.64 409.843 671.572C409.843 673.504 409.829 675.338 409.801 677.074C409.801 678.782 409.801 680.154 409.801 681.19C409.801 682.814 409.801 684.242 409.801 685.474C409.829 686.706 409.857 687.812 409.885 688.792C409.941 689.772 409.983 690.654 410.011 691.438C410.039 692.222 410.081 692.978 410.137 693.706L409.927 694C409.451 694 409.045 694 408.709 694C408.401 694 408.093 694 407.785 694C407.505 694.028 407.197 694.042 406.861 694.042C406.525 694.07 406.119 694.098 405.643 694.126L405.349 693.874L405.433 692.32C405.181 692.516 404.873 692.74 404.509 692.992C404.173 693.216 403.767 693.44 403.291 693.664C402.843 693.86 402.311 694.028 401.695 694.168C401.079 694.336 400.393 694.42 399.637 694.42C398.237 694.42 396.949 694.154 395.773 693.622C394.625 693.09 393.631 692.362 392.791 691.438C391.979 690.486 391.335 689.352 390.859 688.036C390.411 686.692 390.187 685.222 390.187 683.626C390.187 682.478 390.299 681.442 390.523 680.518C390.747 679.566 391.027 678.726 391.363 677.998C391.727 677.242 392.119 676.584 392.539 676.024C392.987 675.464 393.435 674.988 393.883 674.596C394.639 673.896 395.437 673.364 396.277 673C397.145 672.608 397.985 672.314 398.797 672.118C399.637 671.922 400.421 671.81 401.149 671.782C401.905 671.726 402.563 671.698 403.123 671.698C403.571 671.698 403.949 671.698 404.257 671.698C404.565 671.698 404.999 671.726 405.559 671.782C405.559 670.494 405.545 669.36 405.517 668.38C405.517 667.372 405.489 666.476 405.433 665.692C405.405 664.88 405.363 664.152 405.307 663.508C405.279 662.864 405.237 662.234 405.181 661.618ZM405.391 688.834C405.419 687.462 405.433 686.3 405.433 685.348C405.461 684.396 405.475 683.458 405.475 682.534C405.475 681.61 405.461 680.588 405.433 679.468C405.433 678.348 405.433 676.92 405.433 675.184C405.069 675.156 404.733 675.128 404.425 675.1C404.145 675.072 403.781 675.058 403.333 675.058C402.997 675.058 402.591 675.072 402.115 675.1C401.639 675.128 401.121 675.212 400.561 675.352C400.001 675.464 399.427 675.66 398.839 675.94C398.279 676.192 397.747 676.556 397.243 677.032C397.019 677.256 396.767 677.55 396.487 677.914C396.207 678.278 395.941 678.726 395.689 679.258C395.437 679.79 395.227 680.42 395.059 681.148C394.891 681.876 394.807 682.702 394.807 683.626C394.807 684.83 394.947 685.866 395.227 686.734C395.535 687.574 395.913 688.26 396.361 688.792C396.753 689.24 397.299 689.674 397.999 690.094C398.699 690.486 399.595 690.682 400.687 690.682C401.331 690.682 401.905 690.612 402.409 690.472C402.941 690.332 403.403 690.164 403.795 689.968C404.187 689.744 404.509 689.534 404.761 689.338C405.041 689.142 405.251 688.974 405.391 688.834ZM432.901 688.666L433.237 688.876C433.181 689.296 433.139 689.66 433.111 689.968C433.083 690.248 433.055 690.514 433.027 690.766C432.999 691.018 432.971 691.284 432.943 691.564C432.943 691.844 432.929 692.194 432.901 692.614L432.649 692.908C432.481 692.992 432.201 693.132 431.809 693.328C431.445 693.496 430.983 693.678 430.423 693.874C429.863 694.042 429.205 694.182 428.449 694.294C427.693 694.434 426.853 694.504 425.929 694.504C424.193 694.504 422.639 694.266 421.267 693.79C419.895 693.286 418.719 692.558 417.739 691.606C416.759 690.654 416.003 689.478 415.471 688.078C414.967 686.678 414.715 685.068 414.715 683.248C414.715 681.288 414.981 679.58 415.513 678.124C416.073 676.668 416.815 675.464 417.739 674.512C418.691 673.532 419.783 672.804 421.015 672.328C422.247 671.852 423.549 671.614 424.921 671.614C426.601 671.614 428.001 671.908 429.121 672.496C430.269 673.084 431.165 673.756 431.809 674.512C432.397 675.24 432.845 676.024 433.153 676.864C433.489 677.676 433.727 678.502 433.867 679.342C434.007 680.154 434.077 680.924 434.077 681.652C434.077 682.352 434.077 682.926 434.077 683.374L433.783 683.626C432.691 683.626 431.725 683.626 430.885 683.626C430.073 683.598 429.317 683.584 428.617 683.584C427.917 683.584 427.245 683.584 426.601 683.584C425.985 683.584 425.313 683.584 424.585 683.584C423.885 683.584 423.101 683.598 422.233 683.626C421.365 683.626 420.357 683.626 419.209 683.626C419.237 684.354 419.321 685.194 419.461 686.146C419.629 687.098 420.077 688.008 420.805 688.876C421.225 689.38 421.687 689.786 422.191 690.094C422.695 690.402 423.185 690.64 423.661 690.808C424.165 690.948 424.627 691.046 425.047 691.102C425.495 691.13 425.887 691.144 426.223 691.144C427.483 691.144 428.701 690.934 429.877 690.514C430.661 690.206 431.291 689.884 431.767 689.548C432.243 689.184 432.621 688.89 432.901 688.666ZM429.751 680.392C429.723 680.084 429.681 679.72 429.625 679.3C429.597 678.852 429.499 678.39 429.331 677.914C428.911 676.738 428.281 675.898 427.441 675.394C426.601 674.89 425.705 674.638 424.753 674.638C424.165 674.638 423.563 674.75 422.947 674.974C422.331 675.17 421.757 675.506 421.225 675.982C420.721 676.43 420.287 677.032 419.923 677.788C419.559 678.516 419.321 679.398 419.209 680.434C420.469 680.434 421.547 680.434 422.443 680.434C423.339 680.434 424.165 680.434 424.921 680.434C425.677 680.434 426.419 680.434 427.147 680.434C427.903 680.406 428.771 680.392 429.751 680.392ZM457.429 693.706L457.177 693.958C456.673 693.958 456.253 693.972 455.917 694C455.609 694 455.315 694 455.035 694C454.755 694.028 454.461 694.042 454.153 694.042C453.845 694.07 453.453 694.098 452.977 694.126L452.683 693.832C452.683 693.608 452.683 693.384 452.683 693.16C452.711 692.908 452.725 692.67 452.725 692.446C452.753 691.41 452.767 690.388 452.767 689.38C452.767 688.344 452.767 687.308 452.767 686.272C452.767 684.648 452.767 683.374 452.767 682.45C452.767 681.526 452.753 680.812 452.725 680.308C452.697 679.776 452.669 679.398 452.641 679.174C452.613 678.95 452.571 678.726 452.515 678.502C452.319 677.718 452.039 677.116 451.675 676.696C451.311 676.248 450.933 675.926 450.541 675.73C450.149 675.506 449.785 675.38 449.449 675.352C449.113 675.324 448.875 675.31 448.735 675.31C448.091 675.31 447.489 675.394 446.929 675.562C446.397 675.73 445.893 675.94 445.417 676.192C444.941 676.416 444.507 676.668 444.115 676.948C443.751 677.2 443.429 677.438 443.149 677.662C443.149 679.482 443.149 681.12 443.149 682.576C443.149 684.004 443.163 685.348 443.191 686.608C443.219 687.84 443.247 689.03 443.275 690.178C443.331 691.298 443.401 692.474 443.485 693.706L443.233 693.958C442.729 693.958 442.309 693.972 441.973 694C441.637 694 441.315 694 441.007 694C440.727 694.028 440.419 694.042 440.083 694.042C439.747 694.07 439.327 694.098 438.823 694.126L438.613 693.832C438.641 692.656 438.669 691.466 438.697 690.262C438.725 689.058 438.739 687.672 438.739 686.104C438.739 684.424 438.725 682.926 438.697 681.61C438.669 680.294 438.627 679.118 438.571 678.082C438.515 677.046 438.459 676.122 438.403 675.31C438.347 674.47 438.291 673.7 438.235 673L438.487 672.706C439.019 672.622 439.453 672.552 439.789 672.496C440.125 672.412 440.447 672.342 440.755 672.286C441.063 672.23 441.371 672.174 441.679 672.118C442.015 672.034 442.435 671.95 442.939 671.866L443.233 672.16L443.191 674.344C443.471 674.148 443.835 673.91 444.283 673.63C444.731 673.322 445.263 673.028 445.879 672.748C446.523 672.468 447.237 672.23 448.021 672.034C448.805 671.838 449.659 671.74 450.583 671.74C451.115 671.74 451.689 671.796 452.305 671.908C452.921 672.02 453.509 672.23 454.069 672.538C455.217 673.21 456.029 674.12 456.505 675.268C456.785 675.912 456.953 676.598 457.009 677.326C457.065 678.054 457.107 679.076 457.135 680.392V685.306C457.163 686.538 457.191 687.602 457.219 688.498C457.247 689.366 457.261 690.122 457.261 690.766C457.289 691.41 457.317 691.97 457.345 692.446C457.373 692.894 457.401 693.314 457.429 693.706ZM472.381 690.43L472.675 690.682C472.647 691.018 472.619 691.312 472.591 691.564C472.591 691.788 472.577 691.998 472.549 692.194C472.549 692.39 472.535 692.6 472.507 692.824C472.507 693.02 472.507 693.272 472.507 693.58L472.297 693.832C471.849 693.944 471.401 694.028 470.953 694.084C470.533 694.168 469.931 694.21 469.147 694.21C468.895 694.21 468.559 694.196 468.139 694.168C467.719 694.14 467.271 694.07 466.795 693.958C466.319 693.818 465.843 693.608 465.367 693.328C464.919 693.02 464.527 692.586 464.191 692.026C463.995 691.718 463.841 691.41 463.729 691.102C463.645 690.766 463.575 690.346 463.519 689.842C463.491 689.338 463.463 688.694 463.435 687.91C463.435 687.098 463.435 686.076 463.435 684.844L463.519 675.604C463.155 675.604 462.861 675.604 462.637 675.604C462.413 675.604 462.203 675.618 462.007 675.646C461.839 675.646 461.629 675.66 461.377 675.688C461.153 675.688 460.859 675.688 460.495 675.688L460.327 675.436C460.355 675.1 460.369 674.82 460.369 674.596C460.397 674.372 460.411 674.162 460.411 673.966C460.411 673.742 460.411 673.518 460.411 673.294C460.411 673.042 460.411 672.748 460.411 672.412L460.663 672.16C461.139 672.16 461.559 672.174 461.923 672.202C462.287 672.202 462.819 672.188 463.519 672.16C463.491 671.712 463.477 671.264 463.477 670.816C463.477 670.368 463.477 669.92 463.477 669.472L463.351 667.078L463.561 666.784C464.037 666.672 464.429 666.574 464.737 666.49C465.073 666.406 465.381 666.322 465.661 666.238C465.969 666.154 466.291 666.07 466.627 665.986C466.963 665.874 467.369 665.748 467.845 665.608L468.139 665.818C468.111 666.518 468.083 667.106 468.055 667.582C468.027 668.03 467.999 668.478 467.971 668.926C467.971 669.346 467.971 669.808 467.971 670.312C467.971 670.816 467.971 671.446 467.971 672.202C468.419 672.202 468.797 672.202 469.105 672.202C469.413 672.174 469.721 672.16 470.029 672.16C470.365 672.16 470.729 672.16 471.121 672.16C471.541 672.132 472.045 672.104 472.633 672.076L472.843 672.328C472.815 672.608 472.787 672.86 472.759 673.084C472.759 673.28 472.745 673.49 472.717 673.714C472.717 673.91 472.717 674.134 472.717 674.386C472.717 674.638 472.717 674.946 472.717 675.31L472.507 675.562C471.975 675.562 471.541 675.562 471.205 675.562C470.869 675.534 470.547 675.52 470.239 675.52C469.959 675.492 469.637 675.478 469.273 675.478C468.937 675.478 468.489 675.478 467.929 675.478L467.845 683.29C467.845 683.43 467.845 683.668 467.845 684.004C467.873 684.312 467.887 684.648 467.887 685.012C467.887 685.376 467.887 685.726 467.887 686.062C467.887 686.398 467.887 686.636 467.887 686.776C467.887 687.532 467.915 688.176 467.971 688.708C468.027 689.212 468.139 689.632 468.307 689.968C468.503 690.276 468.755 690.5 469.063 690.64C469.399 690.752 469.833 690.808 470.365 690.808C470.813 690.808 471.205 690.766 471.541 690.682C471.877 690.598 472.157 690.514 472.381 690.43ZM496.383 694.084L488.991 694.126L488.781 693.832C488.809 693.328 488.823 692.824 488.823 692.32C488.851 691.788 488.865 691.228 488.865 690.64C488.893 690.024 488.907 689.352 488.907 688.624C488.907 687.868 488.907 687.014 488.907 686.062C488.907 685.754 488.907 685.278 488.907 684.634C488.907 683.99 488.907 683.262 488.907 682.45C488.907 681.638 488.907 680.77 488.907 679.846C488.935 678.922 488.949 678.054 488.949 677.242C488.949 676.402 488.949 675.66 488.949 675.016C488.949 674.344 488.949 673.84 488.949 673.504C488.949 672.412 488.935 671.432 488.907 670.564C488.907 669.696 488.893 668.926 488.865 668.254C488.837 667.554 488.795 666.924 488.739 666.364C488.711 665.776 488.683 665.202 488.655 664.642L488.865 664.348L494.493 664.264C494.913 664.236 495.417 664.222 496.005 664.222C496.621 664.222 497.209 664.222 497.769 664.222C499.029 664.222 500.275 664.292 501.507 664.432C502.767 664.544 503.929 664.908 504.993 665.524C505.385 665.748 505.777 666.028 506.169 666.364C506.561 666.7 506.911 667.106 507.219 667.582C507.555 668.03 507.821 668.562 508.017 669.178C508.213 669.794 508.311 670.494 508.311 671.278C508.311 671.642 508.255 672.16 508.143 672.832C508.059 673.476 507.807 674.148 507.387 674.848C506.967 675.548 506.337 676.22 505.497 676.864C504.657 677.508 503.509 678.012 502.053 678.376C502.529 678.404 503.103 678.46 503.775 678.544C504.447 678.6 505.161 678.796 505.917 679.132C506.813 679.524 507.527 680.014 508.059 680.602C508.591 681.162 508.983 681.736 509.235 682.324C509.515 682.912 509.697 683.486 509.781 684.046C509.865 684.606 509.907 685.082 509.907 685.474C509.907 687.406 509.361 689.044 508.269 690.388C507.205 691.704 505.833 692.67 504.153 693.286C503.033 693.678 501.871 693.916 500.667 694C499.463 694.056 498.035 694.084 496.383 694.084ZM494.535 680.518L493.527 680.56C493.527 681.764 493.527 682.758 493.527 683.542C493.527 684.298 493.527 685.012 493.527 685.684C493.555 686.356 493.569 687.07 493.569 687.826C493.597 688.554 493.639 689.492 493.695 690.64H494.493C496.089 690.64 497.503 690.626 498.735 690.598C499.995 690.542 501.031 690.346 501.843 690.01C502.851 689.618 503.621 689.016 504.153 688.204C504.713 687.392 504.993 686.454 504.993 685.39C504.993 684.158 504.699 683.206 504.111 682.534C503.523 681.862 502.823 681.372 502.011 681.064C501.227 680.756 500.415 680.574 499.575 680.518C498.735 680.462 498.063 680.434 497.559 680.434C497.475 680.434 497.363 680.434 497.223 680.434C497.111 680.434 496.943 680.434 496.719 680.434C496.523 680.434 496.243 680.448 495.879 680.476C495.543 680.476 495.095 680.49 494.535 680.518ZM493.527 667.708V677.032C495.431 677.06 497.083 677.018 498.483 676.906C499.911 676.766 501.073 676.346 501.969 675.646C502.501 675.198 502.921 674.652 503.229 674.008C503.537 673.364 503.691 672.692 503.691 671.992C503.691 671.432 503.579 670.9 503.355 670.396C503.159 669.864 502.879 669.402 502.515 669.01C502.151 668.646 501.731 668.366 501.255 668.17C500.779 667.974 500.289 667.834 499.785 667.75C499.309 667.666 498.861 667.624 498.441 667.624C498.049 667.596 497.727 667.582 497.475 667.582C496.131 667.582 494.815 667.624 493.527 667.708ZM524.817 676.318L524.523 676.528C524.299 676.444 524.047 676.36 523.767 676.276C523.515 676.192 523.207 676.15 522.843 676.15C522.451 676.15 522.101 676.206 521.793 676.318C521.513 676.43 521.275 676.556 521.079 676.696C520.659 677.004 520.323 677.368 520.071 677.788C519.847 678.18 519.679 678.67 519.567 679.258C519.455 679.818 519.385 680.504 519.357 681.316C519.357 682.1 519.357 683.038 519.357 684.13C519.357 685.306 519.357 686.356 519.357 687.28C519.385 688.204 519.413 689.044 519.441 689.8C519.469 690.556 519.497 691.256 519.525 691.9C519.553 692.516 519.595 693.118 519.651 693.706L519.441 694C518.937 694 518.517 694 518.181 694C517.845 694 517.523 694 517.215 694C516.907 694.028 516.585 694.042 516.249 694.042C515.913 694.07 515.493 694.098 514.989 694.126L514.779 693.874C514.807 692.278 514.821 690.71 514.821 689.17C514.849 687.602 514.863 685.838 514.863 683.878C514.863 682.198 514.849 680.798 514.821 679.678C514.821 678.558 514.807 677.606 514.779 676.822C514.751 676.038 514.709 675.366 514.653 674.806C514.597 674.218 514.541 673.616 514.485 673L514.737 672.706C515.549 672.566 516.249 672.44 516.837 672.328C517.453 672.188 518.209 672.034 519.105 671.866L519.357 672.118L519.147 675.688C519.259 675.352 519.427 674.96 519.651 674.512C519.875 674.036 520.169 673.588 520.533 673.168C520.925 672.748 521.415 672.398 522.003 672.118C522.619 671.81 523.375 671.656 524.271 671.656C524.551 671.656 524.775 671.67 524.943 671.698C525.111 671.698 525.279 671.726 525.447 671.782L525.615 672.034C525.503 672.538 525.405 672.958 525.321 673.294C525.265 673.63 525.209 673.952 525.153 674.26C525.097 674.54 525.041 674.848 524.985 675.184C524.957 675.492 524.901 675.87 524.817 676.318ZM544.767 681.19V685.348C544.767 686.664 544.767 687.714 544.767 688.498C544.767 689.254 544.781 689.912 544.809 690.472C544.837 691.032 544.865 691.55 544.893 692.026C544.921 692.502 544.963 693.076 545.019 693.748L544.809 693.958C544.305 693.958 543.885 693.972 543.549 694C543.241 694 542.947 694 542.667 694C542.387 694.028 542.079 694.042 541.743 694.042C541.435 694.07 541.043 694.098 540.567 694.126L540.399 693.874L540.441 692.362C540.245 692.53 539.979 692.74 539.643 692.992C539.307 693.216 538.887 693.44 538.383 693.664C537.907 693.888 537.347 694.084 536.703 694.252C536.059 694.42 535.345 694.504 534.561 694.504C533.497 694.504 532.531 694.336 531.663 694C530.795 693.664 530.039 693.188 529.395 692.572C528.779 691.956 528.289 691.214 527.925 690.346C527.589 689.478 527.421 688.526 527.421 687.49C527.421 686.09 527.701 684.914 528.261 683.962C528.849 682.982 529.661 682.184 530.697 681.568C531.761 680.924 533.049 680.42 534.561 680.056C536.073 679.692 537.781 679.398 539.685 679.174L540.399 679.09C540.399 678.53 540.385 678.04 540.357 677.62C540.329 677.2 540.217 676.822 540.021 676.486C539.797 676.094 539.419 675.744 538.887 675.436C538.383 675.1 537.599 674.932 536.535 674.932C535.163 674.932 533.973 675.1 532.965 675.436C531.985 675.772 531.047 676.136 530.151 676.528L529.815 676.318C529.843 675.842 529.857 675.464 529.857 675.184C529.885 674.876 529.899 674.624 529.899 674.428C529.899 674.204 529.899 674.008 529.899 673.84C529.927 673.672 529.941 673.476 529.941 673.252L530.193 673C531.369 672.58 532.559 672.244 533.763 671.992C534.967 671.74 536.199 671.614 537.459 671.614C538.243 671.614 538.999 671.684 539.727 671.824C540.483 671.964 541.169 672.202 541.785 672.538C542.429 672.874 542.975 673.322 543.423 673.882C543.899 674.442 544.249 675.128 544.473 675.94C544.613 676.528 544.697 677.326 544.725 678.334C544.753 679.342 544.767 680.294 544.767 681.19ZM540.441 682.198L540.063 682.282C538.999 682.45 537.977 682.632 536.997 682.828C536.017 682.996 535.149 683.262 534.393 683.626C533.637 683.962 533.021 684.424 532.545 685.012C532.097 685.572 531.873 686.314 531.873 687.238C531.873 687.294 531.887 687.532 531.915 687.952C531.971 688.344 532.125 688.778 532.377 689.254C532.629 689.702 533.021 690.122 533.553 690.514C534.085 690.878 534.855 691.06 535.863 691.06C536.507 691.06 537.081 690.99 537.585 690.85C538.117 690.682 538.565 690.5 538.929 690.304C539.321 690.08 539.643 689.87 539.895 689.674C540.147 689.478 540.329 689.324 540.441 689.212V682.198ZM569.484 693.706L569.232 693.958C568.728 693.958 568.308 693.972 567.972 694C567.664 694 567.37 694 567.09 694C566.81 694.028 566.516 694.042 566.208 694.042C565.9 694.07 565.508 694.098 565.032 694.126L564.738 693.832C564.738 693.608 564.738 693.384 564.738 693.16C564.766 692.908 564.78 692.67 564.78 692.446C564.808 691.41 564.822 690.388 564.822 689.38C564.822 688.344 564.822 687.308 564.822 686.272C564.822 684.648 564.822 683.374 564.822 682.45C564.822 681.526 564.808 680.812 564.78 680.308C564.752 679.776 564.724 679.398 564.696 679.174C564.668 678.95 564.626 678.726 564.57 678.502C564.374 677.718 564.094 677.116 563.73 676.696C563.366 676.248 562.988 675.926 562.596 675.73C562.204 675.506 561.84 675.38 561.504 675.352C561.168 675.324 560.93 675.31 560.79 675.31C560.146 675.31 559.544 675.394 558.984 675.562C558.452 675.73 557.948 675.94 557.472 676.192C556.996 676.416 556.562 676.668 556.17 676.948C555.806 677.2 555.484 677.438 555.204 677.662C555.204 679.482 555.204 681.12 555.204 682.576C555.204 684.004 555.218 685.348 555.246 686.608C555.274 687.84 555.302 689.03 555.33 690.178C555.386 691.298 555.456 692.474 555.54 693.706L555.288 693.958C554.784 693.958 554.364 693.972 554.028 694C553.692 694 553.37 694 553.062 694C552.782 694.028 552.474 694.042 552.138 694.042C551.802 694.07 551.382 694.098 550.878 694.126L550.668 693.832C550.696 692.656 550.724 691.466 550.752 690.262C550.78 689.058 550.794 687.672 550.794 686.104C550.794 684.424 550.78 682.926 550.752 681.61C550.724 680.294 550.682 679.118 550.626 678.082C550.57 677.046 550.514 676.122 550.458 675.31C550.402 674.47 550.346 673.7 550.29 673L550.542 672.706C551.074 672.622 551.508 672.552 551.844 672.496C552.18 672.412 552.502 672.342 552.81 672.286C553.118 672.23 553.426 672.174 553.734 672.118C554.07 672.034 554.49 671.95 554.994 671.866L555.288 672.16L555.246 674.344C555.526 674.148 555.89 673.91 556.338 673.63C556.786 673.322 557.318 673.028 557.934 672.748C558.578 672.468 559.292 672.23 560.076 672.034C560.86 671.838 561.714 671.74 562.638 671.74C563.17 671.74 563.744 671.796 564.36 671.908C564.976 672.02 565.564 672.23 566.124 672.538C567.272 673.21 568.084 674.12 568.56 675.268C568.84 675.912 569.008 676.598 569.064 677.326C569.12 678.054 569.162 679.076 569.19 680.392V685.306C569.218 686.538 569.246 687.602 569.274 688.498C569.302 689.366 569.316 690.122 569.316 690.766C569.344 691.41 569.372 691.97 569.4 692.446C569.428 692.894 569.456 693.314 569.484 693.706ZM590.568 688.834L590.904 689.002C590.848 689.45 590.806 689.814 590.778 690.094C590.75 690.374 590.722 690.64 590.694 690.892C590.694 691.144 590.68 691.41 590.652 691.69C590.624 691.97 590.596 692.32 590.568 692.74L590.274 693.034C589.658 693.342 588.902 693.664 588.006 694C587.138 694.308 585.962 694.462 584.478 694.462C582.882 694.462 581.44 694.196 580.152 693.664C578.864 693.104 577.758 692.334 576.834 691.354C575.938 690.374 575.238 689.212 574.734 687.868C574.258 686.496 574.02 684.984 574.02 683.332C574.02 681.652 574.258 680.098 574.734 678.67C575.238 677.242 575.938 676.01 576.834 674.974C577.758 673.91 578.864 673.084 580.152 672.496C581.468 671.908 582.938 671.614 584.562 671.614C585.934 671.614 587.096 671.782 588.048 672.118C589 672.454 589.756 672.734 590.316 672.958L590.484 673.252C590.4 674.008 590.33 674.596 590.274 675.016C590.246 675.436 590.218 675.954 590.19 676.57L589.854 676.738C589.154 676.234 588.412 675.842 587.628 675.562C586.844 675.254 586.032 675.1 585.192 675.1C584.324 675.1 583.484 675.268 582.672 675.604C581.888 675.94 581.188 676.444 580.572 677.116C579.984 677.788 579.508 678.628 579.144 679.636C578.808 680.644 578.64 681.82 578.64 683.164C578.64 684.592 578.822 685.81 579.186 686.818C579.55 687.798 580.04 688.596 580.656 689.212C581.272 689.8 581.972 690.234 582.756 690.514C583.54 690.794 584.338 690.934 585.15 690.934C585.85 690.934 586.494 690.864 587.082 690.724C587.67 690.556 588.188 690.36 588.636 690.136C589.084 689.912 589.462 689.688 589.77 689.464C590.106 689.212 590.372 689.002 590.568 688.834ZM613.206 693.706L612.954 693.958C612.45 693.958 612.03 693.972 611.694 694C611.386 694 611.092 694 610.812 694C610.532 694.028 610.238 694.042 609.93 694.042C609.622 694.07 609.23 694.098 608.754 694.126L608.46 693.832L608.502 692.446C608.53 691.354 608.544 690.262 608.544 689.17C608.544 688.05 608.544 686.944 608.544 685.852L608.502 681.358C608.502 680.882 608.488 680.406 608.46 679.93C608.46 679.454 608.404 678.978 608.292 678.502C608.068 677.522 607.648 676.752 607.032 676.192C606.416 675.604 605.576 675.31 604.512 675.31C603.308 675.31 602.244 675.576 601.32 676.108C600.396 676.64 599.584 677.158 598.884 677.662C598.884 679.482 598.884 681.12 598.884 682.576C598.884 684.004 598.898 685.348 598.926 686.608C598.954 687.84 598.982 689.03 599.01 690.178C599.066 691.298 599.122 692.474 599.178 693.706L598.968 693.958C598.492 693.958 598.086 693.972 597.75 694C597.414 694 597.078 694 596.742 694C596.434 694.028 596.098 694.042 595.734 694.042C595.398 694.07 594.978 694.098 594.474 694.126L594.264 693.832C594.292 693.076 594.306 692.264 594.306 691.396C594.334 690.5 594.362 689.478 594.39 688.33C594.418 687.154 594.432 685.81 594.432 684.298C594.46 682.786 594.474 681.022 594.474 679.006C594.474 677.242 594.46 675.478 594.432 673.714C594.432 671.95 594.418 670.186 594.39 668.422C594.362 667.498 594.334 666.714 594.306 666.07C594.278 665.426 594.25 664.852 594.222 664.348C594.194 663.844 594.166 663.382 594.138 662.962C594.11 662.542 594.082 662.094 594.054 661.618L594.264 661.366C594.768 661.282 595.202 661.212 595.566 661.156C595.93 661.1 596.266 661.044 596.574 660.988C596.91 660.904 597.246 660.834 597.582 660.778C597.946 660.694 598.366 660.596 598.842 660.484L599.094 660.778C598.954 663.046 598.87 665.314 598.842 667.582C598.842 669.822 598.842 672.076 598.842 674.344C599.178 674.12 599.584 673.868 600.06 673.588C600.564 673.28 601.138 672.986 601.782 672.706C602.426 672.426 603.126 672.202 603.882 672.034C604.638 671.838 605.464 671.74 606.36 671.74C606.836 671.74 607.312 671.782 607.788 671.866C608.264 671.922 608.726 672.048 609.174 672.244C610.126 672.636 610.882 673.182 611.442 673.882C612.002 674.582 612.394 675.366 612.618 676.234C612.674 676.458 612.716 676.668 612.744 676.864C612.772 677.032 612.786 677.27 612.786 677.578C612.814 677.858 612.828 678.222 612.828 678.67C612.856 679.118 612.884 679.692 612.912 680.392V685.306L612.954 687.28C612.982 688.176 612.996 688.904 612.996 689.464C613.024 690.024 613.038 690.528 613.038 690.976C613.066 691.396 613.08 691.816 613.08 692.236C613.108 692.628 613.15 693.118 613.206 693.706Z" fill="#00629B"/>
<path d="M333.56 613.968L333.8 614.256L333.656 628.512V633.408C333.56 639.504 333.368 642.288 330.824 644.976C327.272 648.72 321.992 648.72 320.264 648.72C313.832 648.72 310.136 646.32 308.312 643.728C306.632 641.424 306.344 638.832 306.2 633.648V630.096C306.152 622.608 306.152 621.264 305.96 614.4L306.248 614.112C309.512 614.16 310.616 614.16 314.696 613.968L314.936 614.256C314.84 619.008 314.792 622.704 314.792 626.592C314.792 629.136 314.792 631.68 314.888 634.224C314.984 637.248 315.272 638.928 315.992 640.176C317.048 641.856 318.92 642.72 320.888 642.72C322.472 642.72 324.056 642.192 325.112 640.992C326.408 639.456 326.552 637.152 326.552 632.112C326.552 626.208 326.312 620.304 326.072 614.4L326.36 614.112C329.096 614.16 330.056 614.16 333.56 613.968ZM346.71 614.016L350.934 613.92C354.534 613.92 358.614 613.92 361.494 615.6C365.478 617.856 365.958 622.416 365.958 624.48C365.958 627.84 364.806 630.576 363.462 632.208C360.006 636.432 354.246 636.432 348.87 636.384C348.87 641.28 348.87 642.48 349.062 647.712L348.822 648C344.982 647.952 344.214 648 340.662 648.144L340.374 647.856C340.518 642 340.662 636.192 340.662 630.336C340.662 624.816 340.518 620.64 340.326 614.4L340.614 614.112L346.71 614.016ZM348.87 619.824V630.48C351.75 630.48 353.526 630.384 354.822 629.664C357.366 628.272 357.366 625.488 357.366 624.816C357.366 622.032 356.214 619.872 351.99 619.776C350.934 619.776 349.926 619.776 348.87 619.824ZM379.158 613.968L379.398 614.256C379.254 620.88 379.158 627.504 379.158 634.128C379.158 641.088 379.254 643.296 379.494 647.712L379.206 648C375.222 648 374.262 648 370.662 648.144L370.422 647.856C370.614 642.864 370.71 639.936 370.71 634.272C370.71 622.032 370.566 619.584 370.278 614.4L370.47 614.112C373.926 614.16 375.03 614.16 379.158 613.968ZM395.237 613.968L395.477 614.256C395.333 620.88 395.237 627.504 395.237 634.128C395.237 641.088 395.333 643.296 395.573 647.712L395.285 648C391.301 648 390.341 648 386.741 648.144L386.501 647.856C386.693 642.864 386.789 639.936 386.789 634.272C386.789 622.032 386.645 619.584 386.357 614.4L386.549 614.112C390.005 614.16 391.109 614.16 395.237 613.968ZM422.715 620.448L415.275 620.256C415.179 623.328 415.131 624.816 415.131 627.456C415.131 634.224 415.227 640.944 415.467 647.664L415.179 647.952C411.195 647.952 410.235 648 406.683 648.144L406.395 647.856C406.779 635.952 406.779 632.928 406.731 620.352L398.907 620.544L398.667 620.256L399.003 614.352L399.339 614.064H423.099L423.339 614.208L423.003 620.208L422.715 620.448ZM441.889 613.968L442.225 614.256C444.961 624.816 445.633 627.072 451.441 647.616L451.201 648C447.313 647.952 446.353 648 442.849 648.144L442.513 647.856L440.449 638.976H430.081L427.729 647.712L427.393 648H419.905L419.713 647.664C426.769 627.408 428.305 622.56 430.849 614.4L431.185 614.112C436.321 614.112 437.281 614.112 441.889 613.968ZM431.761 633.168H439.057L437.281 625.68L435.841 619.44L434.161 625.056L431.761 633.168ZM467.761 631.344L468.001 631.584L467.665 637.152L467.377 637.44C465.025 637.44 462.673 637.392 460.321 637.392C457.777 637.392 456.193 637.44 453.505 637.488L453.265 637.2L453.553 631.68L453.889 631.392C456.145 631.392 458.449 631.44 460.753 631.44C463.585 631.44 465.457 631.392 467.761 631.344ZM481.393 613.968L481.633 614.256C481.489 620.88 481.393 627.504 481.393 634.128C481.393 641.088 481.489 643.296 481.729 647.712L481.441 648C477.457 648 476.497 648 472.897 648.144L472.657 647.856C472.849 642.864 472.945 639.936 472.945 634.272C472.945 622.032 472.801 619.584 472.513 614.4L472.705 614.112C476.161 614.16 477.265 614.16 481.393 613.968ZM495.023 614.016L499.247 613.92C502.847 613.92 506.927 613.92 509.807 615.6C513.791 617.856 514.271 622.416 514.271 624.48C514.271 627.84 513.119 630.576 511.775 632.208C508.319 636.432 502.559 636.432 497.183 636.384C497.183 641.28 497.183 642.48 497.375 647.712L497.135 648C493.295 647.952 492.527 648 488.975 648.144L488.687 647.856C488.831 642 488.975 636.192 488.975 630.336C488.975 624.816 488.831 620.64 488.639 614.4L488.927 614.112L495.023 614.016ZM497.183 619.824V630.48C500.063 630.48 501.839 630.384 503.135 629.664C505.679 628.272 505.679 625.488 505.679 624.816C505.679 622.032 504.527 619.872 500.303 619.776C499.247 619.776 498.239 619.776 497.183 619.824ZM547.439 613.968L547.727 614.256C547.679 619.632 547.631 624.96 547.631 630.336C547.631 636.096 547.679 640.8 547.727 647.76L547.487 648C544.943 648 544.079 648 541.151 648.144L540.815 647.904L536.543 641.664L531.743 634.608C528.479 629.856 527.711 628.608 525.455 624.864L525.743 631.296L525.887 637.2L526.367 647.712L526.127 648C523.343 648 522.335 648 519.119 648.144L518.879 647.856C518.927 643.2 519.023 638.496 519.023 633.792C519.023 627.36 518.879 621.84 518.639 614.4L518.879 614.112C522.383 614.16 523.007 614.16 526.799 613.968L527.135 614.208C528.335 616.128 529.055 617.184 532.655 622.656L537.023 629.04C539.471 632.688 539.711 633.072 541.103 635.424L540.911 627.504L540.719 620.88L540.383 614.4L540.623 614.112C543.599 614.16 544.415 614.112 547.439 613.968Z" fill="#00629B"/>
<path d="M391.714 230.941C390.575 227.023 389.3 223.151 387.933 219.369C387.751 219.233 387.523 219.096 387.341 218.959C388.981 222.832 390.439 226.841 391.714 230.896V230.941Z" fill="url(#paint0_linear_44_12229)"/>
<path d="M387.022 361.007C387.25 360.87 387.478 360.734 387.706 360.597C389.255 356.315 390.713 351.987 391.988 347.522C390.53 352.123 388.89 356.633 387.022 361.007Z" fill="url(#paint1_linear_44_12229)"/>
<path d="M386.932 333.354L387.068 332.898C381.283 334.174 375.497 335.359 369.666 336.497C375.269 335.814 380.736 334.857 386.112 333.582L386.977 333.4L386.932 333.354Z" fill="url(#paint2_linear_44_12229)"/>
<path d="M386.932 333.354L387.068 332.898C381.283 334.174 375.497 335.359 369.666 336.497C375.269 335.814 380.736 334.857 386.112 333.582L386.977 333.4L386.932 333.354Z" fill="url(#paint3_linear_44_12229)"/>
<path d="M396.499 330.711C396.499 330.711 396.362 330.711 396.316 330.757L396.499 330.711Z" fill="url(#paint4_linear_44_12229)"/>
<path d="M396.499 330.711C396.499 330.711 396.362 330.711 396.316 330.757L396.499 330.711Z" fill="url(#paint5_linear_44_12229)"/>
<path d="M408.115 336.042V337.135H405.063C401.692 338.274 398.32 339.368 394.858 340.279L394.038 340.507V340.598C401.145 339.003 408.252 337.227 415.222 335.359C419.004 330.894 422.329 326.612 425.063 323.013C422.557 323.742 420.051 324.471 417.546 325.199C415.815 328.48 413.901 331.669 411.76 334.675C410.575 335.177 409.345 335.632 408.115 336.088V336.042Z" fill="url(#paint6_linear_44_12229)"/>
<path d="M408.115 336.042C407.113 336.406 406.065 336.77 405.063 337.135H408.115V336.042Z" fill="url(#paint7_linear_44_12229)"/>
<path d="M408.115 336.042C407.113 336.406 406.065 336.77 405.063 337.135H408.115V336.042Z" fill="url(#paint8_linear_44_12229)"/>
<path d="M387.706 360.597C385.701 366.064 383.469 371.394 381.009 376.542C400.644 367.658 416.27 352.032 425.564 332.488C422.147 333.49 418.685 334.447 415.222 335.358C407.341 344.697 397.546 354.674 387.706 360.597Z" fill="url(#paint9_linear_44_12229)"/>
<path d="M393.993 340.552C393.993 340.552 393.856 340.552 393.811 340.552C393.218 342.875 392.626 345.199 391.943 347.477C392.581 345.427 393.218 343.331 393.765 341.235L393.947 340.506L393.993 340.552Z" fill="url(#paint10_linear_44_12229)"/>
<path d="M387.023 361.007C388.891 356.634 390.531 352.124 391.989 347.522C392.627 345.244 393.264 342.921 393.857 340.598C388.936 341.691 383.971 342.739 378.959 343.741C379.916 343.559 380.918 343.422 381.921 343.194L384.381 342.739L383.561 345.108C381.009 352.67 377.729 360.051 373.675 367.385C365.429 370.483 356.636 372.351 347.57 372.852V348.98C344.655 349.39 341.739 349.755 338.869 350.074V372.852C329.621 372.351 320.828 370.392 312.628 367.158C310.031 362.511 307.799 357.818 305.84 353.08C302.742 353.263 299.598 353.445 296.455 353.582C297.275 355.859 298.141 358.137 299.097 360.37C295.954 358.411 292.947 356.224 290.122 353.855C284.61 354.037 279.098 354.128 273.54 354.128C290.897 372.898 315.68 384.652 343.242 384.652C356.91 384.652 369.62 381.782 381.055 376.634C383.515 371.531 385.747 366.201 387.752 360.688C387.524 360.825 387.296 360.962 387.069 361.098L387.023 361.007Z" fill="url(#paint11_linear_44_12229)"/>
<path d="M387.023 361.007C388.891 356.634 390.531 352.124 391.989 347.522C392.627 345.244 393.264 342.921 393.857 340.598C388.936 341.691 383.971 342.739 378.959 343.741C379.916 343.559 380.918 343.422 381.921 343.194L384.381 342.739L383.561 345.108C381.009 352.67 377.729 360.051 373.675 367.385C365.429 370.483 356.636 372.351 347.57 372.852V348.98C344.655 349.39 341.739 349.755 338.869 350.074V372.852C329.621 372.351 320.828 370.392 312.628 367.158C310.031 362.511 307.799 357.818 305.84 353.08C302.742 353.263 299.598 353.445 296.455 353.582C297.275 355.859 298.141 358.137 299.097 360.37C295.954 358.411 292.947 356.224 290.122 353.855C284.61 354.037 279.098 354.128 273.54 354.128C290.897 372.898 315.68 384.652 343.242 384.652C356.91 384.652 369.62 381.782 381.055 376.634C383.515 371.531 385.747 366.201 387.752 360.688C387.524 360.825 387.296 360.962 387.069 361.098L387.023 361.007Z" fill="url(#paint12_linear_44_12229)"/>
<path d="M286.158 295.405C286.431 306.202 287.524 317.318 289.62 328.343L286.158 295.405Z" fill="url(#paint13_linear_44_12229)"/>
<path d="M286.158 295.405C286.431 306.202 287.524 317.318 289.62 328.343L286.158 295.405Z" fill="url(#paint14_linear_44_12229)"/>
<path d="M272.537 333.764C278.641 336.36 285.02 338.502 291.534 340.278L292.354 340.506L292.582 341.326C292.947 342.738 293.357 344.151 293.812 345.517C296.819 345.381 299.826 345.199 302.832 345.016L302.058 342.784L304.518 343.24C306.75 343.65 309.028 344.06 311.261 344.379C331.078 342.784 350.577 340.142 369.665 336.543C363.014 337.363 356.18 337.864 349.073 338H347.57V294.038H391.578V295.541C391.259 308.707 389.893 320.871 387.159 332.534L387.068 332.944C389.118 332.488 391.168 331.987 393.218 331.531V237.82H393.583C392.991 235.542 392.398 233.264 391.715 230.986C390.394 226.932 388.981 222.923 387.341 219.05C387.524 219.187 387.751 219.324 387.934 219.46C385.838 213.629 383.469 207.98 380.872 202.558C369.346 197.547 356.59 194.768 343.196 194.768C290.76 194.768 248.3 237.273 248.3 289.664C248.3 310.848 255.271 330.438 266.979 346.201C271.99 346.201 276.956 346.11 281.876 345.973C278.414 342.192 275.27 338.137 272.537 333.764ZM347.57 206.476C356.772 206.932 365.611 208.936 373.765 212.171C377.774 219.369 381.009 226.704 383.56 234.175L384.38 236.544L381.92 236.089C370.895 233.993 359.734 232.9 348.982 232.626H347.57V206.476ZM347.57 241.282H349.073C362.194 241.601 374.403 242.922 386.111 245.701L386.977 245.929L387.159 246.795C389.893 258.457 391.214 270.667 391.533 283.833V285.336H347.57V241.328V241.282ZM338.823 338H337.319C324.153 337.682 311.944 336.315 300.327 333.581L299.461 333.399L299.279 332.534C296.546 320.871 295.179 308.662 294.905 295.495V293.992H338.868V338H338.823ZM302.878 234.175C305.429 226.658 308.664 219.369 312.673 212.125C320.828 208.891 329.666 206.932 338.868 206.476V232.581H337.456C326.705 232.9 315.543 233.993 304.564 236.089L302.104 236.544L302.924 234.175H302.878ZM299.461 245.883L300.327 245.656C312.035 242.922 324.244 241.555 337.319 241.282H338.823V285.245H294.814V283.742C295.133 270.667 296.5 258.412 299.233 246.749L299.461 245.883ZM299.051 218.959C296.454 225.064 294.313 231.442 292.582 237.956L292.354 238.777L291.534 239.004C285.02 240.781 278.641 242.922 272.537 245.473C279.234 234.767 288.345 225.656 299.051 218.959ZM265.703 259.095C272.901 255.086 280.236 251.851 287.753 249.3L290.122 248.48L289.666 250.94C287.571 261.965 286.477 273.127 286.204 283.833V285.245H260.054C260.51 276.042 262.514 267.25 265.749 259.05L265.703 259.095ZM265.703 320.188C262.469 312.033 260.51 303.195 260.009 293.992H286.113V295.404L289.621 328.342L290.076 330.802L287.707 330.028C280.19 327.477 272.901 324.242 265.703 320.233V320.188Z" fill="url(#paint15_linear_44_12229)"/>
<path d="M393.219 331.485C394.175 331.258 395.087 331.075 396.043 330.848C398.64 317.682 400.007 303.878 400.007 289.664C400.007 271.532 397.729 254.083 393.583 237.774H393.219V331.485Z" fill="url(#paint16_linear_44_12229)"/>
<path d="M393.219 331.485C394.175 331.258 395.087 331.075 396.043 330.848C398.64 317.682 400.007 303.878 400.007 289.664C400.007 271.532 397.729 254.083 393.583 237.774H393.219V331.485Z" fill="url(#paint17_linear_44_12229)"/>
<path d="M411.76 334.629C413.901 331.622 415.86 328.433 417.546 325.153C414.402 326.064 411.259 326.885 408.115 327.75V336.042C409.345 335.586 410.53 335.13 411.76 334.629Z" fill="url(#paint18_linear_44_12229)"/>
<path d="M411.76 334.629C413.901 331.622 415.86 328.433 417.546 325.153C414.402 326.064 411.259 326.885 408.115 327.75V336.042C409.345 335.586 410.53 335.13 411.76 334.629Z" fill="url(#paint19_linear_44_12229)"/>
<path d="M394.038 340.461L394.858 340.233C398.321 339.322 401.692 338.228 405.063 337.089H394.676C394.403 338.274 394.129 339.413 393.856 340.597C393.902 340.597 393.993 340.597 394.038 340.597V340.506V340.461Z" fill="url(#paint20_linear_44_12229)"/>
<path d="M394.038 340.461L394.858 340.233C398.321 339.322 401.692 338.228 405.063 337.089H394.676C394.403 338.274 394.129 339.413 393.856 340.597C393.902 340.597 393.993 340.597 394.038 340.597V340.506V340.461Z" fill="url(#paint21_linear_44_12229)"/>
<path d="M396.316 330.757C396.316 330.757 396.134 330.757 396.042 330.802C395.632 332.898 395.177 334.994 394.676 337.089H405.063C406.065 336.725 407.113 336.406 408.115 335.996V327.705C404.288 328.707 400.416 329.709 396.544 330.666L396.361 330.757H396.316Z" fill="url(#paint22_linear_44_12229)"/>
<path d="M396.316 330.757C396.316 330.757 396.134 330.757 396.042 330.802C395.632 332.898 395.177 334.994 394.676 337.089H405.063C406.065 336.725 407.113 336.406 408.115 335.996V327.705C404.288 328.707 400.416 329.709 396.544 330.666L396.361 330.757H396.316Z" fill="url(#paint23_linear_44_12229)"/>
<path d="M396.316 330.757C396.316 330.757 396.134 330.757 396.042 330.802C395.632 332.898 395.177 334.994 394.676 337.089H405.063C406.065 336.725 407.113 336.406 408.115 335.996V327.705C404.288 328.707 400.416 329.709 396.544 330.666L396.361 330.757H396.316Z" fill="url(#paint24_linear_44_12229)"/>
<path d="M393.219 337.089V331.485C391.169 331.986 389.118 332.442 387.068 332.898L386.932 333.353L386.066 333.535C380.736 334.811 375.269 335.768 369.62 336.451C350.531 340.05 331.033 342.692 311.215 344.287C320.008 345.608 328.846 346.383 337.411 346.61H338.823V349.982C341.739 349.617 344.654 349.253 347.525 348.888V346.656H348.937C358.732 346.383 368.845 345.426 378.914 343.695C383.925 342.738 388.845 341.69 393.811 340.551C394.084 339.412 394.358 338.228 394.631 337.043H393.173L393.219 337.089Z" fill="url(#paint25_linear_44_12229)"/>
<path d="M393.219 337.089V331.485C391.169 331.986 389.118 332.442 387.068 332.898L386.932 333.353L386.066 333.535C380.736 334.811 375.269 335.768 369.62 336.451C350.531 340.05 331.033 342.692 311.215 344.287C320.008 345.608 328.846 346.383 337.411 346.61H338.823V349.982C341.739 349.617 344.654 349.253 347.525 348.888V346.656H348.937C358.732 346.383 368.845 345.426 378.914 343.695C383.925 342.738 388.845 341.69 393.811 340.551C394.084 339.412 394.358 338.228 394.631 337.043H393.173L393.219 337.089Z" fill="url(#paint26_linear_44_12229)"/>
<path d="M393.219 337.089V331.485C391.169 331.986 389.118 332.442 387.068 332.898L386.932 333.353L386.066 333.535C380.736 334.811 375.269 335.768 369.62 336.451C350.531 340.05 331.033 342.692 311.215 344.287C320.008 345.608 328.846 346.383 337.411 346.61H338.823V349.982C341.739 349.617 344.654 349.253 347.525 348.888V346.656H348.937C358.732 346.383 368.845 345.426 378.914 343.695C383.925 342.738 388.845 341.69 393.811 340.551C394.084 339.412 394.358 338.228 394.631 337.043H393.173L393.219 337.089Z" fill="url(#paint27_linear_44_12229)"/>
<path d="M394.677 337.09C395.178 334.994 395.633 332.944 396.043 330.803C395.087 331.031 394.175 331.213 393.219 331.441V337.044H394.677V337.09Z" fill="url(#paint28_linear_44_12229)"/>
<path d="M394.677 337.09C395.178 334.994 395.633 332.944 396.043 330.803C395.087 331.031 394.175 331.213 393.219 331.441V337.044H394.677V337.09Z" fill="url(#paint29_linear_44_12229)"/>
<path d="M394.677 337.09C395.178 334.994 395.633 332.944 396.043 330.803C395.087 331.031 394.175 331.213 393.219 331.441V337.044H394.677V337.09Z" fill="url(#paint30_linear_44_12229)"/>
<path d="M394.677 337.09C395.178 334.994 395.633 332.944 396.043 330.803C395.087 331.031 394.175 331.213 393.219 331.441V337.044H394.677V337.09Z" fill="url(#paint31_linear_44_12229)"/>
<path d="M431.123 321.099C429.118 321.736 427.114 322.329 425.064 322.966C422.33 326.611 419.004 330.893 415.223 335.313C418.686 334.401 422.148 333.445 425.565 332.442C425.792 331.941 426.02 331.486 426.248 330.985C427.524 328.433 429.255 324.515 431.077 321.099H431.123Z" fill="url(#paint32_linear_44_12229)"/>
<path d="M431.123 321.099C429.118 321.736 427.114 322.329 425.064 322.966C422.33 326.611 419.004 330.893 415.223 335.313C418.686 334.401 422.148 333.445 425.565 332.442C425.792 331.941 426.02 331.486 426.248 330.985C427.524 328.433 429.255 324.515 431.077 321.099H431.123Z" fill="url(#paint33_linear_44_12229)"/>
<path d="M302.787 344.971C299.781 345.154 296.774 345.336 293.767 345.472C294.587 348.206 295.453 350.848 296.409 353.491C299.553 353.354 302.651 353.217 305.794 352.989C304.701 350.347 303.699 347.705 302.833 345.062V344.926L302.787 344.971Z" fill="url(#paint34_linear_44_12229)"/>
<path d="M302.787 344.971C299.781 345.154 296.774 345.336 293.767 345.472C294.587 348.206 295.453 350.848 296.409 353.491C299.553 353.354 302.651 353.217 305.794 352.989C304.701 350.347 303.699 347.705 302.833 345.062V344.926L302.787 344.971Z" fill="url(#paint35_linear_44_12229)"/>
<path d="M302.787 344.971C299.781 345.154 296.774 345.336 293.767 345.472C294.587 348.206 295.453 350.848 296.409 353.491C299.553 353.354 302.651 353.217 305.794 352.989C304.701 350.347 303.699 347.705 302.833 345.062V344.926L302.787 344.971Z" fill="url(#paint36_linear_44_12229)"/>
<path d="M281.876 345.928C276.91 346.064 271.944 346.156 266.979 346.156C269.029 348.889 271.215 351.531 273.539 354.037C279.097 354.037 284.609 353.946 290.122 353.764C287.206 351.349 284.473 348.752 281.921 345.973L281.876 345.928Z" fill="url(#paint37_linear_44_12229)"/>
<path d="M281.876 345.928C276.91 346.064 271.944 346.156 266.979 346.156C269.029 348.889 271.215 351.531 273.539 354.037C279.097 354.037 284.609 353.946 290.122 353.764C287.206 351.349 284.473 348.752 281.921 345.973L281.876 345.928Z" fill="url(#paint38_linear_44_12229)"/>
<path d="M281.876 345.928C276.91 346.064 271.944 346.156 266.979 346.156C269.029 348.889 271.215 351.531 273.539 354.037C279.097 354.037 284.609 353.946 290.122 353.764C287.206 351.349 284.473 348.752 281.921 345.973L281.876 345.928Z" fill="url(#paint39_linear_44_12229)"/>
<path d="M271.901 122.834C204.476 176.956 180.558 265.064 204.795 342.876C205.934 343.012 207.118 343.104 208.257 343.24C187.118 266.977 211.537 182.104 277.185 129.394C364.063 59.6455 490.439 72.5382 561.6 157.548C560.734 156.409 559.914 155.316 559.049 154.177C488.435 66.2057 359.872 52.1741 271.901 122.788V122.834Z" fill="url(#paint40_linear_44_12229)"/>
<path d="M240.511 409.936C241.376 411.029 242.333 412.077 243.244 413.17C228.392 393.854 217.504 372.715 210.488 350.711C209.395 350.574 208.347 350.438 207.299 350.347C214.771 371.394 225.796 391.576 240.556 409.981L240.511 409.936Z" fill="url(#paint41_linear_44_12229)"/>
<path d="M207.254 350.301C208.301 350.438 209.395 350.575 210.443 350.666C209.668 348.206 208.939 345.7 208.256 343.195C207.117 343.058 205.932 342.967 204.793 342.83C205.568 345.336 206.388 347.796 207.254 350.301Z" fill="url(#paint42_linear_44_12229)"/>
<path d="M207.254 350.301C208.301 350.438 209.395 350.575 210.443 350.666C209.668 348.206 208.939 345.7 208.256 343.195C207.117 343.058 205.932 342.967 204.793 342.83C205.568 345.336 206.388 347.796 207.254 350.301Z" fill="url(#paint43_linear_44_12229)"/>
<path d="M338.414 65.4766C218.461 100.282 149.442 225.702 184.248 345.609C184.703 347.112 185.204 348.57 185.66 350.074C153.861 231.533 222.561 108.802 341.011 74.4514C459.46 40.1012 583.148 106.979 619.776 224.153C619.366 222.65 619.047 221.146 618.592 219.643C583.74 99.6902 458.321 30.6708 338.414 65.4766Z" fill="url(#paint44_linear_44_12229)"/>
<path d="M135 411.394H147.3C147.984 411.394 148.576 411.394 149.214 411.439C157.369 411.895 161.332 415.129 162.061 421.188C162.517 424.56 161.606 427.566 159.647 430.027C157.505 432.623 154.407 434.081 150.626 434.218H140.604V451.074H135.046V411.394H135ZM146.663 430.345C147.118 430.345 147.528 430.3 147.938 430.3C152.448 430.118 154.499 428.933 155.865 425.926C156.412 424.879 156.64 423.512 156.458 421.781C156.093 417.635 153.77 415.494 148.121 415.129H140.512V430.345H146.617H146.663Z" fill="#231F20"/>
<path d="M177.916 422.92C184.431 424.059 188.759 429.435 188.759 437.179C188.759 444.924 184.385 450.3 177.916 451.439C168.394 453.124 161.196 447.02 161.196 437.179C161.196 427.339 168.349 421.189 177.916 422.92ZM166.618 438.637C167.347 446.154 171.538 449.48 177.187 448.113C180.649 447.248 182.79 444.377 183.292 438.637C183.383 437.68 183.383 436.769 183.292 435.813C182.79 430.027 180.649 427.202 177.187 426.337C171.492 424.924 167.301 428.25 166.618 435.813C166.572 436.268 166.572 436.769 166.572 437.179C166.572 437.68 166.572 438.136 166.618 438.592V438.637Z" fill="#231F20"/>
<path d="M195.545 423.421L202.47 445.516L209.304 423.421H215.636L222.515 445.516L229.577 423.421H234.133L225.386 451.074H219.6L212.311 427.886L205.158 451.074H199.144L190.397 423.421H195.5H195.545Z" fill="#231F20"/>
<path d="M240.694 437.909C240.648 438.455 240.648 439.047 240.694 439.685C241.149 445.79 244.065 448.615 248.347 448.66C251.81 448.751 254.088 447.066 255.09 443.375C255.181 443.148 255.272 442.874 255.272 442.601H259.965C259.965 443.148 259.873 443.74 259.691 444.332C258.552 448.842 254.68 451.712 248.393 451.849C240.83 452.031 236.548 447.886 235.728 439.503C234.771 429.754 239.19 423.968 245.978 423.011C255.135 421.736 260.192 426.155 260.648 436.223C260.648 436.77 260.648 437.316 260.602 437.909H240.739H240.694ZM255.454 435.084C255.5 434.811 255.5 434.492 255.5 434.218C255.318 428.524 252.493 425.79 248.074 425.927C244.338 426.018 241.605 428.478 240.876 433.626C240.785 434.082 240.785 434.537 240.785 435.038H255.5L255.454 435.084Z" fill="#231F20"/>
<path d="M265.886 423.421H270.852V427.339C271.034 427.066 271.171 426.792 271.353 426.564C272.993 424.195 275.043 423.056 278.096 422.92C278.916 422.874 279.781 422.965 280.647 423.148V427.521H280.146L279.462 427.43C273.267 427.111 270.852 429.526 270.852 435.266V451.165H265.886V423.512V423.421Z" fill="#231F20"/>
<path d="M306.66 427.339L306.068 426.564C304.655 424.651 303.79 423.148 303.38 421.827C301.512 416.041 305.156 410.802 311.489 410.893C312.172 410.893 312.81 410.938 313.493 411.121C318.687 412.259 321.147 418.501 317.958 423.467C316.956 425.016 315.361 426.473 313.22 427.703C312.673 427.977 312.081 428.25 311.534 428.523L322.104 441.006C323.06 438.455 323.516 435.813 323.607 433.125H326.66C326.568 434.719 326.341 436.359 325.931 437.954C325.429 439.776 324.792 441.553 323.926 443.193L330.76 451.074H326.887L322.377 445.516C322.058 445.972 321.785 446.336 321.42 446.746C319.37 449.161 316.637 450.847 313.585 451.484C307.115 452.897 301.193 450.118 298.687 445.197C297.867 443.512 297.412 441.69 297.457 439.776C297.548 435.494 300.008 431.576 305.02 428.706C305.703 428.341 306.341 428.068 307.024 427.749L306.705 427.293L306.66 427.339ZM304.883 432.122C304.291 432.669 303.653 433.261 303.106 433.899C298.733 439.047 300.828 446.428 307.115 448.432C311.489 449.844 315.999 448.614 319.416 444.924C319.78 444.469 320.145 444.059 320.464 443.603L308.71 429.754C307.389 430.3 306.113 431.075 304.838 432.122H304.883ZM311.398 425.744C314.541 423.922 315.817 422.145 316.136 419.868C316.637 416.132 313.812 413.398 310.35 414.036C306.204 414.72 304.61 418.683 307.434 423.33C307.753 423.785 308.027 424.196 308.391 424.651C308.938 425.426 309.393 426.018 309.894 426.519C310.441 426.291 310.942 426.063 311.443 425.744H311.398Z" fill="#231F20"/>
<path d="M349.53 411.394H373.994V415.358H355.088V428.569H372.946V432.578H355.088V447.066H374.586V451.029H349.53V411.349V411.394Z" fill="#231F20"/>
<path d="M379.78 423.42H384.746V428.477C384.928 428.158 385.065 427.794 385.247 427.475C387.024 424.422 389.256 422.965 392.673 422.646C399.233 422.053 402.969 425.334 403.242 431.165V432.395L403.288 433.215V451.073H398.322V432.258C398.094 429.935 397.684 428.887 396.682 427.839C395.224 426.29 392.946 425.652 390.44 426.29C386.796 427.156 384.7 430.254 384.7 436.86V451.028H379.734V423.375L379.78 423.42Z" fill="#231F20"/>
<path d="M413.812 437.909C413.766 438.455 413.766 439.047 413.812 439.685C414.268 445.79 417.183 448.615 421.466 448.66C424.928 448.751 427.206 447.066 428.208 443.375C428.299 443.148 428.39 442.874 428.39 442.601H433.083C433.083 443.148 432.992 443.74 432.809 444.332C431.67 448.842 427.798 451.712 421.511 451.849C413.949 452.031 409.666 447.886 408.846 439.503C407.89 429.754 412.309 423.968 419.097 423.011C428.254 421.736 433.311 426.155 433.766 436.223C433.766 436.77 433.766 437.316 433.721 437.909H413.858H413.812ZM428.573 435.084C428.618 434.811 428.618 434.492 428.618 434.218C428.436 428.524 425.611 425.79 421.192 425.927C417.457 426.018 414.723 428.478 413.994 433.626C413.903 434.082 413.903 434.537 413.903 435.038H428.618L428.573 435.084Z" fill="#231F20"/>
<path d="M439.004 423.421H443.97V427.339C444.152 427.066 444.289 426.792 444.471 426.564C446.111 424.195 448.161 423.056 451.214 422.92C452.034 422.874 452.899 422.965 453.765 423.148V427.521H453.264L452.58 427.43C446.385 427.111 443.97 429.526 443.97 435.266V451.165H439.004V423.512V423.421Z" fill="#231F20"/>
<path d="M474.357 423.421H479.368V450.938C479.368 458.592 474.175 463.466 465.109 462.965C458.548 462.601 455.132 459.731 454.676 455.403C454.676 454.993 454.631 454.674 454.676 454.309H459.687C459.687 454.309 459.687 454.674 459.733 454.856C460.006 457.453 461.829 459.138 465.61 459.412C470.849 459.776 473.947 457.043 474.266 452.077C474.311 451.758 474.311 451.439 474.311 451.12V445.061L474.038 445.562L473.491 446.337C470.667 450.619 465.883 452.214 460.69 450.118C456.726 448.478 454.312 445.061 453.537 439.366C453.355 437.726 453.355 435.995 453.628 434.31C454.676 427.795 458.685 423.74 463.104 423.057C468.617 422.191 472.535 424.059 474.311 427.339V423.376L474.357 423.421ZM468.799 447.293C470.803 446.701 472.443 444.97 473.719 441.781C474.084 440.733 474.311 439.64 474.494 438.364C475.359 429.389 470.803 425.244 465.2 426.519C462.011 427.294 459.596 430.209 459.004 435.221C458.913 435.722 458.913 436.268 458.822 436.815C458.594 445.243 463.469 448.979 468.799 447.293Z" fill="#231F20"/>
<path d="M487.341 423.421L495.496 445.516L503.605 423.421H508.115L493.992 461.78H489.118L492.853 451.53L482.011 423.421H487.295H487.341Z" fill="#231F20"/>
<path d="M529.162 440.049C528.66 444.742 532.624 448.523 539.412 447.931C540.505 447.885 541.462 447.612 542.328 447.202C545.517 445.835 546.838 443.648 546.792 440.869C546.701 437.908 545.517 436.45 542.054 435.038L539.184 434.081L535.722 432.806C535.175 432.623 534.628 432.441 534.082 432.213C525.608 428.888 523.057 424.97 525.107 418.273C526.428 413.808 530.893 410.71 538.136 410.71C546.838 410.619 551.804 415.129 552.031 421.006H546.428C546.382 417.498 543.375 414.719 538.091 414.719C533.808 414.719 531.439 416.314 530.392 419.412C529.116 423.375 531.075 426.291 537.817 428.614L541.599 429.89L543.512 430.573L545.015 431.12C551.211 433.398 553.535 437.726 552.122 443.557C550.892 448.386 547.066 451.256 539.868 451.712C538.41 451.803 536.997 451.758 535.585 451.666C528.205 450.983 524.651 448.113 523.74 442.509C523.649 441.689 523.558 440.869 523.649 440.049H529.207H529.162Z" fill="#231F20"/>
<path d="M572.442 422.92C578.956 424.059 583.284 429.435 583.284 437.179C583.284 444.924 578.911 450.3 572.442 451.439C562.92 453.124 555.722 447.02 555.722 437.179C555.722 427.339 562.875 421.189 572.442 422.92ZM561.144 438.637C561.872 446.154 566.064 449.48 571.713 448.113C575.175 447.248 577.316 444.377 577.817 438.637C577.909 437.68 577.909 436.769 577.817 435.813C577.316 430.027 575.175 427.202 571.713 426.337C566.018 424.924 561.827 428.25 561.144 435.813C561.098 436.268 561.098 436.769 561.098 437.179C561.098 437.68 561.098 438.136 561.144 438.592V438.637Z" fill="#231F20"/>
<path d="M606.564 432.396C606.518 432.077 606.473 431.667 606.382 431.257C606.29 430.756 606.108 430.255 605.926 429.845C604.331 426.109 599.047 424.833 595.174 428.068C593.398 429.571 592.259 431.94 591.985 435.858C591.894 437.088 591.94 438.318 592.077 439.548C592.805 445.289 595.129 447.749 599.32 448.022C603.375 448.295 605.88 446.382 606.473 442.51C606.518 442.236 606.518 441.963 606.564 441.735H611.256C611.256 442.327 611.211 442.965 611.028 443.512C609.981 448.842 605.744 452.122 599.047 451.849C591.257 451.575 586.792 446.746 586.655 437.68C586.564 428.979 590.892 423.558 597.27 422.783C605.197 421.735 610.026 425.107 611.12 431.075C611.165 431.53 611.211 432.031 611.302 432.441H606.518L606.564 432.396Z" fill="#231F20"/>
<path d="M615.949 411.394H620.915V417.27H615.949V411.394ZM615.949 423.421H620.915V451.074H615.949V423.421Z" fill="#231F20"/>
<path d="M631.393 437.909C631.347 438.455 631.347 439.047 631.393 439.685C631.848 445.79 634.764 448.615 639.046 448.66C642.509 448.751 644.786 447.066 645.789 443.375C645.88 443.148 645.971 442.874 645.971 442.601H650.663C650.663 443.148 650.572 443.74 650.39 444.332C649.251 448.842 645.379 451.712 639.092 451.849C631.529 452.031 627.247 447.886 626.427 439.503C625.47 429.754 629.889 423.968 636.677 423.011C645.834 421.736 650.891 426.155 651.347 436.223C651.347 436.77 651.347 437.316 651.301 437.909H631.438H631.393ZM646.153 435.084C646.199 434.811 646.199 434.492 646.199 434.218C646.016 428.524 643.192 425.79 638.773 425.927C635.037 426.018 632.304 428.478 631.575 433.626C631.484 434.082 631.484 434.537 631.484 435.038H646.199L646.153 435.084Z" fill="#231F20"/>
<path d="M651.984 423.421H656.996V417.817L661.961 415.812V423.421H668.203V426.792H661.961V443.785C662.28 447.156 663.009 447.794 666.699 447.748C667.246 447.748 667.793 447.703 668.476 447.52V451.211C667.337 451.484 666.335 451.575 665.287 451.666C659.137 451.848 657.041 449.798 657.041 443.466V426.837H652.03V423.466L651.984 423.421Z" fill="#231F20"/>
<path d="M671.757 423.421L679.912 445.516L688.021 423.421H692.532L678.409 461.78H673.534L677.27 451.53L666.427 423.421H671.712H671.757Z" fill="#231F20"/>
<path d="M299.872 405.927C300.692 406.246 301.512 406.519 302.332 406.792C238.916 380.779 207.664 308.753 232.447 244.563C257.276 180.327 328.846 148.026 393.219 171.397C392.399 171.078 391.625 170.714 390.805 170.395C325.749 145.293 252.675 177.639 227.572 242.695C202.47 307.705 234.816 380.825 299.826 405.927H299.872Z" fill="#231F20"/>
<path d="M405.611 245.838H450.758L456.043 246.111C477.364 246.931 487.067 255.542 488.571 273.947C490.348 294.174 477.91 308.57 457.41 309.527L454.494 309.664H436.362V345.517H405.611V245.838ZM443.833 290.575H446.612L448.571 290.439C453.401 290.302 456.726 288.07 458.959 283.514C459.915 281.6 460.507 279.095 460.234 275.632C459.551 267.614 455.405 263.696 446.111 263.332H435.998V290.621H443.879L443.833 290.575Z" fill="#231F20"/>
<path d="M495.496 245.838H567.204V265.655H525.792V284.607H565.245V305.108H525.792V325.746H568.024V345.563H495.451V245.883L495.496 245.838Z" fill="#231F20"/>
<path d="M602.828 312.169C602.555 313.399 602.555 314.675 602.692 315.905C603.238 325.062 609.343 330.164 619.047 329.208C620.732 329.071 622.099 328.661 623.375 328.114C628.067 325.745 630.3 322.283 630.163 317.454C629.889 312.169 626.974 308.433 621.006 306.52L620.049 306.247L614.81 304.743L606.655 302.556C605.699 302.283 604.742 302.01 603.74 301.6C578.956 293.582 571.758 284.425 576.041 266.566C579.503 251.897 592.669 242.876 617.452 243.15C619.685 243.15 622.008 243.286 624.24 243.423C641.689 244.926 650.709 250.074 655.812 259.368C658.317 263.924 659.411 269.072 659.137 274.311H630.208V272.215C630.072 270.53 629.525 268.89 628.842 267.386C626.199 262.557 621.644 260.325 614.719 261.008C613.215 261.145 611.803 261.555 610.573 262.101C605.562 264.744 603.512 269.163 604.605 274.448C605.744 279.003 608.933 281.646 618.045 284.288L627.202 286.93L638.135 289.983C655.584 294.948 663.465 307.294 659.593 324.06C656.267 338.456 645.607 345.927 622.783 347.157C618.227 347.294 614.036 347.294 609.89 346.884C591.211 345.335 581.371 339.139 576.223 328.205C573.854 323.239 573.034 317.818 573.581 312.26H602.92L602.828 312.169Z" fill="#231F20"/>
<path d="M406.02 187.98H415.314V236.271H406.02V187.98Z" fill="#231F20"/>
<path d="M421.647 187.98H454.175V195.315H432.626V207.798H453.082V215.315H432.626V228.982H454.676V236.271H421.602V187.98H421.647Z" fill="#231F20"/>
<path d="M460.097 187.98H492.625V195.315H471.077V207.798H491.532V215.315H471.077V228.982H493.126V236.271H460.052V187.98H460.097Z" fill="#231F20"/>
<path d="M498.547 187.98H531.075V195.315H509.526V207.798H529.981V215.315H509.526V228.982H531.622V236.271H498.547V187.98Z" fill="#231F20"/>
<path d="M287.799 382.328C238.824 352.488 222.879 288.981 251.626 239.597C251.262 240.189 250.852 240.781 250.442 241.419C220.191 291.031 235.909 355.768 285.521 386.018C335.133 416.268 399.915 400.551 430.12 350.939C430.484 350.301 430.849 349.663 431.213 349.026C400.508 397.18 336.773 412.168 287.799 382.282V382.328Z" fill="#231F20"/>
<path d="M719 422.1C719 427.476 714.673 431.758 709.16 431.758C703.648 431.758 699.229 427.476 699.229 422.1C699.229 416.724 703.648 412.487 709.206 412.487C714.764 412.487 719 416.724 719 422.1ZM701.689 422.1C701.689 426.382 704.923 429.799 709.206 429.799C713.351 429.845 716.54 426.382 716.54 422.191C716.54 418 713.351 414.446 709.069 414.446C704.787 414.446 701.689 417.909 701.689 422.145V422.1ZM707.611 427.066H705.379V417.453C706.244 417.316 707.474 417.18 709.069 417.18C710.891 417.18 711.711 417.453 712.349 417.954C712.941 418.364 713.351 419.093 713.351 420.004C713.351 421.189 712.486 421.918 711.347 422.282V422.419C712.304 422.692 712.759 423.467 713.032 424.742C713.306 426.2 713.579 426.747 713.716 427.111H711.392C711.119 426.747 710.937 425.927 710.618 424.742C710.436 423.74 709.843 423.284 708.613 423.284H707.566V427.111L707.611 427.066ZM707.657 421.69H708.704C709.935 421.69 710.937 421.28 710.937 420.278C710.937 419.412 710.299 418.82 708.887 418.82C708.294 418.82 707.884 418.865 707.657 418.956V421.69Z" fill="#231F20"/>
<defs>
<linearGradient id="paint0_linear_44_12229" x1="500.779" y1="224.973" x2="215.271" y2="224.973" gradientUnits="userSpaceOnUse">
<stop stop-color="#C2D72E"/>
<stop offset="0.16" stop-color="#97C93C"/>
<stop offset="1" stop-color="#23582C"/>
</linearGradient>
<linearGradient id="paint1_linear_44_12229" x1="500.779" y1="354.264" x2="215.271" y2="354.264" gradientUnits="userSpaceOnUse">
<stop stop-color="#C2D72E"/>
<stop offset="0.16" stop-color="#97C93C"/>
<stop offset="1" stop-color="#23582C"/>
</linearGradient>
<linearGradient id="paint2_linear_44_12229" x1="500.78" y1="334.675" x2="215.272" y2="334.675" gradientUnits="userSpaceOnUse">
<stop stop-color="#C2D72E"/>
<stop offset="0.16" stop-color="#97C93C"/>
<stop offset="1" stop-color="#23582C"/>
</linearGradient>
<linearGradient id="paint3_linear_44_12229" x1="500.78" y1="334.675" x2="215.272" y2="334.675" gradientUnits="userSpaceOnUse">
<stop stop-color="#C2D72E"/>
<stop offset="0.16" stop-color="#97C93C"/>
<stop offset="1" stop-color="#23582C"/>
</linearGradient>
<linearGradient id="paint4_linear_44_12229" x1="500.871" y1="330.757" x2="215.124" y2="330.757" gradientUnits="userSpaceOnUse">
<stop stop-color="#C2D72E"/>
<stop offset="0.16" stop-color="#97C93C"/>
<stop offset="1" stop-color="#23582C"/>
</linearGradient>
<linearGradient id="paint5_linear_44_12229" x1="500.871" y1="330.757" x2="215.124" y2="330.757" gradientUnits="userSpaceOnUse">
<stop stop-color="#C2D72E"/>
<stop offset="0.16" stop-color="#97C93C"/>
<stop offset="1" stop-color="#23582C"/>
</linearGradient>
<linearGradient id="paint6_linear_44_12229" x1="500.779" y1="331.76" x2="215.271" y2="331.76" gradientUnits="userSpaceOnUse">
<stop stop-color="#C2D72E"/>
<stop offset="0.16" stop-color="#97C93C"/>
<stop offset="1" stop-color="#23582C"/>
</linearGradient>
<linearGradient id="paint7_linear_44_12229" x1="500.779" y1="336.543" x2="215.271" y2="336.543" gradientUnits="userSpaceOnUse">
<stop stop-color="#C2D72E"/>
<stop offset="0.16" stop-color="#97C93C"/>
<stop offset="1" stop-color="#23582C"/>
</linearGradient>
<linearGradient id="paint8_linear_44_12229" x1="500.779" y1="336.543" x2="215.271" y2="336.543" gradientUnits="userSpaceOnUse">
<stop stop-color="#C2D72E"/>
<stop offset="0.16" stop-color="#97C93C"/>
<stop offset="1" stop-color="#23582C"/>
</linearGradient>
<linearGradient id="paint9_linear_44_12229" x1="500.779" y1="354.492" x2="215.271" y2="354.492" gradientUnits="userSpaceOnUse">
<stop stop-color="#C2D72E"/>
<stop offset="0.16" stop-color="#97C93C"/>
<stop offset="1" stop-color="#23582C"/>
</linearGradient>
<linearGradient id="paint10_linear_44_12229" x1="500.779" y1="344.014" x2="215.273" y2="344.014" gradientUnits="userSpaceOnUse">
<stop stop-color="#C2D72E"/>
<stop offset="0.16" stop-color="#97C93C"/>
<stop offset="1" stop-color="#23582C"/>
</linearGradient>
<linearGradient id="paint11_linear_44_12229" x1="500.78" y1="362.556" x2="215.272" y2="362.556" gradientUnits="userSpaceOnUse">
<stop stop-color="#C2D72E"/>
<stop offset="0.16" stop-color="#97C93C"/>
<stop offset="1" stop-color="#23582C"/>
</linearGradient>
<linearGradient id="paint12_linear_44_12229" x1="500.78" y1="362.556" x2="215.272" y2="362.556" gradientUnits="userSpaceOnUse">
<stop stop-color="#C2D72E"/>
<stop offset="0.16" stop-color="#97C93C"/>
<stop offset="1" stop-color="#23582C"/>
</linearGradient>
<linearGradient id="paint13_linear_44_12229" x1="500.778" y1="311.851" x2="215.271" y2="311.851" gradientUnits="userSpaceOnUse">
<stop stop-color="#C2D72E"/>
<stop offset="0.16" stop-color="#97C93C"/>
<stop offset="1" stop-color="#23582C"/>
</linearGradient>
<linearGradient id="paint14_linear_44_12229" x1="500.778" y1="311.851" x2="215.271" y2="311.851" gradientUnits="userSpaceOnUse">
<stop stop-color="#C2D72E"/>
<stop offset="0.16" stop-color="#97C93C"/>
<stop offset="1" stop-color="#23582C"/>
</linearGradient>
<linearGradient id="paint15_linear_44_12229" x1="500.779" y1="270.439" x2="215.271" y2="270.439" gradientUnits="userSpaceOnUse">
<stop stop-color="#C2D72E"/>
<stop offset="0.16" stop-color="#97C93C"/>
<stop offset="1" stop-color="#23582C"/>
</linearGradient>
<linearGradient id="paint16_linear_44_12229" x1="500.78" y1="284.607" x2="215.271" y2="284.607" gradientUnits="userSpaceOnUse">
<stop stop-color="#C2D72E"/>
<stop offset="0.16" stop-color="#97C93C"/>
<stop offset="1" stop-color="#23582C"/>
</linearGradient>
<linearGradient id="paint17_linear_44_12229" x1="500.78" y1="284.607" x2="215.271" y2="284.607" gradientUnits="userSpaceOnUse">
<stop stop-color="#C2D72E"/>
<stop offset="0.16" stop-color="#97C93C"/>
<stop offset="1" stop-color="#23582C"/>
</linearGradient>
<linearGradient id="paint18_linear_44_12229" x1="500.733" y1="330.575" x2="215.316" y2="330.575" gradientUnits="userSpaceOnUse">
<stop stop-color="#C2D72E"/>
<stop offset="0.16" stop-color="#97C93C"/>
<stop offset="1" stop-color="#23582C"/>
</linearGradient>
<linearGradient id="paint19_linear_44_12229" x1="500.733" y1="330.575" x2="215.316" y2="330.575" gradientUnits="userSpaceOnUse">
<stop stop-color="#C2D72E"/>
<stop offset="0.16" stop-color="#97C93C"/>
<stop offset="1" stop-color="#23582C"/>
</linearGradient>
<linearGradient id="paint20_linear_44_12229" x1="500.779" y1="338.866" x2="215.271" y2="338.866" gradientUnits="userSpaceOnUse">
<stop stop-color="#C2D72E"/>
<stop offset="0.16" stop-color="#97C93C"/>
<stop offset="1" stop-color="#23582C"/>
</linearGradient>
<linearGradient id="paint21_linear_44_12229" x1="500.779" y1="338.866" x2="215.271" y2="338.866" gradientUnits="userSpaceOnUse">
<stop stop-color="#C2D72E"/>
<stop offset="0.16" stop-color="#97C93C"/>
<stop offset="1" stop-color="#23582C"/>
</linearGradient>
<linearGradient id="paint22_linear_44_12229" x1="500.779" y1="332.443" x2="215.271" y2="332.443" gradientUnits="userSpaceOnUse">
<stop stop-color="#C2D72E"/>
<stop offset="0.16" stop-color="#97C93C"/>
<stop offset="1" stop-color="#23582C"/>
</linearGradient>
<linearGradient id="paint23_linear_44_12229" x1="500.779" y1="332.443" x2="215.271" y2="332.443" gradientUnits="userSpaceOnUse">
<stop stop-color="#C2D72E"/>
<stop offset="0.16" stop-color="#97C93C"/>
<stop offset="1" stop-color="#23582C"/>
</linearGradient>
<linearGradient id="paint24_linear_44_12229" x1="500.779" y1="332.443" x2="215.271" y2="332.443" gradientUnits="userSpaceOnUse">
<stop stop-color="#C2D72E"/>
<stop offset="0.16" stop-color="#97C93C"/>
<stop offset="1" stop-color="#23582C"/>
</linearGradient>
<linearGradient id="paint25_linear_44_12229" x1="500.78" y1="340.779" x2="215.271" y2="340.779" gradientUnits="userSpaceOnUse">
<stop stop-color="#C2D72E"/>
<stop offset="0.16" stop-color="#97C93C"/>
<stop offset="1" stop-color="#23582C"/>
</linearGradient>
<linearGradient id="paint26_linear_44_12229" x1="500.78" y1="340.779" x2="215.271" y2="340.779" gradientUnits="userSpaceOnUse">
<stop stop-color="#C2D72E"/>
<stop offset="0.16" stop-color="#97C93C"/>
<stop offset="1" stop-color="#23582C"/>
</linearGradient>
<linearGradient id="paint27_linear_44_12229" x1="500.78" y1="340.779" x2="215.271" y2="340.779" gradientUnits="userSpaceOnUse">
<stop stop-color="#C2D72E"/>
<stop offset="0.16" stop-color="#97C93C"/>
<stop offset="1" stop-color="#23582C"/>
</linearGradient>
<linearGradient id="paint28_linear_44_12229" x1="500.78" y1="333.946" x2="215.272" y2="333.946" gradientUnits="userSpaceOnUse">
<stop stop-color="#C2D72E"/>
<stop offset="0.16" stop-color="#97C93C"/>
<stop offset="1" stop-color="#23582C"/>
</linearGradient>
<linearGradient id="paint29_linear_44_12229" x1="500.78" y1="333.946" x2="215.272" y2="333.946" gradientUnits="userSpaceOnUse">
<stop stop-color="#C2D72E"/>
<stop offset="0.16" stop-color="#97C93C"/>
<stop offset="1" stop-color="#23582C"/>
</linearGradient>
<linearGradient id="paint30_linear_44_12229" x1="500.78" y1="333.946" x2="215.272" y2="333.946" gradientUnits="userSpaceOnUse">
<stop stop-color="#C2D72E"/>
<stop offset="0.16" stop-color="#97C93C"/>
<stop offset="1" stop-color="#23582C"/>
</linearGradient>
<linearGradient id="paint31_linear_44_12229" x1="500.78" y1="333.946" x2="215.272" y2="333.946" gradientUnits="userSpaceOnUse">
<stop stop-color="#C2D72E"/>
<stop offset="0.16" stop-color="#97C93C"/>
<stop offset="1" stop-color="#23582C"/>
</linearGradient>
<linearGradient id="paint32_linear_44_12229" x1="500.734" y1="328.206" x2="215.317" y2="328.206" gradientUnits="userSpaceOnUse">
<stop stop-color="#C2D72E"/>
<stop offset="0.16" stop-color="#97C93C"/>
<stop offset="1" stop-color="#23582C"/>
</linearGradient>
<linearGradient id="paint33_linear_44_12229" x1="500.734" y1="328.206" x2="215.317" y2="328.206" gradientUnits="userSpaceOnUse">
<stop stop-color="#C2D72E"/>
<stop offset="0.16" stop-color="#97C93C"/>
<stop offset="1" stop-color="#23582C"/>
</linearGradient>
<linearGradient id="paint34_linear_44_12229" x1="500.78" y1="349.254" x2="215.272" y2="349.254" gradientUnits="userSpaceOnUse">
<stop stop-color="#C2D72E"/>
<stop offset="0.16" stop-color="#97C93C"/>
<stop offset="1" stop-color="#23582C"/>
</linearGradient>
<linearGradient id="paint35_linear_44_12229" x1="500.78" y1="349.254" x2="215.272" y2="349.254" gradientUnits="userSpaceOnUse">
<stop stop-color="#C2D72E"/>
<stop offset="0.16" stop-color="#97C93C"/>
<stop offset="1" stop-color="#23582C"/>
</linearGradient>
<linearGradient id="paint36_linear_44_12229" x1="500.78" y1="349.254" x2="215.272" y2="349.254" gradientUnits="userSpaceOnUse">
<stop stop-color="#C2D72E"/>
<stop offset="0.16" stop-color="#97C93C"/>
<stop offset="1" stop-color="#23582C"/>
</linearGradient>
<linearGradient id="paint37_linear_44_12229" x1="500.779" y1="349.982" x2="215.271" y2="349.982" gradientUnits="userSpaceOnUse">
<stop stop-color="#C2D72E"/>
<stop offset="0.16" stop-color="#97C93C"/>
<stop offset="1" stop-color="#23582C"/>
</linearGradient>
<linearGradient id="paint38_linear_44_12229" x1="500.779" y1="349.982" x2="215.271" y2="349.982" gradientUnits="userSpaceOnUse">
<stop stop-color="#C2D72E"/>
<stop offset="0.16" stop-color="#97C93C"/>
<stop offset="1" stop-color="#23582C"/>
</linearGradient>
<linearGradient id="paint39_linear_44_12229" x1="500.779" y1="349.982" x2="215.271" y2="349.982" gradientUnits="userSpaceOnUse">
<stop stop-color="#C2D72E"/>
<stop offset="0.16" stop-color="#97C93C"/>
<stop offset="1" stop-color="#23582C"/>
</linearGradient>
<linearGradient id="paint40_linear_44_12229" x1="500.781" y1="210.532" x2="215.273" y2="210.532" gradientUnits="userSpaceOnUse">
<stop stop-color="#C2D72E"/>
<stop offset="0.16" stop-color="#97C93C"/>
<stop offset="1" stop-color="#23582C"/>
</linearGradient>
<linearGradient id="paint41_linear_44_12229" x1="500.78" y1="381.736" x2="215.272" y2="381.736" gradientUnits="userSpaceOnUse">
<stop stop-color="#C2D72E"/>
<stop offset="0.16" stop-color="#97C93C"/>
<stop offset="1" stop-color="#23582C"/>
</linearGradient>
<linearGradient id="paint42_linear_44_12229" x1="500.78" y1="346.794" x2="215.272" y2="346.794" gradientUnits="userSpaceOnUse">
<stop stop-color="#00A1DF"/>
<stop offset="1" stop-color="#808184"/>
</linearGradient>
<linearGradient id="paint43_linear_44_12229" x1="500.78" y1="346.794" x2="215.272" y2="346.794" gradientUnits="userSpaceOnUse">
<stop stop-color="#C2D72E"/>
<stop offset="0.16" stop-color="#97C93C"/>
<stop offset="1" stop-color="#23582C"/>
</linearGradient>
<linearGradient id="paint44_linear_44_12229" x1="500.78" y1="203.242" x2="215.272" y2="203.242" gradientUnits="userSpaceOnUse">
<stop stop-color="#C2D72E"/>
<stop offset="0.16" stop-color="#97C93C"/>
<stop offset="1" stop-color="#23582C"/>
</linearGradient>
</defs>
</svg>
