<svg width="604" height="559" viewBox="0 0 604 559" fill="none" xmlns="http://www.w3.org/2000/svg">
<g clip-path="url(#clip0_44_11429)">
<path d="M0 402L604.5 402" stroke="#8E9093" stroke-width="3" stroke-miterlimit="10"/>
<path d="M119.043 529.222L119.337 529.516C119.211 532.33 119.127 535.648 119.127 542.872C119.127 550.936 119.211 554.38 119.463 558.706L119.211 559C117.363 559.042 116.775 559.042 114.549 559.126L114.297 558.832C114.381 556.27 114.465 554.044 114.465 548.626C114.465 542.284 114.465 535.984 114.171 529.684L114.381 529.348C116.229 529.348 116.901 529.348 119.043 529.222ZM144.452 555.262L144.704 555.556C144.578 556.984 144.578 557.278 144.494 558.706L144.2 559C136.01 559 134.708 559.042 126.728 559.126L126.518 558.832C126.644 555.514 126.77 553.246 126.77 545.56C126.77 538.504 126.77 534.472 126.476 529.642L126.728 529.348C135.002 529.306 136.64 529.306 144.368 529.222L144.62 529.516C144.494 530.776 144.41 531.28 144.326 532.792L144.074 533.086C138.656 532.918 136.85 532.918 131.516 532.876C131.39 536.74 131.39 537.958 131.39 541.822C136.556 541.864 138.152 541.822 143.276 541.738L143.486 542.032C143.318 543.502 143.318 543.922 143.276 545.266L143.024 545.56C138.152 545.434 137.102 545.434 131.39 545.434C131.306 550.306 131.348 551.482 131.39 555.472C137.732 555.472 139.034 555.472 144.452 555.262ZM167.216 555.262L167.468 555.556C167.342 556.984 167.342 557.278 167.258 558.706L166.964 559C158.774 559 157.472 559.042 149.492 559.126L149.282 558.832C149.408 555.514 149.534 553.246 149.534 545.56C149.534 538.504 149.534 534.472 149.24 529.642L149.492 529.348C157.766 529.306 159.404 529.306 167.132 529.222L167.384 529.516C167.258 530.776 167.174 531.28 167.09 532.792L166.838 533.086C161.42 532.918 159.614 532.918 154.28 532.876C154.154 536.74 154.154 537.958 154.154 541.822C159.32 541.864 160.916 541.822 166.04 541.738L166.25 542.032C166.082 543.502 166.082 543.922 166.04 545.266L165.788 545.56C160.916 545.434 159.866 545.434 154.154 545.434C154.07 550.306 154.112 551.482 154.154 555.472C160.496 555.472 161.798 555.472 167.216 555.262ZM189.98 555.262L190.232 555.556C190.106 556.984 190.106 557.278 190.022 558.706L189.728 559C181.538 559 180.236 559.042 172.256 559.126L172.046 558.832C172.172 555.514 172.298 553.246 172.298 545.56C172.298 538.504 172.298 534.472 172.004 529.642L172.256 529.348C180.53 529.306 182.168 529.306 189.896 529.222L190.147 529.516C190.022 530.776 189.938 531.28 189.854 532.792L189.602 533.086C184.184 532.918 182.378 532.918 177.044 532.876C176.918 536.74 176.918 537.958 176.918 541.822C182.084 541.864 183.68 541.822 188.804 541.738L189.014 542.032C188.846 543.502 188.846 543.922 188.804 545.266L188.552 545.56C183.68 545.434 182.63 545.434 176.918 545.434C176.834 550.306 176.876 551.482 176.918 555.472C183.26 555.472 184.562 555.472 189.98 555.262ZM215.809 541.276L217.909 542.2C220.975 543.544 225.049 545.308 225.049 550.684C225.049 555.388 221.563 559.63 214.255 559.63C209.803 559.63 206.947 558.286 205.939 557.782L205.771 557.488C205.939 556.018 205.981 555.22 206.107 553.624L206.527 553.456C207.577 554.17 210.013 555.934 213.919 555.934C218.245 555.934 220.051 553.708 220.051 551.188C220.051 548.248 217.615 547.114 214.885 546.064L212.785 545.14C209.803 543.754 205.813 541.948 205.813 536.824C205.813 535.27 206.233 533.674 207.115 532.414C209.047 529.642 212.533 528.718 215.935 528.718C219.253 528.718 221.269 529.348 223.495 530.062L223.705 530.398C223.537 531.994 223.495 532.582 223.369 534.094L223.033 534.262C221.227 533.338 219.253 532.33 216.103 532.33C212.617 532.33 210.433 533.968 210.433 536.446C210.433 538.336 211.693 539.218 212.575 539.764C213.121 540.1 213.289 540.184 215.809 541.276ZM238.993 555.43L239.287 555.682C239.161 557.068 239.161 557.362 239.119 558.58L238.909 558.832C238.027 559.042 237.313 559.21 235.759 559.21C234.751 559.21 232.105 559.21 230.803 557.026C230.047 555.808 230.047 554.8 230.047 549.844L230.131 540.604C228.661 540.604 228.619 540.646 227.107 540.688L226.939 540.436C227.023 539.092 227.023 538.756 227.023 537.412L227.275 537.16C228.199 537.16 228.745 537.202 230.131 537.16C230.089 536.278 230.089 535.354 230.089 534.472C230.047 533.674 230.005 532.876 229.963 532.078L230.173 531.784C232.063 531.322 232.525 531.196 234.457 530.608L234.751 530.818C234.625 533.59 234.583 534.136 234.583 537.202C236.347 537.16 236.851 537.16 239.245 537.076L239.455 537.328C239.371 538.42 239.329 538.882 239.329 540.31L239.119 540.562C237.019 540.52 236.767 540.478 234.541 540.478L234.457 548.29C234.499 548.794 234.499 551.188 234.499 551.776C234.499 554.842 234.877 555.808 236.977 555.808C237.859 555.808 238.531 555.598 238.993 555.43ZM261.147 536.992L261.399 537.286C261.315 540.478 261.273 543.46 261.273 546.862C261.273 552.028 261.399 555.136 261.483 556.942C261.483 557.53 261.525 558.118 261.567 558.706L261.399 558.958C259.383 559 259.047 559.042 257.115 559.126L256.863 558.874L256.905 557.11C255.981 557.782 253.755 559.504 250.311 559.504C248.673 559.504 246.867 559.126 245.523 558.076C242.835 555.892 242.835 552.322 242.793 549.046V546.442C242.709 540.436 242.709 539.764 242.583 537.496L242.793 537.202C244.767 537.16 245.145 537.16 247.119 536.992L247.371 537.286L247.203 546.484C247.203 547.618 247.161 548.458 247.203 550.474C247.245 552.238 247.329 556.018 251.571 556.018C254.049 556.018 255.813 554.632 256.821 553.834C256.863 551.566 256.863 549.634 256.863 547.198C256.863 541.36 256.821 540.184 256.569 537.454L256.821 537.16C258.753 537.118 259.215 537.118 261.147 536.992ZM281.181 526.618L281.391 526.366C283.533 525.988 283.953 525.904 285.843 525.484L286.137 525.736C285.843 531.574 285.801 541.99 285.801 546.19C285.801 552.7 285.969 555.808 286.137 558.706L285.927 559C284.079 559 283.575 559.042 281.643 559.126L281.349 558.874L281.433 557.32C280.425 558.076 278.703 559.42 275.637 559.42C270.051 559.42 266.187 555.01 266.187 548.626C266.187 544.048 268.119 541.15 269.883 539.596C272.949 536.824 276.939 536.698 279.123 536.698C280.005 536.698 280.425 536.698 281.559 536.782C281.601 531.574 281.391 529.054 281.181 526.618ZM281.391 553.834C281.475 548.332 281.475 547.072 281.433 540.184C280.719 540.142 280.215 540.058 279.333 540.058C278.031 540.058 275.259 540.142 273.243 542.032C272.319 542.914 270.807 544.888 270.807 548.626C270.807 551.02 271.479 552.742 272.361 553.792C273.117 554.674 274.503 555.682 276.687 555.682C279.249 555.682 280.803 554.338 281.391 553.834ZM308.901 553.666L309.237 553.876C309.027 555.556 308.985 555.976 308.901 557.614L308.649 557.908C307.935 558.286 305.667 559.504 301.929 559.504C295.041 559.504 290.715 555.556 290.715 548.248C290.715 540.436 295.419 536.614 300.921 536.614C304.239 536.614 306.549 538 307.809 539.512C310.203 542.368 310.119 546.526 310.077 548.374L309.783 548.626C303.231 548.584 302.097 548.584 295.209 548.626C295.251 550.096 295.377 552.154 296.805 553.876C298.527 555.934 300.921 556.144 302.223 556.144C303.441 556.144 304.701 555.934 305.877 555.514C307.431 554.884 308.355 554.128 308.901 553.666ZM305.751 545.392C305.709 544.804 305.667 543.88 305.331 542.914C304.491 540.604 302.643 539.638 300.753 539.638C298.401 539.638 295.629 541.234 295.209 545.434C300.291 545.476 301.887 545.434 305.751 545.392ZM333.429 558.706L333.177 558.958C331.161 559 330.909 559 328.977 559.126L328.683 558.832C328.683 558.37 328.725 557.908 328.725 557.446C328.767 555.388 328.767 553.33 328.767 551.272C328.767 544.804 328.725 544.384 328.515 543.502C327.717 540.31 325.323 540.31 324.735 540.31C322.215 540.31 320.283 541.78 319.149 542.662C319.107 549.97 319.191 553.792 319.485 558.706L319.233 558.958C317.175 559 316.839 559 314.823 559.126L314.613 558.832C314.655 556.48 314.739 554.212 314.739 551.104C314.739 544.384 314.445 540.814 314.235 538L314.487 537.706C316.587 537.328 316.965 537.244 318.939 536.866L319.233 537.16L319.191 539.344C320.283 538.588 322.887 536.74 326.583 536.74C327.633 536.74 328.935 536.908 330.069 537.538C331.161 538.168 332.043 539.134 332.505 540.268C333.051 541.528 333.093 542.788 333.135 545.392V550.306C333.261 555.22 333.303 557.11 333.429 558.706ZM348.381 555.43L348.675 555.682C348.549 557.068 348.549 557.362 348.507 558.58L348.297 558.832C347.415 559.042 346.701 559.21 345.147 559.21C344.139 559.21 341.493 559.21 340.191 557.026C339.435 555.808 339.435 554.8 339.435 549.844L339.519 540.604C338.049 540.604 338.007 540.646 336.495 540.688L336.327 540.436C336.411 539.092 336.411 538.756 336.411 537.412L336.663 537.16C337.587 537.16 338.133 537.202 339.519 537.16C339.477 536.278 339.477 535.354 339.477 534.472C339.435 533.674 339.393 532.876 339.351 532.078L339.561 531.784C341.451 531.322 341.913 531.196 343.845 530.608L344.139 530.818C344.013 533.59 343.971 534.136 343.971 537.202C345.735 537.16 346.239 537.16 348.633 537.076L348.843 537.328C348.759 538.42 348.717 538.882 348.717 540.31L348.507 540.562C346.407 540.52 346.155 540.478 343.929 540.478L343.845 548.29C343.887 548.794 343.887 551.188 343.887 551.776C343.887 554.842 344.265 555.808 346.365 555.808C347.247 555.808 347.919 555.598 348.381 555.43ZM372.383 559.084L364.991 559.126L364.781 558.832C364.865 556.816 364.907 554.884 364.907 551.062C364.907 549.256 364.949 540.478 364.949 538.504C364.949 534.094 364.823 531.826 364.655 529.642L364.865 529.348L370.493 529.264C371.333 529.222 372.635 529.222 373.769 529.222C376.247 529.222 378.893 529.306 380.993 530.524C382.547 531.406 384.311 533.17 384.311 536.278C384.311 537.748 383.891 541.948 378.053 543.376C379.019 543.418 380.405 543.46 381.917 544.132C385.529 545.728 385.907 548.92 385.907 550.474C385.907 554.338 383.513 557.068 380.153 558.286C377.927 559.084 375.701 559.084 372.383 559.084ZM370.535 545.518L369.527 545.56C369.527 550.348 369.527 551.062 369.695 555.64H370.493C373.643 555.64 376.205 555.682 377.843 555.01C379.859 554.254 380.993 552.49 380.993 550.39C380.993 545.476 375.575 545.434 373.559 545.434C373.181 545.434 372.803 545.434 370.535 545.518ZM369.527 532.708V542.032C373.307 542.074 376.205 542.032 377.969 540.646C379.019 539.764 379.691 538.378 379.691 536.992C379.691 535.858 379.229 534.766 378.515 534.01C377.045 532.582 374.441 532.582 373.475 532.582C372.131 532.582 370.829 532.624 369.527 532.708ZM400.817 541.318L400.523 541.528C400.103 541.36 399.557 541.15 398.843 541.15C398.045 541.15 397.457 541.444 397.079 541.696C395.357 542.914 395.357 544.762 395.357 549.13C395.357 553.876 395.483 556.354 395.651 558.706L395.441 559C393.467 559 393.005 559.042 390.989 559.126L390.779 558.874C390.821 555.682 390.863 552.784 390.863 548.878C390.863 542.158 390.737 540.436 390.485 538L390.737 537.706C392.333 537.412 393.341 537.202 395.105 536.866L395.357 537.118L395.147 540.688C395.651 539.344 396.701 536.656 400.271 536.656C400.817 536.656 401.111 536.698 401.447 536.782L401.615 537.034C401.195 539.05 401.111 539.47 400.817 541.318ZM420.767 546.19V550.348C420.767 555.556 420.809 556.018 421.019 558.748L420.809 558.958C418.835 559 418.499 559.042 416.567 559.126L416.399 558.874L416.441 557.362C415.643 557.992 413.753 559.504 410.561 559.504C406.361 559.504 403.421 556.648 403.421 552.49C403.421 546.862 408.125 545.056 415.685 544.174L416.399 544.09C416.399 542.956 416.399 542.158 416.021 541.486C415.601 540.73 414.635 539.932 412.535 539.932C409.805 539.932 407.915 540.772 406.151 541.528L405.815 541.318C405.899 539.386 405.899 539.134 405.941 538.252L406.193 538C408.545 537.16 410.981 536.614 413.459 536.614C416.567 536.614 419.591 537.664 420.473 540.94C420.767 542.116 420.767 544.426 420.767 546.19ZM416.441 547.198L416.063 547.282C411.821 547.912 407.873 548.5 407.873 552.238C407.873 552.448 407.873 556.06 411.863 556.06C414.467 556.06 415.979 554.632 416.441 554.212V547.198ZM445.484 558.706L445.232 558.958C443.216 559 442.964 559 441.032 559.126L440.738 558.832C440.738 558.37 440.78 557.908 440.78 557.446C440.822 555.388 440.822 553.33 440.822 551.272C440.822 544.804 440.78 544.384 440.57 543.502C439.772 540.31 437.378 540.31 436.79 540.31C434.27 540.31 432.338 541.78 431.204 542.662C431.162 549.97 431.246 553.792 431.54 558.706L431.288 558.958C429.23 559 428.894 559 426.878 559.126L426.668 558.832C426.71 556.48 426.794 554.212 426.794 551.104C426.794 544.384 426.5 540.814 426.29 538L426.542 537.706C428.642 537.328 429.02 537.244 430.994 536.866L431.288 537.16L431.246 539.344C432.338 538.588 434.942 536.74 438.638 536.74C439.688 536.74 440.99 536.908 442.124 537.538C443.216 538.168 444.098 539.134 444.56 540.268C445.106 541.528 445.148 542.788 445.19 545.392V550.306C445.316 555.22 445.358 557.11 445.484 558.706ZM466.568 553.834L466.904 554.002C466.736 555.808 466.694 556.018 466.568 557.74L466.274 558.034C465.056 558.622 463.418 559.462 460.478 559.462C454.136 559.462 450.02 554.884 450.02 548.332C450.02 541.654 454.052 536.614 460.562 536.614C463.292 536.614 465.224 537.496 466.316 537.958L466.484 538.252C466.316 539.764 466.274 540.31 466.19 541.57L465.854 541.738C464.468 540.73 462.872 540.1 461.192 540.1C457.706 540.1 454.64 542.788 454.64 548.164C454.64 553.876 457.874 555.934 461.15 555.934C464.006 555.934 465.77 554.464 466.568 553.834ZM489.206 558.706L488.954 558.958C486.938 559 486.686 559 484.754 559.126L484.46 558.832L484.502 557.446C484.544 555.262 484.544 553.036 484.544 550.852L484.502 546.358C484.502 545.392 484.502 544.426 484.292 543.502C483.83 541.57 482.654 540.31 480.512 540.31C478.118 540.31 476.27 541.654 474.884 542.662C474.842 549.97 474.926 553.792 475.178 558.706L474.968 558.958C473.036 559 472.532 559 470.474 559.126L470.264 558.832C470.348 555.85 470.474 552.07 470.474 544.006C470.474 540.478 470.432 536.95 470.39 533.422C470.306 529.726 470.18 528.508 470.054 526.618L470.264 526.366C472.28 526.03 472.952 525.904 474.842 525.484L475.094 525.778C474.842 530.272 474.842 534.808 474.842 539.344C476.186 538.462 478.832 536.74 482.36 536.74C483.326 536.74 484.292 536.866 485.174 537.244C487.064 538 488.198 539.512 488.618 541.234C488.828 542.074 488.828 542.578 488.912 545.392V550.306L488.954 552.28C489.038 555.808 489.038 556.396 489.206 558.706Z" fill="#00629B"/>
<path d="M208.56 482.968L208.8 483.256L208.656 497.512V502.408C208.56 508.504 208.368 511.288 205.824 513.976C202.272 517.72 196.992 517.72 195.264 517.72C188.832 517.72 185.136 515.32 183.312 512.728C181.632 510.424 181.344 507.832 181.2 502.648V499.096C181.152 491.608 181.152 490.264 180.96 483.4L181.248 483.112C184.512 483.16 185.616 483.16 189.696 482.968L189.936 483.256C189.84 488.008 189.792 491.704 189.792 495.592C189.792 498.136 189.792 500.68 189.888 503.224C189.984 506.248 190.272 507.928 190.992 509.176C192.048 510.856 193.92 511.72 195.888 511.72C197.472 511.72 199.056 511.192 200.112 509.992C201.408 508.456 201.552 506.152 201.552 501.112C201.552 495.208 201.312 489.304 201.072 483.4L201.36 483.112C204.096 483.16 205.056 483.16 208.56 482.968ZM221.71 483.016L225.934 482.92C229.534 482.92 233.614 482.92 236.494 484.6C240.478 486.856 240.958 491.416 240.958 493.48C240.958 496.84 239.806 499.576 238.462 501.208C235.006 505.432 229.246 505.432 223.87 505.384C223.87 510.28 223.87 511.48 224.062 516.712L223.822 517C219.982 516.952 219.214 517 215.662 517.144L215.374 516.856C215.518 511 215.662 505.192 215.662 499.336C215.662 493.816 215.518 489.64 215.326 483.4L215.614 483.112L221.71 483.016ZM223.87 488.824V499.48C226.75 499.48 228.526 499.384 229.822 498.664C232.366 497.272 232.366 494.488 232.366 493.816C232.366 491.032 231.214 488.872 226.99 488.776C225.934 488.776 224.926 488.776 223.87 488.824ZM254.158 482.968L254.398 483.256C254.254 489.88 254.158 496.504 254.158 503.128C254.158 510.088 254.254 512.296 254.494 516.712L254.206 517C250.222 517 249.262 517 245.662 517.144L245.422 516.856C245.614 511.864 245.71 508.936 245.71 503.272C245.71 491.032 245.566 488.584 245.278 483.4L245.47 483.112C248.926 483.16 250.03 483.16 254.158 482.968ZM270.237 482.968L270.477 483.256C270.333 489.88 270.237 496.504 270.237 503.128C270.237 510.088 270.333 512.296 270.573 516.712L270.285 517C266.301 517 265.341 517 261.741 517.144L261.501 516.856C261.693 511.864 261.789 508.936 261.789 503.272C261.789 491.032 261.645 488.584 261.357 483.4L261.549 483.112C265.005 483.16 266.109 483.16 270.237 482.968ZM297.715 489.448L290.275 489.256C290.179 492.328 290.131 493.816 290.131 496.456C290.131 503.224 290.227 509.944 290.467 516.664L290.179 516.952C286.195 516.952 285.235 517 281.683 517.144L281.395 516.856C281.779 504.952 281.779 501.928 281.731 489.352L273.907 489.544L273.667 489.256L274.003 483.352L274.339 483.064H298.099L298.339 483.208L298.003 489.208L297.715 489.448ZM316.889 482.968L317.225 483.256C319.961 493.816 320.633 496.072 326.441 516.616L326.201 517C322.313 516.952 321.353 517 317.849 517.144L317.513 516.856L315.449 507.976H305.081L302.729 516.712L302.393 517H294.905L294.713 516.664C301.769 496.408 303.305 491.56 305.849 483.4L306.185 483.112C311.321 483.112 312.281 483.112 316.889 482.968ZM306.761 502.168H314.057L312.281 494.68L310.841 488.44L309.161 494.056L306.761 502.168ZM342.761 500.344L343.001 500.584L342.665 506.152L342.377 506.44C340.025 506.44 337.673 506.392 335.321 506.392C332.777 506.392 331.193 506.44 328.505 506.488L328.265 506.2L328.553 500.68L328.889 500.392C331.145 500.392 333.449 500.44 335.753 500.44C338.585 500.44 340.457 500.392 342.761 500.344ZM356.393 482.968L356.633 483.256C356.489 489.88 356.393 496.504 356.393 503.128C356.393 510.088 356.489 512.296 356.729 516.712L356.441 517C352.457 517 351.497 517 347.897 517.144L347.657 516.856C347.849 511.864 347.945 508.936 347.945 503.272C347.945 491.032 347.801 488.584 347.513 483.4L347.705 483.112C351.161 483.16 352.265 483.16 356.393 482.968ZM370.023 483.016L374.247 482.92C377.847 482.92 381.927 482.92 384.807 484.6C388.791 486.856 389.271 491.416 389.271 493.48C389.271 496.84 388.119 499.576 386.775 501.208C383.319 505.432 377.559 505.432 372.183 505.384C372.183 510.28 372.183 511.48 372.375 516.712L372.135 517C368.295 516.952 367.527 517 363.975 517.144L363.687 516.856C363.831 511 363.975 505.192 363.975 499.336C363.975 493.816 363.831 489.64 363.639 483.4L363.927 483.112L370.023 483.016ZM372.183 488.824V499.48C375.063 499.48 376.839 499.384 378.135 498.664C380.679 497.272 380.679 494.488 380.679 493.816C380.679 491.032 379.527 488.872 375.303 488.776C374.247 488.776 373.239 488.776 372.183 488.824ZM422.439 482.968L422.727 483.256C422.679 488.632 422.631 493.96 422.631 499.336C422.631 505.096 422.679 509.8 422.727 516.76L422.487 517C419.943 517 419.079 517 416.151 517.144L415.815 516.904L411.543 510.664L406.743 503.608C403.479 498.856 402.711 497.608 400.455 493.864L400.743 500.296L400.887 506.2L401.367 516.712L401.127 517C398.343 517 397.335 517 394.119 517.144L393.879 516.856C393.927 512.2 394.023 507.496 394.023 502.792C394.023 496.36 393.879 490.84 393.639 483.4L393.879 483.112C397.383 483.16 398.007 483.16 401.799 482.968L402.135 483.208C403.335 485.128 404.055 486.184 407.655 491.656L412.023 498.04C414.471 501.688 414.711 502.072 416.103 504.424L415.911 496.504L415.719 489.88L415.383 483.4L415.623 483.112C418.599 483.16 419.415 483.112 422.439 482.968Z" fill="#00629B"/>
<path d="M273.18 142.49C272.249 139.291 271.207 136.128 270.091 133.04C269.942 132.929 269.756 132.817 269.607 132.706C270.947 135.868 272.138 139.142 273.18 142.453V142.49Z" fill="url(#paint0_linear_44_11429)"/>
<path d="M269.347 248.708C269.533 248.597 269.719 248.485 269.905 248.373C271.17 244.876 272.361 241.342 273.403 237.696C272.212 241.453 270.873 245.137 269.347 248.708Z" fill="url(#paint1_linear_44_11429)"/>
<path d="M269.273 226.125L269.384 225.753C264.659 226.795 259.933 227.762 255.17 228.693C259.747 228.134 264.212 227.353 268.603 226.311L269.31 226.163L269.273 226.125Z" fill="url(#paint2_linear_44_11429)"/>
<path d="M269.273 226.125L269.384 225.753C264.659 226.795 259.933 227.762 255.17 228.693C259.747 228.134 264.212 227.353 268.603 226.311L269.31 226.163L269.273 226.125Z" fill="url(#paint3_linear_44_11429)"/>
<path d="M277.087 223.967C277.087 223.967 276.975 223.967 276.938 224.004L277.087 223.967Z" fill="url(#paint4_linear_44_11429)"/>
<path d="M277.087 223.967C277.087 223.967 276.975 223.967 276.938 224.004L277.087 223.967Z" fill="url(#paint5_linear_44_11429)"/>
<path d="M286.575 228.321V229.213H284.082C281.328 230.144 278.575 231.036 275.747 231.781L275.077 231.967V232.041C280.882 230.739 286.687 229.288 292.38 227.763C295.468 224.117 298.185 220.619 300.417 217.68C298.371 218.275 296.324 218.871 294.278 219.466C292.864 222.145 291.301 224.749 289.552 227.204C288.585 227.614 287.58 227.986 286.575 228.358V228.321Z" fill="url(#paint6_linear_44_11429)"/>
<path d="M286.575 228.32C285.756 228.618 284.901 228.916 284.082 229.213H286.575V228.32Z" fill="url(#paint7_linear_44_11429)"/>
<path d="M286.575 228.32C285.756 228.618 284.901 228.916 284.082 229.213H286.575V228.32Z" fill="url(#paint8_linear_44_11429)"/>
<path d="M269.905 248.373C268.268 252.837 266.445 257.19 264.436 261.394C280.473 254.14 293.236 241.379 300.827 225.418C298.037 226.236 295.209 227.018 292.381 227.762C285.943 235.389 277.943 243.536 269.905 248.373Z" fill="url(#paint9_linear_44_11429)"/>
<path d="M275.04 232.004C275.04 232.004 274.929 232.004 274.891 232.004C274.408 233.901 273.924 235.798 273.366 237.659C273.887 235.984 274.408 234.273 274.854 232.562L275.003 231.966L275.04 232.004Z" fill="url(#paint10_linear_44_11429)"/>
<path d="M269.347 248.708C270.873 245.136 272.213 241.453 273.403 237.696C273.924 235.835 274.445 233.938 274.929 232.041C270.91 232.933 266.854 233.789 262.761 234.608C263.543 234.459 264.361 234.347 265.18 234.161L267.189 233.789L266.519 235.724C264.436 241.9 261.756 247.927 258.445 253.917C251.71 256.446 244.528 257.972 237.123 258.381V238.886C234.742 239.221 232.36 239.519 230.016 239.779V258.381C222.462 257.972 215.281 256.372 208.583 253.731C206.462 249.936 204.638 246.104 203.038 242.234C200.508 242.383 197.941 242.532 195.373 242.644C196.043 244.504 196.75 246.364 197.531 248.187C194.964 246.587 192.508 244.802 190.201 242.867C185.698 243.016 181.196 243.09 176.656 243.09C190.833 258.418 211.076 268.017 233.588 268.017C244.751 268.017 255.133 265.673 264.473 261.469C266.482 257.302 268.305 252.949 269.943 248.448C269.757 248.559 269.571 248.671 269.385 248.782L269.347 248.708Z" fill="url(#paint11_linear_44_11429)"/>
<path d="M269.347 248.708C270.873 245.136 272.213 241.453 273.403 237.696C273.924 235.835 274.445 233.938 274.929 232.041C270.91 232.933 266.854 233.789 262.761 234.608C263.543 234.459 264.361 234.347 265.18 234.161L267.189 233.789L266.519 235.724C264.436 241.9 261.756 247.927 258.445 253.917C251.71 256.446 244.528 257.972 237.123 258.381V238.886C234.742 239.221 232.36 239.519 230.016 239.779V258.381C222.462 257.972 215.281 256.372 208.583 253.731C206.462 249.936 204.638 246.104 203.038 242.234C200.508 242.383 197.941 242.532 195.373 242.644C196.043 244.504 196.75 246.364 197.531 248.187C194.964 246.587 192.508 244.802 190.201 242.867C185.698 243.016 181.196 243.09 176.656 243.09C190.833 258.418 211.076 268.017 233.588 268.017C244.751 268.017 255.133 265.673 264.473 261.469C266.482 257.302 268.305 252.949 269.943 248.448C269.757 248.559 269.571 248.671 269.385 248.782L269.347 248.708Z" fill="url(#paint12_linear_44_11429)"/>
<path d="M186.963 195.134C187.186 203.952 188.079 213.03 189.791 222.033L186.963 195.134Z" fill="url(#paint13_linear_44_11429)"/>
<path d="M186.963 195.134C187.186 203.952 188.079 213.03 189.791 222.033L186.963 195.134Z" fill="url(#paint14_linear_44_11429)"/>
<path d="M175.837 226.46C180.824 228.581 186.033 230.329 191.354 231.78L192.024 231.966L192.21 232.636C192.508 233.789 192.843 234.942 193.215 236.059C195.671 235.947 198.126 235.798 200.582 235.649L199.95 233.826L201.959 234.198C203.782 234.533 205.643 234.868 207.466 235.128C223.653 233.826 239.579 231.668 255.17 228.729C249.737 229.399 244.156 229.808 238.351 229.92H237.123V194.018H273.068V195.245C272.808 205.998 271.691 215.931 269.459 225.455L269.384 225.79C271.059 225.418 272.733 225.009 274.408 224.637V148.108H274.705C274.222 146.248 273.738 144.387 273.18 142.527C272.101 139.216 270.947 135.942 269.608 132.78C269.756 132.891 269.943 133.003 270.091 133.114C268.38 128.352 266.445 123.739 264.324 119.312C254.91 115.219 244.491 112.95 233.551 112.95C190.722 112.95 156.042 147.661 156.042 190.446C156.042 207.746 161.735 223.744 171.298 236.617C175.391 236.617 179.447 236.542 183.466 236.431C180.638 233.343 178.07 230.031 175.837 226.46ZM237.123 122.511C244.639 122.883 251.858 124.52 258.519 127.162C261.793 133.04 264.435 139.03 266.519 145.131L267.189 147.066L265.18 146.694C256.175 144.983 247.058 144.09 238.276 143.866H237.123V122.511ZM237.123 150.935H238.351C249.067 151.196 259.04 152.275 268.603 154.544L269.31 154.73L269.459 155.437C271.691 164.961 272.771 174.932 273.031 185.684V186.912H237.123V150.972V150.935ZM229.979 229.92H228.751C217.997 229.659 208.024 228.543 198.536 226.311L197.829 226.162L197.68 225.455C195.447 215.931 194.331 205.96 194.108 195.208V193.981H230.016V229.92H229.979ZM200.62 145.131C202.703 138.993 205.345 133.04 208.62 127.125C215.28 124.483 222.499 122.883 230.016 122.511V143.829H228.862C220.081 144.09 210.964 144.983 201.996 146.694L199.987 147.066L200.657 145.131H200.62ZM197.829 154.693L198.536 154.507C208.099 152.275 218.071 151.158 228.751 150.935H229.979V186.837H194.033V185.61C194.294 174.932 195.41 164.924 197.643 155.4L197.829 154.693ZM197.494 132.705C195.373 137.691 193.624 142.899 192.21 148.219L192.024 148.889L191.354 149.075C186.033 150.526 180.824 152.275 175.837 154.358C181.307 145.615 188.749 138.174 197.494 132.705ZM170.256 165.482C176.135 162.208 182.126 159.567 188.266 157.483L190.201 156.814L189.829 158.823C188.117 167.826 187.224 176.941 187.001 185.684V186.837H165.642C166.014 179.322 167.651 172.142 170.293 165.445L170.256 165.482ZM170.256 215.373C167.614 208.713 166.014 201.496 165.605 193.981H186.926V195.134L189.791 222.033L190.163 224.042L188.228 223.409C182.089 221.326 176.135 218.684 170.256 215.41V215.373Z" fill="url(#paint15_linear_44_11429)"/>
<path d="M274.408 224.599C275.19 224.413 275.934 224.265 276.715 224.079C278.836 213.327 279.953 202.054 279.953 190.446C279.953 175.639 278.092 161.389 274.706 148.07H274.408V224.599Z" fill="url(#paint16_linear_44_11429)"/>
<path d="M274.408 224.599C275.19 224.413 275.934 224.265 276.715 224.079C278.836 213.327 279.953 202.054 279.953 190.446C279.953 175.639 278.092 161.389 274.706 148.07H274.408V224.599Z" fill="url(#paint17_linear_44_11429)"/>
<path d="M289.552 227.167C291.301 224.711 292.901 222.107 294.278 219.428C291.71 220.172 289.143 220.842 286.575 221.549V228.32C287.58 227.948 288.547 227.576 289.552 227.167Z" fill="url(#paint18_linear_44_11429)"/>
<path d="M289.552 227.167C291.301 224.711 292.901 222.107 294.278 219.428C291.71 220.172 289.143 220.842 286.575 221.549V228.32C287.58 227.948 288.547 227.576 289.552 227.167Z" fill="url(#paint19_linear_44_11429)"/>
<path d="M275.077 231.929L275.747 231.743C278.575 230.999 281.328 230.106 284.082 229.176H275.598C275.375 230.143 275.151 231.073 274.928 232.041C274.965 232.041 275.04 232.041 275.077 232.041V231.966V231.929Z" fill="url(#paint20_linear_44_11429)"/>
<path d="M275.077 231.929L275.747 231.743C278.575 230.999 281.328 230.106 284.082 229.176H275.598C275.375 230.143 275.151 231.073 274.928 232.041C274.965 232.041 275.04 232.041 275.077 232.041V231.966V231.929Z" fill="url(#paint21_linear_44_11429)"/>
<path d="M276.938 224.004C276.938 224.004 276.789 224.004 276.714 224.042C276.38 225.753 276.007 227.464 275.598 229.176H284.082C284.901 228.878 285.757 228.618 286.575 228.283V221.512C283.45 222.33 280.287 223.149 277.124 223.93L276.975 224.004H276.938Z" fill="url(#paint22_linear_44_11429)"/>
<path d="M276.938 224.004C276.938 224.004 276.789 224.004 276.714 224.042C276.38 225.753 276.007 227.464 275.598 229.176H284.082C284.901 228.878 285.757 228.618 286.575 228.283V221.512C283.45 222.33 280.287 223.149 277.124 223.93L276.975 224.004H276.938Z" fill="url(#paint23_linear_44_11429)"/>
<path d="M276.938 224.004C276.938 224.004 276.789 224.004 276.714 224.042C276.38 225.753 276.007 227.464 275.598 229.176H284.082C284.901 228.878 285.757 228.618 286.575 228.283V221.512C283.45 222.33 280.287 223.149 277.124 223.93L276.975 224.004H276.938Z" fill="url(#paint24_linear_44_11429)"/>
<path d="M274.408 229.176V224.6C272.733 225.009 271.059 225.381 269.385 225.753L269.273 226.125L268.566 226.274C264.212 227.316 259.747 228.097 255.133 228.655C239.542 231.594 223.616 233.752 207.429 235.054C214.611 236.133 221.83 236.765 228.825 236.951H229.979V239.705C232.36 239.407 234.742 239.109 237.086 238.812V236.989H238.239C246.24 236.765 254.5 235.984 262.724 234.57C266.817 233.789 270.836 232.933 274.892 232.003C275.115 231.073 275.338 230.106 275.561 229.139H274.371L274.408 229.176Z" fill="url(#paint25_linear_44_11429)"/>
<path d="M274.408 229.176V224.6C272.733 225.009 271.059 225.381 269.385 225.753L269.273 226.125L268.566 226.274C264.212 227.316 259.747 228.097 255.133 228.655C239.542 231.594 223.616 233.752 207.429 235.054C214.611 236.133 221.83 236.765 228.825 236.951H229.979V239.705C232.36 239.407 234.742 239.109 237.086 238.812V236.989H238.239C246.24 236.765 254.5 235.984 262.724 234.57C266.817 233.789 270.836 232.933 274.892 232.003C275.115 231.073 275.338 230.106 275.561 229.139H274.371L274.408 229.176Z" fill="url(#paint26_linear_44_11429)"/>
<path d="M274.408 229.176V224.6C272.733 225.009 271.059 225.381 269.385 225.753L269.273 226.125L268.566 226.274C264.212 227.316 259.747 228.097 255.133 228.655C239.542 231.594 223.616 233.752 207.429 235.054C214.611 236.133 221.83 236.765 228.825 236.951H229.979V239.705C232.36 239.407 234.742 239.109 237.086 238.812V236.989H238.239C246.24 236.765 254.5 235.984 262.724 234.57C266.817 233.789 270.836 232.933 274.892 232.003C275.115 231.073 275.338 230.106 275.561 229.139H274.371L274.408 229.176Z" fill="url(#paint27_linear_44_11429)"/>
<path d="M275.599 229.176C276.008 227.465 276.38 225.791 276.715 224.042C275.934 224.228 275.19 224.377 274.408 224.563V229.139H275.599V229.176Z" fill="url(#paint28_linear_44_11429)"/>
<path d="M275.599 229.176C276.008 227.465 276.38 225.791 276.715 224.042C275.934 224.228 275.19 224.377 274.408 224.563V229.139H275.599V229.176Z" fill="url(#paint29_linear_44_11429)"/>
<path d="M275.599 229.176C276.008 227.465 276.38 225.791 276.715 224.042C275.934 224.228 275.19 224.377 274.408 224.563V229.139H275.599V229.176Z" fill="url(#paint30_linear_44_11429)"/>
<path d="M275.599 229.176C276.008 227.465 276.38 225.791 276.715 224.042C275.934 224.228 275.19 224.377 274.408 224.563V229.139H275.599V229.176Z" fill="url(#paint31_linear_44_11429)"/>
<path d="M305.367 216.117C303.73 216.638 302.093 217.122 300.418 217.643C298.186 220.619 295.469 224.116 292.381 227.725C295.209 226.981 298.037 226.2 300.828 225.381C301.014 224.972 301.2 224.6 301.386 224.191C302.428 222.107 303.842 218.908 305.33 216.117H305.367Z" fill="url(#paint32_linear_44_11429)"/>
<path d="M305.367 216.117C303.73 216.638 302.093 217.122 300.418 217.643C298.186 220.619 295.469 224.116 292.381 227.725C295.209 226.981 298.037 226.2 300.828 225.381C301.014 224.972 301.2 224.6 301.386 224.191C302.428 222.107 303.842 218.908 305.33 216.117H305.367Z" fill="url(#paint33_linear_44_11429)"/>
<path d="M200.545 235.612C198.09 235.761 195.634 235.91 193.178 236.022C193.848 238.254 194.555 240.412 195.336 242.57C197.903 242.458 200.434 242.346 203.001 242.16C202.108 240.003 201.29 237.845 200.583 235.687V235.575L200.545 235.612Z" fill="url(#paint34_linear_44_11429)"/>
<path d="M200.545 235.612C198.09 235.761 195.634 235.91 193.178 236.022C193.848 238.254 194.555 240.412 195.336 242.57C197.903 242.458 200.434 242.346 203.001 242.16C202.108 240.003 201.29 237.845 200.583 235.687V235.575L200.545 235.612Z" fill="url(#paint35_linear_44_11429)"/>
<path d="M200.545 235.612C198.09 235.761 195.634 235.91 193.178 236.022C193.848 238.254 194.555 240.412 195.336 242.57C197.903 242.458 200.434 242.346 203.001 242.16C202.108 240.003 201.29 237.845 200.583 235.687V235.575L200.545 235.612Z" fill="url(#paint36_linear_44_11429)"/>
<path d="M183.465 236.394C179.409 236.505 175.353 236.58 171.297 236.58C172.972 238.812 174.758 240.97 176.656 243.016C181.195 243.016 185.698 242.942 190.2 242.793C187.819 240.821 185.586 238.7 183.502 236.431L183.465 236.394Z" fill="url(#paint37_linear_44_11429)"/>
<path d="M183.465 236.394C179.409 236.505 175.353 236.58 171.297 236.58C172.972 238.812 174.758 240.97 176.656 243.016C181.195 243.016 185.698 242.942 190.2 242.793C187.819 240.821 185.586 238.7 183.502 236.431L183.465 236.394Z" fill="url(#paint38_linear_44_11429)"/>
<path d="M183.465 236.394C179.409 236.505 175.353 236.58 171.297 236.58C172.972 238.812 174.758 240.97 176.656 243.016C181.195 243.016 185.698 242.942 190.2 242.793C187.819 240.821 185.586 238.7 183.502 236.431L183.465 236.394Z" fill="url(#paint39_linear_44_11429)"/>
<path d="M175.318 54.2044C120.246 98.403 100.711 170.356 120.507 233.901C121.437 234.013 122.405 234.087 123.335 234.199C106.069 171.919 126.014 102.607 179.634 59.5618C250.594 2.60212 353.816 13.1309 411.939 82.554C411.232 81.6239 410.562 80.731 409.855 79.8009C352.179 7.95953 247.171 -3.49938 175.318 54.1672V54.2044Z" fill="url(#paint40_linear_44_11429)"/>
<path d="M149.679 288.666C150.386 289.558 151.168 290.414 151.912 291.307C139.781 275.532 130.888 258.27 125.157 240.3C124.264 240.188 123.409 240.077 122.553 240.002C128.655 257.191 137.66 273.672 149.716 288.703L149.679 288.666Z" fill="url(#paint41_linear_44_11429)"/>
<path d="M122.516 239.965C123.372 240.077 124.265 240.188 125.12 240.263C124.488 238.254 123.892 236.208 123.334 234.161C122.404 234.05 121.437 233.975 120.506 233.864C121.139 235.91 121.809 237.919 122.516 239.965Z" fill="url(#paint42_linear_44_11429)"/>
<path d="M122.516 239.965C123.372 240.077 124.265 240.188 125.12 240.263C124.488 238.254 123.892 236.208 123.334 234.161C122.404 234.05 121.437 233.975 120.506 233.864C121.139 235.91 121.809 237.919 122.516 239.965Z" fill="url(#paint43_linear_44_11429)"/>
<path d="M229.644 7.36422C131.669 35.7883 75.2956 138.212 103.724 236.133C104.096 237.361 104.506 238.551 104.878 239.779C78.905 142.974 135.018 42.7455 231.765 14.6935C328.512 -13.3585 429.539 41.2573 459.456 136.947C459.121 135.719 458.86 134.491 458.488 133.263C430.022 35.3046 327.582 -21.0598 229.644 7.36422Z" fill="url(#paint44_linear_44_11429)"/>
<path d="M63.5 289.855H73.5468C74.105 289.855 74.5887 289.855 75.1096 289.893C81.7703 290.265 85.0076 292.906 85.603 297.854C85.9751 300.607 85.2309 303.063 83.6308 305.072C81.8819 307.193 79.3516 308.383 76.2632 308.495H68.0769V322.26H63.5372V289.855H63.5ZM73.0259 305.332C73.398 305.332 73.7329 305.295 74.0678 305.295C77.7516 305.146 79.426 304.179 80.5424 301.724C80.9889 300.868 81.1749 299.752 81.0261 298.338C80.7284 294.952 78.8307 293.204 74.2166 292.906H68.0025V305.332H72.9886H73.0259Z" fill="#231F20"/>
<path d="M98.5527 299.268C103.874 300.198 107.409 304.588 107.409 310.913C107.409 317.238 103.837 321.628 98.5527 322.558C90.7757 323.934 84.8965 318.949 84.8965 310.913C84.8965 302.877 90.7385 297.854 98.5527 299.268ZM89.3245 312.103C89.9199 318.242 93.3432 320.958 97.9573 319.842C100.785 319.135 102.534 316.791 102.944 312.103C103.018 311.322 103.018 310.578 102.944 309.797C102.534 305.072 100.785 302.765 97.9573 302.058C93.306 300.905 89.8827 303.621 89.3245 309.797C89.2873 310.169 89.2873 310.578 89.2873 310.913C89.2873 311.322 89.2873 311.694 89.3245 312.066V312.103Z" fill="#231F20"/>
<path d="M112.952 299.677L118.608 317.721L124.19 299.677H129.362L134.981 317.721L140.749 299.677H144.47L137.325 322.26H132.599L126.646 303.323L120.804 322.26H115.892L108.748 299.677H112.915H112.952Z" fill="#231F20"/>
<path d="M149.829 311.508C149.791 311.955 149.791 312.438 149.829 312.959C150.201 317.945 152.582 320.251 156.08 320.289C158.908 320.363 160.768 318.986 161.587 315.973C161.661 315.787 161.736 315.564 161.736 315.34H165.569C165.569 315.787 165.494 316.27 165.345 316.754C164.415 320.437 161.252 322.781 156.117 322.893C149.94 323.042 146.442 319.656 145.773 312.81C144.991 304.849 148.601 300.124 154.145 299.343C161.624 298.301 165.755 301.91 166.127 310.132C166.127 310.578 166.127 311.025 166.089 311.508H149.866H149.829ZM161.885 309.202C161.922 308.978 161.922 308.718 161.922 308.495C161.773 303.844 159.466 301.612 155.857 301.724C152.805 301.798 150.573 303.807 149.977 308.011C149.903 308.383 149.903 308.755 149.903 309.164H161.922L161.885 309.202Z" fill="#231F20"/>
<path d="M170.405 299.678H174.461V302.877C174.61 302.654 174.722 302.431 174.871 302.245C176.21 300.31 177.885 299.38 180.378 299.268C181.047 299.231 181.754 299.305 182.461 299.454V303.026H182.052L181.494 302.951C176.433 302.691 174.461 304.663 174.461 309.351V322.335H170.405V299.752V299.678Z" fill="#231F20"/>
<path d="M203.709 302.877L203.225 302.245C202.071 300.682 201.364 299.454 201.029 298.375C199.504 293.65 202.481 289.372 207.653 289.446C208.211 289.446 208.732 289.483 209.29 289.632C213.532 290.562 215.541 295.659 212.937 299.715C212.118 300.98 210.816 302.17 209.067 303.175C208.62 303.398 208.137 303.621 207.69 303.844L216.323 314.038C217.104 311.955 217.476 309.797 217.551 307.602H220.044C219.969 308.904 219.783 310.243 219.448 311.546C219.039 313.034 218.518 314.485 217.811 315.824L223.393 322.26H220.23L216.546 317.721C216.286 318.094 216.062 318.391 215.765 318.726C214.09 320.698 211.858 322.074 209.364 322.595C204.081 323.749 199.243 321.479 197.197 317.461C196.527 316.085 196.155 314.596 196.192 313.034C196.266 309.537 198.276 306.337 202.369 303.993C202.927 303.695 203.448 303.472 204.006 303.212L203.746 302.84L203.709 302.877ZM202.257 306.783C201.774 307.23 201.253 307.714 200.806 308.234C197.234 312.438 198.946 318.466 204.081 320.103C207.653 321.256 211.337 320.251 214.127 317.238C214.425 316.866 214.723 316.531 214.983 316.159L205.383 304.849C204.304 305.295 203.262 305.928 202.22 306.783H202.257ZM207.578 301.575C210.146 300.087 211.188 298.636 211.448 296.776C211.858 293.725 209.551 291.492 206.723 292.013C203.336 292.571 202.034 295.808 204.341 299.603C204.602 299.975 204.825 300.31 205.123 300.682C205.569 301.314 205.941 301.798 206.35 302.207C206.797 302.021 207.206 301.835 207.616 301.575H207.578Z" fill="#231F20"/>
<path d="M238.724 289.856H258.706V293.092H243.263V303.882H257.85V307.156H243.263V318.986H259.189V322.223H238.724V289.818V289.856Z" fill="#231F20"/>
<path d="M263.432 299.677H267.488V303.807C267.637 303.546 267.748 303.249 267.897 302.988C269.348 300.496 271.172 299.305 273.962 299.045C279.321 298.561 282.372 301.24 282.595 306.002V307.006L282.632 307.676V322.26H278.576V306.895C278.39 304.997 278.055 304.142 277.237 303.286C276.046 302.021 274.186 301.5 272.139 302.021C269.162 302.728 267.45 305.258 267.45 310.652V322.223H263.395V299.64L263.432 299.677Z" fill="#231F20"/>
<path d="M291.228 311.508C291.191 311.955 291.191 312.438 291.228 312.959C291.601 317.945 293.982 320.251 297.48 320.289C300.308 320.363 302.168 318.986 302.987 315.973C303.061 315.787 303.136 315.564 303.136 315.34H306.968C306.968 315.787 306.894 316.27 306.745 316.754C305.815 320.437 302.652 322.781 297.517 322.893C291.34 323.042 287.842 319.656 287.173 312.81C286.391 304.849 290 300.124 295.545 299.343C303.024 298.301 307.154 301.91 307.527 310.132C307.527 310.578 307.527 311.025 307.489 311.508H291.266H291.228ZM303.285 309.202C303.322 308.978 303.322 308.718 303.322 308.495C303.173 303.844 300.866 301.612 297.257 301.724C294.205 301.798 291.973 303.807 291.377 308.011C291.303 308.383 291.303 308.755 291.303 309.164H303.322L303.285 309.202Z" fill="#231F20"/>
<path d="M311.805 299.678H315.861V302.877C316.01 302.654 316.122 302.431 316.27 302.245C317.61 300.31 319.284 299.38 321.778 299.268C322.447 299.231 323.154 299.305 323.861 299.454V303.026H323.452L322.894 302.951C317.833 302.691 315.861 304.663 315.861 309.351V322.335H311.805V299.752V299.678Z" fill="#231F20"/>
<path d="M340.68 299.678H344.773V322.149C344.773 328.399 340.531 332.38 333.126 331.971C327.768 331.673 324.977 329.329 324.605 325.795C324.605 325.46 324.568 325.2 324.605 324.902H328.698C328.698 324.902 328.698 325.2 328.736 325.349C328.959 327.469 330.447 328.846 333.536 329.069C337.815 329.367 340.345 327.134 340.606 323.079C340.643 322.819 340.643 322.558 340.643 322.298V317.35L340.42 317.759L339.973 318.391C337.666 321.889 333.759 323.191 329.517 321.479C326.28 320.14 324.308 317.35 323.675 312.699C323.526 311.36 323.526 309.946 323.749 308.569C324.605 303.249 327.88 299.938 331.489 299.38C335.992 298.673 339.192 300.198 340.643 302.877V299.64L340.68 299.678ZM336.14 319.173C337.778 318.689 339.117 317.275 340.159 314.671C340.457 313.815 340.643 312.922 340.792 311.881C341.499 304.551 337.778 301.166 333.201 302.207C330.596 302.84 328.624 305.221 328.14 309.313C328.066 309.723 328.066 310.169 327.991 310.616C327.805 317.498 331.787 320.549 336.14 319.173Z" fill="#231F20"/>
<path d="M351.285 299.677L357.946 317.721L364.569 299.677H368.253L356.718 331.003H352.736L355.788 322.632L346.932 299.677H351.248H351.285Z" fill="#231F20"/>
<path d="M385.444 313.257C385.035 317.089 388.272 320.177 393.816 319.693C394.709 319.656 395.491 319.433 396.198 319.098C398.802 317.982 399.882 316.196 399.844 313.927C399.77 311.508 398.802 310.318 395.974 309.165L393.63 308.383L390.802 307.342C390.356 307.193 389.909 307.044 389.463 306.858C382.542 304.142 380.458 300.942 382.132 295.473C383.211 291.827 386.858 289.297 392.774 289.297C399.882 289.223 403.938 292.906 404.124 297.706H399.547C399.509 294.841 397.054 292.571 392.737 292.571C389.239 292.571 387.304 293.874 386.449 296.403C385.407 299.64 387.007 302.021 392.514 303.919L395.602 304.96L397.165 305.519L398.393 305.965C403.454 307.825 405.351 311.36 404.198 316.122C403.193 320.065 400.068 322.409 394.188 322.781C392.998 322.856 391.844 322.819 390.691 322.744C384.663 322.186 381.76 319.842 381.016 315.266C380.941 314.596 380.867 313.927 380.941 313.257H385.481H385.444Z" fill="#231F20"/>
<path d="M420.794 299.268C426.115 300.198 429.65 304.588 429.65 310.913C429.65 317.238 426.078 321.628 420.794 322.558C413.017 323.934 407.138 318.949 407.138 310.913C407.138 302.877 412.98 297.854 420.794 299.268ZM411.566 312.103C412.161 318.242 415.584 320.958 420.199 319.842C423.027 319.135 424.775 316.791 425.185 312.103C425.259 311.322 425.259 310.578 425.185 309.797C424.775 305.072 423.027 302.765 420.199 302.058C415.547 300.905 412.124 303.621 411.566 309.797C411.529 310.169 411.529 310.578 411.529 310.913C411.529 311.322 411.529 311.694 411.566 312.066V312.103Z" fill="#231F20"/>
<path d="M448.664 307.007C448.627 306.746 448.59 306.412 448.516 306.077C448.441 305.667 448.292 305.258 448.144 304.923C446.841 301.873 442.525 300.831 439.362 303.472C437.911 304.7 436.98 306.635 436.757 309.834C436.683 310.839 436.72 311.843 436.832 312.848C437.427 317.536 439.325 319.545 442.748 319.768C446.06 319.991 448.106 318.428 448.59 315.266C448.627 315.043 448.627 314.82 448.664 314.634H452.497C452.497 315.117 452.46 315.638 452.311 316.085C451.455 320.438 447.995 323.116 442.525 322.893C436.162 322.67 432.515 318.726 432.403 311.322C432.329 304.216 435.864 299.789 441.074 299.157C447.548 298.301 451.492 301.054 452.385 305.928C452.423 306.3 452.46 306.709 452.534 307.044H448.627L448.664 307.007Z" fill="#231F20"/>
<path d="M456.33 289.855H460.386V294.655H456.33V289.855ZM456.33 299.677H460.386V322.26H456.33V299.677Z" fill="#231F20"/>
<path d="M468.944 311.508C468.907 311.955 468.907 312.438 468.944 312.959C469.316 317.945 471.698 320.251 475.196 320.289C478.024 320.363 479.884 318.986 480.703 315.973C480.777 315.787 480.852 315.564 480.852 315.34H484.684C484.684 315.787 484.61 316.27 484.461 316.754C483.531 320.437 480.368 322.781 475.233 322.893C469.056 323.042 465.558 319.656 464.888 312.81C464.107 304.849 467.716 300.124 473.261 299.343C480.74 298.301 484.87 301.91 485.242 310.132C485.242 310.578 485.242 311.025 485.205 311.508H468.981H468.944ZM481 309.202C481.038 308.978 481.038 308.718 481.038 308.495C480.889 303.844 478.582 301.612 474.972 301.724C471.921 301.798 469.688 303.807 469.093 308.011C469.019 308.383 469.019 308.755 469.019 309.164H481.038L481 309.202Z" fill="#231F20"/>
<path d="M485.763 299.677H489.856V295.101L493.912 293.464V299.677H499.01V302.431H493.912V316.308C494.173 319.061 494.768 319.582 497.782 319.545C498.229 319.545 498.675 319.507 499.233 319.359V322.372C498.303 322.595 497.484 322.67 496.629 322.744C491.605 322.893 489.894 321.219 489.894 316.047V302.468H485.8V299.715L485.763 299.677Z" fill="#231F20"/>
<path d="M501.913 299.677L508.574 317.721L515.197 299.677H518.881L507.346 331.003H503.364L506.416 322.632L497.56 299.677H501.876H501.913Z" fill="#231F20"/>
<path d="M198.164 285.391C198.834 285.652 199.504 285.875 200.174 286.098C148.377 264.854 122.85 206.035 143.093 153.614C163.372 101.156 221.83 74.778 274.408 93.8637C273.739 93.6033 273.106 93.3057 272.436 93.0452C219.3 72.5457 159.614 98.9607 139.111 152.088C118.608 205.179 145.028 264.892 198.127 285.391H198.164Z" fill="#231F20"/>
<path d="M284.53 154.655H321.405L325.722 154.879C343.136 155.548 351.062 162.58 352.29 177.61C353.741 194.129 343.583 205.886 326.838 206.667L324.457 206.778H309.647V236.058H284.53V154.655ZM315.749 191.19H318.019L319.619 191.078C323.563 190.967 326.28 189.144 328.103 185.423C328.885 183.861 329.368 181.814 329.145 178.987C328.587 172.439 325.201 169.239 317.61 168.942H309.349V191.227H315.787L315.749 191.19Z" fill="#231F20"/>
<path d="M357.946 154.655H416.516V170.839H382.691V186.316H414.915V203.058H382.691V219.911H417.185V236.095H357.909V154.692L357.946 154.655Z" fill="#231F20"/>
<path d="M445.613 208.824C445.39 209.829 445.39 210.871 445.502 211.875C445.948 219.353 450.934 223.52 458.86 222.739C460.237 222.627 461.353 222.292 462.395 221.846C466.228 219.911 468.051 217.084 467.939 213.14C467.716 208.824 465.335 205.774 460.46 204.211L459.679 203.988L455.4 202.76L448.739 200.974C447.957 200.751 447.176 200.528 446.357 200.193C426.115 193.645 420.236 186.167 423.733 171.583C426.561 159.603 437.315 152.237 457.558 152.46C459.381 152.46 461.279 152.572 463.102 152.683C477.354 153.911 484.721 158.115 488.889 165.705C490.935 169.425 491.829 173.629 491.605 177.908H467.977V176.196C467.865 174.82 467.418 173.48 466.86 172.253C464.702 168.309 460.981 166.486 455.325 167.044C454.097 167.156 452.944 167.491 451.939 167.937C447.846 170.095 446.171 173.704 447.064 178.019C447.995 181.74 450.599 183.898 458.041 186.055L465.521 188.213L474.451 190.706C488.703 194.761 495.14 204.844 491.977 218.535C489.261 230.291 480.554 236.393 461.911 237.397C458.19 237.509 454.767 237.509 451.381 237.174C436.125 235.909 428.087 230.849 423.882 221.92C421.947 217.865 421.278 213.438 421.724 208.899H445.688L445.613 208.824Z" fill="#231F20"/>
<path d="M284.864 107.406H292.455V146.843H284.864V107.406Z" fill="#231F20"/>
<path d="M297.628 107.406H324.196V113.396H306.596V123.59H323.303V129.729H306.596V140.89H324.606V146.843H297.591V107.406H297.628Z" fill="#231F20"/>
<path d="M329.033 107.406H355.602V113.396H338.001V123.59H354.708V129.729H338.001V140.89H356.011V146.843H328.996V107.406H329.033Z" fill="#231F20"/>
<path d="M360.438 107.406H387.007V113.396H369.406V123.59H386.114V129.729H369.406V140.89H387.453V146.843H360.438V107.406Z" fill="#231F20"/>
<path d="M188.303 266.12C148.302 241.751 135.278 189.888 158.758 149.559C158.46 150.042 158.126 150.526 157.791 151.047C133.083 191.562 145.921 244.429 186.443 269.133C226.965 293.837 279.878 281.001 304.548 240.486C304.846 239.965 305.144 239.444 305.441 238.923C280.362 278.248 228.304 290.488 188.303 266.082V266.12Z" fill="#231F20"/>
<path d="M540.5 298.599C540.5 302.989 536.965 306.486 532.463 306.486C527.961 306.486 524.351 302.989 524.351 298.599C524.351 294.209 527.96 290.749 532.5 290.749C537.04 290.749 540.5 294.209 540.5 298.599ZM526.36 298.599C526.36 302.096 529.002 304.887 532.5 304.887C535.886 304.924 538.491 302.096 538.491 298.674C538.491 295.251 535.886 292.349 532.389 292.349C528.891 292.349 526.36 295.176 526.36 298.636V298.599ZM531.198 302.654H529.375V294.804C530.081 294.693 531.086 294.581 532.389 294.581C533.877 294.581 534.547 294.804 535.068 295.214C535.551 295.548 535.886 296.144 535.886 296.888C535.886 297.855 535.179 298.45 534.249 298.748V298.86C535.03 299.083 535.403 299.715 535.626 300.757C535.849 301.948 536.072 302.394 536.184 302.692H534.286C534.063 302.394 533.914 301.724 533.654 300.757C533.505 299.938 533.021 299.566 532.016 299.566H531.161V302.692L531.198 302.654ZM531.235 298.264H532.091C533.096 298.264 533.914 297.929 533.914 297.111C533.914 296.404 533.393 295.92 532.24 295.92C531.756 295.92 531.421 295.958 531.235 296.032V298.264Z" fill="#231F20"/>
</g>
<defs>
<linearGradient id="paint0_linear_44_11429" x1="362.261" y1="137.617" x2="129.064" y2="137.617" gradientUnits="userSpaceOnUse">
<stop stop-color="#C2D72E"/>
<stop offset="0.16" stop-color="#97C93C"/>
<stop offset="1" stop-color="#23582C"/>
</linearGradient>
<linearGradient id="paint1_linear_44_11429" x1="362.262" y1="243.202" x2="129.064" y2="243.202" gradientUnits="userSpaceOnUse">
<stop stop-color="#C2D72E"/>
<stop offset="0.16" stop-color="#97C93C"/>
<stop offset="1" stop-color="#23582C"/>
</linearGradient>
<linearGradient id="paint2_linear_44_11429" x1="362.261" y1="227.204" x2="129.064" y2="227.204" gradientUnits="userSpaceOnUse">
<stop stop-color="#C2D72E"/>
<stop offset="0.16" stop-color="#97C93C"/>
<stop offset="1" stop-color="#23582C"/>
</linearGradient>
<linearGradient id="paint3_linear_44_11429" x1="362.261" y1="227.204" x2="129.064" y2="227.204" gradientUnits="userSpaceOnUse">
<stop stop-color="#C2D72E"/>
<stop offset="0.16" stop-color="#97C93C"/>
<stop offset="1" stop-color="#23582C"/>
</linearGradient>
<linearGradient id="paint4_linear_44_11429" x1="362.336" y1="224.004" x2="128.944" y2="224.004" gradientUnits="userSpaceOnUse">
<stop stop-color="#C2D72E"/>
<stop offset="0.16" stop-color="#97C93C"/>
<stop offset="1" stop-color="#23582C"/>
</linearGradient>
<linearGradient id="paint5_linear_44_11429" x1="362.336" y1="224.004" x2="128.944" y2="224.004" gradientUnits="userSpaceOnUse">
<stop stop-color="#C2D72E"/>
<stop offset="0.16" stop-color="#97C93C"/>
<stop offset="1" stop-color="#23582C"/>
</linearGradient>
<linearGradient id="paint6_linear_44_11429" x1="362.261" y1="224.823" x2="129.064" y2="224.823" gradientUnits="userSpaceOnUse">
<stop stop-color="#C2D72E"/>
<stop offset="0.16" stop-color="#97C93C"/>
<stop offset="1" stop-color="#23582C"/>
</linearGradient>
<linearGradient id="paint7_linear_44_11429" x1="362.261" y1="228.73" x2="129.064" y2="228.73" gradientUnits="userSpaceOnUse">
<stop stop-color="#C2D72E"/>
<stop offset="0.16" stop-color="#97C93C"/>
<stop offset="1" stop-color="#23582C"/>
</linearGradient>
<linearGradient id="paint8_linear_44_11429" x1="362.261" y1="228.73" x2="129.064" y2="228.73" gradientUnits="userSpaceOnUse">
<stop stop-color="#C2D72E"/>
<stop offset="0.16" stop-color="#97C93C"/>
<stop offset="1" stop-color="#23582C"/>
</linearGradient>
<linearGradient id="paint9_linear_44_11429" x1="362.262" y1="243.388" x2="129.064" y2="243.388" gradientUnits="userSpaceOnUse">
<stop stop-color="#C2D72E"/>
<stop offset="0.16" stop-color="#97C93C"/>
<stop offset="1" stop-color="#23582C"/>
</linearGradient>
<linearGradient id="paint10_linear_44_11429" x1="362.261" y1="234.831" x2="129.065" y2="234.831" gradientUnits="userSpaceOnUse">
<stop stop-color="#C2D72E"/>
<stop offset="0.16" stop-color="#97C93C"/>
<stop offset="1" stop-color="#23582C"/>
</linearGradient>
<linearGradient id="paint11_linear_44_11429" x1="362.262" y1="249.973" x2="129.064" y2="249.973" gradientUnits="userSpaceOnUse">
<stop stop-color="#C2D72E"/>
<stop offset="0.16" stop-color="#97C93C"/>
<stop offset="1" stop-color="#23582C"/>
</linearGradient>
<linearGradient id="paint12_linear_44_11429" x1="362.262" y1="249.973" x2="129.064" y2="249.973" gradientUnits="userSpaceOnUse">
<stop stop-color="#C2D72E"/>
<stop offset="0.16" stop-color="#97C93C"/>
<stop offset="1" stop-color="#23582C"/>
</linearGradient>
<linearGradient id="paint13_linear_44_11429" x1="362.261" y1="208.565" x2="129.064" y2="208.565" gradientUnits="userSpaceOnUse">
<stop stop-color="#C2D72E"/>
<stop offset="0.16" stop-color="#97C93C"/>
<stop offset="1" stop-color="#23582C"/>
</linearGradient>
<linearGradient id="paint14_linear_44_11429" x1="362.261" y1="208.565" x2="129.064" y2="208.565" gradientUnits="userSpaceOnUse">
<stop stop-color="#C2D72E"/>
<stop offset="0.16" stop-color="#97C93C"/>
<stop offset="1" stop-color="#23582C"/>
</linearGradient>
<linearGradient id="paint15_linear_44_11429" x1="362.261" y1="174.746" x2="129.064" y2="174.746" gradientUnits="userSpaceOnUse">
<stop stop-color="#C2D72E"/>
<stop offset="0.16" stop-color="#97C93C"/>
<stop offset="1" stop-color="#23582C"/>
</linearGradient>
<linearGradient id="paint16_linear_44_11429" x1="362.262" y1="186.316" x2="129.064" y2="186.316" gradientUnits="userSpaceOnUse">
<stop stop-color="#C2D72E"/>
<stop offset="0.16" stop-color="#97C93C"/>
<stop offset="1" stop-color="#23582C"/>
</linearGradient>
<linearGradient id="paint17_linear_44_11429" x1="362.262" y1="186.316" x2="129.064" y2="186.316" gradientUnits="userSpaceOnUse">
<stop stop-color="#C2D72E"/>
<stop offset="0.16" stop-color="#97C93C"/>
<stop offset="1" stop-color="#23582C"/>
</linearGradient>
<linearGradient id="paint18_linear_44_11429" x1="362.224" y1="223.856" x2="129.101" y2="223.856" gradientUnits="userSpaceOnUse">
<stop stop-color="#C2D72E"/>
<stop offset="0.16" stop-color="#97C93C"/>
<stop offset="1" stop-color="#23582C"/>
</linearGradient>
<linearGradient id="paint19_linear_44_11429" x1="362.224" y1="223.856" x2="129.101" y2="223.856" gradientUnits="userSpaceOnUse">
<stop stop-color="#C2D72E"/>
<stop offset="0.16" stop-color="#97C93C"/>
<stop offset="1" stop-color="#23582C"/>
</linearGradient>
<linearGradient id="paint20_linear_44_11429" x1="362.261" y1="230.627" x2="129.064" y2="230.627" gradientUnits="userSpaceOnUse">
<stop stop-color="#C2D72E"/>
<stop offset="0.16" stop-color="#97C93C"/>
<stop offset="1" stop-color="#23582C"/>
</linearGradient>
<linearGradient id="paint21_linear_44_11429" x1="362.261" y1="230.627" x2="129.064" y2="230.627" gradientUnits="userSpaceOnUse">
<stop stop-color="#C2D72E"/>
<stop offset="0.16" stop-color="#97C93C"/>
<stop offset="1" stop-color="#23582C"/>
</linearGradient>
<linearGradient id="paint22_linear_44_11429" x1="362.261" y1="225.381" x2="129.064" y2="225.381" gradientUnits="userSpaceOnUse">
<stop stop-color="#C2D72E"/>
<stop offset="0.16" stop-color="#97C93C"/>
<stop offset="1" stop-color="#23582C"/>
</linearGradient>
<linearGradient id="paint23_linear_44_11429" x1="362.261" y1="225.381" x2="129.064" y2="225.381" gradientUnits="userSpaceOnUse">
<stop stop-color="#C2D72E"/>
<stop offset="0.16" stop-color="#97C93C"/>
<stop offset="1" stop-color="#23582C"/>
</linearGradient>
<linearGradient id="paint24_linear_44_11429" x1="362.261" y1="225.381" x2="129.064" y2="225.381" gradientUnits="userSpaceOnUse">
<stop stop-color="#C2D72E"/>
<stop offset="0.16" stop-color="#97C93C"/>
<stop offset="1" stop-color="#23582C"/>
</linearGradient>
<linearGradient id="paint25_linear_44_11429" x1="362.262" y1="232.189" x2="129.064" y2="232.189" gradientUnits="userSpaceOnUse">
<stop stop-color="#C2D72E"/>
<stop offset="0.16" stop-color="#97C93C"/>
<stop offset="1" stop-color="#23582C"/>
</linearGradient>
<linearGradient id="paint26_linear_44_11429" x1="362.262" y1="232.189" x2="129.064" y2="232.189" gradientUnits="userSpaceOnUse">
<stop stop-color="#C2D72E"/>
<stop offset="0.16" stop-color="#97C93C"/>
<stop offset="1" stop-color="#23582C"/>
</linearGradient>
<linearGradient id="paint27_linear_44_11429" x1="362.262" y1="232.189" x2="129.064" y2="232.189" gradientUnits="userSpaceOnUse">
<stop stop-color="#C2D72E"/>
<stop offset="0.16" stop-color="#97C93C"/>
<stop offset="1" stop-color="#23582C"/>
</linearGradient>
<linearGradient id="paint28_linear_44_11429" x1="362.262" y1="226.609" x2="129.065" y2="226.609" gradientUnits="userSpaceOnUse">
<stop stop-color="#C2D72E"/>
<stop offset="0.16" stop-color="#97C93C"/>
<stop offset="1" stop-color="#23582C"/>
</linearGradient>
<linearGradient id="paint29_linear_44_11429" x1="362.262" y1="226.609" x2="129.065" y2="226.609" gradientUnits="userSpaceOnUse">
<stop stop-color="#C2D72E"/>
<stop offset="0.16" stop-color="#97C93C"/>
<stop offset="1" stop-color="#23582C"/>
</linearGradient>
<linearGradient id="paint30_linear_44_11429" x1="362.262" y1="226.609" x2="129.065" y2="226.609" gradientUnits="userSpaceOnUse">
<stop stop-color="#C2D72E"/>
<stop offset="0.16" stop-color="#97C93C"/>
<stop offset="1" stop-color="#23582C"/>
</linearGradient>
<linearGradient id="paint31_linear_44_11429" x1="362.262" y1="226.609" x2="129.065" y2="226.609" gradientUnits="userSpaceOnUse">
<stop stop-color="#C2D72E"/>
<stop offset="0.16" stop-color="#97C93C"/>
<stop offset="1" stop-color="#23582C"/>
</linearGradient>
<linearGradient id="paint32_linear_44_11429" x1="362.225" y1="221.921" x2="129.102" y2="221.921" gradientUnits="userSpaceOnUse">
<stop stop-color="#C2D72E"/>
<stop offset="0.16" stop-color="#97C93C"/>
<stop offset="1" stop-color="#23582C"/>
</linearGradient>
<linearGradient id="paint33_linear_44_11429" x1="362.225" y1="221.921" x2="129.102" y2="221.921" gradientUnits="userSpaceOnUse">
<stop stop-color="#C2D72E"/>
<stop offset="0.16" stop-color="#97C93C"/>
<stop offset="1" stop-color="#23582C"/>
</linearGradient>
<linearGradient id="paint34_linear_44_11429" x1="362.262" y1="239.11" x2="129.064" y2="239.11" gradientUnits="userSpaceOnUse">
<stop stop-color="#C2D72E"/>
<stop offset="0.16" stop-color="#97C93C"/>
<stop offset="1" stop-color="#23582C"/>
</linearGradient>
<linearGradient id="paint35_linear_44_11429" x1="362.262" y1="239.11" x2="129.064" y2="239.11" gradientUnits="userSpaceOnUse">
<stop stop-color="#C2D72E"/>
<stop offset="0.16" stop-color="#97C93C"/>
<stop offset="1" stop-color="#23582C"/>
</linearGradient>
<linearGradient id="paint36_linear_44_11429" x1="362.262" y1="239.11" x2="129.064" y2="239.11" gradientUnits="userSpaceOnUse">
<stop stop-color="#C2D72E"/>
<stop offset="0.16" stop-color="#97C93C"/>
<stop offset="1" stop-color="#23582C"/>
</linearGradient>
<linearGradient id="paint37_linear_44_11429" x1="362.261" y1="239.705" x2="129.064" y2="239.705" gradientUnits="userSpaceOnUse">
<stop stop-color="#C2D72E"/>
<stop offset="0.16" stop-color="#97C93C"/>
<stop offset="1" stop-color="#23582C"/>
</linearGradient>
<linearGradient id="paint38_linear_44_11429" x1="362.261" y1="239.705" x2="129.064" y2="239.705" gradientUnits="userSpaceOnUse">
<stop stop-color="#C2D72E"/>
<stop offset="0.16" stop-color="#97C93C"/>
<stop offset="1" stop-color="#23582C"/>
</linearGradient>
<linearGradient id="paint39_linear_44_11429" x1="362.261" y1="239.705" x2="129.064" y2="239.705" gradientUnits="userSpaceOnUse">
<stop stop-color="#C2D72E"/>
<stop offset="0.16" stop-color="#97C93C"/>
<stop offset="1" stop-color="#23582C"/>
</linearGradient>
<linearGradient id="paint40_linear_44_11429" x1="362.263" y1="125.823" x2="129.065" y2="125.823" gradientUnits="userSpaceOnUse">
<stop stop-color="#C2D72E"/>
<stop offset="0.16" stop-color="#97C93C"/>
<stop offset="1" stop-color="#23582C"/>
</linearGradient>
<linearGradient id="paint41_linear_44_11429" x1="362.262" y1="265.636" x2="129.065" y2="265.636" gradientUnits="userSpaceOnUse">
<stop stop-color="#C2D72E"/>
<stop offset="0.16" stop-color="#97C93C"/>
<stop offset="1" stop-color="#23582C"/>
</linearGradient>
<linearGradient id="paint42_linear_44_11429" x1="362.262" y1="237.101" x2="129.065" y2="237.101" gradientUnits="userSpaceOnUse">
<stop stop-color="#00A1DF"/>
<stop offset="1" stop-color="#808184"/>
</linearGradient>
<linearGradient id="paint43_linear_44_11429" x1="362.262" y1="237.101" x2="129.065" y2="237.101" gradientUnits="userSpaceOnUse">
<stop stop-color="#C2D72E"/>
<stop offset="0.16" stop-color="#97C93C"/>
<stop offset="1" stop-color="#23582C"/>
</linearGradient>
<linearGradient id="paint44_linear_44_11429" x1="362.262" y1="119.87" x2="129.065" y2="119.87" gradientUnits="userSpaceOnUse">
<stop stop-color="#C2D72E"/>
<stop offset="0.16" stop-color="#97C93C"/>
<stop offset="1" stop-color="#23582C"/>
</linearGradient>
<clipPath id="clip0_44_11429">
<rect width="604" height="559" fill="white"/>
</clipPath>
</defs>
</svg>
