<svg width="841" height="280" viewBox="0 0 841 280" fill="none" xmlns="http://www.w3.org/2000/svg">
<g clip-path="url(#clip0_44_12247)">
<path d="M62.6559 253.712L62.4959 253.936L60.3199 254L60.1279 253.776C59.3919 250.992 59.1999 250.256 58.2399 247.248L57.9839 246.48H49.7599L49.1199 246.512L48.7359 247.664C47.8399 250.544 47.6479 251.184 46.9759 253.808L46.7199 254H44.8319L44.6719 253.712C45.7919 250.64 46.1119 249.712 47.1679 246.448L52.0959 231.568L52.2879 231.376L55.0079 231.312L55.2319 231.472L56.9599 236.752L59.3279 243.856C60.9279 248.816 61.4079 250.224 62.6559 253.712ZM53.4719 232.528L49.6319 244.752C50.8479 244.784 52.0639 244.784 53.2799 244.784C54.6559 244.784 55.9359 244.752 57.3759 244.752L53.4719 232.528ZM73.8724 250.576L74.1924 250.512C74.5764 250.864 74.8644 251.184 75.4724 251.568C76.6884 252.368 78.1604 252.752 79.6324 252.752C82.9284 252.752 85.0404 250.8 85.0404 248.144C85.0404 245.648 83.2804 244.592 80.8804 243.536L78.3204 242.48C76.3044 241.52 73.6164 240.24 73.6164 236.816C73.6164 234.992 74.4804 233.232 75.9844 232.176C77.4884 231.152 79.3444 230.928 80.8484 230.928C83.6644 230.928 85.3284 231.76 86.1604 232.208L86.3524 232.464L86.1604 234.032L85.8404 234.192C84.7524 233.52 83.3444 232.624 80.7844 232.624C76.3044 232.624 75.6644 235.472 75.6644 236.688C75.6644 239.12 77.6804 240.016 79.9204 240.912L82.1924 241.872C84.1124 242.768 87.1204 244.176 87.1204 248.048C87.1204 251.28 84.7204 254.48 79.6644 254.48C78.3524 254.48 75.7284 254.16 73.8724 252.848L73.7444 252.528L73.8724 250.576ZM96.9919 239.28L93.4079 239.216V247.76C93.4079 248.72 93.4079 249.392 93.4399 250.128C93.5039 251.6 93.8239 252.496 95.4559 252.496C96.0639 252.496 96.4799 252.336 96.9279 252.144L97.1839 252.304L97.0879 253.744L96.8639 254.032C96.2239 254.16 95.8079 254.224 95.1679 254.224C91.3919 254.224 91.3919 251.632 91.3919 248.976L91.4239 247.312V239.216L88.8319 239.28L88.6719 239.056L88.7359 237.744L88.9279 237.552L91.4559 237.616L91.3279 233.68L91.5519 233.488L93.4079 233.04L93.5999 233.232L93.4399 237.616L97.1199 237.52L97.2799 237.744L97.2159 239.12L96.9919 239.28ZM112.591 253.808L112.399 254L110.639 254.128L110.415 253.936L110.479 252.4C109.711 253.072 108.175 254.384 105.039 254.384C104.463 254.384 102.383 254.384 100.975 252.848C99.6634 251.408 99.6314 249.616 99.5994 248.112V247.28V244.528V241.744C99.5994 240.4 99.5674 239.664 99.4714 237.808L99.6634 237.584L101.583 237.52L101.775 237.712C101.679 240.752 101.647 243.792 101.647 246.832C101.647 249.424 101.807 250.608 102.639 251.536C103.215 252.208 104.271 252.72 105.519 252.72C105.935 252.72 106.351 252.656 106.767 252.592C108.591 252.208 109.455 251.44 110.415 250.64C110.415 244.24 110.383 242.864 110.159 237.84L110.351 237.584C111.279 237.616 111.471 237.584 112.207 237.488L112.399 237.712C112.367 239.696 112.335 241.68 112.335 243.632C112.335 247.824 112.431 250.192 112.591 253.808ZM127.951 253.872V252.4C127.279 252.976 125.871 254.224 123.151 254.224C118.543 254.224 115.951 250.416 115.951 246.064C115.951 243.312 117.039 241.104 118.415 239.792C120.655 237.648 123.983 237.456 126.319 237.456C126.735 237.456 127.151 237.456 127.759 237.488C127.695 231.6 127.695 231.056 127.471 229.136L127.695 228.944C128.495 228.816 128.655 228.784 129.647 228.56L129.839 228.752C129.807 231.664 129.775 234.544 129.775 237.424C129.775 242.896 129.775 248.688 130.031 253.84L129.839 254C129.071 254 128.911 254 128.143 254.064L127.951 253.872ZM127.919 250.512V249.456C127.887 246.608 127.791 242.032 127.791 239.152C127.247 239.12 126.895 239.088 126.095 239.088C124.655 239.088 123.023 239.184 121.551 239.824C118.511 241.2 118.031 244.144 118.031 245.936C118.031 249.552 119.951 252.464 123.503 252.464C126.095 252.464 127.471 250.992 127.919 250.512ZM147.631 245.392L147.439 245.584H135.311C135.343 246.608 135.375 247.728 136.015 249.104C137.423 252.112 140.079 252.592 141.487 252.592C144.431 252.592 146.095 251.152 146.863 250.48L147.119 250.64L146.991 252.464L146.831 252.784C145.487 253.552 144.079 254.352 141.327 254.352C136.111 254.352 133.295 250.672 133.295 245.84C133.295 240.816 136.079 237.232 140.815 237.232C142.799 237.232 144.687 237.776 146.127 239.664C147.567 241.552 147.599 243.76 147.631 245.392ZM135.439 243.952H145.519C145.455 243.024 145.423 242 144.687 240.848C143.375 238.832 141.551 238.8 140.751 238.8C139.279 238.8 137.839 239.344 136.879 240.464C135.791 241.744 135.567 243.184 135.439 243.952ZM153.246 253.808L153.054 254L151.166 254.064L151.006 253.872C151.038 252.112 151.07 251.312 151.07 249.936C151.07 248.272 151.038 246.576 151.006 244.912C150.974 241.264 150.942 240.464 150.718 237.968L150.878 237.744L152.83 237.424L153.022 237.616L152.894 239.28C154.238 238.448 156.094 237.232 158.686 237.232C159.294 237.232 161.182 237.232 162.526 238.736C163.678 239.984 163.678 241.552 163.71 243.984L163.774 247.248C163.806 250.608 163.838 251.12 163.966 253.808L163.774 254L161.854 254.064L161.694 253.84C161.726 252.336 161.758 251.504 161.758 250.224C161.758 248.944 161.694 244.464 161.63 242.768C161.598 242.032 161.534 240.88 160.862 240.08C160.318 239.44 159.294 238.992 158.142 238.992C155.742 238.992 153.854 240.432 152.958 241.136C152.99 246.544 153.022 247.792 153.246 253.808ZM174.398 239.28L170.814 239.216V247.76C170.814 248.72 170.814 249.392 170.846 250.128C170.91 251.6 171.23 252.496 172.862 252.496C173.47 252.496 173.886 252.336 174.334 252.144L174.59 252.304L174.494 253.744L174.27 254.032C173.63 254.16 173.214 254.224 172.574 254.224C168.798 254.224 168.798 251.632 168.798 248.976L168.83 247.312V239.216L166.238 239.28L166.078 239.056L166.142 237.744L166.334 237.552L168.862 237.616L168.734 233.68L168.958 233.488L170.814 233.04L171.006 233.232L170.846 237.616L174.526 237.52L174.686 237.744L174.622 239.12L174.398 239.28ZM202.829 252.464L202.669 252.784C202.285 253.008 201.901 253.232 201.517 253.424C200.301 254.032 198.381 254.48 196.333 254.48C189.165 254.48 185.485 249.104 185.485 242.8C185.485 236.88 189.133 230.928 196.525 230.928C199.757 230.928 201.261 231.696 202.541 232.336L202.701 232.592C202.541 233.264 202.509 233.424 202.445 234.288L202.221 234.448C201.293 233.808 199.661 232.688 196.525 232.688C190.157 232.688 187.693 238.128 187.693 242.8C187.693 248.368 191.277 252.688 196.685 252.688C197.869 252.688 199.053 252.464 200.237 251.984C201.453 251.472 201.997 251.024 202.733 250.416L202.989 250.576C202.861 251.376 202.829 251.568 202.829 252.464ZM207.934 253.808L207.742 254L205.886 254.032L205.694 253.84V242.704C205.694 240.368 205.694 238.064 205.662 235.728C205.63 232.336 205.566 231.248 205.374 229.104L205.566 228.912L207.582 228.592L207.774 228.784C207.646 232.912 207.646 234.224 207.678 239.28C208.958 238.416 210.782 237.232 213.47 237.232C214.814 237.232 215.646 237.552 216.446 238.064C218.27 239.28 218.302 240.848 218.398 243.984L218.462 247.248C218.494 250.608 218.494 251.12 218.622 253.808L218.462 254L216.542 254.064L216.382 253.84C216.382 251.728 216.414 249.616 216.414 247.472C216.414 245.136 216.414 243.888 216.35 242.768C216.318 242.064 216.254 240.88 215.518 240.048C215.006 239.44 213.982 238.928 212.766 238.928C210.494 238.928 208.606 240.368 207.678 241.104C207.678 247.376 207.742 248.816 207.934 253.808ZM223.614 240.016L223.71 238.512L223.87 238.288C225.15 237.776 226.494 237.232 228.606 237.232C230.878 237.232 232.126 237.904 232.862 238.736C233.79 239.76 233.79 240.464 233.79 243.6V245.584C233.726 249.904 233.79 250.8 233.982 253.776L233.79 254L232.094 254.096L231.87 253.904L231.838 252.784C230.398 253.84 228.926 254.384 227.294 254.384C224.094 254.384 221.854 252.368 221.854 249.168C221.854 247.696 222.43 246.256 223.518 245.296C224.958 244.016 227.23 243.632 229.022 243.344L231.838 242.928V242.512C231.806 241.648 231.774 240.912 231.55 240.4C231.358 240.016 230.654 238.928 228.414 238.928C226.302 238.928 225.31 239.408 223.87 240.144L223.614 240.016ZM231.838 244.528L230.11 244.784C227.294 245.328 226.27 245.584 225.374 246.256C225.118 246.448 223.87 247.376 223.87 249.072C223.87 250.736 225.022 252.688 227.646 252.688C229.726 252.688 230.814 251.824 231.838 250.96V244.528ZM237.902 237.904L238.062 237.712L239.982 237.424L240.206 237.616L240.174 239.12C241.07 238.384 242.51 237.232 245.038 237.232C249.422 237.232 252.174 240.656 252.174 245.168C252.174 246.864 251.694 249.04 250.35 250.736C248.878 252.656 246.67 254.064 242.19 254.064C241.55 254.064 241.006 254.032 240.206 253.968C240.206 257.36 240.27 258.128 240.43 261.328L240.238 261.52H238.286L238.094 261.328C238.158 257.616 238.19 253.904 238.19 250.192C238.19 243.568 238.062 241.168 237.902 237.904ZM240.174 241.072V252.24C240.942 252.336 241.39 252.368 241.966 252.368C243.822 252.368 245.71 252.08 247.246 250.992C248.014 250.448 249.966 248.752 249.966 245.296C249.966 242.64 248.75 239.12 244.718 239.12C243.694 239.12 242.67 239.376 241.71 239.888C240.974 240.272 240.654 240.592 240.174 241.072ZM261.742 239.28L258.158 239.216V247.76C258.158 248.72 258.158 249.392 258.19 250.128C258.254 251.6 258.574 252.496 260.206 252.496C260.814 252.496 261.23 252.336 261.678 252.144L261.934 252.304L261.838 253.744L261.614 254.032C260.974 254.16 260.558 254.224 259.918 254.224C256.142 254.224 256.142 251.632 256.142 248.976L256.174 247.312V239.216L253.582 239.28L253.422 239.056L253.486 237.744L253.678 237.552L256.206 237.616L256.078 233.68L256.302 233.488L258.158 233.04L258.35 233.232L258.19 237.616L261.87 237.52L262.03 237.744L261.966 239.12L261.742 239.28ZM277.693 245.392L277.501 245.584H265.373C265.405 246.608 265.437 247.728 266.077 249.104C267.485 252.112 270.141 252.592 271.549 252.592C274.493 252.592 276.157 251.152 276.925 250.48L277.181 250.64L277.053 252.464L276.893 252.784C275.549 253.552 274.141 254.352 271.389 254.352C266.173 254.352 263.357 250.672 263.357 245.84C263.357 240.816 266.141 237.232 270.877 237.232C272.861 237.232 274.749 237.776 276.189 239.664C277.629 241.552 277.661 243.76 277.693 245.392ZM265.501 243.952H275.581C275.517 243.024 275.485 242 274.749 240.848C273.437 238.832 271.613 238.8 270.813 238.8C269.341 238.8 267.901 239.344 266.941 240.464C265.853 241.744 265.629 243.184 265.501 243.952ZM288.301 237.84L288.045 239.536L287.789 239.728C287.341 239.472 286.989 239.312 286.445 239.312C285.613 239.312 284.941 239.664 284.461 240.144C283.373 241.232 283.181 242.896 283.181 246C283.181 248.368 283.309 251.536 283.373 253.808L283.181 254L281.261 254.032L281.069 253.84C281.133 251.696 281.165 250.608 281.165 248.4C281.165 244.944 281.165 241.168 280.877 237.968L281.069 237.776L282.957 237.488L283.149 237.68L283.117 240.208C283.277 239.76 283.469 239.344 283.725 238.96C284.269 238.16 285.325 237.296 286.637 237.296C287.149 237.296 287.565 237.424 288.077 237.616L288.301 237.84ZM313.548 245.648C313.612 252.048 309.932 254.384 306.156 254.384C300.876 254.384 298.764 250.512 298.764 245.84C298.764 244.048 298.988 242.256 299.884 240.72C301.324 238.224 303.596 237.232 306.348 237.232C313.164 237.232 313.516 243.792 313.548 245.648ZM311.404 245.648C311.372 244.528 311.212 243.152 310.828 242.128C309.644 238.896 306.988 238.896 306.188 238.896C301.644 238.896 300.908 242.96 300.908 245.808C300.908 246.96 300.908 252.688 306.124 252.688C310.348 252.688 311.468 249.264 311.404 245.648ZM323.18 239.312L319.82 239.248C319.82 246.32 319.852 247.984 320.044 253.84L319.852 254L318.028 254.064L317.804 253.872V239.248L315.052 239.28L314.828 239.088L314.892 237.744L315.084 237.52L317.804 237.616L317.74 235.472C317.708 235.056 317.708 234.64 317.708 234.224C317.708 232.304 318.028 231.248 318.86 230.448C319.884 229.392 321.452 229.2 322.38 229.2C322.892 229.2 323.244 229.264 323.756 229.36L323.916 229.616L323.82 230.832L323.564 231.056C323.148 230.928 322.86 230.864 322.412 230.864C319.724 230.864 319.756 232.816 319.82 235.056V237.648L323.244 237.584L323.5 237.84L323.372 239.088L323.18 239.312ZM341.179 239.28L337.595 239.216V247.76C337.595 248.72 337.595 249.392 337.627 250.128C337.691 251.6 338.011 252.496 339.643 252.496C340.251 252.496 340.667 252.336 341.115 252.144L341.371 252.304L341.275 253.744L341.051 254.032C340.411 254.16 339.995 254.224 339.355 254.224C335.579 254.224 335.579 251.632 335.579 248.976L335.611 247.312V239.216L333.019 239.28L332.859 239.056L332.923 237.744L333.115 237.552L335.643 237.616L335.515 233.68L335.739 233.488L337.595 233.04L337.787 233.232L337.627 237.616L341.307 237.52L341.467 237.744L341.403 239.12L341.179 239.28ZM346.059 253.808L345.867 254L344.011 254.032L343.819 253.84V242.704C343.819 240.368 343.819 238.064 343.787 235.728C343.755 232.336 343.691 231.248 343.499 229.104L343.691 228.912L345.707 228.592L345.899 228.784C345.771 232.912 345.771 234.224 345.803 239.28C347.083 238.416 348.907 237.232 351.595 237.232C352.939 237.232 353.771 237.552 354.571 238.064C356.395 239.28 356.427 240.848 356.523 243.984L356.587 247.248C356.619 250.608 356.619 251.12 356.747 253.808L356.587 254L354.667 254.064L354.507 253.84C354.507 251.728 354.539 249.616 354.539 247.472C354.539 245.136 354.539 243.888 354.475 242.768C354.443 242.064 354.379 240.88 353.643 240.048C353.131 239.44 352.107 238.928 350.891 238.928C348.619 238.928 346.731 240.368 345.803 241.104C345.803 247.376 345.867 248.816 346.059 253.808ZM374.475 245.392L374.283 245.584H362.155C362.187 246.608 362.219 247.728 362.859 249.104C364.267 252.112 366.923 252.592 368.331 252.592C371.275 252.592 372.939 251.152 373.707 250.48L373.963 250.64L373.835 252.464L373.675 252.784C372.331 253.552 370.923 254.352 368.171 254.352C362.955 254.352 360.139 250.672 360.139 245.84C360.139 240.816 362.923 237.232 367.659 237.232C369.643 237.232 371.531 237.776 372.971 239.664C374.411 241.552 374.443 243.76 374.475 245.392ZM362.283 243.952H372.363C372.299 243.024 372.267 242 371.531 240.848C370.219 238.832 368.395 238.8 367.595 238.8C366.123 238.8 364.683 239.344 363.723 240.464C362.635 241.744 362.411 243.184 362.283 243.952ZM389.882 253.808L389.69 254L387.706 254.032L387.514 253.84C387.546 252.016 387.578 250.736 387.578 248.688C387.578 244.496 387.514 236.976 387.29 231.568L387.482 231.408L389.466 231.344L389.658 231.536C389.658 234.032 389.626 236.528 389.626 239.024C389.626 244.528 389.722 247.728 389.882 253.808ZM408.25 253.904L408.122 254H398.362L395.77 254.128L395.546 253.904C395.578 251.856 395.61 250.64 395.61 248.944C395.61 243.152 395.514 237.36 395.322 231.568L395.514 231.376L397.754 231.408H403.482L407.994 231.344L408.186 231.504L408.09 233.04L407.834 233.232L399.418 233.136L397.594 233.104V241.36H400.762L407.482 241.296L407.674 241.488L407.61 242.928L407.322 243.088C406.042 243.056 405.21 243.024 403.93 243.024C402.842 243.024 401.754 243.024 400.666 243.056H397.626L397.786 252.272H400.57L408.25 252.144L408.378 252.336L408.25 253.904ZM424.937 253.904L424.809 254H415.049L412.457 254.128L412.233 253.904C412.265 251.856 412.297 250.64 412.297 248.944C412.297 243.152 412.201 237.36 412.009 231.568L412.201 231.376L414.441 231.408H420.169L424.681 231.344L424.873 231.504L424.777 233.04L424.521 233.232L416.105 233.136L414.281 233.104V241.36H417.449L424.169 241.296L424.361 241.488L424.297 242.928L424.009 243.088C422.729 243.056 421.897 243.024 420.617 243.024C419.529 243.024 418.441 243.024 417.353 243.056H414.313L414.473 252.272H417.257L424.937 252.144L425.065 252.336L424.937 253.904ZM441.625 253.904L441.497 254H431.737L429.145 254.128L428.921 253.904C428.953 251.856 428.985 250.64 428.985 248.944C428.985 243.152 428.889 237.36 428.697 231.568L428.889 231.376L431.129 231.408H436.857L441.369 231.344L441.561 231.504L441.465 233.04L441.209 233.232L432.793 233.136L430.969 233.104V241.36H434.137L440.857 241.296L441.049 241.488L440.985 242.928L440.697 243.088C439.417 243.056 438.585 243.024 437.305 243.024C436.217 243.024 435.129 243.024 434.041 243.056H431.001L431.161 252.272H433.945L441.625 252.144L441.753 252.336L441.625 253.904ZM457.288 253.808L457.128 254L455.144 254.064L454.984 253.84C455.016 251.824 455.048 250.64 455.048 248.784C455.048 247.44 454.952 240.72 454.952 239.216C454.888 234.992 454.888 234.8 454.728 231.6L454.952 231.44L459.176 231.344L460.296 231.312C462.824 231.344 465.064 231.376 466.952 233.104C467.88 233.968 468.872 235.472 468.872 237.744C468.872 240.368 467.592 242.064 466.44 242.992C464.264 244.72 461 244.784 457.832 244.816H457.096C457.128 249.36 457.16 250.448 457.288 253.808ZM457.032 233.072V243.12C461.608 243.12 463.88 243.12 465.64 240.944C466.408 239.984 466.728 238.864 466.728 237.68C466.728 235.888 465.896 234.832 465.384 234.384C464.04 233.104 461.864 233.008 460.104 233.008C459.496 233.008 458.888 233.04 458.248 233.04L457.032 233.072ZM485.111 245.648C485.175 252.048 481.495 254.384 477.719 254.384C472.439 254.384 470.327 250.512 470.327 245.84C470.327 244.048 470.551 242.256 471.447 240.72C472.887 238.224 475.159 237.232 477.911 237.232C484.727 237.232 485.079 243.792 485.111 245.648ZM482.967 245.648C482.935 244.528 482.775 243.152 482.391 242.128C481.207 238.896 478.551 238.896 477.751 238.896C473.207 238.896 472.471 242.96 472.471 245.808C472.471 246.96 472.471 252.688 477.687 252.688C481.911 252.688 483.031 249.264 482.967 245.648ZM505.559 250.512L504.759 253.712L504.503 253.936L501.943 254.032L501.719 253.84L500.503 249.296L497.623 238.896L495.575 246.928C494.743 250.032 494.551 250.736 493.847 253.808L493.655 253.968L491.063 254.032L490.871 253.872L489.687 249.456L487.863 242.896L486.423 237.936L486.583 237.68L488.535 237.616L488.727 237.808C489.079 239.504 489.175 239.952 489.847 242.544L492.343 252.656L495.031 242.512L496.215 237.872L496.407 237.68L499.127 237.616L499.319 237.84C499.895 240.176 500.087 240.912 500.791 243.312L503.351 252.432L505.527 243.76C506.231 241.04 506.391 240.432 506.935 237.84L507.127 237.584H508.855L509.047 237.808L507.159 244.496L505.559 250.512ZM524.631 245.392L524.439 245.584H512.311C512.343 246.608 512.375 247.728 513.015 249.104C514.423 252.112 517.079 252.592 518.487 252.592C521.431 252.592 523.095 251.152 523.863 250.48L524.119 250.64L523.991 252.464L523.831 252.784C522.487 253.552 521.079 254.352 518.327 254.352C513.111 254.352 510.295 250.672 510.295 245.84C510.295 240.816 513.079 237.232 517.815 237.232C519.799 237.232 521.687 237.776 523.127 239.664C524.567 241.552 524.599 243.76 524.631 245.392ZM512.439 243.952H522.519C522.455 243.024 522.423 242 521.687 240.848C520.375 238.832 518.551 238.8 517.751 238.8C516.279 238.8 514.839 239.344 513.879 240.464C512.791 241.744 512.567 243.184 512.439 243.952ZM535.238 237.84L534.982 239.536L534.726 239.728C534.278 239.472 533.926 239.312 533.382 239.312C532.55 239.312 531.878 239.664 531.398 240.144C530.31 241.232 530.118 242.896 530.118 246C530.118 248.368 530.246 251.536 530.31 253.808L530.118 254L528.198 254.032L528.006 253.84C528.07 251.696 528.102 250.608 528.102 248.4C528.102 244.944 528.102 241.168 527.814 237.968L528.006 237.776L529.894 237.488L530.086 237.68L530.054 240.208C530.214 239.76 530.406 239.344 530.662 238.96C531.206 238.16 532.262 237.296 533.574 237.296C534.086 237.296 534.502 237.424 535.014 237.616L535.238 237.84ZM547.27 240.016L547.366 238.512L547.526 238.288C548.806 237.776 550.15 237.232 552.262 237.232C554.534 237.232 555.782 237.904 556.518 238.736C557.446 239.76 557.446 240.464 557.446 243.6V245.584C557.382 249.904 557.446 250.8 557.638 253.776L557.446 254L555.75 254.096L555.526 253.904L555.494 252.784C554.054 253.84 552.582 254.384 550.95 254.384C547.75 254.384 545.51 252.368 545.51 249.168C545.51 247.696 546.086 246.256 547.174 245.296C548.614 244.016 550.886 243.632 552.678 243.344L555.494 242.928V242.512C555.462 241.648 555.43 240.912 555.206 240.4C555.014 240.016 554.31 238.928 552.07 238.928C549.958 238.928 548.966 239.408 547.526 240.144L547.27 240.016ZM555.494 244.528L553.766 244.784C550.95 245.328 549.926 245.584 549.03 246.256C548.774 246.448 547.526 247.376 547.526 249.072C547.526 250.736 548.678 252.688 551.302 252.688C553.382 252.688 554.47 251.824 555.494 250.96V244.528ZM564.246 253.808L564.054 254L562.166 254.064L562.006 253.872C562.038 252.112 562.07 251.312 562.07 249.936C562.07 248.272 562.038 246.576 562.006 244.912C561.974 241.264 561.942 240.464 561.718 237.968L561.878 237.744L563.83 237.424L564.022 237.616L563.894 239.28C565.238 238.448 567.094 237.232 569.686 237.232C570.294 237.232 572.182 237.232 573.526 238.736C574.678 239.984 574.678 241.552 574.71 243.984L574.774 247.248C574.806 250.608 574.838 251.12 574.966 253.808L574.774 254L572.854 254.064L572.694 253.84C572.726 252.336 572.758 251.504 572.758 250.224C572.758 248.944 572.694 244.464 572.63 242.768C572.598 242.032 572.534 240.88 571.862 240.08C571.318 239.44 570.294 238.992 569.142 238.992C566.742 238.992 564.854 240.432 563.958 241.136C563.99 246.544 564.022 247.792 564.246 253.808ZM590.326 253.872V252.4C589.654 252.976 588.246 254.224 585.526 254.224C580.918 254.224 578.326 250.416 578.326 246.064C578.326 243.312 579.414 241.104 580.79 239.792C583.03 237.648 586.358 237.456 588.694 237.456C589.11 237.456 589.526 237.456 590.134 237.488C590.07 231.6 590.07 231.056 589.846 229.136L590.07 228.944C590.87 228.816 591.03 228.784 592.022 228.56L592.214 228.752C592.182 231.664 592.15 234.544 592.15 237.424C592.15 242.896 592.15 248.688 592.406 253.84L592.214 254C591.446 254 591.286 254 590.518 254.064L590.326 253.872ZM590.294 250.512V249.456C590.262 246.608 590.166 242.032 590.166 239.152C589.622 239.12 589.27 239.088 588.47 239.088C587.03 239.088 585.398 239.184 583.926 239.824C580.886 241.2 580.406 244.144 580.406 245.936C580.406 249.552 582.326 252.464 585.878 252.464C588.47 252.464 589.846 250.992 590.294 250.512ZM619.094 253.904L618.966 254H609.206L606.614 254.128L606.39 253.904C606.422 251.856 606.454 250.64 606.454 248.944C606.454 243.152 606.358 237.36 606.166 231.568L606.358 231.376L608.598 231.408H614.326L618.838 231.344L619.03 231.504L618.934 233.04L618.678 233.232L610.262 233.136L608.438 233.104V241.36H611.606L618.326 241.296L618.518 241.488L618.454 242.928L618.166 243.088C616.886 243.056 616.054 243.024 614.774 243.024C613.686 243.024 612.598 243.024 611.51 243.056H608.47L608.63 252.272H611.414L619.094 252.144L619.222 252.336L619.094 253.904ZM624.965 253.808L624.773 254L622.885 254.064L622.725 253.872C622.757 252.112 622.789 251.312 622.789 249.936C622.789 248.272 622.757 246.576 622.725 244.912C622.693 241.264 622.661 240.464 622.437 237.968L622.597 237.744L624.549 237.424L624.741 237.616L624.613 239.28C625.957 238.448 627.813 237.232 630.405 237.232C631.013 237.232 632.901 237.232 634.245 238.736C635.397 239.984 635.397 241.552 635.429 243.984L635.493 247.248C635.525 250.608 635.557 251.12 635.685 253.808L635.493 254L633.573 254.064L633.413 253.84C633.445 252.336 633.477 251.504 633.477 250.224C633.477 248.944 633.413 244.464 633.349 242.768C633.317 242.032 633.253 240.88 632.581 240.08C632.037 239.44 631.013 238.992 629.861 238.992C627.461 238.992 625.573 240.432 624.677 241.136C624.709 246.544 624.741 247.792 624.965 253.808ZM653.381 245.392L653.189 245.584H641.061C641.093 246.608 641.125 247.728 641.765 249.104C643.173 252.112 645.829 252.592 647.237 252.592C650.181 252.592 651.845 251.152 652.613 250.48L652.869 250.64L652.741 252.464L652.581 252.784C651.237 253.552 649.829 254.352 647.077 254.352C641.861 254.352 639.045 250.672 639.045 245.84C639.045 240.816 641.829 237.232 646.565 237.232C648.549 237.232 650.437 237.776 651.877 239.664C653.317 241.552 653.349 243.76 653.381 245.392ZM641.189 243.952H651.269C651.205 243.024 651.173 242 650.437 240.848C649.125 238.832 647.301 238.8 646.501 238.8C645.029 238.8 643.589 239.344 642.629 240.464C641.541 241.744 641.317 243.184 641.189 243.952ZM663.988 237.84L663.732 239.536L663.476 239.728C663.028 239.472 662.676 239.312 662.132 239.312C661.3 239.312 660.628 239.664 660.148 240.144C659.06 241.232 658.868 242.896 658.868 246C658.868 248.368 658.996 251.536 659.06 253.808L658.868 254L656.948 254.032L656.756 253.84C656.82 251.696 656.852 250.608 656.852 248.4C656.852 244.944 656.852 241.168 656.564 237.968L656.756 237.776L658.644 237.488L658.836 237.68L658.804 240.208C658.964 239.76 659.156 239.344 659.412 238.96C659.956 238.16 661.012 237.296 662.324 237.296C662.836 237.296 663.252 237.424 663.764 237.616L663.988 237.84ZM669.972 248.688L668.948 250.416L671.828 251.28C674.324 252.016 674.868 252.144 675.572 252.496C677.62 253.392 678.548 254.864 678.548 256.624C678.548 260.144 675.22 262.064 671.636 262.064C668.404 262.064 664.884 260.368 664.884 256.88C664.884 254.32 666.868 252.848 667.956 252.048L666.548 251.44L666.452 251.12C667.316 249.84 667.508 249.552 668.244 248.24C666.964 247.44 665.268 246.384 665.268 243.312C665.268 240.944 666.484 239.568 667.188 238.96C668.948 237.488 671.092 237.488 673.236 237.488L674.676 237.52H678.9L679.028 237.744L678.9 239.088L678.676 239.28L675.476 239.088C676.084 239.568 677.62 240.784 677.62 243.376C677.62 246.704 674.868 248.912 671.7 248.912C671.06 248.912 670.612 248.816 669.972 248.688ZM669.428 252.528C668.468 253.328 666.868 254.64 666.868 256.656C666.868 258.192 668.084 260.464 671.764 260.464C675.124 260.464 676.468 258.512 676.468 256.88C676.468 254.832 674.772 254.224 674.068 253.936C672.884 253.488 670.964 252.976 669.428 252.528ZM675.636 243.152C675.604 241.104 674.292 239.12 671.604 239.12C668.692 239.12 667.252 241.136 667.252 243.344C667.252 246.192 669.46 247.376 671.444 247.376C674.228 247.376 675.668 245.328 675.636 243.152ZM691.796 242.992L689.492 249.264C687.988 253.36 686.388 257.872 685.748 260.048C685.588 260.528 685.46 261.04 685.332 261.52L685.108 261.712L683.124 261.68L682.932 261.488C684.052 258.992 684.276 258.416 685.236 255.888L686.004 253.68C684.052 248.432 683.668 247.472 681.556 242.128C680.82 240.208 680.692 239.888 679.828 237.904L680.02 237.616L681.908 237.456L682.196 237.68L684.788 245.04L687.028 251.184L689.428 244.368C690.42 241.488 690.644 240.752 691.508 237.84L691.828 237.584H693.62L693.844 237.84C692.948 239.888 692.724 240.464 691.796 242.992ZM705.091 250.576L705.411 250.512C705.795 250.864 706.083 251.184 706.691 251.568C707.907 252.368 709.379 252.752 710.851 252.752C714.147 252.752 716.259 250.8 716.259 248.144C716.259 245.648 714.499 244.592 712.099 243.536L709.539 242.48C707.523 241.52 704.835 240.24 704.835 236.816C704.835 234.992 705.699 233.232 707.203 232.176C708.707 231.152 710.563 230.928 712.067 230.928C714.883 230.928 716.547 231.76 717.379 232.208L717.571 232.464L717.379 234.032L717.059 234.192C715.971 233.52 714.563 232.624 712.003 232.624C707.523 232.624 706.883 235.472 706.883 236.688C706.883 239.12 708.899 240.016 711.139 240.912L713.411 241.872C715.331 242.768 718.339 244.176 718.339 248.048C718.339 251.28 715.939 254.48 710.883 254.48C709.571 254.48 706.947 254.16 705.091 252.848L704.963 252.528L705.091 250.576ZM735.955 245.648C736.019 252.048 732.339 254.384 728.563 254.384C723.283 254.384 721.171 250.512 721.171 245.84C721.171 244.048 721.395 242.256 722.291 240.72C723.731 238.224 726.003 237.232 728.755 237.232C735.571 237.232 735.923 243.792 735.955 245.648ZM733.811 245.648C733.779 244.528 733.619 243.152 733.235 242.128C732.051 238.896 729.395 238.896 728.595 238.896C724.051 238.896 723.315 242.96 723.315 245.808C723.315 246.96 723.315 252.688 728.531 252.688C732.755 252.688 733.875 249.264 733.811 245.648ZM750.674 250.8L750.994 250.928L750.802 252.816L750.546 253.2C748.85 254.288 746.994 254.384 746.13 254.384C742.29 254.384 738.514 251.952 738.514 246C738.514 241.104 741.234 237.232 746.514 237.232C748.658 237.232 749.746 237.84 750.578 238.32L750.738 238.608L750.514 240.4L750.226 240.528C749.49 239.888 748.434 238.992 746.386 238.992C744.818 238.992 743.41 239.664 742.546 240.464C741.042 241.84 740.53 243.92 740.53 245.968C740.53 250.864 743.602 252.656 746.226 252.656C747.954 252.656 749.458 251.984 750.674 250.8ZM755.842 253.808L755.65 254L753.73 254.032L753.57 253.872C753.602 251.76 753.602 250.8 753.602 249.808C753.602 247.376 753.57 241.904 753.314 237.968L753.506 237.776L755.426 237.488L755.618 237.68C755.554 239.152 755.522 239.888 755.522 241.136C755.522 245.232 755.65 249.712 755.842 253.808ZM755.714 231.952L755.49 232.208L753.442 232.4L753.186 232.144L753.218 230.16L753.474 229.904L755.522 229.712L755.746 229.968L755.714 231.952ZM773.506 245.392L773.314 245.584H761.186C761.218 246.608 761.25 247.728 761.89 249.104C763.298 252.112 765.954 252.592 767.362 252.592C770.306 252.592 771.97 251.152 772.738 250.48L772.994 250.64L772.866 252.464L772.706 252.784C771.362 253.552 769.954 254.352 767.202 254.352C761.986 254.352 759.17 250.672 759.17 245.84C759.17 240.816 761.954 237.232 766.69 237.232C768.674 237.232 770.562 237.776 772.002 239.664C773.442 241.552 773.474 243.76 773.506 245.392ZM761.314 243.952H771.394C771.33 243.024 771.298 242 770.562 240.848C769.25 238.832 767.426 238.8 766.626 238.8C765.154 238.8 763.714 239.344 762.754 240.464C761.666 241.744 761.442 243.184 761.314 243.952ZM782.929 239.28L779.345 239.216V247.76C779.345 248.72 779.345 249.392 779.377 250.128C779.441 251.6 779.761 252.496 781.393 252.496C782.001 252.496 782.417 252.336 782.865 252.144L783.121 252.304L783.025 253.744L782.801 254.032C782.161 254.16 781.745 254.224 781.105 254.224C777.329 254.224 777.329 251.632 777.329 248.976L777.361 247.312V239.216L774.769 239.28L774.609 239.056L774.673 237.744L774.865 237.552L777.393 237.616L777.265 233.68L777.489 233.488L779.345 233.04L779.537 233.232L779.377 237.616L783.057 237.52L783.217 237.744L783.153 239.12L782.929 239.28ZM795.265 242.992L792.961 249.264C791.457 253.36 789.857 257.872 789.217 260.048C789.057 260.528 788.929 261.04 788.801 261.52L788.577 261.712L786.593 261.68L786.401 261.488C787.521 258.992 787.745 258.416 788.705 255.888L789.473 253.68C787.521 248.432 787.137 247.472 785.025 242.128C784.289 240.208 784.161 239.888 783.297 237.904L783.489 237.616L785.377 237.456L785.665 237.68L788.257 245.04L790.497 251.184L792.897 244.368C793.889 241.488 794.113 240.752 794.977 237.84L795.297 237.584H797.089L797.313 237.84C796.417 239.888 796.193 240.464 795.265 242.992Z" fill="#00629B"/>
<path d="M504 25V194" stroke="#8E9093" stroke-width="3" stroke-miterlimit="10"/>
<path d="M85.938 123.222L86.232 123.516C86.106 126.33 86.022 129.648 86.022 136.872C86.022 144.936 86.106 148.38 86.358 152.706L86.106 153C84.258 153.042 83.67 153.042 81.444 153.126L81.192 152.832C81.276 150.27 81.36 148.044 81.36 142.626C81.36 136.284 81.36 129.984 81.066 123.684L81.276 123.348C83.124 123.348 83.796 123.348 85.938 123.222ZM111.347 149.262L111.599 149.556C111.473 150.984 111.473 151.278 111.389 152.706L111.095 153C102.905 153 101.603 153.042 93.6227 153.126L93.4127 152.832C93.5387 149.514 93.6647 147.246 93.6647 139.56C93.6647 132.504 93.6647 128.472 93.3707 123.642L93.6227 123.348C101.897 123.306 103.535 123.306 111.263 123.222L111.515 123.516C111.389 124.776 111.305 125.28 111.221 126.792L110.969 127.086C105.551 126.918 103.745 126.918 98.4107 126.876C98.2847 130.74 98.2847 131.958 98.2847 135.822C103.451 135.864 105.047 135.822 110.171 135.738L110.381 136.032C110.213 137.502 110.213 137.922 110.171 139.266L109.919 139.56C105.047 139.434 103.997 139.434 98.2847 139.434C98.2007 144.306 98.2427 145.482 98.2847 149.472C104.627 149.472 105.929 149.472 111.347 149.262ZM134.11 149.262L134.362 149.556C134.236 150.984 134.236 151.278 134.152 152.706L133.858 153C125.668 153 124.366 153.042 116.386 153.126L116.176 152.832C116.302 149.514 116.428 147.246 116.428 139.56C116.428 132.504 116.428 128.472 116.134 123.642L116.386 123.348C124.66 123.306 126.298 123.306 134.026 123.222L134.278 123.516C134.152 124.776 134.068 125.28 133.984 126.792L133.732 127.086C128.314 126.918 126.508 126.918 121.174 126.876C121.048 130.74 121.048 131.958 121.048 135.822C126.214 135.864 127.81 135.822 132.934 135.738L133.144 136.032C132.976 137.502 132.976 137.922 132.934 139.266L132.682 139.56C127.81 139.434 126.76 139.434 121.048 139.434C120.964 144.306 121.006 145.482 121.048 149.472C127.39 149.472 128.692 149.472 134.11 149.262ZM156.874 149.262L157.126 149.556C157 150.984 157 151.278 156.916 152.706L156.622 153C148.432 153 147.13 153.042 139.15 153.126L138.94 152.832C139.066 149.514 139.192 147.246 139.192 139.56C139.192 132.504 139.192 128.472 138.898 123.642L139.15 123.348C147.424 123.306 149.062 123.306 156.79 123.222L157.042 123.516C156.916 124.776 156.832 125.28 156.748 126.792L156.496 127.086C151.078 126.918 149.272 126.918 143.938 126.876C143.812 130.74 143.812 131.958 143.812 135.822C148.978 135.864 150.574 135.822 155.698 135.738L155.908 136.032C155.74 137.502 155.74 137.922 155.698 139.266L155.446 139.56C150.574 139.434 149.524 139.434 143.812 139.434C143.728 144.306 143.77 145.482 143.812 149.472C150.154 149.472 151.456 149.472 156.874 149.262ZM182.703 135.276L184.803 136.2C187.869 137.544 191.943 139.308 191.943 144.684C191.943 149.388 188.457 153.63 181.149 153.63C176.697 153.63 173.841 152.286 172.833 151.782L172.665 151.488C172.833 150.018 172.875 149.22 173.001 147.624L173.421 147.456C174.471 148.17 176.907 149.934 180.813 149.934C185.139 149.934 186.945 147.708 186.945 145.188C186.945 142.248 184.509 141.114 181.779 140.064L179.679 139.14C176.697 137.754 172.707 135.948 172.707 130.824C172.707 129.27 173.127 127.674 174.009 126.414C175.941 123.642 179.427 122.718 182.829 122.718C186.147 122.718 188.163 123.348 190.389 124.062L190.599 124.398C190.431 125.994 190.389 126.582 190.263 128.094L189.927 128.262C188.121 127.338 186.147 126.33 182.997 126.33C179.511 126.33 177.327 127.968 177.327 130.446C177.327 132.336 178.587 133.218 179.469 133.764C180.015 134.1 180.183 134.184 182.703 135.276ZM205.887 149.43L206.181 149.682C206.055 151.068 206.055 151.362 206.013 152.58L205.803 152.832C204.921 153.042 204.207 153.21 202.653 153.21C201.645 153.21 198.999 153.21 197.697 151.026C196.941 149.808 196.941 148.8 196.941 143.844L197.025 134.604C195.555 134.604 195.513 134.646 194.001 134.688L193.833 134.436C193.917 133.092 193.917 132.756 193.917 131.412L194.169 131.16C195.093 131.16 195.639 131.202 197.025 131.16C196.983 130.278 196.983 129.354 196.983 128.472C196.941 127.674 196.899 126.876 196.857 126.078L197.067 125.784C198.957 125.322 199.419 125.196 201.351 124.608L201.645 124.818C201.519 127.59 201.477 128.136 201.477 131.202C203.241 131.16 203.745 131.16 206.139 131.076L206.349 131.328C206.265 132.42 206.223 132.882 206.223 134.31L206.013 134.562C203.913 134.52 203.661 134.478 201.435 134.478L201.351 142.29C201.393 142.794 201.393 145.188 201.393 145.776C201.393 148.842 201.771 149.808 203.871 149.808C204.753 149.808 205.425 149.598 205.887 149.43ZM228.041 130.992L228.293 131.286C228.209 134.478 228.167 137.46 228.167 140.862C228.167 146.028 228.293 149.136 228.377 150.942C228.377 151.53 228.419 152.118 228.461 152.706L228.293 152.958C226.277 153 225.941 153.042 224.009 153.126L223.757 152.874L223.799 151.11C222.875 151.782 220.649 153.504 217.205 153.504C215.567 153.504 213.761 153.126 212.417 152.076C209.729 149.892 209.729 146.322 209.687 143.046V140.442C209.603 134.436 209.603 133.764 209.477 131.496L209.687 131.202C211.661 131.16 212.039 131.16 214.013 130.992L214.265 131.286L214.097 140.484C214.097 141.618 214.055 142.458 214.097 144.474C214.139 146.238 214.223 150.018 218.465 150.018C220.943 150.018 222.707 148.632 223.715 147.834C223.757 145.566 223.757 143.634 223.757 141.198C223.757 135.36 223.715 134.184 223.463 131.454L223.715 131.16C225.647 131.118 226.109 131.118 228.041 130.992ZM248.075 120.618L248.285 120.366C250.427 119.988 250.847 119.904 252.737 119.484L253.031 119.736C252.737 125.574 252.695 135.99 252.695 140.19C252.695 146.7 252.863 149.808 253.031 152.706L252.821 153C250.973 153 250.469 153.042 248.537 153.126L248.243 152.874L248.327 151.32C247.319 152.076 245.597 153.42 242.531 153.42C236.945 153.42 233.081 149.01 233.081 142.626C233.081 138.048 235.013 135.15 236.777 133.596C239.843 130.824 243.833 130.698 246.017 130.698C246.899 130.698 247.319 130.698 248.453 130.782C248.495 125.574 248.285 123.054 248.075 120.618ZM248.285 147.834C248.369 142.332 248.369 141.072 248.327 134.184C247.613 134.142 247.109 134.058 246.227 134.058C244.925 134.058 242.153 134.142 240.137 136.032C239.213 136.914 237.701 138.888 237.701 142.626C237.701 145.02 238.373 146.742 239.255 147.792C240.011 148.674 241.397 149.682 243.581 149.682C246.143 149.682 247.697 148.338 248.285 147.834ZM275.796 147.666L276.132 147.876C275.922 149.556 275.88 149.976 275.796 151.614L275.544 151.908C274.83 152.286 272.562 153.504 268.824 153.504C261.936 153.504 257.61 149.556 257.61 142.248C257.61 134.436 262.314 130.614 267.816 130.614C271.134 130.614 273.444 132 274.704 133.512C277.098 136.368 277.014 140.526 276.972 142.374L276.678 142.626C270.126 142.584 268.992 142.584 262.104 142.626C262.146 144.096 262.272 146.154 263.7 147.876C265.422 149.934 267.816 150.144 269.118 150.144C270.336 150.144 271.596 149.934 272.772 149.514C274.326 148.884 275.25 148.128 275.796 147.666ZM272.646 139.392C272.604 138.804 272.562 137.88 272.226 136.914C271.386 134.604 269.538 133.638 267.648 133.638C265.296 133.638 262.524 135.234 262.104 139.434C267.186 139.476 268.782 139.434 272.646 139.392ZM300.323 152.706L300.071 152.958C298.055 153 297.803 153 295.871 153.126L295.577 152.832C295.577 152.37 295.619 151.908 295.619 151.446C295.661 149.388 295.661 147.33 295.661 145.272C295.661 138.804 295.619 138.384 295.409 137.502C294.611 134.31 292.217 134.31 291.629 134.31C289.109 134.31 287.177 135.78 286.043 136.662C286.001 143.97 286.085 147.792 286.379 152.706L286.127 152.958C284.069 153 283.733 153 281.717 153.126L281.507 152.832C281.549 150.48 281.633 148.212 281.633 145.104C281.633 138.384 281.339 134.814 281.129 132L281.381 131.706C283.481 131.328 283.859 131.244 285.833 130.866L286.127 131.16L286.085 133.344C287.177 132.588 289.781 130.74 293.477 130.74C294.527 130.74 295.829 130.908 296.963 131.538C298.055 132.168 298.937 133.134 299.399 134.268C299.945 135.528 299.987 136.788 300.029 139.392V144.306C300.155 149.22 300.197 151.11 300.323 152.706ZM315.276 149.43L315.57 149.682C315.444 151.068 315.444 151.362 315.402 152.58L315.192 152.832C314.31 153.042 313.596 153.21 312.042 153.21C311.034 153.21 308.388 153.21 307.086 151.026C306.33 149.808 306.33 148.8 306.33 143.844L306.414 134.604C304.944 134.604 304.902 134.646 303.39 134.688L303.222 134.436C303.306 133.092 303.306 132.756 303.306 131.412L303.558 131.16C304.482 131.16 305.028 131.202 306.414 131.16C306.372 130.278 306.372 129.354 306.372 128.472C306.33 127.674 306.288 126.876 306.246 126.078L306.456 125.784C308.346 125.322 308.808 125.196 310.74 124.608L311.034 124.818C310.908 127.59 310.866 128.136 310.866 131.202C312.63 131.16 313.134 131.16 315.528 131.076L315.738 131.328C315.654 132.42 315.612 132.882 315.612 134.31L315.402 134.562C313.302 134.52 313.05 134.478 310.824 134.478L310.74 142.29C310.782 142.794 310.782 145.188 310.782 145.776C310.782 148.842 311.16 149.808 313.26 149.808C314.142 149.808 314.814 149.598 315.276 149.43ZM339.277 153.084L331.885 153.126L331.675 152.832C331.759 150.816 331.801 148.884 331.801 145.062C331.801 143.256 331.843 134.478 331.843 132.504C331.843 128.094 331.717 125.826 331.549 123.642L331.759 123.348L337.387 123.264C338.227 123.222 339.529 123.222 340.663 123.222C343.141 123.222 345.787 123.306 347.887 124.524C349.441 125.406 351.205 127.17 351.205 130.278C351.205 131.748 350.785 135.948 344.947 137.376C345.913 137.418 347.299 137.46 348.811 138.132C352.423 139.728 352.801 142.92 352.801 144.474C352.801 148.338 350.407 151.068 347.047 152.286C344.821 153.084 342.595 153.084 339.277 153.084ZM337.429 139.518L336.421 139.56C336.421 144.348 336.421 145.062 336.589 149.64H337.387C340.537 149.64 343.099 149.682 344.737 149.01C346.753 148.254 347.887 146.49 347.887 144.39C347.887 139.476 342.469 139.434 340.453 139.434C340.075 139.434 339.697 139.434 337.429 139.518ZM336.421 126.708V136.032C340.201 136.074 343.099 136.032 344.863 134.646C345.913 133.764 346.585 132.378 346.585 130.992C346.585 129.858 346.123 128.766 345.409 128.01C343.939 126.582 341.335 126.582 340.369 126.582C339.025 126.582 337.723 126.624 336.421 126.708ZM367.711 135.318L367.417 135.528C366.997 135.36 366.451 135.15 365.737 135.15C364.939 135.15 364.351 135.444 363.973 135.696C362.251 136.914 362.251 138.762 362.251 143.13C362.251 147.876 362.377 150.354 362.545 152.706L362.335 153C360.361 153 359.899 153.042 357.883 153.126L357.673 152.874C357.715 149.682 357.757 146.784 357.757 142.878C357.757 136.158 357.631 134.436 357.379 132L357.631 131.706C359.227 131.412 360.235 131.202 361.999 130.866L362.251 131.118L362.041 134.688C362.545 133.344 363.595 130.656 367.165 130.656C367.711 130.656 368.005 130.698 368.341 130.782L368.509 131.034C368.089 133.05 368.005 133.47 367.711 135.318ZM387.662 140.19V144.348C387.662 149.556 387.704 150.018 387.914 152.748L387.704 152.958C385.73 153 385.394 153.042 383.462 153.126L383.294 152.874L383.336 151.362C382.538 151.992 380.648 153.504 377.456 153.504C373.256 153.504 370.316 150.648 370.316 146.49C370.316 140.862 375.02 139.056 382.58 138.174L383.294 138.09C383.294 136.956 383.294 136.158 382.916 135.486C382.496 134.73 381.53 133.932 379.43 133.932C376.7 133.932 374.81 134.772 373.046 135.528L372.71 135.318C372.794 133.386 372.794 133.134 372.836 132.252L373.088 132C375.44 131.16 377.876 130.614 380.354 130.614C383.462 130.614 386.486 131.664 387.368 134.94C387.662 136.116 387.662 138.426 387.662 140.19ZM383.336 141.198L382.958 141.282C378.716 141.912 374.768 142.5 374.768 146.238C374.768 146.448 374.768 150.06 378.758 150.06C381.362 150.06 382.874 148.632 383.336 148.212V141.198ZM412.378 152.706L412.126 152.958C410.11 153 409.858 153 407.926 153.126L407.632 152.832C407.632 152.37 407.674 151.908 407.674 151.446C407.716 149.388 407.716 147.33 407.716 145.272C407.716 138.804 407.674 138.384 407.464 137.502C406.666 134.31 404.272 134.31 403.684 134.31C401.164 134.31 399.232 135.78 398.098 136.662C398.056 143.97 398.14 147.792 398.434 152.706L398.182 152.958C396.124 153 395.788 153 393.772 153.126L393.562 152.832C393.604 150.48 393.688 148.212 393.688 145.104C393.688 138.384 393.394 134.814 393.184 132L393.436 131.706C395.536 131.328 395.914 131.244 397.888 130.866L398.182 131.16L398.14 133.344C399.232 132.588 401.836 130.74 405.532 130.74C406.582 130.74 407.884 130.908 409.018 131.538C410.11 132.168 410.992 133.134 411.454 134.268C412 135.528 412.042 136.788 412.084 139.392V144.306C412.21 149.22 412.252 151.11 412.378 152.706ZM433.462 147.834L433.798 148.002C433.63 149.808 433.588 150.018 433.462 151.74L433.168 152.034C431.95 152.622 430.312 153.462 427.372 153.462C421.03 153.462 416.914 148.884 416.914 142.332C416.914 135.654 420.946 130.614 427.456 130.614C430.186 130.614 432.118 131.496 433.21 131.958L433.378 132.252C433.21 133.764 433.168 134.31 433.084 135.57L432.748 135.738C431.362 134.73 429.766 134.1 428.086 134.1C424.6 134.1 421.534 136.788 421.534 142.164C421.534 147.876 424.768 149.934 428.044 149.934C430.9 149.934 432.664 148.464 433.462 147.834ZM456.101 152.706L455.849 152.958C453.833 153 453.581 153 451.649 153.126L451.355 152.832L451.397 151.446C451.439 149.262 451.439 147.036 451.439 144.852L451.397 140.358C451.397 139.392 451.397 138.426 451.187 137.502C450.725 135.57 449.549 134.31 447.407 134.31C445.013 134.31 443.165 135.654 441.779 136.662C441.737 143.97 441.821 147.792 442.073 152.706L441.863 152.958C439.931 153 439.427 153 437.369 153.126L437.159 152.832C437.243 149.85 437.369 146.07 437.369 138.006C437.369 134.478 437.327 130.95 437.285 127.422C437.201 123.726 437.075 122.508 436.949 120.618L437.159 120.366C439.175 120.03 439.847 119.904 441.737 119.484L441.989 119.778C441.737 124.272 441.737 128.808 441.737 133.344C443.081 132.462 445.727 130.74 449.255 130.74C450.221 130.74 451.187 130.866 452.069 131.244C453.959 132 455.093 133.512 455.513 135.234C455.723 136.074 455.723 136.578 455.807 139.392V144.306L455.849 146.28C455.933 149.808 455.933 150.396 456.101 152.706Z" fill="#00629B"/>
<path d="M108.24 75.968L108.48 76.256L108.336 90.512V95.408C108.24 101.504 108.048 104.288 105.504 106.976C101.952 110.72 96.672 110.72 94.944 110.72C88.512 110.72 84.816 108.32 82.992 105.728C81.312 103.424 81.024 100.832 80.88 95.648V92.096C80.832 84.608 80.832 83.264 80.64 76.4L80.928 76.112C84.192 76.16 85.296 76.16 89.376 75.968L89.616 76.256C89.52 81.008 89.472 84.704 89.472 88.592C89.472 91.136 89.472 93.68 89.568 96.224C89.664 99.248 89.952 100.928 90.672 102.176C91.728 103.856 93.6 104.72 95.568 104.72C97.152 104.72 98.736 104.192 99.792 102.992C101.088 101.456 101.232 99.152 101.232 94.112C101.232 88.208 100.992 82.304 100.752 76.4L101.04 76.112C103.776 76.16 104.736 76.16 108.24 75.968ZM121.39 76.016L125.614 75.92C129.214 75.92 133.294 75.92 136.174 77.6C140.158 79.856 140.638 84.416 140.638 86.48C140.638 89.84 139.486 92.576 138.142 94.208C134.686 98.432 128.926 98.432 123.55 98.384C123.55 103.28 123.55 104.48 123.742 109.712L123.502 110C119.662 109.952 118.894 110 115.342 110.144L115.054 109.856C115.198 104 115.342 98.192 115.342 92.336C115.342 86.816 115.198 82.64 115.006 76.4L115.294 76.112L121.39 76.016ZM123.55 81.824V92.48C126.43 92.48 128.206 92.384 129.502 91.664C132.046 90.272 132.046 87.488 132.046 86.816C132.046 84.032 130.894 81.872 126.67 81.776C125.614 81.776 124.606 81.776 123.55 81.824ZM153.838 75.968L154.078 76.256C153.934 82.88 153.838 89.504 153.838 96.128C153.838 103.088 153.934 105.296 154.174 109.712L153.886 110C149.902 110 148.942 110 145.342 110.144L145.102 109.856C145.294 104.864 145.39 101.936 145.39 96.272C145.39 84.032 145.246 81.584 144.958 76.4L145.15 76.112C148.606 76.16 149.71 76.16 153.838 75.968ZM169.916 75.968L170.156 76.256C170.012 82.88 169.916 89.504 169.916 96.128C169.916 103.088 170.012 105.296 170.252 109.712L169.964 110C165.98 110 165.02 110 161.42 110.144L161.18 109.856C161.372 104.864 161.468 101.936 161.468 96.272C161.468 84.032 161.324 81.584 161.036 76.4L161.228 76.112C164.684 76.16 165.788 76.16 169.916 75.968ZM197.395 82.448L189.955 82.256C189.859 85.328 189.811 86.816 189.811 89.456C189.811 96.224 189.907 102.944 190.147 109.664L189.859 109.952C185.875 109.952 184.915 110 181.363 110.144L181.075 109.856C181.459 97.952 181.459 94.928 181.411 82.352L173.587 82.544L173.347 82.256L173.683 76.352L174.019 76.064H197.779L198.019 76.208L197.683 82.208L197.395 82.448ZM216.569 75.968L216.905 76.256C219.641 86.816 220.313 89.072 226.121 109.616L225.881 110C221.993 109.952 221.033 110 217.529 110.144L217.193 109.856L215.129 100.976H204.761L202.409 109.712L202.073 110H194.585L194.393 109.664C201.449 89.408 202.985 84.56 205.529 76.4L205.865 76.112C211.001 76.112 211.961 76.112 216.569 75.968ZM206.441 95.168H213.737L211.961 87.68L210.521 81.44L208.841 87.056L206.441 95.168ZM242.441 93.344L242.681 93.584L242.345 99.152L242.057 99.44C239.705 99.44 237.353 99.392 235.001 99.392C232.457 99.392 230.873 99.44 228.185 99.488L227.945 99.2L228.233 93.68L228.569 93.392C230.825 93.392 233.129 93.44 235.433 93.44C238.265 93.44 240.137 93.392 242.441 93.344ZM256.073 75.968L256.312 76.256C256.169 82.88 256.073 89.504 256.073 96.128C256.073 103.088 256.169 105.296 256.409 109.712L256.121 110C252.137 110 251.177 110 247.577 110.144L247.337 109.856C247.529 104.864 247.625 101.936 247.625 96.272C247.625 84.032 247.48 81.584 247.193 76.4L247.385 76.112C250.841 76.16 251.945 76.16 256.073 75.968ZM269.703 76.016L273.927 75.92C277.527 75.92 281.607 75.92 284.487 77.6C288.471 79.856 288.951 84.416 288.951 86.48C288.951 89.84 287.799 92.576 286.455 94.208C282.999 98.432 277.239 98.432 271.863 98.384C271.863 103.28 271.863 104.48 272.055 109.712L271.815 110C267.975 109.952 267.207 110 263.655 110.144L263.367 109.856C263.511 104 263.655 98.192 263.655 92.336C263.655 86.816 263.511 82.64 263.319 76.4L263.607 76.112L269.703 76.016ZM271.863 81.824V92.48C274.743 92.48 276.519 92.384 277.815 91.664C280.359 90.272 280.359 87.488 280.359 86.816C280.359 84.032 279.207 81.872 274.983 81.776C273.927 81.776 272.919 81.776 271.863 81.824ZM322.119 75.968L322.407 76.256C322.359 81.632 322.311 86.96 322.311 92.336C322.311 98.096 322.359 102.8 322.407 109.76L322.167 110C319.623 110 318.759 110 315.831 110.144L315.495 109.904L311.223 103.664L306.423 96.608C303.159 91.856 302.391 90.608 300.135 86.864L300.423 93.296L300.567 99.2L301.047 109.712L300.807 110C298.023 110 297.015 110 293.799 110.144L293.559 109.856C293.607 105.2 293.703 100.496 293.703 95.792C293.703 89.36 293.559 83.84 293.319 76.4L293.559 76.112C297.063 76.16 297.687 76.16 301.479 75.968L301.815 76.208C303.015 78.128 303.735 79.184 307.335 84.656L311.703 91.04C314.151 94.688 314.391 95.072 315.783 97.424L315.591 89.504L315.399 82.88L315.063 76.4L315.303 76.112C318.279 76.16 319.095 76.112 322.119 75.968Z" fill="#00629B"/>
<path d="M644.088 98.949C643.671 97.513 643.203 96.0937 642.702 94.7079C642.636 94.6578 642.552 94.6077 642.485 94.5576C643.086 95.9769 643.621 97.4462 644.088 98.9323V98.949Z" fill="url(#paint0_linear_44_12247)"/>
<path d="M642.369 146.619C642.452 146.569 642.536 146.519 642.619 146.469C643.187 144.899 643.721 143.313 644.189 141.677C643.654 143.363 643.053 145.016 642.369 146.619Z" fill="url(#paint1_linear_44_12247)"/>
<path d="M642.335 136.484L642.385 136.317C640.265 136.784 638.144 137.219 636.007 137.636C638.061 137.386 640.064 137.035 642.034 136.567L642.352 136.501L642.335 136.484Z" fill="url(#paint2_linear_44_12247)"/>
<path d="M642.335 136.484L642.385 136.317C640.265 136.784 638.144 137.219 636.007 137.636C638.061 137.386 640.064 137.035 642.034 136.567L642.352 136.501L642.335 136.484Z" fill="url(#paint3_linear_44_12247)"/>
<path d="M645.841 135.516C645.841 135.516 645.791 135.516 645.775 135.532L645.841 135.516Z" fill="url(#paint4_linear_44_12247)"/>
<path d="M645.841 135.516C645.841 135.516 645.791 135.516 645.775 135.532L645.841 135.516Z" fill="url(#paint5_linear_44_12247)"/>
<path d="M650.1 137.469V137.87H648.981C647.746 138.287 646.51 138.688 645.241 139.022L644.94 139.106V139.139C647.545 138.555 650.15 137.903 652.705 137.219C654.09 135.582 655.309 134.013 656.311 132.694C655.393 132.961 654.474 133.228 653.556 133.495C652.922 134.697 652.22 135.866 651.436 136.968C651.001 137.152 650.551 137.319 650.1 137.486V137.469Z" fill="url(#paint6_linear_44_12247)"/>
<path d="M650.1 137.469C649.732 137.603 649.348 137.736 648.981 137.87H650.1V137.469Z" fill="url(#paint7_linear_44_12247)"/>
<path d="M650.1 137.469C649.732 137.603 649.348 137.736 648.981 137.87H650.1V137.469Z" fill="url(#paint8_linear_44_12247)"/>
<path d="M642.619 146.469C641.884 148.472 641.066 150.426 640.165 152.313C647.361 149.057 653.088 143.33 656.494 136.167C655.242 136.534 653.973 136.884 652.704 137.218C649.815 140.641 646.226 144.298 642.619 146.469Z" fill="url(#paint9_linear_44_12247)"/>
<path d="M644.924 139.122C644.924 139.122 644.874 139.122 644.857 139.122C644.64 139.974 644.423 140.825 644.172 141.66C644.406 140.909 644.64 140.141 644.84 139.373L644.907 139.105L644.924 139.122Z" fill="url(#paint10_linear_44_12247)"/>
<path d="M642.369 146.619C643.053 145.016 643.654 143.363 644.189 141.677C644.423 140.842 644.656 139.99 644.873 139.139C643.07 139.539 641.25 139.923 639.413 140.291C639.764 140.224 640.131 140.174 640.499 140.09L641.4 139.923L641.1 140.792C640.165 143.563 638.963 146.268 637.477 148.957C634.454 150.092 631.232 150.777 627.909 150.96V142.211C626.841 142.361 625.772 142.495 624.72 142.612V150.96C621.33 150.777 618.108 150.059 615.102 148.873C614.151 147.17 613.333 145.45 612.615 143.714C611.479 143.78 610.327 143.847 609.175 143.897C609.476 144.732 609.793 145.567 610.143 146.385C608.991 145.667 607.889 144.866 606.854 143.998C604.834 144.064 602.813 144.098 600.776 144.098C607.138 150.977 616.221 155.285 626.323 155.285C631.332 155.285 635.991 154.233 640.181 152.346C641.083 150.476 641.901 148.522 642.636 146.502C642.552 146.552 642.469 146.602 642.386 146.652L642.369 146.619Z" fill="url(#paint11_linear_44_12247)"/>
<path d="M642.369 146.619C643.053 145.016 643.654 143.363 644.189 141.677C644.423 140.842 644.656 139.99 644.873 139.139C643.07 139.539 641.25 139.923 639.413 140.291C639.764 140.224 640.131 140.174 640.499 140.09L641.4 139.923L641.1 140.792C640.165 143.563 638.963 146.268 637.477 148.957C634.454 150.092 631.232 150.777 627.909 150.96V142.211C626.841 142.361 625.772 142.495 624.72 142.612V150.96C621.33 150.777 618.108 150.059 615.102 148.873C614.151 147.17 613.333 145.45 612.615 143.714C611.479 143.78 610.327 143.847 609.175 143.897C609.476 144.732 609.793 145.567 610.143 146.385C608.991 145.667 607.889 144.866 606.854 143.998C604.834 144.064 602.813 144.098 600.776 144.098C607.138 150.977 616.221 155.285 626.323 155.285C631.332 155.285 635.991 154.233 640.181 152.346C641.083 150.476 641.901 148.522 642.636 146.502C642.552 146.552 642.469 146.602 642.386 146.652L642.369 146.619Z" fill="url(#paint12_linear_44_12247)"/>
<path d="M605.401 122.575C605.501 126.532 605.902 130.606 606.67 134.647L605.401 122.575Z" fill="url(#paint13_linear_44_12247)"/>
<path d="M605.401 122.575C605.501 126.532 605.902 130.606 606.67 134.647L605.401 122.575Z" fill="url(#paint14_linear_44_12247)"/>
<path d="M600.409 136.634C602.647 137.586 604.984 138.371 607.372 139.022L607.672 139.105L607.756 139.406C607.89 139.924 608.04 140.441 608.207 140.942C609.309 140.892 610.411 140.825 611.513 140.758L611.229 139.94L612.131 140.107C612.949 140.257 613.784 140.408 614.602 140.525C621.865 139.94 629.011 138.972 636.007 137.653C633.57 137.953 631.065 138.137 628.46 138.187H627.909V122.074H644.039V122.625C643.922 127.451 643.421 131.909 642.419 136.183L642.386 136.334C643.137 136.167 643.888 135.983 644.64 135.816V101.47H644.773C644.556 100.635 644.339 99.8004 644.089 98.9656C643.605 97.4796 643.087 96.0102 642.486 94.591C642.553 94.641 642.636 94.6911 642.703 94.7412C641.935 92.604 641.067 90.5336 640.115 88.5466C635.891 86.7099 631.215 85.6914 626.306 85.6914C607.088 85.6914 591.526 101.27 591.526 120.471C591.526 128.236 594.081 135.415 598.372 141.193C600.209 141.193 602.029 141.159 603.832 141.109C602.563 139.723 601.411 138.237 600.409 136.634ZM627.909 89.9826C631.282 90.1495 634.521 90.8842 637.51 92.0697C638.979 94.7078 640.165 97.3961 641.1 100.134L641.401 101.003L640.499 100.836C636.458 100.068 632.367 99.6669 628.427 99.5667H627.909V89.9826ZM627.909 102.739H628.46C633.269 102.856 637.744 103.34 642.035 104.359L642.352 104.442L642.419 104.759C643.421 109.034 643.905 113.509 644.022 118.334V118.885H627.909V102.756V102.739ZM624.703 138.187H624.152C619.327 138.07 614.852 137.569 610.594 136.567L610.277 136.501L610.21 136.183C609.209 131.909 608.708 127.434 608.607 122.609V122.058H624.72V138.187H624.703ZM611.529 100.134C612.465 97.3794 613.65 94.7078 615.119 92.053C618.108 90.8675 621.347 90.1495 624.72 89.9826V99.55H624.203C620.262 99.6669 616.171 100.068 612.147 100.836L611.246 101.003L611.546 100.134H611.529ZM610.277 104.426L610.594 104.342C614.886 103.34 619.36 102.839 624.152 102.739H624.703V118.852H608.574V118.301C608.691 113.509 609.192 109.017 610.194 104.743L610.277 104.426ZM610.127 94.5576C609.175 96.795 608.39 99.1326 607.756 101.52L607.672 101.821L607.372 101.904C604.984 102.555 602.647 103.34 600.409 104.275C602.864 100.351 606.203 97.012 610.127 94.5576ZM597.905 109.268C600.543 107.798 603.231 106.613 605.986 105.678L606.854 105.377L606.687 106.279C605.919 110.32 605.519 114.41 605.418 118.334V118.852H595.834C596.001 115.479 596.736 112.256 597.921 109.251L597.905 109.268ZM597.905 131.658C596.719 128.67 596.001 125.43 595.818 122.058H605.385V122.575L606.671 134.647L606.838 135.549L605.969 135.265C603.214 134.33 600.543 133.145 597.905 131.675V131.658Z" fill="url(#paint15_linear_44_12247)"/>
<path d="M644.64 135.8C644.99 135.716 645.324 135.649 645.675 135.566C646.627 130.74 647.128 125.681 647.128 120.472C647.128 113.826 646.293 107.431 644.773 101.454H644.64V135.8Z" fill="url(#paint16_linear_44_12247)"/>
<path d="M644.64 135.8C644.99 135.716 645.324 135.649 645.675 135.566C646.627 130.74 647.128 125.681 647.128 120.472C647.128 113.826 646.293 107.431 644.773 101.454H644.64V135.8Z" fill="url(#paint17_linear_44_12247)"/>
<path d="M651.435 136.952C652.22 135.849 652.938 134.681 653.556 133.479C652.404 133.812 651.252 134.113 650.1 134.43V137.469C650.55 137.302 650.985 137.135 651.435 136.952Z" fill="url(#paint18_linear_44_12247)"/>
<path d="M651.435 136.952C652.22 135.849 652.938 134.681 653.556 133.479C652.404 133.812 651.252 134.113 650.1 134.43V137.469C650.55 137.302 650.985 137.135 651.435 136.952Z" fill="url(#paint19_linear_44_12247)"/>
<path d="M644.94 139.089L645.24 139.005C646.509 138.671 647.745 138.27 648.981 137.853H645.174C645.073 138.287 644.973 138.705 644.873 139.139C644.89 139.139 644.923 139.139 644.94 139.139V139.105V139.089Z" fill="url(#paint20_linear_44_12247)"/>
<path d="M644.94 139.089L645.24 139.005C646.509 138.671 647.745 138.27 648.981 137.853H645.174C645.073 138.287 644.973 138.705 644.873 139.139C644.89 139.139 644.923 139.139 644.94 139.139V139.105V139.089Z" fill="url(#paint21_linear_44_12247)"/>
<path d="M645.775 135.532C645.775 135.532 645.708 135.532 645.675 135.549C645.524 136.317 645.357 137.085 645.174 137.853H648.981C649.348 137.72 649.732 137.603 650.099 137.452V134.414C648.697 134.781 647.278 135.148 645.858 135.499L645.792 135.532H645.775Z" fill="url(#paint22_linear_44_12247)"/>
<path d="M645.775 135.532C645.775 135.532 645.708 135.532 645.675 135.549C645.524 136.317 645.357 137.085 645.174 137.853H648.981C649.348 137.72 649.732 137.603 650.099 137.452V134.414C648.697 134.781 647.278 135.148 645.858 135.499L645.792 135.532H645.775Z" fill="url(#paint23_linear_44_12247)"/>
<path d="M645.775 135.532C645.775 135.532 645.708 135.532 645.675 135.549C645.524 136.317 645.357 137.085 645.174 137.853H648.981C649.348 137.72 649.732 137.603 650.099 137.452V134.414C648.697 134.781 647.278 135.148 645.858 135.499L645.792 135.532H645.775Z" fill="url(#paint24_linear_44_12247)"/>
<path d="M644.639 137.853V135.799C643.888 135.983 643.136 136.15 642.385 136.317L642.335 136.484L642.018 136.551C640.064 137.018 638.061 137.369 635.99 137.619C628.994 138.938 621.848 139.907 614.584 140.491C617.807 140.975 621.046 141.259 624.185 141.343H624.703V142.578C625.772 142.445 626.84 142.311 627.892 142.178V141.359H628.41C632 141.259 635.706 140.909 639.396 140.274C641.233 139.923 643.036 139.539 644.856 139.122C644.956 138.705 645.057 138.27 645.157 137.836H644.623L644.639 137.853Z" fill="url(#paint25_linear_44_12247)"/>
<path d="M644.639 137.853V135.799C643.888 135.983 643.136 136.15 642.385 136.317L642.335 136.484L642.018 136.551C640.064 137.018 638.061 137.369 635.99 137.619C628.994 138.938 621.848 139.907 614.584 140.491C617.807 140.975 621.046 141.259 624.185 141.343H624.703V142.578C625.772 142.445 626.84 142.311 627.892 142.178V141.359H628.41C632 141.259 635.706 140.909 639.396 140.274C641.233 139.923 643.036 139.539 644.856 139.122C644.956 138.705 645.057 138.27 645.157 137.836H644.623L644.639 137.853Z" fill="url(#paint26_linear_44_12247)"/>
<path d="M644.639 137.853V135.799C643.888 135.983 643.136 136.15 642.385 136.317L642.335 136.484L642.018 136.551C640.064 137.018 638.061 137.369 635.99 137.619C628.994 138.938 621.848 139.907 614.584 140.491C617.807 140.975 621.046 141.259 624.185 141.343H624.703V142.578C625.772 142.445 626.84 142.311 627.892 142.178V141.359H628.41C632 141.259 635.706 140.909 639.396 140.274C641.233 139.923 643.036 139.539 644.856 139.122C644.956 138.705 645.057 138.27 645.157 137.836H644.623L644.639 137.853Z" fill="url(#paint27_linear_44_12247)"/>
<path d="M645.174 137.853C645.358 137.085 645.525 136.334 645.675 135.549C645.324 135.632 644.99 135.699 644.64 135.783V137.836H645.174V137.853Z" fill="url(#paint28_linear_44_12247)"/>
<path d="M645.174 137.853C645.358 137.085 645.525 136.334 645.675 135.549C645.324 135.632 644.99 135.699 644.64 135.783V137.836H645.174V137.853Z" fill="url(#paint29_linear_44_12247)"/>
<path d="M645.174 137.853C645.358 137.085 645.525 136.334 645.675 135.549C645.324 135.632 644.99 135.699 644.64 135.783V137.836H645.174V137.853Z" fill="url(#paint30_linear_44_12247)"/>
<path d="M645.174 137.853C645.358 137.085 645.525 136.334 645.675 135.549C645.324 135.632 644.99 135.699 644.64 135.783V137.836H645.174V137.853Z" fill="url(#paint31_linear_44_12247)"/>
<path d="M658.532 131.993C657.797 132.226 657.063 132.443 656.311 132.677C655.309 134.013 654.09 135.583 652.705 137.202C653.974 136.868 655.243 136.518 656.495 136.15C656.578 135.967 656.662 135.8 656.745 135.616C657.213 134.681 657.847 133.245 658.515 131.993H658.532Z" fill="url(#paint32_linear_44_12247)"/>
<path d="M658.532 131.993C657.797 132.226 657.063 132.443 656.311 132.677C655.309 134.013 654.09 135.583 652.705 137.202C653.974 136.868 655.243 136.518 656.495 136.15C656.578 135.967 656.662 135.8 656.745 135.616C657.213 134.681 657.847 133.245 658.515 131.993H658.532Z" fill="url(#paint33_linear_44_12247)"/>
<path d="M611.496 140.742C610.394 140.809 609.292 140.875 608.19 140.925C608.491 141.927 608.808 142.896 609.159 143.864C610.311 143.814 611.446 143.764 612.598 143.68C612.198 142.712 611.83 141.744 611.513 140.775V140.725L611.496 140.742Z" fill="url(#paint34_linear_44_12247)"/>
<path d="M611.496 140.742C610.394 140.809 609.292 140.875 608.19 140.925C608.491 141.927 608.808 142.896 609.159 143.864C610.311 143.814 611.446 143.764 612.598 143.68C612.198 142.712 611.83 141.744 611.513 140.775V140.725L611.496 140.742Z" fill="url(#paint35_linear_44_12247)"/>
<path d="M611.496 140.742C610.394 140.809 609.292 140.875 608.19 140.925C608.491 141.927 608.808 142.896 609.159 143.864C610.311 143.814 611.446 143.764 612.598 143.68C612.198 142.712 611.83 141.744 611.513 140.775V140.725L611.496 140.742Z" fill="url(#paint36_linear_44_12247)"/>
<path d="M603.832 141.092C602.012 141.142 600.192 141.176 598.372 141.176C599.123 142.178 599.925 143.146 600.776 144.064C602.813 144.064 604.834 144.031 606.854 143.964C605.786 143.079 604.784 142.128 603.849 141.109L603.832 141.092Z" fill="url(#paint37_linear_44_12247)"/>
<path d="M603.832 141.092C602.012 141.142 600.192 141.176 598.372 141.176C599.123 142.178 599.925 143.146 600.776 144.064C602.813 144.064 604.834 144.031 606.854 143.964C605.786 143.079 604.784 142.128 603.849 141.109L603.832 141.092Z" fill="url(#paint38_linear_44_12247)"/>
<path d="M603.832 141.092C602.012 141.142 600.192 141.176 598.372 141.176C599.123 142.178 599.925 143.146 600.776 144.064C602.813 144.064 604.834 144.031 606.854 143.964C605.786 143.079 604.784 142.128 603.849 141.109L603.832 141.092Z" fill="url(#paint39_linear_44_12247)"/>
<path d="M600.175 59.3269C575.463 79.163 566.697 111.455 575.58 139.974C575.997 140.024 576.432 140.057 576.849 140.107C569.102 112.156 578.051 81.0498 602.112 61.7313C633.953 36.168 680.271 40.8933 706.352 72.05C706.034 71.6326 705.734 71.2319 705.417 70.8145C679.536 38.5724 632.417 33.4297 600.175 59.3102V59.3269Z" fill="url(#paint40_linear_44_12247)"/>
<path d="M588.67 164.552C588.987 164.952 589.338 165.336 589.672 165.737C584.229 158.658 580.238 150.91 577.667 142.845C577.266 142.795 576.882 142.745 576.498 142.712C579.236 150.426 583.277 157.823 588.687 164.568L588.67 164.552Z" fill="url(#paint41_linear_44_12247)"/>
<path d="M576.481 142.695C576.865 142.745 577.266 142.796 577.65 142.829C577.366 141.927 577.099 141.009 576.849 140.091C576.431 140.041 575.997 140.007 575.58 139.957C575.863 140.875 576.164 141.777 576.481 142.695Z" fill="url(#paint42_linear_44_12247)"/>
<path d="M576.481 142.695C576.865 142.745 577.266 142.796 577.65 142.829C577.366 141.927 577.099 141.009 576.849 140.091C576.431 140.041 575.997 140.007 575.58 139.957C575.863 140.875 576.164 141.777 576.481 142.695Z" fill="url(#paint43_linear_44_12247)"/>
<path d="M624.552 38.305C580.588 51.0616 555.292 97.0287 568.049 140.975C568.216 141.526 568.399 142.061 568.566 142.612C556.912 99.1659 582.091 54.184 625.503 41.5944C668.916 29.0048 714.248 53.5161 727.673 96.461C727.523 95.91 727.406 95.359 727.239 94.808C714.465 50.8445 668.498 25.5485 624.552 38.305Z" fill="url(#paint44_linear_44_12247)"/>
<path d="M550 165.086H554.508C554.759 165.086 554.976 165.086 555.209 165.103C558.198 165.27 559.651 166.455 559.918 168.676C560.085 169.911 559.751 171.013 559.033 171.915C558.248 172.867 557.113 173.401 555.727 173.451H552.054V179.629H550.017V165.086H550ZM554.274 172.032C554.441 172.032 554.592 172.015 554.742 172.015C556.395 171.948 557.146 171.514 557.647 170.412C557.848 170.028 557.931 169.527 557.864 168.893C557.731 167.373 556.879 166.589 554.809 166.455H552.02V172.032H554.258H554.274Z" fill="#231F20"/>
<path d="M565.728 169.31C568.116 169.728 569.702 171.698 569.702 174.536C569.702 177.375 568.099 179.345 565.728 179.763C562.239 180.38 559.601 178.143 559.601 174.536C559.601 170.93 562.222 168.676 565.728 169.31ZM561.588 175.071C561.855 177.826 563.391 179.045 565.461 178.544C566.73 178.227 567.515 177.175 567.699 175.071C567.732 174.72 567.732 174.386 567.699 174.036C567.515 171.915 566.73 170.88 565.461 170.563C563.374 170.045 561.838 171.264 561.588 174.036C561.571 174.203 561.571 174.386 561.571 174.536C561.571 174.72 561.571 174.887 561.588 175.054V175.071Z" fill="#231F20"/>
<path d="M572.19 169.494L574.728 177.592L577.233 169.494H579.554L582.075 177.592L584.663 169.494H586.333L583.127 179.629H581.007L578.335 171.13L575.714 179.629H573.51L570.304 169.494H572.174H572.19Z" fill="#231F20"/>
<path d="M588.738 174.804C588.721 175.004 588.721 175.221 588.738 175.455C588.905 177.692 589.973 178.727 591.543 178.744C592.812 178.778 593.647 178.16 594.014 176.807C594.047 176.724 594.081 176.624 594.081 176.523H595.801C595.801 176.724 595.767 176.941 595.7 177.158C595.283 178.811 593.864 179.863 591.56 179.913C588.788 179.98 587.218 178.46 586.918 175.388C586.567 171.815 588.187 169.694 590.675 169.344C594.031 168.876 595.884 170.496 596.051 174.186C596.051 174.386 596.051 174.587 596.034 174.804H588.754H588.738ZM594.148 173.768C594.164 173.668 594.164 173.551 594.164 173.451C594.097 171.364 593.062 170.362 591.443 170.412C590.073 170.446 589.072 171.347 588.804 173.234C588.771 173.401 588.771 173.568 588.771 173.752H594.164L594.148 173.768Z" fill="#231F20"/>
<path d="M597.971 169.494H599.791V170.93C599.858 170.83 599.908 170.73 599.975 170.646C600.576 169.778 601.327 169.36 602.446 169.31C602.747 169.294 603.064 169.327 603.381 169.394V170.997H603.197L602.947 170.963C600.676 170.847 599.791 171.731 599.791 173.835V179.663H597.971V169.527V169.494Z" fill="#231F20"/>
<path d="M612.914 170.93L612.697 170.646C612.18 169.945 611.863 169.394 611.712 168.91C611.028 166.789 612.363 164.869 614.684 164.902C614.935 164.902 615.169 164.919 615.419 164.986C617.323 165.403 618.224 167.691 617.055 169.511C616.688 170.078 616.104 170.613 615.319 171.064C615.118 171.164 614.901 171.264 614.701 171.364L618.575 175.939C618.925 175.004 619.092 174.036 619.126 173.05H620.245C620.211 173.635 620.128 174.236 619.977 174.82C619.794 175.488 619.56 176.139 619.243 176.741L621.747 179.629H620.328L618.675 177.592C618.558 177.759 618.458 177.893 618.324 178.043C617.573 178.928 616.571 179.546 615.452 179.779C613.081 180.297 610.911 179.278 609.992 177.475C609.692 176.857 609.525 176.19 609.542 175.488C609.575 173.919 610.477 172.483 612.313 171.431C612.564 171.297 612.798 171.197 613.048 171.08L612.931 170.913L612.914 170.93ZM612.263 172.683C612.046 172.883 611.812 173.101 611.612 173.334C610.009 175.221 610.777 177.926 613.081 178.661C614.684 179.178 616.337 178.727 617.59 177.375C617.723 177.208 617.857 177.058 617.974 176.891L613.666 171.815C613.182 172.015 612.714 172.299 612.247 172.683H612.263ZM614.651 170.346C615.803 169.678 616.271 169.026 616.387 168.192C616.571 166.822 615.536 165.821 614.267 166.054C612.748 166.305 612.163 167.757 613.198 169.461C613.315 169.628 613.415 169.778 613.549 169.945C613.749 170.229 613.916 170.446 614.1 170.629C614.3 170.546 614.484 170.462 614.668 170.346H614.651Z" fill="#231F20"/>
<path d="M628.626 165.086H637.593V166.539H630.664V171.381H637.209V172.85H630.664V178.16H637.81V179.612H628.626V165.069V165.086Z" fill="#231F20"/>
<path d="M639.713 169.494H641.533V171.347C641.6 171.23 641.65 171.096 641.717 170.98C642.368 169.861 643.186 169.327 644.438 169.21C646.843 168.993 648.212 170.195 648.312 172.332V172.783L648.329 173.083V179.629H646.509V172.733C646.425 171.881 646.275 171.497 645.908 171.113C645.373 170.545 644.538 170.312 643.62 170.545C642.284 170.863 641.516 171.998 641.516 174.419V179.612H639.696V169.477L639.713 169.494Z" fill="#231F20"/>
<path d="M652.186 174.804C652.169 175.004 652.169 175.221 652.186 175.455C652.353 177.692 653.422 178.727 654.991 178.744C656.26 178.778 657.095 178.16 657.462 176.807C657.496 176.724 657.529 176.624 657.529 176.523H659.249C659.249 176.724 659.215 176.941 659.149 177.158C658.731 178.811 657.312 179.863 655.008 179.913C652.236 179.98 650.667 178.46 650.366 175.388C650.015 171.815 651.635 169.694 654.123 169.344C657.479 168.876 659.332 170.496 659.499 174.186C659.499 174.386 659.499 174.587 659.483 174.804H652.203H652.186ZM657.596 173.768C657.613 173.668 657.612 173.551 657.612 173.451C657.546 171.364 656.51 170.362 654.891 170.412C653.522 170.446 652.52 171.347 652.253 173.234C652.219 173.401 652.219 173.568 652.219 173.752H657.612L657.596 173.768Z" fill="#231F20"/>
<path d="M661.419 169.494H663.239V170.93C663.306 170.83 663.356 170.73 663.423 170.646C664.024 169.778 664.776 169.36 665.894 169.31C666.195 169.294 666.512 169.327 666.829 169.394V170.997H666.646L666.395 170.963C664.124 170.847 663.239 171.731 663.239 173.835V179.663H661.419V169.527V169.494Z" fill="#231F20"/>
<path d="M674.376 169.494H676.213V179.579C676.213 182.384 674.31 184.171 670.987 183.987C668.582 183.854 667.33 182.802 667.163 181.216C667.163 181.065 667.146 180.948 667.163 180.815H669C669 180.815 669 180.948 669.017 181.015C669.117 181.967 669.785 182.585 671.17 182.685C673.091 182.818 674.226 181.817 674.343 179.997C674.36 179.88 674.36 179.763 674.36 179.646V177.425L674.259 177.609L674.059 177.893C673.024 179.462 671.271 180.047 669.367 179.279C667.915 178.678 667.03 177.425 666.746 175.338C666.679 174.737 666.679 174.103 666.779 173.485C667.163 171.097 668.633 169.611 670.252 169.361C672.272 169.043 673.708 169.728 674.36 170.93V169.477L674.376 169.494ZM672.339 178.243C673.074 178.026 673.675 177.392 674.143 176.223C674.276 175.839 674.36 175.438 674.426 174.971C674.744 171.681 673.074 170.162 671.02 170.63C669.851 170.913 668.966 171.982 668.749 173.819C668.716 174.002 668.716 174.203 668.683 174.403C668.599 177.492 670.386 178.861 672.339 178.243Z" fill="#231F20"/>
<path d="M679.135 169.494L682.124 177.592L685.096 169.494H686.749L681.573 183.553H679.786L681.156 179.796L677.182 169.494H679.119H679.135Z" fill="#231F20"/>
<path d="M694.463 175.588C694.28 177.308 695.732 178.694 698.22 178.477C698.621 178.46 698.972 178.36 699.289 178.21C700.458 177.709 700.942 176.907 700.925 175.889C700.892 174.804 700.458 174.269 699.189 173.752L698.137 173.401L696.868 172.934C696.667 172.867 696.467 172.8 696.267 172.716C693.161 171.498 692.226 170.062 692.977 167.607C693.462 165.971 695.098 164.835 697.753 164.835C700.942 164.802 702.762 166.455 702.845 168.609H700.792C700.775 167.323 699.673 166.305 697.736 166.305C696.166 166.305 695.298 166.889 694.914 168.025C694.447 169.477 695.165 170.546 697.636 171.397L699.022 171.865L699.723 172.115L700.274 172.316C702.545 173.151 703.396 174.737 702.879 176.874C702.428 178.644 701.025 179.696 698.387 179.863C697.853 179.896 697.335 179.88 696.818 179.846C694.113 179.596 692.81 178.544 692.476 176.49C692.443 176.189 692.41 175.889 692.443 175.588H694.48H694.463Z" fill="#231F20"/>
<path d="M710.326 169.31C712.713 169.728 714.299 171.698 714.299 174.536C714.299 177.375 712.697 179.345 710.326 179.763C706.836 180.38 704.198 178.143 704.198 174.536C704.198 170.93 706.819 168.676 710.326 169.31ZM706.185 175.071C706.452 177.826 707.988 179.045 710.058 178.544C711.327 178.227 712.112 177.175 712.296 175.071C712.329 174.72 712.329 174.386 712.296 174.036C712.112 171.915 711.327 170.88 710.058 170.563C707.971 170.045 706.435 171.264 706.185 174.036C706.168 174.203 706.168 174.386 706.168 174.536C706.168 174.72 706.168 174.887 706.185 175.054V175.071Z" fill="#231F20"/>
<path d="M722.832 172.783C722.815 172.667 722.798 172.516 722.765 172.366C722.732 172.182 722.665 171.999 722.598 171.848C722.014 170.479 720.077 170.012 718.658 171.197C718.006 171.748 717.589 172.616 717.489 174.052C717.455 174.503 717.472 174.954 717.522 175.405C717.789 177.509 718.641 178.41 720.177 178.511C721.663 178.611 722.581 177.909 722.798 176.49C722.815 176.39 722.815 176.29 722.832 176.206H724.552C724.552 176.423 724.535 176.657 724.468 176.858C724.084 178.811 722.531 180.013 720.077 179.913C717.222 179.813 715.585 178.043 715.535 174.72C715.502 171.531 717.088 169.544 719.426 169.26C722.331 168.876 724.101 170.112 724.502 172.299C724.518 172.466 724.535 172.65 724.568 172.8H722.815L722.832 172.783Z" fill="#231F20"/>
<path d="M726.271 165.086H728.091V167.24H726.271V165.086ZM726.271 169.494H728.091V179.629H726.271V169.494Z" fill="#231F20"/>
<path d="M731.931 174.804C731.914 175.004 731.914 175.221 731.931 175.455C732.098 177.692 733.167 178.727 734.736 178.744C736.005 178.778 736.84 178.16 737.207 176.807C737.241 176.724 737.274 176.624 737.274 176.523H738.994C738.994 176.724 738.961 176.941 738.894 177.158C738.476 178.811 737.057 179.863 734.753 179.913C731.981 179.98 730.412 178.46 730.111 175.388C729.76 171.815 731.38 169.694 733.868 169.344C737.224 168.876 739.077 170.496 739.244 174.186C739.244 174.386 739.244 174.587 739.228 174.804H731.948H731.931ZM737.341 173.768C737.358 173.668 737.358 173.551 737.358 173.451C737.291 171.364 736.256 170.362 734.636 170.412C733.267 170.446 732.265 171.347 731.998 173.234C731.964 173.401 731.964 173.568 731.964 173.752H737.358L737.341 173.768Z" fill="#231F20"/>
<path d="M739.479 169.494H741.316V167.44L743.136 166.706V169.494H745.423V170.73H743.136V176.958C743.253 178.193 743.52 178.427 744.872 178.41C745.073 178.41 745.273 178.394 745.523 178.327V179.679C745.106 179.779 744.739 179.813 744.355 179.846C742.1 179.913 741.332 179.162 741.332 176.841V170.746H739.496V169.511L739.479 169.494Z" fill="#231F20"/>
<path d="M746.725 169.494L749.714 177.592L752.686 169.494H754.339L749.163 183.553H747.376L748.745 179.796L744.771 169.494H746.708H746.725Z" fill="#231F20"/>
<path d="M610.426 163.082C610.727 163.199 611.028 163.3 611.328 163.4C588.086 153.866 576.632 127.468 585.715 103.941C594.815 80.3985 621.046 68.5603 644.639 77.1259C644.338 77.009 644.054 76.8754 643.754 76.7585C619.91 67.5585 593.128 79.4134 583.928 103.257C574.728 127.084 586.583 153.882 610.41 163.082H610.426Z" fill="#231F20"/>
<path d="M649.18 104.409H665.726L667.663 104.509C675.478 104.809 679.034 107.965 679.585 114.711C680.236 122.124 675.678 127.401 668.164 127.751L667.096 127.801H660.45V140.942H649.18V104.409ZM663.189 120.805H664.207L664.925 120.755C666.695 120.705 667.914 119.887 668.732 118.217C669.083 117.516 669.3 116.598 669.199 115.329C668.949 112.39 667.43 110.954 664.023 110.82H660.317V120.822H663.205L663.189 120.805Z" fill="#231F20"/>
<path d="M682.124 104.409H708.405V111.672H693.228V118.618H707.687V126.132H693.228V133.695H708.706V140.959H682.107V104.425L682.124 104.409Z" fill="#231F20"/>
<path d="M721.461 128.72C721.361 129.171 721.361 129.638 721.411 130.089C721.612 133.445 723.849 135.315 727.405 134.964C728.023 134.914 728.524 134.764 728.992 134.564C730.711 133.695 731.53 132.426 731.48 130.657C731.379 128.72 730.311 127.351 728.123 126.649L727.773 126.549L725.853 125.998L722.864 125.197C722.513 125.096 722.163 124.996 721.795 124.846C712.712 121.907 710.074 118.551 711.643 112.006C712.912 106.629 717.738 103.323 726.821 103.424C727.639 103.424 728.491 103.474 729.309 103.524C735.704 104.075 739.01 105.962 740.88 109.368C741.798 111.037 742.199 112.924 742.099 114.844H731.496V114.076C731.446 113.459 731.246 112.857 730.995 112.306C730.027 110.537 728.357 109.718 725.819 109.969C725.268 110.019 724.751 110.169 724.3 110.37C722.463 111.338 721.712 112.958 722.112 114.895C722.53 116.564 723.699 117.533 727.038 118.501L730.394 119.47L734.401 120.588C740.796 122.408 743.685 126.933 742.266 133.078C741.047 138.354 737.14 141.092 728.775 141.543C727.105 141.593 725.569 141.593 724.049 141.443C717.203 140.875 713.597 138.604 711.71 134.597C710.842 132.777 710.541 130.79 710.742 128.753H721.495L721.461 128.72Z" fill="#231F20"/>
<path d="M649.332 83.2036H652.738V100.903H649.332V83.2036Z" fill="#231F20"/>
<path d="M655.059 83.2036H666.98V85.8918H659.083V90.4668H666.58V93.2219H659.083V98.231H667.164V100.903H655.042V83.2036H655.059Z" fill="#231F20"/>
<path d="M669.151 83.2036H681.073V85.8918H673.175V90.4668H680.672V93.2219H673.175V98.231H681.256V100.903H669.134V83.2036H669.151Z" fill="#231F20"/>
<path d="M683.244 83.2036H695.165V85.8918H687.268V90.4668H694.765V93.2219H687.268V98.231H695.366V100.903H683.244V83.2036Z" fill="#231F20"/>
<path d="M606.002 154.433C588.053 143.496 582.209 120.221 592.745 102.121C592.611 102.338 592.461 102.555 592.311 102.789C581.224 120.972 586.984 144.699 605.168 155.786C623.351 166.872 647.094 161.112 658.164 142.929C658.298 142.695 658.431 142.461 658.565 142.227C647.311 159.876 623.952 165.37 606.002 154.416V154.433Z" fill="#231F20"/>
<path d="M764.04 169.01C764.04 170.98 762.454 172.55 760.433 172.55C758.413 172.55 756.793 170.98 756.793 169.01C756.793 167.04 758.413 165.487 760.45 165.487C762.487 165.487 764.04 167.04 764.04 169.01ZM757.695 169.01C757.695 170.579 758.881 171.832 760.45 171.832C761.97 171.848 763.138 170.579 763.138 169.043C763.138 167.507 761.97 166.205 760.4 166.205C758.831 166.205 757.695 167.474 757.695 169.027V169.01ZM759.866 170.83H759.048V167.307C759.365 167.257 759.816 167.207 760.4 167.207C761.068 167.207 761.368 167.307 761.602 167.49C761.819 167.641 761.97 167.908 761.97 168.242C761.97 168.676 761.652 168.943 761.235 169.077V169.127C761.586 169.227 761.752 169.511 761.853 169.978C761.953 170.513 762.053 170.713 762.103 170.847H761.252C761.151 170.713 761.085 170.412 760.968 169.978C760.901 169.611 760.684 169.444 760.233 169.444H759.849V170.847L759.866 170.83ZM759.882 168.86H760.266C760.717 168.86 761.085 168.709 761.085 168.342C761.085 168.025 760.851 167.808 760.333 167.808C760.116 167.808 759.966 167.824 759.882 167.858V168.86Z" fill="#231F20"/>
</g>
<defs>
<linearGradient id="paint0_linear_44_12247" x1="684.061" y1="96.7616" x2="579.421" y2="96.7616" gradientUnits="userSpaceOnUse">
<stop stop-color="#C2D72E"/>
<stop offset="0.16" stop-color="#97C93C"/>
<stop offset="1" stop-color="#23582C"/>
</linearGradient>
<linearGradient id="paint1_linear_44_12247" x1="684.061" y1="144.148" x2="579.421" y2="144.148" gradientUnits="userSpaceOnUse">
<stop stop-color="#C2D72E"/>
<stop offset="0.16" stop-color="#97C93C"/>
<stop offset="1" stop-color="#23582C"/>
</linearGradient>
<linearGradient id="paint2_linear_44_12247" x1="684.061" y1="136.968" x2="579.42" y2="136.968" gradientUnits="userSpaceOnUse">
<stop stop-color="#C2D72E"/>
<stop offset="0.16" stop-color="#97C93C"/>
<stop offset="1" stop-color="#23582C"/>
</linearGradient>
<linearGradient id="paint3_linear_44_12247" x1="684.061" y1="136.968" x2="579.42" y2="136.968" gradientUnits="userSpaceOnUse">
<stop stop-color="#C2D72E"/>
<stop offset="0.16" stop-color="#97C93C"/>
<stop offset="1" stop-color="#23582C"/>
</linearGradient>
<linearGradient id="paint4_linear_44_12247" x1="683.481" y1="135.532" x2="580.43" y2="135.532" gradientUnits="userSpaceOnUse">
<stop stop-color="#C2D72E"/>
<stop offset="0.16" stop-color="#97C93C"/>
<stop offset="1" stop-color="#23582C"/>
</linearGradient>
<linearGradient id="paint5_linear_44_12247" x1="683.481" y1="135.532" x2="580.43" y2="135.532" gradientUnits="userSpaceOnUse">
<stop stop-color="#C2D72E"/>
<stop offset="0.16" stop-color="#97C93C"/>
<stop offset="1" stop-color="#23582C"/>
</linearGradient>
<linearGradient id="paint6_linear_44_12247" x1="684.062" y1="135.9" x2="579.421" y2="135.9" gradientUnits="userSpaceOnUse">
<stop stop-color="#C2D72E"/>
<stop offset="0.16" stop-color="#97C93C"/>
<stop offset="1" stop-color="#23582C"/>
</linearGradient>
<linearGradient id="paint7_linear_44_12247" x1="684.061" y1="137.653" x2="579.421" y2="137.653" gradientUnits="userSpaceOnUse">
<stop stop-color="#C2D72E"/>
<stop offset="0.16" stop-color="#97C93C"/>
<stop offset="1" stop-color="#23582C"/>
</linearGradient>
<linearGradient id="paint8_linear_44_12247" x1="684.061" y1="137.653" x2="579.421" y2="137.653" gradientUnits="userSpaceOnUse">
<stop stop-color="#C2D72E"/>
<stop offset="0.16" stop-color="#97C93C"/>
<stop offset="1" stop-color="#23582C"/>
</linearGradient>
<linearGradient id="paint9_linear_44_12247" x1="684.061" y1="144.231" x2="579.421" y2="144.231" gradientUnits="userSpaceOnUse">
<stop stop-color="#C2D72E"/>
<stop offset="0.16" stop-color="#97C93C"/>
<stop offset="1" stop-color="#23582C"/>
</linearGradient>
<linearGradient id="paint10_linear_44_12247" x1="684.061" y1="140.391" x2="579.422" y2="140.391" gradientUnits="userSpaceOnUse">
<stop stop-color="#C2D72E"/>
<stop offset="0.16" stop-color="#97C93C"/>
<stop offset="1" stop-color="#23582C"/>
</linearGradient>
<linearGradient id="paint11_linear_44_12247" x1="684.061" y1="147.187" x2="579.421" y2="147.187" gradientUnits="userSpaceOnUse">
<stop stop-color="#C2D72E"/>
<stop offset="0.16" stop-color="#97C93C"/>
<stop offset="1" stop-color="#23582C"/>
</linearGradient>
<linearGradient id="paint12_linear_44_12247" x1="684.061" y1="147.187" x2="579.421" y2="147.187" gradientUnits="userSpaceOnUse">
<stop stop-color="#C2D72E"/>
<stop offset="0.16" stop-color="#97C93C"/>
<stop offset="1" stop-color="#23582C"/>
</linearGradient>
<linearGradient id="paint13_linear_44_12247" x1="684.061" y1="128.603" x2="579.42" y2="128.603" gradientUnits="userSpaceOnUse">
<stop stop-color="#C2D72E"/>
<stop offset="0.16" stop-color="#97C93C"/>
<stop offset="1" stop-color="#23582C"/>
</linearGradient>
<linearGradient id="paint14_linear_44_12247" x1="684.061" y1="128.603" x2="579.42" y2="128.603" gradientUnits="userSpaceOnUse">
<stop stop-color="#C2D72E"/>
<stop offset="0.16" stop-color="#97C93C"/>
<stop offset="1" stop-color="#23582C"/>
</linearGradient>
<linearGradient id="paint15_linear_44_12247" x1="684.062" y1="113.425" x2="579.421" y2="113.425" gradientUnits="userSpaceOnUse">
<stop stop-color="#C2D72E"/>
<stop offset="0.16" stop-color="#97C93C"/>
<stop offset="1" stop-color="#23582C"/>
</linearGradient>
<linearGradient id="paint16_linear_44_12247" x1="684.062" y1="118.618" x2="579.421" y2="118.618" gradientUnits="userSpaceOnUse">
<stop stop-color="#C2D72E"/>
<stop offset="0.16" stop-color="#97C93C"/>
<stop offset="1" stop-color="#23582C"/>
</linearGradient>
<linearGradient id="paint17_linear_44_12247" x1="684.062" y1="118.618" x2="579.421" y2="118.618" gradientUnits="userSpaceOnUse">
<stop stop-color="#C2D72E"/>
<stop offset="0.16" stop-color="#97C93C"/>
<stop offset="1" stop-color="#23582C"/>
</linearGradient>
<linearGradient id="paint18_linear_44_12247" x1="684.045" y1="135.465" x2="579.438" y2="135.465" gradientUnits="userSpaceOnUse">
<stop stop-color="#C2D72E"/>
<stop offset="0.16" stop-color="#97C93C"/>
<stop offset="1" stop-color="#23582C"/>
</linearGradient>
<linearGradient id="paint19_linear_44_12247" x1="684.045" y1="135.465" x2="579.438" y2="135.465" gradientUnits="userSpaceOnUse">
<stop stop-color="#C2D72E"/>
<stop offset="0.16" stop-color="#97C93C"/>
<stop offset="1" stop-color="#23582C"/>
</linearGradient>
<linearGradient id="paint20_linear_44_12247" x1="684.061" y1="138.504" x2="579.421" y2="138.504" gradientUnits="userSpaceOnUse">
<stop stop-color="#C2D72E"/>
<stop offset="0.16" stop-color="#97C93C"/>
<stop offset="1" stop-color="#23582C"/>
</linearGradient>
<linearGradient id="paint21_linear_44_12247" x1="684.061" y1="138.504" x2="579.421" y2="138.504" gradientUnits="userSpaceOnUse">
<stop stop-color="#C2D72E"/>
<stop offset="0.16" stop-color="#97C93C"/>
<stop offset="1" stop-color="#23582C"/>
</linearGradient>
<linearGradient id="paint22_linear_44_12247" x1="684.061" y1="136.15" x2="579.421" y2="136.15" gradientUnits="userSpaceOnUse">
<stop stop-color="#C2D72E"/>
<stop offset="0.16" stop-color="#97C93C"/>
<stop offset="1" stop-color="#23582C"/>
</linearGradient>
<linearGradient id="paint23_linear_44_12247" x1="684.061" y1="136.15" x2="579.421" y2="136.15" gradientUnits="userSpaceOnUse">
<stop stop-color="#C2D72E"/>
<stop offset="0.16" stop-color="#97C93C"/>
<stop offset="1" stop-color="#23582C"/>
</linearGradient>
<linearGradient id="paint24_linear_44_12247" x1="684.061" y1="136.15" x2="579.421" y2="136.15" gradientUnits="userSpaceOnUse">
<stop stop-color="#C2D72E"/>
<stop offset="0.16" stop-color="#97C93C"/>
<stop offset="1" stop-color="#23582C"/>
</linearGradient>
<linearGradient id="paint25_linear_44_12247" x1="684.061" y1="139.206" x2="579.42" y2="139.206" gradientUnits="userSpaceOnUse">
<stop stop-color="#C2D72E"/>
<stop offset="0.16" stop-color="#97C93C"/>
<stop offset="1" stop-color="#23582C"/>
</linearGradient>
<linearGradient id="paint26_linear_44_12247" x1="684.061" y1="139.206" x2="579.42" y2="139.206" gradientUnits="userSpaceOnUse">
<stop stop-color="#C2D72E"/>
<stop offset="0.16" stop-color="#97C93C"/>
<stop offset="1" stop-color="#23582C"/>
</linearGradient>
<linearGradient id="paint27_linear_44_12247" x1="684.061" y1="139.206" x2="579.42" y2="139.206" gradientUnits="userSpaceOnUse">
<stop stop-color="#C2D72E"/>
<stop offset="0.16" stop-color="#97C93C"/>
<stop offset="1" stop-color="#23582C"/>
</linearGradient>
<linearGradient id="paint28_linear_44_12247" x1="684.061" y1="136.701" x2="579.421" y2="136.701" gradientUnits="userSpaceOnUse">
<stop stop-color="#C2D72E"/>
<stop offset="0.16" stop-color="#97C93C"/>
<stop offset="1" stop-color="#23582C"/>
</linearGradient>
<linearGradient id="paint29_linear_44_12247" x1="684.061" y1="136.701" x2="579.421" y2="136.701" gradientUnits="userSpaceOnUse">
<stop stop-color="#C2D72E"/>
<stop offset="0.16" stop-color="#97C93C"/>
<stop offset="1" stop-color="#23582C"/>
</linearGradient>
<linearGradient id="paint30_linear_44_12247" x1="684.061" y1="136.701" x2="579.421" y2="136.701" gradientUnits="userSpaceOnUse">
<stop stop-color="#C2D72E"/>
<stop offset="0.16" stop-color="#97C93C"/>
<stop offset="1" stop-color="#23582C"/>
</linearGradient>
<linearGradient id="paint31_linear_44_12247" x1="684.061" y1="136.701" x2="579.421" y2="136.701" gradientUnits="userSpaceOnUse">
<stop stop-color="#C2D72E"/>
<stop offset="0.16" stop-color="#97C93C"/>
<stop offset="1" stop-color="#23582C"/>
</linearGradient>
<linearGradient id="paint32_linear_44_12247" x1="684.045" y1="134.597" x2="579.438" y2="134.597" gradientUnits="userSpaceOnUse">
<stop stop-color="#C2D72E"/>
<stop offset="0.16" stop-color="#97C93C"/>
<stop offset="1" stop-color="#23582C"/>
</linearGradient>
<linearGradient id="paint33_linear_44_12247" x1="684.045" y1="134.597" x2="579.438" y2="134.597" gradientUnits="userSpaceOnUse">
<stop stop-color="#C2D72E"/>
<stop offset="0.16" stop-color="#97C93C"/>
<stop offset="1" stop-color="#23582C"/>
</linearGradient>
<linearGradient id="paint34_linear_44_12247" x1="684.062" y1="142.311" x2="579.421" y2="142.311" gradientUnits="userSpaceOnUse">
<stop stop-color="#C2D72E"/>
<stop offset="0.16" stop-color="#97C93C"/>
<stop offset="1" stop-color="#23582C"/>
</linearGradient>
<linearGradient id="paint35_linear_44_12247" x1="684.062" y1="142.311" x2="579.421" y2="142.311" gradientUnits="userSpaceOnUse">
<stop stop-color="#C2D72E"/>
<stop offset="0.16" stop-color="#97C93C"/>
<stop offset="1" stop-color="#23582C"/>
</linearGradient>
<linearGradient id="paint36_linear_44_12247" x1="684.062" y1="142.311" x2="579.421" y2="142.311" gradientUnits="userSpaceOnUse">
<stop stop-color="#C2D72E"/>
<stop offset="0.16" stop-color="#97C93C"/>
<stop offset="1" stop-color="#23582C"/>
</linearGradient>
<linearGradient id="paint37_linear_44_12247" x1="684.061" y1="142.578" x2="579.421" y2="142.578" gradientUnits="userSpaceOnUse">
<stop stop-color="#C2D72E"/>
<stop offset="0.16" stop-color="#97C93C"/>
<stop offset="1" stop-color="#23582C"/>
</linearGradient>
<linearGradient id="paint38_linear_44_12247" x1="684.061" y1="142.578" x2="579.421" y2="142.578" gradientUnits="userSpaceOnUse">
<stop stop-color="#C2D72E"/>
<stop offset="0.16" stop-color="#97C93C"/>
<stop offset="1" stop-color="#23582C"/>
</linearGradient>
<linearGradient id="paint39_linear_44_12247" x1="684.061" y1="142.578" x2="579.421" y2="142.578" gradientUnits="userSpaceOnUse">
<stop stop-color="#C2D72E"/>
<stop offset="0.16" stop-color="#97C93C"/>
<stop offset="1" stop-color="#23582C"/>
</linearGradient>
<linearGradient id="paint40_linear_44_12247" x1="684.061" y1="91.4688" x2="579.42" y2="91.4688" gradientUnits="userSpaceOnUse">
<stop stop-color="#C2D72E"/>
<stop offset="0.16" stop-color="#97C93C"/>
<stop offset="1" stop-color="#23582C"/>
</linearGradient>
<linearGradient id="paint41_linear_44_12247" x1="684.061" y1="154.216" x2="579.42" y2="154.216" gradientUnits="userSpaceOnUse">
<stop stop-color="#C2D72E"/>
<stop offset="0.16" stop-color="#97C93C"/>
<stop offset="1" stop-color="#23582C"/>
</linearGradient>
<linearGradient id="paint42_linear_44_12247" x1="684.061" y1="141.41" x2="579.42" y2="141.41" gradientUnits="userSpaceOnUse">
<stop stop-color="#00A1DF"/>
<stop offset="1" stop-color="#808184"/>
</linearGradient>
<linearGradient id="paint43_linear_44_12247" x1="684.061" y1="141.41" x2="579.42" y2="141.41" gradientUnits="userSpaceOnUse">
<stop stop-color="#C2D72E"/>
<stop offset="0.16" stop-color="#97C93C"/>
<stop offset="1" stop-color="#23582C"/>
</linearGradient>
<linearGradient id="paint44_linear_44_12247" x1="684.06" y1="88.797" x2="579.419" y2="88.797" gradientUnits="userSpaceOnUse">
<stop stop-color="#C2D72E"/>
<stop offset="0.16" stop-color="#97C93C"/>
<stop offset="1" stop-color="#23582C"/>
</linearGradient>
<clipPath id="clip0_44_12247">
<rect width="841" height="280" fill="white"/>
</clipPath>
</defs>
</svg>
