<svg width="441" height="351" viewBox="0 0 441 351" fill="none" xmlns="http://www.w3.org/2000/svg">
<path d="M200.784 116.422C200.149 114.218 199.439 112.088 198.693 109.959C198.581 109.884 198.468 109.81 198.356 109.735C199.29 111.902 200.074 114.143 200.821 116.422H200.784Z" fill="white"/>
<path d="M198.169 189.085C198.169 189.085 198.43 188.936 198.542 188.861C199.401 186.47 200.223 184.042 200.932 181.539C200.111 184.116 199.215 186.619 198.169 189.085Z" fill="white"/>
<path d="M198.132 173.618L198.207 173.357C194.996 174.067 191.747 174.739 188.498 175.374C191.635 174.963 194.697 174.44 197.684 173.731L198.17 173.618H198.132Z" fill="white"/>
<path d="M198.132 173.618L198.207 173.357C194.996 174.067 191.747 174.739 188.498 175.374C191.635 174.963 194.697 174.44 197.684 173.731L198.17 173.618H198.132Z" fill="white"/>
<path d="M209.932 175.113V175.711H208.214C206.347 176.346 204.443 176.943 202.501 177.466L202.053 177.579C206.048 176.719 210.007 175.748 213.89 174.702C215.981 172.236 217.849 169.808 219.38 167.791C217.998 168.201 216.579 168.612 215.16 169.023C214.189 170.854 213.143 172.61 211.911 174.328C211.239 174.59 210.567 174.851 209.895 175.113H209.932Z" fill="white"/>
<path d="M209.933 175.113C209.372 175.337 208.812 175.524 208.215 175.711H209.933V175.113Z" fill="white"/>
<path d="M209.933 175.113C209.372 175.337 208.812 175.524 208.215 175.711H209.933V175.113Z" fill="white"/>
<path d="M198.543 188.823C197.423 191.887 196.19 194.838 194.809 197.715C205.75 192.783 214.488 184.041 219.679 173.095C217.774 173.656 215.832 174.179 213.928 174.702C209.522 179.895 204.07 185.461 198.543 188.823Z" fill="white"/>
<path d="M202.091 177.653C202.091 177.653 202.016 177.653 201.979 177.653C201.643 178.961 201.306 180.231 200.933 181.501C201.306 180.343 201.643 179.185 201.979 178.027L202.091 177.616V177.653Z" fill="white"/>
<path d="M198.169 189.085C199.215 186.657 200.149 184.116 200.933 181.538C201.306 180.268 201.642 178.961 201.978 177.69C199.215 178.326 196.452 178.886 193.688 179.446C194.248 179.334 194.771 179.26 195.331 179.147L196.713 178.886L196.265 180.193C194.846 184.415 193.016 188.525 190.738 192.634C186.145 194.352 181.253 195.399 176.175 195.66V182.323C174.569 182.547 172.926 182.734 171.32 182.921V195.623C166.167 195.361 161.238 194.24 156.682 192.447C155.226 189.832 153.993 187.217 152.91 184.564C151.155 184.677 149.438 184.751 147.682 184.826C148.131 186.096 148.616 187.366 149.139 188.599C147.384 187.516 145.703 186.283 144.135 184.975C141.073 185.087 137.973 185.125 134.874 185.125C144.546 195.585 158.4 202.161 173.785 202.161C181.403 202.161 188.535 200.554 194.883 197.677C196.265 194.801 197.497 191.849 198.618 188.786C198.506 188.861 198.356 188.935 198.244 189.01L198.169 189.085Z" fill="white"/>
<path d="M198.169 189.085C199.215 186.657 200.149 184.116 200.933 181.538C201.306 180.268 201.642 178.961 201.978 177.69C199.215 178.326 196.452 178.886 193.688 179.446C194.248 179.334 194.771 179.26 195.331 179.147L196.713 178.886L196.265 180.193C194.846 184.415 193.016 188.525 190.738 192.634C186.145 194.352 181.253 195.399 176.175 195.66V182.323C174.569 182.547 172.926 182.734 171.32 182.921V195.623C166.167 195.361 161.238 194.24 156.682 192.447C155.226 189.832 153.993 187.217 152.91 184.564C151.155 184.677 149.438 184.751 147.682 184.826C148.131 186.096 148.616 187.366 149.139 188.599C147.384 187.516 145.703 186.283 144.135 184.975C141.073 185.087 137.973 185.125 134.874 185.125C144.546 195.585 158.4 202.161 173.785 202.161C181.403 202.161 188.535 200.554 194.883 197.677C196.265 194.801 197.497 191.849 198.618 188.786C198.506 188.861 198.356 188.935 198.244 189.01L198.169 189.085Z" fill="white"/>
<path d="M141.895 152.436C142.044 158.451 142.679 164.69 143.836 170.817L141.895 152.436Z" fill="white"/>
<path d="M141.895 152.436C142.044 158.451 142.679 164.69 143.836 170.817L141.895 152.436Z" fill="white"/>
<path d="M134.277 173.842C137.675 175.299 141.26 176.495 144.882 177.466L145.33 177.578L145.442 178.027C145.666 178.811 145.89 179.596 146.114 180.38C147.795 180.306 149.475 180.193 151.156 180.081L150.745 178.849L152.126 179.11C153.396 179.334 154.628 179.558 155.898 179.745C166.951 178.849 177.855 177.392 188.498 175.374C184.801 175.822 180.992 176.121 176.996 176.196H176.175V151.651H200.746V152.473C200.56 159.833 199.813 166.632 198.282 173.133V173.357C199.365 173.095 200.522 172.834 201.68 172.572V120.232H201.904C201.568 118.962 201.232 117.692 200.858 116.422C200.149 114.143 199.327 111.901 198.394 109.735C198.506 109.809 198.618 109.884 198.73 109.959C197.535 106.709 196.228 103.57 194.771 100.507C188.311 97.7051 181.216 96.1733 173.748 96.1733C144.471 96.1733 120.759 119.896 120.759 149.186C120.759 161.028 124.642 171.937 131.177 180.754C133.978 180.754 136.741 180.716 139.505 180.642C137.563 178.55 135.808 176.271 134.314 173.842H134.277ZM176.138 102.749C181.291 103.01 186.183 104.131 190.776 105.924C193.016 109.959 194.809 114.031 196.265 118.215L196.713 119.523L195.332 119.261C189.17 118.103 182.971 117.468 176.959 117.318H176.175V102.711L176.138 102.749ZM176.138 122.212H176.959C184.278 122.399 191.112 123.146 197.61 124.678L198.095 124.79L198.207 125.276C199.738 131.776 200.485 138.613 200.634 145.935V146.757H176.1V122.175L176.138 122.212ZM171.283 176.233H170.462C163.105 176.047 156.309 175.299 149.811 173.768L149.326 173.656L149.214 173.17C147.683 166.632 146.936 159.833 146.786 152.511V151.689H171.32V176.271L171.283 176.233ZM151.193 118.215C152.612 114.031 154.404 109.921 156.645 105.924C161.201 104.131 166.13 103.01 171.246 102.749V117.318H170.462C164.449 117.505 158.251 118.103 152.089 119.261L150.707 119.523L151.156 118.215H151.193ZM149.288 124.79L149.774 124.678C156.309 123.146 163.142 122.399 170.424 122.212H171.246V146.757H146.674V145.935C146.861 138.613 147.608 131.776 149.139 125.276L149.251 124.79H149.288ZM149.102 109.772C147.645 113.172 146.45 116.758 145.479 120.382L145.367 120.83L144.919 120.942C141.26 121.914 137.712 123.109 134.314 124.566C138.048 118.589 143.127 113.508 149.102 109.735V109.772ZM130.468 132.15C134.501 129.908 138.571 128.115 142.753 126.696L144.06 126.247L143.799 127.63C142.641 133.756 142.044 139.995 141.857 146.01V146.795H127.256C127.518 141.639 128.638 136.745 130.43 132.187L130.468 132.15ZM130.468 166.296C128.675 161.738 127.555 156.807 127.294 151.651H141.857V152.436L143.799 170.816L144.06 172.199L142.753 171.75C138.571 170.331 134.501 168.537 130.468 166.296Z" fill="white"/>
<path d="M201.643 172.572C202.165 172.46 202.688 172.348 203.211 172.199C204.667 164.839 205.452 157.143 205.452 149.223C205.452 139.099 204.182 129.348 201.867 120.232H201.643V172.572Z" fill="white"/>
<path d="M201.643 172.572C202.165 172.46 202.688 172.348 203.211 172.199C204.667 164.839 205.452 157.143 205.452 149.223C205.452 139.099 204.182 129.348 201.867 120.232H201.643V172.572Z" fill="white"/>
<path d="M211.986 174.328C213.181 172.647 214.264 170.891 215.235 169.023C213.48 169.509 211.725 169.995 209.97 170.48V175.113C210.642 174.851 211.314 174.59 211.986 174.328Z" fill="white"/>
<path d="M211.986 174.328C213.181 172.647 214.264 170.891 215.235 169.023C213.48 169.509 211.725 169.995 209.97 170.48V175.113C210.642 174.851 211.314 174.59 211.986 174.328Z" fill="white"/>
<path d="M202.09 177.578L202.538 177.466C204.48 176.943 206.347 176.346 208.252 175.71H202.464C202.314 176.383 202.165 177.018 202.016 177.653C202.016 177.653 202.09 177.653 202.128 177.653L202.09 177.578Z" fill="white"/>
<path d="M202.09 177.578L202.538 177.466C204.48 176.943 206.347 176.346 208.252 175.71H202.464C202.314 176.383 202.165 177.018 202.016 177.653C202.016 177.653 202.09 177.653 202.128 177.653L202.09 177.578Z" fill="white"/>
<path d="M203.36 172.199C203.36 172.199 203.248 172.199 203.211 172.199C202.987 173.394 202.725 174.553 202.464 175.711H208.252C208.812 175.524 209.41 175.3 209.97 175.113V170.48C207.804 171.041 205.675 171.601 203.509 172.124H203.397L203.36 172.199Z" fill="white"/>
<path d="M203.36 172.199C203.36 172.199 203.248 172.199 203.211 172.199C202.987 173.394 202.725 174.553 202.464 175.711H208.252C208.812 175.524 209.41 175.3 209.97 175.113V170.48C207.804 171.041 205.675 171.601 203.509 172.124H203.397L203.36 172.199Z" fill="white"/>
<path d="M203.36 172.199C203.36 172.199 203.248 172.199 203.211 172.199C202.987 173.394 202.725 174.553 202.464 175.711H208.252C208.812 175.524 209.41 175.3 209.97 175.113V170.48C207.804 171.041 205.675 171.601 203.509 172.124H203.397L203.36 172.199Z" fill="white"/>
<path d="M201.642 175.71V172.572C200.485 172.834 199.364 173.095 198.207 173.357L198.132 173.618L197.647 173.73C194.659 174.44 191.597 174.963 188.46 175.374C177.818 177.392 166.914 178.849 155.86 179.745C160.752 180.492 165.681 180.903 170.461 181.053H171.245V182.921C172.888 182.734 174.494 182.51 176.1 182.323V181.09H176.884C182.336 180.941 188.012 180.418 193.614 179.409C196.414 178.886 199.178 178.288 201.904 177.653C202.053 177.018 202.202 176.346 202.352 175.71H201.53H201.642Z" fill="white"/>
<path d="M201.642 175.71V172.572C200.485 172.834 199.364 173.095 198.207 173.357L198.132 173.618L197.647 173.73C194.659 174.44 191.597 174.963 188.46 175.374C177.818 177.392 166.914 178.849 155.86 179.745C160.752 180.492 165.681 180.903 170.461 181.053H171.245V182.921C172.888 182.734 174.494 182.51 176.1 182.323V181.09H176.884C182.336 180.941 188.012 180.418 193.614 179.409C196.414 178.886 199.178 178.288 201.904 177.653C202.053 177.018 202.202 176.346 202.352 175.71H201.53H201.642Z" fill="white"/>
<path d="M201.642 175.71V172.572C200.485 172.834 199.364 173.095 198.207 173.357L198.132 173.618L197.647 173.73C194.659 174.44 191.597 174.963 188.46 175.374C177.818 177.392 166.914 178.849 155.86 179.745C160.752 180.492 165.681 180.903 170.461 181.053H171.245V182.921C172.888 182.734 174.494 182.51 176.1 182.323V181.09H176.884C182.336 180.941 188.012 180.418 193.614 179.409C196.414 178.886 199.178 178.288 201.904 177.653C202.053 177.018 202.202 176.346 202.352 175.71H201.53H201.642Z" fill="white"/>
<path d="M202.426 175.71C202.687 174.552 202.949 173.394 203.173 172.199C202.65 172.311 202.127 172.423 201.604 172.572V175.71H202.426Z" fill="white"/>
<path d="M202.426 175.71C202.687 174.552 202.949 173.394 203.173 172.199C202.65 172.311 202.127 172.423 201.604 172.572V175.71H202.426Z" fill="white"/>
<path d="M202.426 175.71C202.687 174.552 202.949 173.394 203.173 172.199C202.65 172.311 202.127 172.423 201.604 172.572V175.71H202.426Z" fill="white"/>
<path d="M202.426 175.71C202.687 174.552 202.949 173.394 203.173 172.199C202.65 172.311 202.127 172.423 201.604 172.572V175.71H202.426Z" fill="white"/>
<path d="M222.778 166.782C221.658 167.118 220.537 167.492 219.417 167.828C217.886 169.845 216.019 172.236 213.928 174.739C215.87 174.216 217.774 173.693 219.678 173.133C219.79 172.871 219.94 172.572 220.089 172.311C220.799 170.891 221.77 168.724 222.778 166.782Z" fill="white"/>
<path d="M222.778 166.782C221.658 167.118 220.537 167.492 219.417 167.828C217.886 169.845 216.019 172.236 213.928 174.739C215.87 174.216 217.774 173.693 219.678 173.133C219.79 172.871 219.94 172.572 220.089 172.311C220.799 170.891 221.77 168.724 222.778 166.782Z" fill="white"/>
<path d="M151.155 180.119C149.475 180.231 147.795 180.305 146.114 180.418C146.562 181.949 147.048 183.444 147.608 184.901C149.363 184.826 151.081 184.751 152.836 184.639C152.238 183.182 151.678 181.688 151.193 180.193V180.119H151.155Z" fill="white"/>
<path d="M151.155 180.119C149.475 180.231 147.795 180.305 146.114 180.418C146.562 181.949 147.048 183.444 147.608 184.901C149.363 184.826 151.081 184.751 152.836 184.639C152.238 183.182 151.678 181.688 151.193 180.193V180.119H151.155Z" fill="white"/>
<path d="M151.155 180.119C149.475 180.231 147.795 180.305 146.114 180.418C146.562 181.949 147.048 183.444 147.608 184.901C149.363 184.826 151.081 184.751 152.836 184.639C152.238 183.182 151.678 181.688 151.193 180.193V180.119H151.155Z" fill="white"/>
<path d="M139.467 180.642C136.704 180.716 133.94 180.754 131.14 180.754C132.26 182.285 133.492 183.742 134.799 185.162C137.899 185.162 140.998 185.087 144.06 185.013C142.417 183.668 140.886 182.211 139.467 180.642Z" fill="white"/>
<path d="M139.467 180.642C136.704 180.716 133.94 180.754 131.14 180.754C132.26 182.285 133.492 183.742 134.799 185.162C137.899 185.162 140.998 185.087 144.06 185.013C142.417 183.668 140.886 182.211 139.467 180.642Z" fill="white"/>
<path d="M139.467 180.642C136.704 180.716 133.94 180.754 131.14 180.754C132.26 182.285 133.492 183.742 134.799 185.162C137.899 185.162 140.998 185.087 144.06 185.013C142.417 183.668 140.886 182.211 139.467 180.642Z" fill="white"/>
<path d="M133.94 56.0499C96.2991 86.2733 82.9305 135.475 96.4858 178.923C97.1206 178.998 97.7928 179.073 98.4276 179.11C86.6274 136.521 100.257 89.1126 136.89 59.7111C185.361 20.7832 255.938 27.9561 295.633 75.4392C295.148 74.8041 294.699 74.169 294.214 73.5713C254.78 24.4443 183.008 16.599 133.94 56.0499Z" fill="white"/>
<path d="M116.389 216.394C116.875 216.992 117.398 217.59 117.92 218.188C109.63 207.391 103.543 195.586 99.6225 183.294C99.025 183.22 98.4276 183.145 97.8301 183.07C102.012 194.838 108.137 206.083 116.389 216.357V216.394Z" fill="white"/>
<path d="M97.8299 183.108C98.4274 183.182 99.0249 183.257 99.6223 183.332C99.1742 181.95 98.7635 180.567 98.3901 179.148C97.7552 179.073 97.0831 179.036 96.4482 178.961C96.8964 180.343 97.3445 181.725 97.8299 183.108Z" fill="white"/>
<path d="M171.021 24.0334C104.104 43.46 65.5663 113.508 84.9844 180.455C85.2458 181.277 85.5072 182.099 85.7686 182.958C68.0309 116.758 106.382 48.242 172.478 29.0395C238.574 9.83704 307.657 47.1959 328.084 112.649C327.86 111.789 327.673 110.968 327.412 110.108C307.993 43.1238 237.976 4.60679 171.021 24.0334Z" fill="white"/>
<path d="M57.5 217.216H64.371C64.7444 217.216 65.0805 217.216 65.4539 217.216C70.0097 217.478 72.2129 219.271 72.6237 222.671C72.8851 224.539 72.3623 226.22 71.2794 227.602C70.0844 229.059 68.3666 229.881 66.2381 229.956H60.6368V239.37H57.5373V217.216H57.5ZM63.9976 227.789C64.259 227.789 64.483 227.789 64.7071 227.789C67.2464 227.677 68.3666 227.004 69.1508 225.361C69.4496 224.763 69.5989 224.016 69.4869 223.044C69.2629 220.728 67.9932 219.533 64.8565 219.308H60.5994V227.789H63.9976Z" fill="white"/>
<path d="M81.4743 223.642C85.0965 224.277 87.5238 227.266 87.5238 231.599C87.5238 235.933 85.0965 238.922 81.4743 239.557C76.1343 240.528 72.1387 237.091 72.1387 231.599C72.1387 226.108 76.1343 222.671 81.4743 223.642ZM75.1634 232.421C75.5742 236.605 77.8894 238.473 81.0635 237.726C83.0053 237.24 84.2003 235.634 84.4617 232.421C84.5364 231.898 84.5364 231.375 84.4617 230.852C84.2003 227.602 82.968 226.033 81.0635 225.547C77.8894 224.763 75.5368 226.631 75.1634 230.852C75.1634 231.114 75.1634 231.375 75.1634 231.637C75.1634 231.898 75.1634 232.16 75.1634 232.421Z" fill="white"/>
<path d="M91.2945 223.904L95.1782 236.232L98.9871 223.904H102.535L106.381 236.232L110.302 223.904H112.841L107.949 239.37H104.7L100.63 226.407L96.6345 239.37H93.2737L88.3818 223.904H91.2572H91.2945Z" fill="white"/>
<path d="M116.501 232.01C116.501 232.309 116.501 232.645 116.501 232.982C116.763 236.419 118.368 237.988 120.796 237.988C122.738 238.062 124.007 237.091 124.53 235.036C124.605 234.924 124.642 234.775 124.642 234.588H127.256C127.256 234.887 127.181 235.223 127.107 235.559C126.472 238.1 124.306 239.669 120.796 239.744C116.576 239.818 114.186 237.539 113.701 232.832C113.178 227.378 115.642 224.165 119.414 223.642C124.53 222.932 127.368 225.398 127.592 231.039C127.592 231.338 127.592 231.637 127.592 232.01H116.501ZM124.754 230.441C124.754 230.441 124.754 230.105 124.754 229.956C124.679 226.78 123.074 225.248 120.609 225.323C118.518 225.398 117.024 226.743 116.576 229.619C116.501 229.881 116.501 230.142 116.501 230.404H124.717L124.754 230.441Z" fill="white"/>
<path d="M130.579 223.903H133.342V226.07C133.342 226.07 133.529 225.771 133.604 225.622C134.537 224.314 135.658 223.642 137.375 223.604C137.824 223.604 138.346 223.605 138.794 223.717V226.145H138.533L138.16 226.07C134.724 225.883 133.342 227.228 133.342 230.441V239.295H130.579V223.829V223.903Z" fill="white"/>
<path d="M153.32 226.108L152.984 225.659C152.2 224.576 151.715 223.754 151.491 223.007C150.445 219.757 152.461 216.843 156.009 216.917C156.382 216.917 156.756 216.917 157.129 217.03C160.005 217.665 161.424 221.139 159.631 223.941C159.071 224.8 158.175 225.622 156.98 226.295C156.681 226.444 156.345 226.593 156.009 226.743L161.909 233.692C162.432 232.272 162.693 230.815 162.731 229.283H164.411C164.336 230.18 164.224 231.114 164 231.973C163.739 232.982 163.365 233.99 162.88 234.887L166.689 239.295H164.523L161.984 236.195C161.797 236.456 161.648 236.643 161.461 236.867C160.341 238.212 158.772 239.146 157.092 239.52C153.507 240.304 150.184 238.735 148.765 236.008C148.316 235.036 148.055 234.028 148.092 232.982C148.167 230.591 149.511 228.387 152.312 226.78C152.686 226.556 153.059 226.407 153.432 226.257L153.246 225.996L153.32 226.108ZM152.312 228.798C151.976 229.096 151.64 229.433 151.341 229.769C148.914 232.646 150.072 236.755 153.582 237.913C156.009 238.698 158.548 238.025 160.453 235.933C160.677 235.672 160.864 235.447 161.05 235.186L154.515 227.453C153.768 227.752 153.059 228.2 152.349 228.76L152.312 228.798ZM155.972 225.211C157.727 224.202 158.436 223.194 158.623 221.924C158.884 219.831 157.316 218.337 155.374 218.673C153.059 219.047 152.163 221.251 153.731 223.866C153.918 224.128 154.067 224.352 154.254 224.613C154.553 225.062 154.814 225.398 155.075 225.659C155.374 225.547 155.673 225.398 155.934 225.211H155.972Z" fill="white"/>
<path d="M177.257 217.216H190.924V219.42H180.356V226.818H190.327V229.059H180.356V237.166H191.26V239.37H177.257V217.216Z" fill="white"/>
<path d="M194.136 223.904H196.9V226.743C196.9 226.743 197.086 226.369 197.161 226.182C198.132 224.501 199.401 223.642 201.306 223.493C204.966 223.156 207.057 224.987 207.206 228.275V228.947V229.395V239.37H204.443V228.872C204.331 227.565 204.069 227.004 203.509 226.407C202.725 225.547 201.418 225.174 200.036 225.547C198.02 226.033 196.825 227.752 196.825 231.45V239.37H194.062V223.904H194.136Z" fill="white"/>
<path d="M213.143 232.01C213.143 232.309 213.143 232.645 213.143 232.982C213.404 236.419 215.01 237.988 217.437 237.988C219.379 238.062 220.649 237.091 221.172 235.036C221.246 234.924 221.284 234.775 221.284 234.588H223.898C223.898 234.887 223.823 235.223 223.748 235.559C223.113 238.1 220.948 239.669 217.437 239.744C213.218 239.818 210.828 237.539 210.342 232.832C209.819 227.378 212.284 224.165 216.056 223.642C221.172 222.932 224.01 225.398 224.234 231.039C224.234 231.338 224.234 231.637 224.234 232.01H213.143ZM221.396 230.441C221.396 230.441 221.396 230.105 221.396 229.956C221.321 226.78 219.715 225.248 217.251 225.323C215.159 225.398 213.666 226.743 213.218 229.619C213.143 229.881 213.143 230.142 213.143 230.404H221.358L221.396 230.441Z" fill="white"/>
<path d="M227.184 223.903H229.947V226.07C229.947 226.07 230.134 225.771 230.208 225.622C231.142 224.314 232.262 223.642 233.98 223.604C234.428 223.604 234.951 223.605 235.399 223.717V226.145H235.138L234.764 226.07C231.329 225.883 229.947 227.228 229.947 230.441V239.295H227.184V223.829V223.903Z" fill="white"/>
<path d="M246.938 223.903H249.739V239.258C249.739 243.554 246.863 246.244 241.785 245.982C238.125 245.758 236.221 244.152 235.96 241.761C235.96 241.537 235.96 241.35 235.96 241.163H238.76C238.76 241.163 238.76 241.387 238.76 241.462C238.91 242.919 239.918 243.853 242.046 244.002C244.959 244.227 246.677 242.695 246.863 239.893C246.863 239.706 246.863 239.519 246.863 239.37V235.97L246.714 236.232L246.415 236.68C244.847 239.071 242.158 239.968 239.283 238.81C237.08 237.876 235.698 235.97 235.287 232.795C235.213 231.861 235.213 230.927 235.362 229.955C235.96 226.332 238.2 224.053 240.665 223.679C243.727 223.194 245.93 224.24 246.901 226.07V223.866L246.938 223.903ZM243.839 237.24C244.959 236.904 245.855 235.933 246.565 234.177C246.789 233.579 246.901 232.982 247.013 232.272C247.498 227.266 244.959 224.949 241.822 225.659C240.03 226.108 238.686 227.714 238.387 230.516C238.312 230.777 238.312 231.114 238.312 231.412C238.2 236.12 240.889 238.212 243.876 237.278L243.839 237.24Z" fill="white"/>
<path d="M254.145 223.904L258.701 236.232L263.22 223.904H265.759L257.88 245.348H255.154L257.245 239.632L251.195 223.941H254.145V223.904Z" fill="white"/>
<path d="M277.521 233.206C277.26 235.821 279.463 237.95 283.235 237.614C283.832 237.614 284.392 237.427 284.878 237.203C286.67 236.419 287.417 235.223 287.38 233.654C287.305 232.01 286.67 231.188 284.728 230.404L283.123 229.881L281.181 229.171C280.882 229.059 280.583 228.947 280.247 228.835C275.505 227.004 274.086 224.8 275.243 221.027C275.99 218.524 278.492 216.805 282.488 216.805C287.342 216.731 290.106 219.271 290.255 222.559H287.118C287.118 220.579 285.438 219.047 282.488 219.047C280.098 219.047 278.754 219.943 278.193 221.662C277.484 223.866 278.567 225.51 282.338 226.818L284.467 227.527L285.55 227.901L286.371 228.2C289.807 229.47 291.151 231.898 290.33 235.149C289.658 237.838 287.492 239.445 283.496 239.706C282.712 239.781 281.89 239.706 281.106 239.706C276.999 239.333 275.019 237.726 274.497 234.588C274.422 234.14 274.422 233.654 274.422 233.206H277.521Z" fill="white"/>
<path d="M301.682 223.642C305.305 224.277 307.732 227.266 307.732 231.599C307.732 235.933 305.305 238.922 301.682 239.557C296.342 240.528 292.347 237.091 292.347 231.599C292.347 226.108 296.342 222.671 301.682 223.642ZM295.371 232.421C295.782 236.605 298.097 238.473 301.272 237.726C303.213 237.24 304.408 235.634 304.707 232.421C304.782 231.898 304.782 231.375 304.707 230.852C304.446 227.602 303.213 226.033 301.272 225.547C298.097 224.763 295.745 226.631 295.371 230.852C295.371 231.114 295.371 231.375 295.371 231.637C295.371 231.898 295.371 232.16 295.371 232.421Z" fill="white"/>
<path d="M320.727 228.947C320.727 228.947 320.652 228.536 320.652 228.312C320.578 228.05 320.503 227.751 320.391 227.527C319.495 225.435 316.545 224.725 314.379 226.556C313.408 227.378 312.736 228.723 312.586 230.89C312.512 231.562 312.586 232.272 312.661 232.944C313.072 236.157 314.341 237.539 316.694 237.689C318.972 237.838 320.353 236.755 320.69 234.625C320.69 234.476 320.69 234.327 320.764 234.177H323.378C323.378 234.513 323.378 234.85 323.266 235.148C322.669 238.137 320.316 239.968 316.582 239.781C312.25 239.632 309.748 236.904 309.674 231.861C309.599 227.004 312.026 223.978 315.611 223.53C320.055 222.932 322.706 224.837 323.341 228.162C323.341 228.424 323.416 228.685 323.453 228.947H320.764H320.727Z" fill="white"/>
<path d="M325.955 217.216H328.718V220.504H325.955V217.216ZM325.955 223.904H328.718V239.37H325.955V223.904Z" fill="white"/>
<path d="M334.58 232.01C334.58 232.309 334.58 232.645 334.58 232.982C334.842 236.419 336.448 237.988 338.875 237.988C340.817 238.062 342.086 237.091 342.609 235.036C342.684 234.924 342.721 234.775 342.721 234.588H345.335C345.335 234.887 345.26 235.223 345.186 235.559C344.551 238.1 342.385 239.669 338.875 239.744C334.655 239.818 332.265 237.539 331.78 232.832C331.257 227.378 333.722 224.165 337.493 223.642C342.609 222.932 345.447 225.398 345.671 231.039C345.671 231.338 345.671 231.637 345.671 232.01H334.58ZM342.833 230.441C342.833 230.441 342.833 230.105 342.833 229.956C342.758 226.78 341.153 225.248 338.688 225.323C336.597 225.398 335.103 226.743 334.655 229.619C334.58 229.881 334.58 230.142 334.58 230.404H342.796L342.833 230.441Z" fill="white"/>
<path d="M346.082 223.903H348.883V220.765L351.646 219.645V223.903H355.119V225.771H351.646V235.261C351.833 237.128 352.244 237.502 354.298 237.465C354.596 237.465 354.895 237.465 355.269 237.353V239.407C354.634 239.557 354.074 239.632 353.476 239.669C350.041 239.744 348.846 238.623 348.846 235.074V225.771H346.045V223.903H346.082Z" fill="white"/>
<path d="M357.098 223.904L361.653 236.232L366.172 223.904H368.711L360.832 245.348H358.106L360.197 239.632L354.147 223.941H357.098V223.904Z" fill="white"/>
<path d="M149.512 214.153C149.96 214.34 150.446 214.489 150.894 214.639C115.493 200.106 98.0542 159.908 111.908 124.043C125.762 88.1787 165.719 70.1344 201.679 83.1727C201.231 82.9859 200.783 82.7991 200.335 82.6123C164.038 68.5653 123.223 86.647 109.22 122.96C95.1788 159.273 113.253 200.106 149.549 214.116L149.512 214.153Z" fill="white"/>
<path d="M208.55 124.753H233.756L236.706 124.903C248.618 125.351 254.033 130.17 254.854 140.444C255.863 151.727 248.917 159.796 237.453 160.319L235.847 160.394H225.727V180.418H208.55V124.753ZM229.91 149.747H231.441L232.524 149.672C235.212 149.597 237.079 148.364 238.312 145.824C238.835 144.74 239.171 143.358 239.021 141.415C238.648 136.932 236.333 134.766 231.142 134.541H225.503V149.784H229.91V149.747Z" fill="white"/>
<path d="M258.738 124.753H298.769V135.811H275.654V146.384H297.686V157.816H275.654V169.322H299.255V180.381H258.738V124.716V124.753Z" fill="white"/>
<path d="M318.635 161.776C318.486 162.486 318.486 163.158 318.561 163.868C318.859 168.986 322.258 171.825 327.672 171.302C328.606 171.228 329.39 170.966 330.062 170.667C332.676 169.36 333.908 167.417 333.834 164.727C333.684 161.776 332.041 159.684 328.718 158.6L328.158 158.451L325.208 157.592L320.652 156.359C320.129 156.209 319.569 156.023 319.046 155.798C305.192 151.315 301.196 146.197 303.586 136.222C305.528 128.041 312.847 122.997 326.701 123.147C327.934 123.147 329.241 123.222 330.473 123.296C340.219 124.155 345.261 126.995 348.099 132.188C349.48 134.728 350.115 137.605 349.966 140.519H333.796V139.361C333.722 138.427 333.423 137.493 333.012 136.671C331.518 133.981 328.979 132.711 325.133 133.122C324.274 133.196 323.527 133.42 322.818 133.719C320.017 135.214 318.859 137.679 319.494 140.593C320.129 143.134 321.884 144.628 327 146.085L332.116 147.542L338.24 149.261C347.987 152.025 352.393 158.937 350.227 168.276C348.36 176.308 342.422 180.493 329.651 181.202C327.112 181.277 324.797 181.277 322.444 181.053C312.026 180.194 306.536 176.719 303.661 170.63C302.354 167.865 301.869 164.839 302.205 161.739H318.598L318.635 161.776Z" fill="white"/>
<path d="M208.774 92.4375H213.965V119.411H208.774V92.4375Z" fill="white"/>
<path d="M217.513 92.4375H235.661V96.5096H223.637V103.496H235.064V107.68H223.637V115.338H235.96V119.411H217.513V92.4375Z" fill="white"/>
<path d="M238.984 92.4375H257.133V96.5096H245.109V103.496H256.535V107.68H245.109V115.338H257.432V119.411H238.984V92.4375Z" fill="white"/>
<path d="M260.419 92.4375H278.567V96.5096H266.543V103.496H277.97V107.68H266.543V115.338H278.866V119.411H260.419V92.4375Z" fill="white"/>
<path d="M142.791 200.965C115.456 184.303 106.568 148.85 122.588 121.279C122.364 121.615 122.14 121.951 121.916 122.288C105.037 150.008 113.813 186.134 141.521 203.057C169.229 219.944 205.376 211.164 222.255 183.444C222.479 183.108 222.666 182.734 222.853 182.398C205.713 209.296 170.163 217.665 142.791 200.965Z" fill="white"/>
<path d="M383.5 223.194C383.5 226.22 381.073 228.611 378.011 228.611C374.949 228.611 372.484 226.22 372.484 223.194C372.484 220.168 374.949 217.814 378.048 217.814C381.148 217.814 383.5 220.168 383.5 223.194ZM373.829 223.194C373.829 225.585 375.621 227.49 378.011 227.49C380.326 227.49 382.119 225.585 382.119 223.231C382.119 220.877 380.364 218.897 377.974 218.897C375.584 218.897 373.866 220.84 373.866 223.194H373.829ZM377.115 225.958H375.883V220.579C376.368 220.504 377.077 220.429 377.936 220.429C378.945 220.429 379.43 220.579 379.766 220.84C380.102 221.064 380.326 221.475 380.326 221.998C380.326 222.671 379.841 223.082 379.206 223.268V223.343C379.729 223.493 379.99 223.941 380.14 224.651C380.289 225.473 380.438 225.771 380.55 225.958H379.243C379.094 225.771 378.982 225.286 378.833 224.651C378.721 224.09 378.422 223.829 377.712 223.829H377.115V225.958ZM377.152 222.969H377.75C378.422 222.969 378.982 222.745 378.982 222.185C378.982 221.699 378.609 221.363 377.824 221.363C377.488 221.363 377.264 221.363 377.152 221.438V222.969Z" fill="white"/>
<path d="M38.188 288L42.606 267.298H44.022L39.6182 288H38.188ZM45.3955 288L49.7852 267.298H60.207L59.938 268.615H50.9746L49.2896 276.459H57.729L57.46 277.776H49.0205L47.123 286.683H56.1006L55.8315 288H45.3955ZM60.6885 288L65.0781 267.298H75.5L75.231 268.615H66.2676L64.5825 276.459H73.022L72.7529 277.776H64.3135L62.416 286.683H71.3936L71.1245 288H60.6885ZM75.9814 288L80.3711 267.298H90.793L90.5239 268.615H81.5605L79.8755 276.459H88.3149L88.0459 277.776H79.6064L77.709 286.683H86.6865L86.4175 288H75.9814ZM106.921 288.283C105.411 288.283 104.122 287.958 103.056 287.306C101.998 286.645 101.187 285.715 100.62 284.517C100.054 283.318 99.7705 281.906 99.7705 280.283C99.7705 278.819 99.9404 277.427 100.28 276.105C100.62 274.784 101.111 273.571 101.753 272.466C102.404 271.352 103.188 270.389 104.104 269.578C105.029 268.756 106.067 268.124 107.219 267.68C108.38 267.227 109.635 267 110.985 267C111.92 267 112.779 267.095 113.562 267.284C114.355 267.463 115.101 267.737 115.8 268.105L115.205 269.365C114.582 269.007 113.921 268.742 113.223 268.572C112.524 268.402 111.778 268.317 110.985 268.317C109.815 268.317 108.729 268.52 107.729 268.926C106.728 269.323 105.826 269.884 105.024 270.611C104.231 271.329 103.556 272.188 102.999 273.188C102.442 274.18 102.013 275.27 101.71 276.459C101.418 277.649 101.271 278.904 101.271 280.226C101.271 282.312 101.786 283.96 102.815 285.168C103.853 286.376 105.284 286.98 107.105 286.98C108.021 286.98 108.88 286.9 109.683 286.74C110.494 286.579 111.254 286.376 111.962 286.131V287.405C111.273 287.66 110.518 287.868 109.697 288.028C108.885 288.198 107.96 288.283 106.921 288.283ZM121.605 288.255C120.416 288.255 119.415 288.009 118.604 287.519C117.792 287.028 117.178 286.339 116.763 285.451C116.357 284.564 116.154 283.535 116.154 282.364C116.154 281.241 116.272 280.179 116.508 279.178C116.753 278.178 117.103 277.262 117.556 276.431C118.018 275.591 118.57 274.869 119.212 274.265C119.864 273.651 120.595 273.179 121.407 272.849C122.229 272.509 123.111 272.339 124.055 272.339C125.226 272.339 126.212 272.589 127.015 273.089C127.817 273.59 128.426 274.284 128.841 275.171C129.266 276.049 129.479 277.068 129.479 278.229C129.479 279.268 129.365 280.278 129.139 281.26C128.922 282.242 128.596 283.157 128.162 284.007C127.727 284.856 127.189 285.597 126.547 286.23C125.915 286.862 125.183 287.358 124.353 287.717C123.531 288.076 122.616 288.255 121.605 288.255ZM121.733 287.023C122.488 287.023 123.187 286.881 123.829 286.598C124.48 286.306 125.061 285.895 125.57 285.366C126.09 284.838 126.528 284.205 126.887 283.469C127.255 282.732 127.534 281.911 127.723 281.005C127.911 280.099 128.006 279.131 128.006 278.102C128.006 277.271 127.864 276.516 127.581 275.836C127.298 275.147 126.864 274.6 126.278 274.194C125.702 273.788 124.957 273.585 124.041 273.585C123.286 273.585 122.583 273.722 121.931 273.996C121.28 274.269 120.685 274.666 120.147 275.185C119.618 275.704 119.165 276.327 118.788 277.054C118.41 277.781 118.117 278.598 117.91 279.504C117.711 280.401 117.612 281.368 117.612 282.407C117.612 283.832 117.957 284.96 118.646 285.791C119.345 286.612 120.374 287.023 121.733 287.023ZM131.886 288L135.143 272.608H136.332L135.695 276.19H135.78C136.101 275.624 136.511 275.043 137.012 274.449C137.521 273.854 138.126 273.349 138.824 272.934C139.532 272.518 140.339 272.311 141.246 272.311C142.473 272.311 143.355 272.674 143.894 273.401C144.441 274.128 144.715 275.095 144.715 276.304H144.771C145.111 275.69 145.546 275.076 146.074 274.463C146.612 273.849 147.245 273.34 147.972 272.934C148.699 272.518 149.515 272.311 150.421 272.311C151.583 272.311 152.479 272.632 153.112 273.273C153.754 273.915 154.075 274.855 154.075 276.091C154.075 276.441 154.051 276.795 154.004 277.153C153.957 277.512 153.891 277.88 153.806 278.258L151.752 288H150.308L152.418 278.088C152.503 277.729 152.56 277.399 152.588 277.097C152.626 276.795 152.645 276.516 152.645 276.261C152.645 275.364 152.418 274.694 151.965 274.25C151.512 273.797 150.87 273.571 150.039 273.571C149.407 273.571 148.779 273.741 148.156 274.081C147.542 274.42 146.966 274.897 146.428 275.511C145.89 276.124 145.423 276.847 145.026 277.677C144.63 278.499 144.328 279.4 144.12 280.382L142.506 288H141.076L143.129 278.357C143.223 277.942 143.289 277.55 143.327 277.182C143.365 276.813 143.384 276.502 143.384 276.247C143.384 275.407 143.167 274.751 142.732 274.279C142.308 273.807 141.68 273.571 140.849 273.571C140.217 273.571 139.589 273.741 138.966 274.081C138.352 274.411 137.776 274.888 137.238 275.511C136.7 276.134 136.228 276.87 135.822 277.72C135.416 278.56 135.105 279.494 134.888 280.523L133.316 288H131.886ZM156.666 288L159.923 272.608H161.112L160.475 276.19H160.56C160.881 275.624 161.292 275.043 161.792 274.449C162.302 273.854 162.906 273.349 163.604 272.934C164.312 272.518 165.12 272.311 166.026 272.311C167.253 272.311 168.136 272.674 168.674 273.401C169.221 274.128 169.495 275.095 169.495 276.304H169.552C169.892 275.69 170.326 275.076 170.854 274.463C171.393 273.849 172.025 273.34 172.752 272.934C173.479 272.518 174.295 272.311 175.202 272.311C176.363 272.311 177.26 272.632 177.892 273.273C178.534 273.915 178.855 274.855 178.855 276.091C178.855 276.441 178.831 276.795 178.784 277.153C178.737 277.512 178.671 277.88 178.586 278.258L176.533 288H175.088L177.198 278.088C177.283 277.729 177.34 277.399 177.368 277.097C177.406 276.795 177.425 276.516 177.425 276.261C177.425 275.364 177.198 274.694 176.745 274.25C176.292 273.797 175.65 273.571 174.819 273.571C174.187 273.571 173.559 273.741 172.936 274.081C172.322 274.42 171.747 274.897 171.208 275.511C170.67 276.124 170.203 276.847 169.807 277.677C169.41 278.499 169.108 279.4 168.9 280.382L167.286 288H165.856L167.909 278.357C168.004 277.942 168.07 277.55 168.107 277.182C168.145 276.813 168.164 276.502 168.164 276.247C168.164 275.407 167.947 274.751 167.513 274.279C167.088 273.807 166.46 273.571 165.629 273.571C164.997 273.571 164.369 273.741 163.746 274.081C163.132 274.411 162.557 274.888 162.019 275.511C161.48 276.134 161.008 276.87 160.603 277.72C160.197 278.56 159.885 279.494 159.668 280.523L158.096 288H156.666ZM186.048 288.283C185.236 288.283 184.538 288.142 183.953 287.858C183.367 287.566 182.919 287.136 182.607 286.57C182.305 286.003 182.154 285.31 182.154 284.488C182.154 284.158 182.178 283.813 182.225 283.455C182.282 283.096 182.343 282.728 182.409 282.35L184.477 272.608H185.921L183.811 282.52C183.736 282.879 183.679 283.209 183.641 283.511C183.603 283.804 183.584 284.073 183.584 284.318C183.584 285.234 183.825 285.918 184.307 286.372C184.788 286.815 185.487 287.037 186.402 287.037C187.318 287.037 188.215 286.749 189.093 286.173C189.98 285.588 190.759 284.776 191.429 283.738C192.109 282.69 192.595 281.467 192.888 280.07L194.474 272.608H195.89L192.619 288H191.429L192.066 284.403H191.981C191.642 284.96 191.188 285.541 190.622 286.145C190.065 286.74 189.404 287.245 188.64 287.66C187.884 288.076 187.021 288.283 186.048 288.283ZM197.745 288L201.016 272.58H202.262L201.639 276.162H201.681C202.021 275.596 202.469 275.015 203.026 274.42C203.583 273.826 204.244 273.321 205.009 272.905C205.783 272.49 206.647 272.282 207.6 272.282C208.44 272.282 209.153 272.429 209.738 272.721C210.333 273.014 210.781 273.443 211.083 274.01C211.395 274.576 211.551 275.27 211.551 276.091C211.551 276.441 211.522 276.804 211.466 277.182C211.419 277.559 211.357 277.923 211.282 278.272L209.214 288H207.713L209.823 278.074C209.899 277.715 209.955 277.389 209.993 277.097C210.031 276.795 210.05 276.521 210.05 276.275C210.05 275.369 209.809 274.699 209.328 274.265C208.846 273.821 208.162 273.599 207.274 273.599C206.359 273.599 205.462 273.887 204.584 274.463C203.715 275.039 202.946 275.846 202.276 276.884C201.606 277.923 201.124 279.136 200.832 280.523L199.231 288H197.745ZM214.128 288L217.385 272.608H218.815L215.558 288H214.128ZM218.985 269.252C218.702 269.252 218.47 269.176 218.291 269.025C218.121 268.865 218.036 268.638 218.036 268.346C218.036 268.11 218.079 267.883 218.164 267.666C218.258 267.449 218.395 267.274 218.574 267.142C218.754 267 218.971 266.93 219.226 266.93C219.537 266.93 219.764 267.015 219.905 267.185C220.047 267.345 220.118 267.553 220.118 267.808C220.118 268.195 220.009 268.535 219.792 268.827C219.575 269.11 219.306 269.252 218.985 269.252ZM226.971 288.283C225.791 288.283 224.781 288.042 223.941 287.561C223.101 287.07 222.454 286.386 222.001 285.508C221.557 284.63 221.335 283.601 221.335 282.421C221.335 281.345 221.449 280.306 221.675 279.306C221.911 278.305 222.256 277.38 222.709 276.53C223.162 275.681 223.714 274.944 224.366 274.321C225.027 273.689 225.782 273.198 226.631 272.849C227.49 272.49 228.43 272.311 229.449 272.311C230.11 272.311 230.761 272.372 231.403 272.495C232.055 272.617 232.626 272.792 233.117 273.019L232.706 274.279C232.262 274.062 231.748 273.892 231.163 273.769C230.587 273.637 230.016 273.571 229.449 273.571C228.439 273.571 227.523 273.802 226.702 274.265C225.881 274.718 225.178 275.35 224.592 276.162C224.016 276.974 223.573 277.913 223.261 278.98C222.95 280.037 222.794 281.17 222.794 282.378C222.794 283.275 222.954 284.078 223.275 284.786C223.606 285.484 224.092 286.036 224.734 286.442C225.376 286.839 226.159 287.037 227.084 287.037C227.774 287.037 228.416 286.957 229.01 286.796C229.605 286.626 230.2 286.405 230.794 286.131V287.419C230.304 287.665 229.742 287.868 229.109 288.028C228.477 288.198 227.764 288.283 226.971 288.283ZM238.611 288.283C237.723 288.283 236.964 288.066 236.331 287.632C235.699 287.198 235.217 286.579 234.887 285.777C234.556 284.965 234.391 284.002 234.391 282.888C234.391 281.859 234.5 280.84 234.717 279.83C234.943 278.819 235.269 277.866 235.694 276.969C236.128 276.063 236.657 275.261 237.28 274.562C237.903 273.863 238.62 273.316 239.432 272.919C240.244 272.514 241.136 272.311 242.108 272.311C242.93 272.311 243.614 272.485 244.162 272.834C244.709 273.174 245.139 273.604 245.45 274.123C245.762 274.642 245.988 275.166 246.13 275.695H246.229L247.05 272.608H248.183L244.926 288H243.765L244.402 284.403H244.332C243.963 284.979 243.491 285.569 242.916 286.173C242.349 286.768 241.698 287.268 240.961 287.674C240.235 288.08 239.451 288.283 238.611 288.283ZM238.993 287.037C239.805 287.037 240.626 286.744 241.457 286.159C242.297 285.564 243.048 284.762 243.708 283.752C244.369 282.732 244.841 281.585 245.125 280.311C245.257 279.735 245.346 279.225 245.394 278.782C245.45 278.338 245.479 277.927 245.479 277.55C245.479 276.304 245.186 275.331 244.601 274.633C244.015 273.925 243.213 273.571 242.193 273.571C241.4 273.571 240.674 273.745 240.013 274.095C239.352 274.444 238.767 274.925 238.257 275.539C237.747 276.153 237.313 276.856 236.954 277.649C236.605 278.442 236.336 279.287 236.147 280.184C235.958 281.08 235.864 281.987 235.864 282.902C235.864 284.205 236.128 285.22 236.657 285.947C237.185 286.674 237.964 287.037 238.993 287.037ZM253.691 288.283C252.71 288.283 251.945 288.042 251.397 287.561C250.85 287.08 250.576 286.343 250.576 285.352C250.576 285.088 250.595 284.8 250.633 284.488C250.671 284.177 250.727 283.856 250.803 283.525L252.856 273.783H250.562L250.746 272.948L253.125 272.48L254.399 268.898H255.348L254.555 272.608H258.973L258.718 273.783H254.3L252.247 283.483C252.181 283.785 252.124 284.082 252.077 284.375C252.039 284.668 252.021 284.941 252.021 285.196C252.021 285.763 252.162 286.216 252.445 286.556C252.729 286.886 253.201 287.051 253.861 287.051C254.286 287.051 254.668 287.018 255.008 286.952C255.358 286.886 255.697 286.796 256.028 286.683V287.858C255.745 287.962 255.4 288.057 254.994 288.142C254.598 288.236 254.163 288.283 253.691 288.283ZM259.157 288L262.414 272.608H263.844L260.587 288H259.157ZM264.014 269.252C263.731 269.252 263.5 269.176 263.32 269.025C263.15 268.865 263.065 268.638 263.065 268.346C263.065 268.11 263.108 267.883 263.193 267.666C263.287 267.449 263.424 267.274 263.604 267.142C263.783 267 264 266.93 264.255 266.93C264.566 266.93 264.793 267.015 264.935 267.185C265.076 267.345 265.147 267.553 265.147 267.808C265.147 268.195 265.038 268.535 264.821 268.827C264.604 269.11 264.335 269.252 264.014 269.252ZM271.816 288.255C270.627 288.255 269.626 288.009 268.814 287.519C268.003 287.028 267.389 286.339 266.974 285.451C266.568 284.564 266.365 283.535 266.365 282.364C266.365 281.241 266.483 280.179 266.719 279.178C266.964 278.178 267.313 277.262 267.767 276.431C268.229 275.591 268.781 274.869 269.423 274.265C270.075 273.651 270.806 273.179 271.618 272.849C272.439 272.509 273.322 272.339 274.266 272.339C275.437 272.339 276.423 272.589 277.226 273.089C278.028 273.59 278.637 274.284 279.052 275.171C279.477 276.049 279.689 277.068 279.689 278.229C279.689 279.268 279.576 280.278 279.35 281.26C279.132 282.242 278.807 283.157 278.373 284.007C277.938 284.856 277.4 285.597 276.758 286.23C276.126 286.862 275.394 287.358 274.563 287.717C273.742 288.076 272.826 288.255 271.816 288.255ZM271.944 287.023C272.699 287.023 273.398 286.881 274.04 286.598C274.691 286.306 275.271 285.895 275.781 285.366C276.3 284.838 276.739 284.205 277.098 283.469C277.466 282.732 277.745 281.911 277.934 281.005C278.122 280.099 278.217 279.131 278.217 278.102C278.217 277.271 278.075 276.516 277.792 275.836C277.509 275.147 277.075 274.6 276.489 274.194C275.913 273.788 275.168 273.585 274.252 273.585C273.497 273.585 272.793 273.722 272.142 273.996C271.491 274.269 270.896 274.666 270.358 275.185C269.829 275.704 269.376 276.327 268.999 277.054C268.621 277.781 268.328 278.598 268.121 279.504C267.922 280.401 267.823 281.368 267.823 282.407C267.823 283.832 268.168 284.96 268.857 285.791C269.556 286.612 270.584 287.023 271.944 287.023ZM282.054 288L285.325 272.58H286.571L285.948 276.162H285.991C286.331 275.596 286.779 275.015 287.336 274.42C287.893 273.826 288.554 273.321 289.318 272.905C290.092 272.49 290.956 272.282 291.91 272.282C292.75 272.282 293.463 272.429 294.048 272.721C294.643 273.014 295.091 273.443 295.393 274.01C295.705 274.576 295.86 275.27 295.86 276.091C295.86 276.441 295.832 276.804 295.775 277.182C295.728 277.559 295.667 277.923 295.591 278.272L293.524 288H292.023L294.133 278.074C294.208 277.715 294.265 277.389 294.303 277.097C294.34 276.795 294.359 276.521 294.359 276.275C294.359 275.369 294.119 274.699 293.637 274.265C293.156 273.821 292.471 273.599 291.584 273.599C290.668 273.599 289.771 273.887 288.894 274.463C288.025 275.039 287.256 275.846 286.585 276.884C285.915 277.923 285.434 279.136 285.141 280.523L283.541 288H282.054ZM302.204 288.283C301.222 288.283 300.363 288.175 299.627 287.958C298.9 287.74 298.301 287.504 297.829 287.25V285.819C298.367 286.14 299.018 286.428 299.783 286.683C300.547 286.929 301.35 287.051 302.19 287.051C303.143 287.051 303.917 286.919 304.512 286.655C305.107 286.39 305.546 286.027 305.829 285.564C306.122 285.092 306.268 284.55 306.268 283.936C306.268 283.389 306.141 282.931 305.886 282.562C305.631 282.194 305.272 281.864 304.81 281.571C304.356 281.269 303.833 280.953 303.238 280.623C302.568 280.245 301.968 279.872 301.439 279.504C300.911 279.136 300.495 278.716 300.193 278.244C299.891 277.762 299.74 277.177 299.74 276.488C299.74 275.563 299.962 274.793 300.406 274.18C300.859 273.566 301.472 273.104 302.247 272.792C303.021 272.471 303.894 272.311 304.866 272.311C305.782 272.311 306.608 272.405 307.344 272.594C308.081 272.783 308.718 273.004 309.256 273.259L308.789 274.477C308.298 274.232 307.712 274.019 307.033 273.84C306.362 273.66 305.636 273.571 304.852 273.571C303.785 273.571 302.903 273.802 302.204 274.265C301.515 274.727 301.17 275.44 301.17 276.403C301.17 276.884 301.288 277.3 301.524 277.649C301.77 277.989 302.114 278.3 302.558 278.583C303.011 278.867 303.54 279.174 304.144 279.504C304.777 279.863 305.367 280.226 305.914 280.594C306.462 280.962 306.901 281.401 307.231 281.911C307.571 282.411 307.741 283.053 307.741 283.837C307.741 284.715 307.533 285.489 307.118 286.159C306.712 286.829 306.093 287.353 305.263 287.731C304.441 288.099 303.422 288.283 302.204 288.283ZM323.062 288.283C321.901 288.283 320.929 288.194 320.145 288.014C319.361 287.844 318.649 287.618 318.007 287.334V285.848C318.649 286.169 319.385 286.442 320.216 286.669C321.047 286.886 322 286.995 323.076 286.995C323.718 286.995 324.365 286.914 325.016 286.754C325.677 286.584 326.281 286.32 326.829 285.961C327.386 285.602 327.829 285.14 328.16 284.573C328.5 283.997 328.669 283.304 328.669 282.492C328.669 281.746 328.509 281.109 328.188 280.58C327.867 280.051 327.4 279.575 326.786 279.15C326.173 278.725 325.436 278.291 324.577 277.847C323.907 277.479 323.274 277.073 322.68 276.629C322.094 276.176 321.622 275.638 321.264 275.015C320.905 274.392 320.726 273.642 320.726 272.764C320.726 271.763 320.91 270.899 321.278 270.172C321.655 269.445 322.16 268.851 322.793 268.388C323.435 267.916 324.152 267.567 324.945 267.34C325.738 267.114 326.555 267 327.395 267C328.452 267 329.359 267.104 330.114 267.312C330.869 267.51 331.605 267.784 332.323 268.133L331.756 269.408C331.077 269.068 330.388 268.804 329.689 268.615C329 268.417 328.226 268.317 327.367 268.317C326.791 268.317 326.201 268.398 325.597 268.558C325.002 268.709 324.45 268.955 323.94 269.294C323.43 269.634 323.02 270.083 322.708 270.64C322.396 271.187 322.241 271.862 322.241 272.665C322.241 273.391 322.392 273.996 322.694 274.477C322.996 274.958 323.402 275.379 323.912 275.737C324.421 276.087 324.988 276.431 325.611 276.771C326.479 277.243 327.258 277.724 327.947 278.215C328.636 278.697 329.179 279.268 329.576 279.929C329.982 280.58 330.185 281.406 330.185 282.407C330.185 283.445 329.982 284.337 329.576 285.083C329.179 285.829 328.641 286.438 327.961 286.91C327.282 287.382 326.517 287.731 325.667 287.958C324.827 288.175 323.959 288.283 323.062 288.283ZM338.964 288.255C337.774 288.255 336.774 288.009 335.962 287.519C335.15 287.028 334.536 286.339 334.121 285.451C333.715 284.564 333.512 283.535 333.512 282.364C333.512 281.241 333.63 280.179 333.866 279.178C334.112 278.178 334.461 277.262 334.914 276.431C335.377 275.591 335.929 274.869 336.571 274.265C337.222 273.651 337.954 273.179 338.766 272.849C339.587 272.509 340.47 272.339 341.414 272.339C342.584 272.339 343.571 272.589 344.373 273.089C345.175 273.59 345.784 274.284 346.2 275.171C346.625 276.049 346.837 277.068 346.837 278.229C346.837 279.268 346.724 280.278 346.497 281.26C346.28 282.242 345.954 283.157 345.52 284.007C345.086 284.856 344.548 285.597 343.906 286.23C343.273 286.862 342.542 287.358 341.711 287.717C340.89 288.076 339.974 288.255 338.964 288.255ZM339.091 287.023C339.847 287.023 340.545 286.881 341.187 286.598C341.838 286.306 342.419 285.895 342.929 285.366C343.448 284.838 343.887 284.205 344.246 283.469C344.614 282.732 344.892 281.911 345.081 281.005C345.27 280.099 345.364 279.131 345.364 278.102C345.364 277.271 345.223 276.516 344.939 275.836C344.656 275.147 344.222 274.6 343.637 274.194C343.061 273.788 342.315 273.585 341.399 273.585C340.644 273.585 339.941 273.722 339.29 273.996C338.638 274.269 338.043 274.666 337.505 275.185C336.977 275.704 336.524 276.327 336.146 277.054C335.768 277.781 335.476 278.598 335.268 279.504C335.07 280.401 334.971 281.368 334.971 282.407C334.971 283.832 335.315 284.96 336.004 285.791C336.703 286.612 337.732 287.023 339.091 287.023ZM355.517 288.283C354.337 288.283 353.327 288.042 352.487 287.561C351.647 287.07 351 286.386 350.547 285.508C350.103 284.63 349.881 283.601 349.881 282.421C349.881 281.345 349.995 280.306 350.221 279.306C350.457 278.305 350.802 277.38 351.255 276.53C351.708 275.681 352.26 274.944 352.912 274.321C353.572 273.689 354.328 273.198 355.177 272.849C356.036 272.49 356.976 272.311 357.995 272.311C358.656 272.311 359.307 272.372 359.949 272.495C360.601 272.617 361.172 272.792 361.663 273.019L361.252 274.279C360.808 274.062 360.294 273.892 359.708 273.769C359.133 273.637 358.562 273.571 357.995 273.571C356.985 273.571 356.069 273.802 355.248 274.265C354.427 274.718 353.723 275.35 353.138 276.162C352.562 276.974 352.119 277.913 351.807 278.98C351.496 280.037 351.34 281.17 351.34 282.378C351.34 283.275 351.5 284.078 351.821 284.786C352.152 285.484 352.638 286.036 353.28 286.442C353.922 286.839 354.705 287.037 355.63 287.037C356.319 287.037 356.961 286.957 357.556 286.796C358.151 286.626 358.746 286.405 359.34 286.131V287.419C358.849 287.665 358.288 287.868 357.655 288.028C357.023 288.198 356.31 288.283 355.517 288.283ZM362.385 288L365.642 272.608H367.072L363.815 288H362.385ZM367.242 269.252C366.958 269.252 366.727 269.176 366.548 269.025C366.378 268.865 366.293 268.638 366.293 268.346C366.293 268.11 366.335 267.883 366.42 267.666C366.515 267.449 366.652 267.274 366.831 267.142C367.01 267 367.228 266.93 367.482 266.93C367.794 266.93 368.021 267.015 368.162 267.185C368.304 267.345 368.375 267.553 368.375 267.808C368.375 268.195 368.266 268.535 368.049 268.827C367.832 269.11 367.563 269.252 367.242 269.252ZM375.157 288.283C374.147 288.283 373.227 288.071 372.396 287.646C371.575 287.221 370.919 286.575 370.428 285.706C369.946 284.838 369.706 283.738 369.706 282.407C369.706 281.057 369.899 279.778 370.286 278.569C370.673 277.361 371.216 276.29 371.915 275.355C372.613 274.411 373.439 273.67 374.393 273.132C375.346 272.584 376.394 272.311 377.536 272.311C378.763 272.311 379.722 272.622 380.411 273.245C381.109 273.868 381.458 274.699 381.458 275.737C381.458 276.615 381.237 277.375 380.793 278.017C380.359 278.659 379.726 279.188 378.896 279.603C378.065 280.018 377.074 280.33 375.922 280.538C374.77 280.745 373.482 280.849 372.056 280.849H371.263C371.235 281.038 371.211 281.274 371.192 281.557C371.174 281.831 371.164 282.1 371.164 282.364C371.164 283.865 371.537 285.022 372.283 285.833C373.028 286.636 374.072 287.037 375.412 287.037C376.205 287.037 376.932 286.933 377.593 286.726C378.263 286.508 378.881 286.268 379.448 286.003V287.292C378.91 287.566 378.277 287.802 377.55 288C376.823 288.189 376.026 288.283 375.157 288.283ZM371.476 279.617H372.424C373.869 279.617 375.162 279.49 376.304 279.235C377.456 278.971 378.367 278.56 379.037 278.003C379.707 277.446 380.042 276.724 380.042 275.836C380.042 275.176 379.821 274.633 379.377 274.208C378.943 273.774 378.287 273.557 377.409 273.557C376.597 273.557 375.79 273.793 374.987 274.265C374.185 274.737 373.472 275.426 372.849 276.332C372.226 277.238 371.768 278.333 371.476 279.617ZM387.052 288.283C386.07 288.283 385.305 288.042 384.758 287.561C384.21 287.08 383.937 286.343 383.937 285.352C383.937 285.088 383.955 284.8 383.993 284.488C384.031 284.177 384.088 283.856 384.163 283.525L386.216 273.783H383.922L384.106 272.948L386.485 272.48L387.76 268.898H388.708L387.916 272.608H392.333L392.079 273.783H387.661L385.607 283.483C385.541 283.785 385.485 284.082 385.438 284.375C385.4 284.668 385.381 284.941 385.381 285.196C385.381 285.763 385.522 286.216 385.806 286.556C386.089 286.886 386.561 287.051 387.222 287.051C387.646 287.051 388.029 287.018 388.369 286.952C388.718 286.886 389.058 286.796 389.388 286.683V287.858C389.105 287.962 388.76 288.057 388.354 288.142C387.958 288.236 387.524 288.283 387.052 288.283ZM390.323 295.023C389.917 295.023 389.582 294.995 389.317 294.938C389.044 294.891 388.784 294.82 388.539 294.726V293.48C388.775 293.565 389.034 293.636 389.317 293.692C389.601 293.749 389.926 293.777 390.294 293.777C391.031 293.777 391.677 293.518 392.234 292.999C392.801 292.479 393.391 291.686 394.004 290.62L395.534 287.958L393.042 272.608H394.486L395.93 281.939C396.025 282.544 396.105 283.138 396.171 283.724C396.246 284.299 396.303 284.833 396.341 285.324C396.388 285.805 396.416 286.211 396.426 286.542H396.511C396.643 286.249 396.822 285.871 397.049 285.409C397.275 284.946 397.526 284.446 397.799 283.908C398.073 283.36 398.356 282.832 398.649 282.322L404.001 272.608H405.545L395.265 291.073C394.793 291.913 394.311 292.626 393.82 293.211C393.339 293.806 392.815 294.254 392.249 294.556C391.692 294.868 391.05 295.023 390.323 295.023Z" fill="white"/>
<path d="M27.8607 303.867C29.267 303.867 30.4272 304.043 31.3412 304.395C32.2631 304.738 32.9506 305.266 33.4037 305.977C33.8568 306.688 34.0834 307.594 34.0834 308.695C34.0834 309.602 33.9193 310.359 33.5912 310.969C33.2631 311.57 32.8334 312.059 32.3022 312.434C31.7709 312.809 31.2045 313.098 30.6029 313.301L35.3022 321H32.9818L28.7865 313.852H25.224V321H23.2318V303.867H27.8607ZM27.7436 305.59H25.224V312.164H27.9428C29.3412 312.164 30.3686 311.879 31.0248 311.309C31.6889 310.738 32.0209 309.898 32.0209 308.789C32.0209 307.625 31.6693 306.801 30.9662 306.316C30.2709 305.832 29.1967 305.59 27.7436 305.59ZM48.7904 321L46.6811 315.562H39.8139L37.7162 321H35.7006L42.4037 303.797H44.1967L50.8529 321H48.7904ZM46.0834 313.793L44.0795 308.391C44.0326 308.25 43.9545 308.02 43.8451 307.699C43.7436 307.379 43.6381 307.047 43.5287 306.703C43.4193 306.359 43.3295 306.082 43.2592 305.871C43.1811 306.191 43.0951 306.512 43.0014 306.832C42.9154 307.145 42.8295 307.438 42.7436 307.711C42.6576 307.977 42.5834 308.203 42.5209 308.391L40.4818 313.793H46.0834ZM60.767 321L55.0131 305.836H54.9193C54.9506 306.156 54.9779 306.547 55.0014 307.008C55.0248 307.469 55.0443 307.973 55.06 308.52C55.0756 309.059 55.0834 309.609 55.0834 310.172V321H53.2318V303.867H56.185L61.6107 318.117H61.6928L67.2006 303.867H70.1303V321H68.1615V310.031C68.1615 309.523 68.1693 309.016 68.185 308.508C68.2006 307.992 68.2201 307.508 68.2436 307.055C68.267 306.594 68.2904 306.195 68.3139 305.859H68.2201L62.3959 321H60.767ZM85.5639 321L83.4545 315.562H76.5873L74.4897 321H72.474L79.1772 303.797H80.9701L87.6264 321H85.5639ZM82.8568 313.793L80.8529 308.391C80.8061 308.25 80.7279 308.02 80.6186 307.699C80.517 307.379 80.4115 307.047 80.3022 306.703C80.1928 306.359 80.1029 306.082 80.0326 305.871C79.9545 306.191 79.8686 306.512 79.7748 306.832C79.6889 307.145 79.6029 307.438 79.517 307.711C79.4311 307.977 79.3568 308.203 79.2943 308.391L77.2553 313.793H82.8568ZM105.779 321H96.2397V303.867H105.779V305.625H98.2318V311.168H105.345V312.902H98.2318V319.242H105.779V321ZM119.244 316.441C119.244 317.457 118.99 318.324 118.482 319.043C117.982 319.754 117.279 320.297 116.372 320.672C115.466 321.047 114.4 321.234 113.173 321.234C112.525 321.234 111.912 321.203 111.333 321.141C110.755 321.078 110.224 320.988 109.74 320.871C109.255 320.754 108.829 320.609 108.462 320.438V318.527C109.048 318.77 109.763 318.996 110.607 319.207C111.451 319.41 112.333 319.512 113.255 319.512C114.115 319.512 114.841 319.398 115.435 319.172C116.029 318.938 116.478 318.605 116.783 318.176C117.095 317.738 117.251 317.215 117.251 316.605C117.251 316.02 117.122 315.531 116.865 315.141C116.607 314.742 116.177 314.383 115.576 314.062C114.982 313.734 114.169 313.387 113.138 313.02C112.412 312.762 111.771 312.48 111.216 312.176C110.662 311.863 110.197 311.512 109.822 311.121C109.447 310.73 109.162 310.277 108.966 309.762C108.779 309.246 108.685 308.656 108.685 307.992C108.685 307.078 108.915 306.297 109.376 305.648C109.845 304.992 110.49 304.492 111.31 304.148C112.138 303.797 113.087 303.621 114.158 303.621C115.072 303.621 115.915 303.707 116.689 303.879C117.47 304.051 118.185 304.281 118.833 304.57L118.212 306.281C117.595 306.023 116.939 305.809 116.244 305.637C115.556 305.465 114.845 305.379 114.111 305.379C113.376 305.379 112.755 305.488 112.247 305.707C111.747 305.918 111.365 306.219 111.099 306.609C110.833 307 110.701 307.465 110.701 308.004C110.701 308.605 110.826 309.105 111.076 309.504C111.333 309.902 111.74 310.258 112.294 310.57C112.857 310.875 113.599 311.195 114.521 311.531C115.529 311.898 116.384 312.289 117.087 312.703C117.79 313.109 118.326 313.609 118.693 314.203C119.06 314.789 119.244 315.535 119.244 316.441ZM128.009 321H126.005V305.625H120.615V303.867H133.376V305.625H128.009V321ZM148.927 303.867V314.953C148.927 316.164 148.681 317.242 148.189 318.188C147.704 319.133 146.97 319.879 145.986 320.426C145.001 320.965 143.767 321.234 142.283 321.234C140.165 321.234 138.552 320.66 137.443 319.512C136.341 318.363 135.79 316.828 135.79 314.906V303.867H137.794V314.965C137.794 316.418 138.177 317.539 138.943 318.328C139.716 319.117 140.869 319.512 142.4 319.512C143.447 319.512 144.302 319.324 144.966 318.949C145.638 318.566 146.134 318.035 146.454 317.355C146.783 316.668 146.947 315.875 146.947 314.977V303.867H148.927ZM167.079 312.27C167.079 314.199 166.728 315.812 166.025 317.109C165.322 318.398 164.302 319.371 162.966 320.027C161.638 320.676 160.025 321 158.126 321H153.474V303.867H158.642C160.384 303.867 161.884 304.188 163.142 304.828C164.4 305.461 165.369 306.402 166.048 307.652C166.736 308.895 167.079 310.434 167.079 312.27ZM164.982 312.34C164.982 310.801 164.724 309.531 164.208 308.531C163.701 307.531 162.951 306.789 161.958 306.305C160.974 305.812 159.767 305.566 158.337 305.566H155.466V319.289H157.892C160.251 319.289 162.021 318.707 163.201 317.543C164.388 316.379 164.982 314.645 164.982 312.34ZM170.888 321V303.867H172.88V321H170.888ZM188.337 321L186.228 315.562H179.361L177.263 321H175.247L181.951 303.797H183.744L190.4 321H188.337ZM185.63 313.793L183.626 308.391C183.579 308.25 183.501 308.02 183.392 307.699C183.29 307.379 183.185 307.047 183.076 306.703C182.966 306.359 182.876 306.082 182.806 305.871C182.728 306.191 182.642 306.512 182.548 306.832C182.462 307.145 182.376 307.438 182.29 307.711C182.204 307.977 182.13 308.203 182.068 308.391L180.029 313.793H185.63ZM206.173 321H203.876L194.537 306.609H194.443C194.466 306.992 194.494 307.43 194.525 307.922C194.556 308.406 194.579 308.926 194.595 309.48C194.619 310.027 194.63 310.586 194.63 311.156V321H192.779V303.867H195.064L204.369 318.211H204.451C204.435 317.938 204.415 317.551 204.392 317.051C204.369 316.543 204.345 316 204.322 315.422C204.306 314.836 204.298 314.293 204.298 313.793V303.867H206.173V321ZM216.111 321H214.107V305.625H208.716V303.867H221.478V305.625H216.111V321ZM224.068 321V303.867H226.06V321H224.068ZM230.771 321V303.867H232.763V319.219H240.369V321H230.771ZM249.544 321V303.867H251.537V321H249.544ZM265.787 321H256.247V303.867H265.787V305.625H258.24V311.168H265.353V312.902H258.24V319.242H265.787V321ZM279.122 321H269.583V303.867H279.122V305.625H271.576V311.168H278.689V312.902H271.576V319.242H279.122V321ZM292.458 321H282.919V303.867H292.458V305.625H284.912V311.168H292.025V312.902H284.912V319.242H292.458V321ZM315.451 303.867V314.953C315.451 316.164 315.204 317.242 314.712 318.188C314.228 319.133 313.494 319.879 312.509 320.426C311.525 320.965 310.29 321.234 308.806 321.234C306.689 321.234 305.076 320.66 303.966 319.512C302.865 318.363 302.314 316.828 302.314 314.906V303.867H304.318V314.965C304.318 316.418 304.701 317.539 305.466 318.328C306.24 319.117 307.392 319.512 308.923 319.512C309.97 319.512 310.826 319.324 311.49 318.949C312.162 318.566 312.658 318.035 312.978 317.355C313.306 316.668 313.47 315.875 313.47 314.977V303.867H315.451ZM324.474 303.867C326.685 303.867 328.298 304.301 329.314 305.168C330.337 306.027 330.849 307.262 330.849 308.871C330.849 309.598 330.728 310.289 330.486 310.945C330.251 311.594 329.869 312.168 329.337 312.668C328.806 313.16 328.107 313.551 327.24 313.84C326.38 314.121 325.326 314.262 324.076 314.262H321.99V321H319.997V303.867H324.474ZM324.287 305.566H321.99V312.551H323.853C324.947 312.551 325.857 312.434 326.583 312.199C327.318 311.965 327.869 311.586 328.236 311.062C328.603 310.531 328.787 309.828 328.787 308.953C328.787 307.812 328.423 306.965 327.697 306.41C326.97 305.848 325.833 305.566 324.287 305.566ZM334.435 321V303.867H336.427V321H334.435ZM341.138 321V303.867H343.13V321H341.138ZM353.103 321H351.099V305.625H345.708V303.867H358.47V305.625H353.103V321ZM371.806 321L369.697 315.562H362.829L360.732 321H358.716L365.419 303.797H367.212L373.869 321H371.806ZM369.099 313.793L367.095 308.391C367.048 308.25 366.97 308.02 366.861 307.699C366.759 307.379 366.654 307.047 366.544 306.703C366.435 306.359 366.345 306.082 366.275 305.871C366.197 306.191 366.111 306.512 366.017 306.832C365.931 307.145 365.845 307.438 365.759 307.711C365.673 307.977 365.599 308.203 365.537 308.391L363.497 313.793H369.099ZM374.865 315.422V313.688H380.677V315.422H374.865ZM383.982 321V303.867H385.974V321H383.982ZM395.162 303.867C397.372 303.867 398.986 304.301 400.001 305.168C401.025 306.027 401.537 307.262 401.537 308.871C401.537 309.598 401.415 310.289 401.173 310.945C400.939 311.594 400.556 312.168 400.025 312.668C399.494 313.16 398.794 313.551 397.927 313.84C397.068 314.121 396.013 314.262 394.763 314.262H392.677V321H390.685V303.867H395.162ZM394.974 305.566H392.677V312.551H394.54C395.634 312.551 396.544 312.434 397.271 312.199C398.005 311.965 398.556 311.586 398.923 311.062C399.29 310.531 399.474 309.828 399.474 308.953C399.474 307.812 399.111 306.965 398.384 306.41C397.658 305.848 396.521 305.566 394.974 305.566ZM418.517 321H416.22L406.88 306.609H406.787C406.81 306.992 406.837 307.43 406.869 307.922C406.9 308.406 406.923 308.926 406.939 309.48C406.962 310.027 406.974 310.586 406.974 311.156V321H405.122V303.867H407.408L416.712 318.211H416.794C416.779 317.938 416.759 317.551 416.736 317.051C416.712 316.543 416.689 316 416.665 315.422C416.65 314.836 416.642 314.293 416.642 313.793V303.867H418.517V321Z" fill="white"/>
</svg>
