<svg width="604" height="559" viewBox="0 0 604 559" fill="none" xmlns="http://www.w3.org/2000/svg">
<g clip-path="url(#clip0_44_11412)">
<path d="M-1 403L603.5 403" stroke="white" stroke-width="3" stroke-miterlimit="10"/>
<path d="M119.043 529.222L119.337 529.516C119.211 532.33 119.127 535.648 119.127 542.872C119.127 550.936 119.211 554.38 119.463 558.706L119.211 559C117.363 559.042 116.775 559.042 114.549 559.126L114.297 558.832C114.381 556.27 114.465 554.044 114.465 548.626C114.465 542.284 114.465 535.984 114.171 529.684L114.381 529.348C116.229 529.348 116.901 529.348 119.043 529.222ZM144.452 555.262L144.704 555.556C144.578 556.984 144.578 557.278 144.494 558.706L144.2 559C136.01 559 134.708 559.042 126.728 559.126L126.518 558.832C126.644 555.514 126.77 553.246 126.77 545.56C126.77 538.504 126.77 534.472 126.476 529.642L126.728 529.348C135.002 529.306 136.64 529.306 144.368 529.222L144.62 529.516C144.494 530.776 144.41 531.28 144.326 532.792L144.074 533.086C138.656 532.918 136.85 532.918 131.516 532.876C131.39 536.74 131.39 537.958 131.39 541.822C136.556 541.864 138.152 541.822 143.276 541.738L143.486 542.032C143.318 543.502 143.318 543.922 143.276 545.266L143.024 545.56C138.152 545.434 137.102 545.434 131.39 545.434C131.306 550.306 131.348 551.482 131.39 555.472C137.732 555.472 139.034 555.472 144.452 555.262ZM167.216 555.262L167.468 555.556C167.342 556.984 167.342 557.278 167.258 558.706L166.964 559C158.774 559 157.472 559.042 149.492 559.126L149.282 558.832C149.408 555.514 149.534 553.246 149.534 545.56C149.534 538.504 149.534 534.472 149.24 529.642L149.492 529.348C157.766 529.306 159.404 529.306 167.132 529.222L167.384 529.516C167.258 530.776 167.174 531.28 167.09 532.792L166.838 533.086C161.42 532.918 159.614 532.918 154.28 532.876C154.154 536.74 154.154 537.958 154.154 541.822C159.32 541.864 160.916 541.822 166.04 541.738L166.25 542.032C166.082 543.502 166.082 543.922 166.04 545.266L165.788 545.56C160.916 545.434 159.866 545.434 154.154 545.434C154.07 550.306 154.112 551.482 154.154 555.472C160.496 555.472 161.798 555.472 167.216 555.262ZM189.98 555.262L190.232 555.556C190.106 556.984 190.106 557.278 190.022 558.706L189.728 559C181.538 559 180.236 559.042 172.256 559.126L172.046 558.832C172.172 555.514 172.298 553.246 172.298 545.56C172.298 538.504 172.298 534.472 172.004 529.642L172.256 529.348C180.53 529.306 182.168 529.306 189.896 529.222L190.147 529.516C190.022 530.776 189.938 531.28 189.854 532.792L189.602 533.086C184.184 532.918 182.378 532.918 177.044 532.876C176.918 536.74 176.918 537.958 176.918 541.822C182.084 541.864 183.68 541.822 188.804 541.738L189.014 542.032C188.846 543.502 188.846 543.922 188.804 545.266L188.552 545.56C183.68 545.434 182.63 545.434 176.918 545.434C176.834 550.306 176.876 551.482 176.918 555.472C183.26 555.472 184.562 555.472 189.98 555.262ZM215.809 541.276L217.909 542.2C220.975 543.544 225.049 545.308 225.049 550.684C225.049 555.388 221.563 559.63 214.255 559.63C209.803 559.63 206.947 558.286 205.939 557.782L205.771 557.488C205.939 556.018 205.981 555.22 206.107 553.624L206.527 553.456C207.577 554.17 210.013 555.934 213.919 555.934C218.245 555.934 220.051 553.708 220.051 551.188C220.051 548.248 217.615 547.114 214.885 546.064L212.785 545.14C209.803 543.754 205.813 541.948 205.813 536.824C205.813 535.27 206.233 533.674 207.115 532.414C209.047 529.642 212.533 528.718 215.935 528.718C219.253 528.718 221.269 529.348 223.495 530.062L223.705 530.398C223.537 531.994 223.495 532.582 223.369 534.094L223.033 534.262C221.227 533.338 219.253 532.33 216.103 532.33C212.617 532.33 210.433 533.968 210.433 536.446C210.433 538.336 211.693 539.218 212.575 539.764C213.121 540.1 213.289 540.184 215.809 541.276ZM238.993 555.43L239.287 555.682C239.161 557.068 239.161 557.362 239.119 558.58L238.909 558.832C238.027 559.042 237.313 559.21 235.759 559.21C234.751 559.21 232.105 559.21 230.803 557.026C230.047 555.808 230.047 554.8 230.047 549.844L230.131 540.604C228.661 540.604 228.619 540.646 227.107 540.688L226.939 540.436C227.023 539.092 227.023 538.756 227.023 537.412L227.275 537.16C228.199 537.16 228.745 537.202 230.131 537.16C230.089 536.278 230.089 535.354 230.089 534.472C230.047 533.674 230.005 532.876 229.963 532.078L230.173 531.784C232.063 531.322 232.525 531.196 234.457 530.608L234.751 530.818C234.625 533.59 234.583 534.136 234.583 537.202C236.347 537.16 236.851 537.16 239.245 537.076L239.455 537.328C239.371 538.42 239.329 538.882 239.329 540.31L239.119 540.562C237.019 540.52 236.767 540.478 234.541 540.478L234.457 548.29C234.499 548.794 234.499 551.188 234.499 551.776C234.499 554.842 234.877 555.808 236.977 555.808C237.859 555.808 238.531 555.598 238.993 555.43ZM261.147 536.992L261.399 537.286C261.315 540.478 261.273 543.46 261.273 546.862C261.273 552.028 261.399 555.136 261.483 556.942C261.483 557.53 261.525 558.118 261.567 558.706L261.399 558.958C259.383 559 259.047 559.042 257.115 559.126L256.863 558.874L256.905 557.11C255.981 557.782 253.755 559.504 250.311 559.504C248.673 559.504 246.867 559.126 245.523 558.076C242.835 555.892 242.835 552.322 242.793 549.046V546.442C242.709 540.436 242.709 539.764 242.583 537.496L242.793 537.202C244.767 537.16 245.145 537.16 247.119 536.992L247.371 537.286L247.203 546.484C247.203 547.618 247.161 548.458 247.203 550.474C247.245 552.238 247.329 556.018 251.571 556.018C254.049 556.018 255.813 554.632 256.821 553.834C256.863 551.566 256.863 549.634 256.863 547.198C256.863 541.36 256.821 540.184 256.569 537.454L256.821 537.16C258.753 537.118 259.215 537.118 261.147 536.992ZM281.181 526.618L281.391 526.366C283.533 525.988 283.953 525.904 285.843 525.484L286.137 525.736C285.843 531.574 285.801 541.99 285.801 546.19C285.801 552.7 285.969 555.808 286.137 558.706L285.927 559C284.079 559 283.575 559.042 281.643 559.126L281.349 558.874L281.433 557.32C280.425 558.076 278.703 559.42 275.637 559.42C270.051 559.42 266.187 555.01 266.187 548.626C266.187 544.048 268.119 541.15 269.883 539.596C272.949 536.824 276.939 536.698 279.123 536.698C280.005 536.698 280.425 536.698 281.559 536.782C281.601 531.574 281.391 529.054 281.181 526.618ZM281.391 553.834C281.475 548.332 281.475 547.072 281.433 540.184C280.719 540.142 280.215 540.058 279.333 540.058C278.031 540.058 275.259 540.142 273.243 542.032C272.319 542.914 270.807 544.888 270.807 548.626C270.807 551.02 271.479 552.742 272.361 553.792C273.117 554.674 274.503 555.682 276.687 555.682C279.249 555.682 280.803 554.338 281.391 553.834ZM308.901 553.666L309.237 553.876C309.027 555.556 308.985 555.976 308.901 557.614L308.649 557.908C307.935 558.286 305.667 559.504 301.929 559.504C295.041 559.504 290.715 555.556 290.715 548.248C290.715 540.436 295.419 536.614 300.921 536.614C304.239 536.614 306.549 538 307.809 539.512C310.203 542.368 310.119 546.526 310.077 548.374L309.783 548.626C303.231 548.584 302.097 548.584 295.209 548.626C295.251 550.096 295.377 552.154 296.805 553.876C298.527 555.934 300.921 556.144 302.223 556.144C303.441 556.144 304.701 555.934 305.877 555.514C307.431 554.884 308.355 554.128 308.901 553.666ZM305.751 545.392C305.709 544.804 305.667 543.88 305.331 542.914C304.491 540.604 302.643 539.638 300.753 539.638C298.401 539.638 295.629 541.234 295.209 545.434C300.291 545.476 301.887 545.434 305.751 545.392ZM333.429 558.706L333.177 558.958C331.161 559 330.909 559 328.977 559.126L328.683 558.832C328.683 558.37 328.725 557.908 328.725 557.446C328.767 555.388 328.767 553.33 328.767 551.272C328.767 544.804 328.725 544.384 328.515 543.502C327.717 540.31 325.323 540.31 324.735 540.31C322.215 540.31 320.283 541.78 319.149 542.662C319.107 549.97 319.191 553.792 319.485 558.706L319.233 558.958C317.175 559 316.839 559 314.823 559.126L314.613 558.832C314.655 556.48 314.739 554.212 314.739 551.104C314.739 544.384 314.445 540.814 314.235 538L314.487 537.706C316.587 537.328 316.965 537.244 318.939 536.866L319.233 537.16L319.191 539.344C320.283 538.588 322.887 536.74 326.583 536.74C327.633 536.74 328.935 536.908 330.069 537.538C331.161 538.168 332.043 539.134 332.505 540.268C333.051 541.528 333.093 542.788 333.135 545.392V550.306C333.261 555.22 333.303 557.11 333.429 558.706ZM348.381 555.43L348.675 555.682C348.549 557.068 348.549 557.362 348.507 558.58L348.297 558.832C347.415 559.042 346.701 559.21 345.147 559.21C344.139 559.21 341.493 559.21 340.191 557.026C339.435 555.808 339.435 554.8 339.435 549.844L339.519 540.604C338.049 540.604 338.007 540.646 336.495 540.688L336.327 540.436C336.411 539.092 336.411 538.756 336.411 537.412L336.663 537.16C337.587 537.16 338.133 537.202 339.519 537.16C339.477 536.278 339.477 535.354 339.477 534.472C339.435 533.674 339.393 532.876 339.351 532.078L339.561 531.784C341.451 531.322 341.913 531.196 343.845 530.608L344.139 530.818C344.013 533.59 343.971 534.136 343.971 537.202C345.735 537.16 346.239 537.16 348.633 537.076L348.843 537.328C348.759 538.42 348.717 538.882 348.717 540.31L348.507 540.562C346.407 540.52 346.155 540.478 343.929 540.478L343.845 548.29C343.887 548.794 343.887 551.188 343.887 551.776C343.887 554.842 344.265 555.808 346.365 555.808C347.247 555.808 347.919 555.598 348.381 555.43ZM372.383 559.084L364.991 559.126L364.781 558.832C364.865 556.816 364.907 554.884 364.907 551.062C364.907 549.256 364.949 540.478 364.949 538.504C364.949 534.094 364.823 531.826 364.655 529.642L364.865 529.348L370.493 529.264C371.333 529.222 372.635 529.222 373.769 529.222C376.247 529.222 378.893 529.306 380.993 530.524C382.547 531.406 384.311 533.17 384.311 536.278C384.311 537.748 383.891 541.948 378.053 543.376C379.019 543.418 380.405 543.46 381.917 544.132C385.529 545.728 385.907 548.92 385.907 550.474C385.907 554.338 383.513 557.068 380.153 558.286C377.927 559.084 375.701 559.084 372.383 559.084ZM370.535 545.518L369.527 545.56C369.527 550.348 369.527 551.062 369.695 555.64H370.493C373.643 555.64 376.205 555.682 377.843 555.01C379.859 554.254 380.993 552.49 380.993 550.39C380.993 545.476 375.575 545.434 373.559 545.434C373.181 545.434 372.803 545.434 370.535 545.518ZM369.527 532.708V542.032C373.307 542.074 376.205 542.032 377.969 540.646C379.019 539.764 379.691 538.378 379.691 536.992C379.691 535.858 379.229 534.766 378.515 534.01C377.045 532.582 374.441 532.582 373.475 532.582C372.131 532.582 370.829 532.624 369.527 532.708ZM400.817 541.318L400.523 541.528C400.103 541.36 399.557 541.15 398.843 541.15C398.045 541.15 397.457 541.444 397.079 541.696C395.357 542.914 395.357 544.762 395.357 549.13C395.357 553.876 395.483 556.354 395.651 558.706L395.441 559C393.467 559 393.005 559.042 390.989 559.126L390.779 558.874C390.821 555.682 390.863 552.784 390.863 548.878C390.863 542.158 390.737 540.436 390.485 538L390.737 537.706C392.333 537.412 393.341 537.202 395.105 536.866L395.357 537.118L395.147 540.688C395.651 539.344 396.701 536.656 400.271 536.656C400.817 536.656 401.111 536.698 401.447 536.782L401.615 537.034C401.195 539.05 401.111 539.47 400.817 541.318ZM420.767 546.19V550.348C420.767 555.556 420.809 556.018 421.019 558.748L420.809 558.958C418.835 559 418.499 559.042 416.567 559.126L416.399 558.874L416.441 557.362C415.643 557.992 413.753 559.504 410.561 559.504C406.361 559.504 403.421 556.648 403.421 552.49C403.421 546.862 408.125 545.056 415.685 544.174L416.399 544.09C416.399 542.956 416.399 542.158 416.021 541.486C415.601 540.73 414.635 539.932 412.535 539.932C409.805 539.932 407.915 540.772 406.151 541.528L405.815 541.318C405.899 539.386 405.899 539.134 405.941 538.252L406.193 538C408.545 537.16 410.981 536.614 413.459 536.614C416.567 536.614 419.591 537.664 420.473 540.94C420.767 542.116 420.767 544.426 420.767 546.19ZM416.441 547.198L416.063 547.282C411.821 547.912 407.873 548.5 407.873 552.238C407.873 552.448 407.873 556.06 411.863 556.06C414.467 556.06 415.979 554.632 416.441 554.212V547.198ZM445.484 558.706L445.232 558.958C443.216 559 442.964 559 441.032 559.126L440.738 558.832C440.738 558.37 440.78 557.908 440.78 557.446C440.822 555.388 440.822 553.33 440.822 551.272C440.822 544.804 440.78 544.384 440.57 543.502C439.772 540.31 437.378 540.31 436.79 540.31C434.27 540.31 432.338 541.78 431.204 542.662C431.162 549.97 431.246 553.792 431.54 558.706L431.288 558.958C429.23 559 428.894 559 426.878 559.126L426.668 558.832C426.71 556.48 426.794 554.212 426.794 551.104C426.794 544.384 426.5 540.814 426.29 538L426.542 537.706C428.642 537.328 429.02 537.244 430.994 536.866L431.288 537.16L431.246 539.344C432.338 538.588 434.942 536.74 438.638 536.74C439.688 536.74 440.99 536.908 442.124 537.538C443.216 538.168 444.098 539.134 444.56 540.268C445.106 541.528 445.148 542.788 445.19 545.392V550.306C445.316 555.22 445.358 557.11 445.484 558.706ZM466.568 553.834L466.904 554.002C466.736 555.808 466.694 556.018 466.568 557.74L466.274 558.034C465.056 558.622 463.418 559.462 460.478 559.462C454.136 559.462 450.02 554.884 450.02 548.332C450.02 541.654 454.052 536.614 460.562 536.614C463.292 536.614 465.224 537.496 466.316 537.958L466.484 538.252C466.316 539.764 466.274 540.31 466.19 541.57L465.854 541.738C464.468 540.73 462.872 540.1 461.192 540.1C457.706 540.1 454.64 542.788 454.64 548.164C454.64 553.876 457.874 555.934 461.15 555.934C464.006 555.934 465.77 554.464 466.568 553.834ZM489.206 558.706L488.954 558.958C486.938 559 486.686 559 484.754 559.126L484.46 558.832L484.502 557.446C484.544 555.262 484.544 553.036 484.544 550.852L484.502 546.358C484.502 545.392 484.502 544.426 484.292 543.502C483.83 541.57 482.654 540.31 480.512 540.31C478.118 540.31 476.27 541.654 474.884 542.662C474.842 549.97 474.926 553.792 475.178 558.706L474.968 558.958C473.036 559 472.532 559 470.474 559.126L470.264 558.832C470.348 555.85 470.474 552.07 470.474 544.006C470.474 540.478 470.432 536.95 470.39 533.422C470.306 529.726 470.18 528.508 470.054 526.618L470.264 526.366C472.28 526.03 472.952 525.904 474.842 525.484L475.094 525.778C474.842 530.272 474.842 534.808 474.842 539.344C476.186 538.462 478.832 536.74 482.36 536.74C483.326 536.74 484.292 536.866 485.174 537.244C487.064 538 488.198 539.512 488.618 541.234C488.828 542.074 488.828 542.578 488.912 545.392V550.306L488.954 552.28C489.038 555.808 489.038 556.396 489.206 558.706Z" fill="white"/>
<path d="M208.56 482.968L208.8 483.256L208.656 497.512V502.408C208.56 508.504 208.368 511.288 205.824 513.976C202.272 517.72 196.992 517.72 195.264 517.72C188.832 517.72 185.136 515.32 183.312 512.728C181.632 510.424 181.344 507.832 181.2 502.648V499.096C181.152 491.608 181.152 490.264 180.96 483.4L181.248 483.112C184.512 483.16 185.616 483.16 189.696 482.968L189.936 483.256C189.84 488.008 189.792 491.704 189.792 495.592C189.792 498.136 189.792 500.68 189.888 503.224C189.984 506.248 190.272 507.928 190.992 509.176C192.048 510.856 193.92 511.72 195.888 511.72C197.472 511.72 199.056 511.192 200.112 509.992C201.408 508.456 201.552 506.152 201.552 501.112C201.552 495.208 201.312 489.304 201.072 483.4L201.36 483.112C204.096 483.16 205.056 483.16 208.56 482.968ZM221.71 483.016L225.934 482.92C229.534 482.92 233.614 482.92 236.494 484.6C240.478 486.856 240.958 491.416 240.958 493.48C240.958 496.84 239.806 499.576 238.462 501.208C235.006 505.432 229.246 505.432 223.87 505.384C223.87 510.28 223.87 511.48 224.062 516.712L223.822 517C219.982 516.952 219.214 517 215.662 517.144L215.374 516.856C215.518 511 215.662 505.192 215.662 499.336C215.662 493.816 215.518 489.64 215.326 483.4L215.614 483.112L221.71 483.016ZM223.87 488.824V499.48C226.75 499.48 228.526 499.384 229.822 498.664C232.366 497.272 232.366 494.488 232.366 493.816C232.366 491.032 231.214 488.872 226.99 488.776C225.934 488.776 224.926 488.776 223.87 488.824ZM254.158 482.968L254.398 483.256C254.254 489.88 254.158 496.504 254.158 503.128C254.158 510.088 254.254 512.296 254.494 516.712L254.206 517C250.222 517 249.262 517 245.662 517.144L245.422 516.856C245.614 511.864 245.71 508.936 245.71 503.272C245.71 491.032 245.566 488.584 245.278 483.4L245.47 483.112C248.926 483.16 250.03 483.16 254.158 482.968ZM270.237 482.968L270.477 483.256C270.333 489.88 270.237 496.504 270.237 503.128C270.237 510.088 270.333 512.296 270.573 516.712L270.285 517C266.301 517 265.341 517 261.741 517.144L261.501 516.856C261.693 511.864 261.789 508.936 261.789 503.272C261.789 491.032 261.645 488.584 261.357 483.4L261.549 483.112C265.005 483.16 266.109 483.16 270.237 482.968ZM297.715 489.448L290.275 489.256C290.179 492.328 290.131 493.816 290.131 496.456C290.131 503.224 290.227 509.944 290.467 516.664L290.179 516.952C286.195 516.952 285.235 517 281.683 517.144L281.395 516.856C281.779 504.952 281.779 501.928 281.731 489.352L273.907 489.544L273.667 489.256L274.003 483.352L274.339 483.064H298.099L298.339 483.208L298.003 489.208L297.715 489.448ZM316.889 482.968L317.225 483.256C319.961 493.816 320.633 496.072 326.441 516.616L326.201 517C322.313 516.952 321.353 517 317.849 517.144L317.513 516.856L315.449 507.976H305.081L302.729 516.712L302.393 517H294.905L294.713 516.664C301.769 496.408 303.305 491.56 305.849 483.4L306.185 483.112C311.321 483.112 312.281 483.112 316.889 482.968ZM306.761 502.168H314.057L312.281 494.68L310.841 488.44L309.161 494.056L306.761 502.168ZM342.761 500.344L343.001 500.584L342.665 506.152L342.377 506.44C340.025 506.44 337.673 506.392 335.321 506.392C332.777 506.392 331.193 506.44 328.505 506.488L328.265 506.2L328.553 500.68L328.889 500.392C331.145 500.392 333.449 500.44 335.753 500.44C338.585 500.44 340.457 500.392 342.761 500.344ZM356.393 482.968L356.633 483.256C356.489 489.88 356.393 496.504 356.393 503.128C356.393 510.088 356.489 512.296 356.729 516.712L356.441 517C352.457 517 351.497 517 347.897 517.144L347.657 516.856C347.849 511.864 347.945 508.936 347.945 503.272C347.945 491.032 347.801 488.584 347.513 483.4L347.705 483.112C351.161 483.16 352.265 483.16 356.393 482.968ZM370.023 483.016L374.247 482.92C377.847 482.92 381.927 482.92 384.807 484.6C388.791 486.856 389.271 491.416 389.271 493.48C389.271 496.84 388.119 499.576 386.775 501.208C383.319 505.432 377.559 505.432 372.183 505.384C372.183 510.28 372.183 511.48 372.375 516.712L372.135 517C368.295 516.952 367.527 517 363.975 517.144L363.687 516.856C363.831 511 363.975 505.192 363.975 499.336C363.975 493.816 363.831 489.64 363.639 483.4L363.927 483.112L370.023 483.016ZM372.183 488.824V499.48C375.063 499.48 376.839 499.384 378.135 498.664C380.679 497.272 380.679 494.488 380.679 493.816C380.679 491.032 379.527 488.872 375.303 488.776C374.247 488.776 373.239 488.776 372.183 488.824ZM422.439 482.968L422.727 483.256C422.679 488.632 422.631 493.96 422.631 499.336C422.631 505.096 422.679 509.8 422.727 516.76L422.487 517C419.943 517 419.079 517 416.151 517.144L415.815 516.904L411.543 510.664L406.743 503.608C403.479 498.856 402.711 497.608 400.455 493.864L400.743 500.296L400.887 506.2L401.367 516.712L401.127 517C398.343 517 397.335 517 394.119 517.144L393.879 516.856C393.927 512.2 394.023 507.496 394.023 502.792C394.023 496.36 393.879 490.84 393.639 483.4L393.879 483.112C397.383 483.16 398.007 483.16 401.799 482.968L402.135 483.208C403.335 485.128 404.055 486.184 407.655 491.656L412.023 498.04C414.471 501.688 414.711 502.072 416.103 504.424L415.911 496.504L415.719 489.88L415.383 483.4L415.623 483.112C418.599 483.16 419.415 483.112 422.439 482.968Z" fill="white"/>
<path d="M273.15 142.486C272.221 139.262 271.183 136.148 270.09 133.033C269.926 132.924 269.763 132.815 269.599 132.706C270.965 135.875 272.112 139.153 273.205 142.486H273.15Z" fill="white"/>
<path d="M269.325 248.759C269.325 248.759 269.708 248.541 269.872 248.431C271.128 244.935 272.33 241.383 273.368 237.722C272.166 241.492 270.855 245.153 269.325 248.759Z" fill="white"/>
<path d="M269.271 226.138L269.38 225.756C264.682 226.794 259.928 227.778 255.174 228.706C259.764 228.105 264.244 227.34 268.616 226.302L269.326 226.138H269.271Z" fill="white"/>
<path d="M269.271 226.138L269.38 225.756C264.682 226.794 259.928 227.778 255.174 228.706C259.764 228.105 264.244 227.34 268.616 226.302L269.326 226.138H269.271Z" fill="white"/>
<path d="M286.537 228.324V229.198H284.024C281.292 230.127 278.505 231.001 275.664 231.766L275.008 231.93C280.855 230.673 286.646 229.253 292.329 227.723C295.389 224.117 298.121 220.565 300.361 217.615C298.339 218.216 296.263 218.817 294.187 219.418C292.766 222.095 291.236 224.663 289.433 227.177C288.45 227.559 287.466 227.942 286.483 228.324H286.537Z" fill="white"/>
<path d="M286.537 228.324C285.717 228.652 284.898 228.925 284.023 229.198H286.537V228.324Z" fill="white"/>
<path d="M286.537 228.324C285.717 228.652 284.898 228.925 284.023 229.198H286.537V228.324Z" fill="white"/>
<path d="M269.872 248.377C268.232 252.857 266.429 257.173 264.408 261.381C280.417 254.168 293.203 241.383 300.797 225.374C298.011 226.193 295.17 226.958 292.383 227.723C285.936 235.318 277.958 243.459 269.872 248.377Z" fill="white"/>
<path d="M275.064 232.039C275.064 232.039 274.954 232.039 274.9 232.039C274.408 233.952 273.915 235.81 273.369 237.667C273.915 235.974 274.408 234.28 274.9 232.586L275.064 231.985V232.039Z" fill="white"/>
<path d="M269.326 248.759C270.856 245.208 272.222 241.492 273.369 237.722C273.916 235.864 274.408 233.952 274.899 232.094C270.856 233.023 266.813 233.843 262.769 234.662C263.589 234.498 264.354 234.389 265.174 234.225L267.195 233.843L266.54 235.755C264.463 241.929 261.786 247.94 258.453 253.95C251.732 256.463 244.575 257.993 237.144 258.376V238.869C234.794 239.197 232.39 239.471 230.041 239.744V258.321C222.5 257.939 215.288 256.299 208.622 253.677C206.491 249.852 204.688 246.027 203.104 242.148C200.536 242.312 198.022 242.421 195.454 242.53C196.11 244.388 196.82 246.246 197.585 248.049C195.017 246.464 192.558 244.661 190.263 242.749C185.783 242.913 181.248 242.967 176.713 242.967C190.864 258.266 211.136 267.883 233.647 267.883C244.793 267.883 255.229 265.533 264.518 261.326C266.54 257.119 268.343 252.802 269.982 248.322C269.818 248.431 269.599 248.541 269.435 248.65L269.326 248.759Z" fill="white"/>
<path d="M269.326 248.759C270.856 245.208 272.222 241.492 273.369 237.722C273.916 235.864 274.408 233.952 274.899 232.094C270.856 233.023 266.813 233.843 262.769 234.662C263.589 234.498 264.354 234.389 265.174 234.225L267.195 233.843L266.54 235.755C264.463 241.929 261.786 247.94 258.453 253.95C251.732 256.463 244.575 257.993 237.144 258.376V238.869C234.794 239.197 232.39 239.471 230.041 239.744V258.321C222.5 257.939 215.288 256.299 208.622 253.677C206.491 249.852 204.688 246.027 203.104 242.148C200.536 242.312 198.022 242.421 195.454 242.53C196.11 244.388 196.82 246.246 197.585 248.049C195.017 246.464 192.558 244.661 190.263 242.749C185.783 242.913 181.248 242.967 176.713 242.967C190.864 258.266 211.136 267.883 233.647 267.883C244.793 267.883 255.229 265.533 264.518 261.326C266.54 257.119 268.343 252.802 269.982 248.322C269.818 248.431 269.599 248.541 269.435 248.65L269.326 248.759Z" fill="white"/>
<path d="M186.985 195.158C187.203 203.955 188.132 213.08 189.826 222.041L186.985 195.158Z" fill="white"/>
<path d="M186.985 195.158C187.203 203.955 188.132 213.08 189.826 222.041L186.985 195.158Z" fill="white"/>
<path d="M175.838 226.466C180.811 228.597 186.056 230.346 191.356 231.766L192.012 231.93L192.176 232.586C192.503 233.733 192.831 234.881 193.159 236.028C195.618 235.919 198.077 235.755 200.535 235.591L199.934 233.788L201.956 234.17C203.814 234.498 205.617 234.826 207.474 235.099C223.648 233.788 239.602 231.657 255.174 228.706C249.765 229.362 244.192 229.799 238.346 229.908H237.143V194.011H273.096V195.213C272.823 205.977 271.73 215.921 269.49 225.428V225.756C271.074 225.373 272.768 224.991 274.462 224.608V148.059H274.79C274.298 146.201 273.806 144.344 273.26 142.486C272.222 139.153 271.02 135.875 269.654 132.706C269.818 132.815 269.982 132.924 270.145 133.033C268.397 128.28 266.485 123.69 264.354 119.21C254.901 115.112 244.52 112.872 233.592 112.872C190.755 112.872 156.059 147.567 156.059 190.404C156.059 207.725 161.742 223.68 171.303 236.574C175.401 236.574 179.445 236.52 183.488 236.411C180.647 233.351 178.079 230.018 175.893 226.466H175.838ZM237.089 122.488C244.629 122.871 251.787 124.51 258.507 127.132C261.786 133.033 264.408 138.989 266.539 145.109L267.195 147.021L265.173 146.639C256.158 144.945 247.088 144.016 238.291 143.797H237.143V122.433L237.089 122.488ZM237.089 150.955H238.291C249 151.228 258.999 152.321 268.506 154.561L269.217 154.725L269.381 155.435C271.621 164.943 272.714 174.942 272.932 185.651V186.853H237.034V150.9L237.089 150.955ZM229.986 229.963H228.784C218.02 229.69 208.075 228.597 198.568 226.357L197.858 226.193L197.694 225.483C195.454 215.921 194.361 205.977 194.143 195.267V194.065H230.04V230.018L229.986 229.963ZM200.59 145.109C202.666 138.989 205.289 132.979 208.567 127.132C215.233 124.51 222.446 122.871 229.931 122.488V143.797H228.784C219.987 144.07 210.917 144.945 201.901 146.639L199.88 147.021L200.535 145.109H200.59ZM197.803 154.725L198.514 154.561C208.075 152.321 218.074 151.228 228.729 150.955H229.931V186.853H193.979V185.651C194.252 174.942 195.345 164.943 197.585 155.435L197.749 154.725H197.803ZM197.53 132.76C195.399 137.732 193.651 142.978 192.23 148.278L192.066 148.933L191.411 149.097C186.056 150.518 180.865 152.266 175.893 154.397C181.357 145.655 188.788 138.224 197.53 132.706V132.76ZM170.265 165.489C176.166 162.211 182.122 159.588 188.242 157.512L190.154 156.856L189.771 158.878C188.078 167.838 187.203 176.963 186.93 185.76V186.908H165.566C165.949 179.367 167.588 172.21 170.211 165.544L170.265 165.489ZM170.265 215.429C167.643 208.763 166.003 201.551 165.621 194.011H186.93V195.158L189.771 222.04L190.154 224.062L188.242 223.406C182.122 221.33 176.166 218.707 170.265 215.429Z" fill="white"/>
<path d="M274.407 224.608C275.172 224.445 275.937 224.281 276.702 224.062C278.833 213.298 279.98 202.042 279.98 190.459C279.98 175.652 278.123 161.391 274.735 148.059H274.407V224.608Z" fill="white"/>
<path d="M274.407 224.608C275.172 224.445 275.937 224.281 276.702 224.062C278.833 213.298 279.98 202.042 279.98 190.459C279.98 175.652 278.123 161.391 274.735 148.059H274.407V224.608Z" fill="white"/>
<path d="M289.542 227.177C291.291 224.718 292.875 222.15 294.296 219.418C291.728 220.128 289.16 220.839 286.592 221.549V228.324C287.575 227.942 288.559 227.559 289.542 227.177Z" fill="white"/>
<path d="M289.542 227.177C291.291 224.718 292.875 222.15 294.296 219.418C291.728 220.128 289.16 220.839 286.592 221.549V228.324C287.575 227.942 288.559 227.559 289.542 227.177Z" fill="white"/>
<path d="M275.062 231.93L275.718 231.766C278.559 231.001 281.291 230.127 284.078 229.198H275.609C275.39 230.182 275.172 231.111 274.953 232.039C274.953 232.039 275.062 232.039 275.117 232.039L275.062 231.93Z" fill="white"/>
<path d="M275.062 231.93L275.718 231.766C278.559 231.001 281.291 230.127 284.078 229.198H275.609C275.39 230.182 275.172 231.111 274.953 232.039C274.953 232.039 275.062 232.039 275.117 232.039L275.062 231.93Z" fill="white"/>
<path d="M276.92 224.062C276.92 224.062 276.756 224.062 276.702 224.062C276.374 225.811 275.991 227.504 275.609 229.198H284.078C284.898 228.925 285.772 228.597 286.591 228.324V221.549C283.422 222.368 280.308 223.188 277.139 223.953H276.975L276.92 224.062Z" fill="white"/>
<path d="M276.92 224.062C276.92 224.062 276.756 224.062 276.702 224.062C276.374 225.811 275.991 227.504 275.609 229.198H284.078C284.898 228.925 285.772 228.597 286.591 228.324V221.549C283.422 222.368 280.308 223.188 277.139 223.953H276.975L276.92 224.062Z" fill="white"/>
<path d="M276.92 224.062C276.92 224.062 276.756 224.062 276.702 224.062C276.374 225.811 275.991 227.504 275.609 229.198H284.078C284.898 228.925 285.772 228.597 286.591 228.324V221.549C283.422 222.368 280.308 223.188 277.139 223.953H276.975L276.92 224.062Z" fill="white"/>
<path d="M274.407 229.198V224.608C272.713 224.991 271.074 225.373 269.38 225.756L269.271 226.138L268.561 226.302C264.189 227.34 259.709 228.105 255.119 228.706C239.547 231.657 223.593 233.788 207.419 235.099C214.577 236.192 221.79 236.793 228.783 237.011H229.931V239.743C232.335 239.47 234.684 239.142 237.034 238.869V237.066H238.181C246.159 236.848 254.464 236.083 262.66 234.607C266.757 233.842 270.801 232.968 274.789 232.039C275.008 231.11 275.227 230.127 275.445 229.198H274.243H274.407Z" fill="white"/>
<path d="M274.407 229.198V224.608C272.713 224.991 271.074 225.373 269.38 225.756L269.271 226.138L268.561 226.302C264.189 227.34 259.709 228.105 255.119 228.706C239.547 231.657 223.593 233.788 207.419 235.099C214.577 236.192 221.79 236.793 228.783 237.011H229.931V239.743C232.335 239.47 234.684 239.142 237.034 238.869V237.066H238.181C246.159 236.848 254.464 236.083 262.66 234.607C266.757 233.842 270.801 232.968 274.789 232.039C275.008 231.11 275.227 230.127 275.445 229.198H274.243H274.407Z" fill="white"/>
<path d="M274.407 229.198V224.608C272.713 224.991 271.074 225.373 269.38 225.756L269.271 226.138L268.561 226.302C264.189 227.34 259.709 228.105 255.119 228.706C239.547 231.657 223.593 233.788 207.419 235.099C214.577 236.192 221.79 236.793 228.783 237.011H229.931V239.743C232.335 239.47 234.684 239.142 237.034 238.869V237.066H238.181C246.159 236.848 254.464 236.083 262.66 234.607C266.757 233.842 270.801 232.968 274.789 232.039C275.008 231.11 275.227 230.127 275.445 229.198H274.243H274.407Z" fill="white"/>
<path d="M275.555 229.198C275.937 227.504 276.32 225.81 276.647 224.062C275.882 224.226 275.117 224.39 274.353 224.608V229.198H275.555Z" fill="white"/>
<path d="M275.555 229.198C275.937 227.504 276.32 225.81 276.647 224.062C275.882 224.226 275.117 224.39 274.353 224.608V229.198H275.555Z" fill="white"/>
<path d="M275.555 229.198C275.937 227.504 276.32 225.81 276.647 224.062C275.882 224.226 275.117 224.39 274.353 224.608V229.198H275.555Z" fill="white"/>
<path d="M275.555 229.198C275.937 227.504 276.32 225.81 276.647 224.062C275.882 224.226 275.117 224.39 274.353 224.608V229.198H275.555Z" fill="white"/>
<path d="M305.332 216.14C303.693 216.631 302.054 217.178 300.415 217.67C298.175 220.62 295.443 224.117 292.383 227.778C295.224 227.013 298.011 226.248 300.797 225.428C300.961 225.046 301.18 224.609 301.398 224.226C302.436 222.15 303.857 218.981 305.332 216.14Z" fill="white"/>
<path d="M305.332 216.14C303.693 216.631 302.054 217.178 300.415 217.67C298.175 220.62 295.443 224.117 292.383 227.778C295.224 227.013 298.011 226.248 300.797 225.428C300.961 225.046 301.18 224.609 301.398 224.226C302.436 222.15 303.857 218.981 305.332 216.14Z" fill="white"/>
<path d="M200.535 235.646C198.077 235.809 195.618 235.919 193.159 236.083C193.815 238.323 194.525 240.508 195.345 242.639C197.913 242.53 200.426 242.421 202.994 242.257C202.12 240.126 201.3 237.94 200.59 235.755V235.646H200.535Z" fill="white"/>
<path d="M200.535 235.646C198.077 235.809 195.618 235.919 193.159 236.083C193.815 238.323 194.525 240.508 195.345 242.639C197.913 242.53 200.426 242.421 202.994 242.257C202.12 240.126 201.3 237.94 200.59 235.755V235.646H200.535Z" fill="white"/>
<path d="M200.535 235.646C198.077 235.809 195.618 235.919 193.159 236.083C193.815 238.323 194.525 240.508 195.345 242.639C197.913 242.53 200.426 242.421 202.994 242.257C202.12 240.126 201.3 237.94 200.59 235.755V235.646H200.535Z" fill="white"/>
<path d="M183.433 236.411C179.39 236.52 175.346 236.575 171.249 236.575C172.888 238.815 174.691 240.946 176.603 243.022C181.138 243.022 185.673 242.913 190.154 242.803C187.75 240.836 185.509 238.705 183.433 236.411Z" fill="white"/>
<path d="M183.433 236.411C179.39 236.52 175.346 236.575 171.249 236.575C172.888 238.815 174.691 240.946 176.603 243.022C181.138 243.022 185.673 242.913 190.154 242.803C187.75 240.836 185.509 238.705 183.433 236.411Z" fill="white"/>
<path d="M183.433 236.411C179.39 236.52 175.346 236.575 171.249 236.575C172.888 238.815 174.691 240.946 176.603 243.022C181.138 243.022 185.673 242.913 190.154 242.803C187.75 240.836 185.509 238.705 183.433 236.411Z" fill="white"/>
<path d="M175.347 54.1892C120.27 98.3922 100.71 170.352 120.544 233.897C121.472 234.006 122.456 234.116 123.385 234.17C106.119 171.882 126.062 102.545 179.663 59.5438C250.585 2.60989 353.852 13.1006 411.934 82.5469C411.223 81.618 410.568 80.6891 409.857 79.8149C352.159 7.96452 247.142 -3.50969 175.347 54.1892Z" fill="white"/>
<path d="M149.666 288.7C150.377 289.575 151.142 290.449 151.907 291.323C139.777 275.532 130.871 258.266 125.133 240.29C124.259 240.181 123.385 240.072 122.511 239.962C128.63 257.174 137.591 273.62 149.666 288.646V288.7Z" fill="white"/>
<path d="M122.51 240.017C123.385 240.126 124.259 240.235 125.133 240.344C124.477 238.323 123.876 236.301 123.33 234.225C122.401 234.116 121.418 234.061 120.489 233.952C121.144 235.973 121.8 237.995 122.51 240.017Z" fill="white"/>
<path d="M229.603 7.36355C131.69 35.7759 75.3025 138.224 103.715 236.137C104.097 237.339 104.48 238.541 104.862 239.798C78.9087 142.978 135.023 42.7697 231.734 14.6852C328.445 -13.3993 429.528 41.2398 459.415 136.967C459.087 135.711 458.814 134.509 458.432 133.252C430.019 35.2841 327.571 -21.0488 229.603 7.36355Z" fill="white"/>
<path d="M63.5 289.902H73.5536C74.1 289.902 74.5917 289.902 75.1381 289.902C81.8041 290.285 85.0278 292.907 85.6288 297.88C86.0113 300.612 85.2464 303.07 83.6618 305.092C81.9134 307.223 79.4 308.425 76.2855 308.534H68.0897V322.303H63.5546V289.902H63.5ZM73.0072 305.365C73.3897 305.365 73.7175 305.365 74.0453 305.365C77.7608 305.201 79.4 304.218 80.5474 301.814C80.9845 300.939 81.2031 299.847 81.0391 298.426C80.7113 295.038 78.8536 293.29 74.2639 292.962H68.035V305.365H73.0072Z" fill="white"/>
<path d="M98.5782 299.3C103.878 300.229 107.43 304.6 107.43 310.938C107.43 317.276 103.878 321.648 98.5782 322.576C90.7648 323.997 84.9185 318.97 84.9185 310.938C84.9185 302.906 90.7648 297.88 98.5782 299.3ZM89.3442 312.14C89.9453 318.26 93.3329 320.992 97.9772 319.899C100.818 319.189 102.567 316.839 102.949 312.14C103.059 311.375 103.059 310.61 102.949 309.845C102.567 305.092 100.764 302.797 97.9772 302.087C93.3329 300.939 89.8906 303.671 89.3442 309.845C89.3442 310.228 89.3442 310.61 89.3442 310.993C89.3442 311.375 89.3442 311.758 89.3442 312.14Z" fill="white"/>
<path d="M112.948 299.683L118.631 317.714L124.204 299.683H129.395L135.023 317.714L140.76 299.683H144.475L137.317 322.303H132.564L126.608 303.343L120.762 322.303H115.844L108.687 299.683H112.894H112.948Z" fill="white"/>
<path d="M149.83 311.539C149.83 311.976 149.83 312.468 149.83 312.96C150.212 317.987 152.562 320.281 156.113 320.281C158.955 320.391 160.812 318.97 161.577 315.965C161.687 315.801 161.741 315.582 161.741 315.309H165.566C165.566 315.746 165.457 316.238 165.347 316.73C164.419 320.445 161.249 322.74 156.113 322.849C149.939 322.959 146.442 319.626 145.732 312.741C144.967 304.764 148.573 300.065 154.092 299.3C161.577 298.262 165.73 301.868 166.058 310.119C166.058 310.556 166.058 310.993 166.058 311.539H149.83ZM161.905 309.244C161.905 309.244 161.905 308.753 161.905 308.534C161.796 303.89 159.446 301.649 155.84 301.759C152.78 301.868 150.595 303.835 149.939 308.042C149.83 308.425 149.83 308.807 149.83 309.19H161.851L161.905 309.244Z" fill="white"/>
<path d="M170.429 299.683H174.472V302.852C174.472 302.852 174.745 302.415 174.854 302.196C176.22 300.284 177.86 299.3 180.373 299.246C181.029 299.246 181.794 299.246 182.449 299.41V302.961H182.067L181.52 302.852C176.494 302.579 174.472 304.546 174.472 309.245V322.194H170.429V299.573V299.683Z" fill="white"/>
<path d="M203.704 302.906L203.212 302.25C202.065 300.666 201.354 299.464 201.027 298.371C199.497 293.618 202.447 289.356 207.638 289.465C208.184 289.465 208.731 289.465 209.277 289.629C213.484 290.558 215.561 295.639 212.938 299.737C212.118 300.994 210.807 302.196 209.059 303.179C208.621 303.398 208.13 303.616 207.638 303.835L216.271 313.998C217.036 311.922 217.418 309.791 217.473 307.55H219.932C219.822 308.862 219.659 310.228 219.331 311.485C218.948 312.96 218.402 314.435 217.692 315.746L223.265 322.194H220.096L216.38 317.659C216.107 318.041 215.888 318.314 215.615 318.642C213.976 320.609 211.681 321.975 209.222 322.522C203.977 323.669 199.114 321.374 197.038 317.386C196.382 315.965 196 314.49 196.054 312.96C196.164 309.463 198.131 306.239 202.229 303.89C202.775 303.562 203.321 303.343 203.868 303.125L203.595 302.742L203.704 302.906ZM202.229 306.84C201.737 307.277 201.245 307.769 200.808 308.261C197.257 312.468 198.95 318.478 204.086 320.172C207.638 321.32 211.353 320.336 214.14 317.276C214.468 316.894 214.741 316.566 215.014 316.183L205.452 304.873C204.36 305.31 203.321 305.966 202.283 306.786L202.229 306.84ZM207.583 301.595C210.151 300.12 211.19 298.644 211.463 296.787C211.845 293.727 209.55 291.541 206.709 292.033C203.321 292.579 202.01 295.803 204.305 299.628C204.578 300.01 204.797 300.338 205.07 300.721C205.507 301.376 205.89 301.868 206.272 302.25C206.709 302.087 207.146 301.868 207.529 301.595H207.583Z" fill="white"/>
<path d="M238.727 289.902H258.725V293.126H243.262V303.945H257.851V307.223H243.262V319.08H259.217V322.303H238.727V289.902Z" fill="white"/>
<path d="M263.424 299.683H267.468V303.835C267.468 303.835 267.741 303.289 267.85 303.016C269.271 300.557 271.128 299.3 273.915 299.082C279.27 298.59 282.329 301.267 282.548 306.075V307.059V307.715V322.303H278.505V306.95C278.341 305.037 277.958 304.218 277.139 303.343C275.991 302.087 274.079 301.54 272.057 302.087C269.107 302.797 267.358 305.311 267.358 310.72V322.303H263.315V299.683H263.424Z" fill="white"/>
<path d="M291.236 311.539C291.236 311.976 291.236 312.468 291.236 312.96C291.618 317.987 293.968 320.281 297.519 320.281C300.36 320.391 302.218 318.97 302.983 315.965C303.092 315.801 303.147 315.582 303.147 315.309H306.972C306.972 315.746 306.862 316.238 306.753 316.73C305.824 320.445 302.655 322.74 297.519 322.849C291.345 322.959 287.848 319.626 287.138 312.741C286.373 304.764 289.979 300.065 295.498 299.3C302.983 298.262 307.136 301.868 307.464 310.119C307.464 310.556 307.464 310.993 307.464 311.539H291.236ZM303.311 309.244C303.311 309.244 303.311 308.753 303.311 308.534C303.202 303.89 300.852 301.649 297.246 301.759C294.186 301.868 292.001 303.835 291.345 308.042C291.236 308.425 291.236 308.807 291.236 309.19H303.256L303.311 309.244Z" fill="white"/>
<path d="M311.78 299.683H315.823V302.852C315.823 302.852 316.096 302.415 316.206 302.196C317.572 300.284 319.211 299.3 321.724 299.246C322.38 299.246 323.145 299.246 323.8 299.41V302.961H323.418L322.872 302.852C317.845 302.579 315.823 304.546 315.823 309.245V322.194H311.78V299.573V299.683Z" fill="white"/>
<path d="M340.684 299.683H344.782V322.139C344.782 328.423 340.575 332.357 333.144 331.974C327.789 331.646 325.003 329.297 324.62 325.8C324.62 325.472 324.62 325.199 324.62 324.926H328.718C328.718 324.926 328.718 325.254 328.718 325.363C328.937 327.494 330.412 328.86 333.526 329.078C337.788 329.406 340.302 327.166 340.575 323.068C340.575 322.795 340.575 322.522 340.575 322.303V317.331L340.356 317.713L339.919 318.369C337.624 321.866 333.69 323.177 329.483 321.484C326.259 320.118 324.238 317.331 323.637 312.687C323.527 311.321 323.527 309.955 323.746 308.534C324.62 303.234 327.899 299.901 331.505 299.355C335.985 298.644 339.209 300.174 340.629 302.852V299.628L340.684 299.683ZM336.149 319.189C337.788 318.697 339.1 317.276 340.138 314.708C340.466 313.834 340.629 312.96 340.793 311.922C341.504 304.6 337.788 301.212 333.199 302.251C330.576 302.906 328.609 305.256 328.172 309.354C328.062 309.736 328.062 310.228 328.062 310.665C327.899 317.55 331.833 320.609 336.204 319.243L336.149 319.189Z" fill="white"/>
<path d="M351.229 299.683L357.895 317.714L364.506 299.683H368.222L356.693 331.045H352.704L355.764 322.686L346.913 299.737H351.229V299.683Z" fill="white"/>
<path d="M385.433 313.288C385.051 317.112 388.275 320.227 393.793 319.735C394.667 319.735 395.487 319.462 396.197 319.134C398.82 317.987 399.913 316.238 399.858 313.943C399.749 311.539 398.82 310.337 395.979 309.19L393.629 308.425L390.788 307.387C390.351 307.223 389.914 307.059 389.422 306.895C382.483 304.218 380.407 300.994 382.101 295.475C383.193 291.815 386.854 289.301 392.7 289.301C399.804 289.192 403.847 292.907 404.065 297.716H399.476C399.476 294.82 397.017 292.58 392.7 292.58C389.204 292.58 387.237 293.891 386.417 296.404C385.379 299.628 386.963 302.032 392.482 303.944L395.596 304.983L397.181 305.529L398.383 305.966C403.41 307.824 405.377 311.375 404.175 316.129C403.191 320.063 400.022 322.412 394.176 322.795C393.028 322.904 391.826 322.795 390.679 322.795C384.669 322.249 381.773 319.899 381.008 315.309C380.898 314.654 380.898 313.943 380.898 313.288H385.433Z" fill="white"/>
<path d="M420.785 299.3C426.085 300.229 429.637 304.6 429.637 310.938C429.637 317.276 426.085 321.648 420.785 322.576C412.972 323.997 407.125 318.97 407.125 310.938C407.125 302.906 412.972 297.88 420.785 299.3ZM411.551 312.14C412.152 318.26 415.54 320.992 420.184 319.899C423.025 319.189 424.774 316.839 425.211 312.14C425.32 311.375 425.32 310.61 425.211 309.845C424.829 305.092 423.025 302.797 420.184 302.087C415.54 300.939 412.098 303.671 411.551 309.845C411.551 310.228 411.551 310.61 411.551 310.993C411.551 311.375 411.551 311.758 411.551 312.14Z" fill="white"/>
<path d="M448.651 307.059C448.651 307.059 448.541 306.458 448.541 306.13C448.432 305.747 448.323 305.31 448.159 304.982C446.848 301.923 442.531 300.884 439.362 303.562C437.941 304.764 436.958 306.731 436.739 309.9C436.63 310.883 436.739 311.921 436.849 312.905C437.45 317.604 439.307 319.626 442.75 319.844C446.083 320.063 448.104 318.478 448.596 315.364C448.596 315.145 448.596 314.927 448.705 314.708H452.53C452.53 315.2 452.53 315.692 452.366 316.129C451.492 320.5 448.05 323.177 442.586 322.904C436.248 322.685 432.587 318.697 432.478 311.32C432.368 304.217 435.92 299.792 441.165 299.136C447.667 298.262 451.547 301.048 452.475 305.911C452.475 306.294 452.585 306.676 452.639 307.059H448.705H448.651Z" fill="white"/>
<path d="M456.3 289.902H460.344V294.711H456.3V289.902ZM456.3 299.683H460.344V322.303H456.3V299.683Z" fill="white"/>
<path d="M468.922 311.539C468.922 311.976 468.922 312.468 468.922 312.96C469.304 317.987 471.654 320.281 475.205 320.281C478.046 320.391 479.904 318.97 480.669 315.965C480.778 315.801 480.833 315.582 480.833 315.309H484.658C484.658 315.746 484.549 316.238 484.439 316.73C483.51 320.445 480.341 322.74 475.205 322.849C469.031 322.959 465.534 319.626 464.824 312.741C464.059 304.764 467.665 300.065 473.184 299.3C480.669 298.262 484.822 301.868 485.15 310.119C485.15 310.556 485.15 310.993 485.15 311.539H468.922ZM480.997 309.244C480.997 309.244 480.997 308.753 480.997 308.534C480.888 303.89 478.538 301.649 474.932 301.759C471.872 301.868 469.687 303.835 469.031 308.042C468.922 308.425 468.922 308.807 468.922 309.19H480.942L480.997 309.244Z" fill="white"/>
<path d="M485.751 299.682H489.849V295.093L493.892 293.454V299.682H498.974V302.414H493.892V316.293C494.165 319.025 494.766 319.571 497.772 319.516C498.209 319.516 498.646 319.516 499.192 319.353V322.358C498.263 322.576 497.444 322.685 496.569 322.74C491.543 322.849 489.794 321.21 489.794 316.02V302.414H485.696V299.682H485.751Z" fill="white"/>
<path d="M501.869 299.683L508.535 317.714L515.146 299.683H518.861L507.333 331.045H503.344L506.404 322.686L497.552 299.737H501.869V299.683Z" fill="white"/>
<path d="M198.131 285.422C198.786 285.695 199.497 285.914 200.152 286.132C148.354 264.878 122.838 206.086 143.109 153.633C163.38 101.179 221.844 74.7884 274.461 93.8575C273.806 93.5843 273.15 93.3111 272.494 93.0379C219.385 72.4936 159.665 98.9389 139.175 152.048C118.631 205.157 145.076 264.878 198.185 285.367L198.131 285.422Z" fill="white"/>
<path d="M284.515 154.671H321.396L325.713 154.889C343.142 155.545 351.065 162.594 352.267 177.619C353.742 194.12 343.579 205.922 326.805 206.687L324.456 206.797H309.649V236.083H284.515V154.671ZM315.768 191.224H318.008L319.593 191.115C323.527 191.006 326.259 189.203 328.062 185.487C328.827 183.903 329.319 181.881 329.1 179.04C328.554 172.483 325.166 169.314 317.571 168.986H309.321V191.279H315.768V191.224Z" fill="white"/>
<path d="M357.95 154.671H416.523V170.844H382.702V186.307H414.939V203.026H382.702V219.855H417.234V236.028H357.95V154.616V154.671Z" fill="white"/>
<path d="M445.591 208.818C445.372 209.856 445.372 210.84 445.482 211.878C445.919 219.363 450.891 223.516 458.814 222.751C460.18 222.642 461.327 222.259 462.311 221.822C466.135 219.91 467.938 217.068 467.829 213.134C467.611 208.818 465.206 205.758 460.344 204.174L459.524 203.955L455.207 202.698L448.542 200.895C447.777 200.677 446.957 200.404 446.192 200.076C425.921 193.519 420.075 186.033 423.571 171.445C426.413 159.479 437.122 152.103 457.393 152.321C459.196 152.321 461.108 152.43 462.912 152.54C477.172 153.796 484.549 157.949 488.701 165.544C490.723 169.259 491.652 173.466 491.433 177.728H467.774V176.034C467.665 174.669 467.228 173.303 466.627 172.1C464.441 168.166 460.726 166.309 455.098 166.91C453.841 167.019 452.749 167.347 451.711 167.784C447.613 169.97 445.919 173.576 446.848 177.838C447.777 181.553 450.345 183.739 457.83 185.87L465.316 188L474.277 190.514C488.537 194.557 494.985 204.665 491.816 218.325C489.084 230.073 480.396 236.192 461.71 237.23C457.994 237.34 454.606 237.34 451.164 237.012C435.92 235.755 427.888 230.674 423.681 221.767C421.768 217.724 421.058 213.298 421.55 208.763H445.536L445.591 208.818Z" fill="white"/>
<path d="M284.843 107.408H292.438V146.857H284.843V107.408Z" fill="white"/>
<path d="M297.628 107.408H324.183V113.363H306.589V123.581H323.308V129.7H306.589V140.901H324.62V146.857H297.628V107.408Z" fill="white"/>
<path d="M329.045 107.408H355.6V113.363H338.006V123.581H354.726V129.7H338.006V140.901H356.037V146.857H329.045V107.408Z" fill="white"/>
<path d="M360.408 107.408H386.962V113.363H369.369V123.581H386.088V129.7H369.369V140.901H387.399V146.857H360.408V107.408Z" fill="white"/>
<path d="M188.296 266.134C148.3 241.765 135.296 189.913 158.737 149.589C158.409 150.081 158.081 150.572 157.753 151.064C133.056 191.606 145.896 244.442 186.439 269.194C226.981 293.891 279.871 281.05 304.568 240.508C304.896 240.017 305.169 239.47 305.442 238.978C280.363 278.319 228.347 290.558 188.296 266.134Z" fill="white"/>
<path d="M540.5 298.644C540.5 303.07 536.948 306.567 532.468 306.567C527.988 306.567 524.381 303.07 524.381 298.644C524.381 294.219 527.988 290.776 532.523 290.776C537.058 290.776 540.5 294.219 540.5 298.644ZM526.348 298.644C526.348 302.141 528.971 304.928 532.468 304.928C535.856 304.928 538.478 302.141 538.478 298.699C538.478 295.257 535.91 292.361 532.413 292.361C528.916 292.361 526.403 295.202 526.403 298.644H526.348ZM531.157 302.688H529.353V294.82C530.064 294.71 531.102 294.601 532.359 294.601C533.834 294.601 534.544 294.82 535.036 295.202C535.528 295.53 535.856 296.131 535.856 296.896C535.856 297.879 535.145 298.48 534.216 298.754V298.863C534.981 299.082 535.364 299.737 535.582 300.775C535.801 301.977 536.019 302.414 536.183 302.688H534.271C534.052 302.414 533.889 301.704 533.67 300.775C533.506 299.956 533.069 299.573 532.031 299.573H531.157V302.688ZM531.211 298.317H532.085C533.069 298.317 533.889 297.989 533.889 297.169C533.889 296.459 533.342 295.967 532.195 295.967C531.703 295.967 531.375 295.967 531.211 296.076V298.317Z" fill="white"/>
</g>
<defs>
<clipPath id="clip0_44_11412">
<rect width="604" height="559" fill="white"/>
</clipPath>
</defs>
</svg>
