<svg width="841" height="280" viewBox="0 0 841 280" fill="none" xmlns="http://www.w3.org/2000/svg">
<g clip-path="url(#clip0_44_12261)">
<path d="M62.6559 253.712L62.4959 253.936L60.3199 254L60.1279 253.776C59.3919 250.992 59.1999 250.256 58.2399 247.248L57.9839 246.48H49.7599L49.1199 246.512L48.7359 247.664C47.8399 250.544 47.6479 251.184 46.9759 253.808L46.7199 254H44.8319L44.6719 253.712C45.7919 250.64 46.1119 249.712 47.1679 246.448L52.0959 231.568L52.2879 231.376L55.0079 231.312L55.2319 231.472L56.9599 236.752L59.3279 243.856C60.9279 248.816 61.4079 250.224 62.6559 253.712ZM53.4719 232.528L49.6319 244.752C50.8479 244.784 52.0639 244.784 53.2799 244.784C54.6559 244.784 55.9359 244.752 57.3759 244.752L53.4719 232.528ZM73.8724 250.576L74.1924 250.512C74.5764 250.864 74.8644 251.184 75.4724 251.568C76.6884 252.368 78.1604 252.752 79.6324 252.752C82.9284 252.752 85.0404 250.8 85.0404 248.144C85.0404 245.648 83.2804 244.592 80.8804 243.536L78.3204 242.48C76.3044 241.52 73.6164 240.24 73.6164 236.816C73.6164 234.992 74.4804 233.232 75.9844 232.176C77.4884 231.152 79.3444 230.928 80.8484 230.928C83.6644 230.928 85.3284 231.76 86.1604 232.208L86.3524 232.464L86.1604 234.032L85.8404 234.192C84.7524 233.52 83.3444 232.624 80.7844 232.624C76.3044 232.624 75.6644 235.472 75.6644 236.688C75.6644 239.12 77.6804 240.016 79.9204 240.912L82.1924 241.872C84.1124 242.768 87.1204 244.176 87.1204 248.048C87.1204 251.28 84.7204 254.48 79.6644 254.48C78.3524 254.48 75.7284 254.16 73.8724 252.848L73.7444 252.528L73.8724 250.576ZM96.9919 239.28L93.4079 239.216V247.76C93.4079 248.72 93.4079 249.392 93.4399 250.128C93.5039 251.6 93.8239 252.496 95.4559 252.496C96.0639 252.496 96.4799 252.336 96.9279 252.144L97.1839 252.304L97.0879 253.744L96.8639 254.032C96.2239 254.16 95.8079 254.224 95.1679 254.224C91.3919 254.224 91.3919 251.632 91.3919 248.976L91.4239 247.312V239.216L88.8319 239.28L88.6719 239.056L88.7359 237.744L88.9279 237.552L91.4559 237.616L91.3279 233.68L91.5519 233.488L93.4079 233.04L93.5999 233.232L93.4399 237.616L97.1199 237.52L97.2799 237.744L97.2159 239.12L96.9919 239.28ZM112.591 253.808L112.399 254L110.639 254.128L110.415 253.936L110.479 252.4C109.711 253.072 108.175 254.384 105.039 254.384C104.463 254.384 102.383 254.384 100.975 252.848C99.6634 251.408 99.6314 249.616 99.5994 248.112V247.28V244.528V241.744C99.5994 240.4 99.5674 239.664 99.4714 237.808L99.6634 237.584L101.583 237.52L101.775 237.712C101.679 240.752 101.647 243.792 101.647 246.832C101.647 249.424 101.807 250.608 102.639 251.536C103.215 252.208 104.271 252.72 105.519 252.72C105.935 252.72 106.351 252.656 106.767 252.592C108.591 252.208 109.455 251.44 110.415 250.64C110.415 244.24 110.383 242.864 110.159 237.84L110.351 237.584C111.279 237.616 111.471 237.584 112.207 237.488L112.399 237.712C112.367 239.696 112.335 241.68 112.335 243.632C112.335 247.824 112.431 250.192 112.591 253.808ZM127.951 253.872V252.4C127.279 252.976 125.871 254.224 123.151 254.224C118.543 254.224 115.951 250.416 115.951 246.064C115.951 243.312 117.039 241.104 118.415 239.792C120.655 237.648 123.983 237.456 126.319 237.456C126.735 237.456 127.151 237.456 127.759 237.488C127.695 231.6 127.695 231.056 127.471 229.136L127.695 228.944C128.495 228.816 128.655 228.784 129.647 228.56L129.839 228.752C129.807 231.664 129.775 234.544 129.775 237.424C129.775 242.896 129.775 248.688 130.031 253.84L129.839 254C129.071 254 128.911 254 128.143 254.064L127.951 253.872ZM127.919 250.512V249.456C127.887 246.608 127.791 242.032 127.791 239.152C127.247 239.12 126.895 239.088 126.095 239.088C124.655 239.088 123.023 239.184 121.551 239.824C118.511 241.2 118.031 244.144 118.031 245.936C118.031 249.552 119.951 252.464 123.503 252.464C126.095 252.464 127.471 250.992 127.919 250.512ZM147.631 245.392L147.439 245.584H135.311C135.343 246.608 135.375 247.728 136.015 249.104C137.423 252.112 140.079 252.592 141.487 252.592C144.431 252.592 146.095 251.152 146.863 250.48L147.119 250.64L146.991 252.464L146.831 252.784C145.487 253.552 144.079 254.352 141.327 254.352C136.111 254.352 133.295 250.672 133.295 245.84C133.295 240.816 136.079 237.232 140.815 237.232C142.799 237.232 144.687 237.776 146.127 239.664C147.567 241.552 147.599 243.76 147.631 245.392ZM135.439 243.952H145.519C145.455 243.024 145.423 242 144.687 240.848C143.375 238.832 141.551 238.8 140.751 238.8C139.279 238.8 137.839 239.344 136.879 240.464C135.791 241.744 135.567 243.184 135.439 243.952ZM153.246 253.808L153.054 254L151.166 254.064L151.006 253.872C151.038 252.112 151.07 251.312 151.07 249.936C151.07 248.272 151.038 246.576 151.006 244.912C150.974 241.264 150.942 240.464 150.718 237.968L150.878 237.744L152.83 237.424L153.022 237.616L152.894 239.28C154.238 238.448 156.094 237.232 158.686 237.232C159.294 237.232 161.182 237.232 162.526 238.736C163.678 239.984 163.678 241.552 163.71 243.984L163.774 247.248C163.806 250.608 163.838 251.12 163.966 253.808L163.774 254L161.854 254.064L161.694 253.84C161.726 252.336 161.758 251.504 161.758 250.224C161.758 248.944 161.694 244.464 161.63 242.768C161.598 242.032 161.534 240.88 160.862 240.08C160.318 239.44 159.294 238.992 158.142 238.992C155.742 238.992 153.854 240.432 152.958 241.136C152.99 246.544 153.022 247.792 153.246 253.808ZM174.398 239.28L170.814 239.216V247.76C170.814 248.72 170.814 249.392 170.846 250.128C170.91 251.6 171.23 252.496 172.862 252.496C173.47 252.496 173.886 252.336 174.334 252.144L174.59 252.304L174.494 253.744L174.27 254.032C173.63 254.16 173.214 254.224 172.574 254.224C168.798 254.224 168.798 251.632 168.798 248.976L168.83 247.312V239.216L166.238 239.28L166.078 239.056L166.142 237.744L166.334 237.552L168.862 237.616L168.734 233.68L168.958 233.488L170.814 233.04L171.006 233.232L170.846 237.616L174.526 237.52L174.686 237.744L174.622 239.12L174.398 239.28ZM202.829 252.464L202.669 252.784C202.285 253.008 201.901 253.232 201.517 253.424C200.301 254.032 198.381 254.48 196.333 254.48C189.165 254.48 185.485 249.104 185.485 242.8C185.485 236.88 189.133 230.928 196.525 230.928C199.757 230.928 201.261 231.696 202.541 232.336L202.701 232.592C202.541 233.264 202.509 233.424 202.445 234.288L202.221 234.448C201.293 233.808 199.661 232.688 196.525 232.688C190.157 232.688 187.693 238.128 187.693 242.8C187.693 248.368 191.277 252.688 196.685 252.688C197.869 252.688 199.053 252.464 200.237 251.984C201.453 251.472 201.997 251.024 202.733 250.416L202.989 250.576C202.861 251.376 202.829 251.568 202.829 252.464ZM207.934 253.808L207.742 254L205.886 254.032L205.694 253.84V242.704C205.694 240.368 205.694 238.064 205.662 235.728C205.63 232.336 205.566 231.248 205.374 229.104L205.566 228.912L207.582 228.592L207.774 228.784C207.646 232.912 207.646 234.224 207.678 239.28C208.958 238.416 210.782 237.232 213.47 237.232C214.814 237.232 215.646 237.552 216.446 238.064C218.27 239.28 218.302 240.848 218.398 243.984L218.462 247.248C218.494 250.608 218.494 251.12 218.622 253.808L218.462 254L216.542 254.064L216.382 253.84C216.382 251.728 216.414 249.616 216.414 247.472C216.414 245.136 216.414 243.888 216.35 242.768C216.318 242.064 216.254 240.88 215.518 240.048C215.006 239.44 213.982 238.928 212.766 238.928C210.494 238.928 208.606 240.368 207.678 241.104C207.678 247.376 207.742 248.816 207.934 253.808ZM223.614 240.016L223.71 238.512L223.87 238.288C225.15 237.776 226.494 237.232 228.606 237.232C230.878 237.232 232.126 237.904 232.862 238.736C233.79 239.76 233.79 240.464 233.79 243.6V245.584C233.726 249.904 233.79 250.8 233.982 253.776L233.79 254L232.094 254.096L231.87 253.904L231.838 252.784C230.398 253.84 228.926 254.384 227.294 254.384C224.094 254.384 221.854 252.368 221.854 249.168C221.854 247.696 222.43 246.256 223.518 245.296C224.958 244.016 227.23 243.632 229.022 243.344L231.838 242.928V242.512C231.806 241.648 231.774 240.912 231.55 240.4C231.358 240.016 230.654 238.928 228.414 238.928C226.302 238.928 225.31 239.408 223.87 240.144L223.614 240.016ZM231.838 244.528L230.11 244.784C227.294 245.328 226.27 245.584 225.374 246.256C225.118 246.448 223.87 247.376 223.87 249.072C223.87 250.736 225.022 252.688 227.646 252.688C229.726 252.688 230.814 251.824 231.838 250.96V244.528ZM237.902 237.904L238.062 237.712L239.982 237.424L240.206 237.616L240.174 239.12C241.07 238.384 242.51 237.232 245.038 237.232C249.422 237.232 252.174 240.656 252.174 245.168C252.174 246.864 251.694 249.04 250.35 250.736C248.878 252.656 246.67 254.064 242.19 254.064C241.55 254.064 241.006 254.032 240.206 253.968C240.206 257.36 240.27 258.128 240.43 261.328L240.238 261.52H238.286L238.094 261.328C238.158 257.616 238.19 253.904 238.19 250.192C238.19 243.568 238.062 241.168 237.902 237.904ZM240.174 241.072V252.24C240.942 252.336 241.39 252.368 241.966 252.368C243.822 252.368 245.71 252.08 247.246 250.992C248.014 250.448 249.966 248.752 249.966 245.296C249.966 242.64 248.75 239.12 244.718 239.12C243.694 239.12 242.67 239.376 241.71 239.888C240.974 240.272 240.654 240.592 240.174 241.072ZM261.742 239.28L258.158 239.216V247.76C258.158 248.72 258.158 249.392 258.19 250.128C258.254 251.6 258.574 252.496 260.206 252.496C260.814 252.496 261.23 252.336 261.678 252.144L261.934 252.304L261.838 253.744L261.614 254.032C260.974 254.16 260.558 254.224 259.918 254.224C256.142 254.224 256.142 251.632 256.142 248.976L256.174 247.312V239.216L253.582 239.28L253.422 239.056L253.486 237.744L253.678 237.552L256.206 237.616L256.078 233.68L256.302 233.488L258.158 233.04L258.35 233.232L258.19 237.616L261.87 237.52L262.03 237.744L261.966 239.12L261.742 239.28ZM277.693 245.392L277.501 245.584H265.373C265.405 246.608 265.437 247.728 266.077 249.104C267.485 252.112 270.141 252.592 271.549 252.592C274.493 252.592 276.157 251.152 276.925 250.48L277.181 250.64L277.053 252.464L276.893 252.784C275.549 253.552 274.141 254.352 271.389 254.352C266.173 254.352 263.357 250.672 263.357 245.84C263.357 240.816 266.141 237.232 270.877 237.232C272.861 237.232 274.749 237.776 276.189 239.664C277.629 241.552 277.661 243.76 277.693 245.392ZM265.501 243.952H275.581C275.517 243.024 275.485 242 274.749 240.848C273.437 238.832 271.613 238.8 270.813 238.8C269.341 238.8 267.901 239.344 266.941 240.464C265.853 241.744 265.629 243.184 265.501 243.952ZM288.301 237.84L288.045 239.536L287.789 239.728C287.341 239.472 286.989 239.312 286.445 239.312C285.613 239.312 284.941 239.664 284.461 240.144C283.373 241.232 283.181 242.896 283.181 246C283.181 248.368 283.309 251.536 283.373 253.808L283.181 254L281.261 254.032L281.069 253.84C281.133 251.696 281.165 250.608 281.165 248.4C281.165 244.944 281.165 241.168 280.877 237.968L281.069 237.776L282.957 237.488L283.149 237.68L283.117 240.208C283.277 239.76 283.469 239.344 283.725 238.96C284.269 238.16 285.325 237.296 286.637 237.296C287.149 237.296 287.565 237.424 288.077 237.616L288.301 237.84ZM313.548 245.648C313.612 252.048 309.932 254.384 306.156 254.384C300.876 254.384 298.764 250.512 298.764 245.84C298.764 244.048 298.988 242.256 299.884 240.72C301.324 238.224 303.596 237.232 306.348 237.232C313.164 237.232 313.516 243.792 313.548 245.648ZM311.404 245.648C311.372 244.528 311.212 243.152 310.828 242.128C309.644 238.896 306.988 238.896 306.188 238.896C301.644 238.896 300.908 242.96 300.908 245.808C300.908 246.96 300.908 252.688 306.124 252.688C310.348 252.688 311.468 249.264 311.404 245.648ZM323.18 239.312L319.82 239.248C319.82 246.32 319.852 247.984 320.044 253.84L319.852 254L318.028 254.064L317.804 253.872V239.248L315.052 239.28L314.828 239.088L314.892 237.744L315.084 237.52L317.804 237.616L317.74 235.472C317.708 235.056 317.708 234.64 317.708 234.224C317.708 232.304 318.028 231.248 318.86 230.448C319.884 229.392 321.452 229.2 322.38 229.2C322.892 229.2 323.244 229.264 323.756 229.36L323.916 229.616L323.82 230.832L323.564 231.056C323.148 230.928 322.86 230.864 322.412 230.864C319.724 230.864 319.756 232.816 319.82 235.056V237.648L323.244 237.584L323.5 237.84L323.372 239.088L323.18 239.312ZM341.179 239.28L337.595 239.216V247.76C337.595 248.72 337.595 249.392 337.627 250.128C337.691 251.6 338.011 252.496 339.643 252.496C340.251 252.496 340.667 252.336 341.115 252.144L341.371 252.304L341.275 253.744L341.051 254.032C340.411 254.16 339.995 254.224 339.355 254.224C335.579 254.224 335.579 251.632 335.579 248.976L335.611 247.312V239.216L333.019 239.28L332.859 239.056L332.923 237.744L333.115 237.552L335.643 237.616L335.515 233.68L335.739 233.488L337.595 233.04L337.787 233.232L337.627 237.616L341.307 237.52L341.467 237.744L341.403 239.12L341.179 239.28ZM346.059 253.808L345.867 254L344.011 254.032L343.819 253.84V242.704C343.819 240.368 343.819 238.064 343.787 235.728C343.755 232.336 343.691 231.248 343.499 229.104L343.691 228.912L345.707 228.592L345.899 228.784C345.771 232.912 345.771 234.224 345.803 239.28C347.083 238.416 348.907 237.232 351.595 237.232C352.939 237.232 353.771 237.552 354.571 238.064C356.395 239.28 356.427 240.848 356.523 243.984L356.587 247.248C356.619 250.608 356.619 251.12 356.747 253.808L356.587 254L354.667 254.064L354.507 253.84C354.507 251.728 354.539 249.616 354.539 247.472C354.539 245.136 354.539 243.888 354.475 242.768C354.443 242.064 354.379 240.88 353.643 240.048C353.131 239.44 352.107 238.928 350.891 238.928C348.619 238.928 346.731 240.368 345.803 241.104C345.803 247.376 345.867 248.816 346.059 253.808ZM374.475 245.392L374.283 245.584H362.155C362.187 246.608 362.219 247.728 362.859 249.104C364.267 252.112 366.923 252.592 368.331 252.592C371.275 252.592 372.939 251.152 373.707 250.48L373.963 250.64L373.835 252.464L373.675 252.784C372.331 253.552 370.923 254.352 368.171 254.352C362.955 254.352 360.139 250.672 360.139 245.84C360.139 240.816 362.923 237.232 367.659 237.232C369.643 237.232 371.531 237.776 372.971 239.664C374.411 241.552 374.443 243.76 374.475 245.392ZM362.283 243.952H372.363C372.299 243.024 372.267 242 371.531 240.848C370.219 238.832 368.395 238.8 367.595 238.8C366.123 238.8 364.683 239.344 363.723 240.464C362.635 241.744 362.411 243.184 362.283 243.952ZM389.882 253.808L389.69 254L387.706 254.032L387.514 253.84C387.546 252.016 387.578 250.736 387.578 248.688C387.578 244.496 387.514 236.976 387.29 231.568L387.482 231.408L389.466 231.344L389.658 231.536C389.658 234.032 389.626 236.528 389.626 239.024C389.626 244.528 389.722 247.728 389.882 253.808ZM408.25 253.904L408.122 254H398.362L395.77 254.128L395.546 253.904C395.578 251.856 395.61 250.64 395.61 248.944C395.61 243.152 395.514 237.36 395.322 231.568L395.514 231.376L397.754 231.408H403.482L407.994 231.344L408.186 231.504L408.09 233.04L407.834 233.232L399.418 233.136L397.594 233.104V241.36H400.762L407.482 241.296L407.674 241.488L407.61 242.928L407.322 243.088C406.042 243.056 405.21 243.024 403.93 243.024C402.842 243.024 401.754 243.024 400.666 243.056H397.626L397.786 252.272H400.57L408.25 252.144L408.378 252.336L408.25 253.904ZM424.937 253.904L424.809 254H415.049L412.457 254.128L412.233 253.904C412.265 251.856 412.297 250.64 412.297 248.944C412.297 243.152 412.201 237.36 412.009 231.568L412.201 231.376L414.441 231.408H420.169L424.681 231.344L424.873 231.504L424.777 233.04L424.521 233.232L416.105 233.136L414.281 233.104V241.36H417.449L424.169 241.296L424.361 241.488L424.297 242.928L424.009 243.088C422.729 243.056 421.897 243.024 420.617 243.024C419.529 243.024 418.441 243.024 417.353 243.056H414.313L414.473 252.272H417.257L424.937 252.144L425.065 252.336L424.937 253.904ZM441.625 253.904L441.497 254H431.737L429.145 254.128L428.921 253.904C428.953 251.856 428.985 250.64 428.985 248.944C428.985 243.152 428.889 237.36 428.697 231.568L428.889 231.376L431.129 231.408H436.857L441.369 231.344L441.561 231.504L441.465 233.04L441.209 233.232L432.793 233.136L430.969 233.104V241.36H434.137L440.857 241.296L441.049 241.488L440.985 242.928L440.697 243.088C439.417 243.056 438.585 243.024 437.305 243.024C436.217 243.024 435.129 243.024 434.041 243.056H431.001L431.161 252.272H433.945L441.625 252.144L441.753 252.336L441.625 253.904ZM457.288 253.808L457.128 254L455.144 254.064L454.984 253.84C455.016 251.824 455.048 250.64 455.048 248.784C455.048 247.44 454.952 240.72 454.952 239.216C454.888 234.992 454.888 234.8 454.728 231.6L454.952 231.44L459.176 231.344L460.296 231.312C462.824 231.344 465.064 231.376 466.952 233.104C467.88 233.968 468.872 235.472 468.872 237.744C468.872 240.368 467.592 242.064 466.44 242.992C464.264 244.72 461 244.784 457.832 244.816H457.096C457.128 249.36 457.16 250.448 457.288 253.808ZM457.032 233.072V243.12C461.608 243.12 463.88 243.12 465.64 240.944C466.408 239.984 466.728 238.864 466.728 237.68C466.728 235.888 465.896 234.832 465.384 234.384C464.04 233.104 461.864 233.008 460.104 233.008C459.496 233.008 458.888 233.04 458.248 233.04L457.032 233.072ZM485.111 245.648C485.175 252.048 481.495 254.384 477.719 254.384C472.439 254.384 470.327 250.512 470.327 245.84C470.327 244.048 470.551 242.256 471.447 240.72C472.887 238.224 475.159 237.232 477.911 237.232C484.727 237.232 485.079 243.792 485.111 245.648ZM482.967 245.648C482.935 244.528 482.775 243.152 482.391 242.128C481.207 238.896 478.551 238.896 477.751 238.896C473.207 238.896 472.471 242.96 472.471 245.808C472.471 246.96 472.471 252.688 477.687 252.688C481.911 252.688 483.031 249.264 482.967 245.648ZM505.559 250.512L504.759 253.712L504.503 253.936L501.943 254.032L501.719 253.84L500.503 249.296L497.623 238.896L495.575 246.928C494.743 250.032 494.551 250.736 493.847 253.808L493.655 253.968L491.063 254.032L490.871 253.872L489.687 249.456L487.863 242.896L486.423 237.936L486.583 237.68L488.535 237.616L488.727 237.808C489.079 239.504 489.175 239.952 489.847 242.544L492.343 252.656L495.031 242.512L496.215 237.872L496.407 237.68L499.127 237.616L499.319 237.84C499.895 240.176 500.087 240.912 500.791 243.312L503.351 252.432L505.527 243.76C506.231 241.04 506.391 240.432 506.935 237.84L507.127 237.584H508.855L509.047 237.808L507.159 244.496L505.559 250.512ZM524.631 245.392L524.439 245.584H512.311C512.343 246.608 512.375 247.728 513.015 249.104C514.423 252.112 517.079 252.592 518.487 252.592C521.431 252.592 523.095 251.152 523.863 250.48L524.119 250.64L523.991 252.464L523.831 252.784C522.487 253.552 521.079 254.352 518.327 254.352C513.111 254.352 510.295 250.672 510.295 245.84C510.295 240.816 513.079 237.232 517.815 237.232C519.799 237.232 521.687 237.776 523.127 239.664C524.567 241.552 524.599 243.76 524.631 245.392ZM512.439 243.952H522.519C522.455 243.024 522.423 242 521.687 240.848C520.375 238.832 518.551 238.8 517.751 238.8C516.279 238.8 514.839 239.344 513.879 240.464C512.791 241.744 512.567 243.184 512.439 243.952ZM535.238 237.84L534.982 239.536L534.726 239.728C534.278 239.472 533.926 239.312 533.382 239.312C532.55 239.312 531.878 239.664 531.398 240.144C530.31 241.232 530.118 242.896 530.118 246C530.118 248.368 530.246 251.536 530.31 253.808L530.118 254L528.198 254.032L528.006 253.84C528.07 251.696 528.102 250.608 528.102 248.4C528.102 244.944 528.102 241.168 527.814 237.968L528.006 237.776L529.894 237.488L530.086 237.68L530.054 240.208C530.214 239.76 530.406 239.344 530.662 238.96C531.206 238.16 532.262 237.296 533.574 237.296C534.086 237.296 534.502 237.424 535.014 237.616L535.238 237.84ZM547.27 240.016L547.366 238.512L547.526 238.288C548.806 237.776 550.15 237.232 552.262 237.232C554.534 237.232 555.782 237.904 556.518 238.736C557.446 239.76 557.446 240.464 557.446 243.6V245.584C557.382 249.904 557.446 250.8 557.638 253.776L557.446 254L555.75 254.096L555.526 253.904L555.494 252.784C554.054 253.84 552.582 254.384 550.95 254.384C547.75 254.384 545.51 252.368 545.51 249.168C545.51 247.696 546.086 246.256 547.174 245.296C548.614 244.016 550.886 243.632 552.678 243.344L555.494 242.928V242.512C555.462 241.648 555.43 240.912 555.206 240.4C555.014 240.016 554.31 238.928 552.07 238.928C549.958 238.928 548.966 239.408 547.526 240.144L547.27 240.016ZM555.494 244.528L553.766 244.784C550.95 245.328 549.926 245.584 549.03 246.256C548.774 246.448 547.526 247.376 547.526 249.072C547.526 250.736 548.678 252.688 551.302 252.688C553.382 252.688 554.47 251.824 555.494 250.96V244.528ZM564.246 253.808L564.054 254L562.166 254.064L562.006 253.872C562.038 252.112 562.07 251.312 562.07 249.936C562.07 248.272 562.038 246.576 562.006 244.912C561.974 241.264 561.942 240.464 561.718 237.968L561.878 237.744L563.83 237.424L564.022 237.616L563.894 239.28C565.238 238.448 567.094 237.232 569.686 237.232C570.294 237.232 572.182 237.232 573.526 238.736C574.678 239.984 574.678 241.552 574.71 243.984L574.774 247.248C574.806 250.608 574.838 251.12 574.966 253.808L574.774 254L572.854 254.064L572.694 253.84C572.726 252.336 572.758 251.504 572.758 250.224C572.758 248.944 572.694 244.464 572.63 242.768C572.598 242.032 572.534 240.88 571.862 240.08C571.318 239.44 570.294 238.992 569.142 238.992C566.742 238.992 564.854 240.432 563.958 241.136C563.99 246.544 564.022 247.792 564.246 253.808ZM590.326 253.872V252.4C589.654 252.976 588.246 254.224 585.526 254.224C580.918 254.224 578.326 250.416 578.326 246.064C578.326 243.312 579.414 241.104 580.79 239.792C583.03 237.648 586.358 237.456 588.694 237.456C589.11 237.456 589.526 237.456 590.134 237.488C590.07 231.6 590.07 231.056 589.846 229.136L590.07 228.944C590.87 228.816 591.03 228.784 592.022 228.56L592.214 228.752C592.182 231.664 592.15 234.544 592.15 237.424C592.15 242.896 592.15 248.688 592.406 253.84L592.214 254C591.446 254 591.286 254 590.518 254.064L590.326 253.872ZM590.294 250.512V249.456C590.262 246.608 590.166 242.032 590.166 239.152C589.622 239.12 589.27 239.088 588.47 239.088C587.03 239.088 585.398 239.184 583.926 239.824C580.886 241.2 580.406 244.144 580.406 245.936C580.406 249.552 582.326 252.464 585.878 252.464C588.47 252.464 589.846 250.992 590.294 250.512ZM619.094 253.904L618.966 254H609.206L606.614 254.128L606.39 253.904C606.422 251.856 606.454 250.64 606.454 248.944C606.454 243.152 606.358 237.36 606.166 231.568L606.358 231.376L608.598 231.408H614.326L618.838 231.344L619.03 231.504L618.934 233.04L618.678 233.232L610.262 233.136L608.438 233.104V241.36H611.606L618.326 241.296L618.518 241.488L618.454 242.928L618.166 243.088C616.886 243.056 616.054 243.024 614.774 243.024C613.686 243.024 612.598 243.024 611.51 243.056H608.47L608.63 252.272H611.414L619.094 252.144L619.222 252.336L619.094 253.904ZM624.965 253.808L624.773 254L622.885 254.064L622.725 253.872C622.757 252.112 622.789 251.312 622.789 249.936C622.789 248.272 622.757 246.576 622.725 244.912C622.693 241.264 622.661 240.464 622.437 237.968L622.597 237.744L624.549 237.424L624.741 237.616L624.613 239.28C625.957 238.448 627.813 237.232 630.405 237.232C631.013 237.232 632.901 237.232 634.245 238.736C635.397 239.984 635.397 241.552 635.429 243.984L635.493 247.248C635.525 250.608 635.557 251.12 635.685 253.808L635.493 254L633.573 254.064L633.413 253.84C633.445 252.336 633.477 251.504 633.477 250.224C633.477 248.944 633.413 244.464 633.349 242.768C633.317 242.032 633.253 240.88 632.581 240.08C632.037 239.44 631.013 238.992 629.861 238.992C627.461 238.992 625.573 240.432 624.677 241.136C624.709 246.544 624.741 247.792 624.965 253.808ZM653.381 245.392L653.189 245.584H641.061C641.093 246.608 641.125 247.728 641.765 249.104C643.173 252.112 645.829 252.592 647.237 252.592C650.181 252.592 651.845 251.152 652.613 250.48L652.869 250.64L652.741 252.464L652.581 252.784C651.237 253.552 649.829 254.352 647.077 254.352C641.861 254.352 639.045 250.672 639.045 245.84C639.045 240.816 641.829 237.232 646.565 237.232C648.549 237.232 650.437 237.776 651.877 239.664C653.317 241.552 653.349 243.76 653.381 245.392ZM641.189 243.952H651.269C651.205 243.024 651.173 242 650.437 240.848C649.125 238.832 647.301 238.8 646.501 238.8C645.029 238.8 643.589 239.344 642.629 240.464C641.541 241.744 641.317 243.184 641.189 243.952ZM663.988 237.84L663.732 239.536L663.476 239.728C663.028 239.472 662.676 239.312 662.132 239.312C661.3 239.312 660.628 239.664 660.148 240.144C659.06 241.232 658.868 242.896 658.868 246C658.868 248.368 658.996 251.536 659.06 253.808L658.868 254L656.948 254.032L656.756 253.84C656.82 251.696 656.852 250.608 656.852 248.4C656.852 244.944 656.852 241.168 656.564 237.968L656.756 237.776L658.644 237.488L658.836 237.68L658.804 240.208C658.964 239.76 659.156 239.344 659.412 238.96C659.956 238.16 661.012 237.296 662.324 237.296C662.836 237.296 663.252 237.424 663.764 237.616L663.988 237.84ZM669.972 248.688L668.948 250.416L671.828 251.28C674.324 252.016 674.868 252.144 675.572 252.496C677.62 253.392 678.548 254.864 678.548 256.624C678.548 260.144 675.22 262.064 671.636 262.064C668.404 262.064 664.884 260.368 664.884 256.88C664.884 254.32 666.868 252.848 667.956 252.048L666.548 251.44L666.452 251.12C667.316 249.84 667.508 249.552 668.244 248.24C666.964 247.44 665.268 246.384 665.268 243.312C665.268 240.944 666.484 239.568 667.188 238.96C668.948 237.488 671.092 237.488 673.236 237.488L674.676 237.52H678.9L679.028 237.744L678.9 239.088L678.676 239.28L675.476 239.088C676.084 239.568 677.62 240.784 677.62 243.376C677.62 246.704 674.868 248.912 671.7 248.912C671.06 248.912 670.612 248.816 669.972 248.688ZM669.428 252.528C668.468 253.328 666.868 254.64 666.868 256.656C666.868 258.192 668.084 260.464 671.764 260.464C675.124 260.464 676.468 258.512 676.468 256.88C676.468 254.832 674.772 254.224 674.068 253.936C672.884 253.488 670.964 252.976 669.428 252.528ZM675.636 243.152C675.604 241.104 674.292 239.12 671.604 239.12C668.692 239.12 667.252 241.136 667.252 243.344C667.252 246.192 669.46 247.376 671.444 247.376C674.228 247.376 675.668 245.328 675.636 243.152ZM691.796 242.992L689.492 249.264C687.988 253.36 686.388 257.872 685.748 260.048C685.588 260.528 685.46 261.04 685.332 261.52L685.108 261.712L683.124 261.68L682.932 261.488C684.052 258.992 684.276 258.416 685.236 255.888L686.004 253.68C684.052 248.432 683.668 247.472 681.556 242.128C680.82 240.208 680.692 239.888 679.828 237.904L680.02 237.616L681.908 237.456L682.196 237.68L684.788 245.04L687.028 251.184L689.428 244.368C690.42 241.488 690.644 240.752 691.508 237.84L691.828 237.584H693.62L693.844 237.84C692.948 239.888 692.724 240.464 691.796 242.992ZM705.091 250.576L705.411 250.512C705.795 250.864 706.083 251.184 706.691 251.568C707.907 252.368 709.379 252.752 710.851 252.752C714.147 252.752 716.259 250.8 716.259 248.144C716.259 245.648 714.499 244.592 712.099 243.536L709.539 242.48C707.523 241.52 704.835 240.24 704.835 236.816C704.835 234.992 705.699 233.232 707.203 232.176C708.707 231.152 710.563 230.928 712.067 230.928C714.883 230.928 716.547 231.76 717.379 232.208L717.571 232.464L717.379 234.032L717.059 234.192C715.971 233.52 714.563 232.624 712.003 232.624C707.523 232.624 706.883 235.472 706.883 236.688C706.883 239.12 708.899 240.016 711.139 240.912L713.411 241.872C715.331 242.768 718.339 244.176 718.339 248.048C718.339 251.28 715.939 254.48 710.883 254.48C709.571 254.48 706.947 254.16 705.091 252.848L704.963 252.528L705.091 250.576ZM735.955 245.648C736.019 252.048 732.339 254.384 728.563 254.384C723.283 254.384 721.171 250.512 721.171 245.84C721.171 244.048 721.395 242.256 722.291 240.72C723.731 238.224 726.003 237.232 728.755 237.232C735.571 237.232 735.923 243.792 735.955 245.648ZM733.811 245.648C733.779 244.528 733.619 243.152 733.235 242.128C732.051 238.896 729.395 238.896 728.595 238.896C724.051 238.896 723.315 242.96 723.315 245.808C723.315 246.96 723.315 252.688 728.531 252.688C732.755 252.688 733.875 249.264 733.811 245.648ZM750.674 250.8L750.994 250.928L750.802 252.816L750.546 253.2C748.85 254.288 746.994 254.384 746.13 254.384C742.29 254.384 738.514 251.952 738.514 246C738.514 241.104 741.234 237.232 746.514 237.232C748.658 237.232 749.746 237.84 750.578 238.32L750.738 238.608L750.514 240.4L750.226 240.528C749.49 239.888 748.434 238.992 746.386 238.992C744.818 238.992 743.41 239.664 742.546 240.464C741.042 241.84 740.53 243.92 740.53 245.968C740.53 250.864 743.602 252.656 746.226 252.656C747.954 252.656 749.458 251.984 750.674 250.8ZM755.842 253.808L755.65 254L753.73 254.032L753.57 253.872C753.602 251.76 753.602 250.8 753.602 249.808C753.602 247.376 753.57 241.904 753.314 237.968L753.506 237.776L755.426 237.488L755.618 237.68C755.554 239.152 755.522 239.888 755.522 241.136C755.522 245.232 755.65 249.712 755.842 253.808ZM755.714 231.952L755.49 232.208L753.442 232.4L753.186 232.144L753.218 230.16L753.474 229.904L755.522 229.712L755.746 229.968L755.714 231.952ZM773.506 245.392L773.314 245.584H761.186C761.218 246.608 761.25 247.728 761.89 249.104C763.298 252.112 765.954 252.592 767.362 252.592C770.306 252.592 771.97 251.152 772.738 250.48L772.994 250.64L772.866 252.464L772.706 252.784C771.362 253.552 769.954 254.352 767.202 254.352C761.986 254.352 759.17 250.672 759.17 245.84C759.17 240.816 761.954 237.232 766.69 237.232C768.674 237.232 770.562 237.776 772.002 239.664C773.442 241.552 773.474 243.76 773.506 245.392ZM761.314 243.952H771.394C771.33 243.024 771.298 242 770.562 240.848C769.25 238.832 767.426 238.8 766.626 238.8C765.154 238.8 763.714 239.344 762.754 240.464C761.666 241.744 761.442 243.184 761.314 243.952ZM782.929 239.28L779.345 239.216V247.76C779.345 248.72 779.345 249.392 779.377 250.128C779.441 251.6 779.761 252.496 781.393 252.496C782.001 252.496 782.417 252.336 782.865 252.144L783.121 252.304L783.025 253.744L782.801 254.032C782.161 254.16 781.745 254.224 781.105 254.224C777.329 254.224 777.329 251.632 777.329 248.976L777.361 247.312V239.216L774.769 239.28L774.609 239.056L774.673 237.744L774.865 237.552L777.393 237.616L777.265 233.68L777.489 233.488L779.345 233.04L779.537 233.232L779.377 237.616L783.057 237.52L783.217 237.744L783.153 239.12L782.929 239.28ZM795.265 242.992L792.961 249.264C791.457 253.36 789.857 257.872 789.217 260.048C789.057 260.528 788.929 261.04 788.801 261.52L788.577 261.712L786.593 261.68L786.401 261.488C787.521 258.992 787.745 258.416 788.705 255.888L789.473 253.68C787.521 248.432 787.137 247.472 785.025 242.128C784.289 240.208 784.161 239.888 783.297 237.904L783.489 237.616L785.377 237.456L785.665 237.68L788.257 245.04L790.497 251.184L792.897 244.368C793.889 241.488 794.113 240.752 794.977 237.84L795.297 237.584H797.089L797.313 237.84C796.417 239.888 796.193 240.464 795.265 242.992Z" fill="white"/>
<path d="M505 25V194" stroke="white" stroke-width="3" stroke-miterlimit="10"/>
<path d="M84.938 123.222L85.232 123.516C85.106 126.33 85.022 129.648 85.022 136.872C85.022 144.936 85.106 148.38 85.358 152.706L85.106 153C83.258 153.042 82.67 153.042 80.444 153.126L80.192 152.832C80.276 150.27 80.36 148.044 80.36 142.626C80.36 136.284 80.36 129.984 80.066 123.684L80.276 123.348C82.124 123.348 82.796 123.348 84.938 123.222ZM110.347 149.262L110.599 149.556C110.473 150.984 110.473 151.278 110.389 152.706L110.095 153C101.905 153 100.603 153.042 92.6227 153.126L92.4127 152.832C92.5387 149.514 92.6647 147.246 92.6647 139.56C92.6647 132.504 92.6647 128.472 92.3707 123.642L92.6227 123.348C100.897 123.306 102.535 123.306 110.263 123.222L110.515 123.516C110.389 124.776 110.305 125.28 110.221 126.792L109.969 127.086C104.551 126.918 102.745 126.918 97.4107 126.876C97.2847 130.74 97.2847 131.958 97.2847 135.822C102.451 135.864 104.047 135.822 109.171 135.738L109.381 136.032C109.213 137.502 109.213 137.922 109.171 139.266L108.919 139.56C104.047 139.434 102.997 139.434 97.2847 139.434C97.2007 144.306 97.2427 145.482 97.2847 149.472C103.627 149.472 104.929 149.472 110.347 149.262ZM133.11 149.262L133.362 149.556C133.236 150.984 133.236 151.278 133.152 152.706L132.858 153C124.668 153 123.366 153.042 115.386 153.126L115.176 152.832C115.302 149.514 115.428 147.246 115.428 139.56C115.428 132.504 115.428 128.472 115.134 123.642L115.386 123.348C123.66 123.306 125.298 123.306 133.026 123.222L133.278 123.516C133.152 124.776 133.068 125.28 132.984 126.792L132.732 127.086C127.314 126.918 125.508 126.918 120.174 126.876C120.048 130.74 120.048 131.958 120.048 135.822C125.214 135.864 126.81 135.822 131.934 135.738L132.144 136.032C131.976 137.502 131.976 137.922 131.934 139.266L131.682 139.56C126.81 139.434 125.76 139.434 120.048 139.434C119.964 144.306 120.006 145.482 120.048 149.472C126.39 149.472 127.692 149.472 133.11 149.262ZM155.874 149.262L156.126 149.556C156 150.984 156 151.278 155.916 152.706L155.622 153C147.432 153 146.13 153.042 138.15 153.126L137.94 152.832C138.066 149.514 138.192 147.246 138.192 139.56C138.192 132.504 138.192 128.472 137.898 123.642L138.15 123.348C146.424 123.306 148.062 123.306 155.79 123.222L156.042 123.516C155.916 124.776 155.832 125.28 155.748 126.792L155.496 127.086C150.078 126.918 148.272 126.918 142.938 126.876C142.812 130.74 142.812 131.958 142.812 135.822C147.978 135.864 149.574 135.822 154.698 135.738L154.908 136.032C154.74 137.502 154.74 137.922 154.698 139.266L154.446 139.56C149.574 139.434 148.524 139.434 142.812 139.434C142.728 144.306 142.77 145.482 142.812 149.472C149.154 149.472 150.456 149.472 155.874 149.262ZM181.703 135.276L183.803 136.2C186.869 137.544 190.943 139.308 190.943 144.684C190.943 149.388 187.457 153.63 180.149 153.63C175.697 153.63 172.841 152.286 171.833 151.782L171.665 151.488C171.833 150.018 171.875 149.22 172.001 147.624L172.421 147.456C173.471 148.17 175.907 149.934 179.813 149.934C184.139 149.934 185.945 147.708 185.945 145.188C185.945 142.248 183.509 141.114 180.779 140.064L178.679 139.14C175.697 137.754 171.707 135.948 171.707 130.824C171.707 129.27 172.127 127.674 173.009 126.414C174.941 123.642 178.427 122.718 181.829 122.718C185.147 122.718 187.163 123.348 189.389 124.062L189.599 124.398C189.431 125.994 189.389 126.582 189.263 128.094L188.927 128.262C187.121 127.338 185.147 126.33 181.997 126.33C178.511 126.33 176.327 127.968 176.327 130.446C176.327 132.336 177.587 133.218 178.469 133.764C179.015 134.1 179.183 134.184 181.703 135.276ZM204.887 149.43L205.181 149.682C205.055 151.068 205.055 151.362 205.013 152.58L204.803 152.832C203.921 153.042 203.207 153.21 201.653 153.21C200.645 153.21 197.999 153.21 196.697 151.026C195.941 149.808 195.941 148.8 195.941 143.844L196.025 134.604C194.555 134.604 194.513 134.646 193.001 134.688L192.833 134.436C192.917 133.092 192.917 132.756 192.917 131.412L193.169 131.16C194.093 131.16 194.639 131.202 196.025 131.16C195.983 130.278 195.983 129.354 195.983 128.472C195.941 127.674 195.899 126.876 195.857 126.078L196.067 125.784C197.957 125.322 198.419 125.196 200.351 124.608L200.645 124.818C200.519 127.59 200.477 128.136 200.477 131.202C202.241 131.16 202.745 131.16 205.139 131.076L205.349 131.328C205.265 132.42 205.223 132.882 205.223 134.31L205.013 134.562C202.913 134.52 202.661 134.478 200.435 134.478L200.351 142.29C200.393 142.794 200.393 145.188 200.393 145.776C200.393 148.842 200.771 149.808 202.871 149.808C203.753 149.808 204.425 149.598 204.887 149.43ZM227.041 130.992L227.293 131.286C227.209 134.478 227.167 137.46 227.167 140.862C227.167 146.028 227.293 149.136 227.377 150.942C227.377 151.53 227.419 152.118 227.461 152.706L227.293 152.958C225.277 153 224.941 153.042 223.009 153.126L222.757 152.874L222.799 151.11C221.875 151.782 219.649 153.504 216.205 153.504C214.567 153.504 212.761 153.126 211.417 152.076C208.729 149.892 208.729 146.322 208.687 143.046V140.442C208.603 134.436 208.603 133.764 208.477 131.496L208.687 131.202C210.661 131.16 211.039 131.16 213.013 130.992L213.265 131.286L213.097 140.484C213.097 141.618 213.055 142.458 213.097 144.474C213.139 146.238 213.223 150.018 217.465 150.018C219.943 150.018 221.707 148.632 222.715 147.834C222.757 145.566 222.757 143.634 222.757 141.198C222.757 135.36 222.715 134.184 222.463 131.454L222.715 131.16C224.647 131.118 225.109 131.118 227.041 130.992ZM247.075 120.618L247.285 120.366C249.427 119.988 249.847 119.904 251.737 119.484L252.031 119.736C251.737 125.574 251.695 135.99 251.695 140.19C251.695 146.7 251.863 149.808 252.031 152.706L251.821 153C249.973 153 249.469 153.042 247.537 153.126L247.243 152.874L247.327 151.32C246.319 152.076 244.597 153.42 241.531 153.42C235.945 153.42 232.081 149.01 232.081 142.626C232.081 138.048 234.013 135.15 235.777 133.596C238.843 130.824 242.833 130.698 245.017 130.698C245.899 130.698 246.319 130.698 247.453 130.782C247.495 125.574 247.285 123.054 247.075 120.618ZM247.285 147.834C247.369 142.332 247.369 141.072 247.327 134.184C246.613 134.142 246.109 134.058 245.227 134.058C243.925 134.058 241.153 134.142 239.137 136.032C238.213 136.914 236.701 138.888 236.701 142.626C236.701 145.02 237.373 146.742 238.255 147.792C239.011 148.674 240.397 149.682 242.581 149.682C245.143 149.682 246.697 148.338 247.285 147.834ZM274.796 147.666L275.132 147.876C274.922 149.556 274.88 149.976 274.796 151.614L274.544 151.908C273.83 152.286 271.562 153.504 267.824 153.504C260.936 153.504 256.61 149.556 256.61 142.248C256.61 134.436 261.314 130.614 266.816 130.614C270.134 130.614 272.444 132 273.704 133.512C276.098 136.368 276.014 140.526 275.972 142.374L275.678 142.626C269.126 142.584 267.992 142.584 261.104 142.626C261.146 144.096 261.272 146.154 262.7 147.876C264.422 149.934 266.816 150.144 268.118 150.144C269.336 150.144 270.596 149.934 271.772 149.514C273.326 148.884 274.25 148.128 274.796 147.666ZM271.646 139.392C271.604 138.804 271.562 137.88 271.226 136.914C270.386 134.604 268.538 133.638 266.648 133.638C264.296 133.638 261.524 135.234 261.104 139.434C266.186 139.476 267.782 139.434 271.646 139.392ZM299.323 152.706L299.071 152.958C297.055 153 296.803 153 294.871 153.126L294.577 152.832C294.577 152.37 294.619 151.908 294.619 151.446C294.661 149.388 294.661 147.33 294.661 145.272C294.661 138.804 294.619 138.384 294.409 137.502C293.611 134.31 291.217 134.31 290.629 134.31C288.109 134.31 286.177 135.78 285.043 136.662C285.001 143.97 285.085 147.792 285.379 152.706L285.127 152.958C283.069 153 282.733 153 280.717 153.126L280.507 152.832C280.549 150.48 280.633 148.212 280.633 145.104C280.633 138.384 280.339 134.814 280.129 132L280.381 131.706C282.481 131.328 282.859 131.244 284.833 130.866L285.127 131.16L285.085 133.344C286.177 132.588 288.781 130.74 292.477 130.74C293.527 130.74 294.829 130.908 295.963 131.538C297.055 132.168 297.937 133.134 298.399 134.268C298.945 135.528 298.987 136.788 299.029 139.392V144.306C299.155 149.22 299.197 151.11 299.323 152.706ZM314.276 149.43L314.57 149.682C314.444 151.068 314.444 151.362 314.402 152.58L314.192 152.832C313.31 153.042 312.596 153.21 311.042 153.21C310.034 153.21 307.388 153.21 306.086 151.026C305.33 149.808 305.33 148.8 305.33 143.844L305.414 134.604C303.944 134.604 303.902 134.646 302.39 134.688L302.222 134.436C302.306 133.092 302.306 132.756 302.306 131.412L302.558 131.16C303.482 131.16 304.028 131.202 305.414 131.16C305.372 130.278 305.372 129.354 305.372 128.472C305.33 127.674 305.288 126.876 305.246 126.078L305.456 125.784C307.346 125.322 307.808 125.196 309.74 124.608L310.034 124.818C309.908 127.59 309.866 128.136 309.866 131.202C311.63 131.16 312.134 131.16 314.528 131.076L314.738 131.328C314.654 132.42 314.612 132.882 314.612 134.31L314.402 134.562C312.302 134.52 312.05 134.478 309.824 134.478L309.74 142.29C309.782 142.794 309.782 145.188 309.782 145.776C309.782 148.842 310.16 149.808 312.26 149.808C313.142 149.808 313.814 149.598 314.276 149.43ZM338.277 153.084L330.885 153.126L330.675 152.832C330.759 150.816 330.801 148.884 330.801 145.062C330.801 143.256 330.843 134.478 330.843 132.504C330.843 128.094 330.717 125.826 330.549 123.642L330.759 123.348L336.387 123.264C337.227 123.222 338.529 123.222 339.663 123.222C342.141 123.222 344.787 123.306 346.887 124.524C348.441 125.406 350.205 127.17 350.205 130.278C350.205 131.748 349.785 135.948 343.947 137.376C344.913 137.418 346.299 137.46 347.811 138.132C351.423 139.728 351.801 142.92 351.801 144.474C351.801 148.338 349.407 151.068 346.047 152.286C343.821 153.084 341.595 153.084 338.277 153.084ZM336.429 139.518L335.421 139.56C335.421 144.348 335.421 145.062 335.589 149.64H336.387C339.537 149.64 342.099 149.682 343.737 149.01C345.753 148.254 346.887 146.49 346.887 144.39C346.887 139.476 341.469 139.434 339.453 139.434C339.075 139.434 338.697 139.434 336.429 139.518ZM335.421 126.708V136.032C339.201 136.074 342.099 136.032 343.863 134.646C344.913 133.764 345.585 132.378 345.585 130.992C345.585 129.858 345.123 128.766 344.409 128.01C342.939 126.582 340.335 126.582 339.369 126.582C338.025 126.582 336.723 126.624 335.421 126.708ZM366.711 135.318L366.417 135.528C365.997 135.36 365.451 135.15 364.737 135.15C363.939 135.15 363.351 135.444 362.973 135.696C361.251 136.914 361.251 138.762 361.251 143.13C361.251 147.876 361.377 150.354 361.545 152.706L361.335 153C359.361 153 358.899 153.042 356.883 153.126L356.673 152.874C356.715 149.682 356.757 146.784 356.757 142.878C356.757 136.158 356.631 134.436 356.379 132L356.631 131.706C358.227 131.412 359.235 131.202 360.999 130.866L361.251 131.118L361.041 134.688C361.545 133.344 362.595 130.656 366.165 130.656C366.711 130.656 367.005 130.698 367.341 130.782L367.509 131.034C367.089 133.05 367.005 133.47 366.711 135.318ZM386.662 140.19V144.348C386.662 149.556 386.704 150.018 386.914 152.748L386.704 152.958C384.73 153 384.394 153.042 382.462 153.126L382.294 152.874L382.336 151.362C381.538 151.992 379.648 153.504 376.456 153.504C372.256 153.504 369.316 150.648 369.316 146.49C369.316 140.862 374.02 139.056 381.58 138.174L382.294 138.09C382.294 136.956 382.294 136.158 381.916 135.486C381.496 134.73 380.53 133.932 378.43 133.932C375.7 133.932 373.81 134.772 372.046 135.528L371.71 135.318C371.794 133.386 371.794 133.134 371.836 132.252L372.088 132C374.44 131.16 376.876 130.614 379.354 130.614C382.462 130.614 385.486 131.664 386.368 134.94C386.662 136.116 386.662 138.426 386.662 140.19ZM382.336 141.198L381.958 141.282C377.716 141.912 373.768 142.5 373.768 146.238C373.768 146.448 373.768 150.06 377.758 150.06C380.362 150.06 381.874 148.632 382.336 148.212V141.198ZM411.378 152.706L411.126 152.958C409.11 153 408.858 153 406.926 153.126L406.632 152.832C406.632 152.37 406.674 151.908 406.674 151.446C406.716 149.388 406.716 147.33 406.716 145.272C406.716 138.804 406.674 138.384 406.464 137.502C405.666 134.31 403.272 134.31 402.684 134.31C400.164 134.31 398.232 135.78 397.098 136.662C397.056 143.97 397.14 147.792 397.434 152.706L397.182 152.958C395.124 153 394.788 153 392.772 153.126L392.562 152.832C392.604 150.48 392.688 148.212 392.688 145.104C392.688 138.384 392.394 134.814 392.184 132L392.436 131.706C394.536 131.328 394.914 131.244 396.888 130.866L397.182 131.16L397.14 133.344C398.232 132.588 400.836 130.74 404.532 130.74C405.582 130.74 406.884 130.908 408.018 131.538C409.11 132.168 409.992 133.134 410.454 134.268C411 135.528 411.042 136.788 411.084 139.392V144.306C411.21 149.22 411.252 151.11 411.378 152.706ZM432.462 147.834L432.798 148.002C432.63 149.808 432.588 150.018 432.462 151.74L432.168 152.034C430.95 152.622 429.312 153.462 426.372 153.462C420.03 153.462 415.914 148.884 415.914 142.332C415.914 135.654 419.946 130.614 426.456 130.614C429.186 130.614 431.118 131.496 432.21 131.958L432.378 132.252C432.21 133.764 432.168 134.31 432.084 135.57L431.748 135.738C430.362 134.73 428.766 134.1 427.086 134.1C423.6 134.1 420.534 136.788 420.534 142.164C420.534 147.876 423.768 149.934 427.044 149.934C429.9 149.934 431.664 148.464 432.462 147.834ZM455.101 152.706L454.849 152.958C452.833 153 452.581 153 450.649 153.126L450.355 152.832L450.397 151.446C450.439 149.262 450.439 147.036 450.439 144.852L450.397 140.358C450.397 139.392 450.397 138.426 450.187 137.502C449.725 135.57 448.549 134.31 446.407 134.31C444.013 134.31 442.165 135.654 440.779 136.662C440.737 143.97 440.821 147.792 441.073 152.706L440.863 152.958C438.931 153 438.427 153 436.369 153.126L436.159 152.832C436.243 149.85 436.369 146.07 436.369 138.006C436.369 134.478 436.327 130.95 436.285 127.422C436.201 123.726 436.075 122.508 435.949 120.618L436.159 120.366C438.175 120.03 438.847 119.904 440.737 119.484L440.989 119.778C440.737 124.272 440.737 128.808 440.737 133.344C442.081 132.462 444.727 130.74 448.255 130.74C449.221 130.74 450.187 130.866 451.069 131.244C452.959 132 454.093 133.512 454.513 135.234C454.723 136.074 454.723 136.578 454.807 139.392V144.306L454.849 146.28C454.933 149.808 454.933 150.396 455.101 152.706Z" fill="white"/>
<path d="M107.24 75.968L107.48 76.256L107.336 90.512V95.408C107.24 101.504 107.048 104.288 104.504 106.976C100.952 110.72 95.672 110.72 93.944 110.72C87.512 110.72 83.816 108.32 81.992 105.728C80.312 103.424 80.024 100.832 79.88 95.648V92.096C79.832 84.608 79.832 83.264 79.64 76.4L79.928 76.112C83.192 76.16 84.296 76.16 88.376 75.968L88.616 76.256C88.52 81.008 88.472 84.704 88.472 88.592C88.472 91.136 88.472 93.68 88.568 96.224C88.664 99.248 88.952 100.928 89.672 102.176C90.728 103.856 92.6 104.72 94.568 104.72C96.152 104.72 97.736 104.192 98.792 102.992C100.088 101.456 100.232 99.152 100.232 94.112C100.232 88.208 99.992 82.304 99.752 76.4L100.04 76.112C102.776 76.16 103.736 76.16 107.24 75.968ZM120.39 76.016L124.614 75.92C128.214 75.92 132.294 75.92 135.174 77.6C139.158 79.856 139.638 84.416 139.638 86.48C139.638 89.84 138.486 92.576 137.142 94.208C133.686 98.432 127.926 98.432 122.55 98.384C122.55 103.28 122.55 104.48 122.742 109.712L122.502 110C118.662 109.952 117.894 110 114.342 110.144L114.054 109.856C114.198 104 114.342 98.192 114.342 92.336C114.342 86.816 114.198 82.64 114.006 76.4L114.294 76.112L120.39 76.016ZM122.55 81.824V92.48C125.43 92.48 127.206 92.384 128.502 91.664C131.046 90.272 131.046 87.488 131.046 86.816C131.046 84.032 129.894 81.872 125.67 81.776C124.614 81.776 123.606 81.776 122.55 81.824ZM152.838 75.968L153.078 76.256C152.934 82.88 152.838 89.504 152.838 96.128C152.838 103.088 152.934 105.296 153.174 109.712L152.886 110C148.902 110 147.942 110 144.342 110.144L144.102 109.856C144.294 104.864 144.39 101.936 144.39 96.272C144.39 84.032 144.246 81.584 143.958 76.4L144.15 76.112C147.606 76.16 148.71 76.16 152.838 75.968ZM168.916 75.968L169.156 76.256C169.012 82.88 168.916 89.504 168.916 96.128C168.916 103.088 169.012 105.296 169.252 109.712L168.964 110C164.98 110 164.02 110 160.42 110.144L160.18 109.856C160.372 104.864 160.468 101.936 160.468 96.272C160.468 84.032 160.324 81.584 160.036 76.4L160.228 76.112C163.684 76.16 164.788 76.16 168.916 75.968ZM196.395 82.448L188.955 82.256C188.859 85.328 188.811 86.816 188.811 89.456C188.811 96.224 188.907 102.944 189.147 109.664L188.859 109.952C184.875 109.952 183.915 110 180.363 110.144L180.075 109.856C180.459 97.952 180.459 94.928 180.411 82.352L172.587 82.544L172.347 82.256L172.683 76.352L173.019 76.064H196.779L197.019 76.208L196.683 82.208L196.395 82.448ZM215.569 75.968L215.905 76.256C218.641 86.816 219.313 89.072 225.121 109.616L224.881 110C220.993 109.952 220.033 110 216.529 110.144L216.193 109.856L214.129 100.976H203.761L201.409 109.712L201.073 110H193.585L193.393 109.664C200.449 89.408 201.985 84.56 204.529 76.4L204.865 76.112C210.001 76.112 210.961 76.112 215.569 75.968ZM205.441 95.168H212.737L210.961 87.68L209.521 81.44L207.841 87.056L205.441 95.168ZM241.441 93.344L241.681 93.584L241.345 99.152L241.057 99.44C238.705 99.44 236.353 99.392 234.001 99.392C231.457 99.392 229.873 99.44 227.185 99.488L226.945 99.2L227.233 93.68L227.569 93.392C229.825 93.392 232.129 93.44 234.433 93.44C237.265 93.44 239.137 93.392 241.441 93.344ZM255.073 75.968L255.312 76.256C255.169 82.88 255.073 89.504 255.073 96.128C255.073 103.088 255.169 105.296 255.409 109.712L255.121 110C251.137 110 250.177 110 246.577 110.144L246.337 109.856C246.529 104.864 246.625 101.936 246.625 96.272C246.625 84.032 246.48 81.584 246.193 76.4L246.385 76.112C249.841 76.16 250.945 76.16 255.073 75.968ZM268.703 76.016L272.927 75.92C276.527 75.92 280.607 75.92 283.487 77.6C287.471 79.856 287.951 84.416 287.951 86.48C287.951 89.84 286.799 92.576 285.455 94.208C281.999 98.432 276.239 98.432 270.863 98.384C270.863 103.28 270.863 104.48 271.055 109.712L270.815 110C266.975 109.952 266.207 110 262.655 110.144L262.367 109.856C262.511 104 262.655 98.192 262.655 92.336C262.655 86.816 262.511 82.64 262.319 76.4L262.607 76.112L268.703 76.016ZM270.863 81.824V92.48C273.743 92.48 275.519 92.384 276.815 91.664C279.359 90.272 279.359 87.488 279.359 86.816C279.359 84.032 278.207 81.872 273.983 81.776C272.927 81.776 271.919 81.776 270.863 81.824ZM321.119 75.968L321.407 76.256C321.359 81.632 321.311 86.96 321.311 92.336C321.311 98.096 321.359 102.8 321.407 109.76L321.167 110C318.623 110 317.759 110 314.831 110.144L314.495 109.904L310.223 103.664L305.423 96.608C302.159 91.856 301.391 90.608 299.135 86.864L299.423 93.296L299.567 99.2L300.047 109.712L299.807 110C297.023 110 296.015 110 292.799 110.144L292.559 109.856C292.607 105.2 292.703 100.496 292.703 95.792C292.703 89.36 292.559 83.84 292.319 76.4L292.559 76.112C296.063 76.16 296.687 76.16 300.479 75.968L300.815 76.208C302.015 78.128 302.735 79.184 306.335 84.656L310.703 91.04C313.151 94.688 313.391 95.072 314.783 97.424L314.591 89.504L314.399 82.88L314.063 76.4L314.303 76.112C317.279 76.16 318.095 76.112 321.119 75.968Z" fill="white"/>
<path d="M645.091 98.9466C644.674 97.4998 644.208 96.102 643.718 94.7043C643.644 94.6552 643.571 94.6062 643.497 94.5571C644.11 95.9794 644.625 97.4507 645.116 98.9466H645.091Z" fill="white"/>
<path d="M643.375 146.642C643.375 146.642 643.546 146.544 643.62 146.495C644.184 144.925 644.723 143.331 645.189 141.688C644.65 143.38 644.061 145.023 643.375 146.642Z" fill="white"/>
<path d="M643.35 136.49L643.399 136.318C641.29 136.784 639.156 137.225 637.023 137.642C639.083 137.372 641.094 137.029 643.055 136.563L643.374 136.49H643.35Z" fill="white"/>
<path d="M643.35 136.49L643.399 136.318C641.29 136.784 639.156 137.225 637.023 137.642C639.083 137.372 641.094 137.029 643.055 136.563L643.374 136.49H643.35Z" fill="white"/>
<path d="M651.099 137.471V137.863H649.971C648.745 138.28 647.494 138.672 646.219 139.016L645.925 139.089C648.549 138.525 651.148 137.888 653.698 137.201C655.071 135.583 656.298 133.989 657.303 132.665C656.396 132.934 655.464 133.204 654.532 133.474C653.894 134.675 653.208 135.828 652.399 136.956C651.957 137.128 651.516 137.299 651.074 137.471H651.099Z" fill="white"/>
<path d="M651.099 137.471C650.731 137.618 650.363 137.74 649.971 137.863H651.099V137.471Z" fill="white"/>
<path d="M651.099 137.471C650.731 137.618 650.363 137.74 649.971 137.863H651.099V137.471Z" fill="white"/>
<path d="M643.62 146.47C642.884 148.481 642.075 150.418 641.167 152.306C648.352 149.07 654.091 143.331 657.499 136.146C656.248 136.514 654.973 136.858 653.723 137.201C650.829 140.609 647.249 144.263 643.62 146.47Z" fill="white"/>
<path d="M645.949 139.138C645.949 139.138 645.9 139.138 645.876 139.138C645.655 139.996 645.434 140.83 645.189 141.664C645.434 140.903 645.655 140.143 645.876 139.383L645.949 139.113V139.138Z" fill="white"/>
<path d="M643.375 146.642C644.061 145.048 644.674 143.38 645.189 141.688C645.435 140.855 645.655 139.996 645.876 139.163C644.061 139.579 642.247 139.947 640.432 140.315C640.8 140.242 641.143 140.193 641.511 140.119L642.418 139.947L642.124 140.806C641.192 143.577 639.991 146.274 638.495 148.971C635.479 150.099 632.266 150.786 628.931 150.958V142.203C627.877 142.35 626.798 142.473 625.743 142.596V150.933C622.359 150.761 619.123 150.026 616.131 148.849C615.175 147.132 614.365 145.416 613.654 143.675C612.502 143.748 611.374 143.797 610.221 143.846C610.515 144.68 610.834 145.514 611.177 146.323C610.025 145.612 608.921 144.803 607.891 143.944C605.881 144.018 603.845 144.042 601.81 144.042C608.161 150.909 617.259 155.224 627.362 155.224C632.364 155.224 637.048 154.17 641.217 152.282C642.124 150.394 642.933 148.456 643.669 146.446C643.595 146.495 643.497 146.544 643.424 146.593L643.375 146.642Z" fill="white"/>
<path d="M643.375 146.642C644.061 145.048 644.674 143.38 645.189 141.688C645.435 140.855 645.655 139.996 645.876 139.163C644.061 139.579 642.247 139.947 640.432 140.315C640.8 140.242 641.143 140.193 641.511 140.119L642.418 139.947L642.124 140.806C641.192 143.577 639.991 146.274 638.495 148.971C635.479 150.099 632.266 150.786 628.931 150.958V142.203C627.877 142.35 626.798 142.473 625.743 142.596V150.933C622.359 150.761 619.123 150.026 616.131 148.849C615.175 147.132 614.365 145.416 613.654 143.675C612.502 143.748 611.374 143.797 610.221 143.846C610.515 144.68 610.834 145.514 611.177 146.323C610.025 145.612 608.921 144.803 607.891 143.944C605.881 144.018 603.845 144.042 601.81 144.042C608.161 150.909 617.259 155.224 627.362 155.224C632.364 155.224 637.048 154.17 641.217 152.282C642.124 150.394 642.933 148.456 643.669 146.446C643.595 146.495 643.497 146.544 643.424 146.593L643.375 146.642Z" fill="white"/>
<path d="M606.42 122.586C606.518 126.534 606.935 130.629 607.695 134.651L606.42 122.586Z" fill="white"/>
<path d="M606.42 122.586C606.518 126.534 606.935 130.629 607.695 134.651L606.42 122.586Z" fill="white"/>
<path d="M601.417 136.637C603.649 137.593 606.003 138.378 608.382 139.015L608.676 139.089L608.75 139.383C608.897 139.898 609.044 140.413 609.191 140.928C610.294 140.879 611.398 140.806 612.501 140.732L612.232 139.923L613.139 140.094C613.973 140.242 614.782 140.389 615.616 140.511C622.874 139.923 630.035 138.966 637.023 137.642C634.596 137.936 632.094 138.133 629.471 138.182H628.931V122.071H645.066V122.61C644.944 127.441 644.453 131.904 643.448 136.171V136.318C644.159 136.146 644.919 135.975 645.68 135.803V101.448H645.827C645.606 100.614 645.385 99.7804 645.14 98.9466C644.674 97.4508 644.135 95.9795 643.522 94.5572C643.595 94.6063 643.669 94.6553 643.742 94.7043C642.958 92.5709 642.099 90.5111 641.143 88.5003C636.901 86.6612 632.242 85.6558 627.337 85.6558C608.112 85.6558 592.541 101.227 592.541 120.452C592.541 128.226 595.091 135.386 599.382 141.173C601.221 141.173 603.036 141.149 604.851 141.1C603.575 139.727 602.423 138.231 601.442 136.637H601.417ZM628.907 89.9716C632.291 90.1433 635.503 90.8789 638.519 92.056C639.99 94.7043 641.167 97.3772 642.124 100.124L642.418 100.982L641.511 100.81C637.465 100.05 633.394 99.6333 629.446 99.5352H628.931V89.9471L628.907 89.9716ZM628.907 102.748H629.446C634.252 102.87 638.74 103.361 643.007 104.366L643.325 104.44L643.399 104.758C644.404 109.025 644.895 113.513 644.993 118.319V118.858H628.882V102.723L628.907 102.748ZM625.719 138.206H625.179C620.348 138.084 615.885 137.593 611.619 136.588L611.3 136.514L611.226 136.195C610.221 131.904 609.73 127.441 609.632 122.635V122.095H625.743V138.231L625.719 138.206ZM612.526 100.124C613.458 97.3772 614.635 94.6798 616.106 92.056C619.098 90.8789 622.335 90.1433 625.694 89.9716V99.5352H625.179C621.231 99.6578 617.161 100.05 613.114 100.81L612.207 100.982L612.501 100.124H612.526ZM611.275 104.44L611.594 104.366C615.885 103.361 620.373 102.87 625.155 102.748H625.694V118.858H609.559V118.319C609.681 113.513 610.172 109.025 611.177 104.758L611.251 104.44H611.275ZM611.153 94.5817C610.196 96.8132 609.412 99.1673 608.774 101.546L608.7 101.84L608.406 101.914C606.003 102.551 603.673 103.336 601.442 104.292C603.894 100.369 607.229 97.0339 611.153 94.5572V94.5817ZM598.916 109.27C601.565 107.799 604.237 106.622 606.984 105.69L607.842 105.396L607.671 106.303C606.91 110.325 606.518 114.42 606.395 118.368V118.883H596.807C596.979 115.499 597.715 112.287 598.892 109.295L598.916 109.27ZM598.916 131.683C597.739 128.692 597.004 125.455 596.832 122.071H606.395V122.586L607.671 134.651L607.842 135.558L606.984 135.264C604.237 134.332 601.565 133.155 598.916 131.683Z" fill="white"/>
<path d="M645.655 135.803C645.999 135.729 646.342 135.656 646.685 135.558C647.642 130.727 648.157 125.675 648.157 120.477C648.157 113.831 647.323 107.431 645.802 101.448H645.655V135.803Z" fill="white"/>
<path d="M645.655 135.803C645.999 135.729 646.342 135.656 646.685 135.558C647.642 130.727 648.157 125.675 648.157 120.477C648.157 113.831 647.323 107.431 645.802 101.448H645.655V135.803Z" fill="white"/>
<path d="M652.447 136.956C653.232 135.852 653.943 134.7 654.581 133.474C653.428 133.792 652.276 134.111 651.123 134.43V137.471C651.564 137.299 652.006 137.127 652.447 136.956Z" fill="white"/>
<path d="M652.447 136.956C653.232 135.852 653.943 134.7 654.581 133.474C653.428 133.792 652.276 134.111 651.123 134.43V137.471C651.564 137.299 652.006 137.127 652.447 136.956Z" fill="white"/>
<path d="M645.949 139.089L646.244 139.015C647.519 138.672 648.745 138.28 649.996 137.863H646.195C646.097 138.304 645.998 138.721 645.9 139.138C645.9 139.138 645.949 139.138 645.974 139.138L645.949 139.089Z" fill="white"/>
<path d="M645.949 139.089L646.244 139.015C647.519 138.672 648.745 138.28 649.996 137.863H646.195C646.097 138.304 645.998 138.721 645.9 139.138C645.9 139.138 645.949 139.138 645.974 139.138L645.949 139.089Z" fill="white"/>
<path d="M646.783 135.558C646.783 135.558 646.71 135.558 646.685 135.558C646.538 136.342 646.366 137.103 646.195 137.863H649.996C650.364 137.74 650.756 137.593 651.124 137.47V134.43C649.701 134.798 648.304 135.165 646.881 135.509H646.808L646.783 135.558Z" fill="white"/>
<path d="M646.783 135.558C646.783 135.558 646.71 135.558 646.685 135.558C646.538 136.342 646.366 137.103 646.195 137.863H649.996C650.364 137.74 650.756 137.593 651.124 137.47V134.43C649.701 134.798 648.304 135.165 646.881 135.509H646.808L646.783 135.558Z" fill="white"/>
<path d="M646.783 135.558C646.783 135.558 646.71 135.558 646.685 135.558C646.538 136.342 646.366 137.103 646.195 137.863H649.996C650.364 137.74 650.756 137.593 651.124 137.47V134.43C649.701 134.798 648.304 135.165 646.881 135.509H646.808L646.783 135.558Z" fill="white"/>
<path d="M645.655 137.863V135.803C644.895 135.975 644.159 136.147 643.399 136.318L643.35 136.49L643.031 136.563C641.07 137.029 639.059 137.373 636.999 137.642C630.01 138.967 622.85 139.923 615.591 140.511C618.804 141.002 622.041 141.272 625.179 141.37H625.694V142.596C626.773 142.473 627.828 142.326 628.882 142.203V141.394H629.397C632.977 141.296 636.705 140.953 640.383 140.291C642.222 139.947 644.037 139.555 645.827 139.138C645.925 138.721 646.023 138.28 646.121 137.863H645.582H645.655Z" fill="white"/>
<path d="M645.655 137.863V135.803C644.895 135.975 644.159 136.147 643.399 136.318L643.35 136.49L643.031 136.563C641.07 137.029 639.059 137.373 636.999 137.642C630.01 138.967 622.85 139.923 615.591 140.511C618.804 141.002 622.041 141.272 625.179 141.37H625.694V142.596C626.773 142.473 627.828 142.326 628.882 142.203V141.394H629.397C632.977 141.296 636.705 140.953 640.383 140.291C642.222 139.947 644.037 139.555 645.827 139.138C645.925 138.721 646.023 138.28 646.121 137.863H645.582H645.655Z" fill="white"/>
<path d="M645.655 137.863V135.803C644.895 135.975 644.159 136.147 643.399 136.318L643.35 136.49L643.031 136.563C641.07 137.029 639.059 137.373 636.999 137.642C630.01 138.967 622.85 139.923 615.591 140.511C618.804 141.002 622.041 141.272 625.179 141.37H625.694V142.596C626.773 142.473 627.828 142.326 628.882 142.203V141.394H629.397C632.977 141.296 636.705 140.953 640.383 140.291C642.222 139.947 644.037 139.555 645.827 139.138C645.925 138.721 646.023 138.28 646.121 137.863H645.582H645.655Z" fill="white"/>
<path d="M646.17 137.863C646.342 137.103 646.513 136.343 646.66 135.558C646.317 135.632 645.974 135.705 645.63 135.803V137.863H646.17Z" fill="white"/>
<path d="M646.17 137.863C646.342 137.103 646.513 136.343 646.66 135.558C646.317 135.632 645.974 135.705 645.63 135.803V137.863H646.17Z" fill="white"/>
<path d="M646.17 137.863C646.342 137.103 646.513 136.343 646.66 135.558C646.317 135.632 645.974 135.705 645.63 135.803V137.863H646.17Z" fill="white"/>
<path d="M646.17 137.863C646.342 137.103 646.513 136.343 646.66 135.558C646.317 135.632 645.974 135.705 645.63 135.803V137.863H646.17Z" fill="white"/>
<path d="M659.534 132.002C658.799 132.223 658.063 132.468 657.327 132.689C656.322 134.013 655.096 135.582 653.723 137.225C654.998 136.882 656.248 136.539 657.499 136.171C657.573 135.999 657.671 135.803 657.769 135.631C658.235 134.699 658.872 133.277 659.534 132.002Z" fill="white"/>
<path d="M659.534 132.002C658.799 132.223 658.063 132.468 657.327 132.689C656.322 134.013 655.096 135.582 653.723 137.225C654.998 136.882 656.248 136.539 657.499 136.171C657.573 135.999 657.671 135.803 657.769 135.631C658.235 134.699 658.872 133.277 659.534 132.002Z" fill="white"/>
<path d="M612.501 140.756C611.398 140.83 610.294 140.879 609.191 140.953C609.485 141.958 609.804 142.939 610.172 143.895C611.324 143.846 612.452 143.797 613.605 143.723C613.213 142.767 612.845 141.786 612.526 140.805V140.756H612.501Z" fill="white"/>
<path d="M612.501 140.756C611.398 140.83 610.294 140.879 609.191 140.953C609.485 141.958 609.804 142.939 610.172 143.895C611.324 143.846 612.452 143.797 613.605 143.723C613.213 142.767 612.845 141.786 612.526 140.805V140.756H612.501Z" fill="white"/>
<path d="M612.501 140.756C611.398 140.83 610.294 140.879 609.191 140.953C609.485 141.958 609.804 142.939 610.172 143.895C611.324 143.846 612.452 143.797 613.605 143.723C613.213 142.767 612.845 141.786 612.526 140.805V140.756H612.501Z" fill="white"/>
<path d="M604.826 141.1C603.012 141.149 601.197 141.173 599.358 141.173C600.094 142.179 600.903 143.135 601.761 144.067C603.796 144.067 605.832 144.018 607.842 143.969C606.764 143.086 605.758 142.13 604.826 141.1Z" fill="white"/>
<path d="M604.826 141.1C603.012 141.149 601.197 141.173 599.358 141.173C600.094 142.179 600.903 143.135 601.761 144.067C603.796 144.067 605.832 144.018 607.842 143.969C606.764 143.086 605.758 142.13 604.826 141.1Z" fill="white"/>
<path d="M604.826 141.1C603.012 141.149 601.197 141.173 599.358 141.173C600.094 142.179 600.903 143.135 601.761 144.067C603.796 144.067 605.832 144.018 607.842 143.969C606.764 143.086 605.758 142.13 604.826 141.1Z" fill="white"/>
<path d="M601.197 59.319C576.479 79.1573 567.7 111.453 576.601 139.972C577.018 140.021 577.46 140.07 577.877 140.094C570.128 112.139 579.078 81.0209 603.134 61.7222C634.964 36.1704 681.31 40.8786 707.377 72.0459C707.058 71.6291 706.764 71.2122 706.445 70.8198C680.55 38.5735 633.419 33.4239 601.197 59.319Z" fill="white"/>
<path d="M589.671 164.567C589.99 164.96 590.333 165.352 590.676 165.744C585.232 158.658 581.235 150.909 578.66 142.841C578.268 142.792 577.876 142.743 577.483 142.694C580.23 150.418 584.251 157.799 589.671 164.543V164.567Z" fill="white"/>
<path d="M577.484 142.718C577.876 142.767 578.269 142.816 578.661 142.865C578.367 141.958 578.097 141.051 577.852 140.119C577.435 140.07 576.994 140.045 576.577 139.996C576.871 140.903 577.165 141.811 577.484 142.718Z" fill="white"/>
<path d="M625.547 38.3039C581.604 51.0553 556.297 97.0339 569.049 140.977C569.22 141.517 569.392 142.056 569.564 142.62C557.916 99.1673 583.1 54.1941 626.503 41.5898C669.907 28.9855 715.273 53.5075 728.686 96.4699C728.539 95.9059 728.417 95.3664 728.245 94.8024C715.493 50.8346 669.515 25.5525 625.547 38.3039Z" fill="white"/>
<path d="M551 165.107H555.512C555.757 165.107 555.978 165.107 556.223 165.107C559.215 165.279 560.662 166.456 560.931 168.687C561.103 169.913 560.76 171.017 560.049 171.924C559.264 172.88 558.136 173.42 556.738 173.469H553.06V179.648H551.025V165.107H551ZM555.267 172.047C555.438 172.047 555.586 172.047 555.733 172.047C557.4 171.973 558.136 171.532 558.651 170.453C558.847 170.06 558.945 169.57 558.872 168.932C558.724 167.412 557.891 166.627 555.831 166.48H553.035V172.047H555.267Z" fill="white"/>
<path d="M566.743 169.324C569.122 169.741 570.716 171.703 570.716 174.547C570.716 177.392 569.122 179.354 566.743 179.771C563.237 180.408 560.613 178.152 560.613 174.547C560.613 170.943 563.237 168.687 566.743 169.324ZM562.599 175.087C562.869 177.833 564.389 179.06 566.474 178.569C567.749 178.25 568.533 177.196 568.705 175.087C568.754 174.744 568.754 174.4 568.705 174.057C568.533 171.924 567.724 170.894 566.474 170.575C564.389 170.06 562.844 171.286 562.599 174.057C562.599 174.229 562.599 174.4 562.599 174.572C562.599 174.744 562.599 174.915 562.599 175.087Z" fill="white"/>
<path d="M573.192 169.496L575.743 177.588L578.244 169.496H580.574L583.099 177.588L585.674 169.496H587.342L584.129 179.648H581.996L579.323 171.139L576.699 179.648H574.492L571.28 169.496H573.168H573.192Z" fill="white"/>
<path d="M589.744 174.818C589.744 175.014 589.744 175.234 589.744 175.455C589.916 177.711 590.97 178.741 592.564 178.741C593.84 178.79 594.673 178.153 595.017 176.804C595.066 176.73 595.09 176.632 595.09 176.51H596.807C596.807 176.706 596.758 176.926 596.709 177.147C596.292 178.815 594.869 179.845 592.564 179.894C589.793 179.943 588.224 178.447 587.905 175.357C587.562 171.777 589.18 169.668 591.657 169.325C595.017 168.859 596.88 170.477 597.027 174.18C597.027 174.376 597.027 174.572 597.027 174.818H589.744ZM595.164 173.788C595.164 173.788 595.164 173.567 595.164 173.469C595.115 171.385 594.06 170.379 592.442 170.428C591.069 170.477 590.088 171.36 589.793 173.248C589.744 173.42 589.744 173.591 589.744 173.763H595.139L595.164 173.788Z" fill="white"/>
<path d="M598.989 169.496H600.804V170.918C600.804 170.918 600.926 170.722 600.976 170.624C601.589 169.766 602.324 169.324 603.452 169.3C603.747 169.3 604.09 169.3 604.384 169.373V170.967H604.212L603.967 170.918C601.711 170.796 600.804 171.678 600.804 173.787V179.599H598.989V169.447V169.496Z" fill="white"/>
<path d="M613.923 170.943L613.702 170.649C613.188 169.938 612.869 169.398 612.722 168.908C612.035 166.774 613.359 164.862 615.689 164.911C615.934 164.911 616.179 164.911 616.424 164.984C618.313 165.401 619.244 167.682 618.067 169.521C617.7 170.085 617.111 170.624 616.326 171.066C616.13 171.164 615.909 171.262 615.689 171.36L619.563 175.921C619.907 174.989 620.078 174.033 620.103 173.027H621.206C621.157 173.616 621.084 174.229 620.936 174.793C620.765 175.455 620.52 176.117 620.201 176.706L622.702 179.599H621.28L619.612 177.564C619.49 177.736 619.392 177.858 619.269 178.005C618.533 178.888 617.503 179.501 616.4 179.746C614.046 180.261 611.863 179.231 610.932 177.441C610.637 176.804 610.466 176.142 610.49 175.455C610.539 173.886 611.422 172.439 613.261 171.384C613.506 171.237 613.752 171.139 613.997 171.041L613.874 170.869L613.923 170.943ZM613.261 172.709C613.04 172.905 612.82 173.125 612.624 173.346C611.03 175.234 611.79 177.932 614.095 178.692C615.689 179.207 617.356 178.765 618.607 177.392C618.754 177.221 618.877 177.073 618.999 176.902L614.708 171.826C614.217 172.022 613.752 172.316 613.286 172.684L613.261 172.709ZM615.664 170.354C616.817 169.692 617.283 169.03 617.405 168.197C617.577 166.823 616.547 165.842 615.272 166.063C613.752 166.308 613.163 167.755 614.193 169.472C614.316 169.643 614.414 169.79 614.536 169.962C614.732 170.256 614.904 170.477 615.076 170.649C615.272 170.575 615.468 170.477 615.64 170.354H615.664Z" fill="white"/>
<path d="M629.642 165.107H638.617V166.554H631.677V171.409H638.224V172.88H631.677V178.202H638.837V179.648H629.642V165.107Z" fill="white"/>
<path d="M640.725 169.496H642.54V171.36C642.54 171.36 642.663 171.115 642.712 170.992C643.349 169.889 644.183 169.325 645.434 169.227C647.837 169.006 649.21 170.207 649.308 172.365V172.807V173.101V179.648H647.493V172.758C647.42 171.899 647.248 171.532 646.88 171.139C646.365 170.575 645.507 170.33 644.6 170.575C643.276 170.894 642.491 172.022 642.491 174.45V179.648H640.676V169.496H640.725Z" fill="white"/>
<path d="M653.207 174.818C653.207 175.014 653.207 175.234 653.207 175.455C653.379 177.711 654.433 178.741 656.027 178.741C657.302 178.79 658.136 178.153 658.479 176.804C658.528 176.73 658.553 176.632 658.553 176.51H660.27C660.27 176.706 660.221 176.926 660.171 177.147C659.755 178.815 658.332 179.845 656.027 179.894C653.256 179.943 651.687 178.447 651.368 175.357C651.025 171.777 652.643 169.668 655.12 169.325C658.479 168.859 660.343 170.477 660.49 174.18C660.49 174.376 660.49 174.572 660.49 174.818H653.207ZM658.627 173.788C658.627 173.788 658.627 173.567 658.627 173.469C658.578 171.385 657.523 170.379 655.905 170.428C654.531 170.477 653.551 171.36 653.256 173.248C653.207 173.42 653.207 173.591 653.207 173.763H658.602L658.627 173.788Z" fill="white"/>
<path d="M662.427 169.496H664.242V170.918C664.242 170.918 664.364 170.722 664.414 170.624C665.027 169.766 665.762 169.324 666.89 169.3C667.184 169.3 667.528 169.3 667.822 169.373V170.967H667.65L667.405 170.918C665.149 170.796 664.242 171.678 664.242 173.787V179.599H662.427V169.447V169.496Z" fill="white"/>
<path d="M675.4 169.496H677.239V179.575C677.239 182.395 675.351 184.16 672.016 183.988C669.613 183.841 668.362 182.787 668.19 181.217C668.19 181.07 668.19 180.948 668.19 180.825H670.03C670.03 180.825 670.03 180.972 670.03 181.021C670.128 181.978 670.79 182.591 672.187 182.689C674.1 182.836 675.228 181.831 675.351 179.991C675.351 179.869 675.351 179.746 675.351 179.648V177.417L675.253 177.588L675.057 177.883C674.027 179.452 672.261 180.04 670.373 179.28C668.926 178.667 668.019 177.417 667.749 175.332C667.7 174.719 667.7 174.106 667.798 173.469C668.19 171.09 669.662 169.594 671.28 169.349C673.291 169.03 674.738 169.717 675.375 170.918V169.471L675.4 169.496ZM673.365 178.25C674.1 178.03 674.689 177.392 675.155 176.24C675.302 175.847 675.375 175.455 675.449 174.989C675.768 171.703 674.1 170.183 672.04 170.649C670.863 170.943 669.981 171.997 669.784 173.836C669.735 174.008 669.735 174.229 669.735 174.425C669.662 177.515 671.427 178.888 673.389 178.275L673.365 178.25Z" fill="white"/>
<path d="M680.133 169.496L683.124 177.588L686.091 169.496H687.759L682.585 183.572H680.795L682.168 179.82L678.195 169.521H680.133V169.496Z" fill="white"/>
<path d="M695.484 175.602C695.312 177.319 696.759 178.716 699.235 178.496C699.628 178.496 699.996 178.373 700.314 178.226C701.491 177.711 701.982 176.926 701.957 175.896C701.908 174.817 701.491 174.278 700.216 173.763L699.162 173.42L697.887 172.954C697.691 172.88 697.494 172.807 697.274 172.733C694.159 171.531 693.228 170.085 693.988 167.608C694.478 165.965 696.121 164.837 698.745 164.837C701.933 164.788 703.747 166.455 703.846 168.613H701.786C701.786 167.314 700.682 166.308 698.745 166.308C697.176 166.308 696.293 166.897 695.925 168.025C695.459 169.472 696.17 170.551 698.647 171.409L700.045 171.875L700.756 172.12L701.295 172.316C703.551 173.15 704.434 174.744 703.895 176.877C703.453 178.643 702.031 179.697 699.407 179.869C698.892 179.918 698.353 179.869 697.838 179.869C695.14 179.624 693.841 178.569 693.497 176.509C693.448 176.215 693.448 175.896 693.448 175.602H695.484Z" fill="white"/>
<path d="M711.349 169.324C713.727 169.741 715.321 171.703 715.321 174.547C715.321 177.392 713.727 179.354 711.349 179.771C707.842 180.408 705.218 178.152 705.218 174.547C705.218 170.943 707.842 168.687 711.349 169.324ZM707.205 175.087C707.474 177.833 708.995 179.06 711.079 178.569C712.354 178.25 713.139 177.196 713.335 175.087C713.384 174.744 713.384 174.4 713.335 174.057C713.163 171.924 712.354 170.894 711.079 170.575C708.995 170.06 707.45 171.286 707.205 174.057C707.205 174.229 707.205 174.4 707.205 174.572C707.205 174.744 707.205 174.915 707.205 175.087Z" fill="white"/>
<path d="M723.855 172.806C723.855 172.806 723.806 172.537 723.806 172.39C723.757 172.218 723.708 172.022 723.634 171.875C723.046 170.501 721.108 170.035 719.686 171.237C719.049 171.776 718.607 172.659 718.509 174.082C718.46 174.523 718.509 174.989 718.558 175.43C718.828 177.539 719.662 178.446 721.206 178.545C722.702 178.643 723.61 177.931 723.83 176.534C723.83 176.436 723.83 176.338 723.879 176.239H725.596C725.596 176.46 725.596 176.681 725.522 176.877C725.13 178.839 723.585 180.04 721.133 179.918C718.288 179.82 716.645 178.03 716.596 174.719C716.547 171.531 718.141 169.545 720.495 169.251C723.413 168.858 725.154 170.109 725.571 172.291C725.571 172.463 725.62 172.635 725.645 172.806H723.879H723.855Z" fill="white"/>
<path d="M727.289 165.107H729.103V167.265H727.289V165.107ZM727.289 169.496H729.103V179.648H727.289V169.496Z" fill="white"/>
<path d="M732.953 174.818C732.953 175.014 732.953 175.234 732.953 175.455C733.124 177.711 734.179 178.741 735.773 178.741C737.048 178.79 737.882 178.153 738.225 176.804C738.274 176.73 738.299 176.632 738.299 176.51H740.015C740.015 176.706 739.966 176.926 739.917 177.147C739.5 178.815 738.078 179.845 735.773 179.894C733.002 179.943 731.432 178.447 731.114 175.357C730.77 171.777 732.389 169.668 734.866 169.325C738.225 168.859 740.089 170.477 740.236 174.18C740.236 174.376 740.236 174.572 740.236 174.818H732.953ZM738.372 173.788C738.372 173.788 738.372 173.567 738.372 173.469C738.323 171.385 737.269 170.379 735.65 170.428C734.277 170.477 733.296 171.36 733.002 173.248C732.953 173.42 732.953 173.591 732.953 173.763H738.348L738.372 173.788Z" fill="white"/>
<path d="M740.505 169.496H742.345V167.436L744.159 166.701V169.496H746.44V170.722H744.159V176.951C744.282 178.177 744.552 178.422 745.9 178.398C746.096 178.398 746.293 178.398 746.538 178.324V179.673C746.121 179.771 745.753 179.82 745.361 179.844C743.105 179.893 742.32 179.158 742.32 176.828V170.722H740.481V169.496H740.505Z" fill="white"/>
<path d="M747.739 169.496L750.731 177.588L753.698 169.496H755.365L750.191 183.572H748.401L749.774 179.82L745.802 169.521H747.739V169.496Z" fill="white"/>
<path d="M611.422 163.096C611.716 163.218 612.035 163.316 612.33 163.415C589.083 153.876 577.631 127.49 586.729 103.949C595.826 80.4078 622.065 68.5638 645.679 77.1219C645.385 76.9993 645.091 76.8767 644.797 76.7541C620.961 67.5338 594.159 79.4025 584.963 103.238C575.743 127.073 587.611 153.876 611.447 163.071L611.422 163.096Z" fill="white"/>
<path d="M650.191 104.415H666.744L668.681 104.513C676.503 104.807 680.059 107.971 680.599 114.714C681.261 122.12 676.7 127.417 669.171 127.76L668.117 127.809H661.471V140.953H650.191V104.415ZM664.218 120.82H665.223L665.934 120.771C667.7 120.722 668.926 119.913 669.735 118.245C670.079 117.534 670.299 116.627 670.201 115.352C669.956 112.409 668.436 110.987 665.027 110.84H661.324V120.845H664.218V120.82Z" fill="white"/>
<path d="M683.149 104.415H709.436V111.674H694.257V118.613H708.725V126.117H694.257V133.67H709.755V140.928H683.149V104.391V104.415Z" fill="white"/>
<path d="M722.481 128.716C722.383 129.182 722.383 129.623 722.432 130.089C722.629 133.449 724.86 135.313 728.416 134.969C729.029 134.92 729.544 134.749 729.985 134.552C731.702 133.694 732.511 132.419 732.462 130.653C732.364 128.716 731.285 127.343 729.102 126.632L728.734 126.534L726.797 125.97L723.806 125.16C723.462 125.062 723.094 124.94 722.751 124.793C713.653 121.85 711.03 118.491 712.599 111.943C713.874 106.573 718.68 103.262 727.778 103.361C728.587 103.361 729.446 103.41 730.255 103.459C736.655 104.023 739.966 105.886 741.829 109.295C742.736 110.962 743.153 112.851 743.055 114.763H732.437V114.003C732.388 113.39 732.192 112.777 731.922 112.237C730.941 110.472 729.274 109.638 726.748 109.908C726.184 109.957 725.694 110.104 725.228 110.3C723.389 111.281 722.629 112.9 723.045 114.812C723.462 116.48 724.615 117.461 727.974 118.417L731.334 119.373L735.355 120.501C741.756 122.316 744.649 126.853 743.227 132.983C742.001 138.255 738.102 141.002 729.715 141.468C728.048 141.517 726.527 141.517 724.983 141.369C718.141 140.805 714.536 138.525 712.648 134.528C711.79 132.713 711.471 130.727 711.692 128.692H722.457L722.481 128.716Z" fill="white"/>
<path d="M650.338 83.2036H653.747V100.908H650.338V83.2036Z" fill="white"/>
<path d="M656.077 83.2036H667.994V85.8765H660.098V90.4621H667.602V93.2086H660.098V98.2355H668.19V100.908H656.077V83.2036Z" fill="white"/>
<path d="M670.176 83.2036H682.094V85.8765H674.198V90.4621H681.702V93.2086H674.198V98.2355H682.29V100.908H670.176V83.2036Z" fill="white"/>
<path d="M684.252 83.2036H696.17V85.8765H688.274V90.4621H695.778V93.2086H688.274V98.2355H696.366V100.908H684.252V83.2036Z" fill="white"/>
<path d="M607.008 154.44C589.058 143.503 583.222 120.231 593.742 102.134C593.594 102.355 593.447 102.576 593.3 102.796C582.216 120.992 587.979 144.704 606.174 155.813C624.369 166.897 648.107 161.134 659.191 142.939C659.338 142.718 659.46 142.473 659.583 142.252C648.327 159.908 624.983 165.401 607.008 154.44Z" fill="white"/>
<path d="M765.077 169.03C765.077 171.016 763.483 172.586 761.472 172.586C759.461 172.586 757.843 171.016 757.843 169.03C757.843 167.044 759.461 165.499 761.497 165.499C763.532 165.499 765.077 167.044 765.077 169.03ZM758.726 169.03C758.726 170.6 759.903 171.85 761.472 171.85C762.992 171.85 764.169 170.6 764.169 169.055C764.169 167.51 763.017 166.21 761.447 166.21C759.878 166.21 758.75 167.485 758.75 169.03H758.726ZM760.883 170.845H760.074V167.314C760.393 167.265 760.859 167.216 761.423 167.216C762.085 167.216 762.404 167.314 762.625 167.485C762.845 167.632 762.992 167.902 762.992 168.245C762.992 168.687 762.674 168.957 762.257 169.079V169.128C762.6 169.226 762.772 169.521 762.87 169.987C762.968 170.526 763.066 170.722 763.139 170.845H762.281C762.183 170.722 762.11 170.403 762.011 169.987C761.938 169.619 761.742 169.447 761.276 169.447H760.883V170.845ZM760.908 168.883H761.3C761.742 168.883 762.11 168.736 762.11 168.368C762.11 168.049 761.864 167.829 761.349 167.829C761.129 167.829 760.982 167.829 760.908 167.878V168.883Z" fill="white"/>
</g>
<defs>
<clipPath id="clip0_44_12261">
<rect width="841" height="280" fill="white"/>
</clipPath>
</defs>
</svg>
